<svg width="40" height="40" viewBox="0 0 40 40" fill="none" xmlns="http://www.w3.org/2000/svg">
<g clip-path="url(#clip0_804_241)">
<path d="M40 0H0V40H40V0Z" fill="#171515"/>
<path fill-rule="evenodd" clip-rule="evenodd" d="M20.1161 5C16.5262 5.00144 13.0539 6.27993 10.3203 8.60683C7.58663 10.9337 5.76994 14.1572 5.19514 17.7008C4.62034 21.2444 5.32491 24.8768 7.18285 27.9485C9.04079 31.0202 11.9309 33.3308 15.3363 34.4669C16.0914 34.6061 16.3698 34.1389 16.3698 33.7392C16.3698 33.3785 16.3561 32.1877 16.3488 30.9242C12.1427 31.8386 11.2546 29.1407 11.2546 29.1407C10.567 27.3931 9.57555 26.9259 9.57555 26.9259C8.20446 25.9872 9.68102 26.0073 9.68102 26.0073C11.1987 26.1127 12.0013 27.5661 12.0013 27.5661C13.3503 29.8769 15.5388 29.2093 16.4015 28.8222C16.5375 27.8445 16.9288 27.178 17.3613 26.8004C13.9989 26.4207 10.4678 25.1255 10.4678 19.33C10.4466 17.8274 11.0044 16.3742 12.0256 15.2716C11.8684 14.8909 11.3506 13.3531 12.1722 11.2701C12.1722 11.2701 13.4378 10.8641 16.3308 12.8205C18.8095 12.1422 21.4248 12.1422 23.9035 12.8205C26.7891 10.8641 28.0579 11.2701 28.0579 11.2701C28.8805 13.3531 28.3627 14.8909 28.2066 15.2716C29.228 16.3739 29.7852 17.8275 29.7623 19.33C29.7623 25.1382 26.2248 26.4154 22.8583 26.7909C23.4004 27.2602 23.8834 28.1799 23.8834 29.5911C23.8834 31.614 23.8666 33.2424 23.8666 33.7402C23.8666 34.1431 24.1387 34.6146 24.9054 34.4659C28.3108 33.3289 31.2005 31.0175 33.0578 27.945C34.915 24.8726 35.6186 21.2397 35.0426 17.696C34.4666 14.1524 32.6487 10.9293 29.914 8.60321C27.1793 6.27716 23.7062 4.99993 20.1161 5Z" fill="#FAFBFC"/>
<path d="M10.723 26.7078C10.6893 26.7827 10.5712 26.8059 10.4636 26.7542C10.356 26.7025 10.2927 26.6023 10.3275 26.5264C10.3623 26.4504 10.4783 26.4272 10.588 26.4789C10.6977 26.5306 10.761 26.6318 10.723 26.7067V26.7078Z" fill="#FAFBFC"/>
<path d="M11.3358 27.3912C11.2641 27.4577 11.1248 27.4271 11.0268 27.3216C10.9287 27.2162 10.9097 27.0748 10.9825 27.0052C11.0552 26.9356 11.1934 26.9694 11.2925 27.0748C11.3917 27.1803 11.4107 27.3216 11.3358 27.3912Z" fill="#FAFBFC"/>
<path d="M11.9313 28.2648C11.8385 28.3291 11.6867 28.2648 11.5938 28.134C11.501 28.0032 11.501 27.8387 11.5938 27.7744C11.6867 27.71 11.8364 27.768 11.9324 27.9009C12.0284 28.0338 12.0242 28.1983 11.9324 28.2648H11.9313Z" fill="#FAFBFC"/>
<path d="M12.7477 29.1058C12.6644 29.1975 12.4882 29.1722 12.3596 29.0477C12.2309 28.9233 12.1908 28.7524 12.2731 28.6617C12.3554 28.571 12.5347 28.5963 12.6644 28.7197C12.7941 28.8431 12.8352 29.015 12.7477 29.1058Z" fill="#FAFBFC"/>
<path d="M13.8744 29.5944C13.8375 29.7126 13.6635 29.7663 13.4968 29.7157C13.3302 29.6651 13.2142 29.5259 13.2479 29.4056C13.2817 29.2854 13.4589 29.2306 13.6266 29.2844C13.7942 29.3381 13.9092 29.4731 13.8733 29.5944H13.8744Z" fill="#FAFBFC"/>
<path d="M15.1123 29.6834C15.1123 29.8078 14.971 29.9112 14.7959 29.9144C14.6208 29.9175 14.4689 29.8173 14.4668 29.6939C14.4647 29.5705 14.6081 29.4661 14.7896 29.463C14.971 29.4598 15.1165 29.56 15.1165 29.6834H15.1123Z" fill="#FAFBFC"/>
<path d="M16.2639 29.4888C16.285 29.6101 16.1584 29.7356 15.9823 29.7683C15.8061 29.801 15.6437 29.725 15.6216 29.6048C15.5994 29.4845 15.727 29.3548 15.9021 29.3221C16.0772 29.2894 16.2407 29.3643 16.2639 29.4877V29.4888Z" fill="#FAFBFC"/>
</g>
<defs>
<clipPath id="clip0_804_241">
<rect width="40" height="40" rx="9" fill="white"/>
</clipPath>
</defs>
</svg>
