<svg width="65" height="49" viewBox="0 0 65 49" fill="none" xmlns="http://www.w3.org/2000/svg">
<path d="M6.24121 36.098V46.0871" stroke="#00A695" stroke-width="4" stroke-linecap="round"/>
<path d="M17.5752 36.098V46.0871" stroke="#00A695" stroke-width="4" stroke-linecap="round"/>
<path d="M28.9092 36.098V46.0871" stroke="#00A695" stroke-width="4" stroke-linecap="round"/>
<path d="M40.2432 36.098V46.0871" stroke="#00A695" stroke-width="4" stroke-linecap="round"/>
<path d="M23.2422 9.1488C25.8028 12.3811 33.4932 18.6441 43.7694 17.8382" stroke="#00A695" stroke-width="4" stroke-linecap="round"/>
<path d="M24.7539 26.2758C27.3146 29.508 36.9695 31.1871 43.7699 29.8018" stroke="#00A695" stroke-width="4" stroke-linecap="round"/>
<path d="M23.2422 9.1488C20.6815 12.3811 12.9911 18.6442 2.7148 17.8383" stroke="#00A695" stroke-width="4" stroke-linecap="round"/>
<path d="M32.8135 21.8676C21.1016 28.9198 12.9914 29.7257 2.71515 28.9198" stroke="#00A695" stroke-width="4" stroke-linecap="round"/>
<path d="M45.6931 24.8677C51.0696 27.3671 57.4542 25.0347 59.9536 19.6583C62.4529 14.2818 60.1206 7.89719 54.7441 5.39783" stroke="#00A695" stroke-width="4" stroke-linecap="round"/>
<path d="M42.2973 11.4504C41.8317 12.452 40.6422 12.8865 39.6406 12.4209C38.639 11.9553 38.2045 10.7658 38.6701 9.76417L42.2973 11.4504ZM53.901 7.21144C49.5262 5.17771 44.3311 7.07554 42.2973 11.4504L38.6701 9.76417C41.6351 3.38608 49.2091 0.619223 55.5872 3.58422L53.901 7.21144Z" fill="#00A695"/>
</svg>
