<svg width="82" height="61" viewBox="0 0 82 61" fill="none" xmlns="http://www.w3.org/2000/svg">
<path d="M8.00391 44.9844V57.4547" stroke="white" stroke-width="6" stroke-linecap="round"/>
<path d="M22.2695 44.9844V57.4547" stroke="white" stroke-width="6" stroke-linecap="round"/>
<path d="M36.5352 44.9844V57.4547" stroke="white" stroke-width="6" stroke-linecap="round"/>
<path d="M50.8008 44.9844V57.4547" stroke="white" stroke-width="6" stroke-linecap="round"/>
<path d="M29.4023 11.3398C32.6251 15.375 42.3041 23.1938 55.2375 22.1877" stroke="white" stroke-width="6" stroke-linecap="round"/>
<path d="M31.3047 32.7227C34.5275 36.7578 46.679 38.854 55.2379 37.1246" stroke="white" stroke-width="6" stroke-linecap="round"/>
<path d="M29.4023 11.3398C26.1795 15.375 16.5005 23.1939 3.56695 22.1878" stroke="white" stroke-width="6" stroke-linecap="round"/>
<path d="M41.4492 27.2188C26.7089 36.0227 16.5016 37.0288 3.56802 36.0227" stroke="white" stroke-width="6" stroke-linecap="round"/>
<path d="M57.6555 30.9624C64.4222 34.0826 72.4577 31.1709 75.6034 24.459C78.749 17.747 75.8136 9.77645 69.0469 6.65625" stroke="white" stroke-width="6" stroke-linecap="round"/>
<path d="M53.8223 14.4155C53.1189 15.9163 51.3294 16.5707 49.8254 15.8772C48.3213 15.1836 47.6722 13.4048 48.3756 11.9039L53.8223 14.4155ZM67.7733 9.3737C62.4953 6.93997 56.2574 9.21956 53.8223 14.4155L48.3756 11.9039C52.2318 3.67593 62.065 0.13212 70.3204 3.9388L67.7733 9.3737Z" fill="white"/>
</svg>
