<svg width="519" height="205" viewBox="0 0 519 205" fill="none" xmlns="http://www.w3.org/2000/svg">
<path fill-rule="evenodd" clip-rule="evenodd" d="M404.257 23.6952C406.9 27.9772 412.507 29.3141 416.797 26.6937L416.831 26.6736C416.884 26.6427 416.989 26.5816 417.146 26.4944C417.459 26.3199 417.977 26.0419 418.684 25.6937C420.101 24.9964 422.269 24.0241 425.082 23.039C430.72 21.0651 438.856 19.0721 448.699 19.0721C459.559 19.0721 466.526 19.9919 470.94 21.6953C474.693 23.1433 476.23 24.9592 477.104 27.7894C477.109 27.8091 477.153 27.9787 477.186 28.342C477.222 28.7409 477.237 29.2847 477.206 29.9898C477.142 31.4194 476.902 33.2198 476.47 35.3557C475.604 39.6345 474.106 44.5849 472.413 49.4258C470.735 54.2258 468.938 58.7102 467.554 62.0079C466.865 63.6514 466.283 64.9873 465.877 65.9051C465.674 66.3637 465.516 66.7171 465.41 66.9514C465.357 67.0685 465.317 67.1558 465.292 67.2115L465.264 67.2712L465.259 67.2835C464.165 69.6592 464.177 72.2614 465.081 74.5107L389.918 74.0453C384.87 74.014 380.752 78.0797 380.718 83.1261C380.685 88.1726 384.749 92.2889 389.797 92.3201L437.117 92.6131V120.702C417.871 124.753 403.457 141.334 403.457 161.172C403.457 184.046 422.619 202.589 446.257 202.589C469.895 202.589 489.058 184.046 489.058 161.172C489.058 141.333 474.643 124.753 455.396 120.701V92.7263L509.8 93.0631C514.848 93.0944 518.966 89.0287 519 83.9823C519.033 78.9358 514.969 74.8195 509.921 74.7883L482.004 74.6154L482.067 74.4764C482.192 74.2007 482.37 73.8031 482.594 73.2977C483.041 72.2874 483.669 70.8432 484.41 69.078C485.887 65.5585 487.83 60.712 489.668 55.4571C491.491 50.2433 493.285 44.4149 494.386 38.9811C495.393 34.002 496.199 27.6748 494.569 22.3969C491.866 13.6452 485.907 7.88174 477.522 4.64592C469.798 1.66547 459.985 0.796875 448.699 0.796875C436.396 0.796875 426.199 3.28435 419.041 5.79093C415.456 7.04607 412.61 8.31401 410.612 9.29689C409.613 9.78881 408.823 10.2109 408.256 10.5264C407.972 10.6843 407.744 10.8156 407.573 10.916C407.487 10.9662 407.416 11.0087 407.359 11.0429L407.285 11.0879L407.256 11.1056L407.244 11.1132L407.238 11.1167C407.235 11.1183 407.233 11.12 411.993 18.8292L407.233 11.12C402.938 13.7708 401.605 19.401 404.257 23.6952ZM481.182 74.6104L481.18 74.6103L473.605 71.1234C478.269 73.2702 480.299 74.2042 481.182 74.6104ZM446.257 184.314C460.367 184.314 470.779 173.395 470.779 161.172C470.779 148.949 460.367 138.03 446.257 138.03C432.147 138.03 421.736 148.949 421.736 161.172C421.736 173.395 432.147 184.314 446.257 184.314Z" fill="white"/>
<path fill-rule="evenodd" clip-rule="evenodd" d="M131.069 56.5103C131.069 81.8435 112.934 102.942 88.9354 107.537V166.489H150.453C155.501 166.489 159.593 170.58 159.593 175.627C159.593 180.673 155.501 184.764 150.453 184.764H9.1394C4.09187 184.764 0 180.673 0 175.627C0 170.58 4.09187 166.489 9.1394 166.489H70.6567V107.783C45.9742 103.749 27.138 82.3288 27.138 56.5103C27.138 27.8162 50.4037 4.5551 79.1034 4.5551C107.803 4.5551 131.069 27.8162 131.069 56.5103ZM79.1034 90.1903C97.7079 90.1903 112.79 75.1112 112.79 56.5103C112.79 37.9094 97.7079 22.8303 79.1034 22.8303C60.4988 22.8303 45.4168 37.9094 45.4168 56.5103C45.4168 75.1112 60.4988 90.1903 79.1034 90.1903Z" fill="white"/>
<path d="M299.295 73.0539C299.295 78.1005 295.203 82.1915 290.155 82.1915H278.68V175.627C278.68 180.673 274.588 184.764 269.54 184.764C264.493 184.764 260.401 180.673 260.401 175.627V73.1692C260.401 73.1308 260.4 73.0924 260.4 73.0539C260.4 73.0154 260.401 72.977 260.401 72.9386V15.8725C260.401 10.8259 264.493 6.73486 269.54 6.73486C274.588 6.73486 278.68 10.8259 278.68 15.8725V63.9163H290.155C295.203 63.9163 299.295 68.0074 299.295 73.0539Z" fill="white"/>
<path d="M155.929 18.3886C155.929 13.3421 160.02 9.25103 165.068 9.25103H231.694C235.117 9.25103 238.253 11.1636 239.82 14.2065C241.387 17.2495 241.121 20.9127 239.132 23.6981L188.204 95.0174L233.689 86.7386C237.411 86.0611 241.166 87.7467 243.133 90.9781C245.1 94.2094 244.872 98.3184 242.56 101.313L192.231 166.489H241C246.047 166.489 250.139 170.58 250.139 175.627C250.139 180.673 246.047 184.764 241 184.764H173.629C170.144 184.764 166.963 182.783 165.426 179.656C163.89 176.529 164.265 172.8 166.395 170.043L213.547 108.98L169.311 117.032C165.65 117.698 161.95 116.079 159.957 112.938C157.963 109.796 158.073 105.76 160.235 102.732L213.939 27.5263H165.068C160.02 27.5263 155.929 23.4352 155.929 18.3886Z" fill="white"/>
<path d="M321.756 156.181C316.708 156.181 312.616 160.272 312.616 165.319C312.616 170.365 316.708 174.456 321.756 174.456H323.88L317.305 192.534C315.58 197.277 318.027 202.52 322.771 204.244C327.514 205.969 332.758 203.522 334.483 198.779L345.517 168.441C346.536 165.64 346.124 162.518 344.414 160.076C342.703 157.635 339.909 156.181 336.928 156.181H321.756Z" fill="white"/>
</svg>
