<svg width="267" height="301" viewBox="0 0 267 301" fill="none" xmlns="http://www.w3.org/2000/svg">
<path fill-rule="evenodd" clip-rule="evenodd" d="M17.2702 105.788C22.9806 46.1913 73.0465 0.693359 132.916 0.693359C192.88 0.693359 242.992 46.3298 248.585 106.032L257.131 197.241C257.852 204.934 259.327 212.536 261.536 219.939L265.365 232.77C269.976 248.221 258.403 263.752 242.279 263.752H183.351C176.532 284.924 156.669 300.243 133.229 300.243C109.788 300.243 89.9255 284.924 83.1062 263.752H24.2382C8.45881 263.752 -3.06069 248.835 0.928751 233.568L5.01 217.95C6.60015 211.865 7.70045 205.662 8.30035 199.401L17.2702 105.788ZM242.279 239.659H24.2382L28.3195 224.041C30.2348 216.712 31.5601 209.24 32.2827 201.699L41.2525 108.086C45.7788 60.8483 85.4621 24.7856 132.916 24.7856C180.445 24.7856 220.165 60.9581 224.598 108.279L233.144 199.489C234.012 208.754 235.789 217.911 238.45 226.829L242.279 239.659ZM109.68 263.752C114.827 271.24 123.454 276.151 133.229 276.151C143.003 276.151 151.63 271.24 156.778 263.752H109.68Z" fill="#00A695"/>
</svg>
