<svg width="314" height="239" viewBox="0 0 314 239" fill="none" xmlns="http://www.w3.org/2000/svg">
<path fill-rule="evenodd" clip-rule="evenodd" d="M219.32 127.992C219.32 162.449 191.387 190.382 156.93 190.382C122.473 190.382 94.5405 162.449 94.5405 127.992C94.5405 93.5351 122.473 65.6023 156.93 65.6023C191.387 65.6023 219.32 93.5351 219.32 127.992ZM195.671 127.992C195.671 149.388 178.326 166.733 156.93 166.733C135.534 166.733 118.189 149.388 118.189 127.992C118.189 106.596 135.534 89.2508 156.93 89.2508C178.326 89.2508 195.671 106.596 195.671 127.992Z" fill="#00A695"/>
<path fill-rule="evenodd" clip-rule="evenodd" d="M126.631 0.829102C116.886 0.829102 107.57 4.83816 100.87 11.915L85.9041 27.7243H35.6468C16.0557 27.7243 0.174072 43.606 0.174072 63.197V203.476C0.174072 223.067 16.0557 238.949 35.6468 238.949H278.214C297.805 238.949 313.686 223.067 313.686 203.476V63.197C313.686 43.606 297.805 27.7243 278.214 27.7243H235.003C231.755 27.7243 228.65 26.388 226.416 24.029L214.948 11.915C208.249 4.83815 198.933 0.829102 189.188 0.829102H126.631ZM89.0342 51.3728C89.3643 51.3728 89.6914 51.3592 90.0147 51.3327C93.4671 51.617 97.0127 50.3888 99.5794 47.6775L118.044 28.1729C120.277 25.8139 123.382 24.4776 126.631 24.4776H189.188C192.436 24.4776 195.542 25.8139 197.775 28.1729L209.243 40.2868C215.942 47.3637 225.258 51.3728 235.003 51.3728H278.214C284.744 51.3728 290.038 56.6667 290.038 63.197V203.476C290.038 210.007 284.744 215.301 278.214 215.301H35.6468C29.1164 215.301 23.8225 210.007 23.8225 203.476V63.197C23.8225 56.6667 29.1164 51.3728 35.6468 51.3728H89.0342Z" fill="#00A695"/>
</svg>
