<svg width="40" height="40" viewBox="0 0 40 40" fill="none" xmlns="http://www.w3.org/2000/svg">
<rect width="40" height="40" rx="9" fill="#1E1E1E"/>
<g clip-path="url(#clip0_804_257)">
<path d="M19.5248 19.7879C19.5248 18.6574 19.9739 17.5732 20.7732 16.7738C21.5726 15.9745 22.6568 15.5254 23.7873 15.5254C24.9178 15.5254 26.0019 15.9745 26.8013 16.7738C27.6007 17.5732 28.0498 18.6574 28.0498 19.7879C28.0498 20.9184 27.6007 22.0026 26.8013 22.8019C26.0019 23.6013 24.9178 24.0504 23.7873 24.0504C22.6568 24.0504 21.5726 23.6013 20.7732 22.8019C19.9739 22.0026 19.5248 20.9184 19.5248 19.7879V19.7879Z" fill="#1ABCFE"/>
<path d="M10.9998 28.3113C10.9998 27.1808 11.4489 26.0967 12.2483 25.2973C13.0476 24.4979 14.1318 24.0488 15.2623 24.0488H19.5248V28.3113C19.5248 29.4418 19.0757 30.526 18.2764 31.3254C17.477 32.1247 16.3928 32.5738 15.2623 32.5738C14.1318 32.5738 13.0476 32.1247 12.2483 31.3254C11.4489 30.526 10.9998 29.4418 10.9998 28.3113V28.3113Z" fill="#0ACF83"/>
<path d="M19.5248 7V15.525H23.7873C24.9178 15.525 26.0019 15.0759 26.8013 14.2765C27.6007 13.4772 28.0498 12.393 28.0498 11.2625C28.0498 10.132 27.6007 9.04783 26.8013 8.24846C26.0019 7.44908 24.9178 7 23.7873 7H19.5248Z" fill="#FF7262"/>
<path d="M10.9998 11.2625C10.9998 12.393 11.4489 13.4772 12.2483 14.2765C13.0476 15.0759 14.1318 15.525 15.2623 15.525H19.5248V7H15.2623C14.1318 7 13.0476 7.44908 12.2483 8.24846C11.4489 9.04783 10.9998 10.132 10.9998 11.2625V11.2625Z" fill="#F24E1E"/>
<path d="M10.9998 19.7879C10.9998 20.9184 11.4489 22.0026 12.2483 22.8019C13.0476 23.6013 14.1318 24.0504 15.2623 24.0504H19.5248V15.5254H15.2623C14.1318 15.5254 13.0476 15.9745 12.2483 16.7738C11.4489 17.5732 10.9998 18.6574 10.9998 19.7879V19.7879Z" fill="#A259FF"/>
</g>
<defs>
<clipPath id="clip0_804_257">
<rect width="17.05" height="25.575" fill="white" transform="translate(11 7)"/>
</clipPath>
</defs>
</svg>
