<svg width="369" height="325" viewBox="0 0 369 325" fill="none" xmlns="http://www.w3.org/2000/svg">
<path fill-rule="evenodd" clip-rule="evenodd" d="M121.918 100.206L92.7047 70.9924C81.6654 59.9531 81.6654 42.0549 92.7047 31.0155L114.645 9.07489C125.685 -1.96442 143.583 -1.96443 154.622 9.07488L184.266 38.7183L213.918 9.06635C224.957 -1.97296 242.855 -1.97296 253.895 9.06635L275.835 31.007C286.875 42.0463 286.875 59.9446 275.835 70.9839L246.483 100.337L288.657 142.51C289.065 142.918 289.458 143.336 289.835 143.762L305.442 128.155C316.481 117.116 334.38 117.116 345.419 128.156L359.757 142.493C370.796 153.533 370.796 171.431 359.757 182.47L345.419 196.808C334.38 207.847 316.481 207.847 305.442 196.808L289.852 181.218C289.469 181.65 289.07 182.073 288.656 182.487L246.491 224.653L275.835 253.997C286.875 265.036 286.875 282.934 275.835 293.974L253.895 315.914C242.855 326.954 224.957 326.954 213.918 315.914L184.274 286.271L154.622 315.923C143.583 326.962 125.685 326.962 114.645 315.923L92.7047 293.982C81.6654 282.943 81.6654 265.045 92.7047 254.005L121.918 224.792L79.6136 182.487C79.2454 182.119 78.8895 181.743 78.5459 181.36L63.0981 196.808C52.0588 207.847 34.1605 207.847 23.1212 196.808L8.78339 182.47C-2.25593 171.431 -2.25591 153.533 8.7834 142.493L23.1212 128.155C34.1605 117.116 52.0588 117.116 63.0981 128.156L78.562 143.619C78.9007 143.243 79.2512 142.873 79.6137 142.51L121.918 100.206ZM208.146 102.575L185.776 124.945C184.69 125.587 183.268 125.441 182.335 124.508L158.391 100.564L183.802 75.1531C184.13 75.1146 184.462 75.1331 184.785 75.2087L208.146 98.5701C209.252 99.6761 209.252 101.469 208.146 102.575ZM165.922 56.3456C165.313 56.8598 164.72 57.4037 164.147 57.9774L139.904 82.2202L110.69 53.0067C109.584 51.9006 109.584 50.1073 110.69 49.0013L132.631 27.0606C133.737 25.9546 135.53 25.9546 136.637 27.0606L165.922 56.3456ZM139.904 206.806L97.5994 164.502C96.4933 163.395 96.4933 161.602 97.5994 160.496L139.904 118.192L175.21 153.497C180.176 158.464 188.229 158.464 193.195 153.497L202.662 144.031C203.232 143.545 203.787 143.032 204.326 142.493L228.497 118.322L270.671 160.496C271.777 161.602 271.777 163.395 270.671 164.502L228.505 206.667L193.33 171.492C188.364 166.525 180.311 166.525 175.345 171.492L165.877 180.959C165.308 181.445 164.753 181.957 164.214 182.496L139.904 206.806ZM139.904 242.778L110.69 271.991C109.584 273.097 109.584 274.89 110.69 275.996L132.631 297.937C133.737 299.043 135.53 299.043 136.637 297.937L165.85 268.724L139.904 242.778ZM202.559 268.584L231.903 297.928C233.01 299.035 234.803 299.035 235.909 297.928L257.85 275.988C258.956 274.882 258.956 273.088 257.85 271.982L228.505 242.638L202.559 268.584ZM228.497 82.3508L257.85 52.9982C258.956 51.8921 258.956 50.0988 257.85 48.9927L235.909 27.0521C234.803 25.946 233.01 25.946 231.903 27.0521L202.49 56.4657C203.049 56.9442 203.594 57.4481 204.124 57.9774L228.497 82.3508ZM160.394 222.414L182.764 200.044C183.85 199.403 185.272 199.548 186.205 200.482L210.149 224.425L184.274 250.299L160.394 226.419C159.288 225.313 159.288 223.52 160.394 222.414ZM327.433 178.822L341.771 164.484C342.877 163.378 342.877 161.585 341.771 160.479L327.433 146.141C326.327 145.035 324.534 145.035 323.428 146.141L307.087 162.482L323.428 178.822C324.534 179.928 326.327 179.928 327.433 178.822ZM26.7691 160.479L41.107 146.141C42.213 145.035 44.0063 145.035 45.1124 146.141L61.4529 162.482L45.1124 178.822C44.0063 179.928 42.2131 179.928 41.107 178.822L26.7691 164.484C25.6631 163.378 25.6631 161.585 26.7691 160.479Z" fill="#00A695"/>
</svg>
