<svg width="249" height="290" viewBox="0 0 249 290" fill="none" xmlns="http://www.w3.org/2000/svg">
<path fill-rule="evenodd" clip-rule="evenodd" d="M172.574 124.605C172.574 151.143 151.061 172.655 124.524 172.655C97.9862 172.655 76.4733 151.143 76.4733 124.605C76.4733 98.0675 97.9862 76.5546 124.524 76.5546C151.061 76.5546 172.574 98.0675 172.574 124.605ZM148.736 124.605C148.736 137.977 137.896 148.817 124.524 148.817C111.152 148.817 100.311 137.977 100.311 124.605C100.311 111.233 111.152 100.393 124.524 100.393C137.896 100.393 148.736 111.233 148.736 124.605Z" fill="#00A695"/>
<path fill-rule="evenodd" clip-rule="evenodd" d="M35.9086 210.727C-11.6555 163.163 -11.6554 86.0464 35.9087 38.4823L38.4013 35.9897C85.9654 -11.5744 163.082 -11.5743 210.646 35.9898L213.139 38.4824C260.703 86.0465 260.703 163.163 213.139 210.727L141.38 282.486C132.07 291.796 116.977 291.796 107.668 282.486L35.9086 210.727ZM52.7647 55.3383L55.2573 52.8457C93.5121 14.5909 155.535 14.5909 193.79 52.8457L196.283 55.3383C234.538 93.5931 234.538 155.616 196.283 193.871L124.524 265.63L52.7646 193.871C14.5098 155.616 14.5099 93.5931 52.7647 55.3383Z" fill="#00A695"/>
</svg>
