<svg width="323" height="324" viewBox="0 0 323 324" fill="none" xmlns="http://www.w3.org/2000/svg">
<path fill-rule="evenodd" clip-rule="evenodd" d="M221.13 161.889C221.13 194.394 194.779 220.745 162.274 220.745C129.769 220.745 103.418 194.394 103.418 161.889C103.418 129.384 129.769 103.034 162.274 103.034C194.779 103.034 221.13 129.384 221.13 161.889ZM196.941 161.889C196.941 181.035 181.42 196.556 162.274 196.556C143.128 196.556 127.607 181.035 127.607 161.889C127.607 142.743 143.128 127.222 162.274 127.222C181.42 127.222 196.941 142.743 196.941 161.889Z" fill="#00A695"/>
<path fill-rule="evenodd" clip-rule="evenodd" d="M161.47 0.41626C168.15 0.41626 173.565 5.83109 173.565 12.5106V40.2693C173.565 40.4422 173.561 40.6142 173.554 40.7854C231.449 46.1097 277.595 92.0109 283.3 149.795H310.849C317.528 149.795 322.943 155.21 322.943 161.889C322.943 168.569 317.528 173.983 310.849 173.983H283.3C277.595 231.767 231.449 277.668 173.554 282.993C173.561 283.164 173.565 283.336 173.565 283.509V311.268C173.565 317.947 168.15 323.362 161.47 323.362C154.791 323.362 149.376 317.947 149.376 311.268V283.509C149.376 283.283 149.382 283.058 149.394 282.835C92.2249 276.817 46.8583 231.192 41.2402 173.904C40.7842 173.957 40.3204 173.983 39.8503 173.983H12.0917C5.41215 173.983 -0.00268555 168.569 -0.00268555 161.889C-0.00268555 155.21 5.41215 149.795 12.0917 149.795H39.8503C40.3204 149.795 40.7842 149.822 41.2402 149.874C46.8583 92.5861 92.2248 46.9607 149.394 40.9431C149.382 40.7201 149.376 40.4954 149.376 40.2693V12.5106C149.376 5.83109 154.791 0.41626 161.47 0.41626ZM259.705 161.889C259.705 215.699 216.084 259.32 162.274 259.32C108.464 259.32 64.8429 215.699 64.8429 161.889C64.8429 108.079 108.464 64.458 162.274 64.458C216.084 64.458 259.705 108.079 259.705 161.889Z" fill="#00A695"/>
</svg>
