<svg width="341" height="100" viewBox="0 0 341 100" fill="none" xmlns="http://www.w3.org/2000/svg">
<path d="M162.461 66.2302V84.8597" stroke="#F6F6F6" stroke-width="7.05724" stroke-linecap="round"/>
<path d="M183.6 66.2302V84.8597" stroke="#F6F6F6" stroke-width="7.05724" stroke-linecap="round"/>
<path d="M204.737 66.2302V84.8597" stroke="#F6F6F6" stroke-width="7.05724" stroke-linecap="round"/>
<path d="M225.875 66.2302V84.8597" stroke="#F6F6F6" stroke-width="7.05724" stroke-linecap="round"/>
<path d="M194.168 15.9692C198.944 21.9974 213.286 33.6778 232.451 32.1748" stroke="#F6F6F6" stroke-width="7.05724" stroke-linecap="round"/>
<path d="M196.987 47.9111C201.762 53.9392 219.769 57.0707 232.451 54.4872" stroke="#F6F6F6" stroke-width="7.05724" stroke-linecap="round"/>
<path d="M194.168 15.9692C189.393 21.9974 175.05 33.678 155.885 32.175" stroke="#F6F6F6" stroke-width="7.05724" stroke-linecap="round"/>
<path d="M212.017 39.6902C190.175 52.8424 175.05 54.3455 155.885 52.8424" stroke="#F6F6F6" stroke-width="7.05724" stroke-linecap="round"/>
<path d="M236.039 45.2842C246.066 49.9454 257.973 45.5956 262.635 35.5686C267.296 25.5416 262.946 13.6344 252.919 8.97314" stroke="#F6F6F6" stroke-width="7.05724" stroke-linecap="round"/>
<path d="M229.524 20.1762C228.702 21.9433 226.603 22.71 224.836 21.8884C223.069 21.0669 222.302 18.9684 223.124 17.2012L229.524 20.1762ZM251.432 12.1729C243.172 8.33316 233.363 11.9163 229.524 20.1762L223.124 17.2012C228.607 5.40699 242.613 0.290582 254.407 5.77337L251.432 12.1729Z" fill="#F6F6F6"/>
<path fill-rule="evenodd" clip-rule="evenodd" d="M285.769 14.5484C287.026 16.5855 289.693 17.2215 291.734 15.9749L291.75 15.9653C291.775 15.9506 291.825 15.9215 291.9 15.8801C292.049 15.7971 292.295 15.6648 292.631 15.4991C293.305 15.1674 294.336 14.7049 295.675 14.2362C298.356 13.2971 302.226 12.349 306.908 12.349C312.073 12.349 315.387 12.7866 317.487 13.5969C319.271 14.2857 320.002 15.1494 320.418 16.4956C320.42 16.5034 320.442 16.5844 320.457 16.759C320.475 16.9488 320.482 17.2075 320.467 17.5429C320.437 18.223 320.323 19.0796 320.117 20.0957C319.705 22.1313 318.992 24.4864 318.187 26.7894C317.389 29.0729 316.534 31.2063 315.876 32.7752C315.548 33.557 315.272 34.1926 315.078 34.6292C314.982 34.8474 314.906 35.0155 314.856 35.1269C314.831 35.1827 314.812 35.2242 314.8 35.2507L314.785 35.2843C314.264 36.4145 314.27 37.6531 314.7 38.7232L278.949 38.5018C276.548 38.4869 274.589 40.4211 274.573 42.8219C274.557 45.2227 276.491 47.1809 278.891 47.1958L301.399 47.3352V60.6979C292.245 62.6253 285.389 70.5133 285.389 79.9512C285.389 90.8332 294.503 99.6548 305.746 99.6548C316.99 99.6548 326.104 90.8332 326.104 79.9512C326.104 70.5132 319.248 62.6251 310.093 60.6979V47.389L335.97 47.5493C338.371 47.5641 340.33 45.63 340.346 43.2292C340.362 40.8284 338.428 38.8701 336.028 38.8553L322.749 38.773L322.779 38.7069C322.838 38.5757 322.923 38.3866 323.03 38.1461C323.242 37.6655 323.541 36.9784 323.893 36.1387C324.596 34.4643 325.52 32.1586 326.394 29.6587C327.262 27.1783 328.115 24.4055 328.638 21.8204C329.118 19.4517 329.501 16.4416 328.726 13.9307C327.44 9.76721 324.606 7.02532 320.617 5.48592C316.944 4.06801 312.276 3.65479 306.908 3.65479C301.056 3.65479 296.206 4.83817 292.801 6.03064C291.096 6.62776 289.742 7.23096 288.792 7.69856C288.317 7.93258 287.941 8.13337 287.671 8.28349C287.536 8.35858 287.428 8.42109 287.346 8.46884C287.306 8.49273 287.272 8.51293 287.245 8.52919L287.21 8.55059L287.196 8.559L287.19 8.56263L287.187 8.5643C287.187 8.5643 287.185 8.56587 289.449 12.2334L287.185 8.56587C285.142 9.82697 284.508 12.5054 285.769 14.5484ZM305.746 90.9606C312.458 90.9606 317.41 85.7661 317.41 79.9512C317.41 74.1364 312.458 68.9419 305.746 68.9419C299.035 68.9419 294.083 74.1364 294.083 79.9512C294.083 85.7661 299.035 90.9606 305.746 90.9606Z" fill="#F6F6F6"/>
<path fill-rule="evenodd" clip-rule="evenodd" d="M62.341 30.1597C62.341 42.2117 53.7152 52.249 42.3005 54.4349V82.4807H71.5611C73.9619 82.4807 75.9082 84.427 75.9082 86.8278C75.9082 89.2287 73.9619 91.1749 71.5611 91.1749H4.346C1.94517 91.1749 -0.00109863 89.2287 -0.00109863 86.8278C-0.00109863 84.427 1.94517 82.4807 4.346 82.4807H33.6063V54.5519C21.8663 52.6328 12.9069 42.4426 12.9069 30.1597C12.9069 16.5089 23.9731 5.44271 37.6239 5.44271C51.2748 5.44271 62.341 16.5089 62.341 30.1597ZM37.6239 46.1825C46.4731 46.1825 53.6468 39.0089 53.6468 30.1597C53.6468 21.3106 46.4731 14.1369 37.6239 14.1369C28.7748 14.1369 21.6011 21.3106 21.6011 30.1597C21.6011 39.0089 28.7748 46.1825 37.6239 46.1825Z" fill="#F6F6F6"/>
<path d="M142.357 38.0302C142.357 40.431 140.41 42.3773 138.01 42.3773H132.551V86.8278C132.551 89.2287 130.605 91.1749 128.204 91.1749C125.803 91.1749 123.857 89.2287 123.857 86.8278V38.0848L123.857 38.052L123.857 38.0302L123.857 38.0151L123.857 37.9865L123.857 37.9755V10.8268C123.857 8.42598 125.803 6.47972 128.204 6.47972C130.605 6.47972 132.551 8.42598 132.551 10.8268V33.6831H138.01C140.41 33.6831 142.357 35.6293 142.357 38.0302Z" fill="#F6F6F6"/>
<path d="M74.1654 12.0238C74.1654 9.62298 76.1117 7.67672 78.5125 7.67672H110.203C111.831 7.67672 113.323 8.58658 114.068 10.0342C114.813 11.4819 114.687 13.2246 113.741 14.5497L89.517 48.479L111.152 44.5405C112.922 44.2182 114.708 45.0201 115.644 46.5573C116.579 48.0946 116.471 50.0494 115.371 51.4738L91.4326 82.4807H114.629C117.03 82.4807 118.976 84.427 118.976 86.8278C118.976 89.2287 117.03 91.1749 114.629 91.1749H82.5845C80.927 91.1749 79.4138 90.2324 78.6829 88.7447C77.952 87.2571 78.1307 85.4833 79.1436 84.1713L101.571 55.1217L80.5305 58.952C78.7892 59.269 77.0296 58.4987 76.0813 57.0043C75.1331 55.5099 75.1855 53.5897 76.2139 52.1493L101.758 16.3709H78.5125C76.1117 16.3709 74.1654 14.4247 74.1654 12.0238Z" fill="#F6F6F6"/>
<path fill-rule="evenodd" clip-rule="evenodd" d="M285.769 14.5484C287.026 16.5855 289.693 17.2215 291.734 15.9749L291.75 15.9653C291.775 15.9506 291.825 15.9215 291.9 15.8801C292.049 15.7971 292.295 15.6648 292.631 15.4991C293.305 15.1674 294.336 14.7049 295.675 14.2362C298.356 13.2971 302.226 12.349 306.908 12.349C312.073 12.349 315.387 12.7866 317.487 13.5969C319.271 14.2857 320.002 15.1494 320.418 16.4956C320.42 16.5034 320.442 16.5844 320.457 16.759C320.475 16.9488 320.482 17.2075 320.467 17.5429C320.437 18.223 320.323 19.0796 320.117 20.0957C319.705 22.1313 318.992 24.4864 318.187 26.7894C317.389 29.0729 316.534 31.2063 315.876 32.7752C315.548 33.557 315.272 34.1926 315.078 34.6292C314.982 34.8474 314.906 35.0155 314.856 35.1269C314.831 35.1827 314.812 35.2242 314.8 35.2507L314.785 35.2843C314.264 36.4145 314.27 37.6531 314.7 38.7232L278.949 38.5018C276.548 38.4869 274.589 40.4211 274.573 42.8219C274.557 45.2227 276.491 47.1809 278.891 47.1958L301.399 47.3352V60.6979C292.245 62.6253 285.389 70.5133 285.389 79.9512C285.389 90.8332 294.503 99.6548 305.746 99.6548C316.99 99.6548 326.104 90.8332 326.104 79.9512C326.104 70.5132 319.248 62.6251 310.093 60.6979V47.389L335.97 47.5493C338.371 47.5641 340.33 45.63 340.346 43.2292C340.362 40.8284 338.428 38.8701 336.028 38.8553L322.749 38.773L322.779 38.7069C322.838 38.5757 322.923 38.3866 323.03 38.1461C323.242 37.6655 323.541 36.9784 323.893 36.1387C324.596 34.4643 325.52 32.1586 326.394 29.6587C327.262 27.1783 328.115 24.4055 328.638 21.8204C329.118 19.4517 329.501 16.4416 328.726 13.9307C327.44 9.76721 324.606 7.02532 320.617 5.48592C316.944 4.06801 312.276 3.65479 306.908 3.65479C301.056 3.65479 296.206 4.83817 292.801 6.03064C291.096 6.62776 289.742 7.23096 288.792 7.69856C288.317 7.93258 287.941 8.13337 287.671 8.28349C287.536 8.35858 287.428 8.42109 287.346 8.46884C287.306 8.49273 287.272 8.51293 287.245 8.52919L287.21 8.55059L287.196 8.559L287.19 8.56263L287.187 8.5643C287.187 8.5643 287.185 8.56587 289.449 12.2334L287.185 8.56587C285.142 9.82697 284.508 12.5054 285.769 14.5484ZM305.746 90.9606C312.458 90.9606 317.41 85.7661 317.41 79.9512C317.41 74.1364 312.458 68.9419 305.746 68.9419C299.035 68.9419 294.083 74.1364 294.083 79.9512C294.083 85.7661 299.035 90.9606 305.746 90.9606Z" stroke="#F6F6F6"/>
<path fill-rule="evenodd" clip-rule="evenodd" d="M62.341 30.1597C62.341 42.2117 53.7152 52.249 42.3005 54.4349V82.4807H71.5611C73.9619 82.4807 75.9082 84.427 75.9082 86.8278C75.9082 89.2287 73.9619 91.1749 71.5611 91.1749H4.346C1.94517 91.1749 -0.00109863 89.2287 -0.00109863 86.8278C-0.00109863 84.427 1.94517 82.4807 4.346 82.4807H33.6063V54.5519C21.8663 52.6328 12.9069 42.4426 12.9069 30.1597C12.9069 16.5089 23.9731 5.44271 37.6239 5.44271C51.2748 5.44271 62.341 16.5089 62.341 30.1597ZM37.6239 46.1825C46.4731 46.1825 53.6468 39.0089 53.6468 30.1597C53.6468 21.3106 46.4731 14.1369 37.6239 14.1369C28.7748 14.1369 21.6011 21.3106 21.6011 30.1597C21.6011 39.0089 28.7748 46.1825 37.6239 46.1825Z" stroke="#F6F6F6"/>
<path d="M142.357 38.0302C142.357 40.431 140.41 42.3773 138.01 42.3773H132.551V86.8278C132.551 89.2287 130.605 91.1749 128.204 91.1749C125.803 91.1749 123.857 89.2287 123.857 86.8278V38.0848L123.857 38.052L123.857 38.0302L123.857 38.0151L123.857 37.9865L123.857 37.9755V10.8268C123.857 8.42598 125.803 6.47972 128.204 6.47972C130.605 6.47972 132.551 8.42598 132.551 10.8268V33.6831H138.01C140.41 33.6831 142.357 35.6293 142.357 38.0302Z" stroke="#F6F6F6"/>
<path d="M74.1654 12.0238C74.1654 9.62298 76.1117 7.67672 78.5125 7.67672H110.203C111.831 7.67672 113.323 8.58658 114.068 10.0342C114.813 11.4819 114.687 13.2246 113.741 14.5497L89.517 48.479L111.152 44.5405C112.922 44.2182 114.708 45.0201 115.644 46.5573C116.579 48.0946 116.471 50.0494 115.371 51.4738L91.4326 82.4807H114.629C117.03 82.4807 118.976 84.427 118.976 86.8278C118.976 89.2287 117.03 91.1749 114.629 91.1749H82.5845C80.927 91.1749 79.4138 90.2324 78.6829 88.7447C77.952 87.2571 78.1307 85.4833 79.1436 84.1713L101.571 55.1217L80.5305 58.952C78.7892 59.269 77.0296 58.4987 76.0813 57.0043C75.1331 55.5099 75.1855 53.5897 76.2139 52.1493L101.758 16.3709H78.5125C76.1117 16.3709 74.1654 14.4247 74.1654 12.0238Z" stroke="#F6F6F6"/>
</svg>
