<svg width="162" height="256" viewBox="0 0 162 256" fill="none" xmlns="http://www.w3.org/2000/svg">
<path d="M28.047 76.3142C28.047 50.3301 50.8708 27.7733 80.9299 27.7733C110.989 27.7733 133.813 50.3301 133.813 76.3142C133.813 93.8354 121.869 110.396 103.355 119.063C85.5881 127.381 64.555 144.726 64.5461 170.436C64.5436 177.566 64.5002 185.443 64.3776 193.782C64.2707 201.05 70.0758 207.029 77.3437 207.135C84.6115 207.242 90.59 201.437 90.6968 194.169C90.8217 185.679 90.8657 177.674 90.8682 170.445C90.8717 160.324 99.854 149.766 114.515 142.902C140.076 130.936 160.135 106.28 160.135 76.3142C160.135 34.1368 123.813 1.45117 80.9299 1.45117C38.0467 1.45117 1.72485 34.1368 1.72485 76.3142C1.72485 83.5828 7.61727 89.4752 14.8859 89.4752C22.1546 89.4752 28.047 83.5828 28.047 76.3142ZM77.6154 254.295C85.2008 254.295 91.3501 248.145 91.3501 240.56C91.3501 232.974 85.2008 226.825 77.6154 226.825C70.0299 226.825 63.8806 232.974 63.8806 240.56C63.8806 248.145 70.0299 254.295 77.6154 254.295Z" fill="#00A695" stroke="#00A695" stroke-width="2"/>
</svg>
