<svg width="265" height="258" viewBox="0 0 265 258" fill="none" xmlns="http://www.w3.org/2000/svg">
<path fill-rule="evenodd" clip-rule="evenodd" d="M178.212 186.135C159.387 202.934 134.557 213.143 107.341 213.143C48.5309 213.143 0.855713 165.468 0.855713 106.658C0.855713 47.8473 48.5309 0.172119 107.341 0.172119C166.152 0.172119 213.827 47.8473 213.827 106.658C213.827 130.564 205.949 152.631 192.647 170.403C193.65 170.916 194.592 171.593 195.431 172.433L261.193 238.194C265.517 242.518 265.517 249.529 261.193 253.853C256.868 258.178 249.858 258.178 245.534 253.853L179.772 188.092C179.168 187.488 178.648 186.83 178.212 186.135ZM191.682 106.658C191.682 153.237 153.921 190.998 107.341 190.998C60.7614 190.998 23.001 153.237 23.001 106.658C23.001 60.0778 60.7614 22.3174 107.341 22.3174C153.921 22.3174 191.682 60.0778 191.682 106.658Z" fill="#00A695"/>
</svg>
