<svg width="361" height="322" viewBox="0 0 361 322" fill="none" xmlns="http://www.w3.org/2000/svg">
<path fill-rule="evenodd" clip-rule="evenodd" d="M12.6267 0.227661C6.03989 0.227661 0.700195 5.56736 0.700195 12.1542C0.700195 18.7411 6.03989 24.0808 12.6267 24.0808H56.6073C62.0185 24.0808 66.7516 27.7238 68.1366 32.9547L124.215 244.756C124.733 246.711 125.406 248.591 126.22 250.386C114.136 256.697 105.889 269.346 105.889 283.923C105.889 304.805 122.817 321.733 143.699 321.733C164.582 321.733 181.51 304.805 181.51 283.923C181.51 279.525 180.76 275.303 179.379 271.378H280.522C279.142 275.303 278.392 279.525 278.392 283.923C278.392 304.805 295.32 321.733 316.203 321.733C337.085 321.733 354.013 304.805 354.013 283.923C354.013 263.04 337.085 246.112 316.203 246.112C312.641 246.112 309.194 246.604 305.927 247.525H158.803C153.392 247.525 148.659 243.882 147.274 238.651L138.455 205.344H307.5C324.555 205.344 339.24 193.305 342.585 176.581L360.002 89.4938C364.43 67.3536 347.496 46.6971 324.917 46.6971H96.4502L91.1951 26.8495C87.0401 11.1566 72.8408 0.227661 56.6073 0.227661H12.6267ZM310.076 271.378H315.676C317.247 271.378 318.747 271.074 320.12 270.522C325.922 272.216 330.16 277.574 330.16 283.923C330.16 291.631 323.911 297.88 316.203 297.88C308.494 297.88 302.245 291.631 302.245 283.923C302.245 278.412 305.438 273.647 310.076 271.378ZM102.766 70.5502L132.14 181.491H307.5C313.185 181.491 318.08 177.478 319.195 171.903L336.612 84.8158C338.088 77.4357 332.443 70.5502 324.917 70.5502H102.766ZM143.699 297.88C151.408 297.88 157.657 291.631 157.657 283.923C157.657 276.214 151.408 269.965 143.699 269.965C135.991 269.965 129.742 276.214 129.742 283.923C129.742 291.631 135.991 297.88 143.699 297.88Z" fill="#00A695"/>
</svg>
