<svg width="254" height="293" viewBox="0 0 254 293" fill="none" xmlns="http://www.w3.org/2000/svg">
<path fill-rule="evenodd" clip-rule="evenodd" d="M126.697 0.787109C97.3644 0.787109 74.4625 26.1454 77.4408 55.3268L82.4815 104.716L85.0927 175.847H31.3501C14.0769 175.847 0.0742188 189.849 0.0742188 207.122V231.963C0.0742188 249.236 14.0769 263.239 31.35 263.239H221.745C239.018 263.239 253.021 249.236 253.021 231.963V207.122C253.021 189.849 239.018 175.847 221.745 175.847H167.964L170.574 104.756L175.919 55.6581C179.108 26.3651 156.163 0.787109 126.697 0.787109ZM144.492 175.847L147.164 103.054L152.601 53.1195C154.279 37.7039 142.204 24.2433 126.697 24.2433C111.261 24.2433 99.2084 37.5883 100.776 52.9452L105.894 103.094L108.565 175.847H144.492ZM221.745 199.303H31.3501C27.0314 199.303 23.5304 202.804 23.5304 207.122V231.963C23.5304 236.281 27.0314 239.782 31.35 239.782H221.745C226.063 239.782 229.564 236.281 229.564 231.963V207.122C229.564 202.804 226.063 199.303 221.745 199.303Z" fill="#00A695"/>
<path d="M0.762128 280.412C0.762128 273.935 6.01297 268.684 12.4902 268.684L241.189 268.684C247.666 268.684 252.917 273.935 252.917 280.412C252.917 286.889 247.666 292.14 241.189 292.14L12.4902 292.14C6.01297 292.14 0.762127 286.889 0.762128 280.412Z" fill="#00A695"/>
</svg>
