<svg width="341" height="327" viewBox="0 0 341 327" fill="none" xmlns="http://www.w3.org/2000/svg">
<path fill-rule="evenodd" clip-rule="evenodd" d="M227.759 98.6714L195.484 17.4439C186.418 -5.3737 154.122 -5.3737 145.056 17.4439L112.781 98.6714L25.5559 104.266C1.05351 105.837 -8.92658 136.553 9.97261 152.226L77.2511 208.022L55.6176 292.707C49.5405 316.496 75.6685 335.479 96.4151 322.348L170.27 275.604L244.125 322.348C264.872 335.479 291 316.496 284.923 292.707L263.289 208.022L330.568 152.226C349.467 136.553 339.487 105.837 314.985 104.266L227.759 98.6714ZM131.098 122.785C130.926 123.218 130.519 123.513 130.054 123.543L27.2153 130.138C26.1263 130.208 25.6827 131.573 26.5227 132.27L105.844 198.053C106.203 198.351 106.358 198.828 106.243 199.28L80.7368 299.124C80.4667 300.181 81.6279 301.025 82.55 300.441L169.625 245.33C170.019 245.081 170.521 245.081 170.915 245.33L257.99 300.441C258.912 301.025 260.074 300.181 259.804 299.124L234.298 199.28C234.182 198.828 234.337 198.351 234.696 198.053L314.018 132.27C314.858 131.573 314.414 130.208 313.325 130.138L210.486 123.543C210.021 123.513 209.615 123.218 209.443 122.785L171.391 27.0171C170.988 26.003 169.553 26.003 169.15 27.0171L131.098 122.785Z" fill="#00A695"/>
</svg>
