<svg width="254" height="284" viewBox="0 0 254 284" fill="none" xmlns="http://www.w3.org/2000/svg">
<path d="M166.815 68.4868C171.342 73.0133 178.68 73.0133 183.207 68.4868C187.733 63.9604 187.733 56.6216 183.207 52.0952L134.743 3.63164C133.542 2.42996 132.142 1.54731 130.649 0.983671C129.54 0.564153 128.351 0.309716 127.11 0.250387C126.922 0.241341 126.735 0.236816 126.547 0.236816C125.522 0.236816 124.496 0.372067 123.5 0.642569C123.059 0.762219 122.624 0.908269 122.197 1.08085C120.821 1.63703 119.531 2.46808 118.409 3.574C118.387 3.59588 118.365 3.61787 118.343 3.63992L69.8877 52.0952C65.3613 56.6216 65.3613 63.9604 69.8877 68.4868C74.4142 73.0133 81.753 73.0133 86.2794 68.4868L114.956 39.8099L114.956 192.514C114.956 198.915 120.146 204.104 126.547 204.104C132.948 204.104 138.138 198.915 138.138 192.514V39.8093L166.815 68.4868Z" fill="#00A695"/>
<path d="M23.2555 132.306C23.2555 122.064 31.5584 113.761 41.8005 113.761H69.3722C75.7736 113.761 80.9629 108.572 80.9629 102.171C80.9629 95.7694 75.7736 90.58 69.3722 90.58H41.8005C18.7557 90.58 0.0742188 109.262 0.0742188 132.306V241.843C0.0742188 264.887 18.7557 283.569 41.8005 283.569H211.294C234.339 283.569 253.02 264.887 253.02 241.843V132.306C253.02 109.262 234.339 90.58 211.294 90.58H180.094C173.693 90.58 168.503 95.7694 168.503 102.171C168.503 108.572 173.693 113.761 180.094 113.761H211.294C221.536 113.761 229.839 122.064 229.839 132.306V241.843C229.839 252.085 221.536 260.388 211.294 260.388H41.8005C31.5584 260.388 23.2555 252.085 23.2555 241.843V132.306Z" fill="#00A695"/>
</svg>
