<svg width="600" height="216" viewBox="0 0 600 216" fill="none" xmlns="http://www.w3.org/2000/svg">
<g filter="url(#filter0_d_1973_547)">
<rect x="10" y="9.66016" width="574" height="190.207" rx="31" fill="white"/>
</g>
<path d="M89.3252 118.007V119.103H86.9346V126.872H85.6396V112.113H86.9346V118.007H89.3252ZM77.4219 113.574V122.024C79.5801 122.016 81.7798 121.85 84.2119 121.344L84.3779 122.456C81.8379 122.971 79.5469 123.12 77.3057 123.12H76.127V113.574H77.4219ZM97.4892 113.458V120.248H90.6659V113.458H97.4892ZM91.9443 114.521V119.202H96.2275V114.521H91.9443ZM101.573 112.113V116.612H103.798V117.708H101.573V122.938H100.278V112.113H101.573ZM102.254 125.461V126.557H92.3427V121.908H93.621V125.461H102.254ZM109.389 113.192C111.713 113.192 113.356 114.604 113.356 116.662C113.356 118.721 111.713 120.132 109.389 120.132C107.064 120.132 105.388 118.721 105.404 116.662C105.388 114.604 107.064 113.192 109.389 113.192ZM109.389 114.338C107.811 114.338 106.666 115.284 106.682 116.662C106.666 118.04 107.811 118.986 109.389 118.986C110.949 118.986 112.078 118.04 112.078 116.662C112.078 115.284 110.949 114.338 109.389 114.338ZM116.66 112.113V126.905H115.365V112.113H116.66ZM104.64 122.539C107.363 122.539 111.115 122.522 114.386 122.041L114.485 123.004C111.115 123.635 107.479 123.651 104.823 123.651L104.64 122.539ZM127.144 113.259C128.497 113.267 129.593 114.056 130.232 115.417H134.117V112.113H135.412V126.905H134.117V121.178H130.332C129.709 122.672 128.572 123.535 127.144 123.535C124.969 123.535 123.442 121.543 123.442 118.405C123.442 115.268 124.969 113.275 127.144 113.259ZM127.144 114.421C125.683 114.438 124.687 115.998 124.687 118.405C124.687 120.812 125.683 122.373 127.144 122.373C128.589 122.373 129.601 120.812 129.601 118.405C129.601 115.998 128.589 114.438 127.144 114.421ZM130.614 116.513C130.747 117.085 130.83 117.716 130.83 118.405C130.83 119.011 130.763 119.584 130.664 120.099H134.117V116.513H130.614ZM150.233 112.113V121.46H148.988V117.227H147.012V120.929H145.784V112.412H147.012V116.147H148.988V112.113H150.233ZM145.186 113.89V114.936H137.616V113.89H140.77V112.229H142.065V113.89H145.186ZM141.418 115.732C143.294 115.732 144.572 116.712 144.588 118.256C144.572 119.767 143.294 120.763 141.418 120.763C139.558 120.763 138.247 119.767 138.263 118.256C138.247 116.712 139.558 115.732 141.418 115.732ZM141.418 116.695C140.239 116.695 139.425 117.326 139.425 118.256C139.425 119.169 140.239 119.783 141.418 119.783C142.596 119.783 143.41 119.169 143.41 118.256C143.41 117.326 142.596 116.695 141.418 116.695ZM145.352 121.709C148.457 121.709 150.316 122.639 150.316 124.299C150.316 125.909 148.457 126.839 145.352 126.839C142.248 126.839 140.388 125.909 140.405 124.299C140.388 122.639 142.248 121.709 145.352 121.709ZM145.352 122.738C143.061 122.722 141.683 123.286 141.7 124.299C141.683 125.262 143.061 125.826 145.352 125.826C147.643 125.826 149.004 125.262 149.021 124.299C149.004 123.286 147.643 122.722 145.352 122.738ZM163.672 114.288C163.672 116.812 166.561 119.069 169.134 119.551L168.537 120.646C166.312 120.132 163.963 118.546 163.008 116.363C162.054 118.538 159.713 120.124 157.48 120.646L156.882 119.551C159.439 119.053 162.311 116.828 162.311 114.288V113.159H163.672V114.288ZM169.831 123.784V124.863H156.318V123.784H169.831ZM178.411 113.458V114.554H172.799V117.608H178.078V118.671H172.799V122.24C175.455 122.24 177.323 122.132 179.539 121.759L179.689 122.838C177.381 123.22 175.439 123.303 172.65 123.319H171.488V113.458H178.411ZM182.262 112.113V118.057H184.736V119.169H182.262V126.872H180.967V112.113H182.262ZM189.546 112.661C191.754 112.678 193.365 114.006 193.365 115.932C193.365 117.857 191.754 119.186 189.546 119.186C187.305 119.186 185.711 117.857 185.711 115.932C185.711 114.006 187.305 112.678 189.546 112.661ZM189.546 113.757C188.069 113.757 186.973 114.653 186.99 115.932C186.973 117.227 188.069 118.123 189.546 118.123C191.007 118.123 192.103 117.227 192.103 115.932C192.103 114.653 191.007 113.757 189.546 113.757ZM197.548 112.113V119.7H196.253V112.113H197.548ZM197.548 120.414V123.967H189.264V125.627H198.079V126.673H187.986V122.987H196.253V121.46H187.952V120.414H197.548ZM212.535 112.113V126.872H211.274V112.113H212.535ZM209.564 112.429V126.125H208.319V118.953H206.426C206.285 121.825 205.065 123.618 203.238 123.618C201.313 123.618 200.068 121.626 200.068 118.488C200.068 115.351 201.313 113.358 203.238 113.358C205.031 113.358 206.243 115.093 206.409 117.874H208.319V112.429H209.564ZM203.238 114.587C202.043 114.587 201.279 116.081 201.296 118.488C201.279 120.879 202.043 122.39 203.238 122.373C204.434 122.39 205.197 120.879 205.197 118.488C205.197 116.081 204.434 114.587 203.238 114.587ZM225.958 113.126V119.435H219.135V113.126H225.958ZM220.413 114.188V118.372H224.696V114.188H220.413ZM230.042 112.113V115.666H232.267V116.762H230.042V120.547H228.747V112.113H230.042ZM230.308 121.41V122.473H226.124C226.265 124.05 228.465 125.428 230.872 125.81L230.391 126.822C228.232 126.465 226.273 125.395 225.427 123.917C224.588 125.403 222.646 126.457 220.496 126.806L219.998 125.81C222.439 125.428 224.597 124.075 224.763 122.473H220.579V121.41H230.308ZM244.963 116.596V117.642H234.852V112.661H236.147V116.596H244.963ZM246.523 119.65V120.713H233.01V119.65H246.523ZM245.046 125.428V126.507H234.769V122.224H236.064V125.428H245.046ZM256.842 116.081C256.842 118.754 258.552 121.443 260.693 122.423L259.913 123.485C258.236 122.622 256.85 120.854 256.194 118.754C255.538 120.962 254.152 122.854 252.475 123.751L251.629 122.705C253.787 121.643 255.513 118.804 255.513 116.081V113.392H256.842V116.081ZM263.881 112.113V126.905H262.586V118.223H259.083V117.16H262.586V112.113H263.881ZM272.891 112.296C276.178 112.296 278.104 113.209 278.104 114.853C278.104 116.513 276.178 117.409 272.891 117.426C269.604 117.409 267.662 116.513 267.662 114.853C267.662 113.209 269.604 112.296 272.891 112.296ZM272.891 113.292C270.434 113.309 269.007 113.873 269.023 114.853C269.007 115.865 270.434 116.413 272.891 116.43C275.332 116.413 276.776 115.865 276.776 114.853C276.776 113.873 275.332 113.309 272.891 113.292ZM279.615 118.405V119.451H273.522V120.846H277.888V124.149H269.123V125.677H278.337V126.706H267.828V123.187H276.61V121.842H267.795V120.846H272.227V119.451H266.168V118.405H279.615ZM285.019 123.07V121.842L290.431 113.508H292.274V121.759H293.951V123.07H292.274V125.527H290.846V123.07H285.019ZM286.629 121.759H290.846V115.4H290.697L286.629 121.659V121.759ZM307.842 112.113V126.872H306.597V119.136H304.422V126.108H303.227V112.445H304.422V118.057H306.597V112.113H307.842ZM301.301 113.923V115.002H297.068V122.107C299.102 122.099 300.513 122.024 302.148 121.692L302.264 122.788C300.488 123.153 298.977 123.22 296.719 123.22H295.773V113.923H301.301ZM325.581 112.761V113.807C325.581 114.919 325.581 116.28 325.216 118.04H327.358V119.103H321.199V121.427C324.021 121.543 325.698 122.506 325.714 124.116C325.698 125.876 323.772 126.839 320.568 126.839C317.33 126.839 315.388 125.876 315.388 124.116C315.388 122.506 317.073 121.551 319.92 121.427V119.103H313.844V118.04H323.905C324.286 116.247 324.286 114.944 324.286 113.823H315.554V112.761H325.581ZM320.568 122.456C318.16 122.473 316.7 123.07 316.716 124.116C316.7 125.179 318.16 125.793 320.568 125.793C322.925 125.793 324.386 125.179 324.403 124.116C324.386 123.07 322.925 122.473 320.568 122.456ZM340.585 112.113V120.497H339.29V119.534H336.003V118.604H339.29V112.113H340.585ZM328.283 116.978C330.184 116.978 332.55 116.953 334.891 116.795C335.148 115.5 335.215 114.504 335.239 113.807H329.728V112.761H336.501V113.143C336.501 113.773 336.501 115.027 336.202 116.679C336.8 116.629 337.398 116.562 337.979 116.479L338.062 117.409C336.593 117.667 335.04 117.808 333.53 117.891V120.497H332.235V117.957C330.873 118.007 329.587 118.015 328.466 118.023L328.283 116.978ZM340.585 121.028V124.266H331.952V125.71H341.15V126.706H330.691V123.336H339.29V122.024H330.657V121.028H340.585ZM360.483 121.062V122.141H354.34V126.872H353.062V122.141H346.969V121.062H360.483ZM358.955 118.472V119.534H348.778V112.811H358.789V113.873H350.073V115.6H358.441V116.646H350.073V118.472H358.955ZM365.476 113.259C367.484 113.275 368.929 114.994 369.145 117.758H372.448V112.113H373.743V126.905H372.448V118.837H369.161C369.003 121.726 367.534 123.535 365.476 123.535C363.301 123.535 361.773 121.543 361.773 118.405C361.773 115.268 363.301 113.275 365.476 113.259ZM365.476 114.421C364.015 114.438 363.019 115.998 363.019 118.405C363.019 120.812 364.015 122.373 365.476 122.373C366.92 122.373 367.933 120.812 367.933 118.405C367.933 115.998 366.92 114.438 365.476 114.421ZM384.31 112.661C386.518 112.678 388.129 114.006 388.129 115.932C388.129 117.857 386.518 119.186 384.31 119.186C382.069 119.186 380.475 117.857 380.475 115.932C380.475 114.006 382.069 112.678 384.31 112.661ZM384.31 113.757C382.833 113.757 381.737 114.653 381.754 115.932C381.737 117.227 382.833 118.123 384.31 118.123C385.771 118.123 386.867 117.227 386.867 115.932C386.867 114.653 385.771 113.757 384.31 113.757ZM392.312 112.113V119.7H391.017V112.113H392.312ZM392.312 120.414V123.967H384.028V125.627H392.844V126.673H382.75V122.987H391.017V121.46H382.717V120.414H392.312ZM406.885 112.113V120.912H405.573V117.044H402.601V115.965H405.573V112.113H406.885ZM401.987 121.377C405.058 121.377 406.934 122.373 406.934 124.116C406.934 125.859 405.058 126.855 401.987 126.872C398.916 126.855 397.04 125.859 397.04 124.116C397.04 122.373 398.916 121.377 401.987 121.377ZM401.987 122.39C399.729 122.39 398.318 123.037 398.335 124.116C398.318 125.179 399.729 125.826 401.987 125.826C404.245 125.826 405.639 125.179 405.639 124.116C405.639 123.037 404.245 122.39 401.987 122.39ZM399.779 114.819C399.779 116.745 401.257 118.571 403.415 119.318L402.734 120.364C401.074 119.767 399.787 118.53 399.165 116.994C398.517 118.729 397.148 120.115 395.396 120.779L394.716 119.733C396.907 118.937 398.468 116.944 398.468 114.836V114.288H395.131V113.192H403.083V114.288H399.779V114.819ZM415.895 112.379C419.182 112.379 421.108 113.275 421.108 114.919C421.108 116.596 419.182 117.492 415.895 117.509C412.608 117.492 410.666 116.596 410.666 114.919C410.666 113.275 412.608 112.379 415.895 112.379ZM415.895 113.358C413.438 113.358 412.01 113.956 412.027 114.919C412.01 115.948 413.438 116.513 415.895 116.513C418.336 116.513 419.78 115.948 419.78 114.919C419.78 113.956 418.336 113.358 415.895 113.358ZM422.619 118.505V119.567H409.172V118.505H422.619ZM420.892 120.846V124.149H412.127V125.677H421.341V126.706H410.832V123.187H419.614V121.842H410.799V120.846H420.892ZM87.2832 138.113V143.99H89.375V145.103H87.2832V152.872H85.9717V138.113H87.2832ZM78.8662 142.562C78.8662 144.173 79.0903 146.572 80.3271 148.174C81.5225 146.613 81.7715 144.248 81.7881 142.562V140.72H80.6426V139.624H84.7432V140.72H83.0166V142.562C83.0166 144.737 83.5146 147.493 85.3574 148.821L84.4941 149.784C83.3984 148.938 82.751 147.535 82.4023 145.999C82.0703 147.56 81.4478 149.029 80.3105 149.9C79.1816 149.029 78.5674 147.543 78.2354 145.999C77.8784 147.526 77.2393 148.929 76.1602 149.784L75.2969 148.821C77.1064 147.477 77.6211 144.638 77.6377 142.562V140.72H75.7783V139.624H79.9951V140.72H78.8662V142.562ZM102.237 138.113V152.872H100.926V138.113H102.237ZM97.871 139.724C97.8544 143.974 95.8788 147.726 90.9316 150.1L90.2177 149.037C94.2104 147.145 96.2441 144.314 96.5429 140.786H90.8984V139.724H97.871ZM113.518 138.844C115.726 138.827 117.303 140.039 117.303 141.849C117.303 143.642 115.726 144.887 113.518 144.87C111.31 144.887 109.733 143.642 109.733 141.849C109.733 140.039 111.31 138.827 113.518 138.844ZM113.518 139.906C112.041 139.89 110.995 140.703 111.011 141.849C110.995 143.011 112.041 143.808 113.518 143.791C115.012 143.808 116.058 143.011 116.058 141.849C116.058 140.703 115.012 139.89 113.518 139.906ZM120.823 138.13V152.889H119.545V138.13H120.823ZM108.621 146.132C111.393 146.132 115.178 146.082 118.466 145.601L118.549 146.58C117.137 146.837 115.668 146.995 114.249 147.078V152.424H112.954V147.161C111.451 147.228 110.032 147.236 108.803 147.244L108.621 146.132ZM130.548 140.67V141.732H123.143V140.67H126.215V138.562H127.509V140.67H130.548ZM126.845 142.729C128.705 142.729 130.033 144.123 130.049 146.082C130.033 148.058 128.705 149.469 126.845 149.469C125.003 149.469 123.674 148.058 123.674 146.082C123.674 144.123 125.003 142.729 126.845 142.729ZM126.845 143.824C125.683 143.841 124.837 144.787 124.837 146.082C124.837 147.394 125.683 148.34 126.845 148.323C128.024 148.34 128.887 147.394 128.887 146.082C128.887 144.787 128.024 143.841 126.845 143.824ZM135.744 138.113V152.872H134.499V145.418H132.54V152.142H131.311V138.479H132.54V144.339H134.499V138.113H135.744ZM155.608 144.007V145.103H153.217V152.872H151.922V138.113H153.217V144.007H155.608ZM143.705 139.574V148.024C145.863 148.016 148.063 147.85 150.495 147.344L150.661 148.456C148.121 148.971 145.83 149.12 143.588 149.12H142.41V139.574H143.705ZM161.149 139.192C163.473 139.192 165.117 140.604 165.117 142.662C165.117 144.721 163.473 146.132 161.149 146.132C158.825 146.132 157.148 144.721 157.164 142.662C157.148 140.604 158.825 139.192 161.149 139.192ZM161.149 140.338C159.572 140.338 158.426 141.284 158.443 142.662C158.426 144.04 159.572 144.986 161.149 144.986C162.709 144.986 163.838 144.04 163.838 142.662C163.838 141.284 162.709 140.338 161.149 140.338ZM168.42 138.113V152.905H167.125V138.113H168.42ZM156.401 148.539C159.123 148.539 162.875 148.522 166.146 148.041L166.246 149.004C162.875 149.635 159.24 149.651 156.583 149.651L156.401 148.539ZM178.905 139.259C180.258 139.267 181.353 140.056 181.992 141.417H185.877V138.113H187.172V152.905H185.877V147.178H182.092C181.47 148.672 180.332 149.535 178.905 149.535C176.73 149.535 175.202 147.543 175.202 144.405C175.202 141.268 176.73 139.275 178.905 139.259ZM178.905 140.421C177.444 140.438 176.448 141.998 176.448 144.405C176.448 146.812 177.444 148.373 178.905 148.373C180.349 148.373 181.362 146.812 181.362 144.405C181.362 141.998 180.349 140.438 178.905 140.421ZM182.374 142.513C182.507 143.085 182.59 143.716 182.59 144.405C182.59 145.011 182.524 145.584 182.424 146.099H185.877V142.513H182.374ZM201.993 138.113V147.46H200.748V143.227H198.773V146.929H197.544V138.412H198.773V142.147H200.748V138.113H201.993ZM196.946 139.89V140.936H189.376V139.89H192.53V138.229H193.825V139.89H196.946ZM193.178 141.732C195.054 141.732 196.332 142.712 196.349 144.256C196.332 145.767 195.054 146.763 193.178 146.763C191.319 146.763 190.007 145.767 190.024 144.256C190.007 142.712 191.319 141.732 193.178 141.732ZM193.178 142.695C191.999 142.695 191.186 143.326 191.186 144.256C191.186 145.169 191.999 145.783 193.178 145.783C194.357 145.783 195.17 145.169 195.17 144.256C195.17 143.326 194.357 142.695 193.178 142.695ZM197.113 147.709C200.217 147.709 202.076 148.639 202.076 150.299C202.076 151.909 200.217 152.839 197.113 152.839C194.008 152.839 192.149 151.909 192.165 150.299C192.149 148.639 194.008 147.709 197.113 147.709ZM197.113 148.738C194.821 148.722 193.444 149.286 193.46 150.299C193.444 151.262 194.821 151.826 197.113 151.826C199.404 151.826 200.765 151.262 200.781 150.299C200.765 149.286 199.404 148.722 197.113 148.738ZM219.6 138.113V143.293H221.808V144.389H219.6V149.668H218.288V138.113H219.6ZM220.131 151.461V152.557H210.22V148.888H211.531V151.461H220.131ZM208.012 146.896C209.182 146.896 210.568 146.887 212.013 146.829V145.7C210.294 145.542 209.19 144.721 209.19 143.476C209.19 142.048 210.568 141.201 212.644 141.201C214.735 141.201 216.097 142.048 216.113 143.476C216.097 144.712 215.018 145.534 213.308 145.7V146.763C214.694 146.696 216.088 146.563 217.375 146.364L217.491 147.294C214.32 147.892 210.751 147.941 208.161 147.958L208.012 146.896ZM216.927 139.574V140.554H208.377V139.574H212.013V138.08H213.308V139.574H216.927ZM212.644 142.131C211.282 142.131 210.436 142.646 210.436 143.476C210.436 144.289 211.282 144.804 212.644 144.804C214.005 144.804 214.868 144.289 214.868 143.476C214.868 142.646 214.005 142.131 212.644 142.131ZM234.836 138.13V146.995H233.524V145.003H229.606V143.924H233.524V141.932H229.756C228.785 144.306 226.502 146.024 223.348 146.962L222.8 145.933C226.369 144.87 228.585 142.878 228.859 140.321H223.547V139.226H230.27C230.27 139.807 230.204 140.363 230.088 140.886H233.524V138.13H234.836ZM230.005 147.145C232.993 147.145 234.919 148.207 234.919 149.967C234.919 151.743 232.993 152.806 230.005 152.806C226.983 152.806 225.074 151.743 225.074 149.967C225.074 148.207 226.983 147.145 230.005 147.145ZM230.005 148.19C227.78 148.174 226.352 148.854 226.352 149.967C226.352 151.079 227.78 151.743 230.005 151.743C232.196 151.743 233.607 151.079 233.624 149.967C233.607 148.854 232.196 148.174 230.005 148.19ZM239.547 150.415L238.252 154.931H237.023L237.936 150.415H239.547ZM249.367 139.259C250.72 139.267 251.816 140.056 252.455 141.417H256.34V138.113H257.634V152.905H256.34V147.178H252.554C251.932 148.672 250.795 149.535 249.367 149.535C247.192 149.535 245.665 147.543 245.665 144.405C245.665 141.268 247.192 139.275 249.367 139.259ZM249.367 140.421C247.906 140.438 246.91 141.998 246.91 144.405C246.91 146.812 247.906 148.373 249.367 148.373C250.811 148.373 251.824 146.812 251.824 144.405C251.824 141.998 250.811 140.438 249.367 140.421ZM252.837 142.513C252.969 143.085 253.052 143.716 253.052 144.405C253.052 145.011 252.986 145.584 252.886 146.099H256.34V142.513H252.837ZM272.456 138.113V147.46H271.211V143.227H269.235V146.929H268.006V138.412H269.235V142.147H271.211V138.113H272.456ZM267.409 139.89V140.936H259.839V139.89H262.993V138.229H264.288V139.89H267.409ZM263.64 141.732C265.516 141.732 266.795 142.712 266.811 144.256C266.795 145.767 265.516 146.763 263.64 146.763C261.781 146.763 260.469 145.767 260.486 144.256C260.469 142.712 261.781 141.732 263.64 141.732ZM263.64 142.695C262.462 142.695 261.648 143.326 261.648 144.256C261.648 145.169 262.462 145.783 263.64 145.783C264.819 145.783 265.632 145.169 265.632 144.256C265.632 143.326 264.819 142.695 263.64 142.695ZM267.575 147.709C270.679 147.709 272.539 148.639 272.539 150.299C272.539 151.909 270.679 152.839 267.575 152.839C264.47 152.839 262.611 151.909 262.628 150.299C262.611 148.639 264.47 147.709 267.575 147.709ZM267.575 148.738C265.284 148.722 263.906 149.286 263.923 150.299C263.906 151.262 265.284 151.826 267.575 151.826C269.866 151.826 271.227 151.262 271.244 150.299C271.227 149.286 269.866 148.722 267.575 148.738ZM285.895 140.288C285.895 142.812 288.784 145.069 291.357 145.551L290.759 146.646C288.535 146.132 286.186 144.546 285.231 142.363C284.276 144.538 281.936 146.124 279.703 146.646L279.105 145.551C281.662 145.053 284.534 142.828 284.534 140.288V139.159H285.895V140.288ZM292.054 149.784V150.863H278.541V149.784H292.054ZM300.633 139.458V140.554H295.022V143.608H300.301V144.671H295.022V148.24C297.678 148.24 299.546 148.132 301.762 147.759L301.912 148.838C299.604 149.22 297.662 149.303 294.872 149.319H293.71V139.458H300.633ZM304.485 138.113V144.057H306.958V145.169H304.485V152.872H303.19V138.113H304.485ZM311.769 138.661C313.977 138.678 315.587 140.006 315.587 141.932C315.587 143.857 313.977 145.186 311.769 145.186C309.528 145.186 307.934 143.857 307.934 141.932C307.934 140.006 309.528 138.678 311.769 138.661ZM311.769 139.757C310.291 139.757 309.196 140.653 309.212 141.932C309.196 143.227 310.291 144.123 311.769 144.123C313.23 144.123 314.326 143.227 314.326 141.932C314.326 140.653 313.23 139.757 311.769 139.757ZM319.771 138.113V145.7H318.476V138.113H319.771ZM319.771 146.414V149.967H311.487V151.627H320.302V152.673H310.208V148.987H318.476V147.46H310.175V146.414H319.771ZM328.831 138.379C332.118 138.379 334.044 139.275 334.044 140.919C334.044 142.596 332.118 143.492 328.831 143.509C325.544 143.492 323.602 142.596 323.602 140.919C323.602 139.275 325.544 138.379 328.831 138.379ZM328.831 139.358C326.374 139.358 324.947 139.956 324.963 140.919C324.947 141.948 326.374 142.513 328.831 142.513C331.272 142.513 332.716 141.948 332.716 140.919C332.716 139.956 331.272 139.358 328.831 139.358ZM335.555 144.505V145.567H322.108V144.505H335.555ZM333.828 146.846V150.149H325.063V151.677H334.277V152.706H323.768V149.187H332.55V147.842H323.735V146.846H333.828ZM352.962 138.113V145.75H351.65V141.915H348.363V140.836H351.65V138.113H352.962ZM352.962 146.497V150.017H344.711V151.627H353.51V152.673H343.433V149.021H351.667V147.543H343.4V146.497H352.962ZM345.757 139.989C345.74 141.932 347.268 143.691 349.426 144.405L348.729 145.418C347.093 144.837 345.79 143.675 345.143 142.181C344.512 143.866 343.175 145.152 341.424 145.783L340.71 144.737C342.935 144.007 344.462 142.147 344.479 139.989V138.595H345.757V139.989ZM367.484 138.113V146.912H366.173V143.044H363.201V141.965H366.173V138.113H367.484ZM362.587 147.377C365.658 147.377 367.534 148.373 367.534 150.116C367.534 151.859 365.658 152.855 362.587 152.872C359.516 152.855 357.64 151.859 357.64 150.116C357.64 148.373 359.516 147.377 362.587 147.377ZM362.587 148.39C360.329 148.39 358.918 149.037 358.935 150.116C358.918 151.179 360.329 151.826 362.587 151.826C364.845 151.826 366.239 151.179 366.239 150.116C366.239 149.037 364.845 148.39 362.587 148.39ZM360.379 140.819C360.379 142.745 361.856 144.571 364.015 145.318L363.334 146.364C361.674 145.767 360.387 144.53 359.765 142.994C359.117 144.729 357.748 146.115 355.996 146.779L355.315 145.733C357.507 144.937 359.067 142.944 359.067 140.836V140.288H355.73V139.192H363.683V140.288H360.379V140.819ZM377.142 140.67V141.732H369.738V140.67H372.809V138.562H374.104V140.67H377.142ZM373.44 142.729C375.3 142.729 376.628 144.123 376.644 146.082C376.628 148.058 375.3 149.469 373.44 149.469C371.598 149.469 370.269 148.058 370.269 146.082C370.269 144.123 371.598 142.729 373.44 142.729ZM373.44 143.824C372.278 143.841 371.432 144.787 371.432 146.082C371.432 147.394 372.278 148.34 373.44 148.323C374.619 148.34 375.482 147.394 375.482 146.082C375.482 144.787 374.619 143.841 373.44 143.824ZM382.339 138.113V152.872H381.094V145.418H379.135V152.142H377.906V138.479H379.135V144.339H381.094V138.113H382.339ZM397.807 149.884V150.979H384.294V149.884H387.647V145.899C386.386 145.244 385.622 144.181 385.622 142.845C385.622 140.554 387.863 139.06 391.017 139.043C394.172 139.06 396.413 140.554 396.413 142.845C396.413 144.156 395.674 145.21 394.454 145.866V149.884H397.807ZM391.017 140.122C388.594 140.105 386.884 141.201 386.884 142.845C386.884 144.488 388.594 145.601 391.017 145.601C393.425 145.601 395.151 144.488 395.151 142.845C395.151 141.201 393.425 140.105 391.017 140.122ZM388.926 149.884H393.142V146.364C392.503 146.539 391.789 146.63 391.017 146.63C390.262 146.63 389.556 146.547 388.926 146.381V149.884ZM400.377 151.627C399.796 151.627 399.298 151.146 399.314 150.548C399.298 149.967 399.796 149.485 400.377 149.485C400.958 149.485 401.439 149.967 401.439 150.548C401.439 151.146 400.958 151.627 400.377 151.627Z" fill="#3F3F3F"/>
<path d="M96.2529 77.8389H93.1035V89.0449H89.9785V66.877H93.1035V75.2998H96.2529V77.8389ZM79.3828 81.0493C82.5322 80.9924 85.5677 80.6709 88.4893 80.085L88.8066 82.6729C87.0814 83.0228 85.3398 83.271 83.582 83.4175C81.8324 83.5558 80.042 83.625 78.2109 83.625H76.2822V69.001H79.3828V81.0493ZM108.259 79.377H97.5898V68.708H108.259V79.377ZM100.666 76.9355H105.183V71.1982H100.666V76.9355ZM114.558 73.2734H117.561V75.8369H114.558V83.0879H111.433V66.877H114.558V73.2734ZM115.363 88.7031H100.153V81.501H103.254V86.2129H115.363V88.7031ZM125.489 68.3662C126.645 68.3581 127.691 68.59 128.626 69.062C129.57 69.5259 130.307 70.1729 130.836 71.0029C131.373 71.833 131.642 72.7689 131.642 73.8105C131.642 74.8604 131.373 75.8003 130.836 76.6304C130.307 77.4604 129.575 78.1115 128.639 78.5835C127.703 79.0474 126.653 79.2793 125.489 79.2793C124.326 79.2793 123.272 79.0474 122.328 78.5835C121.392 78.1115 120.655 77.4604 120.118 76.6304C119.581 75.8003 119.312 74.8604 119.312 73.8105C119.312 72.7689 119.581 71.833 120.118 71.0029C120.655 70.1729 121.396 69.5259 122.34 69.062C123.284 68.59 124.334 68.3581 125.489 68.3662ZM125.489 71.0518C124.903 71.0518 124.374 71.1616 123.902 71.3813C123.43 71.6011 123.06 71.9225 122.792 72.3457C122.531 72.7607 122.405 73.249 122.413 73.8105C122.405 74.3802 122.531 74.8726 122.792 75.2876C123.06 75.7026 123.426 76.02 123.89 76.2397C124.362 76.4595 124.895 76.5693 125.489 76.5693C126.083 76.5693 126.612 76.4595 127.076 76.2397C127.548 76.02 127.918 75.7026 128.187 75.2876C128.464 74.8726 128.606 74.3802 128.614 73.8105C128.606 73.2409 128.468 72.7485 128.199 72.3335C127.931 71.9185 127.56 71.6011 127.088 71.3813C126.616 71.1616 126.083 71.0518 125.489 71.0518ZM136.964 89.1426H133.863V66.877H136.964V89.1426ZM119.605 82.0625C124.822 82.0625 129.151 81.8265 132.594 81.3545L132.838 83.6006C130.657 84.0238 128.431 84.2964 126.161 84.4185C123.89 84.5405 121.42 84.6016 118.751 84.6016L118.385 82.0625H119.605ZM151.283 68.4395C152.276 68.4395 153.171 68.6999 153.969 69.2207C154.774 69.7415 155.434 70.4821 155.946 71.4424H160.829V66.877H163.905V89.1426H160.829V80.8174H156.178C155.682 81.9242 155.006 82.7786 154.152 83.3809C153.306 83.9831 152.349 84.2842 151.283 84.2842C150.16 84.2842 149.159 83.9627 148.28 83.3198C147.41 82.6688 146.73 81.7451 146.242 80.5488C145.753 79.3444 145.513 77.9447 145.521 76.3496C145.513 74.7627 145.753 73.3752 146.242 72.187C146.73 70.9907 147.41 70.0671 148.28 69.416C149.159 68.765 150.16 68.4395 151.283 68.4395ZM151.283 71.2471C150.73 71.2471 150.242 71.4465 149.818 71.8452C149.395 72.2358 149.066 72.8177 148.83 73.5908C148.602 74.3558 148.492 75.2754 148.5 76.3496C148.492 77.432 148.602 78.3556 148.83 79.1206C149.066 79.8856 149.391 80.4674 149.806 80.8662C150.229 81.2568 150.722 81.4521 151.283 81.4521C151.845 81.4521 152.333 81.2568 152.748 80.8662C153.171 80.4756 153.497 79.8978 153.725 79.1328C153.952 78.3678 154.066 77.4401 154.066 76.3496C154.066 75.2673 153.952 74.3436 153.725 73.5786C153.497 72.8136 153.171 72.2358 152.748 71.8452C152.333 71.4465 151.845 71.2471 151.283 71.2471ZM156.813 73.957C156.968 74.7301 157.045 75.5277 157.045 76.3496C157.045 76.96 156.996 77.6191 156.898 78.3271H160.829V73.957H156.813ZM185.604 80.8174H182.649V74.9092H180.867V80.085H177.962V67.292H180.867V72.3701H182.649V66.877H185.604V80.8174ZM177.303 71.5889H166.39V69.1719H170.32V67.0723H173.421V69.1719H177.303V71.5889ZM171.883 72.3213C172.819 72.3213 173.653 72.484 174.385 72.8096C175.118 73.1351 175.691 73.5908 176.106 74.1768C176.521 74.7627 176.733 75.4382 176.741 76.2031C176.733 76.96 176.521 77.6313 176.106 78.2173C175.691 78.7951 175.118 79.2467 174.385 79.5723C173.653 79.8978 172.819 80.0605 171.883 80.0605C170.963 80.0605 170.137 79.8978 169.405 79.5723C168.672 79.2467 168.099 78.7951 167.684 78.2173C167.277 77.6313 167.073 76.96 167.073 76.2031C167.073 75.4463 167.277 74.7749 167.684 74.189C168.099 73.5949 168.672 73.1351 169.405 72.8096C170.137 72.484 170.963 72.3213 171.883 72.3213ZM171.883 74.5674C171.264 74.5674 170.772 74.7139 170.406 75.0068C170.04 75.2998 169.856 75.6986 169.856 76.2031C169.856 76.7158 170.04 77.1227 170.406 77.4238C170.78 77.7168 171.272 77.8551 171.883 77.8389C172.493 77.8551 172.986 77.7168 173.36 77.4238C173.734 77.1227 173.925 76.7158 173.934 76.2031C173.925 75.6904 173.734 75.2917 173.36 75.0068C172.994 74.7139 172.501 74.5674 171.883 74.5674ZM178.011 81.0127C179.614 81.0127 180.989 81.1714 182.137 81.4888C183.292 81.8062 184.175 82.27 184.786 82.8804C185.404 83.4826 185.717 84.2109 185.726 85.0654C185.717 85.9118 185.404 86.6361 184.786 87.2383C184.175 87.8405 183.292 88.3003 182.137 88.6177C180.981 88.9351 179.606 89.0938 178.011 89.0938C176.416 89.0938 175.04 88.9351 173.885 88.6177C172.737 88.3003 171.854 87.8405 171.236 87.2383C170.625 86.6361 170.32 85.9118 170.32 85.0654C170.32 84.2109 170.625 83.4826 171.236 82.8804C171.854 82.27 172.737 81.8062 173.885 81.4888C175.04 81.1714 176.416 81.0127 178.011 81.0127ZM178.011 83.3564C174.943 83.3564 173.421 83.9261 173.445 85.0654C173.437 85.627 173.82 86.0501 174.593 86.335C175.366 86.6117 176.505 86.75 178.011 86.75C181.054 86.75 182.576 86.1885 182.576 85.0654C182.576 84.4876 182.198 84.0604 181.441 83.7837C180.684 83.4989 179.541 83.3564 178.011 83.3564ZM205.074 69.8066C205.074 70.9134 205.388 71.9958 206.014 73.0537C206.649 74.1117 207.564 75.0312 208.761 75.8125C209.965 76.5938 211.373 77.1227 212.984 77.3994L211.617 79.9873C209.713 79.613 208.053 78.9172 206.637 77.8999C205.229 76.8826 204.159 75.6457 203.426 74.189C202.678 75.6375 201.595 76.8704 200.179 77.8877C198.771 78.9049 197.123 79.6048 195.235 79.9873L193.893 77.3994C195.479 77.1146 196.867 76.5815 198.055 75.8003C199.243 75.019 200.155 74.0994 200.79 73.0415C201.424 71.9754 201.746 70.8971 201.754 69.8066V68.1953H205.074V69.8066ZM213.717 86.3594H193.38V83.7959H213.717V86.3594ZM226.138 71.2471H218.765V74.9092H225.82V77.3506H218.765V81.5498C220.474 81.5335 222.004 81.4806 223.354 81.3911C224.714 81.3016 226.097 81.1429 227.505 80.915L227.798 83.4297C226.211 83.6738 224.632 83.8366 223.062 83.918C221.491 83.9993 219.635 84.04 217.495 84.04H215.615V68.708H226.138V71.2471ZM232.266 75.2998H235.537V77.9121H232.266V89.0938H229.141V66.877H232.266V75.2998ZM242.416 67.5361C243.531 67.5361 244.54 67.7518 245.443 68.1831C246.347 68.6144 247.055 69.2166 247.567 69.9897C248.088 70.7629 248.349 71.6377 248.349 72.6143C248.349 73.5745 248.088 74.4412 247.567 75.2144C247.055 75.9793 246.347 76.5815 245.443 77.021C244.54 77.4523 243.531 77.668 242.416 77.668C241.285 77.668 240.264 77.4523 239.352 77.021C238.441 76.5815 237.724 75.9793 237.204 75.2144C236.691 74.4412 236.435 73.5745 236.435 72.6143C236.435 71.6377 236.691 70.7629 237.204 69.9897C237.724 69.2166 238.437 68.6144 239.34 68.1831C240.251 67.7518 241.277 67.5361 242.416 67.5361ZM242.416 70.0752C241.846 70.0752 241.334 70.1769 240.878 70.3804C240.43 70.5757 240.08 70.8687 239.828 71.2593C239.576 71.6418 239.454 72.0934 239.462 72.6143C239.454 73.1351 239.576 73.5868 239.828 73.9692C240.08 74.3517 240.43 74.6447 240.878 74.8481C241.334 75.0516 241.846 75.1533 242.416 75.1533C242.978 75.1533 243.478 75.0516 243.917 74.8481C244.365 74.6447 244.715 74.3517 244.967 73.9692C245.22 73.5868 245.346 73.1351 245.346 72.6143C245.346 72.0853 245.22 71.6296 244.967 71.2471C244.715 70.8646 244.365 70.5757 243.917 70.3804C243.478 70.1769 242.978 70.0752 242.416 70.0752ZM254.696 78.0098H251.571V66.877H254.696V78.0098ZM254.696 84.9678H242.88V86.4082H255.307V88.8496H239.828V82.6973H251.596V81.3301H239.779V78.9375H254.696V84.9678ZM281.687 78.1807H278.586V72.6631H274.411V70.1973H278.586V66.877H281.687V78.1807ZM281.687 85.041H270.017V86.4082H282.321V88.8496H266.94V82.7705H278.61V81.501H266.916V79.1084H281.687V85.041ZM271.286 69.2207C271.278 70.1322 271.453 71.0029 271.811 71.833C272.177 72.6549 272.743 73.3874 273.508 74.0303C274.273 74.665 275.225 75.1533 276.364 75.4951L274.729 77.8877C273.565 77.5133 272.564 76.9722 271.726 76.2642C270.887 75.548 270.22 74.6976 269.724 73.7129C269.227 74.8115 268.531 75.7596 267.636 76.5571C266.749 77.3547 265.671 77.9528 264.401 78.3516L262.79 75.8857C263.978 75.5358 264.971 75.0272 265.769 74.3599C266.566 73.6844 267.156 72.9072 267.539 72.0283C267.929 71.1494 268.129 70.2135 268.137 69.2207V67.6094H271.286V69.2207ZM303.043 80.0605H299.942V74.8115H296.476V72.2969H299.942V66.877H303.043V80.0605ZM295.45 80.5488C297.029 80.557 298.388 80.7319 299.527 81.0737C300.675 81.4074 301.558 81.8957 302.176 82.5386C302.795 83.1815 303.108 83.9505 303.116 84.8457C303.108 85.7327 302.795 86.4977 302.176 87.1406C301.558 87.7835 300.675 88.2718 299.527 88.6055C298.38 88.9473 297.021 89.1182 295.45 89.1182C293.88 89.1182 292.521 88.9473 291.373 88.6055C290.226 88.2718 289.343 87.7835 288.724 87.1406C288.114 86.4977 287.809 85.7327 287.809 84.8457C287.809 83.9505 288.114 83.1815 288.724 82.5386C289.343 81.8957 290.222 81.4074 291.361 81.0737C292.508 80.7319 293.871 80.557 295.45 80.5488ZM295.45 82.9414C292.423 82.9414 290.909 83.5762 290.909 84.8457C290.909 85.4805 291.292 85.9565 292.057 86.2739C292.83 86.5913 293.961 86.75 295.45 86.75C296.939 86.75 298.071 86.5913 298.844 86.2739C299.625 85.9484 300.016 85.4723 300.016 84.8457C300.016 83.5762 298.494 82.9414 295.45 82.9414ZM297.135 70.71H292.716C292.74 71.6051 292.94 72.4678 293.314 73.2979C293.696 74.1198 294.262 74.8604 295.011 75.5195C295.768 76.1787 296.703 76.6914 297.818 77.0576L296.28 79.499C295.092 79.1165 294.067 78.5469 293.204 77.79C292.35 77.0251 291.674 76.1258 291.178 75.0923C290.665 76.2642 289.957 77.2814 289.054 78.144C288.15 78.9985 287.06 79.6455 285.782 80.085L284.171 77.6191C285.343 77.2285 286.323 76.6751 287.113 75.959C287.91 75.2347 288.504 74.4209 288.895 73.5176C289.294 72.6143 289.509 71.6784 289.542 70.71H285.074V68.2197H297.135V70.71ZM310.41 81.5498H307.285L306.968 69.1719H310.728L310.41 81.5498ZM308.872 87.0674C308.498 87.0674 308.152 86.9738 307.834 86.7866C307.517 86.5994 307.265 86.3512 307.078 86.042C306.899 85.7246 306.813 85.3828 306.821 85.0166C306.813 84.6504 306.899 84.3127 307.078 84.0034C307.265 83.6942 307.517 83.45 307.834 83.271C308.152 83.0838 308.498 82.9902 308.872 82.9902C309.222 82.9902 309.552 83.0838 309.861 83.271C310.178 83.45 310.431 83.6942 310.618 84.0034C310.805 84.3127 310.898 84.6504 310.898 85.0166C310.898 85.3828 310.805 85.7246 310.618 86.042C310.431 86.3512 310.178 86.5994 309.861 86.7866C309.552 86.9738 309.222 87.0674 308.872 87.0674Z" fill="#00A695"/>
<defs>
<filter id="filter0_d_1973_547" x="0.4" y="0.0601559" width="599.2" height="215.407" filterUnits="userSpaceOnUse" color-interpolation-filters="sRGB">
<feFlood flood-opacity="0" result="BackgroundImageFix"/>
<feColorMatrix in="SourceAlpha" type="matrix" values="0 0 0 0 0 0 0 0 0 0 0 0 0 0 0 0 0 0 127 0" result="hardAlpha"/>
<feOffset dx="3" dy="3"/>
<feGaussianBlur stdDeviation="6.3"/>
<feComposite in2="hardAlpha" operator="out"/>
<feColorMatrix type="matrix" values="0 0 0 0 0 0 0 0 0 0 0 0 0 0 0 0 0 0 0.15 0"/>
<feBlend mode="normal" in2="BackgroundImageFix" result="effect1_dropShadow_1973_547"/>
<feBlend mode="normal" in="SourceGraphic" in2="effect1_dropShadow_1973_547" result="shape"/>
</filter>
</defs>
</svg>
