<svg width="600" height="277" viewBox="0 0 600 277" fill="none" xmlns="http://www.w3.org/2000/svg">
<g filter="url(#filter0_d_1973_555)">
<rect x="10" y="9.94141" width="574" height="251.371" rx="31" fill="white"/>
</g>
<path d="M249.2 205.1C249.2 195.88 256.674 188.406 265.894 188.406H404.61C413.829 188.406 421.304 195.88 421.304 205.1C421.304 214.32 413.829 221.794 404.61 221.794H265.894C256.674 221.794 249.2 214.32 249.2 205.1Z" fill="white" stroke="#00A695"/>
<path d="M287.844 211.102L288.39 207.779H285.372L284.827 211.102H283.617L284.163 207.779H282.385L282.572 206.582H284.357L284.85 203.599H283.089L283.277 202.402H285.044L285.59 199.079H286.799L286.253 202.402H289.27L289.816 199.079H291.025L290.48 202.402H292.27L292.07 203.599H290.286L289.793 206.582H291.565L291.366 207.779H289.599L289.053 211.102H287.844ZM285.566 206.582H288.583L289.077 203.599H286.059L285.566 206.582ZM303.976 204.374V205.454H293.679V198.986H294.994V204.374H303.976ZM292.024 210.409V209.305H305.537V210.409H292.024ZM317.398 198.469V199.526C317.386 200.723 317.386 202.208 316.981 204.292H319.159V205.396H305.716V204.292H315.678C316.118 202.232 316.118 200.747 316.118 199.549H307.36V198.469H317.398ZM306.714 211.36C309.379 210.972 311.716 209.446 311.727 207.474V206.758H313.042V207.474C313.042 209.446 315.39 210.972 318.056 211.36L317.562 212.381C315.308 212.006 313.271 210.931 312.385 209.311C311.493 210.931 309.45 212.006 307.207 212.381L306.714 211.36ZM330.95 197.706V202.566H333.168V203.67H330.95V208.765H329.646V197.706H330.95ZM319.444 200.582V199.514H323.201V197.706H324.492V199.514H328.238V200.582H319.444ZM320.289 204.151C320.278 202.472 321.71 201.392 323.847 201.392C325.948 201.392 327.381 202.472 327.392 204.151C327.381 205.807 325.948 206.875 323.847 206.875C321.71 206.875 320.278 205.807 320.289 204.151ZM321.534 204.151C321.522 205.184 322.45 205.854 323.847 205.842C325.22 205.854 326.148 205.184 326.16 204.151C326.148 203.095 325.22 202.414 323.847 202.414C322.45 202.414 321.522 203.095 321.534 204.151ZM321.71 212.123V207.873H323.001V211.043H331.631V212.123H321.71ZM338.067 200.477C338.056 202.508 339.594 204.386 341.766 205.137L341.096 206.182C339.429 205.578 338.126 204.333 337.469 202.778C336.84 204.533 335.508 205.883 333.77 206.546L333.042 205.513C335.297 204.715 336.776 202.719 336.788 200.43V198.598H338.067V200.477ZM335.426 212.123V207.544H336.752V211.043H345.323V212.123H335.426ZM343.339 208.601V197.682H344.642V202.214H346.861V203.329H344.642V208.601H343.339ZM351.161 200.887C351.161 202.637 352.323 204.339 354.202 205.032L353.568 206.041C352.13 205.46 351.096 204.363 350.574 203.024C350.063 204.474 349.024 205.672 347.557 206.3L346.911 205.325C348.789 204.55 349.917 202.766 349.928 200.887V200.711H347.204V199.655H349.928V197.87H351.161V199.655H353.826V200.711H351.161V200.887ZM349.376 208.601V207.533H359.321V212.452H358.041V208.601H349.376ZM354.894 206.664V197.976H356.151V201.651H358.088V197.706H359.321V206.734H358.088V202.731H356.151V206.664H354.894ZM372.285 199.138V200.559C372.273 202.355 372.285 204.374 371.674 207.38L370.395 207.239C370.682 205.901 370.835 204.732 370.917 203.693L361.895 204.222L361.683 203.083L370.976 202.695C371.011 201.921 371.011 201.216 371.017 200.559V200.218H362.106V199.138H372.285ZM360.486 210.432V209.329H365.757V205.501H367.049V209.329H373.94V210.432H360.486ZM381.54 199.866C381.54 202.39 384.428 204.644 386.999 205.126L386.388 206.218C384.163 205.701 381.821 204.122 380.864 201.95C379.908 204.11 377.571 205.695 375.341 206.218L374.742 205.126C377.301 204.633 380.166 202.402 380.178 199.866V198.727H381.54V199.866ZM374.178 210.444V209.352H387.691V210.444H374.178Z" fill="#00A695"/>
<path d="M75.415 205.1C75.415 195.88 82.8892 188.406 92.109 188.406H214.744C223.964 188.406 231.438 195.88 231.438 205.1C231.438 214.32 223.964 221.794 214.744 221.794H92.109C82.8892 221.794 75.415 214.32 75.415 205.1Z" fill="white" stroke="#00A695"/>
<path d="M110.576 211.098L111.122 207.775H108.104L107.558 211.098H106.349L106.895 207.775H105.116L105.304 206.578H107.089L107.582 203.596H105.821L106.009 202.398H107.776L108.322 199.076H109.531L108.985 202.398H112.002L112.548 199.076H113.757L113.211 202.398H115.002L114.802 203.596H113.018L112.525 206.578H114.297L114.098 207.775H112.331L111.785 211.098H110.576ZM108.298 206.578H111.315L111.808 203.596H108.791L108.298 206.578ZM119.206 211.262C117.034 211.262 115.39 209.924 115.296 208.08H116.752C116.858 209.149 117.902 209.947 119.206 209.947C120.767 209.947 121.894 208.808 121.894 207.294C121.894 205.732 120.72 204.582 119.1 204.57C118.09 204.558 117.304 204.875 116.858 205.65H115.413L116.259 199.076H122.775V200.402H117.503L117.057 203.924H117.186C117.715 203.513 118.525 203.232 119.37 203.232C121.659 203.232 123.35 204.922 123.35 207.259C123.35 209.583 121.601 211.262 119.206 211.262ZM128.361 211.262C125.696 211.262 124.158 209.02 124.158 205.087C124.158 201.189 125.719 198.911 128.361 198.911C131.002 198.911 132.564 201.189 132.564 205.087C132.564 209.02 131.026 211.262 128.361 211.262ZM125.614 205.087C125.614 208.198 126.623 209.935 128.361 209.935C130.098 209.935 131.108 208.198 131.108 205.087C131.108 201.975 130.087 200.214 128.361 200.214C126.635 200.214 125.614 201.975 125.614 205.087ZM146.516 205.498V206.566H140.505V209.454H139.214V206.566H133.003V205.498H146.516ZM134.741 212.119V208.092H136.032V211.039H145.013V212.119H134.741ZM134.811 204.053V198.16H136.114V200.062H143.417V198.16H144.72V204.053H134.811ZM136.114 202.997H143.417V201.06H136.114V202.997ZM160.232 209.431V210.511H146.719V209.431H152.765V205.826H154.045V209.431H160.232ZM147.247 204.911C149.83 204.464 152.706 202.304 152.718 199.827V198.688H154.08V199.827C154.08 202.292 156.992 204.464 159.575 204.911L158.988 205.991C156.739 205.521 154.368 204.001 153.405 201.876C152.436 203.995 150.082 205.521 147.834 205.991L147.247 204.911ZM173.924 209.454V210.546H160.411V209.454H163.757V205.474C162.501 204.817 161.738 203.754 161.738 202.422C161.738 200.132 163.98 198.629 167.127 198.618C170.285 198.629 172.527 200.132 172.527 202.422C172.527 203.736 171.788 204.781 170.567 205.439V209.454H173.924ZM162.994 202.422C162.994 204.065 164.708 205.169 167.127 205.169C169.533 205.169 171.271 204.065 171.271 202.422C171.271 200.766 169.533 199.674 167.127 199.686C164.708 199.674 162.994 200.766 162.994 202.422ZM165.037 209.454H169.252V205.95C168.612 206.114 167.896 206.202 167.127 206.202C166.369 206.202 165.671 206.114 165.037 205.955V209.454ZM186.748 197.69V212.448H185.492V197.69H186.748ZM174.291 204.053C174.291 200.919 175.536 198.935 177.45 198.935C178.718 198.935 179.692 199.792 180.214 201.271H182.568V198.007H183.813V211.696H182.568V206.848H180.214C179.692 208.333 178.718 209.19 177.45 209.184C175.536 209.196 174.291 207.2 174.291 204.053ZM175.501 204.053C175.489 206.448 176.24 207.963 177.45 207.951C178.659 207.963 179.434 206.448 179.434 204.053C179.434 201.658 178.659 200.156 177.45 200.156C176.24 200.156 175.489 201.658 175.501 204.053ZM180.496 202.351C180.59 202.868 180.643 203.437 180.643 204.053C180.643 204.664 180.59 205.239 180.496 205.756H182.568V202.351H180.496ZM192.727 200.073C192.727 202.081 194.253 203.924 196.39 204.652L195.686 205.685C194.054 205.087 192.762 203.866 192.122 202.328C191.488 204.071 190.168 205.433 188.442 206.096L187.737 205.051C189.956 204.23 191.436 202.257 191.447 199.98V198.453H192.727V200.073ZM189.71 209.724C189.71 208.033 191.565 207.047 194.605 207.047C197.634 207.047 199.466 208.033 199.466 209.724C199.466 211.438 197.634 212.413 194.605 212.413C191.565 212.413 189.71 211.438 189.71 209.724ZM191.013 209.724C191.001 210.769 192.375 211.368 194.605 211.379C196.836 211.368 198.198 210.769 198.198 209.724C198.198 208.714 196.836 208.092 194.605 208.092C192.375 208.092 191.001 208.714 191.013 209.724ZM198.034 206.672V197.69H199.337V201.541H201.556V202.633H199.337V206.672H198.034Z" fill="#00A695"/>
<path d="M89.3252 146.104V147.2H86.9346V154.97H85.6396V140.211H86.9346V146.104H89.3252ZM77.4219 141.672V150.122C79.5801 150.114 81.7798 149.948 84.2119 149.441L84.3779 150.554C81.8379 151.068 79.5469 151.218 77.3057 151.218H76.127V141.672H77.4219ZM102.685 140.211V154.97H101.424V140.211H102.685ZM99.7138 140.526V154.223H98.4687V147.051H96.5761C96.435 149.923 95.2148 151.716 93.3886 151.716C91.4628 151.716 90.2177 149.724 90.2177 146.586C90.2177 143.448 91.4628 141.456 93.3886 141.456C95.1816 141.456 96.3935 143.191 96.5595 145.972H98.4687V140.526H99.7138ZM93.3886 142.685C92.1933 142.685 91.4296 144.179 91.4462 146.586C91.4296 148.977 92.1933 150.487 93.3886 150.471C94.5839 150.487 95.3476 148.977 95.3476 146.586C95.3476 144.179 94.5839 142.685 93.3886 142.685ZM117.191 140.211V154.97H115.946V140.211H117.191ZM114.087 140.609V154.223H112.842V147.333H109.721C108.816 149.051 107.396 150.57 105.338 151.782L104.574 150.836C107.786 148.935 109.397 146.271 109.638 143.183H105.205V142.104H110.932C110.924 143.556 110.692 144.959 110.202 146.271H112.842V140.609H114.087ZM134.98 140.211V144.179H136.939V145.291H134.98V149.06H133.669V140.211H134.98ZM134.98 149.757V155.003H133.669V150.803H125.169V149.757H134.98ZM127.426 141.39V142.452H124.986V146.818C125.75 146.802 126.679 146.719 127.692 146.486L127.825 147.599C126.43 147.897 125.285 147.914 124.388 147.914H123.741V141.39H127.426ZM132.241 141.39V142.452H129.568V146.835C130.747 146.818 131.66 146.735 132.756 146.486L132.905 147.582C131.577 147.864 130.548 147.914 129.053 147.914H128.323V141.39H132.241ZM149.25 141.224V147.532H142.426V141.224H149.25ZM143.705 142.286V146.47H147.988V142.286H143.705ZM153.334 140.211V143.764H155.558V144.859H153.334V148.645H152.039V140.211H153.334ZM153.599 149.508V150.57H149.416C149.557 152.147 151.756 153.525 154.164 153.907L153.682 154.92C151.524 154.563 149.565 153.492 148.718 152.015C147.88 153.5 145.938 154.555 143.788 154.903L143.29 153.907C145.73 153.525 147.888 152.172 148.054 150.57H143.871V149.508H153.599ZM168.254 144.693V145.739H158.144V140.759H159.439V144.693H168.254ZM169.815 147.748V148.811H156.301V147.748H169.815ZM168.337 153.525V154.604H158.061V150.321H159.356V153.525H168.337ZM179.12 140.759C181.328 140.775 182.939 142.104 182.939 144.029C182.939 145.955 181.328 147.283 179.12 147.283C176.879 147.283 175.285 145.955 175.285 144.029C175.285 142.104 176.879 140.775 179.12 140.759ZM179.12 141.854C177.643 141.854 176.547 142.751 176.564 144.029C176.547 145.324 177.643 146.221 179.12 146.221C180.581 146.221 181.677 145.324 181.677 144.029C181.677 142.751 180.581 141.854 179.12 141.854ZM187.122 140.211V147.798H185.827V140.211H187.122ZM187.122 148.512V152.064H178.838V153.725H187.654V154.771H177.56V151.085H185.827V149.558H177.527V148.512H187.122ZM201.695 140.211V149.01H200.383V145.142H197.411V144.062H200.383V140.211H201.695ZM196.797 149.475C199.868 149.475 201.744 150.471 201.744 152.214C201.744 153.957 199.868 154.953 196.797 154.97C193.726 154.953 191.85 153.957 191.85 152.214C191.85 150.471 193.726 149.475 196.797 149.475ZM196.797 150.487C194.539 150.487 193.128 151.135 193.145 152.214C193.128 153.276 194.539 153.924 196.797 153.924C199.055 153.924 200.449 153.276 200.449 152.214C200.449 151.135 199.055 150.487 196.797 150.487ZM194.589 142.917C194.589 144.843 196.067 146.669 198.225 147.416L197.544 148.462C195.884 147.864 194.597 146.627 193.975 145.092C193.327 146.827 191.958 148.213 190.206 148.877L189.526 147.831C191.717 147.034 193.278 145.042 193.278 142.934V142.386H189.941V141.29H197.893V142.386H194.589V142.917ZM208.813 141.29C211.137 141.29 212.78 142.701 212.78 144.76C212.78 146.818 211.137 148.229 208.813 148.229C206.488 148.229 204.812 146.818 204.828 144.76C204.812 142.701 206.488 141.29 208.813 141.29ZM208.813 142.436C207.235 142.436 206.09 143.382 206.107 144.76C206.09 146.138 207.235 147.084 208.813 147.084C210.373 147.084 211.502 146.138 211.502 144.76C211.502 143.382 210.373 142.436 208.813 142.436ZM216.084 140.211V155.003H214.789V140.211H216.084ZM204.065 150.637C206.787 150.637 210.539 150.62 213.81 150.139L213.909 151.102C210.539 151.732 206.903 151.749 204.247 151.749L204.065 150.637ZM234.338 140.858V141.904C234.338 143.017 234.338 144.378 233.973 146.138H236.114V147.2H229.955V149.524C232.777 149.641 234.454 150.604 234.471 152.214C234.454 153.974 232.528 154.937 229.324 154.937C226.087 154.937 224.144 153.974 224.144 152.214C224.144 150.604 225.83 149.649 228.677 149.524V147.2H222.601V146.138H232.661C233.043 144.345 233.043 143.042 233.043 141.921H224.311V140.858H234.338ZM229.324 150.554C226.917 150.57 225.456 151.168 225.473 152.214C225.456 153.276 226.917 153.891 229.324 153.891C231.682 153.891 233.143 153.276 233.159 152.214C233.143 151.168 231.682 150.57 229.324 150.554ZM249.342 140.211V148.595H248.047V147.632H244.76V146.702H248.047V140.211H249.342ZM237.04 145.075C238.941 145.075 241.307 145.05 243.647 144.893C243.905 143.598 243.971 142.602 243.996 141.904H238.484V140.858H245.258V141.24C245.258 141.871 245.258 143.125 244.959 144.776C245.557 144.727 246.154 144.66 246.735 144.577L246.818 145.507C245.349 145.764 243.797 145.905 242.286 145.988V148.595H240.991V146.055C239.63 146.104 238.343 146.113 237.223 146.121L237.04 145.075ZM249.342 149.126V152.363H240.709V153.808H249.906V154.804H239.447V151.434H248.047V150.122H239.414V149.126H249.342ZM269.239 149.159V150.238H263.096V154.97H261.818V150.238H255.725V149.159H269.239ZM267.712 146.569V147.632H257.535V140.908H267.546V141.971H258.83V143.697H267.197V144.743H258.83V146.569H267.712ZM274.232 141.356C276.241 141.373 277.685 143.091 277.901 145.855H281.205V140.211H282.5V155.003H281.205V146.935H277.918C277.76 149.823 276.291 151.633 274.232 151.633C272.057 151.633 270.53 149.641 270.53 146.503C270.53 143.365 272.057 141.373 274.232 141.356ZM274.232 142.519C272.771 142.535 271.775 144.096 271.775 146.503C271.775 148.91 272.771 150.471 274.232 150.471C275.676 150.471 276.689 148.91 276.689 146.503C276.689 144.096 275.676 142.535 274.232 142.519ZM300.687 141.655V143.083C300.67 144.876 300.687 146.901 300.073 149.906L298.794 149.757C299.085 148.42 299.234 147.25 299.326 146.204L290.294 146.752L290.079 145.606L299.375 145.225C299.409 144.444 299.409 143.739 299.409 143.083V142.734H290.51V141.655H300.687ZM302.331 151.849V152.961H288.883V151.849H294.163V148.03H295.441V151.849H302.331ZM310.76 142.386C310.76 144.909 313.649 147.167 316.222 147.648L315.624 148.744C313.4 148.229 311.051 146.644 310.096 144.461C309.142 146.636 306.801 148.221 304.568 148.744L303.97 147.648C306.527 147.15 309.399 144.926 309.399 142.386V141.257H310.76V142.386ZM316.919 151.882V152.961H303.406V151.882H316.919ZM331.425 147.067V148.097H317.911V147.067H331.425ZM329.732 149.275V152.413H320.867V153.824H330.213V154.771H319.555V151.517H328.437V150.255H319.538V149.275H329.732ZM329.682 140.659V143.714H320.966V145.009H329.948V145.955H319.671V142.817H328.37V141.605H319.621V140.659H329.682ZM349.164 140.211V154.97H347.919V140.211H349.164ZM346.176 140.576V154.206H344.947V146.603H342.457V145.54H344.947V140.576H346.176ZM340.88 144.428C340.88 146.984 342.026 149.524 344.068 150.703L343.271 151.666C341.818 150.794 340.789 149.201 340.282 147.316C339.743 149.35 338.672 151.085 337.194 152.015L336.364 151.035C338.423 149.807 339.618 147.117 339.618 144.428V143.033H336.779V141.954H343.586V143.033H340.88V144.428ZM357.743 149.541C360.914 149.541 362.923 150.537 362.923 152.247C362.923 153.94 360.914 154.937 357.743 154.937C354.589 154.937 352.58 153.94 352.58 152.247C352.58 150.537 354.589 149.541 357.743 149.541ZM357.743 150.537C355.386 150.554 353.858 151.201 353.875 152.247C353.858 153.276 355.386 153.907 357.743 153.907C360.101 153.907 361.611 153.276 361.628 152.247C361.611 151.201 360.101 150.554 357.743 150.537ZM362.807 140.975V142.22C362.807 143.415 362.807 144.61 362.392 146.138L361.113 145.988C361.512 144.461 361.512 143.382 361.512 142.22V142.037H352.68V140.975H362.807ZM364.517 147.101V148.163H351.086V147.101H356.648V144.245H357.926V147.101H364.517ZM377.13 140.211V143.78H379.354V144.876H377.13V148.844H375.835V140.211H377.13ZM367.501 141.058V143.315H371.801V141.058H373.096V147.914H366.223V141.058H367.501ZM367.501 146.868H371.801V144.361H367.501V146.868ZM377.246 149.674V150.72H369.161V153.708H377.528V154.771H367.866V149.674H377.246ZM384.065 141.356C386.24 141.373 387.784 143.365 387.801 146.503C387.784 149.641 386.24 151.633 384.065 151.633C381.874 151.633 380.347 149.641 380.347 146.503C380.347 143.365 381.874 141.373 384.065 141.356ZM384.065 142.519C382.604 142.535 381.575 144.096 381.575 146.503C381.575 148.91 382.604 150.471 384.065 150.471C385.543 150.471 386.539 148.91 386.539 146.503C386.539 144.096 385.543 142.535 384.065 142.519ZM391.536 140.211V146.104H394.01V147.233H391.536V154.97H390.241V140.211H391.536ZM412.247 151.998V153.077H398.733V151.998H404.809V148.811H400.327V141.257H401.638V143.93H409.308V141.257H410.587V148.811H406.088V151.998H412.247ZM401.638 147.748H409.308V144.992H401.638V147.748ZM417.638 144.411C417.638 146.752 418.784 149.292 420.743 150.454L419.996 151.467C418.576 150.604 417.555 149.026 417.041 147.233C416.493 149.192 415.397 150.877 413.92 151.782L413.09 150.803C415.132 149.607 416.377 146.984 416.377 144.461V141.605H417.638V144.411ZM425.906 140.211V154.97H424.644V140.211H425.906ZM422.851 140.526V154.223H421.623V146.619H419.116V145.507H421.623V140.526H422.851ZM441.292 151.981V153.077H427.778V151.981H431.131V147.997C429.87 147.341 429.106 146.279 429.106 144.942C429.106 142.651 431.347 141.157 434.502 141.141C437.656 141.157 439.897 142.651 439.897 144.942C439.897 146.254 439.158 147.308 437.938 147.964V151.981H441.292ZM434.502 142.22C432.078 142.203 430.368 143.299 430.368 144.942C430.368 146.586 432.078 147.698 434.502 147.698C436.909 147.698 438.635 146.586 438.635 144.942C438.635 143.299 436.909 142.203 434.502 142.22ZM432.41 151.981H436.627V148.462C435.987 148.636 435.274 148.728 434.502 148.728C433.746 148.728 433.041 148.645 432.41 148.479V151.981ZM444.691 141.605L444.575 150.238H443.18L443.064 141.605H444.691ZM443.877 153.725C443.296 153.725 442.798 153.243 442.815 152.646C442.798 152.064 443.296 151.583 443.877 151.583C444.459 151.583 444.94 152.064 444.94 152.646C444.94 153.243 444.459 153.725 443.877 153.725Z" fill="#3F3F3F"/>
<path d="M94.7393 85.9648H91.7363V74.8564H89.6611V84.8906H86.7314V64.1143H89.6611V72.3418H91.7363V63.748H94.7393V85.9648ZM79.6025 77.8228C81.6696 77.7658 83.6309 77.5583 85.4863 77.2002L85.8037 79.8857C83.2484 80.3252 80.6442 80.5449 77.9912 80.5449H76.4775V66.2139H79.6025V77.8228ZM114.137 66.6777C114.137 67.7845 114.45 68.8669 115.077 69.9248C115.711 70.9827 116.627 71.9023 117.823 72.6836C119.028 73.4648 120.436 73.9938 122.047 74.2705L120.68 76.8584C118.775 76.484 117.115 75.7882 115.699 74.771C114.291 73.7537 113.221 72.5168 112.489 71.0601C111.74 72.5086 110.658 73.7415 109.242 74.7588C107.834 75.776 106.186 76.4759 104.298 76.8584L102.955 74.2705C104.542 73.9857 105.93 73.4526 107.118 72.6714C108.306 71.8901 109.217 70.9705 109.852 69.9126C110.487 68.8465 110.808 67.7682 110.816 66.6777V65.0664H114.137V66.6777ZM122.779 83.2305H102.442V80.667H122.779V83.2305ZM135.2 68.1182H127.827V71.7803H134.883V74.2217H127.827V78.4209C129.536 78.4046 131.066 78.3517 132.417 78.2622C133.776 78.1727 135.16 78.014 136.567 77.7861L136.86 80.3008C135.273 80.5449 133.695 80.7077 132.124 80.7891C130.553 80.8704 128.698 80.9111 126.558 80.9111H124.678V65.5791H135.2V68.1182ZM141.328 72.1709H144.6V74.7832H141.328V85.9648H138.203V63.748H141.328V72.1709ZM151.479 64.4072C152.593 64.4072 153.603 64.6229 154.506 65.0542C155.409 65.4855 156.117 66.0877 156.63 66.8608C157.151 67.634 157.411 68.5088 157.411 69.4854C157.411 70.4456 157.151 71.3123 156.63 72.0854C156.117 72.8504 155.409 73.4526 154.506 73.8921C153.603 74.3234 152.593 74.5391 151.479 74.5391C150.347 74.5391 149.326 74.3234 148.415 73.8921C147.503 73.4526 146.787 72.8504 146.266 72.0854C145.753 71.3123 145.497 70.4456 145.497 69.4854C145.497 68.5088 145.753 67.634 146.266 66.8608C146.787 66.0877 147.499 65.4855 148.402 65.0542C149.314 64.6229 150.339 64.4072 151.479 64.4072ZM151.479 66.9463C150.909 66.9463 150.396 67.048 149.94 67.2515C149.493 67.4468 149.143 67.7397 148.891 68.1304C148.638 68.5129 148.516 68.9645 148.524 69.4854C148.516 70.0062 148.638 70.4578 148.891 70.8403C149.143 71.2228 149.493 71.5158 149.94 71.7192C150.396 71.9227 150.909 72.0244 151.479 72.0244C152.04 72.0244 152.541 71.9227 152.98 71.7192C153.428 71.5158 153.778 71.2228 154.03 70.8403C154.282 70.4578 154.408 70.0062 154.408 69.4854C154.408 68.9564 154.282 68.5007 154.03 68.1182C153.778 67.7357 153.428 67.4468 152.98 67.2515C152.541 67.048 152.04 66.9463 151.479 66.9463ZM163.759 74.8809H160.634V63.748H163.759V74.8809ZM163.759 81.8389H151.942V83.2793H164.369V85.7207H148.891V79.5684H160.658V78.2012H148.842V75.8086H163.759V81.8389ZM185.774 85.9648H182.796V63.748H185.774V85.9648ZM181.136 84.9395H178.206V74.4414H176.412C176.322 75.89 176.062 77.1392 175.63 78.189C175.207 79.2388 174.646 80.0444 173.946 80.606C173.246 81.1675 172.444 81.4482 171.541 81.4482C170.573 81.4482 169.722 81.1227 168.99 80.4717C168.265 79.8206 167.704 78.8888 167.305 77.6763C166.906 76.4556 166.707 75.0192 166.707 73.3672C166.707 71.7233 166.906 70.2992 167.305 69.0947C167.704 67.8822 168.265 66.9544 168.99 66.3115C169.722 65.6605 170.573 65.335 171.541 65.335C172.428 65.335 173.213 65.5994 173.897 66.1284C174.589 66.6574 175.146 67.4224 175.569 68.4233C176.001 69.4162 176.273 70.6003 176.387 71.9756H178.206V64.0654H181.136V84.9395ZM171.541 68.2646C170.906 68.2646 170.418 68.696 170.076 69.5586C169.743 70.4212 169.58 71.6908 169.588 73.3672C169.58 75.0518 169.743 76.3254 170.076 77.188C170.418 78.0425 170.906 78.4616 171.541 78.4453C172.184 78.4616 172.68 78.0425 173.03 77.188C173.388 76.3254 173.567 75.0518 173.567 73.3672C173.567 71.6908 173.388 70.4212 173.03 69.5586C172.68 68.696 172.184 68.2646 171.541 68.2646ZM204.708 74.9297H194.039V65.1885H204.708V74.9297ZM197.115 72.4639H201.632V67.6543H197.115V72.4639ZM211.007 68.582H214.01V71.1211H211.007V76.1992H207.882V63.748H211.007V68.582ZM211.275 79.7148H205.587C205.766 80.2926 206.136 80.842 206.698 81.3628C207.259 81.8755 208.008 82.3271 208.944 82.7178C209.888 83.1003 210.991 83.377 212.252 83.5479L211.153 85.916C209.412 85.68 207.914 85.2284 206.661 84.561C205.408 83.9019 204.452 83.0881 203.792 82.1196C203.141 83.0881 202.193 83.8978 200.948 84.5488C199.703 85.208 198.214 85.6475 196.48 85.8672L195.357 83.499C196.643 83.3444 197.754 83.0799 198.69 82.7056C199.634 82.3312 200.379 81.8877 200.924 81.375C201.477 80.8542 201.843 80.3008 202.022 79.7148H196.31V77.249H211.275V79.7148ZM232.778 72.2441H217.251V64.5293H220.352V69.8027H232.778V72.2441ZM235.049 77.0781H214.712V74.6367H235.049V77.0781ZM232.925 85.4766H217.056V78.8848H220.181V82.9863H232.925V85.4766ZM240.829 78.4209H237.704L237.387 66.043H241.146L240.829 78.4209ZM239.291 83.9385C238.917 83.9385 238.571 83.8449 238.253 83.6577C237.936 83.4705 237.684 83.2223 237.497 82.9131C237.318 82.5957 237.232 82.2539 237.24 81.8877C237.232 81.5215 237.318 81.1838 237.497 80.8745C237.684 80.5653 237.936 80.3211 238.253 80.1421C238.571 79.9549 238.917 79.8613 239.291 79.8613C239.641 79.8613 239.971 79.9549 240.28 80.1421C240.597 80.3211 240.849 80.5653 241.037 80.8745C241.224 81.1838 241.317 81.5215 241.317 81.8877C241.317 82.2539 241.224 82.5957 241.037 82.9131C240.849 83.2223 240.597 83.4705 240.28 83.6577C239.971 83.8449 239.641 83.9385 239.291 83.9385ZM75.4033 114.719L81.5312 97.043H86.2432L92.3467 114.719H88.416L87.0854 110.642H80.689L79.3584 114.719H75.4033ZM86.1577 107.785L83.9482 101.022H83.8262L81.6167 107.785H86.1577ZM97.7607 114.719H94.0986V97.043H97.7607V114.719ZM123.896 107.565H120.796V105.393H115.791V102.902H120.796V100.778H116.011C114.635 104.286 111.494 106.711 106.587 108.054L105.366 105.588C107.856 104.937 109.765 104.029 111.091 102.866C112.418 101.694 113.195 100.323 113.423 98.752H106.562V96.2617H116.816C116.816 97.0104 116.764 97.7021 116.658 98.3369H120.796V94.7725H123.896V107.565ZM116.499 107.834C117.996 107.834 119.315 108.017 120.454 108.383C121.593 108.75 122.476 109.27 123.103 109.946C123.738 110.621 124.059 111.415 124.067 112.326C124.059 113.246 123.738 114.047 123.103 114.731C122.476 115.415 121.593 115.939 120.454 116.306C119.315 116.68 117.996 116.867 116.499 116.867C114.985 116.867 113.655 116.68 112.507 116.306C111.36 115.939 110.469 115.415 109.834 114.731C109.207 114.047 108.898 113.246 108.906 112.326C108.898 111.415 109.207 110.621 109.834 109.946C110.469 109.27 111.36 108.75 112.507 108.383C113.655 108.017 114.985 107.834 116.499 107.834ZM116.499 110.275C115.083 110.259 113.98 110.43 113.191 110.788C112.402 111.138 112.007 111.651 112.007 112.326C112.007 113.002 112.397 113.518 113.179 113.876C113.968 114.226 115.075 114.401 116.499 114.401C117.899 114.401 118.989 114.226 119.771 113.876C120.552 113.518 120.942 113.002 120.942 112.326C120.942 111.651 120.552 111.138 119.771 110.788C118.989 110.43 117.899 110.259 116.499 110.275ZM146.791 108.273H126.527V105.759H135.072V103.879H129.115V95.2852H132.191V97.3115H141.103V95.2852H144.203V103.879H138.197V105.759H146.791V108.273ZM144.325 116.965H141.225V112.253H128.773V109.787H144.325V116.965ZM141.103 101.438V99.6064H132.191V101.438H141.103ZM165.804 97.2871C165.804 98.4346 165.775 99.4518 165.718 100.339C165.669 101.226 165.543 102.194 165.34 103.244H168.221V105.734H159.554V108.481C160.864 108.579 161.991 108.806 162.935 109.165C163.879 109.523 164.603 109.999 165.108 110.593C165.612 111.187 165.869 111.879 165.877 112.668C165.869 113.579 165.547 114.357 164.913 115C164.286 115.642 163.383 116.131 162.203 116.464C161.031 116.798 159.635 116.965 158.016 116.965C156.38 116.965 154.972 116.798 153.792 116.464C152.612 116.131 151.705 115.642 151.07 115C150.443 114.357 150.13 113.579 150.13 112.668C150.13 111.879 150.378 111.187 150.875 110.593C151.379 109.999 152.103 109.527 153.047 109.177C153.991 108.819 155.127 108.587 156.453 108.481V105.734H147.884V103.244H162.203C162.398 102.284 162.528 101.397 162.593 100.583C162.658 99.7692 162.695 98.9066 162.703 97.9951H150.374V95.5293H165.804V97.2871ZM158.016 110.886C154.842 110.886 153.255 111.48 153.255 112.668C153.255 113.889 154.842 114.499 158.016 114.499C161.157 114.499 162.728 113.889 162.728 112.668C162.728 112.074 162.329 111.63 161.531 111.337C160.734 111.036 159.562 110.886 158.016 110.886ZM171.828 119.87H169.24L170.461 112.912H173.928L171.828 119.87ZM193.545 99.5332H189.053C189.061 100.323 189.252 101.075 189.626 101.792C190.009 102.508 190.587 103.146 191.36 103.708C192.141 104.27 193.105 104.701 194.253 105.002L192.837 107.443C191.616 107.126 190.558 106.634 189.663 105.966C188.776 105.299 188.076 104.506 187.563 103.586C187.059 104.636 186.355 105.543 185.452 106.308C184.548 107.065 183.462 107.631 182.192 108.005L180.703 105.563C181.859 105.246 182.827 104.778 183.608 104.16C184.39 103.541 184.972 102.833 185.354 102.036C185.745 101.238 185.944 100.404 185.952 99.5332H181.484V97.0918H185.952V94.6504H189.102V97.0918H193.545V99.5332ZM198.501 100.021H201.504V102.536H198.501V108.151H195.376V94.748H198.501V100.021ZM191.226 108.566C192.772 108.566 194.106 108.733 195.229 109.067C196.353 109.392 197.215 109.873 197.817 110.507C198.42 111.142 198.721 111.903 198.721 112.79C198.721 113.661 198.42 114.405 197.817 115.024C197.215 115.651 196.353 116.127 195.229 116.452C194.106 116.778 192.772 116.94 191.226 116.94C189.655 116.94 188.296 116.778 187.148 116.452C186.009 116.127 185.134 115.651 184.524 115.024C183.914 114.405 183.608 113.661 183.608 112.79C183.608 111.903 183.914 111.142 184.524 110.507C185.134 109.873 186.009 109.392 187.148 109.067C188.288 108.733 189.647 108.566 191.226 108.566ZM191.226 110.959C189.728 110.959 188.601 111.11 187.844 111.411C187.096 111.704 186.725 112.163 186.733 112.79C186.725 113.384 187.1 113.836 187.856 114.145C188.621 114.446 189.744 114.597 191.226 114.597C192.674 114.597 193.773 114.446 194.521 114.145C195.27 113.836 195.645 113.384 195.645 112.79C195.645 112.163 195.274 111.704 194.534 111.411C193.793 111.11 192.69 110.959 191.226 110.959ZM220.956 107.565H217.855V105.393H212.851V102.902H217.855V100.778H213.07C211.695 104.286 208.554 106.711 203.646 108.054L202.426 105.588C204.916 104.937 206.824 104.029 208.151 102.866C209.477 101.694 210.255 100.323 210.482 98.752H203.622V96.2617H213.876C213.876 97.0104 213.823 97.7021 213.717 98.3369H217.855V94.7725H220.956V107.565ZM213.559 107.834C215.056 107.834 216.374 108.017 217.514 108.383C218.653 108.75 219.536 109.27 220.163 109.946C220.797 110.621 221.119 111.415 221.127 112.326C221.119 113.246 220.797 114.047 220.163 114.731C219.536 115.415 218.653 115.939 217.514 116.306C216.374 116.68 215.056 116.867 213.559 116.867C212.045 116.867 210.714 116.68 209.567 116.306C208.419 115.939 207.528 115.415 206.894 114.731C206.267 114.047 205.958 113.246 205.966 112.326C205.958 111.415 206.267 110.621 206.894 109.946C207.528 109.27 208.419 108.75 209.567 108.383C210.714 108.017 212.045 107.834 213.559 107.834ZM213.559 110.275C212.143 110.259 211.04 110.43 210.25 110.788C209.461 111.138 209.066 111.651 209.066 112.326C209.066 113.002 209.457 113.518 210.238 113.876C211.028 114.226 212.134 114.401 213.559 114.401C214.958 114.401 216.049 114.226 216.83 113.876C217.611 113.518 218.002 113.002 218.002 112.326C218.002 111.651 217.611 111.138 216.83 110.788C216.049 110.43 214.958 110.259 213.559 110.275ZM241.507 97.2871C241.507 98.4346 241.478 99.4518 241.421 100.339C241.373 101.226 241.246 102.194 241.043 103.244H243.924V105.734H235.257V108.481C236.567 108.579 237.694 108.806 238.638 109.165C239.582 109.523 240.306 109.999 240.811 110.593C241.316 111.187 241.572 111.879 241.58 112.668C241.572 113.579 241.25 114.357 240.616 115C239.989 115.642 239.086 116.131 237.906 116.464C236.734 116.798 235.338 116.965 233.719 116.965C232.083 116.965 230.675 116.798 229.495 116.464C228.315 116.131 227.408 115.642 226.773 115C226.146 114.357 225.833 113.579 225.833 112.668C225.833 111.879 226.081 111.187 226.578 110.593C227.082 109.999 227.806 109.527 228.75 109.177C229.694 108.819 230.83 108.587 232.156 108.481V105.734H223.587V103.244H237.906C238.101 102.284 238.231 101.397 238.296 100.583C238.361 99.7692 238.398 98.9066 238.406 97.9951H226.077V95.5293H241.507V97.2871ZM233.719 110.886C230.545 110.886 228.958 111.48 228.958 112.668C228.958 113.889 230.545 114.499 233.719 114.499C236.86 114.499 238.431 113.889 238.431 112.668C238.431 112.074 238.032 111.63 237.234 111.337C236.437 111.036 235.265 110.886 233.719 110.886ZM270.719 110.593H262.101V116.989H259.024V110.593H250.455V108.054H270.719V110.593ZM268.863 99.7529H262.198C262.32 100.437 262.687 101.104 263.297 101.755C263.907 102.406 264.754 102.972 265.836 103.452C266.918 103.932 268.188 104.253 269.645 104.416L268.521 106.857C266.69 106.646 265.095 106.19 263.736 105.49C262.385 104.79 261.336 103.916 260.587 102.866C259.846 103.916 258.792 104.79 257.425 105.49C256.066 106.19 254.459 106.646 252.604 106.857L251.48 104.416C252.937 104.253 254.207 103.932 255.289 103.452C256.38 102.972 257.234 102.406 257.853 101.755C258.471 101.104 258.845 100.437 258.976 99.7529H252.286V97.3115H259.024V94.7725H262.101V97.3115H268.863V99.7529ZM279.99 99.9727C279.99 100.827 280.181 101.657 280.564 102.463C280.946 103.269 281.528 103.993 282.31 104.636C283.099 105.279 284.076 105.775 285.239 106.125L283.75 108.542C282.537 108.2 281.488 107.671 280.601 106.955C279.714 106.231 279.01 105.372 278.489 104.379C277.984 105.454 277.284 106.381 276.389 107.163C275.502 107.936 274.432 108.518 273.179 108.908L271.665 106.467C272.829 106.125 273.801 105.62 274.583 104.953C275.364 104.278 275.942 103.513 276.316 102.658C276.698 101.804 276.89 100.909 276.89 99.9727V99.8018H272.422V97.3604H276.89V94.8945H280.039V97.3604H284.482V99.8018H279.99V99.9727ZM290.537 111.252H287.437V103.757H283.75V101.242H287.437V94.7725H290.537V111.252ZM291.074 116.574H275.791V109.836H278.916V114.084H291.074V116.574ZM305.003 95.4072C306.118 95.4072 307.127 95.6229 308.03 96.0542C308.934 96.4855 309.642 97.0877 310.154 97.8608C310.675 98.634 310.936 99.5088 310.936 100.485C310.936 101.446 310.675 102.312 310.154 103.085C309.642 103.85 308.934 104.453 308.03 104.892C307.127 105.323 306.118 105.539 305.003 105.539C303.872 105.539 302.85 105.323 301.939 104.892C301.028 104.453 300.311 103.85 299.791 103.085C299.278 102.312 299.021 101.446 299.021 100.485C299.021 99.5088 299.278 98.634 299.791 97.8608C300.311 97.0877 301.023 96.4855 301.927 96.0542C302.838 95.6229 303.864 95.4072 305.003 95.4072ZM305.003 97.9463C304.433 97.9463 303.921 98.048 303.465 98.2515C303.017 98.4468 302.667 98.7397 302.415 99.1304C302.163 99.5129 302.041 99.9645 302.049 100.485C302.041 101.006 302.163 101.458 302.415 101.84C302.667 102.223 303.017 102.516 303.465 102.719C303.921 102.923 304.433 103.024 305.003 103.024C305.564 103.024 306.065 102.923 306.504 102.719C306.952 102.516 307.302 102.223 307.554 101.84C307.806 101.458 307.933 101.006 307.933 100.485C307.933 99.9564 307.806 99.5007 307.554 99.1182C307.302 98.7357 306.952 98.4468 306.504 98.2515C306.065 98.048 305.564 97.9463 305.003 97.9463ZM317.283 105.881H314.158V94.748H317.283V105.881ZM317.283 112.839H305.467V114.279H317.894V116.721H302.415V110.568H314.183V109.201H302.366V106.809H317.283V112.839ZM338.762 107.932H335.661V102.683H332.194V100.168H335.661V94.748H338.762V107.932ZM331.169 108.42C332.748 108.428 334.107 108.603 335.246 108.945C336.394 109.278 337.277 109.767 337.895 110.41C338.514 111.053 338.827 111.822 338.835 112.717C338.827 113.604 338.514 114.369 337.895 115.012C337.277 115.655 336.394 116.143 335.246 116.477C334.099 116.818 332.74 116.989 331.169 116.989C329.598 116.989 328.239 116.818 327.092 116.477C325.944 116.143 325.061 115.655 324.443 115.012C323.833 114.369 323.527 113.604 323.527 112.717C323.527 111.822 323.833 111.053 324.443 110.41C325.061 109.767 325.94 109.278 327.08 108.945C328.227 108.603 329.59 108.428 331.169 108.42ZM331.169 110.812C328.142 110.812 326.628 111.447 326.628 112.717C326.628 113.352 327.01 113.828 327.775 114.145C328.549 114.462 329.68 114.621 331.169 114.621C332.658 114.621 333.789 114.462 334.562 114.145C335.344 113.819 335.734 113.343 335.734 112.717C335.734 111.447 334.213 110.812 331.169 110.812ZM332.854 98.5811H328.435C328.459 99.4762 328.658 100.339 329.033 101.169C329.415 101.991 329.981 102.731 330.729 103.391C331.486 104.05 332.422 104.562 333.537 104.929L331.999 107.37C330.811 106.988 329.785 106.418 328.923 105.661C328.068 104.896 327.393 103.997 326.896 102.963C326.384 104.135 325.676 105.153 324.772 106.015C323.869 106.87 322.779 107.517 321.501 107.956L319.89 105.49C321.062 105.1 322.042 104.546 322.832 103.83C323.629 103.106 324.223 102.292 324.614 101.389C325.013 100.485 325.228 99.5495 325.261 98.5811H320.793V96.0908H332.854V98.5811ZM346.129 109.421H343.004L342.687 97.043H346.446L346.129 109.421ZM344.591 114.938C344.216 114.938 343.871 114.845 343.553 114.658C343.236 114.471 342.984 114.222 342.796 113.913C342.617 113.596 342.532 113.254 342.54 112.888C342.532 112.521 342.617 112.184 342.796 111.875C342.984 111.565 343.236 111.321 343.553 111.142C343.871 110.955 344.216 110.861 344.591 110.861C344.941 110.861 345.27 110.955 345.58 111.142C345.897 111.321 346.149 111.565 346.336 111.875C346.524 112.184 346.617 112.521 346.617 112.888C346.617 113.254 346.524 113.596 346.336 113.913C346.149 114.222 345.897 114.471 345.58 114.658C345.27 114.845 344.941 114.938 344.591 114.938Z" fill="#00A695"/>
<defs>
<filter id="filter0_d_1973_555" x="0.4" y="0.341406" width="599.2" height="276.571" filterUnits="userSpaceOnUse" color-interpolation-filters="sRGB">
<feFlood flood-opacity="0" result="BackgroundImageFix"/>
<feColorMatrix in="SourceAlpha" type="matrix" values="0 0 0 0 0 0 0 0 0 0 0 0 0 0 0 0 0 0 127 0" result="hardAlpha"/>
<feOffset dx="3" dy="3"/>
<feGaussianBlur stdDeviation="6.3"/>
<feComposite in2="hardAlpha" operator="out"/>
<feColorMatrix type="matrix" values="0 0 0 0 0 0 0 0 0 0 0 0 0 0 0 0 0 0 0.15 0"/>
<feBlend mode="normal" in2="BackgroundImageFix" result="effect1_dropShadow_1973_555"/>
<feBlend mode="normal" in="SourceGraphic" in2="effect1_dropShadow_1973_555" result="shape"/>
</filter>
</defs>
</svg>
