<svg width="1920" height="1174" viewBox="0 0 1920 1174" fill="none" xmlns="http://www.w3.org/2000/svg">
<g opacity="0.08">
<path d="M0 6.23897V0C64.1814 53.7703 153.685 108.617 274.117 163.882C638.963 331.314 954.955 404.623 1222.13 466.608L1222.14 466.608L1222.28 466.641C1511.88 533.826 1744.36 587.758 1920 733.256V739.534C1744.86 592.184 1512.24 538.219 1221.85 470.854L1221.81 470.844C954.187 408.76 637.672 335.333 271.855 167.461C153.394 113.1 64.5131 59.1554 0 6.23897Z" fill="#00A695"/>
<path d="M0 39.2734V33.3528C62.3836 81.9501 145.745 131.367 254.168 181.121C619.069 348.578 935.107 421.891 1202.31 483.875L1202.33 483.88L1202.33 483.88C1503.04 553.642 1742.15 609.114 1920 767.636V774.197C1742.71 613.554 1503.45 558.049 1201.9 488.097L1201.82 488.079C934.21 425.992 617.693 352.56 251.898 184.697C145.202 135.737 62.5064 87.1128 0 39.2734Z" fill="#00A695"/>
<path d="M0 71.3112V65.6441C59.8716 109.381 136.959 153.737 234.208 198.366C599.106 365.816 915.14 439.13 1182.34 501.116L1182.38 501.123C1494.48 573.525 1740.23 630.538 1920 803.353V810.216C1740.86 634.997 1494.97 577.953 1181.96 505.338L1181.96 505.338L1181.87 505.318C914.259 443.232 597.752 369.801 231.955 201.938C136.241 158.017 59.8397 114.367 0 71.3112Z" fill="#00A695"/>
<path d="M0 102.51V97.0414C56.7632 136.182 127.485 175.785 214.258 215.605C579.128 383.042 895.134 456.355 1162.32 518.342L1162.42 518.364C1486.23 593.482 1738.62 652.034 1920 840.534V847.769C1739.33 656.512 1486.8 597.926 1162 522.574L1161.86 522.541C894.26 460.457 577.766 387.03 211.997 219.179C126.614 179.997 56.599 141.031 0 102.51Z" fill="#00A695"/>
<path d="M0 132.982V127.681C53.1381 162.45 117.42 197.561 194.302 232.841C559.204 400.298 875.242 473.611 1142.44 535.595L1142.46 535.6C1478.33 613.517 1737.35 673.609 1920 879.365V887.004C1738.15 678.099 1478.99 617.974 1142.05 539.813L1141.98 539.795C874.361 477.708 557.844 404.276 192.049 236.414C116.431 201.714 52.8668 167.184 0 132.982Z" fill="#00A695"/>
<path d="M0 162.841V157.67C49.0613 188.268 106.849 219.112 174.349 250.088C539.232 417.532 855.262 490.849 1122.45 552.835L1122.52 552.85C1470.8 633.644 1736.45 695.274 1920 920.05V928.171C1737.35 699.795 1471.55 638.133 1122.09 557.062L1122 557.042C854.391 494.956 537.884 421.525 172.088 253.663C105.755 223.222 48.6978 192.912 0 162.841Z" fill="#00A695"/>
<path d="M0 192.132V187.075C44.5844 213.676 95.8364 240.452 154.399 267.327C519.266 434.764 835.283 508.079 1102.47 570.066L1102.56 570.086C1463.68 653.859 1735.96 717.025 1920 962.796V971.47C1736.97 721.561 1464.54 658.358 1102.15 574.288L1102.07 574.27L1102.07 574.27L1102.07 574.27C834.453 512.183 517.936 438.75 152.142 270.893C94.6626 244.518 44.147 218.241 0 192.132Z" fill="#00A695"/>
<path d="M0 220.94V215.975C39.7496 238.735 84.4304 261.613 134.443 284.563C499.345 452.021 815.383 525.334 1082.58 587.318L1082.62 587.327C1457.02 674.185 1735.93 738.889 1920 1007.92V1017.24C1737.06 743.455 1458 678.715 1082.18 591.53L1082.04 591.498L1082.04 591.498C814.437 529.414 497.953 455.989 132.175 288.135C83.1797 265.652 39.2441 243.239 0 220.94Z" fill="#00A695"/>
<path d="M0 249.306V244.422C34.5936 263.482 72.6794 282.619 114.492 301.806C479.338 469.234 795.34 542.545 1062.52 604.531L1062.65 604.561C1450.84 694.617 1736.38 760.862 1920 1055.73V1065.81C1737.67 765.467 1451.98 699.192 1062.23 608.776L1062.16 608.758C794.544 546.671 478.027 473.239 112.23 305.381C71.3726 286.631 34.0337 267.931 0 249.306Z" fill="#00A695"/>
<path d="M0 277.279V272.454C29.1422 287.941 60.6122 303.475 94.5353 319.043C459.441 486.502 775.489 559.817 1042.69 621.802L1042.7 621.804L1042.7 621.804C1445.25 715.192 1737.41 782.971 1920 1106.63V1117.63C1738.87 787.623 1446.56 719.805 1042.28 626.023L1042.21 626.006C774.591 563.919 458.074 490.486 92.2772 322.628C59.2575 307.475 28.5361 292.354 0 277.279Z" fill="#00A695"/>
<path d="M0 304.874V300.121C23.4238 312.152 48.2657 324.209 74.5839 336.286C439.485 503.743 755.523 577.056 1022.72 639.04L1022.74 639.045C1440.29 735.908 1739.07 805.225 1920 1161.13V1173.18C1740.73 809.916 1441.8 740.566 1022.33 643.255L1022.19 643.223L1022.19 643.223C754.585 581.139 438.101 507.714 72.3313 339.858C46.8721 328.176 22.7789 316.512 0 304.874Z" fill="#00A695"/>
</g>
</svg>
