<svg width="800" height="520" viewBox="0 0 800 520" fill="none" xmlns="http://www.w3.org/2000/svg">
<path d="M0.117188 35.8672C0.117188 16.5372 15.7872 0.867188 35.1172 0.867188H266.744V375.326H0.117188V35.8672Z" fill="#E16350"/>
<rect x="266.742" y="0.867188" width="266.626" height="374.459" fill="#00A695"/>
<path d="M533.371 0.867188H764.998C784.328 0.867188 799.998 16.5372 799.998 35.8672V375.326H533.371V0.867188Z" fill="#E7E6D2"/>
<path d="M22.4336 342.977L23.0488 339.265H20.1162L19.501 342.977H17.2041L17.8193 339.265H15.7686L16.1582 336.988H18.1885L18.6602 334.117H16.6299L16.999 331.82H19.0498L19.6445 328.129H21.9414L21.3467 331.82H24.2588L24.8535 328.129H27.1504L26.5557 331.82H28.5859L28.1963 334.117H26.166L25.6943 336.988H27.7451L27.3555 339.265H25.3252L24.71 342.977H22.4336ZM20.4854 336.988H23.418L23.8896 334.117H20.957L20.4854 336.988ZM29.9805 342.977V328.129H39.9473V330.672H33.0566V334.281H39.4346V336.824H33.0566V340.434H39.9678V342.977H29.9805ZM48.6631 328.129V342.977H45.5664V331.062H45.4844L42.0801 333.194V330.467L45.751 328.129H48.6631ZM57.8506 343.182C54.7744 343.161 51.8623 341.336 51.8623 335.901C51.8623 330.897 54.2617 327.924 57.9736 327.924C60.9678 327.924 62.998 329.811 63.3057 332.251H60.2705C60.0244 331.205 59.1631 330.569 57.9736 330.569C55.9639 330.569 54.8975 332.395 54.877 335.307H55.0205C55.6973 333.994 57.1738 333.215 58.8145 333.215C61.4805 333.215 63.4697 335.225 63.4697 338.014C63.4697 341.028 61.1934 343.202 57.8506 343.182ZM57.8301 340.741C59.3477 340.741 60.4756 339.593 60.4756 338.096C60.4756 336.619 59.3887 335.45 57.8711 335.45C56.3535 335.45 55.2051 336.64 55.1846 338.096C55.2051 339.552 56.3125 340.741 57.8301 340.741ZM71.0986 343.182C67.8379 343.182 65.5 341.377 65.4385 338.793H68.5557C68.6172 339.9 69.6836 340.639 71.1191 340.639C72.5957 340.639 73.6621 339.798 73.6416 338.608C73.6621 337.398 72.5752 336.537 70.832 336.537H69.458V334.261H70.832C72.2881 334.261 73.3135 333.461 73.3135 332.292C73.3135 331.164 72.4521 330.385 71.1396 330.385C69.8271 330.385 68.7402 331.123 68.6992 332.251H65.7461C65.7871 329.688 68.1045 327.924 71.1396 327.924C74.2363 327.924 76.3076 329.749 76.2871 332.107C76.3076 333.769 75.1387 334.958 73.4775 335.245V335.368C75.6514 335.635 76.8613 336.968 76.8408 338.813C76.8613 341.356 74.4414 343.182 71.0986 343.182ZM84.4697 343.182C81.373 343.182 79.1172 341.356 79.0557 338.793H82.0498C82.1113 339.962 83.1777 340.741 84.4697 340.741C86.0078 340.741 87.0947 339.654 87.0947 338.116C87.0947 336.537 85.9873 335.45 84.4287 335.43C83.3213 335.43 82.542 335.84 82.0908 336.681H79.3018L80.1016 328.129H89.248V330.651H82.6445L82.2344 334.404H82.3574C82.9111 333.666 84.0186 333.153 85.3311 333.153C88.0586 333.153 90.0889 335.184 90.0889 338.034C90.0889 341.028 87.8125 343.182 84.4697 343.182ZM97.9434 343.182C94.2314 343.182 91.9756 340.413 91.9756 335.553C91.9756 330.692 94.2314 327.924 97.9434 327.924C101.655 327.924 103.911 330.713 103.911 335.553C103.911 340.434 101.655 343.182 97.9434 343.182ZM97.9434 340.639C99.666 340.639 100.773 338.978 100.753 335.553C100.753 332.169 99.666 330.446 97.9434 330.446C96.2207 330.446 95.1338 332.169 95.1338 335.553C95.1133 338.978 96.2207 340.639 97.9434 340.639Z" fill="#F6F6F6"/>
<path d="M289.062 342.977L289.678 339.265H286.745L286.13 342.977H283.833L284.448 339.265H282.397L282.787 336.988H284.817L285.289 334.117H283.259L283.628 331.82H285.679L286.273 328.129H288.57L287.976 331.82H290.888L291.482 328.129H293.779L293.185 331.82H295.215L294.825 334.117H292.795L292.323 336.988H294.374L293.984 339.265H291.954L291.339 342.977H289.062ZM287.114 336.988H290.047L290.519 334.117H287.586L287.114 336.988ZM302.29 343.182C298.578 343.182 296.322 340.413 296.322 335.553C296.322 330.692 298.578 327.924 302.29 327.924C306.002 327.924 308.258 330.713 308.258 335.553C308.258 340.434 306.002 343.182 302.29 343.182ZM302.29 340.639C304.013 340.639 305.12 338.978 305.1 335.553C305.1 332.169 304.013 330.446 302.29 330.446C300.567 330.446 299.48 332.169 299.48 335.553C299.46 338.978 300.567 340.639 302.29 340.639ZM316.153 343.182C312.441 343.182 310.186 340.413 310.186 335.553C310.186 330.692 312.441 327.924 316.153 327.924C319.865 327.924 322.121 330.713 322.121 335.553C322.121 340.434 319.865 343.182 316.153 343.182ZM316.153 340.639C317.876 340.639 318.983 338.978 318.963 335.553C318.963 332.169 317.876 330.446 316.153 330.446C314.431 330.446 313.344 332.169 313.344 335.553C313.323 338.978 314.431 340.639 316.153 340.639ZM326.817 342.977H323.495L328.643 328.129H332.601L337.728 342.977H334.426L333.318 339.552H327.945L326.817 342.977ZM328.725 337.152H332.539L330.673 331.472H330.57L328.725 337.152ZM345.069 343.182C341.993 343.161 339.081 341.336 339.081 335.901C339.081 330.897 341.48 327.924 345.192 327.924C348.187 327.924 350.217 329.811 350.524 332.251H347.489C347.243 331.205 346.382 330.569 345.192 330.569C343.183 330.569 342.116 332.395 342.096 335.307H342.239C342.916 333.994 344.393 333.215 346.033 333.215C348.699 333.215 350.688 335.225 350.688 338.014C350.688 341.028 348.412 343.202 345.069 343.182ZM345.049 340.741C346.566 340.741 347.694 339.593 347.694 338.096C347.694 336.619 346.607 335.45 345.09 335.45C343.572 335.45 342.424 336.64 342.403 338.096C342.424 339.552 343.531 340.741 345.049 340.741ZM358.235 327.924C361.312 327.944 364.224 329.77 364.224 335.163C364.244 340.208 361.845 343.182 358.112 343.182C355.118 343.182 353.088 341.315 352.78 338.793H355.815C356.062 339.88 356.923 340.536 358.112 340.536C360.143 340.536 361.209 338.731 361.209 335.758H361.086C360.389 337.07 358.933 337.85 357.271 337.85C354.605 337.85 352.637 335.84 352.616 333.071C352.616 330.077 354.872 327.903 358.235 327.924ZM358.256 330.344C356.738 330.344 355.61 331.513 355.631 332.989C355.631 334.445 356.718 335.594 358.235 335.594C359.732 335.594 360.901 334.404 360.901 332.969C360.881 331.554 359.773 330.344 358.256 330.344ZM371.771 343.182C368.674 343.182 366.418 341.356 366.356 338.793H369.351C369.412 339.962 370.479 340.741 371.771 340.741C373.309 340.741 374.396 339.654 374.396 338.116C374.396 336.537 373.288 335.45 371.729 335.43C370.622 335.43 369.843 335.84 369.392 336.681H366.603L367.402 328.129H376.549V330.651H369.945L369.535 334.404H369.658C370.212 333.666 371.319 333.153 372.632 333.153C375.359 333.153 377.39 335.184 377.39 338.034C377.39 341.028 375.113 343.182 371.771 343.182Z" fill="#F6F6F6"/>
<path d="M555.691 342.977L556.307 339.265H553.374L552.759 342.977H550.462L551.077 339.265H549.026L549.416 336.988H551.446L551.918 334.117H549.888L550.257 331.82H552.308L552.902 328.129H555.199L554.604 331.82H557.517L558.111 328.129H560.408L559.813 331.82H561.844L561.454 334.117H559.424L558.952 336.988H561.003L560.613 339.265H558.583L557.968 342.977H555.691ZM553.743 336.988H556.676L557.147 334.117H554.215L553.743 336.988ZM563.238 342.977V328.129H573.205V330.672H566.314V334.281H572.692V336.824H566.314V340.434H573.226V342.977H563.238ZM576.097 342.977L582.352 330.754V330.651H575.071V328.129H585.551V330.692L579.296 342.977H576.097ZM587.684 342.977V328.129H597.65V330.672H590.76V334.281H597.138V336.824H590.76V340.434H597.671V342.977H587.684ZM605.71 343.182C602.634 343.161 599.722 341.336 599.722 335.901C599.722 330.897 602.121 327.924 605.833 327.924C608.827 327.924 610.857 329.811 611.165 332.251H608.13C607.884 331.205 607.022 330.569 605.833 330.569C603.823 330.569 602.757 332.395 602.736 335.307H602.88C603.557 333.994 605.033 333.215 606.674 333.215C609.34 333.215 611.329 335.225 611.329 338.014C611.329 341.028 609.053 343.202 605.71 343.182ZM605.689 340.741C607.207 340.741 608.335 339.593 608.335 338.096C608.335 336.619 607.248 335.45 605.73 335.45C604.213 335.45 603.064 336.64 603.044 338.096C603.064 339.552 604.172 340.741 605.689 340.741ZM618.773 342.977H613.544V328.129H618.835C623.306 328.129 626.033 330.918 626.033 335.532C626.033 340.188 623.306 342.977 618.773 342.977ZM616.62 340.331H618.65C621.48 340.331 622.957 338.854 622.957 335.532C622.957 332.23 621.48 330.774 618.671 330.774H616.62V340.331ZM628.187 342.977L628.166 340.741L633.498 335.84C634.893 334.507 635.631 333.687 635.631 332.518C635.631 331.205 634.626 330.385 633.272 330.385C631.878 330.385 630.976 331.267 630.976 332.682H628.043C628.022 329.77 630.176 327.924 633.313 327.924C636.492 327.924 638.604 329.729 638.604 332.312C638.604 333.994 637.784 335.389 634.729 338.157L632.473 340.352V340.434H638.81V342.977H628.187Z" fill="#F6F6F6"/>
<path d="M0.117188 375.324H400.058V519.158H35.1172C15.7872 519.158 0.117188 503.488 0.117188 484.158V375.324Z" fill="#F0F7F6"/>
<path d="M400.059 375.324H799.999V484.158C799.999 503.488 784.329 519.158 764.999 519.158H400.059V375.324Z" fill="#FAFAFA"/>
<path d="M22.5195 485.047L23.1758 481.068H19.71L19.0537 485.047H17.29L17.9463 481.068H15.8135L16.0801 479.325H18.2334L18.7871 475.921H16.6748L16.9414 474.157H19.0947L19.7305 470.199H21.4941L20.8584 474.157H24.3242L24.96 470.199H26.7031L26.0674 474.157H28.2207L27.9336 475.921H25.7803L25.2266 479.325H27.3594L27.0518 481.068H24.9395L24.2832 485.047H22.5195ZM19.9971 479.325H23.4629L24.0166 475.921H20.5508L19.9971 479.325ZM29.9023 485.047V470.199H39.2129V472.147H32.1582V476.639H38.7207V478.566H32.1582V483.099H39.2949V485.047H29.9023ZM42.2891 485.047L48.9131 472.25V472.127H41.2637V470.199H51.251V472.209L44.6475 485.047H42.2891ZM53.7324 485.047V470.199H63.043V472.147H55.9883V476.639H62.5508V478.566H55.9883V483.099H63.125V485.047H53.7324ZM70.9795 485.252C68.2314 485.231 65.3604 483.611 65.3604 478.115C65.3604 472.947 67.5957 469.994 71.1641 469.994C73.8916 469.994 75.7988 471.696 76.1475 474.055H73.9121C73.625 472.845 72.6611 471.963 71.1641 471.963C68.8672 471.963 67.5342 473.973 67.5342 477.315H67.6982C68.498 476.064 69.8926 475.306 71.5127 475.306C74.1582 475.306 76.291 477.336 76.291 480.187C76.291 483.058 74.1787 485.272 70.9795 485.252ZM70.959 483.365C72.7637 483.365 74.0967 481.971 74.0967 480.228C74.0967 478.525 72.8047 477.151 71.0205 477.151C69.1953 477.151 67.8213 478.587 67.8008 480.248C67.8213 481.889 69.1338 483.365 70.959 483.365ZM83.7148 485.047H78.8955V470.199H83.8584C88.2266 470.199 90.8516 472.988 90.8516 477.603C90.8516 482.237 88.2266 485.047 83.7148 485.047ZM81.1514 483.078H83.5918C86.9551 483.078 88.6162 481.109 88.6162 477.603C88.6162 474.116 86.9551 472.168 83.7148 472.168H81.1514V483.078ZM93.1895 485.047V483.406L98.3369 478.218C99.957 476.516 100.777 475.572 100.777 474.28C100.777 472.824 99.5879 471.881 98.0293 471.881C96.3887 471.881 95.3223 472.927 95.3223 474.506H93.1895C93.1689 471.799 95.2402 469.994 98.0703 469.994C100.941 469.994 102.91 471.799 102.931 474.219C102.91 475.88 102.131 477.192 99.3418 479.94L96.3271 482.996V483.119H103.177V485.047H93.1895Z" fill="#CCCCCC"/>
<path d="M422.578 485.047L423.234 481.068H419.769L419.112 485.047H417.349L418.005 481.068H415.872L416.139 479.325H418.292L418.846 475.921H416.733L417 474.157H419.153L419.789 470.199H421.553L420.917 474.157H424.383L425.019 470.199H426.762L426.126 474.157H428.279L427.992 475.921H425.839L425.285 479.325H427.418L427.11 481.068H424.998L424.342 485.047H422.578ZM420.056 479.325H423.521L424.075 475.921H420.609L420.056 479.325ZM429.961 485.047V470.199H439.169V472.147H432.217V476.639H438.513V478.566H432.217V485.047H429.961ZM441.097 485.047H438.697L444.029 470.199H446.634L451.986 485.047H449.587L448.233 481.13H442.45L441.097 485.047ZM443.106 479.243H447.577L445.383 472.906H445.28L443.106 479.243ZM453.873 485.047V470.199H463.081V472.147H456.129V476.639H462.425V478.566H456.129V485.047H453.873ZM465.009 485.047H462.609L467.941 470.199H470.546L475.898 485.047H473.499L472.146 481.13H466.362L465.009 485.047ZM467.019 479.243H471.489L469.295 472.906H469.192L467.019 479.243ZM477.785 485.047V470.199H486.993V472.147H480.041V476.639H486.337V478.566H480.041V485.047H477.785ZM488.921 485.047H486.521L491.854 470.199H494.458L499.811 485.047H497.411L496.058 481.13H490.274L488.921 485.047ZM490.931 479.243H495.401L493.207 472.906H493.104L490.931 479.243Z" fill="#CCCCCC"/>
</svg>
