<svg width="2076" height="1035" viewBox="0 0 2076 1035" fill="none" xmlns="http://www.w3.org/2000/svg">
<mask id="mask0_2308_176" style="mask-type:alpha" maskUnits="userSpaceOnUse" x="335" y="431" width="1406" height="610">
<path d="M341 436.49L341 1035" stroke="black" stroke-width="10.2711" stroke-linecap="round"/>
<path d="M357.795 436.49L357.795 1035" stroke="black" stroke-width="10.2711" stroke-linecap="round"/>
<path d="M374.588 436.49L374.588 1035" stroke="black" stroke-width="10.2711" stroke-linecap="round"/>
<path d="M391.385 436.49L391.385 1035" stroke="black" stroke-width="10.2711" stroke-linecap="round"/>
<path d="M408.182 436.49L408.182 1035" stroke="black" stroke-width="10.2711" stroke-linecap="round"/>
<path d="M424.977 436.49L424.977 1035" stroke="black" stroke-width="10.2711" stroke-linecap="round"/>
<path d="M441.771 436.49L441.771 1035" stroke="black" stroke-width="10.2711" stroke-linecap="round"/>
<path d="M458.564 436.49L458.564 1035" stroke="black" stroke-width="10.2711" stroke-linecap="round"/>
<path d="M475.363 436.49L475.363 1035" stroke="black" stroke-width="10.2711" stroke-linecap="round"/>
<path d="M492.158 436.49L492.158 1035" stroke="black" stroke-width="10.2711" stroke-linecap="round"/>
<path d="M508.951 436.49L508.951 1035" stroke="black" stroke-width="10.2711" stroke-linecap="round"/>
<path d="M525.746 436.49L525.746 1035" stroke="black" stroke-width="10.2711" stroke-linecap="round"/>
<path d="M542.543 436.49L542.543 1035" stroke="black" stroke-width="10.2711" stroke-linecap="round"/>
<path d="M559.336 436.49L559.336 1035" stroke="black" stroke-width="10.2711" stroke-linecap="round"/>
<path d="M576.133 436.49L576.133 1035" stroke="black" stroke-width="10.2711" stroke-linecap="round"/>
<path d="M592.928 436.49L592.928 1035" stroke="black" stroke-width="10.2711" stroke-linecap="round"/>
<path d="M609.723 436.49L609.723 1035" stroke="black" stroke-width="10.2711" stroke-linecap="round"/>
<path d="M626.516 436.49L626.516 1035" stroke="black" stroke-width="10.2711" stroke-linecap="round"/>
<path d="M643.312 436.49L643.312 1035" stroke="black" stroke-width="10.2711" stroke-linecap="round"/>
<path d="M660.107 436.49L660.107 1035" stroke="black" stroke-width="10.2711" stroke-linecap="round"/>
<path d="M676.902 436.49L676.902 1035" stroke="black" stroke-width="10.2711" stroke-linecap="round"/>
<path d="M693.697 436.49L693.697 1035" stroke="black" stroke-width="10.2711" stroke-linecap="round"/>
<path d="M710.494 436.49L710.494 1035" stroke="black" stroke-width="10.2711" stroke-linecap="round"/>
<path d="M727.291 436.49L727.291 1035" stroke="black" stroke-width="10.2711" stroke-linecap="round"/>
<path d="M744.084 436.49L744.084 1035" stroke="black" stroke-width="10.2711" stroke-linecap="round"/>
<path d="M760.879 436.49L760.879 1035" stroke="black" stroke-width="10.2711" stroke-linecap="round"/>
<path d="M777.676 436.49L777.676 1035" stroke="black" stroke-width="10.2711" stroke-linecap="round"/>
<path d="M794.471 436.49L794.471 1035" stroke="black" stroke-width="10.2711" stroke-linecap="round"/>
<path d="M811.266 436.49L811.266 1035" stroke="black" stroke-width="10.2711" stroke-linecap="round"/>
<path d="M828.061 436.49L828.061 1035" stroke="black" stroke-width="10.2711" stroke-linecap="round"/>
<path d="M844.855 436.49L844.855 1035" stroke="black" stroke-width="10.2711" stroke-linecap="round"/>
<path d="M861.648 436.49L861.648 1035" stroke="black" stroke-width="10.2711" stroke-linecap="round"/>
<path d="M878.445 436.49L878.445 1035" stroke="black" stroke-width="10.2711" stroke-linecap="round"/>
<path d="M895.24 436.49L895.24 1035" stroke="black" stroke-width="10.2711" stroke-linecap="round"/>
<path d="M912.037 436.49L912.037 1035" stroke="black" stroke-width="10.2711" stroke-linecap="round"/>
<path d="M928.828 436.49L928.828 1035" stroke="black" stroke-width="10.2711" stroke-linecap="round"/>
<path d="M945.625 436.49L945.625 1035" stroke="black" stroke-width="10.2711" stroke-linecap="round"/>
<path d="M962.424 436.49L962.424 1035" stroke="black" stroke-width="10.2711" stroke-linecap="round"/>
<path d="M979.219 436.49L979.219 1035" stroke="black" stroke-width="10.2711" stroke-linecap="round"/>
<path d="M996.012 436.49L996.012 1035" stroke="black" stroke-width="10.2711" stroke-linecap="round"/>
<path d="M1012.81 436.49L1012.81 1035" stroke="black" stroke-width="10.2711" stroke-linecap="round"/>
<path d="M1029.6 436.49L1029.6 1035" stroke="black" stroke-width="10.2711" stroke-linecap="round"/>
<path d="M1046.4 436.49L1046.4 1035" stroke="black" stroke-width="10.2711" stroke-linecap="round"/>
<path d="M1063.19 436.49L1063.19 1035" stroke="black" stroke-width="10.2711" stroke-linecap="round"/>
<path d="M1079.99 436.49L1079.99 1035" stroke="black" stroke-width="10.2711" stroke-linecap="round"/>
<path d="M1096.78 436.49L1096.78 1035" stroke="black" stroke-width="10.2711" stroke-linecap="round"/>
<path d="M1113.58 436.49L1113.58 1035" stroke="black" stroke-width="10.2711" stroke-linecap="round"/>
<path d="M1130.37 436.49L1130.37 1035" stroke="black" stroke-width="10.2711" stroke-linecap="round"/>
<path d="M1147.17 436.49L1147.17 1035" stroke="black" stroke-width="10.2711" stroke-linecap="round"/>
<path d="M1163.96 436.49L1163.96 1035" stroke="black" stroke-width="10.2711" stroke-linecap="round"/>
<path d="M1180.76 436.49L1180.76 1035" stroke="black" stroke-width="10.2711" stroke-linecap="round"/>
<path d="M1197.55 436.49L1197.55 1035" stroke="black" stroke-width="10.2711" stroke-linecap="round"/>
<path d="M1214.35 436.49L1214.35 1035" stroke="black" stroke-width="10.2711" stroke-linecap="round"/>
<path d="M1231.14 436.49L1231.14 1035" stroke="black" stroke-width="10.2711" stroke-linecap="round"/>
<path d="M1247.94 436.49L1247.94 1035" stroke="black" stroke-width="10.2711" stroke-linecap="round"/>
<path d="M1264.73 436.49L1264.73 1035" stroke="black" stroke-width="10.2711" stroke-linecap="round"/>
<path d="M1281.53 436.49L1281.53 1035" stroke="black" stroke-width="10.2711" stroke-linecap="round"/>
<path d="M1298.32 436.49L1298.32 1035" stroke="black" stroke-width="10.2711" stroke-linecap="round"/>
<path d="M1315.12 436.49L1315.12 1035" stroke="black" stroke-width="10.2711" stroke-linecap="round"/>
<path d="M1331.92 436.49L1331.92 1035" stroke="black" stroke-width="10.2711" stroke-linecap="round"/>
<path d="M1348.71 436.49L1348.71 1035" stroke="black" stroke-width="10.2711" stroke-linecap="round"/>
<path d="M1365.51 436.49L1365.51 1035" stroke="black" stroke-width="10.2711" stroke-linecap="round"/>
<path d="M1382.3 436.49L1382.3 1035" stroke="black" stroke-width="10.2711" stroke-linecap="round"/>
<path d="M1399.1 436.49L1399.1 1035" stroke="black" stroke-width="10.2711" stroke-linecap="round"/>
<path d="M1415.89 436.49L1415.89 1035" stroke="black" stroke-width="10.2711" stroke-linecap="round"/>
<path d="M1432.69 436.49L1432.69 1035" stroke="black" stroke-width="10.2711" stroke-linecap="round"/>
<path d="M1449.48 436.49L1449.48 1035" stroke="black" stroke-width="10.2711" stroke-linecap="round"/>
<path d="M1466.28 436.49L1466.28 1035" stroke="black" stroke-width="10.2711" stroke-linecap="round"/>
<path d="M1483.07 436.49L1483.07 1035" stroke="black" stroke-width="10.2711" stroke-linecap="round"/>
<path d="M1499.87 436.49L1499.87 1035" stroke="black" stroke-width="10.2711" stroke-linecap="round"/>
<path d="M1516.66 436.49L1516.66 1035" stroke="black" stroke-width="10.2711" stroke-linecap="round"/>
<path d="M1533.46 436.49L1533.46 1035" stroke="black" stroke-width="10.2711" stroke-linecap="round"/>
<path d="M1550.25 436.49L1550.25 1035" stroke="black" stroke-width="10.2711" stroke-linecap="round"/>
<path d="M1567.05 436.49L1567.05 1035" stroke="black" stroke-width="10.2711" stroke-linecap="round"/>
<path d="M1583.84 436.49L1583.84 1035" stroke="black" stroke-width="10.2711" stroke-linecap="round"/>
<path d="M1600.64 436.49L1600.64 1035" stroke="black" stroke-width="10.2711" stroke-linecap="round"/>
<path d="M1617.44 436.49L1617.44 1035" stroke="black" stroke-width="10.2711" stroke-linecap="round"/>
<path d="M1634.23 436.49L1634.23 1035" stroke="black" stroke-width="10.2711" stroke-linecap="round"/>
<path d="M1651.02 436.49L1651.02 1035" stroke="black" stroke-width="10.2711" stroke-linecap="round"/>
<path d="M1667.82 436.49L1667.82 1035" stroke="black" stroke-width="10.2711" stroke-linecap="round"/>
<path d="M1684.61 436.49L1684.61 1035" stroke="black" stroke-width="10.2711" stroke-linecap="round"/>
<path d="M1701.41 436.49L1701.41 1035" stroke="black" stroke-width="10.2711" stroke-linecap="round"/>
<path d="M1718.21 436.49L1718.21 1035" stroke="black" stroke-width="10.2711" stroke-linecap="round"/>
<path d="M1735 436.49L1735 1035" stroke="black" stroke-width="10.2711" stroke-linecap="round"/>
</mask>
<g mask="url(#mask0_2308_176)">
<path fill-rule="evenodd" clip-rule="evenodd" d="M322.104 895.131V300.006C322.104 300.006 943.948 348.61 1034.62 330.382V330.288C1034.69 330.304 1034.77 330.319 1034.85 330.335C1034.93 330.319 1035 330.304 1035.08 330.288V330.382C1125.75 348.61 1747.59 300.006 1747.59 300.006V895.131H1035.08H1034.62H322.104Z" fill="url(#paint0_linear_2308_176)"/>
</g>
<path fill-rule="evenodd" clip-rule="evenodd" d="M2038.46 400.39H2069.36L2069.34 400.41C2073.03 400.41 2076.01 403.4 2076.01 407.08V417.59H2075.98C2075.4 450.88 2048.25 477.7 2014.82 477.7H1985.53L1831 599.14L1762.76 652.77V686.55C1762.76 693 1757.53 698.22 1751.09 698.22H1741.29V903.18C1741.29 914.226 1732.34 923.18 1721.29 923.18H1653V641.49C1653 635.967 1648.52 631.49 1643 631.49H1602C1596.48 631.49 1592 635.967 1592 641.49V923.18H1590V641.49C1590 635.967 1585.52 631.49 1580 631.49H1539C1533.48 631.49 1529 635.967 1529 641.49V923.18H1527V641.49C1527 635.967 1522.52 631.49 1517 631.49H1476C1470.48 631.49 1466 635.967 1466 641.49V923.18H1442V641.49C1442 635.967 1437.52 631.49 1432 631.49H1391C1385.48 631.49 1381 635.967 1381 641.49V923.18H1379V641.49C1379 635.967 1374.52 631.49 1369 631.49H1328C1322.48 631.49 1318 635.967 1318 641.49V923.18H1316V641.49C1316 635.967 1311.52 631.49 1306 631.49H1265C1259.48 631.49 1255 635.967 1255 641.49V923.18H1253V641.49C1253 635.967 1248.52 631.49 1243 631.49H1202C1196.48 631.49 1192 635.967 1192 641.49V923.18H1163V641.49C1163 635.967 1158.52 631.49 1153 631.49H1112C1106.48 631.49 1102 635.967 1102 641.49V923.18H1100V641.49C1100 635.967 1095.52 631.49 1090 631.49H1049C1043.48 631.49 1039 635.967 1039 641.49V923.18H1037V641.49C1037 635.967 1032.52 631.49 1027 631.49H987C981.477 631.49 977 635.967 977 641.49V923.18H975V641.49C975 635.967 970.523 631.49 965 631.49H925C919.477 631.49 915 635.967 915 641.49V923.18H888V641.49C888 635.967 883.523 631.49 878 631.49H837C831.477 631.49 827 635.967 827 641.49V923.18H825V641.49C825 635.967 820.523 631.49 815 631.49H774C768.477 631.49 764 635.967 764 641.49V923.18H762V641.49C762 635.967 757.523 631.49 752 631.49H711C705.477 631.49 701 635.967 701 641.49V923.18H699V641.49C699 635.967 694.523 631.49 689 631.49H648C642.477 631.49 638 635.967 638 641.49V923.18H610V641.49C610 635.967 605.523 631.49 600 631.49H559C553.477 631.49 549 635.967 549 641.49V923.18H547V641.49C547 635.967 542.523 631.49 537 631.49H496C490.477 631.49 486 635.967 486 641.49V923.18H484V641.49C484 635.967 479.523 631.49 474 631.49H433C427.477 631.49 423 635.967 423 641.49V923.18H354.72C343.675 923.18 334.72 914.226 334.72 903.18V698.22H324.92C318.47 698.22 313.25 692.99 313.25 686.55V652.77L245.01 599.14L90.48 477.7H61.1899C27.7599 477.7 0.609785 450.88 0.0297852 417.59H0V407.08C0 403.39 2.98992 400.41 6.66992 400.41H37.5698V385.05C37.5698 378.12 43.1901 372.5 50.1201 372.5H56.8999V404.1C61.5299 401.52 67.1902 400.15 73.6802 400.54L74.8799 390.86C76.1499 380.56 85.5301 373.25 95.8301 374.52L108.54 376.65L110.98 356.91C111.34 353.97 114.02 351.88 116.96 352.24C119.9 352.6 121.99 355.28 121.63 358.22L119.13 378.42L137.99 381.58L139.27 371.22C139.63 368.28 142.31 366.19 145.25 366.55C148.19 366.91 150.28 369.59 149.92 372.53L148.58 383.35L167.44 386.51L168.58 377.27C168.94 374.33 171.62 372.24 174.56 372.6C177.5 372.96 179.59 375.64 179.23 378.58L178.03 388.28L196.89 391.44L197.89 383.32C198.25 380.38 200.93 378.29 203.87 378.65C206.81 379.01 208.9 381.69 208.54 384.63L207.48 393.2L226.34 396.36L227.2 389.37C227.56 386.43 230.24 384.34 233.18 384.7C236.12 385.07 238.21 387.75 237.85 390.69L236.93 398.14L255.79 401.3L256.52 395.43C256.88 392.49 259.56 390.4 262.5 390.76C265.44 391.13 267.53 393.81 267.17 396.75L266.39 403.08L331.74 414.03C334.24 404.22 343.68 397.57 353.98 398.84C364.87 400.19 372.67 409.9 371.78 420.74L429.42 430.4L301.69 298.06L137.31 127.75H126.63C107.66 127.75 92.2798 112.37 92.2798 93.4V82.89C92.2798 79.2 95.2702 76.22 98.9502 76.22H129.85V60.86C129.85 53.93 135.47 48.31 142.4 48.31H149.18V75.24C152.94 72.32 158.09 70.69 163.59 71.11L164.12 71.19L165.39 59.43C165.66 56.94 168.27 55.1 171.22 55.33C174.17 55.56 176.35 57.76 176.08 60.25L174.73 72.72L193.62 75.46L194.13 70.73C194.4 68.24 197.01 66.4 199.96 66.63C202.91 66.86 205.09 69.06 204.82 71.55L204.23 76.99L223.12 79.73L223.63 75.05C223.9 72.56 226.5 70.72 229.46 70.95C232.42 71.18 234.59 73.38 234.32 75.87L233.74 81.27L252.63 84.01L253.13 79.37C253.4 76.88 256.01 75.04 258.96 75.27C261.91 75.5 264.09 77.7 263.82 80.19L263.24 85.54L282.13 88.28L282.63 83.68C282.9 81.19 285.51 79.35 288.46 79.58C291.41 79.81 293.59 82.01 293.32 84.5L292.75 89.81L311.64 92.55L312.13 88C312.4 85.51 315.01 83.67 317.96 83.9C320.91 84.13 323.09 86.33 322.82 88.82L322.25 94.09L373.15 101.46L399.35 102.31C402.02 94.56 410.9 89.24 420.78 90C429.92 90.7 437.1 96.39 438.89 103.59L542.03 106.94L600.03 66.24V20.4C600.03 9.13 609.16 0 620.43 0C631.7 0 640.83 9.14 640.83 20.4V46.16L1038 68.7L1435.17 46.16V20.4C1435.17 9.13 1444.3 0 1455.57 0C1466.84 0 1475.97 9.14 1475.97 20.4V66.22L1533.97 106.92L1637.11 103.57C1638.9 96.37 1646.08 90.68 1655.22 89.98C1665.11 89.22 1673.98 94.54 1676.65 102.29L1702.85 101.44L1753.75 94.07L1753.18 88.8C1752.91 86.31 1755.09 84.11 1758.04 83.88C1760.99 83.66 1763.6 85.49 1763.87 87.98L1764.36 92.53L1783.25 89.79L1782.68 84.48C1782.41 81.99 1784.59 79.79 1787.54 79.56C1790.49 79.34 1793.1 81.17 1793.37 83.66L1793.87 88.26L1812.76 85.52L1812.18 80.17C1811.91 77.68 1814.09 75.47 1817.04 75.25C1819.99 75.03 1822.6 76.86 1822.87 79.35L1823.37 83.99L1842.26 81.25L1841.68 75.85C1841.41 73.36 1843.59 71.15 1846.54 70.93C1849.49 70.71 1852.1 72.54 1852.37 75.03L1852.88 79.71L1871.77 76.97L1871.18 71.53C1870.91 69.04 1873.09 66.84 1876.04 66.61C1878.99 66.39 1881.6 68.22 1881.87 70.71L1882.38 75.44L1901.27 72.7L1899.92 60.23C1899.65 57.74 1901.83 55.53 1904.78 55.31C1907.73 55.09 1910.34 56.92 1910.61 59.41L1911.88 71.17L1912.41 71.09C1917.9 70.67 1923.05 72.3 1926.82 75.22V48.29H1933.6C1940.53 48.29 1946.15 53.91 1946.15 60.84V76.2H1977.05C1980.74 76.2 1983.72 79.19 1983.72 82.87V93.38C1983.72 112.35 1968.34 127.73 1949.37 127.73H1938.69L1774.31 298.04L1646.58 430.38L1704.22 420.72C1703.33 409.88 1711.13 400.17 1722.02 398.82C1732.32 397.55 1741.76 404.21 1744.26 414.01L1809.61 403.06L1808.83 396.73C1808.47 393.78 1810.56 391.1 1813.5 390.74C1816.44 390.38 1819.12 392.47 1819.48 395.41L1820.21 401.28L1839.07 398.12L1838.15 390.67C1837.79 387.72 1839.88 385.04 1842.82 384.68C1845.76 384.32 1848.44 386.41 1848.8 389.35L1849.66 396.34L1868.52 393.18L1867.46 384.61C1867.1 381.67 1869.19 378.99 1872.13 378.63C1875.08 378.27 1877.76 380.36 1878.12 383.3L1879.12 391.42L1897.98 388.26L1896.78 378.56C1896.42 375.62 1898.51 372.94 1901.45 372.58C1904.39 372.22 1907.07 374.31 1907.43 377.25L1908.57 386.49L1927.43 383.33L1926.09 372.51C1925.73 369.57 1927.82 366.89 1930.76 366.53C1933.71 366.17 1936.39 368.26 1936.75 371.2L1938.03 381.56L1956.89 378.4L1954.39 358.2C1954.03 355.26 1956.12 352.58 1959.06 352.22C1962.01 351.86 1964.69 353.95 1965.05 356.89L1967.49 376.63L1980.2 374.5C1990.5 373.22 1999.88 380.54 2001.15 390.84L2002.35 400.52C2008.83 400.13 2014.5 401.5 2019.13 404.08V372.48H2025.91C2032.84 372.48 2038.46 378.1 2038.46 385.03V400.39ZM423 923.18V923.49H484V923.18H423ZM486 923.18V923.49H547V923.18H486ZM549 923.18V923.49H610V923.18H549ZM638 923.18V923.49H699V923.18H638ZM701 923.18V923.49H762V923.18H701ZM764 923.18V923.49H825V923.18H764ZM827 923.18V923.49H888V923.18H827ZM915 923.18V923.49H975V923.18H915ZM977 923.18V923.49H1037V923.18H977ZM1039 923.18V923.49H1100V923.18H1039ZM1102 923.18V923.49H1163V923.18H1102ZM1192 923.18V923.49H1253V923.18H1192ZM1255 923.18V923.49H1316V923.18H1255ZM1318 923.18V923.49H1379V923.18H1318ZM1381 923.18V923.49H1442V923.18H1381ZM1466 923.18V923.49H1527V923.18H1466ZM1529 923.18V923.49H1590V923.18H1529ZM1592 923.18V923.49H1653V923.18H1592ZM925 579.49C919.477 579.49 915 583.967 915 589.49V608.49C915 614.013 919.477 618.49 925 618.49H1151C1156.52 618.49 1161 614.013 1161 608.49V589.49C1161 583.967 1156.52 579.49 1151 579.49H925ZM1192 589.49C1192 583.967 1196.48 579.49 1202 579.49H1428C1433.52 579.49 1438 583.967 1438 589.49V608.49C1438 614.013 1433.52 618.49 1428 618.49H1202C1196.48 618.49 1192 614.013 1192 608.49V589.49ZM648 579.49C642.477 579.49 638 583.967 638 589.49V608.49C638 614.013 642.477 618.49 648 618.49H874C879.523 618.49 884 614.013 884 608.49V589.49C884 583.967 879.523 579.49 874 579.49H648ZM423 589.49C423 583.967 427.477 579.49 433 579.49H597C602.523 579.49 607 583.967 607 589.49V608.49C607 614.013 602.523 618.49 597 618.49H433C427.477 618.49 423 614.013 423 608.49V589.49ZM1476 579.49C1470.48 579.49 1466 583.967 1466 589.49V608.49C1466 614.013 1470.48 618.49 1476 618.49H1640C1645.52 618.49 1650 614.013 1650 608.49V589.49C1650 583.967 1645.52 579.49 1640 579.49H1476Z" fill="url(#paint1_linear_2308_176)"/>
<path fill-rule="evenodd" clip-rule="evenodd" d="M2038.46 400.39H2069.36L2069.34 400.41C2073.03 400.41 2076.01 403.4 2076.01 407.08V417.59H2075.98C2075.4 450.88 2048.25 477.7 2014.82 477.7H1985.53L1831 599.14L1762.76 652.77V686.55C1762.76 693 1757.53 698.22 1751.09 698.22H1741.29V903.18C1741.29 914.226 1732.34 923.18 1721.29 923.18H1653V641.49C1653 635.967 1648.52 631.49 1643 631.49H1602C1596.48 631.49 1592 635.967 1592 641.49V923.18H1590V641.49C1590 635.967 1585.52 631.49 1580 631.49H1539C1533.48 631.49 1529 635.967 1529 641.49V923.18H1527V641.49C1527 635.967 1522.52 631.49 1517 631.49H1476C1470.48 631.49 1466 635.967 1466 641.49V923.18H1442V641.49C1442 635.967 1437.52 631.49 1432 631.49H1391C1385.48 631.49 1381 635.967 1381 641.49V923.18H1379V641.49C1379 635.967 1374.52 631.49 1369 631.49H1328C1322.48 631.49 1318 635.967 1318 641.49V923.18H1316V641.49C1316 635.967 1311.52 631.49 1306 631.49H1265C1259.48 631.49 1255 635.967 1255 641.49V923.18H1253V641.49C1253 635.967 1248.52 631.49 1243 631.49H1202C1196.48 631.49 1192 635.967 1192 641.49V923.18H1163V641.49C1163 635.967 1158.52 631.49 1153 631.49H1112C1106.48 631.49 1102 635.967 1102 641.49V923.18H1100V641.49C1100 635.967 1095.52 631.49 1090 631.49H1049C1043.48 631.49 1039 635.967 1039 641.49V923.18H1037V641.49C1037 635.967 1032.52 631.49 1027 631.49H987C981.477 631.49 977 635.967 977 641.49V923.18H975V641.49C975 635.967 970.523 631.49 965 631.49H925C919.477 631.49 915 635.967 915 641.49V923.18H888V641.49C888 635.967 883.523 631.49 878 631.49H837C831.477 631.49 827 635.967 827 641.49V923.18H825V641.49C825 635.967 820.523 631.49 815 631.49H774C768.477 631.49 764 635.967 764 641.49V923.18H762V641.49C762 635.967 757.523 631.49 752 631.49H711C705.477 631.49 701 635.967 701 641.49V923.18H699V641.49C699 635.967 694.523 631.49 689 631.49H648C642.477 631.49 638 635.967 638 641.49V923.18H610V641.49C610 635.967 605.523 631.49 600 631.49H559C553.477 631.49 549 635.967 549 641.49V923.18H547V641.49C547 635.967 542.523 631.49 537 631.49H496C490.477 631.49 486 635.967 486 641.49V923.18H484V641.49C484 635.967 479.523 631.49 474 631.49H433C427.477 631.49 423 635.967 423 641.49V923.18H354.72C343.675 923.18 334.72 914.226 334.72 903.18V698.22H324.92C318.47 698.22 313.25 692.99 313.25 686.55V652.77L245.01 599.14L90.48 477.7H61.1899C27.7599 477.7 0.609785 450.88 0.0297852 417.59H0V407.08C0 403.39 2.98992 400.41 6.66992 400.41H37.5698V385.05C37.5698 378.12 43.1901 372.5 50.1201 372.5H56.8999V404.1C61.5299 401.52 67.1902 400.15 73.6802 400.54L74.8799 390.86C76.1499 380.56 85.5301 373.25 95.8301 374.52L108.54 376.65L110.98 356.91C111.34 353.97 114.02 351.88 116.96 352.24C119.9 352.6 121.99 355.28 121.63 358.22L119.13 378.42L137.99 381.58L139.27 371.22C139.63 368.28 142.31 366.19 145.25 366.55C148.19 366.91 150.28 369.59 149.92 372.53L148.58 383.35L167.44 386.51L168.58 377.27C168.94 374.33 171.62 372.24 174.56 372.6C177.5 372.96 179.59 375.64 179.23 378.58L178.03 388.28L196.89 391.44L197.89 383.32C198.25 380.38 200.93 378.29 203.87 378.65C206.81 379.01 208.9 381.69 208.54 384.63L207.48 393.2L226.34 396.36L227.2 389.37C227.56 386.43 230.24 384.34 233.18 384.7C236.12 385.07 238.21 387.75 237.85 390.69L236.93 398.14L255.79 401.3L256.52 395.43C256.88 392.49 259.56 390.4 262.5 390.76C265.44 391.13 267.53 393.81 267.17 396.75L266.39 403.08L331.74 414.03C334.24 404.22 343.68 397.57 353.98 398.84C364.87 400.19 372.67 409.9 371.78 420.74L429.42 430.4L301.69 298.06L137.31 127.75H126.63C107.66 127.75 92.2798 112.37 92.2798 93.4V82.89C92.2798 79.2 95.2702 76.22 98.9502 76.22H129.85V60.86C129.85 53.93 135.47 48.31 142.4 48.31H149.18V75.24C152.94 72.32 158.09 70.69 163.59 71.11L164.12 71.19L165.39 59.43C165.66 56.94 168.27 55.1 171.22 55.33C174.17 55.56 176.35 57.76 176.08 60.25L174.73 72.72L193.62 75.46L194.13 70.73C194.4 68.24 197.01 66.4 199.96 66.63C202.91 66.86 205.09 69.06 204.82 71.55L204.23 76.99L223.12 79.73L223.63 75.05C223.9 72.56 226.5 70.72 229.46 70.95C232.42 71.18 234.59 73.38 234.32 75.87L233.74 81.27L252.63 84.01L253.13 79.37C253.4 76.88 256.01 75.04 258.96 75.27C261.91 75.5 264.09 77.7 263.82 80.19L263.24 85.54L282.13 88.28L282.63 83.68C282.9 81.19 285.51 79.35 288.46 79.58C291.41 79.81 293.59 82.01 293.32 84.5L292.75 89.81L311.64 92.55L312.13 88C312.4 85.51 315.01 83.67 317.96 83.9C320.91 84.13 323.09 86.33 322.82 88.82L322.25 94.09L373.15 101.46L399.35 102.31C402.02 94.56 410.9 89.24 420.78 90C429.92 90.7 437.1 96.39 438.89 103.59L542.03 106.94L600.03 66.24V20.4C600.03 9.13 609.16 0 620.43 0C631.7 0 640.83 9.14 640.83 20.4V46.16L1038 68.7L1435.17 46.16V20.4C1435.17 9.13 1444.3 0 1455.57 0C1466.84 0 1475.97 9.14 1475.97 20.4V66.22L1533.97 106.92L1637.11 103.57C1638.9 96.37 1646.08 90.68 1655.22 89.98C1665.11 89.22 1673.98 94.54 1676.65 102.29L1702.85 101.44L1753.75 94.07L1753.18 88.8C1752.91 86.31 1755.09 84.11 1758.04 83.88C1760.99 83.66 1763.6 85.49 1763.87 87.98L1764.36 92.53L1783.25 89.79L1782.68 84.48C1782.41 81.99 1784.59 79.79 1787.54 79.56C1790.49 79.34 1793.1 81.17 1793.37 83.66L1793.87 88.26L1812.76 85.52L1812.18 80.17C1811.91 77.68 1814.09 75.47 1817.04 75.25C1819.99 75.03 1822.6 76.86 1822.87 79.35L1823.37 83.99L1842.26 81.25L1841.68 75.85C1841.41 73.36 1843.59 71.15 1846.54 70.93C1849.49 70.71 1852.1 72.54 1852.37 75.03L1852.88 79.71L1871.77 76.97L1871.18 71.53C1870.91 69.04 1873.09 66.84 1876.04 66.61C1878.99 66.39 1881.6 68.22 1881.87 70.71L1882.38 75.44L1901.27 72.7L1899.92 60.23C1899.65 57.74 1901.83 55.53 1904.78 55.31C1907.73 55.09 1910.34 56.92 1910.61 59.41L1911.88 71.17L1912.41 71.09C1917.9 70.67 1923.05 72.3 1926.82 75.22V48.29H1933.6C1940.53 48.29 1946.15 53.91 1946.15 60.84V76.2H1977.05C1980.74 76.2 1983.72 79.19 1983.72 82.87V93.38C1983.72 112.35 1968.34 127.73 1949.37 127.73H1938.69L1774.31 298.04L1646.58 430.38L1704.22 420.72C1703.33 409.88 1711.13 400.17 1722.02 398.82C1732.32 397.55 1741.76 404.21 1744.26 414.01L1809.61 403.06L1808.83 396.73C1808.47 393.78 1810.56 391.1 1813.5 390.74C1816.44 390.38 1819.12 392.47 1819.48 395.41L1820.21 401.28L1839.07 398.12L1838.15 390.67C1837.79 387.72 1839.88 385.04 1842.82 384.68C1845.76 384.32 1848.44 386.41 1848.8 389.35L1849.66 396.34L1868.52 393.18L1867.46 384.61C1867.1 381.67 1869.19 378.99 1872.13 378.63C1875.08 378.27 1877.76 380.36 1878.12 383.3L1879.12 391.42L1897.98 388.26L1896.78 378.56C1896.42 375.62 1898.51 372.94 1901.45 372.58C1904.39 372.22 1907.07 374.31 1907.43 377.25L1908.57 386.49L1927.43 383.33L1926.09 372.51C1925.73 369.57 1927.82 366.89 1930.76 366.53C1933.71 366.17 1936.39 368.26 1936.75 371.2L1938.03 381.56L1956.89 378.4L1954.39 358.2C1954.03 355.26 1956.12 352.58 1959.06 352.22C1962.01 351.86 1964.69 353.95 1965.05 356.89L1967.49 376.63L1980.2 374.5C1990.5 373.22 1999.88 380.54 2001.15 390.84L2002.35 400.52C2008.83 400.13 2014.5 401.5 2019.13 404.08V372.48H2025.91C2032.84 372.48 2038.46 378.1 2038.46 385.03V400.39ZM423 923.18V923.49H484V923.18H423ZM486 923.18V923.49H547V923.18H486ZM549 923.18V923.49H610V923.18H549ZM638 923.18V923.49H699V923.18H638ZM701 923.18V923.49H762V923.18H701ZM764 923.18V923.49H825V923.18H764ZM827 923.18V923.49H888V923.18H827ZM915 923.18V923.49H975V923.18H915ZM977 923.18V923.49H1037V923.18H977ZM1039 923.18V923.49H1100V923.18H1039ZM1102 923.18V923.49H1163V923.18H1102ZM1192 923.18V923.49H1253V923.18H1192ZM1255 923.18V923.49H1316V923.18H1255ZM1318 923.18V923.49H1379V923.18H1318ZM1381 923.18V923.49H1442V923.18H1381ZM1466 923.18V923.49H1527V923.18H1466ZM1529 923.18V923.49H1590V923.18H1529ZM1592 923.18V923.49H1653V923.18H1592ZM925 579.49C919.477 579.49 915 583.967 915 589.49V608.49C915 614.013 919.477 618.49 925 618.49H1151C1156.52 618.49 1161 614.013 1161 608.49V589.49C1161 583.967 1156.52 579.49 1151 579.49H925ZM1192 589.49C1192 583.967 1196.48 579.49 1202 579.49H1428C1433.52 579.49 1438 583.967 1438 589.49V608.49C1438 614.013 1433.52 618.49 1428 618.49H1202C1196.48 618.49 1192 614.013 1192 608.49V589.49ZM648 579.49C642.477 579.49 638 583.967 638 589.49V608.49C638 614.013 642.477 618.49 648 618.49H874C879.523 618.49 884 614.013 884 608.49V589.49C884 583.967 879.523 579.49 874 579.49H648ZM423 589.49C423 583.967 427.477 579.49 433 579.49H597C602.523 579.49 607 583.967 607 589.49V608.49C607 614.013 602.523 618.49 597 618.49H433C427.477 618.49 423 614.013 423 608.49V589.49ZM1476 579.49C1470.48 579.49 1466 583.967 1466 589.49V608.49C1466 614.013 1470.48 618.49 1476 618.49H1640C1645.52 618.49 1650 614.013 1650 608.49V589.49C1650 583.967 1645.52 579.49 1640 579.49H1476Z" fill="url(#paint2_linear_2308_176)"/>
<defs>
<linearGradient id="paint0_linear_2308_176" x1="1096.78" y1="231.641" x2="1117.92" y2="895.618" gradientUnits="userSpaceOnUse">
<stop stop-color="#5DCBC1"/>
<stop offset="1" stop-color="#00A695" stop-opacity="0"/>
</linearGradient>
<linearGradient id="paint1_linear_2308_176" x1="1038" y1="0" x2="1038" y2="923.49" gradientUnits="userSpaceOnUse">
<stop stop-color="#00A695"/>
<stop offset="1" stop-color="#ACDFDB"/>
</linearGradient>
<linearGradient id="paint2_linear_2308_176" x1="1038" y1="0" x2="1038" y2="923.49" gradientUnits="userSpaceOnUse">
<stop stop-color="#00A695"/>
<stop offset="1" stop-color="#ACDFDB"/>
</linearGradient>
</defs>
</svg>
