<svg width="2500" height="1035" viewBox="0 0 2500 1035" fill="none" xmlns="http://www.w3.org/2000/svg">
<mask id="mask0_2308_703" style="mask-type:alpha" maskUnits="userSpaceOnUse" x="449" y="419" width="1605" height="622">
<path d="M455 425L455 1035" stroke="black" stroke-width="10.2711" stroke-linecap="round"/>
<path d="M474.193 425L474.193 1035" stroke="black" stroke-width="10.2711" stroke-linecap="round"/>
<path d="M493.383 425L493.383 1035" stroke="black" stroke-width="10.2711" stroke-linecap="round"/>
<path d="M512.578 425L512.578 1035" stroke="black" stroke-width="10.2711" stroke-linecap="round"/>
<path d="M531.771 425L531.771 1035" stroke="black" stroke-width="10.2711" stroke-linecap="round"/>
<path d="M550.965 425L550.965 1035" stroke="black" stroke-width="10.2711" stroke-linecap="round"/>
<path d="M570.156 425L570.156 1035" stroke="black" stroke-width="10.2711" stroke-linecap="round"/>
<path d="M589.348 425L589.348 1035" stroke="black" stroke-width="10.2711" stroke-linecap="round"/>
<path d="M608.545 425L608.545 1035" stroke="black" stroke-width="10.2711" stroke-linecap="round"/>
<path d="M627.736 425L627.736 1035" stroke="black" stroke-width="10.2711" stroke-linecap="round"/>
<path d="M646.928 425L646.928 1035" stroke="black" stroke-width="10.2711" stroke-linecap="round"/>
<path d="M666.119 425L666.119 1035" stroke="black" stroke-width="10.2711" stroke-linecap="round"/>
<path d="M685.314 425L685.314 1035" stroke="black" stroke-width="10.2711" stroke-linecap="round"/>
<path d="M704.504 425L704.504 1035" stroke="black" stroke-width="10.2711" stroke-linecap="round"/>
<path d="M723.699 425L723.699 1035" stroke="black" stroke-width="10.2711" stroke-linecap="round"/>
<path d="M742.893 425L742.893 1035" stroke="black" stroke-width="10.2711" stroke-linecap="round"/>
<path d="M762.084 425L762.084 1035" stroke="black" stroke-width="10.2711" stroke-linecap="round"/>
<path d="M781.273 425L781.273 1035" stroke="black" stroke-width="10.2711" stroke-linecap="round"/>
<path d="M800.469 425L800.469 1035" stroke="black" stroke-width="10.2711" stroke-linecap="round"/>
<path d="M819.662 425L819.662 1035" stroke="black" stroke-width="10.2711" stroke-linecap="round"/>
<path d="M838.854 425L838.853 1035" stroke="black" stroke-width="10.2711" stroke-linecap="round"/>
<path d="M858.047 425L858.047 1035" stroke="black" stroke-width="10.2711" stroke-linecap="round"/>
<path d="M877.24 425L877.24 1035" stroke="black" stroke-width="10.2711" stroke-linecap="round"/>
<path d="M896.436 425L896.436 1035" stroke="black" stroke-width="10.2711" stroke-linecap="round"/>
<path d="M915.627 425L915.627 1035" stroke="black" stroke-width="10.2711" stroke-linecap="round"/>
<path d="M934.818 425L934.818 1035" stroke="black" stroke-width="10.2711" stroke-linecap="round"/>
<path d="M954.014 425L954.014 1035" stroke="black" stroke-width="10.2711" stroke-linecap="round"/>
<path d="M973.205 425L973.205 1035" stroke="black" stroke-width="10.2711" stroke-linecap="round"/>
<path d="M992.398 425L992.398 1035" stroke="black" stroke-width="10.2711" stroke-linecap="round"/>
<path d="M1011.59 425L1011.59 1035" stroke="black" stroke-width="10.2711" stroke-linecap="round"/>
<path d="M1030.78 425L1030.78 1035" stroke="black" stroke-width="10.2711" stroke-linecap="round"/>
<path d="M1049.97 425L1049.97 1035" stroke="black" stroke-width="10.2711" stroke-linecap="round"/>
<path d="M1069.17 425L1069.17 1035" stroke="black" stroke-width="10.2711" stroke-linecap="round"/>
<path d="M1088.36 425L1088.36 1035" stroke="black" stroke-width="10.2711" stroke-linecap="round"/>
<path d="M1107.55 425L1107.55 1035" stroke="black" stroke-width="10.2711" stroke-linecap="round"/>
<path d="M1126.74 425L1126.74 1035" stroke="black" stroke-width="10.2711" stroke-linecap="round"/>
<path d="M1145.94 425L1145.94 1035" stroke="black" stroke-width="10.2711" stroke-linecap="round"/>
<path d="M1165.13 425L1165.13 1035" stroke="black" stroke-width="10.2711" stroke-linecap="round"/>
<path d="M1184.33 425L1184.33 1035" stroke="black" stroke-width="10.2711" stroke-linecap="round"/>
<path d="M1203.52 425L1203.52 1035" stroke="black" stroke-width="10.2711" stroke-linecap="round"/>
<path d="M1222.71 425L1222.71 1035" stroke="black" stroke-width="10.2711" stroke-linecap="round"/>
<path d="M1241.9 425L1241.9 1035" stroke="black" stroke-width="10.2711" stroke-linecap="round"/>
<path d="M1261.1 425L1261.1 1035" stroke="black" stroke-width="10.2711" stroke-linecap="round"/>
<path d="M1280.29 425L1280.29 1035" stroke="black" stroke-width="10.2711" stroke-linecap="round"/>
<path d="M1299.48 425L1299.48 1035" stroke="black" stroke-width="10.2711" stroke-linecap="round"/>
<path d="M1318.67 425L1318.67 1035" stroke="black" stroke-width="10.2711" stroke-linecap="round"/>
<path d="M1337.87 425L1337.87 1035" stroke="black" stroke-width="10.2711" stroke-linecap="round"/>
<path d="M1357.06 425L1357.06 1035" stroke="black" stroke-width="10.2711" stroke-linecap="round"/>
<path d="M1376.25 425L1376.25 1035" stroke="black" stroke-width="10.2711" stroke-linecap="round"/>
<path d="M1395.45 425L1395.45 1035" stroke="black" stroke-width="10.2711" stroke-linecap="round"/>
<path d="M1414.64 425L1414.64 1035" stroke="black" stroke-width="10.2711" stroke-linecap="round"/>
<path d="M1433.83 425L1433.83 1035" stroke="black" stroke-width="10.2711" stroke-linecap="round"/>
<path d="M1453.03 425L1453.03 1035" stroke="black" stroke-width="10.2711" stroke-linecap="round"/>
<path d="M1472.22 425L1472.22 1035" stroke="black" stroke-width="10.2711" stroke-linecap="round"/>
<path d="M1491.41 425L1491.41 1035" stroke="black" stroke-width="10.2711" stroke-linecap="round"/>
<path d="M1510.6 425L1510.6 1035" stroke="black" stroke-width="10.2711" stroke-linecap="round"/>
<path d="M1529.8 425L1529.8 1035" stroke="black" stroke-width="10.2711" stroke-linecap="round"/>
<path d="M1548.99 425L1548.99 1035" stroke="black" stroke-width="10.2711" stroke-linecap="round"/>
<path d="M1568.18 425L1568.18 1035" stroke="black" stroke-width="10.2711" stroke-linecap="round"/>
<path d="M1587.37 425L1587.37 1035" stroke="black" stroke-width="10.2711" stroke-linecap="round"/>
<path d="M1606.57 425L1606.57 1035" stroke="black" stroke-width="10.2711" stroke-linecap="round"/>
<path d="M1625.76 425L1625.76 1035" stroke="black" stroke-width="10.2711" stroke-linecap="round"/>
<path d="M1644.96 425L1644.96 1035" stroke="black" stroke-width="10.2711" stroke-linecap="round"/>
<path d="M1664.15 425L1664.15 1035" stroke="black" stroke-width="10.2711" stroke-linecap="round"/>
<path d="M1683.34 425L1683.34 1035" stroke="black" stroke-width="10.2711" stroke-linecap="round"/>
<path d="M1702.53 425L1702.53 1035" stroke="black" stroke-width="10.2711" stroke-linecap="round"/>
<path d="M1721.72 425L1721.72 1035" stroke="black" stroke-width="10.2711" stroke-linecap="round"/>
<path d="M1740.92 425L1740.92 1035" stroke="black" stroke-width="10.2711" stroke-linecap="round"/>
<path d="M1760.11 425L1760.11 1035" stroke="black" stroke-width="10.2711" stroke-linecap="round"/>
<path d="M1779.3 425L1779.3 1035" stroke="black" stroke-width="10.2711" stroke-linecap="round"/>
<path d="M1798.5 425L1798.5 1035" stroke="black" stroke-width="10.2711" stroke-linecap="round"/>
<path d="M1817.69 425L1817.69 1035" stroke="black" stroke-width="10.2711" stroke-linecap="round"/>
<path d="M1836.88 425L1836.88 1035" stroke="black" stroke-width="10.2711" stroke-linecap="round"/>
<path d="M1856.07 425L1856.07 1035" stroke="black" stroke-width="10.2711" stroke-linecap="round"/>
<path d="M1875.26 425L1875.26 1035" stroke="black" stroke-width="10.2711" stroke-linecap="round"/>
<path d="M1894.46 425L1894.46 1035" stroke="black" stroke-width="10.2711" stroke-linecap="round"/>
<path d="M1913.65 425L1913.65 1035" stroke="black" stroke-width="10.2711" stroke-linecap="round"/>
<path d="M1932.85 425L1932.85 1035" stroke="black" stroke-width="10.2711" stroke-linecap="round"/>
<path d="M1952.04 425L1952.04 1035" stroke="black" stroke-width="10.2711" stroke-linecap="round"/>
<path d="M1971.23 425L1971.23 1035" stroke="black" stroke-width="10.2711" stroke-linecap="round"/>
<path d="M1990.42 425L1990.42 1035" stroke="black" stroke-width="10.2711" stroke-linecap="round"/>
<path d="M2009.62 425L2009.62 1035" stroke="black" stroke-width="10.2711" stroke-linecap="round"/>
<path d="M2028.81 425L2028.81 1035" stroke="black" stroke-width="10.2711" stroke-linecap="round"/>
<path d="M2048 425L2048 1035" stroke="black" stroke-width="10.2711" stroke-linecap="round"/>
</mask>
<g mask="url(#mask0_2308_703)">
<path fill-rule="evenodd" clip-rule="evenodd" d="M433.406 892.448V285.897C433.406 285.897 1144.02 335.435 1247.63 316.857V316.761C1247.72 316.777 1247.81 316.793 1247.9 316.809C1247.99 316.793 1248.08 316.777 1248.16 316.761V316.857C1351.78 335.435 2062.39 285.897 2062.39 285.897V892.448H1248.16H1247.63H433.406Z" fill="url(#paint0_linear_2308_703)"/>
</g>
<path fill-rule="evenodd" clip-rule="evenodd" d="M2498.33 279.62L2491.13 289.67H2491.09C2495.55 290.71 2498.88 294.7 2498.88 299.47C2498.88 305.03 2494.37 309.54 2488.81 309.54H2470.02L2431.48 331.87L2221.31 497.03L2093.72 597.29V628.04C2093.72 635.59 2087.6 641.71 2080.05 641.71H2058.33C2055.35 641.71 2052.6 640.74 2050.35 639.12V901.65C2050.35 912.696 2041.39 921.65 2030.35 921.65H469.049C458.003 921.65 449.049 912.696 449.049 901.65V639.12C446.799 640.74 444.049 641.71 441.069 641.71H419.349C411.799 641.71 405.679 635.59 405.679 628.04V597.29L278.089 497.03L67.9186 331.87L29.379 309.54H10.589C5.02898 309.54 0.518666 305.03 0.518666 299.47C0.518666 294.69 3.84871 290.7 8.30871 289.67L1.109 279.62C-1.461 276.04 0.67892 271.02 5.02892 270.38L36.649 265.72L65.9488 261.41V228.71C65.9488 217.06 75.3989 207.61 87.0489 207.61H91.0089C94.5389 207.61 97.399 210.47 97.399 214V233.8C99.289 233.53 101.239 233.47 103.219 233.72L118.119 236.22L120.979 213.08C121.409 209.63 124.549 207.18 127.999 207.61C131.449 208.04 133.899 211.18 133.469 214.63L130.539 238.3L152.649 242L154.149 229.86C154.579 226.41 157.719 223.96 161.169 224.39C164.619 224.82 167.069 227.96 166.639 231.41L165.069 244.09L187.179 247.79L188.519 236.96C188.949 233.51 192.089 231.06 195.539 231.49C198.989 231.92 201.439 235.06 201.009 238.51L199.609 249.88L221.719 253.58L222.899 244.07C223.329 240.62 226.469 238.17 229.919 238.6C233.369 239.03 235.819 242.17 235.389 245.62L234.149 255.67L256.259 259.37L257.269 251.17C257.699 247.72 260.839 245.27 264.289 245.7C267.739 246.13 270.189 249.27 269.759 252.72L268.679 261.45L336.209 272.76C361.919 269.44 403.499 260.55 447.209 234.04C479.499 214.45 502.009 191.9 516.409 174.9L581.839 57.88V23.91C581.839 10.7 592.539 0 605.749 0C618.959 0 629.659 10.71 629.659 23.91V45.3L1249.72 65.42L1869.78 45.3V23.91C1869.78 10.7 1880.48 0 1893.69 0C1906.9 0 1917.6 10.71 1917.6 23.91V57.88L1983.03 174.9C1997.43 191.91 2019.93 214.46 2052.23 234.04C2095.94 260.54 2137.51 269.43 2163.23 272.76L2230.76 261.45L2229.68 252.72C2229.25 249.27 2231.7 246.13 2235.15 245.7C2238.6 245.27 2241.74 247.72 2242.17 251.17L2243.18 259.37L2265.29 255.67L2264.05 245.62C2263.62 242.17 2266.07 239.03 2269.52 238.6C2272.97 238.17 2276.11 240.62 2276.54 244.07L2277.72 253.58L2299.83 249.88L2298.43 238.51C2298 235.06 2300.45 231.92 2303.9 231.49C2307.35 231.06 2310.49 233.51 2310.92 236.96L2312.26 247.79L2334.37 244.09L2332.8 231.41C2332.37 227.96 2334.82 224.82 2338.27 224.39C2341.72 223.96 2344.86 226.41 2345.29 229.86L2346.79 242L2368.9 238.3L2365.97 214.63C2365.54 211.18 2367.99 208.04 2371.44 207.61C2374.89 207.18 2378.03 209.63 2378.46 213.08L2381.32 236.22L2396.22 233.72C2398.2 233.48 2400.15 233.53 2402.04 233.8V214C2402.04 210.47 2404.9 207.61 2408.43 207.61H2412.39C2424.04 207.61 2433.49 217.06 2433.49 228.71V261.41L2462.79 265.72L2494.41 270.38C2498.76 271.02 2500.89 276.04 2498.33 279.62ZM577.169 588.049L537.978 588.05L518.391 631.609H518.352V771.222H518.392L537.986 814.794L577.178 814.795L596.774 771.216L596.741 771.143V631.68L596.764 631.628L577.169 588.049ZM616.751 588.05L655.943 588.049L675.318 631.14L675.107 631.609H675.068V771.222H675.109L675.327 771.706L655.952 814.795L616.759 814.794L597.166 771.222H597.125V631.609H597.164L616.751 588.05ZM675.327 771.706L694.703 814.794L733.895 814.795L753.491 771.216L753.458 771.143V631.68L753.481 631.628L733.886 588.049L694.694 588.05L675.318 631.14L675.538 631.628L675.514 631.68V771.143L675.547 771.216L675.327 771.706ZM830.508 588.05L869.699 588.049L889.294 617.637L889.27 617.674V712.361L889.304 712.412L869.708 742L830.516 742L810.922 712.415H810.881V617.624H810.921L830.508 588.05ZM948.475 588.049L909.283 588.05L889.696 617.624H889.656V712.415H889.697L909.291 742L948.484 742L967.859 712.745L987.235 742L1026.43 742L1046.02 712.412L1045.99 712.361V617.674L1046.01 617.637L1026.42 588.049L987.226 588.05L967.85 617.306L948.475 588.049ZM967.85 617.306L967.639 617.624H967.6V712.415H967.641L967.859 712.745L968.079 712.412L968.045 712.361V617.674L968.07 617.637L967.85 617.306ZM1512.15 588.049L1472.95 588.05L1453.37 617.624H1453.33V712.415H1453.37L1472.96 742L1512.16 742L1531.75 712.412L1531.72 712.361V617.674L1531.74 617.637L1512.15 588.049ZM1551.73 588.05L1590.92 588.049L1610.3 617.306L1610.09 617.624H1610.05V712.415H1610.09L1610.31 712.745L1590.93 742L1551.74 742L1532.14 712.415H1532.1V617.624H1532.14L1551.73 588.05ZM1610.31 712.745L1629.68 742L1668.87 742L1688.47 712.412L1688.44 712.361V617.674L1688.46 617.637L1668.87 588.049L1629.67 588.05L1610.3 617.306L1610.52 617.637L1610.49 617.674V712.361L1610.53 712.412L1610.31 712.745ZM1765.49 588.05L1804.68 588.049L1824.27 631.628L1824.25 631.68V771.143L1824.28 771.216L1804.69 814.795L1765.49 814.794L1745.9 771.222H1745.86V631.609H1745.9L1765.49 588.05ZM1883.45 588.049L1844.26 588.05L1824.67 631.609H1824.63V771.222H1824.67L1844.27 814.794L1883.46 814.795L1902.84 771.704L1922.21 814.794L1961.4 814.795L1981 771.216L1980.97 771.143V631.68L1980.99 631.628L1961.4 588.049L1922.2 588.05L1902.83 631.142L1883.45 588.049ZM1902.83 631.142L1902.62 631.609H1902.58V771.222H1902.62L1902.84 771.704L1903.06 771.216L1903.02 771.143V631.68L1903.05 631.628L1902.83 631.142ZM529.81 529C523.287 529 518 534.287 518 540.81V553.8C518 560.323 523.287 565.61 529.81 565.61H741.203C747.726 565.61 753.013 560.323 753.013 553.8V540.81C753.013 534.287 747.726 529 741.204 529H529.81ZM518 849.044C518 842.522 523.287 837.234 529.81 837.234H741.204C747.726 837.234 753.013 842.522 753.013 849.044V862.035C753.013 868.557 747.726 873.844 741.203 873.844H529.81C523.287 873.844 518 868.557 518 862.035V849.044ZM822.691 529C816.168 529 810.881 534.287 810.881 540.81V553.8C810.881 560.323 816.168 565.61 822.691 565.61H1034.08C1040.61 565.61 1045.89 560.323 1045.89 553.8V540.81C1045.89 534.287 1040.61 529 1034.08 529H822.691ZM1450.97 540.81C1450.97 534.287 1456.25 529 1462.78 529H1674.17C1680.69 529 1685.98 534.287 1685.98 540.81V553.8C1685.98 560.323 1680.69 565.61 1674.17 565.61H1462.78C1456.25 565.61 1450.97 560.323 1450.97 553.8V540.81ZM1464.81 775C1458.29 775 1453 780.287 1453 786.81V862.19C1453 868.713 1458.29 874 1464.81 874H1519.19C1525.71 874 1531 868.713 1531 862.19C1531 868.713 1536.29 874 1542.81 874H1598.19C1604.71 874 1610 868.713 1610 862.19C1610 868.713 1615.29 874 1621.81 874H1676.19C1682.71 874 1688 868.713 1688 862.19V786.81C1688 780.287 1682.71 775 1676.19 775H1621.81C1615.29 775 1610 780.287 1610 786.81C1610 780.287 1604.71 775 1598.19 775H1542.81C1536.29 775 1531 780.287 1531 786.81C1531 780.287 1525.71 775 1519.19 775H1464.81ZM811 786.81C811 780.287 816.287 775 822.81 775H877.19C883.713 775 889 780.287 889 786.81C889 780.287 894.287 775 900.81 775H956.19C962.713 775 968 780.287 968 786.81C968 780.287 973.287 775 979.81 775H1034.19C1040.71 775 1046 780.287 1046 786.81V862.19C1046 868.713 1040.71 874 1034.19 874H979.81C973.287 874 968 868.713 968 862.19C968 868.713 962.713 874 956.19 874H900.81C894.287 874 889 868.713 889 862.19C889 868.713 883.713 874 877.19 874H822.81C816.287 874 811 868.713 811 862.19V786.81ZM1755.66 529C1749.14 529 1743.85 534.287 1743.85 540.81V553.8C1743.85 560.323 1749.14 565.61 1755.66 565.61H1967.05C1973.57 565.61 1978.86 560.323 1978.86 553.8V540.81C1978.86 534.287 1973.57 529 1967.05 529H1755.66ZM1743.85 849.044C1743.85 842.522 1749.14 837.234 1755.66 837.234H1967.05C1973.57 837.234 1978.86 842.522 1978.86 849.044V862.035C1978.86 868.557 1973.57 873.844 1967.05 873.844H1755.66C1749.14 873.844 1743.85 868.557 1743.85 862.035V849.044ZM1192 529C1186.48 529 1182 533.477 1182 539V902C1182 907.523 1186.48 912 1192 912H1303C1308.52 912 1313 907.523 1313 902V539C1313 533.477 1308.52 529 1303 529H1192ZM1088 539C1088 533.477 1092.48 529 1098 529H1159C1164.52 529 1169 533.477 1169 539V902C1169 907.523 1164.52 912 1159 912H1098C1092.48 912 1088 907.523 1088 902V539ZM1336 529C1330.48 529 1326 533.477 1326 539V902C1326 907.523 1330.48 912 1336 912H1397C1402.52 912 1407 907.523 1407 902V539C1407 533.477 1402.52 529 1397 529H1336Z" fill="url(#paint1_linear_2308_703)"/>
<defs>
<linearGradient id="paint0_linear_2308_703" x1="1318.67" y1="216.22" x2="1337.89" y2="893.085" gradientUnits="userSpaceOnUse">
<stop stop-color="#5DCBC1"/>
<stop offset="1" stop-color="#00A695" stop-opacity="0"/>
</linearGradient>
<linearGradient id="paint1_linear_2308_703" x1="1249.72" y1="0" x2="1249.72" y2="922" gradientUnits="userSpaceOnUse">
<stop stop-color="#00A695"/>
<stop offset="1" stop-color="#ACDFDB"/>
</linearGradient>
</defs>
</svg>
