<svg width="1844" height="1035" viewBox="0 0 1844 1035" fill="none" xmlns="http://www.w3.org/2000/svg">
<mask id="mask0_2308_27" style="mask-type:alpha" maskUnits="userSpaceOnUse" x="274" y="405" width="1295" height="636">
<path d="M280 411L280 1035" stroke="black" stroke-width="10.2711" stroke-linecap="round"/>
<path d="M295.458 411L295.458 1035" stroke="black" stroke-width="10.2711" stroke-linecap="round"/>
<path d="M310.914 411L310.914 1035" stroke="black" stroke-width="10.2711" stroke-linecap="round"/>
<path d="M326.374 411L326.374 1035" stroke="black" stroke-width="10.2711" stroke-linecap="round"/>
<path d="M341.832 411L341.832 1035" stroke="black" stroke-width="10.2711" stroke-linecap="round"/>
<path d="M357.29 411L357.29 1035" stroke="black" stroke-width="10.2711" stroke-linecap="round"/>
<path d="M372.748 411L372.748 1035" stroke="black" stroke-width="10.2711" stroke-linecap="round"/>
<path d="M388.204 411L388.204 1035" stroke="black" stroke-width="10.2711" stroke-linecap="round"/>
<path d="M403.664 411L403.664 1035" stroke="black" stroke-width="10.2711" stroke-linecap="round"/>
<path d="M419.122 411L419.122 1035" stroke="black" stroke-width="10.2711" stroke-linecap="round"/>
<path d="M434.578 411L434.578 1035" stroke="black" stroke-width="10.2711" stroke-linecap="round"/>
<path d="M450.036 411L450.036 1035" stroke="black" stroke-width="10.2711" stroke-linecap="round"/>
<path d="M465.494 411L465.494 1035" stroke="black" stroke-width="10.2711" stroke-linecap="round"/>
<path d="M480.952 411L480.952 1035" stroke="black" stroke-width="10.2711" stroke-linecap="round"/>
<path d="M496.41 411L496.41 1035" stroke="black" stroke-width="10.2711" stroke-linecap="round"/>
<path d="M511.868 411L511.868 1035" stroke="black" stroke-width="10.2711" stroke-linecap="round"/>
<path d="M527.324 411L527.324 1035" stroke="black" stroke-width="10.2711" stroke-linecap="round"/>
<path d="M542.782 411L542.782 1035" stroke="black" stroke-width="10.2711" stroke-linecap="round"/>
<path d="M558.24 411L558.24 1035" stroke="black" stroke-width="10.2711" stroke-linecap="round"/>
<path d="M573.698 411L573.698 1035" stroke="black" stroke-width="10.2711" stroke-linecap="round"/>
<path d="M589.156 411L589.156 1035" stroke="black" stroke-width="10.2711" stroke-linecap="round"/>
<path d="M604.614 411L604.614 1035" stroke="black" stroke-width="10.2711" stroke-linecap="round"/>
<path d="M620.072 411L620.072 1035" stroke="black" stroke-width="10.2711" stroke-linecap="round"/>
<path d="M635.532 411L635.532 1035" stroke="black" stroke-width="10.2711" stroke-linecap="round"/>
<path d="M650.988 411L650.988 1035" stroke="black" stroke-width="10.2711" stroke-linecap="round"/>
<path d="M666.446 411L666.446 1035" stroke="black" stroke-width="10.2711" stroke-linecap="round"/>
<path d="M681.904 411L681.904 1035" stroke="black" stroke-width="10.2711" stroke-linecap="round"/>
<path d="M697.362 411L697.362 1035" stroke="black" stroke-width="10.2711" stroke-linecap="round"/>
<path d="M712.82 411L712.82 1035" stroke="black" stroke-width="10.2711" stroke-linecap="round"/>
<path d="M728.278 411L728.278 1035" stroke="black" stroke-width="10.2711" stroke-linecap="round"/>
<path d="M743.734 411L743.734 1035" stroke="black" stroke-width="10.2711" stroke-linecap="round"/>
<path d="M759.192 411L759.192 1035" stroke="black" stroke-width="10.2711" stroke-linecap="round"/>
<path d="M774.65 411L774.65 1035" stroke="black" stroke-width="10.2711" stroke-linecap="round"/>
<path d="M790.108 411L790.108 1035" stroke="black" stroke-width="10.2711" stroke-linecap="round"/>
<path d="M805.566 411L805.566 1035" stroke="black" stroke-width="10.2711" stroke-linecap="round"/>
<path d="M821.022 411L821.022 1035" stroke="black" stroke-width="10.2711" stroke-linecap="round"/>
<path d="M836.48 411L836.48 1035" stroke="black" stroke-width="10.2711" stroke-linecap="round"/>
<path d="M851.942 411L851.942 1035" stroke="black" stroke-width="10.2711" stroke-linecap="round"/>
<path d="M867.398 411L867.398 1035" stroke="black" stroke-width="10.2711" stroke-linecap="round"/>
<path d="M882.856 411L882.856 1035" stroke="black" stroke-width="10.2711" stroke-linecap="round"/>
<path d="M898.314 411L898.314 1035" stroke="black" stroke-width="10.2711" stroke-linecap="round"/>
<path d="M913.77 411L913.77 1035" stroke="black" stroke-width="10.2711" stroke-linecap="round"/>
<path d="M929.23 411L929.23 1035" stroke="black" stroke-width="10.2711" stroke-linecap="round"/>
<path d="M944.686 411L944.686 1035" stroke="black" stroke-width="10.2711" stroke-linecap="round"/>
<path d="M960.144 411L960.144 1035" stroke="black" stroke-width="10.2711" stroke-linecap="round"/>
<path d="M975.602 411L975.602 1035" stroke="black" stroke-width="10.2711" stroke-linecap="round"/>
<path d="M991.058 411L991.058 1035" stroke="black" stroke-width="10.2711" stroke-linecap="round"/>
<path d="M1006.52 411L1006.52 1035" stroke="black" stroke-width="10.2711" stroke-linecap="round"/>
<path d="M1021.98 411L1021.98 1035" stroke="black" stroke-width="10.2711" stroke-linecap="round"/>
<path d="M1037.43 411L1037.43 1035" stroke="black" stroke-width="10.2711" stroke-linecap="round"/>
<path d="M1052.89 411L1052.89 1035" stroke="black" stroke-width="10.2711" stroke-linecap="round"/>
<path d="M1068.35 411L1068.35 1035" stroke="black" stroke-width="10.2711" stroke-linecap="round"/>
<path d="M1083.81 411L1083.81 1035" stroke="black" stroke-width="10.2711" stroke-linecap="round"/>
<path d="M1099.27 411L1099.27 1035" stroke="black" stroke-width="10.2711" stroke-linecap="round"/>
<path d="M1114.72 411L1114.72 1035" stroke="black" stroke-width="10.2711" stroke-linecap="round"/>
<path d="M1130.18 411L1130.18 1035" stroke="black" stroke-width="10.2711" stroke-linecap="round"/>
<path d="M1145.64 411L1145.64 1035" stroke="black" stroke-width="10.2711" stroke-linecap="round"/>
<path d="M1161.1 411L1161.1 1035" stroke="black" stroke-width="10.2711" stroke-linecap="round"/>
<path d="M1176.55 411L1176.55 1035" stroke="black" stroke-width="10.2711" stroke-linecap="round"/>
<path d="M1192.01 411L1192.01 1035" stroke="black" stroke-width="10.2711" stroke-linecap="round"/>
<path d="M1207.47 411L1207.47 1035" stroke="black" stroke-width="10.2711" stroke-linecap="round"/>
<path d="M1222.93 411L1222.93 1035" stroke="black" stroke-width="10.2711" stroke-linecap="round"/>
<path d="M1238.39 411L1238.39 1035" stroke="black" stroke-width="10.2711" stroke-linecap="round"/>
<path d="M1253.84 411L1253.84 1035" stroke="black" stroke-width="10.2711" stroke-linecap="round"/>
<path d="M1269.3 411L1269.3 1035" stroke="black" stroke-width="10.2711" stroke-linecap="round"/>
<path d="M1284.76 411L1284.76 1035" stroke="black" stroke-width="10.2711" stroke-linecap="round"/>
<path d="M1300.22 411L1300.22 1035" stroke="black" stroke-width="10.2711" stroke-linecap="round"/>
<path d="M1315.68 411L1315.68 1035" stroke="black" stroke-width="10.2711" stroke-linecap="round"/>
<path d="M1331.13 411L1331.13 1035" stroke="black" stroke-width="10.2711" stroke-linecap="round"/>
<path d="M1346.59 411L1346.59 1035" stroke="black" stroke-width="10.2711" stroke-linecap="round"/>
<path d="M1362.05 411L1362.05 1035" stroke="black" stroke-width="10.2711" stroke-linecap="round"/>
<path d="M1377.51 411L1377.51 1035" stroke="black" stroke-width="10.2711" stroke-linecap="round"/>
<path d="M1392.96 411L1392.96 1035" stroke="black" stroke-width="10.2711" stroke-linecap="round"/>
<path d="M1408.42 411L1408.42 1035" stroke="black" stroke-width="10.2711" stroke-linecap="round"/>
<path d="M1423.88 411L1423.88 1035" stroke="black" stroke-width="10.2711" stroke-linecap="round"/>
<path d="M1439.34 411L1439.34 1035" stroke="black" stroke-width="10.2711" stroke-linecap="round"/>
<path d="M1454.8 411L1454.8 1035" stroke="black" stroke-width="10.2711" stroke-linecap="round"/>
<path d="M1470.25 411L1470.25 1035" stroke="black" stroke-width="10.2711" stroke-linecap="round"/>
<path d="M1485.71 411L1485.71 1035" stroke="black" stroke-width="10.2711" stroke-linecap="round"/>
<path d="M1501.17 411L1501.17 1035" stroke="black" stroke-width="10.2711" stroke-linecap="round"/>
<path d="M1516.63 411L1516.63 1035" stroke="black" stroke-width="10.2711" stroke-linecap="round"/>
<path d="M1532.09 411L1532.09 1035" stroke="black" stroke-width="10.2711" stroke-linecap="round"/>
<path d="M1547.54 411L1547.54 1035" stroke="black" stroke-width="10.2711" stroke-linecap="round"/>
<path d="M1563 411L1563 1035" stroke="black" stroke-width="10.2711" stroke-linecap="round"/>
</mask>
<g mask="url(#mask0_2308_27)">
<path fill-rule="evenodd" clip-rule="evenodd" d="M262.609 889.176V268.705C262.609 268.705 834.937 319.379 918.387 300.375V300.277C918.458 300.293 918.529 300.31 918.6 300.326C918.671 300.31 918.742 300.293 918.813 300.277V300.375C1002.26 319.379 1574.59 268.705 1574.59 268.705V889.176H918.813H918.387H262.609Z" fill="url(#paint0_linear_2308_27)"/>
</g>
<path fill-rule="evenodd" clip-rule="evenodd" d="M1815.99 426.02V435.88H1815.85C1844.93 437.7 1853.63 472.48 1828.34 487.74L1619.29 613.93L1590.04 631.59C1590.07 631.94 1590.09 632.29 1590.09 632.65V667.67C1590.09 674.19 1584.8 679.47 1578.29 679.47H1568.38V903.68C1568.38 914.726 1559.42 923.68 1548.38 923.68H1045.52C1049.82 922.563 1053 918.653 1053 914V633C1053 627.477 1048.52 623 1043 623H816C810.477 623 806 627.477 806 633V914C806 918.653 809.178 922.563 813.481 923.68H294.859C283.813 923.68 274.859 914.726 274.859 903.68V679.47H264.949C258.429 679.47 253.149 674.18 253.149 667.67V632.65C253.149 632.29 253.169 631.94 253.199 631.59L223.949 613.93L14.8989 487.74C-10.3811 472.47 -1.68115 437.69 27.3888 435.88V426.02C27.3888 415.53 35.8988 407.02 46.3888 407.02L59.4089 407.58V387.47C59.4089 384.47 61.8388 382.04 64.8388 382.04C67.8388 382.04 70.2687 384.47 70.2687 387.47V408.05L89.5888 408.88V398.33C89.5888 395.33 92.0187 392.9 95.0187 392.9C98.0187 392.9 100.449 395.33 100.449 398.33V409.35L119.769 410.18V400.77C119.769 397.77 122.199 395.34 125.199 395.34C128.199 395.34 130.629 397.77 130.629 400.77V410.65L149.949 411.48V403.21C149.949 400.21 152.379 397.78 155.379 397.78C158.379 397.78 160.809 400.21 160.809 403.21V411.95L180.129 412.78V405.66C180.129 402.66 182.559 400.23 185.559 400.23C188.559 400.23 190.989 402.66 190.989 405.66V413.25L210.309 414.08V408.1C210.309 405.1 212.739 402.67 215.739 402.67C218.739 402.67 221.169 405.1 221.169 408.1V414.55L288.109 417.43C289.399 407.28 298.049 399.43 308.549 399.43C319.649 399.43 328.679 408.21 329.129 419.2L347.329 419.98L314.429 386.34L111.499 178.86C104.099 171.3 109.079 158.54 119.649 157.98L131.629 157.35V147.09C131.629 136.6 140.139 128.09 150.629 128.09L151.169 128.13V113.98C151.169 110.98 153.599 108.55 156.599 108.55C159.599 108.55 162.029 110.98 162.029 113.98V128.99L181.349 130.52V124.83C181.349 121.83 183.779 119.4 186.779 119.4C189.779 119.4 192.209 121.83 192.209 124.83V131.38L211.529 132.91V127.27C211.529 124.27 213.959 121.84 216.959 121.84C219.959 121.84 222.389 124.27 222.389 127.27V133.77L241.709 135.3V129.72C241.709 126.72 244.139 124.29 247.139 124.29C250.139 124.29 252.569 126.72 252.569 129.72V136.16L271.889 137.69V132.16C271.889 129.16 274.319 126.73 277.319 126.73C280.319 126.73 282.749 129.16 282.749 132.16V138.55L302.069 140.08V134.6C302.069 131.6 304.499 129.17 307.499 129.17C310.499 129.17 312.929 131.6 312.929 134.6V140.94L364.989 145.06L391.459 143.67C393.299 134.17 401.649 127 411.689 127C420.969 127 428.809 133.13 431.399 141.56L447.769 140.7L498.519 49.93V20.62C498.519 9.23 507.749 0 519.139 0C530.529 0 539.759 9.23 539.759 20.62V39.07L921.689 56.43L1303.62 39.07V20.62C1303.62 9.23 1312.85 0 1324.24 0C1335.63 0 1344.86 9.23 1344.86 20.62V49.93L1395.61 140.7L1411.98 141.56C1414.56 133.13 1422.41 127 1431.69 127C1441.72 127 1450.07 134.17 1451.92 143.67L1478.39 145.06L1530.45 140.94V134.6C1530.45 131.6 1532.88 129.17 1535.88 129.17C1538.88 129.17 1541.31 131.6 1541.31 134.6V140.08L1560.63 138.55V132.16C1560.63 129.16 1563.06 126.73 1566.06 126.73C1569.06 126.73 1571.49 129.16 1571.49 132.16V137.69L1590.81 136.16V129.72C1590.81 126.72 1593.24 124.29 1596.24 124.29C1599.24 124.29 1601.67 126.72 1601.67 129.72V135.3L1620.99 133.77V127.27C1620.99 124.27 1623.42 121.84 1626.42 121.84C1629.42 121.84 1631.85 124.27 1631.85 127.27V132.91L1651.17 131.38V124.83C1651.17 121.83 1653.6 119.4 1656.6 119.4C1659.6 119.4 1662.03 121.83 1662.03 124.83V130.52L1681.35 128.99V113.98C1681.35 110.98 1683.78 108.55 1686.78 108.55C1689.78 108.55 1692.21 110.98 1692.21 113.98V128.13L1692.75 128.09C1703.24 128.09 1711.75 136.6 1711.75 147.09V157.35L1723.73 157.98C1734.3 158.53 1739.28 171.29 1731.88 178.86L1528.95 386.34L1496.05 419.98L1514.25 419.2C1514.7 408.21 1523.73 399.43 1534.83 399.43C1545.33 399.43 1553.98 407.28 1555.27 417.43L1622.21 414.55V408.1C1622.21 405.1 1624.64 402.67 1627.64 402.67C1630.64 402.67 1633.07 405.1 1633.07 408.1V414.08L1652.39 413.25V405.66C1652.39 402.66 1654.82 400.23 1657.82 400.23C1660.82 400.23 1663.25 402.66 1663.25 405.66V412.78L1682.57 411.95V403.21C1682.57 400.21 1685 397.78 1688 397.78C1691 397.78 1693.43 400.21 1693.43 403.21V411.48L1712.75 410.65V400.77C1712.75 397.77 1715.18 395.34 1718.18 395.34C1721.18 395.34 1723.61 397.77 1723.61 400.77V410.18L1742.93 409.35V398.33C1742.93 395.33 1745.36 392.9 1748.36 392.9C1751.36 392.9 1753.79 395.33 1753.79 398.33V408.88L1773.11 408.05V387.47C1773.11 384.47 1775.54 382.04 1778.54 382.04C1781.54 382.04 1783.97 384.47 1783.97 387.47V407.58L1796.99 407.02C1807.48 407.02 1815.99 415.53 1815.99 426.02ZM813.481 923.68C814.286 923.889 815.13 924 816 924H1043C1043.87 924 1044.71 923.889 1045.52 923.68H813.481ZM326.916 662.001L360.102 662L376.694 698.901L376.674 698.946V817.037L376.702 817.099L360.109 854L326.923 853.999L310.331 817.103H310.297V698.885H310.33L326.916 662.001ZM426.805 662L393.619 662.001L377.033 698.885H377V817.103H377.035L393.626 853.999L426.812 854L443.219 817.513L459.626 853.999L492.812 854L509.405 817.099L509.377 817.037V698.946L509.397 698.901L492.805 662L459.619 662.001L443.212 698.489L426.805 662ZM443.212 698.489L443.033 698.885H443V817.103H443.035L443.219 817.513L443.405 817.099L443.377 817.037V698.946L443.397 698.901L443.212 698.489ZM607.805 662L574.619 662.001L558.033 698.885H558V817.103H558.034L574.626 853.999L607.812 854L624.405 817.099L624.377 817.037V698.946L624.397 698.901L607.805 662ZM641.322 662.001L674.508 662L690.915 698.489L690.737 698.885H690.703V817.103H690.738L690.922 817.513L674.516 854L641.329 853.999L624.738 817.103H624.703V698.885H624.737L641.322 662.001ZM690.922 817.513L707.329 853.999L740.516 854L757.108 817.099L757.08 817.037V698.946L757.1 698.901L740.508 662L707.322 662.001L690.915 698.489L691.1 698.901L691.08 698.946V817.037L691.108 817.099L690.922 817.513ZM1118.62 662.001L1151.8 662L1168.4 698.901L1168.38 698.946V817.037L1168.41 817.099L1151.81 854L1118.63 853.999L1102.03 817.103H1102V698.885H1102.03L1118.62 662.001ZM1218.51 662L1185.32 662.001L1168.74 698.885H1168.7V817.103H1168.74L1185.33 853.999L1218.52 854L1234.92 817.513L1251.33 853.999L1284.52 854L1301.11 817.099L1301.08 817.037V698.946L1301.1 698.901L1284.51 662L1251.32 662.001L1234.91 698.489L1218.51 662ZM1234.91 698.489L1234.74 698.885H1234.7V817.103H1234.74L1234.92 817.513L1235.11 817.099L1235.08 817.037V698.946L1235.1 698.901L1234.91 698.489ZM1399.51 662L1366.32 662.001L1349.74 698.885H1349.7V817.103H1349.74L1366.33 853.999L1399.52 854L1416.11 817.099L1416.08 817.037V698.946L1416.1 698.901L1399.51 662ZM1433.03 662.001L1466.21 662L1482.62 698.489L1482.44 698.885H1482.41V817.103H1482.44L1482.63 817.513L1466.22 854L1433.03 853.999L1416.44 817.103H1416.41V698.885H1416.44L1433.03 662.001ZM1482.63 817.513L1499.03 853.999L1532.22 854L1548.81 817.099L1548.78 817.037V698.946L1548.8 698.901L1532.21 662L1499.03 662.001L1482.62 698.489L1482.8 698.901L1482.78 698.946V817.037L1482.81 817.099L1482.63 817.513ZM310 622C310 616.477 314.477 612 320 612H499C504.523 612 509 616.477 509 622V633C509 638.523 504.523 643 499 643H320C314.477 643 310 638.523 310 633V622ZM320 873C314.477 873 310 877.477 310 883V894C310 899.523 314.477 904 320 904H499C504.523 904 509 899.523 509 894V883C509 877.477 504.523 873 499 873H320ZM558 622C558 616.477 562.477 612 568 612H747C752.523 612 757 616.477 757 622V633C757 638.523 752.523 643 747 643H568C562.477 643 558 638.523 558 633V622ZM568 873C562.477 873 558 877.477 558 883V894C558 899.523 562.477 904 568 904H747C752.523 904 757 899.523 757 894V883C757 877.477 752.523 873 747 873H568ZM1100 622C1100 616.477 1104.48 612 1110 612H1289C1294.52 612 1299 616.477 1299 622V633C1299 638.523 1294.52 643 1289 643H1110C1104.48 643 1100 638.523 1100 633V622ZM1110 873C1104.48 873 1100 877.477 1100 883V894C1100 899.523 1104.48 904 1110 904H1289C1294.52 904 1299 899.523 1299 894V883C1299 877.477 1294.52 873 1289 873H1110ZM1348 622C1348 616.477 1352.48 612 1358 612H1537C1542.52 612 1547 616.477 1547 622V633C1547 638.523 1542.52 643 1537 643H1358C1352.48 643 1348 638.523 1348 633V622ZM1358 873C1352.48 873 1348 877.477 1348 883V894C1348 899.523 1352.48 904 1358 904H1537C1542.52 904 1547 899.523 1547 894V883C1547 877.477 1542.52 873 1537 873H1358Z" fill="url(#paint1_linear_2308_27)"/>
<defs>
<linearGradient id="paint0_linear_2308_27" x1="975.601" y1="197.428" x2="1000.56" y2="889.486" gradientUnits="userSpaceOnUse">
<stop stop-color="#5DCBC1"/>
<stop offset="1" stop-color="#00A695" stop-opacity="0"/>
</linearGradient>
<linearGradient id="paint1_linear_2308_27" x1="921.622" y1="0" x2="921.622" y2="924" gradientUnits="userSpaceOnUse">
<stop stop-color="#00A695"/>
<stop offset="1" stop-color="#ACDFDB"/>
</linearGradient>
</defs>
</svg>
