<svg width="1995" height="1035" viewBox="0 0 1995 1035" fill="none" xmlns="http://www.w3.org/2000/svg">
<mask id="mask0_2308_858" style="mask-type:alpha" maskUnits="userSpaceOnUse" x="316" y="403" width="1362" height="638">
<path d="M322 408.342L322 1035" stroke="black" stroke-width="10.2711" stroke-linecap="round"/>
<path d="M338.266 408.342L338.266 1035" stroke="black" stroke-width="10.2711" stroke-linecap="round"/>
<path d="M354.529 408.342L354.529 1035" stroke="black" stroke-width="10.2711" stroke-linecap="round"/>
<path d="M370.795 408.342L370.795 1035" stroke="black" stroke-width="10.2711" stroke-linecap="round"/>
<path d="M387.061 408.342L387.061 1035" stroke="black" stroke-width="10.2711" stroke-linecap="round"/>
<path d="M403.326 408.342L403.326 1035" stroke="black" stroke-width="10.2711" stroke-linecap="round"/>
<path d="M419.592 408.342L419.592 1035" stroke="black" stroke-width="10.2711" stroke-linecap="round"/>
<path d="M435.855 408.342L435.855 1035" stroke="black" stroke-width="10.2711" stroke-linecap="round"/>
<path d="M452.121 408.342L452.121 1035" stroke="black" stroke-width="10.2711" stroke-linecap="round"/>
<path d="M468.387 408.342L468.387 1035" stroke="black" stroke-width="10.2711" stroke-linecap="round"/>
<path d="M484.65 408.342L484.65 1035" stroke="black" stroke-width="10.2711" stroke-linecap="round"/>
<path d="M500.916 408.342L500.916 1035" stroke="black" stroke-width="10.2711" stroke-linecap="round"/>
<path d="M517.182 408.342L517.182 1035" stroke="black" stroke-width="10.2711" stroke-linecap="round"/>
<path d="M533.445 408.342L533.445 1035" stroke="black" stroke-width="10.2711" stroke-linecap="round"/>
<path d="M549.711 408.342L549.711 1035" stroke="black" stroke-width="10.2711" stroke-linecap="round"/>
<path d="M565.977 408.342L565.977 1035" stroke="black" stroke-width="10.2711" stroke-linecap="round"/>
<path d="M582.24 408.342L582.24 1035" stroke="black" stroke-width="10.2711" stroke-linecap="round"/>
<path d="M598.506 408.342L598.506 1035" stroke="black" stroke-width="10.2711" stroke-linecap="round"/>
<path d="M614.77 408.342L614.77 1035" stroke="black" stroke-width="10.2711" stroke-linecap="round"/>
<path d="M631.035 408.342L631.035 1035" stroke="black" stroke-width="10.2711" stroke-linecap="round"/>
<path d="M647.301 408.342L647.301 1035" stroke="black" stroke-width="10.2711" stroke-linecap="round"/>
<path d="M663.566 408.342L663.566 1035" stroke="black" stroke-width="10.2711" stroke-linecap="round"/>
<path d="M679.832 408.342L679.832 1035" stroke="black" stroke-width="10.2711" stroke-linecap="round"/>
<path d="M696.098 408.342L696.098 1035" stroke="black" stroke-width="10.2711" stroke-linecap="round"/>
<path d="M712.361 408.342L712.361 1035" stroke="black" stroke-width="10.2711" stroke-linecap="round"/>
<path d="M728.627 408.342L728.627 1035" stroke="black" stroke-width="10.2711" stroke-linecap="round"/>
<path d="M744.893 408.342L744.893 1035" stroke="black" stroke-width="10.2711" stroke-linecap="round"/>
<path d="M761.156 408.342L761.156 1035" stroke="black" stroke-width="10.2711" stroke-linecap="round"/>
<path d="M777.422 408.342L777.422 1035" stroke="black" stroke-width="10.2711" stroke-linecap="round"/>
<path d="M793.688 408.342L793.687 1035" stroke="black" stroke-width="10.2711" stroke-linecap="round"/>
<path d="M809.951 408.342L809.951 1035" stroke="black" stroke-width="10.2711" stroke-linecap="round"/>
<path d="M826.217 408.342L826.217 1035" stroke="black" stroke-width="10.2711" stroke-linecap="round"/>
<path d="M842.48 408.342L842.48 1035" stroke="black" stroke-width="10.2711" stroke-linecap="round"/>
<path d="M858.746 408.342L858.746 1035" stroke="black" stroke-width="10.2711" stroke-linecap="round"/>
<path d="M875.012 408.342L875.012 1035" stroke="black" stroke-width="10.2711" stroke-linecap="round"/>
<path d="M891.275 408.342L891.275 1035" stroke="black" stroke-width="10.2711" stroke-linecap="round"/>
<path d="M907.541 408.342L907.541 1035" stroke="black" stroke-width="10.2711" stroke-linecap="round"/>
<path d="M923.809 408.342L923.809 1035" stroke="black" stroke-width="10.2711" stroke-linecap="round"/>
<path d="M940.072 408.342L940.072 1035" stroke="black" stroke-width="10.2711" stroke-linecap="round"/>
<path d="M956.338 408.342L956.338 1035" stroke="black" stroke-width="10.2711" stroke-linecap="round"/>
<path d="M972.604 408.342L972.603 1035" stroke="black" stroke-width="10.2711" stroke-linecap="round"/>
<path d="M988.867 408.342L988.867 1035" stroke="black" stroke-width="10.2711" stroke-linecap="round"/>
<path d="M1005.13 408.342L1005.13 1035" stroke="black" stroke-width="10.2711" stroke-linecap="round"/>
<path d="M1021.4 408.342L1021.4 1035" stroke="black" stroke-width="10.2711" stroke-linecap="round"/>
<path d="M1037.66 408.342L1037.66 1035" stroke="black" stroke-width="10.2711" stroke-linecap="round"/>
<path d="M1053.93 408.342L1053.93 1035" stroke="black" stroke-width="10.2711" stroke-linecap="round"/>
<path d="M1070.19 408.342L1070.19 1035" stroke="black" stroke-width="10.2711" stroke-linecap="round"/>
<path d="M1086.46 408.342L1086.46 1035" stroke="black" stroke-width="10.2711" stroke-linecap="round"/>
<path d="M1102.72 408.342L1102.72 1035" stroke="black" stroke-width="10.2711" stroke-linecap="round"/>
<path d="M1118.99 408.342L1118.99 1035" stroke="black" stroke-width="10.2711" stroke-linecap="round"/>
<path d="M1135.25 408.342L1135.25 1035" stroke="black" stroke-width="10.2711" stroke-linecap="round"/>
<path d="M1151.52 408.342L1151.52 1035" stroke="black" stroke-width="10.2711" stroke-linecap="round"/>
<path d="M1167.78 408.342L1167.78 1035" stroke="black" stroke-width="10.2711" stroke-linecap="round"/>
<path d="M1184.05 408.342L1184.05 1035" stroke="black" stroke-width="10.2711" stroke-linecap="round"/>
<path d="M1200.31 408.342L1200.31 1035" stroke="black" stroke-width="10.2711" stroke-linecap="round"/>
<path d="M1216.58 408.342L1216.58 1035" stroke="black" stroke-width="10.2711" stroke-linecap="round"/>
<path d="M1232.84 408.342L1232.84 1035" stroke="black" stroke-width="10.2711" stroke-linecap="round"/>
<path d="M1249.11 408.342L1249.11 1035" stroke="black" stroke-width="10.2711" stroke-linecap="round"/>
<path d="M1265.37 408.342L1265.37 1035" stroke="black" stroke-width="10.2711" stroke-linecap="round"/>
<path d="M1281.64 408.342L1281.64 1035" stroke="black" stroke-width="10.2711" stroke-linecap="round"/>
<path d="M1297.9 408.342L1297.9 1035" stroke="black" stroke-width="10.2711" stroke-linecap="round"/>
<path d="M1314.17 408.342L1314.17 1035" stroke="black" stroke-width="10.2711" stroke-linecap="round"/>
<path d="M1330.44 408.342L1330.44 1035" stroke="black" stroke-width="10.2711" stroke-linecap="round"/>
<path d="M1346.7 408.342L1346.7 1035" stroke="black" stroke-width="10.2711" stroke-linecap="round"/>
<path d="M1362.96 408.342L1362.96 1035" stroke="black" stroke-width="10.2711" stroke-linecap="round"/>
<path d="M1379.23 408.342L1379.23 1035" stroke="black" stroke-width="10.2711" stroke-linecap="round"/>
<path d="M1395.49 408.342L1395.49 1035" stroke="black" stroke-width="10.2711" stroke-linecap="round"/>
<path d="M1411.76 408.342L1411.76 1035" stroke="black" stroke-width="10.2711" stroke-linecap="round"/>
<path d="M1428.02 408.342L1428.02 1035" stroke="black" stroke-width="10.2711" stroke-linecap="round"/>
<path d="M1444.29 408.342L1444.29 1035" stroke="black" stroke-width="10.2711" stroke-linecap="round"/>
<path d="M1460.55 408.342L1460.55 1035" stroke="black" stroke-width="10.2711" stroke-linecap="round"/>
<path d="M1476.82 408.342L1476.82 1035" stroke="black" stroke-width="10.2711" stroke-linecap="round"/>
<path d="M1493.08 408.342L1493.08 1035" stroke="black" stroke-width="10.2711" stroke-linecap="round"/>
<path d="M1509.35 408.342L1509.35 1035" stroke="black" stroke-width="10.2711" stroke-linecap="round"/>
<path d="M1525.61 408.342L1525.61 1035" stroke="black" stroke-width="10.2711" stroke-linecap="round"/>
<path d="M1541.88 408.342L1541.88 1035" stroke="black" stroke-width="10.2711" stroke-linecap="round"/>
<path d="M1558.14 408.342L1558.14 1035" stroke="black" stroke-width="10.2711" stroke-linecap="round"/>
<path d="M1574.41 408.342L1574.41 1035" stroke="black" stroke-width="10.2711" stroke-linecap="round"/>
<path d="M1590.68 408.342L1590.68 1035" stroke="black" stroke-width="10.2711" stroke-linecap="round"/>
<path d="M1606.94 408.342L1606.94 1035" stroke="black" stroke-width="10.2711" stroke-linecap="round"/>
<path d="M1623.21 408.342L1623.21 1035" stroke="black" stroke-width="10.2711" stroke-linecap="round"/>
<path d="M1639.47 408.342L1639.47 1035" stroke="black" stroke-width="10.2711" stroke-linecap="round"/>
<path d="M1655.73 408.342L1655.73 1035" stroke="black" stroke-width="10.2711" stroke-linecap="round"/>
<path d="M1672 408.342L1672 1035" stroke="black" stroke-width="10.2711" stroke-linecap="round"/>
</mask>
<g mask="url(#mask0_2308_858)">
<path fill-rule="evenodd" clip-rule="evenodd" d="M303.701 888.555V265.44C303.701 265.44 905.917 316.331 993.725 297.245V297.146C993.799 297.163 993.874 297.18 993.949 297.196C994.024 297.18 994.099 297.163 994.173 297.146V297.245C1081.98 316.331 1684.2 265.44 1684.2 265.44V888.555H994.173H993.725H303.701Z" fill="url(#paint0_linear_2308_858)"/>
</g>
<path fill-rule="evenodd" clip-rule="evenodd" d="M1977.31 267.591C1994.67 270.561 1999.99 292.591 1986.53 303.261H1986.48L1988.33 305.641C1998.54 318.721 1994.5 337.851 1979.88 345.701L1744.95 471.861L1744.63 471.371L1727.36 483.371L1715.02 491.941V525.901C1715.02 537.561 1705.57 547.011 1693.91 547.011H1677.02V890.201C1677.02 907.221 1663.22 921.011 1646.21 921.011H347.85C330.83 921.011 317.04 907.211 317.04 890.201V547.011H300.15C288.49 547.011 279.04 537.561 279.04 525.901V491.941L266.7 483.371L249.43 471.371L249.11 471.861L14.1799 345.701C-0.440066 337.851 -4.48007 318.731 5.72993 305.641L7.57993 303.261C-5.88007 292.591 -0.560068 270.561 16.7999 267.591L24.0299 266.351V251.131C24.0299 243.061 30.5699 236.511 38.6499 236.511H75.0299V218.651C75.0299 213.691 79.2199 209.701 84.2499 210.031C88.8499 210.331 92.3199 214.351 92.3199 218.951V236.511H111.58V218.651C111.58 213.691 115.77 209.701 120.8 210.031C125.4 210.331 128.87 214.351 128.87 218.951V236.511H148.13V218.651C148.13 213.691 152.32 209.701 157.35 210.031C161.95 210.331 165.42 214.351 165.42 218.951V236.511H184.68V218.651C184.68 213.691 188.87 209.701 193.9 210.031C198.5 210.331 201.97 214.351 201.97 218.951V235.871L221.23 232.571V208.651C221.23 203.691 225.42 199.701 230.45 200.031C235.05 200.331 238.52 204.351 238.52 208.951V229.611L257.78 226.311V198.651C257.78 193.691 261.97 189.701 267 190.031C271.6 190.331 275.07 194.351 275.07 198.951V223.351L312.06 217.011L347.8 108.891C349.75 102.981 355.27 99.0014 361.48 99.0014H362.07V45.4814C362.07 35.3114 371.92 28.0514 381.63 31.0614L386.07 32.4814V18.0014C386.07 7.84143 394.49 -0.348569 404.73 0.0114306C414.48 0.361431 422.07 8.67143 422.07 18.4314V43.9814L559.26 87.7914L811.07 99.0114H1183.04L1434.85 87.7914L1572.04 43.9814V18.0014C1572.04 7.84143 1580.46 -0.348569 1590.7 0.0114306C1600.45 0.361431 1608.04 8.67143 1608.04 18.4314V32.4814L1612.48 31.0614C1622.19 28.0514 1632.04 35.3114 1632.04 45.4814V99.0014H1632.63C1638.85 99.0014 1644.36 102.991 1646.31 108.891L1682.05 217.011L1719.04 223.351V198.651C1719.04 193.691 1723.23 189.701 1728.26 190.031C1732.86 190.331 1736.33 194.351 1736.33 198.951V226.311L1755.59 229.611V208.651C1755.59 203.691 1759.78 199.701 1764.81 200.031C1769.41 200.331 1772.88 204.351 1772.88 208.951V232.571L1792.14 235.871V218.651C1792.14 213.691 1796.33 209.701 1801.36 210.031C1805.96 210.331 1809.43 214.351 1809.43 218.951V236.511H1828.69V218.651C1828.69 213.691 1832.88 209.701 1837.91 210.031C1842.51 210.331 1845.98 214.351 1845.98 218.951V236.511H1865.24V218.651C1865.24 213.691 1869.43 209.701 1874.46 210.031C1879.06 210.331 1882.53 214.351 1882.53 218.951V236.511H1901.79V218.651C1901.79 213.691 1905.98 209.701 1911.01 210.031C1915.61 210.331 1919.08 214.351 1919.08 218.951V236.511H1955.46C1963.53 236.511 1970.08 243.051 1970.08 251.131V266.351L1977.31 267.591ZM862.531 510.084C857.008 510.084 852.531 514.561 852.531 520.084V888.342C852.531 893.865 857.008 898.342 862.531 898.342H1130.18C1135.7 898.342 1140.18 893.865 1140.18 888.342V520.084C1140.18 514.561 1135.7 510.084 1130.18 510.084H862.531ZM644.858 520.084C644.858 514.561 649.336 510.084 654.858 510.084H823.183C828.706 510.084 833.183 514.561 833.183 520.084V888.342C833.183 893.865 828.706 898.342 823.183 898.342H654.858C649.336 898.342 644.858 893.865 644.858 888.342V520.084ZM1169.53 510.084C1164 510.084 1159.53 514.561 1159.53 520.084V888.342C1159.53 893.865 1164 898.342 1169.53 898.342H1339.14C1344.66 898.342 1349.14 893.865 1349.14 888.342V520.084C1349.14 514.561 1344.66 510.084 1339.14 510.084H1169.53ZM1368.49 567.81C1368.49 562.287 1372.97 557.81 1378.49 557.81H1464.26C1469.78 557.81 1474.26 562.287 1474.26 567.81V841.906C1474.26 847.428 1469.78 851.906 1464.26 851.906H1378.49C1372.97 851.906 1368.49 847.428 1368.49 841.906V567.81ZM1503.61 557.81C1498.09 557.81 1493.61 562.287 1493.61 567.81V841.906C1493.61 847.428 1498.09 851.906 1503.61 851.906H1589.38C1594.9 851.906 1599.38 847.428 1599.38 841.906V567.81C1599.38 562.287 1594.9 557.81 1589.38 557.81H1503.61ZM394.619 567.81C394.619 562.287 399.096 557.81 404.619 557.81H490.39C495.913 557.81 500.39 562.287 500.39 567.81V841.906C500.39 847.428 495.913 851.906 490.39 851.906H404.619C399.096 851.906 394.619 847.428 394.619 841.906V567.81ZM529.739 557.81C524.216 557.81 519.739 562.287 519.739 567.81V841.906C519.739 847.428 524.216 851.906 529.739 851.906H615.51C621.033 851.906 625.51 847.428 625.51 841.906V567.81C625.51 562.287 621.033 557.81 615.51 557.81H529.739ZM394.619 520.084C394.619 514.561 399.096 510.084 404.619 510.084H615.51C621.033 510.084 625.51 514.561 625.51 520.084V529.752C625.51 535.274 621.033 539.752 615.51 539.752H404.619C399.096 539.752 394.619 535.274 394.619 529.752V520.084ZM404.619 868.674C399.096 868.674 394.619 873.151 394.619 878.674V888.342C394.619 893.865 399.096 898.342 404.619 898.342H615.51C621.033 898.342 625.51 893.865 625.51 888.342V878.674C625.51 873.151 621.033 868.674 615.51 868.674H404.619ZM1368.49 520.084C1368.49 514.561 1372.97 510.084 1378.49 510.084H1589.38C1594.9 510.084 1599.38 514.561 1599.38 520.084V529.752C1599.38 535.274 1594.9 539.752 1589.38 539.752H1378.49C1372.97 539.752 1368.49 535.274 1368.49 529.752V520.084ZM1378.49 868.674C1372.97 868.674 1368.49 873.151 1368.49 878.674V888.342C1368.49 893.865 1372.97 898.342 1378.49 898.342H1589.38C1594.9 898.342 1599.38 893.865 1599.38 888.342V878.674C1599.38 873.151 1594.9 868.674 1589.38 868.674H1378.49Z" fill="url(#paint1_linear_2308_858)"/>
<defs>
<linearGradient id="paint0_linear_2308_858" x1="1053.93" y1="193.86" x2="1077.85" y2="888.946" gradientUnits="userSpaceOnUse">
<stop stop-color="#5DCBC1"/>
<stop offset="1" stop-color="#00A695" stop-opacity="0"/>
</linearGradient>
<linearGradient id="paint1_linear_2308_858" x1="997.055" y1="0" x2="997.055" y2="928.341" gradientUnits="userSpaceOnUse">
<stop stop-color="#00A695"/>
<stop offset="1" stop-color="#ACDFDB"/>
</linearGradient>
</defs>
</svg>
