<svg width="175" height="102" viewBox="0 0 175 102" fill="none" xmlns="http://www.w3.org/2000/svg">
<path d="M27.1745 9.74827L16.3369 39.8248L60.7459 49.0745L77.3097 20.5196L100.442 7.74733L126.145 5.92969L151.622 22.9687" stroke="url(#paint0_linear_2836_775)" stroke-width="3" stroke-linejoin="round"/>
<path d="M27.4326 15.6585C30.8951 15.6585 33.702 12.823 33.702 9.32533C33.702 5.82763 30.8951 2.99219 27.4326 2.99219C23.97 2.99219 21.1631 5.82763 21.1631 9.32533C21.1631 12.823 23.97 15.6585 27.4326 15.6585Z" fill="url(#paint1_linear_2836_775)"/>
<path d="M16.1943 45.553C19.6568 45.553 22.4638 42.7176 22.4638 39.2199C22.4638 35.7222 19.6568 32.8867 16.1943 32.8867C12.7317 32.8867 9.9248 35.7222 9.9248 39.2199C9.9248 42.7176 12.7317 45.553 16.1943 45.553Z" fill="url(#paint2_linear_2836_775)"/>
<path d="M61.3876 55.096C64.8502 55.096 67.6571 52.2605 67.6571 48.7628C67.6571 45.2651 64.8502 42.4297 61.3876 42.4297C57.9251 42.4297 55.1182 45.2651 55.1182 48.7628C55.1182 52.2605 57.9251 55.096 61.3876 55.096Z" fill="url(#paint3_linear_2836_775)"/>
<path d="M77.3359 26.635C80.7984 26.635 83.6054 23.7996 83.6054 20.3019C83.6054 16.8042 80.7984 13.9688 77.3359 13.9688C73.8733 13.9688 71.0664 16.8042 71.0664 20.3019C71.0664 23.7996 73.8733 26.635 77.3359 26.635Z" fill="url(#paint4_linear_2836_775)"/>
<path d="M100.629 14.5491C104.091 14.5491 106.898 11.7137 106.898 8.21596C106.898 4.71826 104.091 1.88281 100.629 1.88281C97.1663 1.88281 94.3594 4.71826 94.3594 8.21596C94.3594 11.7137 97.1663 14.5491 100.629 14.5491Z" fill="url(#paint5_linear_2836_775)"/>
<path d="M126.315 12.6663C129.778 12.6663 132.585 9.83085 132.585 6.33315C132.585 2.83545 129.778 0 126.315 0C122.853 0 120.046 2.83545 120.046 6.33315C120.046 9.83085 122.853 12.6663 126.315 12.6663Z" fill="url(#paint6_linear_2836_775)"/>
<path d="M151.855 29.9788C155.318 29.9788 158.125 27.1433 158.125 23.6456C158.125 20.1479 155.318 17.3125 151.855 17.3125C148.393 17.3125 145.586 20.1479 145.586 23.6456C145.586 27.1433 148.393 29.9788 151.855 29.9788Z" fill="url(#paint7_linear_2836_775)"/>
<path d="M61.1703 38.2383C60.85 38.2383 60.5382 38.3412 60.2809 38.5319L53.3414 43.6725L31.7187 41.7309C31.0869 41.6742 30.4881 42.0227 30.2252 42.6002C29.9623 43.1776 30.0928 43.8581 30.5505 44.2974L40.4123 53.7612C40.6905 54.0282 41.0612 54.1773 41.4469 54.1773H136.612C137.056 54.1773 137.477 53.9804 137.761 53.6398L145.65 44.1761C146.036 43.7128 146.106 43.0628 145.827 42.5282C145.548 41.9934 144.975 41.6788 144.374 41.7305L121.762 43.6744L114.821 38.5319C114.563 38.3412 114.251 38.2383 113.931 38.2383L61.1703 38.2383Z" fill="url(#paint8_linear_2836_775)" stroke="url(#paint9_linear_2836_775)" stroke-width="3" stroke-linejoin="round"/>
<path d="M60.5576 33.0703V37.3389" stroke="#DEFFFA" stroke-width="3" stroke-linecap="round" stroke-linejoin="round"/>
<path d="M113.948 33.0703V37.3389" stroke="#DEFFFA" stroke-width="3" stroke-linecap="round" stroke-linejoin="round"/>
<path d="M132.669 82.0703H42.9268V100.002H132.669V82.0703Z" fill="url(#paint10_linear_2836_775)"/>
<path d="M126.751 66.13H50.8154V54.1758H126.751V66.13Z" fill="url(#paint11_linear_2836_775)" stroke="#00A695" stroke-width="3"/>
<path d="M47.3636 66.6273H24.6816L39.9673 83.0645H138.584L149.433 66.6273H130.202L116.888 63.1406H60.1838L47.3636 66.6273Z" fill="url(#paint12_linear_2836_775)" stroke="url(#paint13_linear_2836_775)" stroke-width="3" stroke-linejoin="round"/>
<path d="M57.7188 100.001V98.9348C57.7188 95.1214 60.8094 92.0312 64.6219 92.0312C68.4345 92.0312 71.5252 95.1214 71.5252 98.9348V100.001" stroke="#019E94" stroke-width="1.5" stroke-linejoin="round"/>
<path d="M106.041 100.001V98.9348C106.041 95.1214 109.132 92.0312 112.945 92.0312C116.757 92.0312 119.847 95.1214 119.847 98.9348V100.001" stroke="#019E94" stroke-width="1.5" stroke-linejoin="round"/>
<path d="M81.3867 100.001V96.4397C81.3867 92.3543 84.6981 89.043 88.783 89.043C92.8679 89.043 96.1793 92.3543 96.1793 96.4397V100.001" stroke="#019E94" stroke-width="1.5" stroke-linejoin="round"/>
<path d="M42.9268 83.0664V100.002H133.655V83.0664" stroke="#00A695" stroke-width="3" stroke-linejoin="round"/>
<path d="M2 100H172.608" stroke="url(#paint14_linear_2836_775)" stroke-width="3" stroke-linecap="round"/>
<defs>
<linearGradient id="paint0_linear_2836_775" x1="75.8002" y1="-1.8988" x2="86.5302" y2="42.8986" gradientUnits="userSpaceOnUse">
<stop stop-color="#DEFFFA"/>
<stop offset="1" stop-color="#00A695"/>
</linearGradient>
<linearGradient id="paint1_linear_2836_775" x1="25.8992" y1="3.18387" x2="28.848" y2="15.495" gradientUnits="userSpaceOnUse">
<stop stop-color="#ACDFDB" stop-opacity="0.64"/>
<stop offset="1" stop-color="#00A695"/>
</linearGradient>
<linearGradient id="paint2_linear_2836_775" x1="19.2484" y1="52.231" x2="19.2484" y2="52.231" gradientUnits="userSpaceOnUse">
<stop stop-color="#ACDFDB" stop-opacity="0.64"/>
<stop offset="1" stop-color="#00A695"/>
</linearGradient>
<linearGradient id="paint3_linear_2836_775" x1="59.8543" y1="42.6214" x2="62.8031" y2="54.9325" gradientUnits="userSpaceOnUse">
<stop stop-color="#ACDFDB" stop-opacity="0.64"/>
<stop offset="1" stop-color="#00A695"/>
</linearGradient>
<linearGradient id="paint4_linear_2836_775" x1="80.39" y1="33.313" x2="80.39" y2="33.313" gradientUnits="userSpaceOnUse">
<stop stop-color="#ACDFDB" stop-opacity="0.64"/>
<stop offset="1" stop-color="#00A695"/>
</linearGradient>
<linearGradient id="paint5_linear_2836_775" x1="103.683" y1="21.2271" x2="103.683" y2="21.2271" gradientUnits="userSpaceOnUse">
<stop stop-color="#ACDFDB" stop-opacity="0.64"/>
<stop offset="1" stop-color="#00A695"/>
</linearGradient>
<linearGradient id="paint6_linear_2836_775" x1="129.37" y1="19.3443" x2="127.731" y2="12.5029" gradientUnits="userSpaceOnUse">
<stop stop-color="#ACDFDB" stop-opacity="0.64"/>
<stop offset="1" stop-color="#00A695"/>
</linearGradient>
<linearGradient id="paint7_linear_2836_775" x1="150.322" y1="17.5042" x2="153.271" y2="29.8154" gradientUnits="userSpaceOnUse">
<stop stop-color="#ACDFDB" stop-opacity="0.64"/>
<stop offset="1" stop-color="#00A695"/>
</linearGradient>
<linearGradient id="paint8_linear_2836_775" x1="88.0436" y1="39.7326" x2="88.0436" y2="52.683" gradientUnits="userSpaceOnUse">
<stop stop-color="#ACDFDB" stop-opacity="0.64"/>
<stop offset="1" stop-color="#00A695"/>
</linearGradient>
<linearGradient id="paint9_linear_2836_775" x1="88.0436" y1="39.7326" x2="88.0436" y2="52.683" gradientUnits="userSpaceOnUse">
<stop stop-color="#DEFFFA"/>
<stop offset="1" stop-color="#00A695"/>
</linearGradient>
<linearGradient id="paint10_linear_2836_775" x1="87.7976" y1="82.0703" x2="87.7976" y2="100.002" gradientUnits="userSpaceOnUse">
<stop stop-color="#00708D"/>
<stop offset="1" stop-color="#00A695"/>
</linearGradient>
<linearGradient id="paint11_linear_2836_775" x1="88.7832" y1="54.1758" x2="88.7832" y2="66.13" gradientUnits="userSpaceOnUse">
<stop stop-color="#006C8D"/>
<stop offset="0.524" stop-color="#009C94"/>
<stop offset="1" stop-color="#00A695"/>
</linearGradient>
<linearGradient id="paint12_linear_2836_775" x1="87.0572" y1="63.1406" x2="87.0572" y2="83.0644" gradientUnits="userSpaceOnUse">
<stop stop-color="#BFD2AA"/>
<stop offset="1" stop-color="#01A695"/>
</linearGradient>
<linearGradient id="paint13_linear_2836_775" x1="87.0572" y1="63.1406" x2="87.0572" y2="83.0644" gradientUnits="userSpaceOnUse">
<stop stop-color="#DEFFFA"/>
<stop offset="1" stop-color="#00A695"/>
</linearGradient>
<linearGradient id="paint14_linear_2836_775" x1="nan" y1="nan" x2="nan" y2="nan" gradientUnits="userSpaceOnUse">
<stop stop-color="#C8F1EF" stop-opacity="0.3"/>
<stop offset="0.23438" stop-color="#A5E0DA"/>
<stop offset="0.364" stop-color="#2FB7A9"/>
<stop offset="0.5" stop-color="#00A695"/>
<stop offset="0.624" stop-color="#2EB6A9"/>
<stop offset="0.77492" stop-color="#ACE2DE"/>
<stop offset="1" stop-color="#C8F1EF" stop-opacity="0.3"/>
</linearGradient>
</defs>
</svg>
