<svg width="322" height="392" viewBox="0 0 322 392" fill="none" xmlns="http://www.w3.org/2000/svg">
<g filter="url(#filter0_d_1281_484)">
<g filter="url(#filter1_d_1281_484)">
<path d="M16 46.6246C16 29.7111 29.7111 16 46.6246 16H283.685C300.599 16 314.31 29.7111 314.31 46.6246V353.035C314.31 369.949 300.599 383.66 283.685 383.66H46.6246C29.7111 383.66 16 369.949 16 353.035V46.6246Z" fill="#FAFAFA"/>
</g>
<path d="M107.827 300.411C108.769 300.411 109.578 300.51 110.253 300.709C110.928 300.903 111.446 301.188 111.807 301.565C112.169 301.942 112.349 302.395 112.349 302.923C112.349 303.452 112.169 303.905 111.807 304.281C111.446 304.663 110.926 304.954 110.245 305.153C109.57 305.357 108.764 305.462 107.827 305.467C106.885 305.462 106.074 305.357 105.394 305.153C104.713 304.954 104.19 304.663 103.823 304.281C103.462 303.905 103.284 303.452 103.29 302.923C103.284 302.395 103.462 301.942 103.823 301.565C104.19 301.188 104.713 300.903 105.394 300.709C106.074 300.51 106.885 300.411 107.827 300.411ZM107.827 301.212C107.105 301.212 106.474 301.282 105.935 301.424C105.396 301.56 104.98 301.759 104.687 302.02C104.399 302.277 104.258 302.578 104.263 302.923C104.258 303.274 104.399 303.58 104.687 303.842C104.98 304.098 105.396 304.294 105.935 304.431C106.474 304.567 107.105 304.635 107.827 304.635C108.549 304.635 109.177 304.567 109.711 304.431C110.25 304.294 110.664 304.098 110.952 303.842C111.245 303.58 111.391 303.274 111.391 302.923C111.391 302.578 111.245 302.277 110.952 302.02C110.664 301.759 110.25 301.56 109.711 301.424C109.177 301.282 108.549 301.212 107.827 301.212ZM112.239 295.198H114.375V296.062H112.239V300.019H111.25V291.634H112.239V295.198ZM103.07 294.727H107.497V292.482H108.471V298.841H102.096V292.482H103.07V294.727ZM107.497 298.009V295.528H103.07V298.009H107.497ZM127.237 299.626H121.459V302.609H120.486V299.626H114.567V298.794H127.237V299.626ZM125.573 297.051H116.231V292.309H125.573V297.051ZM117.204 296.25H124.6V293.126H117.204V296.25ZM125.824 305.153H116.231V301.196H117.22V304.321H125.824V305.153ZM134.008 291.885C135.024 291.885 135.893 291.98 136.615 292.168C137.342 292.351 137.897 292.623 138.279 292.984C138.666 293.34 138.86 293.775 138.86 294.288C138.86 294.806 138.666 295.248 138.279 295.614C137.897 295.975 137.342 296.25 136.615 296.439C135.893 296.627 135.024 296.721 134.008 296.721C132.993 296.721 132.122 296.627 131.394 296.439C130.672 296.25 130.117 295.975 129.73 295.614C129.348 295.248 129.157 294.806 129.157 294.288C129.157 293.775 129.348 293.34 129.73 292.984C130.117 292.623 130.672 292.351 131.394 292.168C132.122 291.98 132.993 291.885 134.008 291.885ZM134.008 292.655C133.223 292.655 132.543 292.723 131.967 292.859C131.392 292.99 130.949 293.178 130.641 293.424C130.332 293.665 130.177 293.953 130.177 294.288C130.177 294.633 130.332 294.931 130.641 295.183C130.949 295.434 131.389 295.625 131.959 295.756C132.535 295.887 133.218 295.952 134.008 295.952C134.799 295.952 135.482 295.887 136.057 295.756C136.638 295.625 137.083 295.434 137.392 295.183C137.701 294.931 137.855 294.633 137.855 294.288C137.855 293.953 137.701 293.665 137.392 293.424C137.083 293.178 136.638 292.99 136.057 292.859C135.482 292.723 134.799 292.655 134.008 292.655ZM140.336 298.574H127.712V297.758H140.336V298.574ZM138.672 302.86H130.272V304.493H139.111V305.31H129.314V302.091H137.714V300.678H129.267V299.893H138.672V302.86ZM148.194 292.309C148.864 292.309 149.458 292.422 149.976 292.647C150.494 292.867 150.897 293.181 151.185 293.589C151.473 293.997 151.617 294.471 151.617 295.01C151.617 295.491 151.496 295.926 151.256 296.313C151.02 296.695 150.683 297.007 150.243 297.247C149.809 297.483 149.304 297.629 148.728 297.687V299.147C150.267 299.069 151.612 298.94 152.763 298.762L152.841 299.516C151.523 299.752 150.138 299.909 148.689 299.987C147.244 300.06 145.708 300.097 144.08 300.097L143.955 299.249H144.661C145.703 299.249 146.729 299.231 147.739 299.194V297.695C147.152 297.642 146.634 297.498 146.184 297.263C145.734 297.027 145.386 296.716 145.14 296.329C144.894 295.941 144.771 295.502 144.771 295.01C144.771 294.471 144.915 293.997 145.203 293.589C145.491 293.181 145.894 292.867 146.412 292.647C146.93 292.422 147.524 292.309 148.194 292.309ZM148.194 293.079C147.712 293.079 147.281 293.162 146.899 293.33C146.522 293.492 146.229 293.72 146.019 294.013C145.81 294.306 145.708 294.638 145.713 295.01C145.708 295.381 145.81 295.714 146.019 296.007C146.229 296.295 146.522 296.522 146.899 296.69C147.281 296.852 147.712 296.936 148.194 296.941C148.681 296.936 149.112 296.852 149.489 296.69C149.866 296.522 150.159 296.295 150.369 296.007C150.578 295.714 150.685 295.381 150.69 295.01C150.685 294.638 150.578 294.306 150.369 294.013C150.159 293.72 149.866 293.492 149.489 293.33C149.112 293.162 148.681 293.079 148.194 293.079ZM154.679 296.439H156.845V297.287H154.679V302.248H153.689V291.634H154.679V296.439ZM155.197 305.137H146.043V301.322H147.032V304.289H155.197V305.137ZM169.771 303.708H157.085V302.86H160.759V300.066H158.717V295.921H167.149V293.534H158.67V292.702H168.122V296.753H159.691V299.233H168.452V300.066H166.207V302.86H169.771V303.708ZM165.233 302.86V300.066H161.732V302.86H165.233ZM181.927 300.238H180.985V296.36H178.928V300.003H177.986V291.87H178.928V295.528H180.985V291.634H181.927V300.238ZM177.343 294.131H170.136V293.298H173.26V291.681H174.25V293.298H177.343V294.131ZM173.747 294.916C174.328 294.916 174.841 295.012 175.286 295.206C175.736 295.395 176.084 295.667 176.33 296.023C176.581 296.378 176.709 296.795 176.715 297.271C176.709 297.742 176.581 298.155 176.33 298.511C176.084 298.867 175.736 299.142 175.286 299.336C174.841 299.529 174.328 299.626 173.747 299.626C173.166 299.626 172.651 299.529 172.201 299.336C171.75 299.142 171.402 298.867 171.156 298.511C170.91 298.155 170.79 297.742 170.795 297.271C170.79 296.795 170.91 296.378 171.156 296.023C171.402 295.667 171.748 295.395 172.193 295.206C172.643 295.012 173.161 294.916 173.747 294.916ZM173.747 295.685C173.344 295.685 172.986 295.75 172.672 295.881C172.358 296.012 172.112 296.198 171.934 296.439C171.761 296.679 171.675 296.957 171.675 297.271C171.675 297.58 171.761 297.854 171.934 298.095C172.112 298.336 172.358 298.524 172.672 298.66C172.986 298.791 173.344 298.857 173.747 298.857C174.15 298.857 174.506 298.791 174.815 298.66C175.129 298.524 175.372 298.336 175.545 298.095C175.718 297.854 175.804 297.58 175.804 297.271C175.804 296.957 175.718 296.679 175.545 296.439C175.372 296.198 175.129 296.012 174.815 295.881C174.506 295.75 174.15 295.685 173.747 295.685ZM174.988 301.18C174.982 301.604 175.058 302.023 175.215 302.436C175.372 302.845 175.608 303.224 175.922 303.575C176.236 303.925 176.618 304.216 177.068 304.446C177.502 304.195 177.879 303.884 178.198 303.512C178.523 303.14 178.769 302.751 178.936 302.342C179.104 301.929 179.19 301.542 179.195 301.18V300.631H180.153V301.18C180.153 301.641 180.274 302.094 180.514 302.539C180.755 302.983 181.095 303.384 181.535 303.74C181.974 304.09 182.482 304.357 183.058 304.54L182.571 305.31C181.88 305.069 181.284 304.716 180.781 304.25C180.279 303.784 179.907 303.256 179.666 302.664C179.441 303.261 179.109 303.805 178.669 304.297C178.235 304.794 177.709 305.174 177.091 305.435C176.437 305.179 175.888 304.813 175.443 304.336C175.003 303.86 174.681 303.318 174.477 302.711C174.221 303.282 173.844 303.797 173.347 304.258C172.855 304.713 172.282 305.064 171.627 305.31L171.125 304.54C171.685 304.347 172.185 304.069 172.624 303.708C173.064 303.342 173.404 302.936 173.645 302.491C173.891 302.047 174.014 301.61 174.014 301.18V300.631H174.988V301.18ZM185.982 301.699H193.299V299.94H194.304V305.278H184.993V299.94H185.982V301.699ZM193.299 304.462V302.515H185.982V304.462H193.299ZM195.968 298.872H183.344V298.024H195.968V298.872ZM190.159 292.498C190.159 293.073 190.415 293.62 190.928 294.138C191.446 294.657 192.098 295.094 192.883 295.449C193.668 295.8 194.445 296.03 195.214 296.14L194.837 296.925C194.141 296.815 193.448 296.622 192.757 296.344C192.071 296.062 191.451 295.709 190.896 295.285C190.347 294.861 189.933 294.387 189.656 293.864C189.384 294.387 188.973 294.863 188.424 295.292C187.874 295.716 187.254 296.067 186.563 296.344C185.872 296.622 185.176 296.815 184.475 296.925L184.098 296.14C184.883 296.025 185.665 295.795 186.445 295.449C187.23 295.104 187.877 294.675 188.384 294.162C188.897 293.644 189.154 293.089 189.154 292.498V291.775H190.159V292.498ZM207.81 305.482H206.837V291.634H207.81V305.482ZM198.39 300.976H198.515C199.661 300.976 200.784 300.924 201.883 300.819C202.987 300.715 204.11 300.542 205.251 300.301L205.392 301.165C204.209 301.416 203.063 301.594 201.954 301.699C200.844 301.803 199.698 301.856 198.515 301.856H197.416V293H198.39V300.976ZM220.265 297.224H222.652V298.056H220.265V305.498H219.276V291.634H220.265V297.224ZM211.3 301.133C212.692 301.133 213.875 301.099 214.848 301.031C215.827 300.963 216.821 300.835 217.831 300.647L217.973 301.51C216.926 301.699 215.905 301.827 214.911 301.895C213.917 301.963 212.713 301.997 211.3 301.997H210.232V293H216.685V293.832H211.221V301.133H211.3ZM224.1 304.336C223.864 304.336 223.663 304.255 223.495 304.093C223.333 303.931 223.252 303.734 223.252 303.504C223.252 303.269 223.333 303.07 223.495 302.908C223.663 302.74 223.864 302.656 224.1 302.656C224.33 302.656 224.526 302.74 224.689 302.908C224.851 303.07 224.932 303.269 224.932 303.504C224.932 303.729 224.851 303.925 224.689 304.093C224.526 304.255 224.33 304.336 224.1 304.336ZM57.8203 322.258L61.9496 310.89H63.1586L67.288 322.258H66.1104L64.9172 318.882H60.1911L58.9978 322.258H57.8203ZM64.5639 317.893L62.5934 312.335H62.5149L60.5444 317.893H64.5639ZM68.171 310.89H71.8922C72.6877 310.89 73.3628 311.034 73.9176 311.322C74.4724 311.61 74.8885 312.013 75.1659 312.531C75.4432 313.044 75.5819 313.638 75.5819 314.313C75.5819 315.088 75.3988 315.752 75.0324 316.307C74.6713 316.857 74.1427 317.247 73.4466 317.477L76.053 322.258H74.7655L72.3004 317.689L71.9079 317.704H69.2858V322.258H68.171V310.89ZM71.8608 316.684C72.7296 316.684 73.3838 316.477 73.8234 316.064C74.263 315.645 74.4829 315.061 74.4829 314.313C74.4829 313.559 74.2604 312.968 73.8156 312.539C73.3759 312.11 72.7191 311.895 71.8451 311.895H69.2858V316.684H71.8608ZM86.5959 311.11C86.5854 313.256 86.0908 315.179 85.1121 316.88C84.1387 318.576 82.4979 319.986 80.1898 321.112L79.6246 320.358C82.1577 319.133 83.8848 317.474 84.806 315.381L79.8444 315.852L79.656 314.957L85.12 314.58C85.3921 313.753 85.5518 312.874 85.5989 311.942H80.3468V311.11H86.5959ZM90.0815 315.381H92.421V316.213H90.0815V323.482H89.0924V309.634H90.0815V315.381ZM98.344 314.91H100.667V309.948H101.625V322.76H100.667V315.758H98.344V319.667H93.0999V311.298H98.344V314.91ZM94.0262 318.851H97.402V312.115H94.0262V318.851ZM104.373 323.482H103.415V309.634H104.373V323.482ZM116.341 315.224H118.727V316.087H116.341V323.498H115.352V309.634H116.341V315.224ZM107.329 319.259C108.768 319.259 109.985 319.225 110.979 319.157C111.973 319.084 112.986 318.95 114.017 318.756L114.127 319.589C113.054 319.788 112.01 319.924 110.995 319.997C109.985 320.07 108.763 320.107 107.329 320.107H106.245V314.941H111.489V311.801H106.214V310.953H112.478V315.789H107.234V319.259H107.329ZM131.496 321.708H118.81V320.86H124.619V318.066H120.443V313.921H128.874V311.534H120.396V310.702H129.848V314.753H121.416V317.233H130.177V318.066H125.608V320.86H131.496V321.708ZM142.699 311.236C142.688 311.937 142.659 312.562 142.612 313.112C142.57 313.661 142.468 314.297 142.306 315.02L141.317 314.925C141.479 314.224 141.584 313.599 141.631 313.049C141.683 312.494 141.709 311.937 141.709 311.377H135.869V310.529H142.699V311.236ZM139.087 316.338C140.877 316.276 142.453 316.155 143.813 315.977L143.876 316.715C141.704 317.071 138.977 317.249 135.696 317.249H135.115L135.005 316.401C136.094 316.401 137.13 316.391 138.114 316.37V313.512H139.087V316.338ZM145.807 313.544H147.943V314.392H145.807V318.348H144.818V309.634H145.807V313.544ZM141.38 318.521C142.322 318.521 143.133 318.618 143.813 318.811C144.499 319 145.022 319.277 145.383 319.644C145.75 320.01 145.933 320.447 145.933 320.955C145.933 321.478 145.75 321.925 145.383 322.297C145.022 322.669 144.502 322.951 143.821 323.145C143.141 323.339 142.327 323.435 141.38 323.435C140.438 323.435 139.624 323.339 138.938 323.145C138.258 322.951 137.737 322.669 137.376 322.297C137.015 321.925 136.837 321.478 136.842 320.955C136.837 320.447 137.015 320.01 137.376 319.644C137.742 319.277 138.266 319 138.946 318.811C139.632 318.618 140.443 318.521 141.38 318.521ZM141.38 319.306C140.657 319.306 140.027 319.374 139.488 319.51C138.954 319.646 138.54 319.84 138.247 320.091C137.959 320.337 137.816 320.625 137.816 320.955C137.816 321.3 137.959 321.598 138.247 321.85C138.54 322.101 138.954 322.292 139.488 322.423C140.022 322.554 140.652 322.619 141.38 322.619C142.107 322.619 142.738 322.554 143.272 322.423C143.806 322.292 144.216 322.101 144.504 321.85C144.797 321.598 144.944 321.3 144.944 320.955C144.944 320.625 144.797 320.337 144.504 320.091C144.216 319.84 143.803 319.646 143.264 319.51C142.73 319.374 142.102 319.306 141.38 319.306ZM158.812 315.616H161.167V316.464H158.812V323.482H157.838V309.634H158.812V315.616ZM148.009 319.856C149.543 319.856 150.862 319.837 151.966 319.801V318.168C151.411 318.121 150.924 317.987 150.506 317.767C150.092 317.547 149.773 317.257 149.548 316.896C149.323 316.53 149.213 316.113 149.218 315.648C149.213 315.135 149.344 314.685 149.611 314.297C149.878 313.91 150.257 313.612 150.749 313.402C151.241 313.193 151.809 313.088 152.453 313.088C153.091 313.088 153.656 313.196 154.148 313.41C154.64 313.62 155.022 313.918 155.295 314.305C155.567 314.687 155.703 315.135 155.703 315.648C155.703 316.113 155.588 316.527 155.357 316.888C155.132 317.249 154.813 317.54 154.4 317.759C153.986 317.979 153.505 318.115 152.955 318.168V319.761C154.473 319.683 155.797 319.562 156.928 319.4L157.006 320.17C155.656 320.4 154.266 320.549 152.837 320.617C151.414 320.685 149.867 320.719 148.198 320.719L148.009 319.856ZM156.645 312.193H148.245V311.361H151.966V309.634H152.955V311.361H156.645V312.193ZM152.453 313.873C151.997 313.873 151.594 313.949 151.244 314.101C150.898 314.253 150.629 314.465 150.435 314.737C150.241 315.004 150.145 315.307 150.145 315.648C150.145 315.988 150.241 316.291 150.435 316.558C150.629 316.82 150.898 317.024 151.244 317.171C151.594 317.312 151.997 317.38 152.453 317.375C152.908 317.38 153.308 317.312 153.654 317.171C153.999 317.024 154.269 316.82 154.462 316.558C154.656 316.297 154.756 315.993 154.761 315.648C154.756 315.302 154.656 314.996 154.462 314.729C154.269 314.462 153.999 314.253 153.654 314.101C153.308 313.949 152.908 313.873 152.453 313.873ZM173.967 317.626H168.189V320.609H167.215V317.626H161.296V316.794H173.967V317.626ZM172.303 315.051H162.96V310.309H172.303V315.051ZM163.934 314.25H171.329V311.126H163.934V314.25ZM172.554 323.153H162.96V319.196H163.95V322.321H172.554V323.153ZM180.738 309.885C181.753 309.885 182.622 309.98 183.344 310.168C184.072 310.351 184.626 310.623 185.009 310.984C185.396 311.34 185.589 311.775 185.589 312.288C185.589 312.806 185.396 313.248 185.009 313.614C184.626 313.975 184.072 314.25 183.344 314.439C182.622 314.627 181.753 314.721 180.738 314.721C179.723 314.721 178.851 314.627 178.124 314.439C177.401 314.25 176.847 313.975 176.459 313.614C176.077 313.248 175.886 312.806 175.886 312.288C175.886 311.775 176.077 311.34 176.459 310.984C176.847 310.623 177.401 310.351 178.124 310.168C178.851 309.98 179.723 309.885 180.738 309.885ZM180.738 310.655C179.953 310.655 179.272 310.723 178.697 310.859C178.121 310.99 177.679 311.178 177.37 311.424C177.061 311.665 176.907 311.953 176.907 312.288C176.907 312.633 177.061 312.931 177.37 313.183C177.679 313.434 178.118 313.625 178.689 313.756C179.265 313.887 179.948 313.952 180.738 313.952C181.528 313.952 182.211 313.887 182.787 313.756C183.368 313.625 183.813 313.434 184.121 313.183C184.43 312.931 184.585 312.633 184.585 312.288C184.585 311.953 184.43 311.665 184.121 311.424C183.813 311.178 183.368 310.99 182.787 310.859C182.211 310.723 181.528 310.655 180.738 310.655ZM187.065 316.574H174.442V315.758H187.065V316.574ZM185.401 320.86H177.001V322.493H185.841V323.31H176.043V320.091H184.443V318.678H175.996V317.893H185.401V320.86ZM202.067 319.824H201.078V309.634H202.067V319.824ZM202.523 323.153H193.228V318.772H194.217V322.321H202.523V323.153ZM194.625 310.639C195.305 310.639 195.918 310.783 196.462 311.071C197.006 311.353 197.433 311.751 197.742 312.264C198.051 312.772 198.205 313.35 198.205 313.999C198.205 314.653 198.051 315.239 197.742 315.758C197.433 316.27 197.006 316.671 196.462 316.959C195.918 317.241 195.305 317.38 194.625 317.375C193.945 317.38 193.33 317.241 192.78 316.959C192.236 316.671 191.809 316.27 191.501 315.758C191.192 315.239 191.04 314.653 191.045 313.999C191.04 313.35 191.192 312.772 191.501 312.264C191.809 311.751 192.236 311.353 192.78 311.071C193.33 310.783 193.945 310.639 194.625 310.639ZM194.625 311.503C194.128 311.503 193.68 311.612 193.283 311.832C192.885 312.047 192.571 312.345 192.341 312.727C192.116 313.104 192.003 313.528 192.003 313.999C192.003 314.475 192.116 314.904 192.341 315.287C192.571 315.663 192.885 315.959 193.283 316.174C193.68 316.388 194.128 316.496 194.625 316.496C195.117 316.496 195.562 316.388 195.96 316.174C196.363 315.959 196.677 315.663 196.902 315.287C197.132 314.904 197.247 314.475 197.247 313.999C197.247 313.528 197.132 313.104 196.902 312.727C196.671 312.345 196.357 312.047 195.96 311.832C195.562 311.612 195.117 311.503 194.625 311.503ZM208.587 311.644C208.582 312.329 208.736 312.986 209.05 313.614C209.37 314.237 209.804 314.784 210.353 315.255C210.903 315.726 211.513 316.082 212.183 316.323L211.665 317.108C210.848 316.794 210.126 316.331 209.498 315.718C208.87 315.106 208.404 314.397 208.1 313.591C207.807 314.449 207.344 315.208 206.711 315.867C206.083 316.522 205.358 317.019 204.536 317.359L204.002 316.574C204.672 316.318 205.279 315.941 205.824 315.444C206.368 314.941 206.797 314.363 207.111 313.709C207.43 313.049 207.593 312.361 207.598 311.644V310.309H208.587V311.644ZM215.197 323.482H214.208V319.542H205.949V318.725H215.197V323.482ZM215.197 318.003H214.208V309.634H215.197V318.003ZM223.947 312.931H216.912V312.115H219.927V310.058H220.932V312.115H223.947V312.931ZM220.429 313.968C221 313.973 221.51 314.109 221.96 314.376C222.41 314.638 222.761 315.004 223.012 315.475C223.269 315.946 223.397 316.48 223.397 317.076C223.397 317.678 223.269 318.217 223.012 318.694C222.761 319.17 222.41 319.542 221.96 319.808C221.51 320.07 221 320.201 220.429 320.201C219.859 320.201 219.349 320.07 218.899 319.808C218.449 319.542 218.095 319.17 217.839 318.694C217.588 318.217 217.462 317.678 217.462 317.076C217.462 316.48 217.588 315.946 217.839 315.475C218.095 315.004 218.449 314.638 218.899 314.376C219.349 314.109 219.859 313.973 220.429 313.968ZM220.429 314.815C220.032 314.821 219.673 314.923 219.354 315.122C219.04 315.321 218.794 315.593 218.616 315.938C218.438 316.278 218.352 316.658 218.357 317.076C218.352 317.5 218.438 317.885 218.616 318.23C218.794 318.576 219.04 318.845 219.354 319.039C219.673 319.233 220.032 319.327 220.429 319.322C220.822 319.327 221.175 319.233 221.489 319.039C221.809 318.845 222.057 318.576 222.235 318.23C222.418 317.885 222.512 317.5 222.518 317.076C222.512 316.658 222.418 316.278 222.235 315.938C222.057 315.593 221.809 315.321 221.489 315.122C221.175 314.923 220.822 314.821 220.429 314.815ZM228.688 323.482H227.746V316.37H225.658V322.776H224.732V309.98H225.658V315.538H227.746V309.634H228.688V323.482ZM236.919 311.581C236.919 312.209 237.171 312.803 237.673 313.363C238.181 313.918 238.819 314.384 239.589 314.761C240.358 315.137 241.127 315.386 241.897 315.506L241.52 316.291C240.813 316.161 240.117 315.946 239.432 315.648C238.746 315.344 238.131 314.967 237.587 314.517C237.048 314.062 236.645 313.554 236.378 312.994C236.111 313.549 235.705 314.054 235.161 314.509C234.622 314.965 234.012 315.344 233.332 315.648C232.651 315.946 231.963 316.161 231.267 316.291L230.874 315.506C231.639 315.386 232.405 315.137 233.175 314.761C233.944 314.384 234.58 313.918 235.082 313.363C235.585 312.803 235.836 312.209 235.836 311.581V311.361H231.283V310.545H241.457V311.361H236.919V311.581ZM242.697 318.442H236.841V323.467H235.883V318.442H230.074V317.595H242.697V318.442ZM247.207 313.716C247.207 314.439 247.336 315.169 247.592 315.907C247.848 316.645 248.207 317.317 248.668 317.924C249.128 318.531 249.657 319.008 250.253 319.353L249.657 320.122C248.982 319.714 248.39 319.146 247.882 318.419C247.38 317.691 247.003 316.883 246.752 315.993C246.501 316.951 246.108 317.82 245.574 318.599C245.046 319.379 244.433 319.981 243.737 320.405L243.078 319.667C243.69 319.316 244.237 318.83 244.719 318.207C245.2 317.579 245.577 316.878 245.849 316.103C246.121 315.323 246.26 314.538 246.265 313.748V310.969H247.207V313.716ZM255.026 323.482H254.069V309.634H255.026V323.482ZM252.169 322.76H251.227V315.553H248.699V314.69H251.227V309.948H252.169V322.76ZM269.02 321.645H256.333V320.798H259.568V316.943C258.95 316.634 258.471 316.236 258.131 315.75C257.791 315.263 257.621 314.711 257.621 314.093C257.621 313.392 257.833 312.777 258.257 312.248C258.681 311.715 259.272 311.301 260.031 311.008C260.79 310.715 261.656 310.566 262.63 310.56C263.608 310.566 264.477 310.715 265.236 311.008C266 311.301 266.594 311.715 267.018 312.248C267.442 312.777 267.654 313.392 267.654 314.093C267.654 314.7 267.486 315.247 267.151 315.734C266.822 316.216 266.356 316.611 265.754 316.919V320.798H269.02V321.645ZM262.63 311.393C261.85 311.387 261.151 311.497 260.533 311.722C259.916 311.947 259.432 312.267 259.081 312.68C258.736 313.094 258.563 313.565 258.563 314.093C258.563 314.617 258.738 315.082 259.089 315.491C259.44 315.899 259.924 316.218 260.541 316.448C261.159 316.673 261.855 316.783 262.63 316.778C263.404 316.783 264.103 316.673 264.726 316.448C265.348 316.218 265.835 315.899 266.186 315.491C266.536 315.082 266.712 314.617 266.712 314.093C266.712 313.565 266.536 313.094 266.186 312.68C265.835 312.267 265.348 311.947 264.726 311.722C264.108 311.497 263.409 311.387 262.63 311.393ZM264.765 320.798V317.304C264.121 317.487 263.409 317.579 262.63 317.579C261.876 317.579 261.18 317.49 260.541 317.312V320.798H264.765ZM270.829 322.336C270.594 322.336 270.392 322.255 270.225 322.093C270.062 321.931 269.981 321.734 269.981 321.504C269.981 321.269 270.062 321.07 270.225 320.908C270.392 320.74 270.594 320.656 270.829 320.656C271.06 320.656 271.256 320.74 271.418 320.908C271.58 321.07 271.661 321.269 271.661 321.504C271.661 321.729 271.58 321.925 271.418 322.093C271.256 322.255 271.06 322.336 270.829 322.336Z" fill="#999999"/>
<path d="M85.577 137.551H84.2327V127.533H81.1321V136.532H79.8311V118.882H81.1321V126.341H84.2327V118.427H85.577V137.551ZM71.6785 131.263C72.7843 131.255 73.8757 131.205 74.9526 131.111C76.0367 131.01 77.1642 130.843 78.335 130.612L78.5085 131.848C76.2969 132.267 74.0853 132.477 71.8737 132.477H71.4834H70.3125V120.812H71.6785V131.263ZM102.439 126.341H105.67V127.512H102.439V137.551H101.073V118.427H102.439V126.341ZM97.539 120.508C97.5317 122.33 97.2137 124.061 96.5849 125.701C95.9561 127.335 94.984 128.845 93.6686 130.233C92.3605 131.62 90.7018 132.809 88.6925 133.8L87.9336 132.715C90.456 131.472 92.4111 129.904 93.7987 128.01C95.1864 126.109 95.967 123.992 96.1404 121.657H88.7792V120.508H97.539ZM120.292 120.617C120.292 121.39 120.628 122.105 121.301 122.763C121.98 123.414 122.844 123.948 123.892 124.368C124.947 124.787 126.024 125.062 127.122 125.192L126.58 126.297C125.561 126.153 124.571 125.9 123.61 125.539C122.648 125.177 121.796 124.715 121.051 124.151C120.314 123.58 119.779 122.937 119.447 122.221C119.114 122.944 118.576 123.587 117.831 124.151C117.094 124.715 116.245 125.177 115.284 125.539C114.322 125.9 113.332 126.153 112.313 126.297L111.793 125.192C112.884 125.054 113.954 124.776 115.002 124.357C116.05 123.93 116.91 123.396 117.582 122.752C118.261 122.102 118.601 121.39 118.601 120.617V120.443H112.335V119.316H126.602V120.443H120.292V120.617ZM128.228 128.878H110.73V127.728H128.228V128.878ZM125.973 137.551H124.607V132.195H112.66V131.046H125.973V137.551ZM135.463 119.381C136.403 119.381 137.241 119.543 137.978 119.869C138.723 120.187 139.301 120.638 139.713 121.224C140.132 121.809 140.342 122.481 140.342 123.24C140.342 123.999 140.132 124.675 139.713 125.267C139.301 125.86 138.723 126.319 137.978 126.644C137.241 126.97 136.403 127.129 135.463 127.121C134.524 127.129 133.685 126.97 132.948 126.644C132.218 126.319 131.647 125.864 131.235 125.278C130.823 124.686 130.621 124.006 130.628 123.24C130.621 122.481 130.82 121.809 131.224 121.224C131.636 120.638 132.211 120.187 132.948 119.869C133.685 119.543 134.524 119.381 135.463 119.381ZM135.463 120.53C134.791 120.523 134.188 120.638 133.653 120.877C133.118 121.108 132.699 121.433 132.395 121.853C132.092 122.264 131.943 122.727 131.951 123.24C131.943 123.768 132.088 124.241 132.384 124.66C132.688 125.072 133.107 125.394 133.642 125.625C134.184 125.857 134.791 125.972 135.463 125.972C136.15 125.972 136.764 125.857 137.306 125.625C137.848 125.394 138.271 125.072 138.575 124.66C138.885 124.241 139.041 123.768 139.041 123.24C139.041 122.727 138.885 122.264 138.575 121.853C138.271 121.433 137.845 121.108 137.295 120.877C136.753 120.638 136.143 120.523 135.463 120.53ZM144.83 137.572H143.486V118.427H144.83V137.572ZM130.043 128.899C134.907 128.899 138.889 128.668 141.99 128.205L142.098 129.268C140.327 129.579 138.383 129.799 136.266 129.929V136.943H134.9V129.994C134.003 130.038 133.136 130.067 132.298 130.081C131.466 130.095 130.462 130.106 129.284 130.114L129.089 128.899H130.043ZM154.169 121.202C154.161 122.149 154.374 123.056 154.808 123.923C155.249 124.783 155.849 125.539 156.608 126.189C157.367 126.839 158.209 127.331 159.134 127.663L158.418 128.748C157.291 128.314 156.293 127.674 155.426 126.829C154.559 125.983 153.916 125.004 153.496 123.891C153.092 125.076 152.452 126.124 151.577 127.035C150.71 127.938 149.709 128.625 148.574 129.094L147.837 128.01C148.762 127.656 149.601 127.136 150.352 126.449C151.104 125.755 151.697 124.957 152.13 124.053C152.571 123.143 152.795 122.192 152.803 121.202V119.359H154.169V121.202ZM163.297 137.551H161.931V132.108H150.526V130.981H163.297V137.551ZM163.297 129.983H161.931V118.427H163.297V129.983ZM174.695 118.774C176.097 118.774 177.297 118.904 178.294 119.164C179.299 119.417 180.065 119.793 180.593 120.291C181.128 120.783 181.395 121.383 181.395 122.091C181.395 122.807 181.128 123.417 180.593 123.923C180.065 124.422 179.299 124.801 178.294 125.062C177.297 125.322 176.097 125.452 174.695 125.452C173.293 125.452 172.09 125.322 171.085 125.062C170.088 124.801 169.321 124.422 168.787 123.923C168.259 123.417 167.995 122.807 167.995 122.091C167.995 121.383 168.259 120.783 168.787 120.291C169.321 119.793 170.088 119.417 171.085 119.164C172.09 118.904 173.293 118.774 174.695 118.774ZM174.695 119.836C173.611 119.836 172.671 119.93 171.876 120.118C171.081 120.299 170.471 120.559 170.044 120.898C169.618 121.231 169.405 121.628 169.405 122.091C169.405 122.568 169.618 122.98 170.044 123.327C170.471 123.674 171.078 123.938 171.866 124.118C172.661 124.299 173.604 124.389 174.695 124.389C175.786 124.389 176.73 124.299 177.525 124.118C178.327 123.938 178.941 123.674 179.368 123.327C179.794 122.98 180.007 122.568 180.007 122.091C180.007 121.628 179.794 121.231 179.368 120.898C178.941 120.559 178.327 120.299 177.525 120.118C176.73 119.93 175.786 119.836 174.695 119.836ZM183.433 128.01H166V126.883H183.433V128.01ZM181.135 133.93H169.535V136.185H181.742V137.312H168.212V132.867H179.812V130.916H168.147V129.832H181.135V133.93ZM204.755 137.551H203.411V127.382H198.597V126.211H203.411V118.427H204.755V137.551ZM198.619 120.53C198.619 123.334 197.914 125.871 196.505 128.14C195.103 130.41 192.895 132.289 189.881 133.778L189.1 132.715C191.688 131.458 193.65 129.886 194.987 127.999C196.332 126.113 197.083 123.999 197.242 121.657H189.903V120.53H198.619ZM223.612 130.569H222.311V124.931H219.406V129.875H218.127V118.795H219.406V123.804H222.311V118.427H223.612V130.569ZM217.281 121.961H207.329V120.812H211.643V118.557H213.009V120.812H217.281V121.961ZM212.316 123.067C213.118 123.074 213.826 123.211 214.441 123.479C215.062 123.746 215.543 124.126 215.882 124.617C216.229 125.108 216.406 125.683 216.414 126.341C216.406 126.991 216.229 127.562 215.882 128.054C215.543 128.538 215.062 128.914 214.441 129.181C213.826 129.441 213.118 129.571 212.316 129.571C211.513 129.571 210.801 129.441 210.18 129.181C209.558 128.914 209.078 128.538 208.738 128.054C208.398 127.562 208.232 126.991 208.239 126.341C208.232 125.683 208.398 125.108 208.738 124.617C209.078 124.126 209.555 123.746 210.169 123.479C210.791 123.211 211.506 123.074 212.316 123.067ZM212.316 124.129C211.759 124.129 211.264 124.223 210.83 124.411C210.397 124.599 210.057 124.863 209.811 125.202C209.573 125.535 209.454 125.914 209.454 126.341C209.454 126.76 209.573 127.136 209.811 127.468C210.057 127.793 210.397 128.05 210.83 128.238C211.264 128.419 211.759 128.509 212.316 128.509C212.872 128.509 213.364 128.419 213.79 128.238C214.224 128.05 214.56 127.793 214.798 127.468C215.037 127.136 215.156 126.76 215.156 126.341C215.156 125.914 215.037 125.535 214.798 125.202C214.56 124.863 214.224 124.599 213.79 124.411C213.364 124.223 212.872 124.129 212.316 124.129ZM217.368 130.937C218.69 130.937 219.825 131.068 220.772 131.328C221.726 131.581 222.456 131.957 222.962 132.455C223.468 132.947 223.721 133.539 223.721 134.233C223.721 134.92 223.468 135.505 222.962 135.989C222.456 136.481 221.726 136.853 220.772 137.106C219.825 137.359 218.69 137.486 217.368 137.486C216.031 137.486 214.885 137.359 213.931 137.106C212.977 136.853 212.247 136.481 211.741 135.989C211.242 135.505 210.993 134.92 210.993 134.233C210.993 133.539 211.242 132.947 211.741 132.455C212.247 131.957 212.977 131.581 213.931 131.328C214.892 131.068 216.038 130.937 217.368 130.937ZM217.368 132.043C216.341 132.036 215.449 132.119 214.69 132.293C213.938 132.466 213.36 132.719 212.955 133.051C212.551 133.384 212.352 133.778 212.359 134.233C212.352 134.674 212.551 135.061 212.955 135.393C213.36 135.718 213.938 135.968 214.69 136.141C215.449 136.315 216.341 136.401 217.368 136.401C218.387 136.401 219.272 136.315 220.024 136.141C220.775 135.968 221.354 135.718 221.758 135.393C222.163 135.068 222.369 134.681 222.376 134.233C222.369 133.778 222.163 133.384 221.758 133.051C221.354 132.719 220.775 132.466 220.024 132.293C219.272 132.119 218.387 132.036 217.368 132.043ZM242.036 130.309H240.735V124.953H237.894V129.983H236.593V118.752H237.894V123.804H240.735V118.427H242.036V130.309ZM235.704 121.874H225.752V120.725H230.067V118.492H231.433V120.725H235.704V121.874ZM230.739 122.958C231.541 122.958 232.25 123.092 232.864 123.359C233.485 123.62 233.966 123.995 234.306 124.487C234.653 124.978 234.83 125.553 234.837 126.211C234.83 126.861 234.653 127.432 234.306 127.924C233.966 128.415 233.485 128.795 232.864 129.062C232.25 129.329 231.541 129.463 230.739 129.463C229.937 129.463 229.225 129.329 228.603 129.062C227.982 128.795 227.501 128.415 227.161 127.924C226.822 127.432 226.655 126.861 226.663 126.211C226.655 125.553 226.822 124.978 227.161 124.487C227.501 123.995 227.978 123.62 228.592 123.359C229.214 123.092 229.93 122.958 230.739 122.958ZM230.739 124.021C230.183 124.021 229.687 124.111 229.254 124.292C228.82 124.472 228.48 124.729 228.235 125.062C227.996 125.394 227.877 125.777 227.877 126.211C227.877 126.637 227.996 127.017 228.235 127.349C228.48 127.681 228.82 127.942 229.254 128.13C229.687 128.31 230.183 128.401 230.739 128.401C231.296 128.401 231.787 128.31 232.213 128.13C232.647 127.942 232.983 127.681 233.222 127.349C233.46 127.017 233.579 126.637 233.579 126.211C233.579 125.777 233.46 125.394 233.222 125.062C232.983 124.729 232.647 124.472 232.213 124.292C231.787 124.111 231.296 124.021 230.739 124.021ZM232.452 131.61C232.445 132.195 232.55 132.773 232.766 133.344C232.983 133.908 233.308 134.432 233.742 134.916C234.176 135.4 234.703 135.802 235.325 136.12C235.925 135.773 236.445 135.343 236.886 134.829C237.334 134.316 237.674 133.778 237.905 133.214C238.136 132.643 238.256 132.108 238.263 131.61V130.851H239.585V131.61C239.585 132.246 239.752 132.871 240.084 133.485C240.417 134.099 240.886 134.652 241.494 135.144C242.101 135.628 242.802 135.997 243.597 136.25L242.925 137.312C241.971 136.98 241.147 136.492 240.453 135.849C239.759 135.205 239.246 134.475 238.913 133.659C238.603 134.483 238.144 135.234 237.536 135.914C236.937 136.6 236.21 137.124 235.357 137.486C234.454 137.131 233.695 136.625 233.081 135.968C232.474 135.31 232.029 134.562 231.747 133.724C231.393 134.511 230.873 135.223 230.186 135.859C229.507 136.488 228.715 136.972 227.812 137.312L227.118 136.25C227.891 135.982 228.582 135.599 229.189 135.1C229.796 134.595 230.266 134.034 230.598 133.42C230.938 132.806 231.108 132.202 231.108 131.61V130.851H232.452V131.61ZM246.799 128.336C248.714 128.336 250.301 128.292 251.558 128.205C252.816 128.119 254.084 127.945 255.364 127.685L255.537 128.856C254.178 129.102 252.845 129.272 251.537 129.365C250.236 129.459 248.656 129.506 246.799 129.506H245.368V120.096H254.214V121.267H246.734V128.336H246.799ZM260.047 132.412H258.681V124.975H252.935V123.847H258.681V118.427H260.047V132.412ZM260.589 137.247H247.861V131.393H249.227V136.098H260.589V137.247ZM160.413 143.774C161.815 143.774 163.015 143.904 164.012 144.164C165.017 144.417 165.783 144.793 166.311 145.291C166.846 145.783 167.113 146.383 167.113 147.091C167.113 147.807 166.846 148.417 166.311 148.923C165.783 149.422 165.017 149.801 164.012 150.062C163.015 150.322 161.815 150.452 160.413 150.452C159.011 150.452 157.808 150.322 156.803 150.062C155.806 149.801 155.039 149.422 154.505 148.923C153.977 148.417 153.713 147.807 153.713 147.091C153.713 146.383 153.977 145.783 154.505 145.291C155.039 144.793 155.806 144.417 156.803 144.164C157.808 143.904 159.011 143.774 160.413 143.774ZM160.413 144.836C159.329 144.836 158.389 144.93 157.594 145.118C156.799 145.299 156.189 145.559 155.762 145.898C155.336 146.231 155.123 146.628 155.123 147.091C155.123 147.568 155.336 147.98 155.762 148.327C156.189 148.674 156.796 148.938 157.584 149.118C158.379 149.299 159.322 149.389 160.413 149.389C161.504 149.389 162.448 149.299 163.243 149.118C164.045 148.938 164.659 148.674 165.086 148.327C165.512 147.98 165.725 147.568 165.725 147.091C165.725 146.628 165.512 146.231 165.086 145.898C164.659 145.559 164.045 145.299 163.243 145.118C162.448 144.93 161.504 144.836 160.413 144.836ZM169.151 153.01H151.718V151.883H169.151V153.01ZM166.853 158.93H155.253V161.185H167.46V162.312H153.93V157.867H165.53V155.916H153.865V154.832H166.853V158.93ZM181.085 147.438C181.085 148.226 181.294 148.985 181.713 149.715C182.14 150.437 182.722 151.073 183.459 151.623C184.196 152.165 185.024 152.577 185.942 152.859L185.269 153.899C184.156 153.552 183.173 153.018 182.321 152.295C181.468 151.572 180.839 150.734 180.434 149.78C180.037 150.82 179.397 151.735 178.515 152.522C177.641 153.303 176.625 153.892 175.469 154.29L174.775 153.205C175.707 152.916 176.549 152.486 177.301 151.915C178.06 151.344 178.656 150.672 179.09 149.899C179.524 149.126 179.74 148.305 179.74 147.438V146.939H175.274V145.79H179.74V143.318H181.128V145.79H185.551V146.939H181.085V147.438ZM189.628 148.305H192.576V149.454H189.628V154.615H188.262V143.427H189.628V148.305ZM189.974 156.848H184.435C184.485 157.556 184.818 158.229 185.432 158.865C186.046 159.493 186.827 160.032 187.774 160.48C188.721 160.921 189.7 161.228 190.712 161.401L190.17 162.486C189.259 162.312 188.374 162.041 187.514 161.672C186.661 161.304 185.898 160.849 185.226 160.306C184.561 159.764 184.055 159.168 183.708 158.518C183.369 159.168 182.863 159.761 182.19 160.296C181.526 160.83 180.767 161.282 179.914 161.651C179.061 162.019 178.179 162.29 177.269 162.464L176.748 161.401C177.753 161.228 178.725 160.921 179.664 160.48C180.604 160.039 181.381 159.504 181.995 158.875C182.61 158.239 182.946 157.564 183.004 156.848H177.464V155.699H189.974V156.848ZM198.25 144.944C199.176 144.944 200 145.215 200.722 145.758C201.445 146.3 202.009 147.073 202.413 148.078C202.818 149.075 203.021 150.235 203.021 151.558C203.021 152.88 202.818 154.044 202.413 155.048C202.009 156.046 201.445 156.816 200.722 157.358C200 157.9 199.176 158.171 198.25 158.171C197.325 158.171 196.501 157.9 195.779 157.358C195.063 156.816 194.507 156.046 194.109 155.048C193.712 154.044 193.516 152.88 193.524 151.558C193.516 150.235 193.712 149.075 194.109 148.078C194.507 147.073 195.063 146.3 195.779 145.758C196.501 145.215 197.325 144.944 198.25 144.944ZM198.25 146.159C197.586 146.159 196.989 146.386 196.462 146.842C195.941 147.297 195.533 147.937 195.237 148.761C194.947 149.577 194.803 150.51 194.803 151.558C194.803 152.613 194.947 153.549 195.237 154.365C195.533 155.182 195.941 155.818 196.462 156.274C196.989 156.729 197.586 156.957 198.25 156.957C198.93 156.957 199.53 156.732 200.05 156.284C200.57 155.829 200.975 155.193 201.264 154.376C201.561 153.56 201.712 152.62 201.72 151.558C201.712 150.502 201.561 149.566 201.264 148.75C200.975 147.933 200.57 147.297 200.05 146.842C199.53 146.386 198.93 146.159 198.25 146.159ZM207.877 151.211H211.173V152.382H207.877V162.551H206.511V143.427H207.877V151.211ZM226.301 151.146H229.597V152.338H226.301V162.572H224.935V143.427H226.301V151.146ZM213.855 156.718C215.843 156.718 217.523 156.671 218.896 156.577C220.27 156.476 221.668 156.292 223.092 156.024L223.244 157.173C221.762 157.448 220.32 157.636 218.918 157.737C217.523 157.838 215.835 157.889 213.855 157.889H212.359V150.755H219.601V146.419H212.316V145.248H220.967V151.926H213.725V156.718H213.855ZM232.647 156.371H231.194L231.086 145.161H232.755L232.647 156.371ZM231.932 160.968C231.606 160.968 231.328 160.856 231.097 160.632C230.873 160.408 230.761 160.137 230.761 159.819C230.761 159.493 230.873 159.219 231.097 158.995C231.328 158.763 231.606 158.648 231.932 158.648C232.25 158.648 232.521 158.763 232.745 158.995C232.969 159.219 233.081 159.493 233.081 159.819C233.081 160.129 232.969 160.4 232.745 160.632C232.521 160.856 232.25 160.968 231.932 160.968Z" fill="#121212"/>
<path d="M111.97 145.942C111.97 147.084 111.945 148.099 111.894 148.988C111.843 149.877 111.721 150.871 111.525 151.97H114.16V153.943H96.25V151.97H109.075C109.278 150.907 109.408 149.942 109.466 149.075C109.531 148.208 109.563 147.272 109.563 146.267H98.4616V144.316H111.97V145.942ZM112.534 162.377H98.57V155.807H100.955V160.426H112.534V162.377ZM131.087 154.832H128.68V150.04H125.341V148.067H128.68V143.188H131.087V154.832ZM124.452 155.33C125.833 155.33 127.025 155.479 128.03 155.775C129.042 156.064 129.815 156.49 130.35 157.054C130.885 157.611 131.152 158.279 131.152 159.06C131.152 159.84 130.885 160.509 130.35 161.065C129.815 161.629 129.042 162.056 128.03 162.345C127.025 162.641 125.833 162.789 124.452 162.789C123.079 162.789 121.89 162.641 120.886 162.345C119.881 162.056 119.111 161.629 118.576 161.065C118.049 160.509 117.789 159.84 117.796 159.06C117.789 158.279 118.049 157.611 118.576 157.054C119.111 156.49 119.881 156.064 120.886 155.775C121.89 155.479 123.079 155.33 124.452 155.33ZM124.452 157.173C123.079 157.173 122.024 157.336 121.287 157.661C120.549 157.979 120.181 158.445 120.181 159.06C120.181 159.667 120.549 160.129 121.287 160.447C122.024 160.765 123.079 160.924 124.452 160.924C125.826 160.924 126.884 160.765 127.629 160.447C128.373 160.129 128.745 159.667 128.745 159.06C128.745 158.445 128.373 157.979 127.629 157.661C126.884 157.336 125.826 157.173 124.452 157.173ZM121.872 146.549C121.872 147.358 122.049 148.146 122.403 148.912C122.757 149.671 123.281 150.354 123.975 150.961C124.669 151.561 125.508 152.027 126.49 152.36L125.276 154.268C124.214 153.907 123.292 153.375 122.512 152.674C121.738 151.966 121.131 151.142 120.69 150.202C120.25 151.265 119.621 152.194 118.804 152.989C117.987 153.776 117.008 154.376 115.866 154.788L114.608 152.88C115.628 152.533 116.498 152.031 117.221 151.373C117.944 150.708 118.49 149.96 118.858 149.129C119.234 148.298 119.422 147.445 119.422 146.571V146.419H115.346V144.467H125.927V146.419H121.872V146.549ZM149.511 157.52H147.104V150.343H143.635V148.392H147.104V143.21H149.511V157.52ZM150.009 162.399H136.653V156.263H139.06V160.447H150.009V162.399ZM140.295 147.113C140.295 147.915 140.473 148.699 140.827 149.465C141.181 150.224 141.705 150.907 142.399 151.514C143.093 152.114 143.931 152.577 144.914 152.902L143.7 154.832C142.63 154.463 141.705 153.928 140.924 153.227C140.151 152.519 139.544 151.691 139.103 150.745C138.662 151.8 138.033 152.718 137.217 153.498C136.4 154.272 135.424 154.853 134.289 155.244L133.054 153.292C134.065 152.96 134.929 152.475 135.645 151.839C136.367 151.196 136.913 150.466 137.282 149.65C137.657 148.826 137.845 147.973 137.845 147.091V146.571H133.769V144.619H144.35V146.571H140.295V147.113Z" fill="#00A695"/>
<path opacity="0.7" d="M139.441 261.241C140.075 261.241 140.589 260.727 140.589 260.092V224.562C140.589 216.073 133.707 209.191 125.218 209.191C116.729 209.191 109.848 216.073 109.848 224.562V260.092C109.848 260.727 110.362 261.241 110.996 261.241H139.441Z" fill="url(#paint0_linear_1281_484)" stroke="url(#paint1_linear_1281_484)" stroke-width="2.29685" stroke-linejoin="round"/>
<path opacity="0.7" d="M220.445 261.241C221.079 261.241 221.593 260.727 221.593 260.092V224.562C221.593 216.073 214.711 209.191 206.222 209.191C197.733 209.191 190.852 216.073 190.852 224.562V260.092C190.852 260.727 191.366 261.241 192 261.241H220.445Z" fill="url(#paint2_linear_1281_484)" stroke="url(#paint3_linear_1281_484)" stroke-width="2.29685" stroke-linejoin="round"/>
<path opacity="0.7" d="M159.695 261.239C160.329 261.239 160.843 260.724 160.843 260.09V211.525C160.843 203.036 153.961 196.154 145.472 196.154C136.983 196.154 130.102 203.036 130.102 211.525V260.09C130.102 260.724 130.616 261.239 131.25 261.239H159.695Z" fill="url(#paint4_linear_1281_484)" stroke="url(#paint5_linear_1281_484)" stroke-width="2.29685" stroke-linejoin="round"/>
<path opacity="0.7" d="M200.195 261.239C200.829 261.239 201.343 260.724 201.343 260.09V211.525C201.343 203.036 194.461 196.154 185.972 196.154C177.483 196.154 170.602 203.036 170.602 211.525V260.09C170.602 260.724 171.116 261.239 171.75 261.239H200.195Z" fill="url(#paint6_linear_1281_484)" stroke="url(#paint7_linear_1281_484)" stroke-width="2.29685" stroke-linejoin="round"/>
<path opacity="0.7" d="M179.945 261.559C180.579 261.559 181.093 261.045 181.093 260.411V202.584C181.093 194.095 174.211 187.213 165.722 187.213C157.233 187.213 150.352 194.095 150.352 202.584V260.411C150.352 261.045 150.866 261.559 151.5 261.559H179.945Z" fill="url(#paint8_linear_1281_484)" stroke="url(#paint9_linear_1281_484)" stroke-width="2.29685" stroke-linejoin="round"/>
<path d="M119.421 201.601C123.577 201.601 126.947 198.201 126.947 194.007C126.947 189.814 123.577 186.414 119.421 186.414C115.264 186.414 111.895 189.814 111.895 194.007C111.895 198.201 115.264 201.601 119.421 201.601Z" fill="url(#paint10_linear_1281_484)"/>
<path d="M212.022 201.601C216.179 201.601 219.549 198.201 219.549 194.007C219.549 189.814 216.179 186.414 212.022 186.414C207.866 186.414 204.496 189.814 204.496 194.007C204.496 198.201 207.866 201.601 212.022 201.601Z" fill="url(#paint11_linear_1281_484)"/>
<path d="M144.495 214.193C144.249 214.193 144.009 214.272 143.812 214.419L138.476 218.366L121.853 216.875C121.367 216.832 120.907 217.1 120.705 217.544C120.503 217.988 120.603 218.511 120.955 218.848L128.537 226.115C128.751 226.32 129.035 226.434 129.332 226.434H202.493C202.834 226.434 203.157 226.283 203.375 226.021L209.44 218.755C209.737 218.399 209.791 217.899 209.577 217.488C209.363 217.077 208.922 216.835 208.46 216.875L191.076 218.367L185.739 214.419C185.541 214.272 185.302 214.193 185.056 214.193H144.495Z" fill="url(#paint12_linear_1281_484)" stroke="url(#paint13_linear_1281_484)" stroke-width="2.29685" stroke-linejoin="round"/>
<path d="M144.023 210.228V213.506" stroke="#DEFFFA" stroke-width="2.29685" stroke-linecap="round" stroke-linejoin="round"/>
<path d="M185.064 210.228L185.062 213.506" stroke="#DEFFFA" stroke-width="2.29685" stroke-linecap="round" stroke-linejoin="round"/>
<path d="M199.461 247.852H130.469V261.62H199.461V247.852Z" fill="url(#paint14_linear_1281_484)"/>
<path d="M194.909 235.612H136.531V226.434H194.909V235.612Z" fill="url(#paint15_linear_1281_484)" stroke="#00A695" stroke-width="2.29685"/>
<path d="M133.879 235.996H116.441L128.193 248.617H204.008L212.348 235.996H197.564L187.329 233.318H143.735L133.879 235.996Z" fill="url(#paint16_linear_1281_484)" stroke="url(#paint17_linear_1281_484)" stroke-width="2.29685" stroke-linejoin="round"/>
<path d="M141.84 261.619V260.807C141.84 257.876 144.216 255.5 147.147 255.5C150.078 255.5 152.454 257.876 152.454 260.807V261.619" stroke="#019E94" stroke-width="1.14842" stroke-linejoin="round"/>
<path d="M178.992 261.619V260.807C178.992 257.876 181.368 255.5 184.299 255.5C187.23 255.5 189.606 257.876 189.606 260.807V261.619" stroke="#019E94" stroke-width="1.14842" stroke-linejoin="round"/>
<path d="M160.031 261.619V258.891C160.031 255.751 162.577 253.205 165.717 253.205C168.858 253.205 171.404 255.751 171.404 258.891V261.619" stroke="#019E94" stroke-width="1.14842" stroke-linejoin="round"/>
<path d="M130.469 248.617V261.621H200.219V248.617" stroke="#00A695" stroke-width="2.29685" stroke-linejoin="round"/>
<path d="M99.0039 261.619H230.165" stroke="url(#paint18_linear_1281_484)" stroke-width="2.29685" stroke-linecap="round"/>
<path d="M199.709 248.337L207.956 257.414L214.81 251.579L217.916 248.337L218.666 240.341L214.81 235.046L209.241 233.209L203.779 234.506L198.316 240.341L199.709 248.337Z" fill="#E16350"/>
<path fill-rule="evenodd" clip-rule="evenodd" d="M212.815 243.167C212.815 245.65 210.819 247.663 208.358 247.663C205.897 247.663 203.902 245.65 203.902 243.167C203.902 240.684 205.897 238.671 208.358 238.671C210.819 238.671 212.815 240.684 212.815 243.167ZM210.604 243.167C210.604 244.418 209.598 245.432 208.358 245.432C207.118 245.432 206.113 244.418 206.113 243.167C206.113 241.916 207.118 240.901 208.358 240.901C209.598 240.901 210.604 241.916 210.604 243.167Z" fill="#E16350"/>
<path fill-rule="evenodd" clip-rule="evenodd" d="M200.141 251.225C195.729 246.775 195.729 239.559 200.141 235.108L200.372 234.875C204.783 230.424 211.935 230.424 216.346 234.875L216.578 235.108C220.989 239.559 220.989 246.775 216.578 251.225L209.922 257.94C209.059 258.811 207.659 258.811 206.796 257.94L200.141 251.225ZM201.704 236.686L201.935 236.452C205.483 232.873 211.235 232.873 214.783 236.452L215.014 236.686C218.562 240.265 218.562 246.069 215.014 249.648L208.359 256.363L201.704 249.648C198.156 246.069 198.156 240.265 201.704 236.686Z" fill="#E16350"/>
<path d="M208.358 246.675C210.338 246.675 211.943 245.056 211.943 243.058C211.943 241.061 210.338 239.441 208.358 239.441C206.378 239.441 204.773 241.061 204.773 243.058C204.773 245.056 206.378 246.675 208.358 246.675Z" fill="#FAFAFA"/>
<path d="M191.037 73.6836H135.892C129.555 73.6836 124.418 78.8205 124.418 85.1572C124.418 91.4939 129.555 96.6308 135.892 96.6308H191.037C197.374 96.6308 202.511 91.4939 202.511 85.1572C202.511 78.8205 197.374 73.6836 191.037 73.6836Z" fill="#00A695"/>
<path d="M151.807 83.2042C151.765 82.7847 151.572 82.4564 151.229 82.2191C150.885 81.9776 150.447 81.8569 149.913 81.8569C149.545 81.8569 149.22 81.9162 148.941 82.0348C148.661 82.1492 148.445 82.3102 148.293 82.5178C148.144 82.7212 148.07 82.9542 148.07 83.2169C148.07 83.6067 148.229 83.9054 148.547 84.113C148.865 84.3206 149.265 84.4837 149.748 84.6023L150.638 84.8438C151.379 85.0175 152.006 85.3056 152.519 85.7081C153.031 86.1106 153.29 86.6868 153.294 87.4367C153.29 87.9579 153.152 88.4218 152.881 88.8285C152.61 89.2353 152.218 89.5551 151.705 89.7882C151.193 90.0169 150.583 90.1313 149.875 90.1313C149.193 90.1313 148.598 90.0233 148.089 89.8072C147.585 89.5869 147.189 89.2734 146.901 88.8667C146.617 88.4599 146.46 87.979 146.43 87.424H147.829C147.871 87.907 148.081 88.2756 148.458 88.5298C148.835 88.784 149.307 88.9111 149.875 88.9111C150.261 88.9111 150.606 88.8497 150.911 88.7268C151.22 88.5997 151.462 88.4239 151.635 88.1994C151.813 87.9706 151.904 87.7079 151.909 87.4113C151.904 87.0427 151.754 86.7567 151.457 86.5534C151.161 86.3458 150.731 86.1699 150.167 86.0259L149.074 85.7335C147.473 85.2929 146.672 84.4794 146.672 83.2931C146.672 82.7762 146.814 82.3166 147.098 81.9141C147.386 81.5116 147.78 81.2002 148.28 80.9798C148.78 80.7595 149.337 80.6494 149.951 80.6494C150.566 80.6494 151.114 80.7595 151.597 80.9798C152.08 81.1959 152.459 81.4989 152.735 81.8886C153.01 82.2742 153.154 82.7127 153.167 83.2042H151.807ZM153.571 80.7765H160.701V81.984H157.841V89.9788H156.443V81.984H153.571V80.7765ZM161.359 80.7765H167.13V81.984H162.757V84.7675H166.825V85.9623H162.757V88.7713H167.181V89.9788H161.359V80.7765ZM168.08 80.7765H171.359C172.05 80.7765 172.635 80.9057 173.113 81.1641C173.592 81.4184 173.95 81.77 174.187 82.2191C174.429 82.6682 174.55 83.183 174.55 83.7634C174.55 84.3396 174.429 84.8523 174.187 85.3014C173.95 85.7505 173.592 86.1043 173.113 86.3627C172.635 86.6211 172.05 86.7504 171.359 86.7504H169.478V89.9788H168.08V80.7765ZM171.22 85.5556C171.868 85.5556 172.349 85.3946 172.662 85.0726C172.98 84.7464 173.139 84.31 173.139 83.7634C173.139 83.2126 172.982 82.7762 172.669 82.4543C172.355 82.1323 171.872 81.9713 171.22 81.9713H169.478V85.5556H171.22ZM177.543 88.962L180.734 85.7462C181.119 85.3395 181.414 85.0133 181.617 84.7675C181.82 84.5218 181.975 84.2824 182.081 84.0494C182.191 83.8121 182.246 83.5643 182.246 83.3059C182.246 83.0093 182.172 82.7487 182.024 82.5242C181.875 82.2996 181.672 82.1259 181.414 82.003C181.155 81.8802 180.865 81.8187 180.543 81.8187C180.208 81.8187 179.914 81.8865 179.66 82.0221C179.405 82.1577 179.208 82.3483 179.069 82.5941C178.933 82.8398 178.865 83.1237 178.865 83.4457H177.543C177.539 82.8949 177.666 82.4076 177.925 81.984C178.183 81.5603 178.543 81.2319 179.005 80.9989C179.467 80.7659 179.988 80.6494 180.568 80.6494C181.153 80.6494 181.672 80.7638 182.125 80.9926C182.583 81.2171 182.939 81.5285 183.193 81.9268C183.447 82.325 183.577 82.772 183.581 83.2677C183.577 83.6194 183.509 83.9583 183.377 84.2846C183.246 84.6065 183.022 84.9667 182.704 85.3649C182.386 85.759 181.937 86.242 181.356 86.8139L179.488 88.7078V88.784H183.733V89.9788H177.543V88.962Z" fill="#F6F6F6"/>
</g>
<defs>
<filter id="filter0_d_1281_484" x="14" y="15" width="304.309" height="373.66" filterUnits="userSpaceOnUse" color-interpolation-filters="sRGB">
<feFlood flood-opacity="0" result="BackgroundImageFix"/>
<feColorMatrix in="SourceAlpha" type="matrix" values="0 0 0 0 0 0 0 0 0 0 0 0 0 0 0 0 0 0 127 0" result="hardAlpha"/>
<feOffset dx="1" dy="2"/>
<feGaussianBlur stdDeviation="1.5"/>
<feComposite in2="hardAlpha" operator="out"/>
<feColorMatrix type="matrix" values="0 0 0 0 0 0 0 0 0 0 0 0 0 0 0 0 0 0 0.18 0"/>
<feBlend mode="normal" in2="BackgroundImageFix" result="effect1_dropShadow_1281_484"/>
<feBlend mode="normal" in="SourceGraphic" in2="effect1_dropShadow_1281_484" result="shape"/>
</filter>
<filter id="filter1_d_1281_484" x="0.687701" y="0.687701" width="321.277" height="390.629" filterUnits="userSpaceOnUse" color-interpolation-filters="sRGB">
<feFlood flood-opacity="0" result="BackgroundImageFix"/>
<feColorMatrix in="SourceAlpha" type="matrix" values="0 0 0 0 0 0 0 0 0 0 0 0 0 0 0 0 0 0 127 0" result="hardAlpha"/>
<feOffset dx="-3.82808" dy="-3.82808"/>
<feGaussianBlur stdDeviation="5.74211"/>
<feComposite in2="hardAlpha" operator="out"/>
<feColorMatrix type="matrix" values="0 0 0 0 0 0 0 0 0 0 0 0 0 0 0 0 0 0 0.05 0"/>
<feBlend mode="normal" in2="BackgroundImageFix" result="effect1_dropShadow_1281_484"/>
<feBlend mode="normal" in="SourceGraphic" in2="effect1_dropShadow_1281_484" result="shape"/>
</filter>
<linearGradient id="paint0_linear_1281_484" x1="125.218" y1="210.34" x2="125.218" y2="260.092" gradientUnits="userSpaceOnUse">
<stop stop-color="#ACDFDB" stop-opacity="0.64"/>
<stop offset="1" stop-color="#00A695"/>
</linearGradient>
<linearGradient id="paint1_linear_1281_484" x1="125.218" y1="210.34" x2="125.218" y2="260.092" gradientUnits="userSpaceOnUse">
<stop stop-color="#DEFFFA"/>
<stop offset="1" stop-color="#00A695"/>
</linearGradient>
<linearGradient id="paint2_linear_1281_484" x1="206.222" y1="210.34" x2="206.222" y2="260.092" gradientUnits="userSpaceOnUse">
<stop stop-color="#ACDFDB" stop-opacity="0.64"/>
<stop offset="1" stop-color="#00A695"/>
</linearGradient>
<linearGradient id="paint3_linear_1281_484" x1="206.222" y1="210.34" x2="206.222" y2="260.092" gradientUnits="userSpaceOnUse">
<stop stop-color="#DEFFFA"/>
<stop offset="1" stop-color="#00A695"/>
</linearGradient>
<linearGradient id="paint4_linear_1281_484" x1="145.472" y1="197.303" x2="145.472" y2="260.09" gradientUnits="userSpaceOnUse">
<stop stop-color="#ACDFDB" stop-opacity="0.64"/>
<stop offset="1" stop-color="#00A695"/>
</linearGradient>
<linearGradient id="paint5_linear_1281_484" x1="145.472" y1="197.303" x2="145.472" y2="260.09" gradientUnits="userSpaceOnUse">
<stop stop-color="#DEFFFA"/>
<stop offset="1" stop-color="#00A695"/>
</linearGradient>
<linearGradient id="paint6_linear_1281_484" x1="185.972" y1="197.303" x2="185.972" y2="260.09" gradientUnits="userSpaceOnUse">
<stop stop-color="#ACDFDB" stop-opacity="0.64"/>
<stop offset="1" stop-color="#00A695"/>
</linearGradient>
<linearGradient id="paint7_linear_1281_484" x1="185.972" y1="197.303" x2="185.972" y2="260.09" gradientUnits="userSpaceOnUse">
<stop stop-color="#DEFFFA"/>
<stop offset="1" stop-color="#00A695"/>
</linearGradient>
<linearGradient id="paint8_linear_1281_484" x1="165.722" y1="188.361" x2="165.722" y2="260.411" gradientUnits="userSpaceOnUse">
<stop stop-color="#ACDFDB" stop-opacity="0.64"/>
<stop offset="1" stop-color="#00A695"/>
</linearGradient>
<linearGradient id="paint9_linear_1281_484" x1="165.722" y1="188.361" x2="165.722" y2="260.411" gradientUnits="userSpaceOnUse">
<stop stop-color="#DEFFFA"/>
<stop offset="1" stop-color="#00A695"/>
</linearGradient>
<linearGradient id="paint10_linear_1281_484" x1="119.421" y1="186.414" x2="119.421" y2="201.601" gradientUnits="userSpaceOnUse">
<stop stop-color="#E6FDFA"/>
<stop offset="0.864" stop-color="#C8F1EF"/>
</linearGradient>
<linearGradient id="paint11_linear_1281_484" x1="212.022" y1="201.601" x2="212.022" y2="186.414" gradientUnits="userSpaceOnUse">
<stop stop-color="#FFA800"/>
<stop offset="0.864" stop-color="#E16350"/>
</linearGradient>
<linearGradient id="paint12_linear_1281_484" x1="165.154" y1="215.342" x2="165.154" y2="225.286" gradientUnits="userSpaceOnUse">
<stop stop-color="#ACDFDB" stop-opacity="0.64"/>
<stop offset="1" stop-color="#00A695"/>
</linearGradient>
<linearGradient id="paint13_linear_1281_484" x1="165.154" y1="215.342" x2="165.154" y2="225.286" gradientUnits="userSpaceOnUse">
<stop stop-color="#DEFFFA"/>
<stop offset="1" stop-color="#00A695"/>
</linearGradient>
<linearGradient id="paint14_linear_1281_484" x1="164.965" y1="247.852" x2="164.965" y2="261.62" gradientUnits="userSpaceOnUse">
<stop stop-color="#00708D"/>
<stop offset="1" stop-color="#00A695"/>
</linearGradient>
<linearGradient id="paint15_linear_1281_484" x1="165.72" y1="226.434" x2="165.72" y2="235.612" gradientUnits="userSpaceOnUse">
<stop stop-color="#006C8D"/>
<stop offset="0.524" stop-color="#009C94"/>
<stop offset="1" stop-color="#00A695"/>
</linearGradient>
<linearGradient id="paint16_linear_1281_484" x1="164.395" y1="233.318" x2="164.395" y2="248.617" gradientUnits="userSpaceOnUse">
<stop stop-color="#BFD2AA"/>
<stop offset="1" stop-color="#01A695"/>
</linearGradient>
<linearGradient id="paint17_linear_1281_484" x1="164.395" y1="233.318" x2="164.395" y2="248.617" gradientUnits="userSpaceOnUse">
<stop stop-color="#DEFFFA"/>
<stop offset="1" stop-color="#00A695"/>
</linearGradient>
<linearGradient id="paint18_linear_1281_484" x1="nan" y1="nan" x2="nan" y2="nan" gradientUnits="userSpaceOnUse">
<stop stop-color="#C8F1EF" stop-opacity="0.3"/>
<stop offset="0.234379" stop-color="#A5E0DA"/>
<stop offset="0.364" stop-color="#2FB7A9"/>
<stop offset="0.5" stop-color="#00A695"/>
<stop offset="0.624" stop-color="#2EB6A9"/>
<stop offset="0.774916" stop-color="#ACE2DE"/>
<stop offset="1" stop-color="#C8F1EF" stop-opacity="0.3"/>
</linearGradient>
</defs>
</svg>
