<svg width="305" height="262" viewBox="0 0 305 262" fill="none" xmlns="http://www.w3.org/2000/svg">
<g opacity="0.2" filter="url(#filter0_d_2796_733)">
<rect x="6" y="6" width="285" height="241.454" rx="18" fill="#C4E6DC"/>
</g>
<path d="M132.438 212.758L157.267 68.0273" stroke="#E16350" stroke-width="2" stroke-linejoin="round"/>
<path d="M142.925 55.6484L171.707 56.7145L170.855 78.0348L142.072 76.5423L142.925 55.6484Z" fill="#C4E6DC"/>
<path d="M142.925 55.6484L171.707 56.7145L170.855 78.0348L142.072 76.5423L142.925 55.6484Z" stroke="#91D6C9" stroke-width="0.894401"/>
<g filter="url(#filter1_d_2796_733)">
<path d="M149.175 62.8417C144.473 58.1398 144.473 50.5165 149.175 45.8146V45.8146C153.877 41.1126 161.5 41.1126 166.202 45.8146V45.8146C170.904 50.5165 170.904 58.1398 166.202 62.8417L159.033 70.011C158.29 70.7534 157.086 70.7534 156.344 70.011L149.175 62.8417Z" fill="#00A695"/>
<path d="M159.386 70.3646L166.555 63.1953C171.453 58.2981 171.453 50.3582 166.555 45.461C161.658 40.5638 153.718 40.5638 148.821 45.461C143.924 50.3582 143.924 58.2981 148.821 63.1953L155.99 70.3646C156.928 71.3022 158.448 71.3022 159.386 70.3646Z" stroke="white"/>
</g>
<path d="M112.847 191.539L156.125 203.027L150.515 225.2L121.396 228.139L111.244 221.727L112.847 191.539Z" fill="#C4E6DC"/>
<path d="M112.918 191.895L155.97 202.807L150.439 225.379L121.438 227.92L110.825 221.642L112.918 191.895Z" stroke="#91D6C9" stroke-width="0.894401"/>
<g filter="url(#filter2_d_2796_733)">
<path d="M124.71 208.06C120.008 203.359 120.008 195.735 124.71 191.033V191.033C129.412 186.331 137.035 186.331 141.737 191.033V191.033C146.439 195.735 146.439 203.359 141.737 208.06L134.568 215.23C133.825 215.972 132.622 215.972 131.879 215.23L124.71 208.06Z" fill="#00A695"/>
<path d="M134.921 215.583L142.091 208.414C146.988 203.517 146.988 195.577 142.091 190.68C137.193 185.783 129.253 185.783 124.356 190.68C119.459 195.577 119.459 203.517 124.356 208.414L131.526 215.583C132.463 216.521 133.984 216.521 134.921 215.583Z" stroke="white"/>
</g>
<path d="M158.743 50.4648V58.9693H156.969V52.1446H156.922L154.972 53.3662V51.8039L157.075 50.4648H158.743Z" fill="white"/>
<path d="M134.131 196.143V204.647H132.357V197.822H132.31L130.36 199.044V197.482L132.463 196.143H134.131Z" fill="white"/>
<mask id="path-12-outside-1_2796_733" maskUnits="userSpaceOnUse" x="118.421" y="25.418" width="54" height="157" fill="black">
<rect fill="white" x="118.421" y="25.418" width="54" height="157"/>
<path d="M152.048 26.418V32.0562H150.863V30.9884H148.567V30.0273H150.863V28.9915H148.663C148.049 30.5292 146.645 31.6024 144.541 32.1844L144.061 31.2447C146.319 30.6307 147.521 29.4881 147.713 28.0518H144.573V27.0907H149.005C149.005 27.4271 148.978 27.7474 148.92 28.0518H150.863V26.418H152.048ZM148.856 32.163C150.81 32.163 152.113 32.8999 152.113 34.0852C152.113 35.2705 150.81 36.0073 148.856 36.0073C146.88 36.0073 145.577 35.2705 145.577 34.0852C145.577 32.8999 146.88 32.163 148.856 32.163ZM148.856 33.0921C147.553 33.0921 146.763 33.4445 146.763 34.0852C146.763 34.7152 147.553 35.0676 148.856 35.0676C150.126 35.0676 150.927 34.7152 150.927 34.0852C150.927 33.4445 150.126 33.0921 148.856 33.0921Z"/>
<path d="M161.886 31.266V32.2164H153.087V31.266H156.878V30.337H154.23V26.6422H155.404V27.6033H159.569V26.6422H160.744V30.337H158.074V31.266H161.886ZM160.808 32.9853V36.0607H159.623V33.925H154.059V32.9853H160.808ZM155.404 29.3866H159.569V28.4896H155.404V29.3866Z"/>
<path d="M169.952 26.781V27.5179C169.952 28.2387 169.952 29.0929 169.738 30.1661H171.03V31.1165H167.186V32.398C168.943 32.5208 169.994 33.1722 170.005 34.2133C169.994 35.388 168.713 36.05 166.609 36.05C164.484 36.05 163.192 35.388 163.192 34.2133C163.192 33.1722 164.244 32.5208 166.011 32.4086V31.1165H162.21V30.1661H168.542C168.745 29.173 168.766 28.4149 168.766 27.7314H163.299V26.781H169.952ZM166.609 33.3377C165.178 33.3377 164.388 33.6367 164.399 34.2133C164.388 34.8006 165.178 35.0996 166.609 35.0996C168.008 35.0996 168.798 34.8006 168.809 34.2133C168.798 33.6367 168.008 33.3377 166.609 33.3377Z"/>
<path d="M123.82 172.285V173.257H120.606V176.119C122.251 176.113 123.206 176.055 124.28 175.83L124.397 176.781C123.19 177.048 122.144 177.08 120.168 177.08H119.421V172.285H123.82ZM126.981 177.881V181.287H125.796V178.831H120.403V177.881H126.981ZM126.981 171.634V177.443H125.796V175.04H123.319V174.079H125.796V171.634H126.981Z"/>
<path d="M133.05 172.435C133.05 173.652 134.406 174.88 136.467 175.147L135.997 176.108C134.358 175.862 133.055 175.056 132.43 173.962C131.795 175.056 130.498 175.862 128.874 176.108L128.405 175.147C130.444 174.88 131.8 173.652 131.8 172.435V171.943H133.05V172.435ZM136.819 176.941V177.923H132.986V181.287H131.811V177.923H128.02V176.941H136.819Z"/>
<path d="M144.885 172.007V172.744C144.885 173.465 144.885 174.319 144.671 175.393H145.963V176.343H142.119V177.624C143.875 177.747 144.927 178.399 144.938 179.44C144.927 180.614 143.646 181.276 141.542 181.276C139.417 181.276 138.125 180.614 138.125 179.44C138.125 178.399 139.177 177.747 140.944 177.635V176.343H137.143V175.393H143.475C143.678 174.399 143.699 173.641 143.699 172.958H138.232V172.007H144.885ZM141.542 178.564C140.111 178.564 139.321 178.863 139.332 179.44C139.321 180.027 140.111 180.326 141.542 180.326C142.941 180.326 143.731 180.027 143.742 179.44C143.731 178.863 142.941 178.564 141.542 178.564Z"/>
</mask>
<path d="M152.048 26.418V32.0562H150.863V30.9884H148.567V30.0273H150.863V28.9915H148.663C148.049 30.5292 146.645 31.6024 144.541 32.1844L144.061 31.2447C146.319 30.6307 147.521 29.4881 147.713 28.0518H144.573V27.0907H149.005C149.005 27.4271 148.978 27.7474 148.92 28.0518H150.863V26.418H152.048ZM148.856 32.163C150.81 32.163 152.113 32.8999 152.113 34.0852C152.113 35.2705 150.81 36.0073 148.856 36.0073C146.88 36.0073 145.577 35.2705 145.577 34.0852C145.577 32.8999 146.88 32.163 148.856 32.163ZM148.856 33.0921C147.553 33.0921 146.763 33.4445 146.763 34.0852C146.763 34.7152 147.553 35.0676 148.856 35.0676C150.126 35.0676 150.927 34.7152 150.927 34.0852C150.927 33.4445 150.126 33.0921 148.856 33.0921Z" fill="#00A695"/>
<path d="M161.886 31.266V32.2164H153.087V31.266H156.878V30.337H154.23V26.6422H155.404V27.6033H159.569V26.6422H160.744V30.337H158.074V31.266H161.886ZM160.808 32.9853V36.0607H159.623V33.925H154.059V32.9853H160.808ZM155.404 29.3866H159.569V28.4896H155.404V29.3866Z" fill="#00A695"/>
<path d="M169.952 26.781V27.5179C169.952 28.2387 169.952 29.0929 169.738 30.1661H171.03V31.1165H167.186V32.398C168.943 32.5208 169.994 33.1722 170.005 34.2133C169.994 35.388 168.713 36.05 166.609 36.05C164.484 36.05 163.192 35.388 163.192 34.2133C163.192 33.1722 164.244 32.5208 166.011 32.4086V31.1165H162.21V30.1661H168.542C168.745 29.173 168.766 28.4149 168.766 27.7314H163.299V26.781H169.952ZM166.609 33.3377C165.178 33.3377 164.388 33.6367 164.399 34.2133C164.388 34.8006 165.178 35.0996 166.609 35.0996C168.008 35.0996 168.798 34.8006 168.809 34.2133C168.798 33.6367 168.008 33.3377 166.609 33.3377Z" fill="#00A695"/>
<path d="M123.82 172.285V173.257H120.606V176.119C122.251 176.113 123.206 176.055 124.28 175.83L124.397 176.781C123.19 177.048 122.144 177.08 120.168 177.08H119.421V172.285H123.82ZM126.981 177.881V181.287H125.796V178.831H120.403V177.881H126.981ZM126.981 171.634V177.443H125.796V175.04H123.319V174.079H125.796V171.634H126.981Z" fill="#00A695"/>
<path d="M133.05 172.435C133.05 173.652 134.406 174.88 136.467 175.147L135.997 176.108C134.358 175.862 133.055 175.056 132.43 173.962C131.795 175.056 130.498 175.862 128.874 176.108L128.405 175.147C130.444 174.88 131.8 173.652 131.8 172.435V171.943H133.05V172.435ZM136.819 176.941V177.923H132.986V181.287H131.811V177.923H128.02V176.941H136.819Z" fill="#00A695"/>
<path d="M144.885 172.007V172.744C144.885 173.465 144.885 174.319 144.671 175.393H145.963V176.343H142.119V177.624C143.875 177.747 144.927 178.399 144.938 179.44C144.927 180.614 143.646 181.276 141.542 181.276C139.417 181.276 138.125 180.614 138.125 179.44C138.125 178.399 139.177 177.747 140.944 177.635V176.343H137.143V175.393H143.475C143.678 174.399 143.699 173.641 143.699 172.958H138.232V172.007H144.885ZM141.542 178.564C140.111 178.564 139.321 178.863 139.332 179.44C139.321 180.027 140.111 180.326 141.542 180.326C142.941 180.326 143.731 180.027 143.742 179.44C143.731 178.863 142.941 178.564 141.542 178.564Z" fill="#00A695"/>
<path d="M152.048 26.418V32.0562H150.863V30.9884H148.567V30.0273H150.863V28.9915H148.663C148.049 30.5292 146.645 31.6024 144.541 32.1844L144.061 31.2447C146.319 30.6307 147.521 29.4881 147.713 28.0518H144.573V27.0907H149.005C149.005 27.4271 148.978 27.7474 148.92 28.0518H150.863V26.418H152.048ZM148.856 32.163C150.81 32.163 152.113 32.8999 152.113 34.0852C152.113 35.2705 150.81 36.0073 148.856 36.0073C146.88 36.0073 145.577 35.2705 145.577 34.0852C145.577 32.8999 146.88 32.163 148.856 32.163ZM148.856 33.0921C147.553 33.0921 146.763 33.4445 146.763 34.0852C146.763 34.7152 147.553 35.0676 148.856 35.0676C150.126 35.0676 150.927 34.7152 150.927 34.0852C150.927 33.4445 150.126 33.0921 148.856 33.0921Z" stroke="white" stroke-width="2" mask="url(#path-12-outside-1_2796_733)"/>
<path d="M161.886 31.266V32.2164H153.087V31.266H156.878V30.337H154.23V26.6422H155.404V27.6033H159.569V26.6422H160.744V30.337H158.074V31.266H161.886ZM160.808 32.9853V36.0607H159.623V33.925H154.059V32.9853H160.808ZM155.404 29.3866H159.569V28.4896H155.404V29.3866Z" stroke="white" stroke-width="2" mask="url(#path-12-outside-1_2796_733)"/>
<path d="M169.952 26.781V27.5179C169.952 28.2387 169.952 29.0929 169.738 30.1661H171.03V31.1165H167.186V32.398C168.943 32.5208 169.994 33.1722 170.005 34.2133C169.994 35.388 168.713 36.05 166.609 36.05C164.484 36.05 163.192 35.388 163.192 34.2133C163.192 33.1722 164.244 32.5208 166.011 32.4086V31.1165H162.21V30.1661H168.542C168.745 29.173 168.766 28.4149 168.766 27.7314H163.299V26.781H169.952ZM166.609 33.3377C165.178 33.3377 164.388 33.6367 164.399 34.2133C164.388 34.8006 165.178 35.0996 166.609 35.0996C168.008 35.0996 168.798 34.8006 168.809 34.2133C168.798 33.6367 168.008 33.3377 166.609 33.3377Z" stroke="white" stroke-width="2" mask="url(#path-12-outside-1_2796_733)"/>
<path d="M123.82 172.285V173.257H120.606V176.119C122.251 176.113 123.206 176.055 124.28 175.83L124.397 176.781C123.19 177.048 122.144 177.08 120.168 177.08H119.421V172.285H123.82ZM126.981 177.881V181.287H125.796V178.831H120.403V177.881H126.981ZM126.981 171.634V177.443H125.796V175.04H123.319V174.079H125.796V171.634H126.981Z" stroke="white" stroke-width="2" mask="url(#path-12-outside-1_2796_733)"/>
<path d="M133.05 172.435C133.05 173.652 134.406 174.88 136.467 175.147L135.997 176.108C134.358 175.862 133.055 175.056 132.43 173.962C131.795 175.056 130.498 175.862 128.874 176.108L128.405 175.147C130.444 174.88 131.8 173.652 131.8 172.435V171.943H133.05V172.435ZM136.819 176.941V177.923H132.986V181.287H131.811V177.923H128.02V176.941H136.819Z" stroke="white" stroke-width="2" mask="url(#path-12-outside-1_2796_733)"/>
<path d="M144.885 172.007V172.744C144.885 173.465 144.885 174.319 144.671 175.393H145.963V176.343H142.119V177.624C143.875 177.747 144.927 178.399 144.938 179.44C144.927 180.614 143.646 181.276 141.542 181.276C139.417 181.276 138.125 180.614 138.125 179.44C138.125 178.399 139.177 177.747 140.944 177.635V176.343H137.143V175.393H143.475C143.678 174.399 143.699 173.641 143.699 172.958H138.232V172.007H144.885ZM141.542 178.564C140.111 178.564 139.321 178.863 139.332 179.44C139.321 180.027 140.111 180.326 141.542 180.326C142.941 180.326 143.731 180.027 143.742 179.44C143.731 178.863 142.941 178.564 141.542 178.564Z" stroke="white" stroke-width="2" mask="url(#path-12-outside-1_2796_733)"/>
<defs>
<filter id="filter0_d_2796_733" x="0" y="0" width="305" height="261.453" filterUnits="userSpaceOnUse" color-interpolation-filters="sRGB">
<feFlood flood-opacity="0" result="BackgroundImageFix"/>
<feColorMatrix in="SourceAlpha" type="matrix" values="0 0 0 0 0 0 0 0 0 0 0 0 0 0 0 0 0 0 127 0" result="hardAlpha"/>
<feOffset dx="4" dy="4"/>
<feGaussianBlur stdDeviation="5"/>
<feComposite in2="hardAlpha" operator="out"/>
<feColorMatrix type="matrix" values="0 0 0 0 0 0 0 0 0 0 0 0 0 0 0 0 0 0 0.05 0"/>
<feBlend mode="normal" in2="BackgroundImageFix" result="effect1_dropShadow_2796_733"/>
<feBlend mode="normal" in="SourceGraphic" in2="effect1_dropShadow_2796_733" result="shape"/>
</filter>
<filter id="filter1_d_2796_733" x="144.248" y="40.8891" width="27.8801" height="32.0773" filterUnits="userSpaceOnUse" color-interpolation-filters="sRGB">
<feFlood flood-opacity="0" result="BackgroundImageFix"/>
<feColorMatrix in="SourceAlpha" type="matrix" values="0 0 0 0 0 0 0 0 0 0 0 0 0 0 0 0 0 0 127 0" result="hardAlpha"/>
<feOffset dx="0.5" dy="0.5"/>
<feGaussianBlur stdDeviation="0.45"/>
<feComposite in2="hardAlpha" operator="out"/>
<feColorMatrix type="matrix" values="0 0 0 0 0 0 0 0 0 0 0 0 0 0 0 0 0 0 0.3 0"/>
<feBlend mode="normal" in2="BackgroundImageFix" result="effect1_dropShadow_2796_733"/>
<feBlend mode="normal" in="SourceGraphic" in2="effect1_dropShadow_2796_733" result="shape"/>
</filter>
<filter id="filter2_d_2796_733" x="119.784" y="186.108" width="27.8801" height="32.0773" filterUnits="userSpaceOnUse" color-interpolation-filters="sRGB">
<feFlood flood-opacity="0" result="BackgroundImageFix"/>
<feColorMatrix in="SourceAlpha" type="matrix" values="0 0 0 0 0 0 0 0 0 0 0 0 0 0 0 0 0 0 127 0" result="hardAlpha"/>
<feOffset dx="0.5" dy="0.5"/>
<feGaussianBlur stdDeviation="0.45"/>
<feComposite in2="hardAlpha" operator="out"/>
<feColorMatrix type="matrix" values="0 0 0 0 0 0 0 0 0 0 0 0 0 0 0 0 0 0 0.3 0"/>
<feBlend mode="normal" in2="BackgroundImageFix" result="effect1_dropShadow_2796_733"/>
<feBlend mode="normal" in="SourceGraphic" in2="effect1_dropShadow_2796_733" result="shape"/>
</filter>
</defs>
</svg>
