<svg width="212" height="102" viewBox="0 0 212 102" fill="none" xmlns="http://www.w3.org/2000/svg">
<path d="M151.418 31.6033C160.215 36.083 163.374 30.9121 163.853 27.7667C164.436 26.5571 167.656 24.9882 175.878 28.3891C186.155 32.6403 191.397 28.3891 195.611 24.8637C198.982 22.0434 207.43 20.9236 211.232 20.7162C211.232 20.7162 203.421 17.2945 199.722 18.0203C196.022 18.7462 189.341 26.3149 174.85 19.8862C160.359 13.4576 158.201 11.4873 152.445 12.7316C146.69 13.9758 140.421 26.0036 151.418 31.6033Z" fill="url(#paint0_linear_2836_659)"/>
<path fill-rule="evenodd" clip-rule="evenodd" d="M27.1111 40.4798C23.4307 41.4219 18.4349 40.8631 11.7879 37.4784C-9.65087 26.5618 2.5711 3.11325 13.7913 0.687538C22.7628 -1.25203 27.2514 0.815014 43.1324 8.12839C47.1128 9.96141 51.8089 12.124 57.4706 14.6357C79.3195 24.3285 92.0604 17.6993 100.05 13.5425C102.39 12.3245 104.323 11.3188 105.958 10.9981C113.171 9.58313 128.398 16.2538 128.398 16.2538C120.985 16.6581 104.515 18.8412 97.9434 24.3395C93.9139 27.7108 89.4022 31.4226 83.4863 33.3514C83.841 33.5094 84.1997 33.6689 84.5624 33.8298C106.411 43.5225 119.152 36.8933 127.141 32.7365C129.482 31.5185 131.415 30.5128 133.05 30.1922C140.263 28.7772 155.49 35.4479 155.49 35.4479C148.077 35.8522 131.607 38.0353 125.035 43.5336C116.82 50.4064 106.602 58.6943 86.566 50.4064C70.5372 43.7761 64.2587 46.8349 63.1231 49.193C62.1882 55.3251 56.0306 65.4058 38.8796 56.6725C30.6595 52.4868 27.388 46.4588 27.1111 40.4798Z" fill="url(#paint1_linear_2836_659)"/>
<path d="M78.6752 36.6445C78.354 36.6445 78.0413 36.7476 77.783 36.9387L70.6409 42.2228L48.4074 40.2289C47.7729 40.172 47.1717 40.5221 46.908 41.102C46.6443 41.6819 46.7756 42.3651 47.2355 42.8059L57.3694 52.5187C57.6487 52.7864 58.0205 52.9358 58.4074 52.9358H156.2C156.644 52.9358 157.066 52.7384 157.351 52.397L165.458 42.6841C165.846 42.2193 165.917 41.5667 165.637 41.0297C165.357 40.4927 164.782 40.1766 164.178 40.2284L140.929 42.2248L133.784 36.9387C133.526 36.7476 133.213 36.6445 132.892 36.6445H78.6752Z" fill="url(#paint2_linear_2836_659)" stroke="url(#paint3_linear_2836_659)" stroke-width="3" stroke-linejoin="round"/>
<path d="M78.0439 31.3105L78.0439 35.6914" stroke="#DEFFFA" stroke-width="3" stroke-linecap="round" stroke-linejoin="round"/>
<path d="M132.911 31.3105L132.911 35.6914" stroke="#DEFFFA" stroke-width="3" stroke-linecap="round" stroke-linejoin="round"/>
<rect x="59.9277" y="81.5977" width="92.2186" height="18.4033" fill="url(#paint4_linear_2836_659)"/>
<path d="M146.066 65.2376H68.0352V52.9688H146.066V65.2376Z" fill="url(#paint5_linear_2836_659)" stroke="#00A695" stroke-width="3"/>
<path d="M64.4877 65.7503H41.1797L56.8873 82.62H158.226L169.374 65.7503H149.613L135.932 62.1719H77.6618L64.4877 65.7503Z" fill="url(#paint6_linear_2836_659)" stroke="url(#paint7_linear_2836_659)" stroke-width="3" stroke-linejoin="round"/>
<path d="M75.1279 99.9996V98.914C75.1279 94.9963 78.3039 91.8203 82.2217 91.8203V91.8203C86.1394 91.8203 89.3154 94.9963 89.3154 98.9141V99.9996" stroke="#019E94" stroke-width="1.5" stroke-linejoin="round"/>
<path d="M124.784 99.9996V98.914C124.784 94.9963 127.96 91.8203 131.878 91.8203V91.8203C135.796 91.8203 138.972 94.9963 138.972 98.9141V99.9996" stroke="#019E94" stroke-width="1.5" stroke-linejoin="round"/>
<path d="M99.4502 100V96.3543C99.4502 92.1567 102.853 88.7539 107.051 88.7539V88.7539C111.248 88.7539 114.651 92.1567 114.651 96.3543V100" stroke="#019E94" stroke-width="1.5" stroke-linejoin="round"/>
<path d="M59.9277 82.6172V99.9981H153.16V82.6172" stroke="#00A695" stroke-width="3" stroke-linejoin="round"/>
<path d="M17.8711 100H193.188" stroke="url(#paint8_linear_2836_659)" stroke-width="3" stroke-linecap="round"/>
<defs>
<linearGradient id="paint0_linear_2836_659" x1="178.302" y1="12.3789" x2="178.302" y2="33.3527" gradientUnits="userSpaceOnUse">
<stop stop-color="#ACDFDB" stop-opacity="0.64"/>
<stop offset="1" stop-color="#00A695"/>
</linearGradient>
<linearGradient id="paint1_linear_2836_659" x1="77.7449" y1="0" x2="77.7449" y2="60.0831" gradientUnits="userSpaceOnUse">
<stop stop-color="#ACDFDB" stop-opacity="0.64"/>
<stop offset="1" stop-color="#00A695"/>
</linearGradient>
<linearGradient id="paint2_linear_2836_659" x1="106.29" y1="38.1445" x2="106.29" y2="51.4358" gradientUnits="userSpaceOnUse">
<stop stop-color="#ACDFDB" stop-opacity="0.64"/>
<stop offset="1" stop-color="#00A695"/>
</linearGradient>
<linearGradient id="paint3_linear_2836_659" x1="106.29" y1="38.1445" x2="106.29" y2="51.4358" gradientUnits="userSpaceOnUse">
<stop stop-color="#DEFFFA"/>
<stop offset="1" stop-color="#00A695"/>
</linearGradient>
<linearGradient id="paint4_linear_2836_659" x1="106.037" y1="81.5977" x2="106.037" y2="100.001" gradientUnits="userSpaceOnUse">
<stop stop-color="#00708D"/>
<stop offset="1" stop-color="#00A695"/>
</linearGradient>
<linearGradient id="paint5_linear_2836_659" x1="107.051" y1="52.9688" x2="107.051" y2="65.2376" gradientUnits="userSpaceOnUse">
<stop stop-color="#006C8D"/>
<stop offset="0.524" stop-color="#009C94"/>
<stop offset="1" stop-color="#00A695"/>
</linearGradient>
<linearGradient id="paint6_linear_2836_659" x1="105.277" y1="62.1719" x2="105.277" y2="82.62" gradientUnits="userSpaceOnUse">
<stop stop-color="#BFD2AA"/>
<stop offset="1" stop-color="#01A695"/>
</linearGradient>
<linearGradient id="paint7_linear_2836_659" x1="105.277" y1="62.1719" x2="105.277" y2="82.62" gradientUnits="userSpaceOnUse">
<stop stop-color="#DEFFFA"/>
<stop offset="1" stop-color="#00A695"/>
</linearGradient>
<linearGradient id="paint8_linear_2836_659" x1="17.8711" y1="100.5" x2="193.188" y2="100.5" gradientUnits="userSpaceOnUse">
<stop stop-color="#C8F1EF" stop-opacity="0.3"/>
<stop offset="0.234379" stop-color="#A5E0DA"/>
<stop offset="0.364" stop-color="#2FB7A9"/>
<stop offset="0.5" stop-color="#00A695"/>
<stop offset="0.624" stop-color="#2EB6A9"/>
<stop offset="0.774916" stop-color="#ACE2DE"/>
<stop offset="1" stop-color="#C8F1EF" stop-opacity="0.3"/>
</linearGradient>
</defs>
</svg>
