<svg width="1920" height="1665" viewBox="0 0 1920 1665" fill="none" xmlns="http://www.w3.org/2000/svg">
<g opacity="0.08">
<mask id="mask0_891_2437" style="mask-type:luminance" maskUnits="userSpaceOnUse" x="-454" y="-11" width="2669" height="2414">
<path d="M-372.75 -7.04742C-501.764 139.052 -495.528 337.398 -78.3229 584.263C267.213 788.733 573.93 894.487 833.248 983.899C1307.89 1147.56 1624.39 1256.7 1731.77 1813.54C1773.71 2031.07 1865.41 2190.39 1980.43 2306.31C2014.87 2341.02 2051.42 2371.85 2089.34 2399.19L2087.26 2402.95C2048.53 2375.13 2011.22 2343.72 1976.08 2308.3C1860.28 2191.58 1767.99 2031.34 1725.84 1812.74C1619.13 1259.32 1304.39 1150.79 832.396 988.044C572.665 898.482 265.476 792.57 -80.9345 587.582C-503.147 337.755 -509.257 137.319 -378.848 -10.1079L-372.744 -7.04423L-372.75 -7.04742ZM-366.321 -3.82115C-478.913 140.382 -456.725 332.468 -56.6878 569.186C288.848 773.656 595.571 879.413 854.889 968.826C1329.53 1132.49 1646.04 1241.62 1753.41 1798.47C1795.34 2015.99 1887.04 2175.32 2002.06 2291.24C2033.63 2323.07 2066.98 2351.62 2101.53 2377.22L2099.44 2380.99C2064.09 2354.9 2029.99 2325.76 1997.71 2293.23C1881.91 2176.52 1789.62 2016.27 1747.47 1797.68C1640.75 1244.25 1326.02 1135.72 854.032 972.978C594.302 883.416 287.102 777.494 -59.3062 572.518C-464.288 332.869 -486.347 138.69 -372.407 -6.87526L-366.321 -3.82115ZM-358.546 0.0809784C-454.672 142.003 -417.791 327.636 -35.0487 554.117C310.483 758.58 617.202 864.329 876.525 953.749C1351.16 1117.41 1667.66 1226.55 1775.04 1783.39C1816.99 2000.91 1908.67 2160.24 2023.69 2276.16C2052.4 2305.09 2082.57 2331.33 2113.78 2355.1L2111.68 2358.89C2079.68 2334.62 2048.75 2307.79 2019.35 2278.15C1903.55 2161.43 1811.26 2001.19 1769.11 1782.59C1662.39 1229.17 1347.66 1120.64 875.67 957.898C615.939 868.335 308.739 762.413 -37.6689 557.437C-425.302 328.062 -462.102 140.333 -364.632 -2.97314L-358.546 0.0809784ZM-349.214 4.76417C-428.906 144.007 -378.64 322.927 -13.4137 539.04C332.122 743.51 638.839 849.264 898.157 938.676C1372.8 1102.34 1689.31 1211.47 1796.68 1768.32C1838.62 1985.84 1930.32 2145.17 2045.33 2261.08C2071.17 2287.14 2098.21 2311 2126.12 2332.85L2124.01 2336.66C2095.31 2314.3 2067.53 2289.83 2040.98 2263.08C1925.18 2146.36 1832.89 1986.11 1790.74 1767.52C1684.04 1214.09 1369.29 1105.57 897.298 942.818C637.568 853.256 330.378 747.343 -16.0403 542.357C-386.133 323.363 -436.445 142.314 -355.395 1.66223L-349.214 4.76417ZM-338.25 10.2667C-401.633 146.412 -339.256 318.352 8.22546 523.971C353.757 728.434 660.474 834.187 919.796 923.607C1394.44 1087.27 1710.95 1196.4 1818.32 1753.24C1860.26 1970.77 1951.96 2130.09 2066.97 2246.01C2089.96 2269.18 2113.9 2290.63 2138.54 2310.45L2136.42 2314.29C2110.99 2293.92 2086.31 2271.87 2062.62 2247.99C1946.82 2131.28 1854.53 1971.03 1812.39 1752.44C1705.67 1199.02 1390.93 1090.49 918.948 927.743C659.218 838.181 352.018 732.259 5.60978 527.283C-346.74 318.802 -409.254 144.72 -344.513 7.1233L-338.25 10.2667ZM-325.475 16.6778C-372.786 149.273 -299.592 313.948 29.8583 508.898C375.396 713.364 682.119 819.121 941.435 908.537C1416.07 1072.19 1732.58 1181.33 1839.95 1738.18C1881.89 1955.7 1973.58 2115.03 2088.6 2230.94C2108.74 2251.24 2129.6 2270.22 2151.03 2287.93L2148.89 2291.79C2126.69 2273.52 2105.09 2253.94 2084.26 2232.94C1968.46 2116.22 1876.17 1955.98 1834.02 1737.38C1727.31 1183.96 1412.57 1075.43 940.574 912.683C680.844 823.121 373.65 717.201 27.238 512.218C-307.03 314.417 -380.422 147.594 -331.789 13.5089L-325.475 16.6778ZM-310.604 24.1409C-342.15 152.702 -259.536 309.773 51.4955 493.817C397.031 698.287 703.748 804.041 963.066 893.453C1437.7 1057.12 1754.22 1166.26 1861.59 1723.09C1903.53 1940.63 1995.22 2099.94 2110.24 2215.86C2127.53 2233.28 2145.35 2249.73 2163.61 2265.25L2161.45 2269.13C2142.43 2253.05 2123.88 2235.98 2105.9 2217.85C1990.1 2101.14 1897.81 1940.89 1855.66 1722.3C1748.94 1168.87 1434.21 1060.34 962.22 897.601C702.49 808.039 395.29 702.116 48.8839 497.136C-266.961 310.248 -349.889 151.003 -317.052 20.9051L-310.61 24.1377L-310.604 24.1409ZM-293.402 32.774C-309.635 156.782 -219.04 305.86 73.1347 478.748C418.673 683.214 725.383 788.964 984.706 878.384C1459.35 1042.04 1775.85 1151.18 1883.23 1708.03C1925.17 1925.55 2016.87 2084.87 2131.87 2200.79C2146.32 2215.35 2161.13 2229.22 2176.26 2242.43L2174.09 2246.35C2158.2 2232.54 2142.67 2218.03 2127.53 2202.78C2011.74 2086.07 1919.44 1925.82 1877.29 1707.23C1770.58 1153.8 1455.84 1045.28 983.847 882.525C724.116 792.963 416.92 687.048 70.5144 482.068C-226.465 306.335 -317.516 155.047 -300.034 29.4458L-293.408 32.7709L-293.402 32.774ZM-273.55 42.7366C-275.068 161.614 -177.999 302.267 94.7675 463.675C440.305 668.141 747.022 773.894 1006.35 863.31C1480.98 1026.97 1797.48 1136.11 1904.86 1692.95C1946.81 1910.48 2038.5 2069.8 2153.52 2185.72C2165.11 2197.41 2176.95 2208.66 2188.99 2219.48L2186.8 2223.42C2174.02 2212 2161.46 2200.11 2149.18 2187.72C2033.37 2071 1941.09 1910.75 1898.93 1692.16C1792.22 1138.73 1477.49 1030.21 1005.49 867.459C745.761 777.897 438.568 671.977 92.1558 466.994C-185.45 302.729 -283.115 159.828 -280.411 39.2935L-273.557 42.7334L-273.55 42.7366ZM-250.618 54.2453C-238.196 167.342 -136.297 299.064 116.411 448.597C461.947 653.068 768.664 758.821 1027.98 848.234C1502.62 1011.9 1819.13 1121.03 1926.5 1677.87C1968.44 1895.4 2060.14 2054.72 2175.14 2170.64C2183.9 2179.47 2192.79 2188.03 2201.8 2196.36L2199.6 2200.33C2189.85 2191.38 2180.25 2182.15 2170.8 2172.63C2055 2055.91 1962.71 1895.67 1920.57 1677.08C1813.84 1123.65 1499.11 1015.12 1027.12 852.383C767.388 762.821 460.188 656.898 113.782 451.918C-143.788 299.511 -246.441 165.488 -257.752 50.6652L-250.624 54.2421L-250.618 54.2453ZM-224.02 67.5935C-198.668 174.168 -93.7848 296.346 138.044 433.525C483.58 637.995 790.292 743.741 1049.61 833.161C1524.25 996.82 1840.76 1105.96 1948.14 1662.81C1990.07 1880.33 2081.76 2039.65 2196.78 2155.57C2202.7 2161.53 2208.67 2167.37 2214.7 2173.1L2212.48 2177.1C2205.72 2170.73 2199.04 2164.22 2192.44 2157.56C2076.64 2040.85 1984.35 1880.6 1942.2 1662.01C1835.49 1108.58 1520.75 1000.05 1048.75 837.306C789.021 747.748 481.834 641.832 135.421 436.849C-101.335 296.753 -207.221 172.195 -231.58 63.7998L-224.02 67.5935Z" fill="white"/>
<path fill-rule="evenodd" clip-rule="evenodd" d="M-372.75 -7.04742C-501.764 139.052 -495.528 337.398 -78.3229 584.263C267.213 788.733 573.93 894.487 833.248 983.899C1307.89 1147.56 1624.39 1256.7 1731.77 1813.54C1773.71 2031.07 1865.41 2190.39 1980.43 2306.31C2014.87 2341.02 2051.42 2371.85 2089.34 2399.19L2087.26 2402.95C2048.53 2375.13 2011.22 2343.72 1976.08 2308.3C1860.28 2191.58 1767.99 2031.34 1725.84 1812.74C1619.13 1259.32 1304.39 1150.79 832.396 988.044C572.665 898.482 265.476 792.57 -80.9345 587.582C-503.147 337.755 -509.257 137.319 -378.848 -10.1079L-372.744 -7.04423L-372.75 -7.04742ZM-366.321 -3.82115C-478.913 140.382 -456.725 332.468 -56.6878 569.186C288.848 773.656 595.571 879.413 854.889 968.826C1329.53 1132.49 1646.04 1241.62 1753.41 1798.47C1795.34 2015.99 1887.04 2175.32 2002.06 2291.24C2033.63 2323.07 2066.98 2351.62 2101.53 2377.22L2099.44 2380.99C2064.09 2354.9 2029.99 2325.76 1997.71 2293.23C1881.91 2176.52 1789.62 2016.27 1747.47 1797.68C1640.75 1244.25 1326.02 1135.72 854.032 972.978C594.302 883.416 287.102 777.494 -59.3062 572.518C-464.288 332.869 -486.347 138.69 -372.407 -6.87526L-366.321 -3.82115ZM-358.546 0.0809784C-454.672 142.003 -417.791 327.636 -35.0487 554.117C310.483 758.58 617.202 864.329 876.525 953.749C1351.16 1117.41 1667.66 1226.55 1775.04 1783.39C1816.99 2000.91 1908.67 2160.24 2023.69 2276.16C2052.4 2305.09 2082.57 2331.33 2113.78 2355.1L2111.68 2358.89C2079.68 2334.62 2048.75 2307.79 2019.35 2278.15C1903.55 2161.43 1811.26 2001.19 1769.11 1782.59C1662.39 1229.17 1347.66 1120.64 875.67 957.898C615.939 868.335 308.739 762.413 -37.6689 557.437C-425.302 328.062 -462.102 140.333 -364.632 -2.97314L-358.546 0.0809784ZM-349.214 4.76417C-428.906 144.007 -378.64 322.927 -13.4137 539.04C332.122 743.51 638.839 849.264 898.157 938.676C1372.8 1102.34 1689.31 1211.47 1796.68 1768.32C1838.62 1985.84 1930.32 2145.17 2045.33 2261.08C2071.17 2287.14 2098.21 2311 2126.12 2332.85L2124.01 2336.66C2095.31 2314.3 2067.53 2289.83 2040.98 2263.08C1925.18 2146.36 1832.89 1986.11 1790.74 1767.52C1684.04 1214.09 1369.29 1105.57 897.298 942.818C637.568 853.256 330.378 747.343 -16.0403 542.357C-386.133 323.363 -436.445 142.314 -355.395 1.66223L-349.214 4.76417ZM-338.25 10.2667C-401.633 146.412 -339.256 318.352 8.22546 523.971C353.757 728.434 660.474 834.187 919.796 923.607C1394.44 1087.27 1710.95 1196.4 1818.32 1753.24C1860.26 1970.77 1951.96 2130.09 2066.97 2246.01C2089.96 2269.18 2113.9 2290.63 2138.54 2310.45L2136.42 2314.29C2110.99 2293.92 2086.31 2271.87 2062.62 2247.99C1946.82 2131.28 1854.53 1971.03 1812.39 1752.44C1705.67 1199.02 1390.93 1090.49 918.948 927.743C659.218 838.181 352.018 732.259 5.60978 527.283C-346.74 318.802 -409.254 144.72 -344.513 7.1233L-338.25 10.2667ZM-325.475 16.6778C-372.786 149.273 -299.592 313.948 29.8583 508.898C375.396 713.364 682.119 819.121 941.435 908.537C1416.07 1072.19 1732.58 1181.33 1839.95 1738.18C1881.89 1955.7 1973.58 2115.03 2088.6 2230.94C2108.74 2251.24 2129.6 2270.22 2151.03 2287.93L2148.89 2291.79C2126.69 2273.52 2105.09 2253.94 2084.26 2232.94C1968.46 2116.22 1876.17 1955.98 1834.02 1737.38C1727.31 1183.96 1412.57 1075.43 940.574 912.683C680.844 823.121 373.65 717.201 27.238 512.218C-307.03 314.417 -380.422 147.594 -331.789 13.5089L-325.475 16.6778ZM-310.604 24.1409C-342.15 152.702 -259.536 309.773 51.4955 493.817C397.031 698.287 703.748 804.041 963.066 893.453C1437.7 1057.12 1754.22 1166.26 1861.59 1723.09C1903.53 1940.63 1995.22 2099.94 2110.24 2215.86C2127.53 2233.28 2145.35 2249.73 2163.61 2265.25L2161.45 2269.13C2142.43 2253.05 2123.88 2235.98 2105.9 2217.85C1990.1 2101.14 1897.81 1940.89 1855.66 1722.3C1748.94 1168.87 1434.21 1060.34 962.22 897.601C702.49 808.039 395.29 702.116 48.8839 497.136C-266.961 310.248 -349.889 151.003 -317.052 20.9051L-310.61 24.1377L-310.604 24.1409ZM-293.402 32.774C-309.635 156.782 -219.04 305.86 73.1347 478.748C418.673 683.214 725.383 788.964 984.706 878.384C1459.35 1042.04 1775.85 1151.18 1883.23 1708.03C1925.17 1925.55 2016.87 2084.87 2131.87 2200.79C2146.32 2215.35 2161.13 2229.22 2176.26 2242.43L2174.09 2246.35C2158.2 2232.54 2142.67 2218.03 2127.53 2202.78C2011.74 2086.07 1919.44 1925.82 1877.29 1707.23C1770.58 1153.8 1455.84 1045.28 983.847 882.525C724.116 792.963 416.92 687.048 70.5144 482.068C-226.465 306.335 -317.516 155.047 -300.034 29.4458L-293.408 32.7709L-293.402 32.774ZM-273.55 42.7366C-275.068 161.614 -177.999 302.267 94.7675 463.675C440.305 668.141 747.022 773.894 1006.35 863.31C1480.98 1026.97 1797.48 1136.11 1904.86 1692.95C1946.81 1910.48 2038.5 2069.8 2153.52 2185.72C2165.11 2197.41 2176.95 2208.66 2188.99 2219.48L2186.8 2223.42C2174.02 2212 2161.46 2200.11 2149.18 2187.72C2033.37 2071 1941.09 1910.75 1898.93 1692.16C1792.22 1138.73 1477.49 1030.21 1005.49 867.459C745.761 777.897 438.568 671.977 92.1558 466.994C-185.45 302.729 -283.115 159.828 -280.411 39.2935L-273.557 42.7334L-273.55 42.7366ZM-250.618 54.2453C-238.196 167.342 -136.297 299.064 116.411 448.597C461.947 653.068 768.664 758.821 1027.98 848.234C1502.62 1011.9 1819.13 1121.03 1926.5 1677.87C1968.44 1895.4 2060.14 2054.72 2175.14 2170.64C2183.9 2179.47 2192.79 2188.03 2201.8 2196.36L2199.6 2200.33C2189.85 2191.38 2180.25 2182.15 2170.8 2172.63C2055 2055.91 1962.71 1895.67 1920.57 1677.08C1813.84 1123.65 1499.11 1015.12 1027.12 852.383C767.388 762.821 460.188 656.898 113.782 451.918C-143.788 299.511 -246.441 165.488 -257.752 50.6652L-250.624 54.2421L-250.618 54.2453ZM-224.02 67.5935C-198.668 174.168 -93.7848 296.346 138.044 433.525C483.58 637.995 790.292 743.741 1049.61 833.161C1524.25 996.82 1840.76 1105.96 1948.14 1662.81C1990.07 1880.33 2081.76 2039.65 2196.78 2155.57C2202.7 2161.53 2208.67 2167.37 2214.7 2173.1L2212.48 2177.1C2205.72 2170.73 2199.04 2164.22 2192.44 2157.56C2076.64 2040.85 1984.35 1880.6 1942.2 1662.01C1835.49 1108.58 1520.75 1000.05 1048.75 837.306C789.021 747.748 481.834 641.832 135.421 436.849C-101.335 296.753 -207.221 172.195 -231.58 63.7998L-224.02 67.5935Z" fill="white"/>
</mask>
<g mask="url(#mask0_891_2437)">
<path d="M2736.58 1511.05L-275.867 0.253906L-785.557 918.59L2226.89 2429.38L2736.58 1511.05Z" fill="url(#paint0_linear_891_2437)"/>
</g>
</g>
<defs>
<linearGradient id="paint0_linear_891_2437" x1="-530.712" y1="459.422" x2="2413.35" y2="2093.42" gradientUnits="userSpaceOnUse">
<stop stop-color="#00A695" stop-opacity="0"/>
<stop offset="1" stop-color="#00A695"/>
</linearGradient>
</defs>
</svg>
