<svg width="322" height="392" viewBox="0 0 322 392" fill="none" xmlns="http://www.w3.org/2000/svg">
<g filter="url(#filter0_d_1281_374)">
<path d="M16 46.2C16 29.521 29.521 16 46.2 16H284.11C300.789 16 314.31 29.521 314.31 46.2V353.46C314.31 370.139 300.789 383.66 284.11 383.66H46.2001C29.5211 383.66 16 370.139 16 353.46V46.2Z" fill="#FAFAFA"/>
</g>
<path d="M108.621 300.463C109.55 300.463 110.347 300.561 111.013 300.758C111.679 300.949 112.19 301.23 112.546 301.601C112.902 301.973 113.08 302.419 113.08 302.941C113.08 303.462 112.902 303.908 112.546 304.28C112.19 304.657 111.676 304.943 111.006 305.139C110.34 305.341 109.545 305.444 108.621 305.449C107.692 305.444 106.892 305.341 106.221 305.139C105.55 304.943 105.034 304.657 104.673 304.28C104.317 303.908 104.141 303.462 104.146 302.941C104.141 302.419 104.317 301.973 104.673 301.601C105.034 301.23 105.55 300.949 106.221 300.758C106.892 300.561 107.692 300.463 108.621 300.463ZM108.621 301.253C107.909 301.253 107.287 301.323 106.755 301.462C106.224 301.596 105.813 301.792 105.524 302.05C105.241 302.303 105.101 302.6 105.106 302.941C105.101 303.287 105.241 303.588 105.524 303.847C105.813 304.099 106.224 304.293 106.755 304.427C107.287 304.561 107.909 304.628 108.621 304.628C109.333 304.628 109.953 304.561 110.479 304.427C111.011 304.293 111.418 304.099 111.702 303.847C111.991 303.588 112.136 303.287 112.136 302.941C112.136 302.6 111.991 302.303 111.702 302.05C111.418 301.792 111.011 301.596 110.479 301.462C109.953 301.323 109.333 301.253 108.621 301.253ZM112.972 295.323H115.078V296.175H112.972V300.076H111.996V291.808H112.972V295.323ZM103.93 294.858H108.296V292.644H109.256V298.915H102.97V292.644H103.93V294.858ZM108.296 298.094V295.648H103.93V298.094H108.296ZM127.762 299.689H122.064V302.631H121.104V299.689H115.267V298.869H127.762V299.689ZM126.121 297.15H116.908V292.474H126.121V297.15ZM117.868 296.36H125.161V293.279H117.868V296.36ZM126.369 305.139H116.908V301.238H117.884V304.319H126.369V305.139ZM134.439 292.056C135.441 292.056 136.297 292.149 137.01 292.335C137.727 292.515 138.274 292.784 138.651 293.14C139.033 293.491 139.224 293.919 139.224 294.425C139.224 294.936 139.033 295.372 138.651 295.733C138.274 296.089 137.727 296.36 137.01 296.546C136.297 296.732 135.441 296.825 134.439 296.825C133.438 296.825 132.579 296.732 131.861 296.546C131.149 296.36 130.602 296.089 130.22 295.733C129.843 295.372 129.655 294.936 129.655 294.425C129.655 293.919 129.843 293.491 130.22 293.14C130.602 292.784 131.149 292.515 131.861 292.335C132.579 292.149 133.438 292.056 134.439 292.056ZM134.439 292.815C133.665 292.815 132.994 292.882 132.426 293.016C131.859 293.145 131.423 293.331 131.118 293.573C130.814 293.811 130.661 294.095 130.661 294.425C130.661 294.766 130.814 295.06 131.118 295.307C131.423 295.555 131.856 295.744 132.419 295.873C132.986 296.002 133.66 296.066 134.439 296.066C135.219 296.066 135.892 296.002 136.46 295.873C137.033 295.744 137.471 295.555 137.776 295.307C138.08 295.06 138.233 294.766 138.233 294.425C138.233 294.095 138.08 293.811 137.776 293.573C137.471 293.331 137.033 293.145 136.46 293.016C135.892 292.882 135.219 292.815 134.439 292.815ZM140.679 298.652H128.23V297.847H140.679V298.652ZM139.038 302.879H130.754V304.489H139.471V305.294H129.81V302.12H138.093V300.727H129.763V299.952H139.038V302.879ZM148.428 292.474C149.089 292.474 149.675 292.585 150.186 292.807C150.696 293.024 151.094 293.333 151.378 293.736C151.662 294.138 151.804 294.606 151.804 295.137C151.804 295.612 151.685 296.04 151.447 296.422C151.215 296.799 150.882 297.106 150.449 297.343C150.02 297.576 149.522 297.72 148.955 297.777V299.217C150.472 299.14 151.798 299.013 152.934 298.838L153.011 299.581C151.711 299.813 150.346 299.968 148.916 300.045C147.491 300.118 145.977 300.154 144.371 300.154L144.248 299.318H144.944C145.971 299.318 146.983 299.3 147.979 299.263V297.785C147.401 297.733 146.89 297.591 146.446 297.359C146.002 297.127 145.659 296.82 145.417 296.438C145.174 296.056 145.053 295.622 145.053 295.137C145.053 294.606 145.195 294.138 145.479 293.736C145.762 293.333 146.16 293.024 146.671 292.807C147.182 292.585 147.768 292.474 148.428 292.474ZM148.428 293.233C147.953 293.233 147.528 293.315 147.151 293.48C146.779 293.64 146.49 293.865 146.284 294.154C146.077 294.443 145.977 294.771 145.982 295.137C145.977 295.504 146.077 295.831 146.284 296.12C146.49 296.404 146.779 296.629 147.151 296.794C147.528 296.954 147.953 297.036 148.428 297.042C148.908 297.036 149.334 296.954 149.706 296.794C150.077 296.629 150.366 296.404 150.573 296.12C150.779 295.831 150.885 295.504 150.89 295.137C150.885 294.771 150.779 294.443 150.573 294.154C150.366 293.865 150.077 293.64 149.706 293.48C149.334 293.315 148.908 293.233 148.428 293.233ZM154.823 296.546H156.959V297.382H154.823V302.275H153.847V291.808H154.823V296.546ZM155.334 305.124H146.307V301.361H147.282V304.288H155.334V305.124ZM169.706 303.715H157.195V302.879H160.819V300.123H158.806V296.035H167.12V293.682H158.759V292.861H168.08V296.856H159.766V299.302H168.405V300.123H166.191V302.879H169.706V303.715ZM165.231 302.879V300.123H161.779V302.879H165.231ZM181.694 300.293H180.765V296.469H178.737V300.061H177.808V292.04H178.737V295.648H180.765V291.808H181.694V300.293ZM177.173 294.27H170.066V293.449H173.147V291.855H174.122V293.449H177.173V294.27ZM173.627 295.044C174.2 295.044 174.706 295.14 175.144 295.331C175.588 295.516 175.931 295.785 176.174 296.136C176.422 296.487 176.548 296.897 176.553 297.367C176.548 297.831 176.422 298.239 176.174 298.59C175.931 298.941 175.588 299.212 175.144 299.403C174.706 299.594 174.2 299.689 173.627 299.689C173.054 299.689 172.546 299.594 172.102 299.403C171.658 299.212 171.315 298.941 171.072 298.59C170.83 298.239 170.711 297.831 170.716 297.367C170.711 296.897 170.83 296.487 171.072 296.136C171.315 295.785 171.655 295.516 172.094 295.331C172.538 295.14 173.049 295.044 173.627 295.044ZM173.627 295.803C173.23 295.803 172.876 295.867 172.566 295.996C172.257 296.125 172.014 296.309 171.839 296.546C171.668 296.784 171.583 297.057 171.583 297.367C171.583 297.671 171.668 297.942 171.839 298.18C172.014 298.417 172.257 298.603 172.566 298.737C172.876 298.866 173.23 298.931 173.627 298.931C174.024 298.931 174.375 298.866 174.68 298.737C174.99 298.603 175.23 298.417 175.4 298.18C175.57 297.942 175.655 297.671 175.655 297.367C175.655 297.057 175.57 296.784 175.4 296.546C175.23 296.309 174.99 296.125 174.68 295.996C174.375 295.867 174.024 295.803 173.627 295.803ZM174.85 301.222C174.845 301.64 174.92 302.053 175.075 302.461C175.23 302.863 175.462 303.238 175.771 303.583C176.081 303.929 176.458 304.216 176.902 304.443C177.33 304.195 177.702 303.888 178.017 303.521C178.337 303.155 178.579 302.77 178.744 302.368C178.909 301.96 178.995 301.578 179 301.222V300.68H179.944V301.222C179.944 301.676 180.063 302.123 180.3 302.561C180.538 303 180.873 303.395 181.307 303.746C181.74 304.092 182.241 304.355 182.809 304.536L182.329 305.294C181.647 305.057 181.059 304.708 180.564 304.249C180.068 303.79 179.702 303.268 179.464 302.685C179.242 303.274 178.915 303.81 178.481 304.296C178.053 304.786 177.534 305.16 176.925 305.418C176.28 305.165 175.738 304.804 175.299 304.334C174.866 303.865 174.548 303.33 174.347 302.732C174.094 303.294 173.722 303.803 173.232 304.257C172.747 304.706 172.182 305.052 171.537 305.294L171.041 304.536C171.594 304.345 172.086 304.071 172.52 303.715C172.953 303.354 173.289 302.954 173.526 302.515C173.769 302.076 173.89 301.645 173.89 301.222V300.68H174.85V301.222ZM185.692 301.733H192.908V299.999H193.898V305.263H184.717V299.999H185.692V301.733ZM192.908 304.458V302.538H185.692V304.458H192.908ZM195.54 298.946H183.091V298.11H195.54V298.946ZM189.811 292.66C189.811 293.227 190.064 293.767 190.57 294.278C191.08 294.789 191.723 295.22 192.497 295.571C193.271 295.916 194.038 296.144 194.796 296.252L194.425 297.026C193.738 296.918 193.055 296.727 192.373 296.453C191.697 296.175 191.086 295.826 190.539 295.408C189.997 294.99 189.589 294.523 189.315 294.007C189.047 294.523 188.642 294.993 188.1 295.416C187.558 295.834 186.946 296.18 186.265 296.453C185.584 296.727 184.897 296.918 184.206 297.026L183.834 296.252C184.608 296.138 185.38 295.911 186.149 295.571C186.923 295.23 187.561 294.807 188.061 294.301C188.567 293.79 188.82 293.243 188.82 292.66V291.948H189.811V292.66ZM207.218 305.465H206.258V291.808H207.218V305.465ZM197.928 301.021H198.052C199.182 301.021 200.289 300.969 201.373 300.866C202.462 300.763 203.569 300.592 204.694 300.355L204.833 301.207C203.667 301.454 202.537 301.63 201.443 301.733C200.348 301.836 199.218 301.888 198.052 301.888H196.968V293.155H197.928V301.021ZM219.5 297.32H221.853V298.141H219.5V305.48H218.524V291.808H219.5V297.32ZM210.659 301.176C212.032 301.176 213.198 301.142 214.158 301.075C215.123 301.008 216.104 300.881 217.1 300.696L217.239 301.547C216.207 301.733 215.201 301.859 214.22 301.927C213.239 301.994 212.052 302.027 210.659 302.027H209.606V293.155H215.97V293.976H210.581V301.176H210.659ZM223.282 304.334C223.049 304.334 222.851 304.254 222.685 304.094C222.525 303.934 222.445 303.741 222.445 303.514C222.445 303.281 222.525 303.085 222.685 302.925C222.851 302.76 223.049 302.678 223.282 302.678C223.509 302.678 223.702 302.76 223.862 302.925C224.022 303.085 224.102 303.281 224.102 303.514C224.102 303.736 224.022 303.929 223.862 304.094C223.702 304.254 223.509 304.334 223.282 304.334ZM59.3072 322.257L63.3793 311.047H64.5715L68.6437 322.257H67.4824L66.3057 318.928H61.6452L60.4684 322.257H59.3072ZM65.9573 317.952L64.0141 312.471H63.9367L61.9936 317.952H65.9573ZM69.5144 311.047H73.184C73.9685 311.047 74.6343 311.189 75.1814 311.473C75.7284 311.757 76.1387 312.154 76.4123 312.665C76.6858 313.171 76.8226 313.756 76.8226 314.422C76.8226 315.186 76.642 315.842 76.2807 316.389C75.9246 316.931 75.4033 317.315 74.7169 317.542L77.2871 322.257H76.0175L73.5866 317.751L73.1995 317.767H70.6138V322.257H69.5144V311.047ZM73.153 316.76C74.0098 316.76 74.6549 316.556 75.0885 316.149C75.522 315.736 75.7388 315.16 75.7388 314.422C75.7388 313.679 75.5194 313.096 75.0807 312.673C74.6472 312.249 73.9995 312.038 73.1375 312.038H70.6138V316.76H73.153ZM87.6838 311.264C87.6735 313.38 87.1858 315.276 86.2206 316.954C85.2607 318.626 83.6427 320.017 81.3666 321.127L80.8092 320.383C83.3072 319.176 85.0104 317.54 85.9187 315.475L81.026 315.94L80.8402 315.057L86.2284 314.685C86.4968 313.87 86.6542 313.003 86.7006 312.084H81.5214V311.264H87.6838ZM91.1211 315.475H93.4282V316.296H91.1211V323.465H90.1457V309.808H91.1211V315.475ZM99.2691 315.011H101.561V310.118H102.505V322.752H101.561V315.847H99.2691V319.702H94.0976V311.449H99.2691V315.011ZM95.0112 318.897H98.3401V312.255H95.0112V318.897ZM105.215 323.465H104.27V309.808H105.215V323.465ZM117.017 315.32H119.37V316.172H117.017V323.48H116.041V309.808H117.017V315.32ZM108.129 319.3C109.549 319.3 110.749 319.266 111.729 319.199C112.71 319.127 113.708 318.995 114.725 318.804L114.834 319.625C113.776 319.821 112.746 319.955 111.745 320.027C110.749 320.099 109.543 320.136 108.129 320.136H107.061V315.042H112.232V311.945H107.03V311.109H113.208V315.878H108.036V319.3H108.129ZM131.962 321.715H119.451V320.879H125.18V318.123H121.062V314.035H129.376V311.682H121.015V310.861H130.336V314.856H122.022V317.302H130.661V318.123H126.156V320.879H131.962V321.715ZM143.009 311.387C142.999 312.079 142.97 312.696 142.924 313.238C142.883 313.78 142.782 314.407 142.622 315.119L141.646 315.026C141.806 314.334 141.91 313.718 141.956 313.176C142.008 312.629 142.034 312.079 142.034 311.527H136.274V310.691H143.009V311.387ZM139.448 316.42C141.213 316.358 142.766 316.239 144.108 316.063L144.17 316.791C142.028 317.142 139.339 317.318 136.103 317.318H135.53L135.422 316.482C136.496 316.482 137.518 316.471 138.488 316.451V313.633H139.448V316.42ZM146.075 313.664H148.18V314.5H146.075V318.401H145.099V309.808H146.075V313.664ZM141.708 318.572C142.637 318.572 143.437 318.667 144.108 318.858C144.784 319.044 145.301 319.318 145.657 319.679C146.018 320.04 146.199 320.471 146.199 320.972C146.199 321.488 146.018 321.929 145.657 322.296C145.301 322.662 144.787 322.941 144.116 323.132C143.445 323.323 142.643 323.418 141.708 323.418C140.779 323.418 139.977 323.323 139.301 323.132C138.63 322.941 138.116 322.662 137.76 322.296C137.404 321.929 137.228 321.488 137.234 320.972C137.228 320.471 137.404 320.04 137.76 319.679C138.121 319.318 138.637 319.044 139.308 318.858C139.985 318.667 140.785 318.572 141.708 318.572ZM141.708 319.346C140.996 319.346 140.374 319.413 139.843 319.547C139.316 319.681 138.908 319.872 138.619 320.12C138.336 320.363 138.194 320.647 138.194 320.972C138.194 321.312 138.336 321.607 138.619 321.854C138.908 322.102 139.316 322.29 139.843 322.419C140.369 322.548 140.991 322.613 141.708 322.613C142.426 322.613 143.048 322.548 143.574 322.419C144.101 322.29 144.506 322.102 144.79 321.854C145.079 321.607 145.223 321.312 145.223 320.972C145.223 320.647 145.079 320.363 144.79 320.12C144.506 319.872 144.098 319.681 143.566 319.547C143.04 319.413 142.421 319.346 141.708 319.346ZM158.899 315.707H161.221V316.543H158.899V323.465H157.939V309.808H158.899V315.707ZM148.246 319.888C149.758 319.888 151.059 319.87 152.148 319.834V318.223C151.601 318.177 151.121 318.045 150.708 317.829C150.3 317.612 149.985 317.325 149.763 316.969C149.541 316.608 149.433 316.198 149.438 315.738C149.433 315.233 149.562 314.789 149.825 314.407C150.089 314.025 150.463 313.731 150.948 313.524C151.433 313.318 151.993 313.215 152.628 313.215C153.257 313.215 153.815 313.32 154.3 313.532C154.785 313.738 155.162 314.033 155.43 314.414C155.699 314.791 155.833 315.233 155.833 315.738C155.833 316.198 155.719 316.605 155.492 316.962C155.27 317.318 154.956 317.604 154.548 317.821C154.14 318.038 153.665 318.172 153.123 318.223V319.795C154.62 319.718 155.926 319.599 157.041 319.439L157.118 320.198C155.786 320.425 154.416 320.572 153.007 320.639C151.603 320.706 150.078 320.739 148.432 320.739L148.246 319.888ZM156.762 312.332H148.478V311.511H152.148V309.808H153.123V311.511H156.762V312.332ZM152.628 313.989C152.179 313.989 151.781 314.064 151.436 314.213C151.095 314.363 150.829 314.572 150.638 314.84C150.447 315.104 150.352 315.403 150.352 315.738C150.352 316.074 150.447 316.373 150.638 316.636C150.829 316.894 151.095 317.096 151.436 317.24C151.781 317.38 152.179 317.447 152.628 317.441C153.077 317.447 153.472 317.38 153.812 317.24C154.153 317.096 154.419 316.894 154.61 316.636C154.801 316.378 154.899 316.079 154.904 315.738C154.899 315.398 154.801 315.096 154.61 314.833C154.419 314.569 154.153 314.363 153.812 314.213C153.472 314.064 153.077 313.989 152.628 313.989ZM173.844 317.689H168.146V320.631H167.186V317.689H161.349V316.869H173.844V317.689ZM172.203 315.15H162.99V310.474H172.203V315.15ZM163.95 314.36H171.243V311.279H163.95V314.36ZM172.45 323.139H162.99V319.238H163.965V322.319H172.45V323.139ZM180.521 310.056C181.522 310.056 182.379 310.149 183.091 310.335C183.808 310.515 184.356 310.784 184.732 311.14C185.114 311.491 185.305 311.919 185.305 312.425C185.305 312.936 185.114 313.372 184.732 313.733C184.356 314.089 183.808 314.36 183.091 314.546C182.379 314.732 181.522 314.825 180.521 314.825C179.52 314.825 178.66 314.732 177.943 314.546C177.231 314.36 176.684 314.089 176.302 313.733C175.925 313.372 175.736 312.936 175.736 312.425C175.736 311.919 175.925 311.491 176.302 311.14C176.684 310.784 177.231 310.515 177.943 310.335C178.66 310.149 179.52 310.056 180.521 310.056ZM180.521 310.815C179.747 310.815 179.076 310.882 178.508 311.016C177.94 311.145 177.504 311.331 177.2 311.573C176.895 311.811 176.743 312.095 176.743 312.425C176.743 312.766 176.895 313.06 177.2 313.307C177.504 313.555 177.938 313.744 178.5 313.873C179.068 314.002 179.741 314.066 180.521 314.066C181.3 314.066 181.974 314.002 182.541 313.873C183.114 313.744 183.553 313.555 183.857 313.307C184.162 313.06 184.314 312.766 184.314 312.425C184.314 312.095 184.162 311.811 183.857 311.573C183.553 311.331 183.114 311.145 182.541 311.016C181.974 310.882 181.3 310.815 180.521 310.815ZM186.761 316.652H174.312V315.847H186.761V316.652ZM185.119 320.879H176.836V322.489H185.553V323.294H175.891V320.12H184.175V318.727H175.845V317.952H185.119V320.879ZM201.555 319.857H200.579V309.808H201.555V319.857ZM202.004 323.139H192.837V318.82H193.813V322.319H202.004V323.139ZM194.216 310.799C194.886 310.799 195.49 310.941 196.027 311.225C196.564 311.504 196.984 311.896 197.289 312.402C197.593 312.902 197.746 313.473 197.746 314.113C197.746 314.758 197.593 315.336 197.289 315.847C196.984 316.353 196.564 316.747 196.027 317.031C195.49 317.31 194.886 317.447 194.216 317.441C193.545 317.447 192.938 317.31 192.396 317.031C191.859 316.747 191.439 316.353 191.134 315.847C190.83 315.336 190.68 314.758 190.685 314.113C190.68 313.473 190.83 312.902 191.134 312.402C191.439 311.896 191.859 311.504 192.396 311.225C192.938 310.941 193.545 310.799 194.216 310.799ZM194.216 311.651C193.725 311.651 193.284 311.759 192.892 311.976C192.499 312.187 192.19 312.482 191.963 312.858C191.741 313.23 191.63 313.648 191.63 314.113C191.63 314.582 191.741 315.005 191.963 315.382C192.19 315.754 192.499 316.045 192.892 316.257C193.284 316.469 193.725 316.574 194.216 316.574C194.701 316.574 195.139 316.469 195.532 316.257C195.929 316.045 196.239 315.754 196.461 315.382C196.688 315.005 196.801 314.582 196.801 314.113C196.801 313.648 196.688 313.23 196.461 312.858C196.234 312.482 195.924 312.187 195.532 311.976C195.139 311.759 194.701 311.651 194.216 311.651ZM207.984 311.79C207.979 312.466 208.131 313.114 208.441 313.733C208.756 314.347 209.184 314.887 209.726 315.351C210.268 315.816 210.869 316.167 211.53 316.404L211.019 317.178C210.214 316.869 209.501 316.412 208.882 315.808C208.263 315.204 207.803 314.505 207.504 313.71C207.215 314.556 206.758 315.305 206.134 315.955C205.514 316.6 204.8 317.091 203.989 317.426L203.463 316.652C204.123 316.399 204.722 316.027 205.259 315.537C205.796 315.042 206.219 314.471 206.528 313.826C206.843 313.176 207.003 312.497 207.008 311.79V310.474H207.984V311.79ZM214.502 323.465H213.527V319.578H205.383V318.773H214.502V323.465ZM214.502 318.061H213.527V309.808H214.502V318.061ZM223.13 313.06H216.194V312.255H219.167V310.226H220.158V312.255H223.13V313.06ZM219.662 314.082C220.225 314.087 220.728 314.221 221.172 314.484C221.616 314.742 221.961 315.104 222.209 315.568C222.462 316.033 222.588 316.559 222.588 317.147C222.588 317.741 222.462 318.272 222.209 318.742C221.961 319.212 221.616 319.578 221.172 319.841C220.728 320.099 220.225 320.229 219.662 320.229C219.1 320.229 218.596 320.099 218.152 319.841C217.709 319.578 217.36 319.212 217.107 318.742C216.86 318.272 216.736 317.741 216.736 317.147C216.736 316.559 216.86 316.033 217.107 315.568C217.36 315.104 217.709 314.742 218.152 314.484C218.596 314.221 219.1 314.087 219.662 314.082ZM219.662 314.918C219.27 314.923 218.916 315.024 218.601 315.22C218.292 315.416 218.049 315.684 217.874 316.025C217.698 316.36 217.613 316.734 217.618 317.147C217.613 317.565 217.698 317.945 217.874 318.285C218.049 318.626 218.292 318.892 218.601 319.083C218.916 319.274 219.27 319.367 219.662 319.361C220.049 319.367 220.398 319.274 220.707 319.083C221.022 318.892 221.267 318.626 221.443 318.285C221.623 317.945 221.716 317.565 221.721 317.147C221.716 316.734 221.623 316.36 221.443 316.025C221.267 315.684 221.022 315.416 220.707 315.22C220.398 315.024 220.049 314.923 219.662 314.918ZM227.806 323.465H226.877V316.451H224.818V322.768H223.905V310.149H224.818V315.63H226.877V309.808H227.806V323.465ZM235.923 311.728C235.923 312.347 236.171 312.933 236.667 313.485C237.167 314.033 237.797 314.492 238.556 314.864C239.314 315.235 240.073 315.48 240.832 315.599L240.46 316.373C239.763 316.244 239.077 316.033 238.401 315.738C237.725 315.439 237.118 315.067 236.581 314.624C236.05 314.175 235.652 313.674 235.389 313.122C235.126 313.669 234.726 314.167 234.189 314.616C233.658 315.065 233.056 315.439 232.385 315.738C231.714 316.033 231.036 316.244 230.349 316.373L229.962 315.599C230.716 315.48 231.472 315.235 232.231 314.864C232.989 314.492 233.616 314.033 234.112 313.485C234.607 312.933 234.855 312.347 234.855 311.728V311.511H230.365V310.706H240.398V311.511H235.923V311.728ZM241.621 318.494H235.846V323.449H234.901V318.494H229.173V317.658H241.621V318.494ZM246.069 313.834C246.069 314.546 246.195 315.266 246.448 315.994C246.701 316.722 247.054 317.385 247.509 317.983C247.963 318.582 248.484 319.052 249.072 319.392L248.484 320.151C247.818 319.749 247.235 319.189 246.734 318.471C246.239 317.754 245.867 316.956 245.62 316.079C245.372 317.023 244.985 317.88 244.458 318.649C243.937 319.418 243.333 320.012 242.647 320.43L241.997 319.702C242.6 319.356 243.14 318.876 243.615 318.262C244.089 317.643 244.461 316.951 244.729 316.187C244.998 315.418 245.135 314.644 245.14 313.865V311.124H246.069V313.834ZM253.779 323.465H252.835V309.808H253.779V323.465ZM250.961 322.752H250.032V315.645H247.54V314.794H250.032V310.118H250.961V322.752ZM267.579 321.653H255.068V320.817H258.258V317.016C257.649 316.711 257.177 316.319 256.841 315.839C256.506 315.359 256.338 314.814 256.338 314.205C256.338 313.514 256.547 312.907 256.965 312.386C257.383 311.86 257.966 311.452 258.715 311.163C259.463 310.874 260.317 310.727 261.277 310.722C262.242 310.727 263.099 310.874 263.847 311.163C264.601 311.452 265.187 311.86 265.605 312.386C266.023 312.907 266.232 313.514 266.232 314.205C266.232 314.804 266.067 315.343 265.736 315.823C265.411 316.298 264.952 316.688 264.358 316.992V320.817H267.579V321.653ZM261.277 311.542C260.508 311.537 259.819 311.646 259.21 311.867C258.601 312.089 258.124 312.404 257.778 312.812C257.437 313.22 257.267 313.684 257.267 314.205C257.267 314.722 257.44 315.181 257.786 315.583C258.131 315.986 258.609 316.301 259.218 316.528C259.827 316.75 260.513 316.858 261.277 316.853C262.041 316.858 262.73 316.75 263.344 316.528C263.958 316.301 264.438 315.986 264.784 315.583C265.13 315.181 265.303 314.722 265.303 314.205C265.303 313.684 265.13 313.22 264.784 312.812C264.438 312.404 263.958 312.089 263.344 311.867C262.735 311.646 262.046 311.537 261.277 311.542ZM263.383 320.817V317.372C262.748 317.552 262.046 317.643 261.277 317.643C260.534 317.643 259.847 317.555 259.218 317.38V320.817H263.383ZM269.363 322.334C269.131 322.334 268.932 322.254 268.767 322.094C268.607 321.934 268.527 321.741 268.527 321.514C268.527 321.281 268.607 321.085 268.767 320.925C268.932 320.76 269.131 320.678 269.363 320.678C269.59 320.678 269.784 320.76 269.944 320.925C270.104 321.085 270.184 321.281 270.184 321.514C270.184 321.736 270.104 321.929 269.944 322.094C269.784 322.254 269.59 322.334 269.363 322.334Z" fill="#999999"/>
<path d="M107.865 130.622H100.04V133.637H98.7139V130.622H90.6743V129.489H107.865V130.622ZM105.984 137.079H92.9194V132.332H94.2665V135.946H105.984V137.079ZM106.839 121.599H91.5937V120.508H98.607V118.391H99.9327V120.508H106.839V121.599ZM99.2484 122.497C101.18 122.497 102.67 122.746 103.717 123.245C104.772 123.737 105.299 124.45 105.299 125.383C105.299 125.989 105.061 126.506 104.583 126.933C104.106 127.361 103.414 127.685 102.509 127.906C101.604 128.127 100.517 128.234 99.2484 128.227C97.9798 128.234 96.8929 128.127 95.9877 127.906C95.0825 127.685 94.3912 127.361 93.9137 126.933C93.4361 126.506 93.1974 125.989 93.1974 125.383C93.1974 124.45 93.7212 123.737 94.7689 123.245C95.8238 122.746 97.3169 122.497 99.2484 122.497ZM99.2484 123.523C97.766 123.523 96.6113 123.687 95.7846 124.015C94.9649 124.336 94.5587 124.792 94.5658 125.383C94.5587 125.961 94.9649 126.41 95.7846 126.73C96.6113 127.044 97.766 127.201 99.2484 127.201C100.731 127.201 101.886 127.044 102.712 126.73C103.539 126.41 103.952 125.961 103.952 125.383C103.952 124.792 103.539 124.336 102.712 124.015C101.886 123.687 100.731 123.523 99.2484 123.523ZM118.571 128.997H109.847V120.359H118.571V128.997ZM111.151 127.885H117.267V121.492H111.151V127.885ZM124.344 132.29H122.997V118.669H124.344V132.29ZM124.964 136.823H112.306V130.943H113.653V135.668H124.964V136.823ZM142.555 129.916H141.208V124.827H137.124V123.694H141.208V118.669H142.555V129.916ZM136.354 130.558C137.651 130.558 138.767 130.693 139.7 130.964C140.641 131.235 141.361 131.63 141.86 132.151C142.366 132.671 142.619 133.295 142.619 134.022C142.619 134.748 142.366 135.372 141.86 135.892C141.361 136.413 140.641 136.808 139.7 137.079C138.767 137.357 137.651 137.5 136.354 137.507C135.057 137.5 133.938 137.357 132.997 137.079C132.063 136.808 131.347 136.413 130.848 135.892C130.349 135.372 130.103 134.748 130.111 134.022C130.103 133.295 130.349 132.671 130.848 132.151C131.347 131.63 132.063 131.235 132.997 130.964C133.938 130.693 135.057 130.558 136.354 130.558ZM136.354 131.627C135.356 131.627 134.483 131.723 133.735 131.915C132.994 132.108 132.423 132.386 132.024 132.749C131.625 133.113 131.429 133.537 131.436 134.022C131.429 134.506 131.625 134.927 132.024 135.283C132.423 135.639 132.994 135.914 133.735 136.106C134.483 136.299 135.356 136.395 136.354 136.395C137.352 136.395 138.221 136.299 138.963 136.106C139.711 135.914 140.285 135.639 140.684 135.283C141.09 134.927 141.293 134.506 141.293 134.022C141.293 133.537 141.09 133.113 140.684 132.749C140.285 132.386 139.711 132.108 138.963 131.915C138.221 131.723 137.352 131.627 136.354 131.627ZM133.382 122.219C133.382 123.046 133.589 123.847 134.002 124.624C134.423 125.401 134.993 126.089 135.713 126.688C136.432 127.279 137.238 127.728 138.129 128.035L137.423 129.125C136.354 128.726 135.406 128.138 134.579 127.361C133.76 126.577 133.15 125.686 132.751 124.688C132.352 125.822 131.718 126.827 130.848 127.703C129.979 128.58 128.977 129.239 127.844 129.681L127.138 128.591C128.051 128.256 128.878 127.764 129.619 127.115C130.36 126.467 130.948 125.722 131.383 124.881C131.818 124.033 132.035 123.152 132.035 122.24V121.257H127.609V120.123H137.744V121.257H133.382V122.219ZM153.752 119.097C155.106 119.097 156.279 119.24 157.27 119.525C158.267 119.803 159.03 120.209 159.557 120.743C160.092 121.271 160.359 121.905 160.359 122.646C160.359 123.38 160.092 124.011 159.557 124.539C159.03 125.066 158.271 125.469 157.28 125.747C156.29 126.018 155.114 126.153 153.752 126.153C152.398 126.153 151.226 126.018 150.235 125.747C149.244 125.469 148.482 125.066 147.947 124.539C147.413 124.011 147.145 123.38 147.145 122.646C147.145 121.905 147.413 121.271 147.947 120.743C148.482 120.209 149.244 119.803 150.235 119.525C151.226 119.24 152.398 119.097 153.752 119.097ZM153.752 120.209C152.697 120.209 151.774 120.309 150.983 120.508C150.199 120.708 149.593 120.993 149.166 121.363C148.738 121.727 148.528 122.155 148.535 122.646C148.528 123.131 148.735 123.555 149.155 123.919C149.583 124.282 150.192 124.564 150.983 124.763C151.774 124.956 152.697 125.055 153.752 125.063C154.8 125.055 155.719 124.956 156.51 124.763C157.302 124.564 157.911 124.282 158.339 123.919C158.773 123.555 158.991 123.131 158.991 122.646C158.991 122.155 158.773 121.727 158.339 121.363C157.911 120.993 157.302 120.708 156.51 120.508C155.719 120.309 154.8 120.209 153.752 120.209ZM160.231 137.25H147.316V131.135H160.231V137.25ZM148.642 136.138H158.927V132.225H148.642V136.138ZM162.369 129.082H145.178V127.949H162.369V129.082ZM178.826 137.55H177.479V118.669H178.826V137.55ZM168.863 120.166C169.782 120.166 170.602 120.433 171.321 120.968C172.048 121.502 172.615 122.265 173.021 123.256C173.428 124.239 173.631 125.383 173.631 126.688C173.631 127.992 173.428 129.139 173.021 130.13C172.615 131.114 172.048 131.873 171.321 132.407C170.602 132.942 169.782 133.209 168.863 133.209C167.936 133.209 167.109 132.942 166.382 132.407C165.662 131.873 165.099 131.114 164.693 130.13C164.294 129.139 164.094 127.992 164.094 126.688C164.094 125.383 164.294 124.239 164.693 123.256C165.099 122.265 165.662 121.502 166.382 120.968C167.109 120.433 167.936 120.166 168.863 120.166ZM168.863 121.363C168.193 121.363 167.594 121.588 167.066 122.037C166.546 122.486 166.136 123.117 165.837 123.929C165.545 124.735 165.399 125.654 165.399 126.688C165.399 127.728 165.545 128.651 165.837 129.456C166.136 130.262 166.546 130.889 167.066 131.338C167.594 131.787 168.193 132.012 168.863 132.012C169.533 132.012 170.128 131.791 170.648 131.349C171.168 130.9 171.574 130.273 171.867 129.467C172.159 128.655 172.305 127.728 172.305 126.688C172.305 125.654 172.159 124.735 171.867 123.929C171.574 123.117 171.168 122.486 170.648 122.037C170.128 121.588 169.533 121.363 168.863 121.363ZM192.305 122.753C192.305 123.544 192.512 124.3 192.925 125.02C193.346 125.732 193.916 126.36 194.636 126.901C195.363 127.436 196.182 127.842 197.095 128.12L196.41 129.189C195.327 128.84 194.365 128.309 193.524 127.596C192.69 126.876 192.074 126.046 191.674 125.105C191.282 126.16 190.655 127.09 189.793 127.896C188.938 128.694 187.943 129.296 186.81 129.702L186.126 128.612C187.038 128.32 187.861 127.885 188.595 127.308C189.337 126.723 189.918 126.039 190.338 125.255C190.766 124.471 190.979 123.637 190.979 122.753V122.197H186.575V121.064H190.979V118.562H192.348V121.064H196.71V122.197H192.305V122.753ZM200.73 123.715H203.638V124.849H200.73V130.301H199.383V118.669H200.73V123.715ZM194.721 130.793C196.004 130.793 197.105 130.925 198.025 131.188C198.951 131.445 199.657 131.826 200.142 132.332C200.633 132.831 200.879 133.43 200.879 134.128C200.879 134.827 200.633 135.426 200.142 135.924C199.657 136.431 198.951 136.812 198.025 137.068C197.105 137.332 196.004 137.464 194.721 137.464C193.438 137.464 192.33 137.332 191.396 137.068C190.47 136.805 189.761 136.423 189.269 135.924C188.777 135.426 188.535 134.827 188.542 134.128C188.535 133.43 188.777 132.831 189.269 132.332C189.761 131.833 190.47 131.452 191.396 131.188C192.33 130.925 193.438 130.793 194.721 130.793ZM194.721 131.883C193.723 131.883 192.858 131.972 192.123 132.151C191.396 132.329 190.837 132.589 190.445 132.931C190.053 133.266 189.86 133.665 189.868 134.128C189.86 134.585 190.053 134.984 190.445 135.326C190.837 135.661 191.4 135.917 192.134 136.096C192.868 136.281 193.731 136.374 194.721 136.374C195.705 136.374 196.56 136.281 197.287 136.096C198.021 135.917 198.584 135.661 198.976 135.326C199.375 134.984 199.575 134.585 199.575 134.128C199.575 133.665 199.375 133.266 198.976 132.931C198.584 132.589 198.025 132.329 197.298 132.151C196.571 131.972 195.712 131.883 194.721 131.883ZM220.266 137.528H218.962V118.669H220.266V137.528ZM216.46 136.502H215.177V126.688H211.777V125.554H215.177V119.161H216.46V136.502ZM209.618 124.122C209.611 125.226 209.778 126.306 210.12 127.361C210.462 128.416 210.951 129.367 211.585 130.216C212.219 131.057 212.953 131.719 213.787 132.204L212.953 133.23C212.013 132.66 211.196 131.866 210.505 130.846C209.814 129.827 209.304 128.68 208.976 127.404C208.634 128.779 208.107 130.016 207.394 131.114C206.688 132.211 205.855 133.059 204.892 133.658L204.037 132.653C204.878 132.147 205.623 131.449 206.272 130.558C206.92 129.667 207.423 128.665 207.779 127.554C208.135 126.435 208.314 125.291 208.314 124.122V122.112H204.486V120.979H213.253V122.112H209.618V124.122ZM233.324 126.089H229.389V128.954C231.428 128.861 233.231 128.726 234.799 128.548L234.885 129.574C231.549 130.03 227.479 130.258 222.675 130.258L222.462 129.125C224.365 129.111 226.225 129.075 228.042 129.018V126.089H224.215V119.931H233.174V121.064H225.583V124.977H233.324V126.089ZM237.835 132.76H236.488V118.691H237.835V132.76ZM238.498 137.079H225.776V131.819H227.102V135.946H238.498V137.079ZM160.477 143.011C161.859 143.011 163.043 143.14 164.026 143.396C165.017 143.646 165.772 144.016 166.293 144.508C166.82 144.993 167.084 145.584 167.084 146.283C167.084 146.988 166.82 147.591 166.293 148.09C165.772 148.581 165.017 148.956 164.026 149.212C163.043 149.469 161.859 149.597 160.477 149.597C159.094 149.597 157.907 149.469 156.917 149.212C155.933 148.956 155.178 148.581 154.65 148.09C154.13 147.591 153.87 146.988 153.87 146.283C153.87 145.584 154.13 144.993 154.65 144.508C155.178 144.016 155.933 143.646 156.917 143.396C157.907 143.14 159.094 143.011 160.477 143.011ZM160.477 144.059C159.408 144.059 158.481 144.152 157.697 144.337C156.913 144.515 156.311 144.772 155.89 145.107C155.47 145.435 155.26 145.827 155.26 146.283C155.26 146.753 155.47 147.16 155.89 147.502C156.311 147.844 156.91 148.104 157.686 148.282C158.47 148.46 159.401 148.549 160.477 148.549C161.553 148.549 162.483 148.46 163.267 148.282C164.058 148.104 164.664 147.844 165.085 147.502C165.505 147.16 165.715 146.753 165.715 146.283C165.715 145.827 165.505 145.435 165.085 145.107C164.664 144.772 164.058 144.515 163.267 144.337C162.483 144.152 161.553 144.059 160.477 144.059ZM169.094 152.12H151.903V151.008H169.094V152.12ZM166.827 157.957H155.388V160.181H167.426V161.293H154.084V156.91H165.523V154.985H154.019V153.916H166.827V157.957ZM180.862 146.625C180.862 147.402 181.068 148.15 181.482 148.87C181.902 149.583 182.476 150.21 183.203 150.752C183.93 151.286 184.746 151.692 185.651 151.97L184.989 152.997C183.891 152.655 182.922 152.127 182.081 151.415C181.24 150.702 180.619 149.875 180.22 148.934C179.828 149.961 179.198 150.862 178.328 151.639C177.466 152.409 176.464 152.99 175.324 153.382L174.64 152.313C175.559 152.027 176.389 151.603 177.131 151.04C177.879 150.477 178.467 149.814 178.895 149.052C179.322 148.289 179.536 147.48 179.536 146.625V146.133H175.131V145H179.536V142.562H180.905V145H185.266V146.133H180.862V146.625ZM189.286 147.48H192.194V148.614H189.286V153.702H187.939V142.669H189.286V147.48ZM189.628 155.905H184.165C184.215 156.603 184.543 157.266 185.149 157.893C185.755 158.513 186.524 159.044 187.458 159.486C188.392 159.921 189.358 160.224 190.355 160.395L189.821 161.464C188.923 161.293 188.05 161.026 187.202 160.662C186.361 160.299 185.609 159.85 184.946 159.315C184.29 158.781 183.791 158.193 183.449 157.551C183.114 158.193 182.615 158.777 181.952 159.304C181.297 159.832 180.548 160.277 179.707 160.641C178.866 161.004 177.997 161.272 177.099 161.443L176.585 160.395C177.576 160.224 178.535 159.921 179.461 159.486C180.388 159.051 181.154 158.524 181.76 157.904C182.366 157.277 182.697 156.61 182.754 155.905H177.291V154.771H189.628V155.905ZM197.79 144.166C198.702 144.166 199.514 144.433 200.227 144.968C200.94 145.502 201.496 146.265 201.895 147.256C202.294 148.239 202.494 149.383 202.494 150.688C202.494 151.992 202.294 153.139 201.895 154.13C201.496 155.114 200.94 155.873 200.227 156.407C199.514 156.942 198.702 157.209 197.79 157.209C196.877 157.209 196.065 156.942 195.352 156.407C194.646 155.873 194.098 155.114 193.706 154.13C193.314 153.139 193.121 151.992 193.128 150.688C193.121 149.383 193.314 148.239 193.706 147.256C194.098 146.265 194.646 145.502 195.352 144.968C196.065 144.433 196.877 144.166 197.79 144.166ZM197.79 145.363C197.134 145.363 196.546 145.588 196.026 146.037C195.512 146.486 195.11 147.117 194.818 147.929C194.532 148.735 194.39 149.654 194.39 150.688C194.39 151.728 194.532 152.651 194.818 153.456C195.11 154.262 195.512 154.889 196.026 155.338C196.546 155.787 197.134 156.012 197.79 156.012C198.46 156.012 199.051 155.791 199.564 155.349C200.077 154.9 200.477 154.273 200.762 153.467C201.054 152.662 201.204 151.735 201.211 150.688C201.204 149.647 201.054 148.724 200.762 147.919C200.477 147.113 200.077 146.486 199.564 146.037C199.051 145.588 198.46 145.363 197.79 145.363ZM207.283 150.345H210.533V151.5H207.283V161.528H205.936V142.669H207.283V150.345ZM225.451 150.281H228.701V151.457H225.451V161.55H224.104V142.669H225.451V150.281ZM213.178 155.776C215.138 155.776 216.795 155.73 218.149 155.637C219.503 155.538 220.882 155.356 222.287 155.092L222.436 156.225C220.975 156.496 219.553 156.682 218.171 156.781C216.795 156.881 215.131 156.931 213.178 156.931H211.703V149.896H218.844V145.62H211.66V144.465H220.191V151.051H213.05V155.776H213.178ZM231.709 155.434H230.277L230.17 144.38H231.816L231.709 155.434ZM231.004 159.967C230.683 159.967 230.409 159.857 230.18 159.636C229.96 159.415 229.849 159.148 229.849 158.834C229.849 158.513 229.96 158.242 230.18 158.022C230.409 157.793 230.683 157.679 231.004 157.679C231.317 157.679 231.585 157.793 231.806 158.022C232.026 158.242 232.137 158.513 232.137 158.834C232.137 159.14 232.026 159.408 231.806 159.636C231.585 159.857 231.317 159.967 231.004 159.967Z" fill="#121212"/>
<path d="M107.277 144.038C107.277 144.85 107.562 145.641 108.133 146.411C108.71 147.181 109.515 147.84 110.549 148.389C111.589 148.938 112.78 149.298 114.12 149.469L113.179 151.393C111.554 151.151 110.114 150.652 108.86 149.896C107.605 149.134 106.661 148.204 106.026 147.106C105.392 148.204 104.451 149.134 103.204 149.896C101.957 150.652 100.528 151.151 98.917 151.393L97.9762 149.469C99.3019 149.298 100.481 148.938 101.515 148.389C102.548 147.84 103.35 147.181 103.92 146.411C104.491 145.641 104.776 144.85 104.776 144.038V143.054H107.277V144.038ZM114.825 155.028H107.149V161.763H104.797V155.028H97.2065V153.061H114.825V155.028ZM131.56 153.916H129.187V149.191H125.894V147.245H129.187V142.434H131.56V153.916ZM125.018 154.408C126.379 154.408 127.555 154.554 128.546 154.846C129.543 155.131 130.306 155.552 130.833 156.108C131.361 156.657 131.625 157.316 131.625 158.086C131.625 158.855 131.361 159.515 130.833 160.063C130.306 160.619 129.543 161.04 128.546 161.325C127.555 161.617 126.379 161.763 125.018 161.763C123.663 161.763 122.491 161.617 121.5 161.325C120.51 161.04 119.751 160.619 119.223 160.063C118.703 159.515 118.446 158.855 118.453 158.086C118.446 157.316 118.703 156.657 119.223 156.108C119.751 155.552 120.51 155.131 121.5 154.846C122.491 154.554 123.663 154.408 125.018 154.408ZM125.018 156.225C123.663 156.225 122.623 156.386 121.896 156.707C121.169 157.02 120.805 157.48 120.805 158.086C120.805 158.684 121.169 159.14 121.896 159.454C122.623 159.768 123.663 159.924 125.018 159.924C126.372 159.924 127.416 159.768 128.15 159.454C128.884 159.14 129.251 158.684 129.251 158.086C129.251 157.48 128.884 157.02 128.15 156.707C127.416 156.386 126.372 156.225 125.018 156.225ZM122.473 145.748C122.473 146.547 122.648 147.323 122.997 148.079C123.346 148.827 123.863 149.501 124.547 150.1C125.231 150.691 126.058 151.151 127.028 151.479L125.83 153.36C124.782 153.004 123.874 152.48 123.104 151.789C122.341 151.09 121.743 150.278 121.308 149.351C120.873 150.399 120.253 151.315 119.448 152.099C118.642 152.876 117.677 153.467 116.55 153.873L115.31 151.992C116.315 151.65 117.174 151.154 117.887 150.506C118.599 149.85 119.138 149.112 119.501 148.293C119.872 147.473 120.057 146.632 120.057 145.77V145.62H116.037V143.696H126.472V145.62H122.473V145.748ZM149.728 156.568H147.355V149.49H143.934V147.566H147.355V142.456H149.728V156.568ZM150.22 161.378H137.049V155.327H139.422V159.454H150.22V161.378ZM140.641 146.304C140.641 147.095 140.816 147.869 141.165 148.624C141.514 149.373 142.031 150.046 142.715 150.645C143.399 151.236 144.226 151.692 145.195 152.013L143.998 153.916C142.943 153.553 142.031 153.025 141.261 152.334C140.499 151.635 139.9 150.819 139.465 149.886C139.03 150.926 138.41 151.831 137.605 152.601C136.799 153.364 135.837 153.938 134.718 154.322L133.5 152.398C134.497 152.07 135.349 151.593 136.055 150.966C136.767 150.331 137.306 149.611 137.669 148.806C138.04 147.993 138.225 147.152 138.225 146.283V145.77H134.205V143.845H144.639V145.77H140.641V146.304Z" fill="#00A695"/>
<ellipse cx="135.601" cy="222.846" rx="33.3154" ry="33.6122" fill="url(#paint0_linear_1281_374)"/>
<path d="M167.483 186.525C169.12 185.572 170.828 185.045 172.607 184.944C174.38 184.833 176.021 185.154 177.529 185.906C179.048 186.653 180.245 187.78 181.121 189.288C181.972 190.798 182.338 192.403 182.219 194.102C182.105 195.786 181.552 197.378 180.561 198.878C179.579 200.372 178.272 201.588 176.639 202.526C175.028 203.478 173.336 204.009 171.562 204.12C169.799 204.224 168.166 203.906 166.664 203.164C165.155 202.411 163.976 201.28 163.125 199.771C162.254 198.273 161.873 196.677 161.982 194.983C162.085 193.279 162.622 191.682 163.594 190.194C164.569 188.69 165.866 187.467 167.483 186.525ZM169.858 190.676C169.029 191.158 168.365 191.753 167.864 192.459C167.367 193.149 167.091 193.898 167.034 194.707C166.978 195.515 167.182 196.325 167.647 197.137C168.105 197.939 168.705 198.533 169.444 198.917C170.187 199.286 170.985 199.436 171.838 199.368C172.7 199.293 173.537 199.013 174.35 198.526C175.184 198.053 175.844 197.462 176.329 196.751C176.814 196.041 177.074 195.275 177.109 194.452C177.149 193.614 176.939 192.794 176.48 191.992C176.015 191.18 175.422 190.596 174.7 190.241C173.988 189.881 173.211 189.745 172.37 189.834C171.534 189.907 170.696 190.187 169.858 190.676Z" fill="url(#paint1_linear_1281_374)"/>
<path d="M195.557 213.682L185.417 205.971L184.161 207.653L194.621 215.607L192.401 218.579L178.462 207.979L184.055 200.492L194.195 208.203L195.313 206.705L185.174 198.995L187.325 196.115L200.944 206.472L195.557 213.682Z" fill="url(#paint2_linear_1281_374)"/>
<path d="M221.154 195.743L216.295 196.54L214.434 184.983L201.08 187.172L200.45 183.259L218.663 180.273L221.154 195.743Z" fill="url(#paint3_linear_1281_374)"/>
<path d="M208.47 207.485L204.589 208.121L204.553 198.933L209.87 198.061L208.47 207.485Z" fill="url(#paint4_linear_1281_374)"/>
<path d="M144.866 213.991C144.623 213.991 144.387 214.068 144.192 214.213L138.852 218.164L122.222 216.672C121.743 216.629 121.289 216.894 121.09 217.331C120.891 217.769 120.99 218.285 121.337 218.618L128.919 225.884C129.13 226.087 129.411 226.199 129.703 226.199H202.865C203.2 226.199 203.519 226.05 203.734 225.793L209.799 218.526C210.092 218.175 210.145 217.682 209.934 217.277C209.723 216.871 209.288 216.633 208.833 216.672L191.443 218.165L186.101 214.213C185.906 214.068 185.669 213.991 185.427 213.991H144.866Z" fill="url(#paint5_linear_1281_374)" stroke="url(#paint6_linear_1281_374)" stroke-width="2.265" stroke-linejoin="round"/>
<path d="M144.395 210.012L144.395 213.289" stroke="#DEFFFA" stroke-width="2.265" stroke-linecap="round" stroke-linejoin="round"/>
<path d="M185.441 210.012L185.441 213.289" stroke="#DEFFFA" stroke-width="2.265" stroke-linecap="round" stroke-linejoin="round"/>
<rect x="130.84" y="247.632" width="68.992" height="13.7683" fill="url(#paint7_linear_1281_374)"/>
<path d="M195.284 235.393H136.906V226.214H195.284V235.393Z" fill="url(#paint8_linear_1281_374)" stroke="#00A695" stroke-width="2.265"/>
<path d="M134.254 235.775H116.816L128.568 248.396H204.383L212.723 235.775H197.939L187.704 233.098H144.11L134.254 235.775Z" fill="url(#paint9_linear_1281_374)" stroke="url(#paint10_linear_1281_374)" stroke-width="2.265" stroke-linejoin="round"/>
<path d="M142.215 261.401V260.588C142.215 257.657 144.591 255.281 147.522 255.281V255.281C150.453 255.281 152.829 257.657 152.829 260.588V261.401" stroke="#019E94" stroke-width="1.1325" stroke-linejoin="round"/>
<path d="M179.363 261.401V260.588C179.363 257.657 181.739 255.281 184.67 255.281V255.281C187.601 255.281 189.977 257.657 189.977 260.588V261.401" stroke="#019E94" stroke-width="1.1325" stroke-linejoin="round"/>
<path d="M160.41 261.399V258.672C160.41 255.531 162.956 252.985 166.096 252.985V252.985C169.237 252.985 171.782 255.531 171.782 258.672V261.399" stroke="#019E94" stroke-width="1.1325" stroke-linejoin="round"/>
<path d="M130.84 248.396V261.399H200.59V248.396" stroke="#00A695" stroke-width="2.265" stroke-linejoin="round"/>
<path d="M99.3789 261.4H230.54" stroke="url(#paint11_linear_1281_374)" stroke-width="2.265" stroke-linecap="round"/>
<path d="M199.709 248.341L207.956 257.418L214.81 251.583L217.916 248.341L218.666 240.345L214.81 235.05L209.241 233.213L203.779 234.51L198.316 240.345L199.709 248.341Z" fill="#E16350"/>
<path fill-rule="evenodd" clip-rule="evenodd" d="M212.819 243.169C212.819 245.652 210.824 247.665 208.363 247.665C205.902 247.665 203.907 245.652 203.907 243.169C203.907 240.686 205.902 238.673 208.363 238.673C210.824 238.673 212.819 240.686 212.819 243.169ZM210.609 243.169C210.609 244.42 209.603 245.434 208.363 245.434C207.123 245.434 206.117 244.42 206.117 243.169C206.117 241.918 207.123 240.903 208.363 240.903C209.603 240.903 210.609 241.918 210.609 243.169Z" fill="#E16350"/>
<path fill-rule="evenodd" clip-rule="evenodd" d="M200.144 251.227C195.733 246.777 195.733 239.561 200.144 235.11L200.376 234.877C204.787 230.426 211.939 230.426 216.35 234.877L216.582 235.11C220.993 239.561 220.993 246.777 216.582 251.227L209.926 257.942C209.063 258.813 207.663 258.813 206.8 257.942L200.144 251.227ZM201.708 236.687L201.939 236.454C205.487 232.875 211.239 232.875 214.787 236.454L215.018 236.687C218.566 240.267 218.566 246.071 215.018 249.65L208.363 256.365L201.708 249.65C198.16 246.071 198.16 240.267 201.708 236.687Z" fill="#E16350"/>
<ellipse cx="208.362" cy="243.061" rx="3.58476" ry="3.61669" fill="#FAFAFA"/>
<rect x="124.406" y="73.6855" width="78.0926" height="22.9472" rx="11.4736" fill="#00A695"/>
<path d="M151.724 83.2998C151.682 82.8861 151.492 82.5623 151.153 82.3284C150.815 82.0902 150.382 81.9711 149.856 81.9711C149.492 81.9711 149.173 82.0296 148.897 82.1466C148.621 82.2594 148.408 82.4182 148.258 82.6229C148.112 82.8235 148.038 83.0532 148.038 83.3123C148.038 83.6967 148.195 83.9912 148.509 84.1959C148.822 84.4007 149.217 84.5615 149.693 84.6785L150.57 84.9167C151.302 85.088 151.92 85.3721 152.425 85.769C152.931 86.1659 153.186 86.7341 153.19 87.4736C153.186 87.9875 153.05 88.445 152.783 88.8461C152.515 89.2472 152.129 89.5627 151.623 89.7925C151.118 90.0181 150.516 90.1309 149.818 90.1309C149.146 90.1309 148.559 90.0243 148.057 89.8113C147.56 89.594 147.169 89.2848 146.885 88.8837C146.605 88.4826 146.451 88.0084 146.422 87.4611H147.8C147.842 87.9374 148.049 88.3009 148.421 88.5516C148.793 88.8023 149.258 88.9276 149.818 88.9276C150.199 88.9276 150.539 88.867 150.84 88.7459C151.145 88.6205 151.383 88.4471 151.554 88.2257C151.73 88.0001 151.82 87.741 151.824 87.4486C151.82 87.0851 151.671 86.8031 151.379 86.6025C151.086 86.3978 150.662 86.2244 150.107 86.0823L149.029 85.7941C147.449 85.3595 146.66 84.5573 146.66 83.3875C146.66 82.8778 146.8 82.4244 147.08 82.0275C147.364 81.6306 147.752 81.3235 148.245 81.1063C148.738 80.889 149.288 80.7804 149.894 80.7804C150.499 80.7804 151.04 80.889 151.517 81.1063C151.993 81.3194 152.367 81.6181 152.639 82.0025C152.91 82.3827 153.052 82.8151 153.065 83.2998H151.724ZM153.463 80.9057H160.495V82.0965H157.674V89.9805H156.296V82.0965H153.463V80.9057ZM161.143 80.9057H166.834V82.0965H162.522V84.8415H166.533V86.0197H162.522V88.7897H166.884V89.9805H161.143V80.9057ZM167.771 80.9057H171.005C171.686 80.9057 172.262 81.0332 172.734 81.288C173.207 81.5387 173.56 81.8855 173.794 82.3284C174.032 82.7712 174.151 83.2789 174.151 83.8513C174.151 84.4195 174.032 84.925 173.794 85.3679C173.56 85.8108 173.207 86.1596 172.734 86.4145C172.262 86.6694 171.686 86.7968 171.005 86.7968H169.15V89.9805H167.771V80.9057ZM170.867 85.6186C171.506 85.6186 171.98 85.4598 172.29 85.1423C172.603 84.8206 172.76 84.3902 172.76 83.8513C172.76 83.3081 172.605 82.8778 172.296 82.5602C171.987 82.2427 171.51 82.0839 170.867 82.0839H169.15V85.6186H170.867ZM176.902 87.0976L180.913 80.9057H182.618V87.0475H183.859V88.2131H182.618V89.9805H181.315V88.2131H176.902V87.0976ZM181.315 87.0475V82.5477H181.214L178.356 86.9723V87.0475H181.315Z" fill="#F6F6F6"/>
<defs>
<filter id="filter0_d_1281_374" x="0.9" y="0.9" width="320.959" height="390.31" filterUnits="userSpaceOnUse" color-interpolation-filters="sRGB">
<feFlood flood-opacity="0" result="BackgroundImageFix"/>
<feColorMatrix in="SourceAlpha" type="matrix" values="0 0 0 0 0 0 0 0 0 0 0 0 0 0 0 0 0 0 127 0" result="hardAlpha"/>
<feOffset dx="-3.775" dy="-3.775"/>
<feGaussianBlur stdDeviation="5.6625"/>
<feComposite in2="hardAlpha" operator="out"/>
<feColorMatrix type="matrix" values="0 0 0 0 0 0 0 0 0 0 0 0 0 0 0 0 0 0 0.05 0"/>
<feBlend mode="normal" in2="BackgroundImageFix" result="effect1_dropShadow_1281_374"/>
<feBlend mode="normal" in="SourceGraphic" in2="effect1_dropShadow_1281_374" result="shape"/>
</filter>
<linearGradient id="paint0_linear_1281_374" x1="135.601" y1="256.458" x2="135.601" y2="189.233" gradientUnits="userSpaceOnUse">
<stop stop-color="#FFA800"/>
<stop offset="0.864" stop-color="#E16350"/>
</linearGradient>
<linearGradient id="paint1_linear_1281_374" x1="166.066" y1="184.085" x2="184.889" y2="216.399" gradientUnits="userSpaceOnUse">
<stop stop-color="#ACDFDB" stop-opacity="0.64"/>
<stop offset="1" stop-color="#00A695"/>
</linearGradient>
<linearGradient id="paint2_linear_1281_374" x1="197.074" y1="197.646" x2="174.46" y2="227.384" gradientUnits="userSpaceOnUse">
<stop stop-color="#ACDFDB" stop-opacity="0.64"/>
<stop offset="1" stop-color="#00A695"/>
</linearGradient>
<linearGradient id="paint3_linear_1281_374" x1="208.961" y1="178.169" x2="215.023" y2="215.148" gradientUnits="userSpaceOnUse">
<stop stop-color="#ACDFDB" stop-opacity="0.64"/>
<stop offset="1" stop-color="#00A695"/>
</linearGradient>
<linearGradient id="paint4_linear_1281_374" x1="203.969" y1="178.169" x2="210.03" y2="215.148" gradientUnits="userSpaceOnUse">
<stop stop-color="#ACDFDB" stop-opacity="0.64"/>
<stop offset="1" stop-color="#00A695"/>
</linearGradient>
<linearGradient id="paint5_linear_1281_374" x1="165.525" y1="215.123" x2="165.525" y2="225.067" gradientUnits="userSpaceOnUse">
<stop stop-color="#ACDFDB" stop-opacity="0.64"/>
<stop offset="1" stop-color="#00A695"/>
</linearGradient>
<linearGradient id="paint6_linear_1281_374" x1="165.525" y1="215.123" x2="165.525" y2="225.067" gradientUnits="userSpaceOnUse">
<stop stop-color="#DEFFFA"/>
<stop offset="1" stop-color="#00A695"/>
</linearGradient>
<linearGradient id="paint7_linear_1281_374" x1="165.336" y1="247.632" x2="165.336" y2="261.4" gradientUnits="userSpaceOnUse">
<stop stop-color="#00708D"/>
<stop offset="1" stop-color="#00A695"/>
</linearGradient>
<linearGradient id="paint8_linear_1281_374" x1="166.095" y1="226.214" x2="166.095" y2="235.393" gradientUnits="userSpaceOnUse">
<stop stop-color="#006C8D"/>
<stop offset="0.524" stop-color="#009C94"/>
<stop offset="1" stop-color="#00A695"/>
</linearGradient>
<linearGradient id="paint9_linear_1281_374" x1="164.77" y1="233.098" x2="164.77" y2="248.396" gradientUnits="userSpaceOnUse">
<stop stop-color="#BFD2AA"/>
<stop offset="1" stop-color="#01A695"/>
</linearGradient>
<linearGradient id="paint10_linear_1281_374" x1="164.77" y1="233.098" x2="164.77" y2="248.396" gradientUnits="userSpaceOnUse">
<stop stop-color="#DEFFFA"/>
<stop offset="1" stop-color="#00A695"/>
</linearGradient>
<linearGradient id="paint11_linear_1281_374" x1="99.3789" y1="261.9" x2="230.54" y2="261.9" gradientUnits="userSpaceOnUse">
<stop stop-color="#C8F1EF" stop-opacity="0.3"/>
<stop offset="0.234379" stop-color="#A5E0DA"/>
<stop offset="0.364" stop-color="#2FB7A9"/>
<stop offset="0.5" stop-color="#00A695"/>
<stop offset="0.624" stop-color="#2EB6A9"/>
<stop offset="0.774916" stop-color="#ACE2DE"/>
<stop offset="1" stop-color="#C8F1EF" stop-opacity="0.3"/>
</linearGradient>
</defs>
</svg>
