<svg width="305" height="262" viewBox="0 0 305 262" fill="none" xmlns="http://www.w3.org/2000/svg">
<g opacity="0.2" filter="url(#filter0_d_2796_853)">
<rect x="6" y="6" width="285" height="241.454" rx="18" fill="#C4E6DC"/>
</g>
<path d="M68.9932 213.855L84.5417 121.117L206.156 65.5859L229.479 113.898" stroke="#E16350" stroke-width="2" stroke-linejoin="round"/>
<path d="M69.6555 110.566L98.438 111.632L97.5851 132.953L68.8027 131.46L69.6555 110.566Z" fill="#C4E6DC"/>
<path d="M69.6555 110.566L98.438 111.632L97.5851 132.953L68.8027 131.46L69.6555 110.566Z" stroke="#91D6C9" stroke-width="0.894401"/>
<g filter="url(#filter1_d_2796_853)">
<path d="M75.9042 117.76C71.2023 113.058 71.2023 105.434 75.9042 100.733V100.733C80.6061 96.0306 88.2294 96.0306 92.9313 100.733V100.733C97.6333 105.434 97.6333 113.058 92.9314 117.76L85.762 124.929C85.0196 125.671 83.8159 125.671 83.0735 124.929L75.9042 117.76Z" fill="#00A695"/>
<path d="M86.1156 125.283L93.2849 118.113C98.1821 113.216 98.1821 105.276 93.2849 100.379C88.3877 95.4818 80.4478 95.4818 75.5506 100.379C70.6535 105.276 70.6535 113.216 75.5506 118.113L82.72 125.283C83.6576 126.22 85.1779 126.22 86.1156 125.283Z" stroke="white"/>
</g>
<path d="M49.424 192.633L92.7026 204.12L87.0925 226.294L57.9731 229.232L47.8213 222.821L49.424 192.633Z" fill="#C4E6DC"/>
<path d="M49.4954 192.992L92.5471 203.905L87.0162 226.477L58.0156 229.018L47.4023 222.74L49.4954 192.992Z" stroke="#91D6C9" stroke-width="0.894401"/>
<g filter="url(#filter2_d_2796_853)">
<path d="M61.287 209.154C56.5851 204.452 56.5851 196.829 61.287 192.127V192.127C65.9889 187.425 73.6122 187.425 78.3142 192.127V192.127C83.0161 196.829 83.0161 204.452 78.3142 209.154L71.1448 216.324C70.4024 217.066 69.1987 217.066 68.4563 216.324L61.287 209.154Z" fill="#00A695"/>
<path d="M71.4984 216.677L78.6677 209.508C83.5649 204.611 83.5649 196.671 78.6677 191.773C73.7705 186.876 65.8306 186.876 60.9335 191.773C56.0363 196.671 56.0363 204.611 60.9335 209.508L68.1028 216.677C69.0405 217.615 70.5607 217.615 71.4984 216.677Z" stroke="white"/>
</g>
<path d="M191.229 53.5156L220.011 54.5816L219.158 75.9019L190.376 74.4095L191.229 53.5156Z" fill="#C4E6DC"/>
<path d="M191.229 53.5156L220.011 54.5816L219.158 75.9019L190.376 74.4095L191.229 53.5156Z" stroke="#91D6C9" stroke-width="0.894401"/>
<g filter="url(#filter3_d_2796_853)">
<path d="M197.477 60.7089C192.776 56.007 192.776 48.3837 197.477 43.6817V43.6817C202.179 38.9798 209.803 38.9798 214.505 43.6817V43.6817C219.207 48.3837 219.207 56.007 214.505 60.7089L207.335 67.8782C206.593 68.6206 205.389 68.6206 204.647 67.8782L197.477 60.7089Z" fill="#00A695"/>
<path d="M207.689 68.2318L214.858 61.0624C219.755 56.1653 219.755 48.2254 214.858 43.3282C209.961 38.431 202.021 38.431 197.124 43.3282C192.227 48.2254 192.227 56.1653 197.124 61.0624L204.293 68.2318C205.231 69.1694 206.751 69.1694 207.689 68.2318Z" stroke="white"/>
</g>
<path d="M215.53 102.398L244.312 103.464L243.459 124.785L214.677 123.292L215.53 102.398Z" fill="#C4E6DC"/>
<path d="M215.53 102.398L244.312 103.464L243.459 124.785L214.677 123.292L215.53 102.398Z" stroke="#91D6C9" stroke-width="0.894401"/>
<g filter="url(#filter4_d_2796_853)">
<path d="M221.779 109.596C217.077 104.894 217.077 97.2704 221.779 92.5685V92.5685C226.481 87.8665 234.104 87.8665 238.806 92.5685V92.5685C243.508 97.2704 243.508 104.894 238.806 109.596L231.637 116.765C230.895 117.507 229.691 117.507 228.949 116.765L221.779 109.596Z" fill="#00A695"/>
<path d="M231.991 117.118L239.16 109.949C244.057 105.052 244.057 97.1121 239.16 92.2149C234.263 87.3177 226.323 87.3177 221.426 92.2149C216.528 97.1121 216.528 105.052 221.426 109.949L228.595 117.118C229.533 118.056 231.053 118.056 231.991 117.118Z" stroke="white"/>
</g>
<path d="M81.2607 113.89L81.2489 112.609L84.303 109.802C85.1018 109.038 85.5246 108.568 85.5246 107.899C85.5246 107.147 84.9491 106.677 84.1738 106.677C83.375 106.677 82.8582 107.182 82.8582 107.993H81.1785C81.1667 106.325 82.4001 105.268 84.1973 105.268C86.018 105.268 87.2279 106.301 87.2279 107.781C87.2279 108.745 86.758 109.543 85.0078 111.129L83.7157 112.386V112.433H87.3453V113.89H81.2607Z" fill="white"/>
<path d="M70.7101 197.238V205.742H68.9363V198.918H68.8894L66.9395 200.139V198.577L69.0421 197.238H70.7101Z" fill="white"/>
<path d="M205.785 57.4581C203.917 57.4581 202.578 56.4244 202.543 54.9444H204.329C204.364 55.5787 204.975 56.0015 205.797 56.0015C206.643 56.0015 207.253 55.5199 207.242 54.8386C207.253 54.1456 206.631 53.6522 205.632 53.6522H204.845V52.3484H205.632C206.466 52.3484 207.054 51.8903 207.054 51.2207C207.054 50.5747 206.56 50.1283 205.809 50.1283C205.057 50.1283 204.434 50.5512 204.411 51.1972H202.719C202.743 49.7289 204.07 48.7188 205.809 48.7188C207.582 48.7188 208.769 49.7642 208.757 51.115C208.769 52.0665 208.099 52.7478 207.148 52.9122V52.9827C208.393 53.1354 209.086 53.8989 209.074 54.9561C209.086 56.4127 207.7 57.4581 205.785 57.4581Z" fill="white"/>
<path d="M226.553 105.043V103.646L230.147 98.0426H232.367V103.622H233.448V105.043H232.367V106.547H230.688V105.043H226.553ZM228.338 103.622H230.711V99.9808H230.629L228.338 103.552V103.622Z" fill="white"/>
<mask id="path-20-outside-1_2796_853" maskUnits="userSpaceOnUse" x="55.002" y="21.9453" width="190" height="162" fill="black">
<rect fill="white" x="55.002" y="21.9453" width="190" height="162"/>
<path d="M78.7798 81.338V86.9763H77.5945V85.9084H75.2986V84.9473H77.5945V83.9115H75.3947C74.7807 85.4492 73.3765 86.5224 71.2728 87.1044L70.7923 86.1647C73.0508 85.5507 74.2521 84.4081 74.4444 82.9718H71.3049V82.0107H75.7365C75.7365 82.3471 75.7098 82.6675 75.651 82.9718H77.5945V81.338H78.7798ZM75.587 87.083C77.5411 87.083 78.8439 87.8199 78.8439 89.0052C78.8439 90.1905 77.5411 90.9273 75.587 90.9273C73.6114 90.9273 72.3086 90.1905 72.3086 89.0052C72.3086 87.8199 73.6114 87.083 75.587 87.083ZM75.587 88.0121C74.2842 88.0121 73.494 88.3645 73.494 89.0052C73.494 89.6352 74.2842 89.9876 75.587 89.9876C76.8577 89.9876 77.6586 89.6352 77.6586 89.0052C77.6586 88.3645 76.8577 88.0121 75.587 88.0121Z"/>
<path d="M88.6178 86.186V87.1364H79.8187V86.186H83.6095V85.257H80.9613V81.5622H82.1359V82.5233H86.3005V81.5622H87.4752V85.257H84.8055V86.186H88.6178ZM87.5393 87.9053V90.9807H86.3539V88.845H80.7904V87.9053H87.5393ZM82.1359 84.3066H86.3005V83.4096H82.1359V84.3066Z"/>
<path d="M96.6831 81.701V82.4379C96.6831 83.1587 96.6831 84.013 96.4695 85.0861H97.7616V86.0365H93.9174V87.318C95.674 87.4408 96.7258 88.0922 96.7365 89.1333C96.7258 90.308 95.4444 90.97 93.3407 90.97C91.2157 90.97 89.9236 90.308 89.9236 89.1333C89.9236 88.0922 90.9754 87.4408 92.7427 87.3286V86.0365H88.9411V85.0861H95.2735C95.4764 84.093 95.4978 83.3349 95.4978 82.6514H90.0304V81.701H96.6831ZM93.3407 88.2577C91.9098 88.2577 91.1196 88.5567 91.1302 89.1333C91.1196 89.7206 91.9098 90.0196 93.3407 90.0196C94.7396 90.0196 95.5298 89.7206 95.5405 89.1333C95.5298 88.5567 94.7396 88.2577 93.3407 88.2577Z"/>
<path d="M60.4015 173.38V174.352H57.1873V177.214C58.8318 177.208 59.7875 177.15 60.8607 176.925L60.9782 177.876C59.7715 178.143 58.725 178.175 56.7495 178.175H56.002V173.38H60.4015ZM63.5624 178.976V182.382H62.3771V179.926H56.9844V178.976H63.5624ZM63.5624 172.729V178.538H62.3771V176.135H59.8996V175.174H62.3771V172.729H63.5624Z"/>
<path d="M69.6308 173.53C69.6308 174.747 70.987 175.975 73.0479 176.242L72.5781 177.203C70.9389 176.957 69.6361 176.151 69.0114 175.057C68.3761 176.151 67.0786 176.957 65.4555 177.203L64.9856 176.242C67.0252 175.975 68.3814 174.747 68.3814 173.53V173.038H69.6308V173.53ZM73.4003 178.036V179.018H69.5667V182.382H68.3921V179.018H64.6012V178.036H73.4003Z"/>
<path d="M81.4656 173.102V173.839C81.4656 174.56 81.4656 175.414 81.2521 176.488H82.5442V177.438H78.6999V178.719C80.4565 178.842 81.5083 179.494 81.519 180.535C81.5083 181.709 80.2269 182.371 78.1232 182.371C75.9982 182.371 74.7061 181.709 74.7061 180.535C74.7061 179.494 75.7579 178.842 77.5252 178.73V177.438H73.7237V176.488H80.0561C80.259 175.494 80.2803 174.736 80.2803 174.053H74.8129V173.102H81.4656ZM78.1232 179.659C76.6923 179.659 75.9021 179.958 75.9128 180.535C75.9021 181.122 76.6923 181.421 78.1232 181.421C79.5221 181.421 80.3123 181.122 80.323 180.535C80.3123 179.958 79.5221 179.659 78.1232 179.659Z"/>
<path d="M195.935 25.049C195.935 26.1062 196.714 27.1206 198.231 27.5371L197.686 28.4768C196.581 28.1725 195.796 27.5157 195.358 26.6935C194.936 27.6279 194.136 28.3647 192.998 28.7117L192.422 27.7827C193.938 27.3449 194.75 26.2343 194.75 25.049V25.0063H192.731V24.0666H194.75V22.9453H195.946V24.0666H197.953V25.0063H195.935V25.049ZM200.078 22.988V25.348H201.424V26.3197H200.078V28.8399H198.893V22.988H200.078ZM196.939 29.0428C198.946 29.0428 200.164 29.6942 200.174 30.8368C200.164 31.9687 198.946 32.6201 196.939 32.6201C194.91 32.6201 193.671 31.9687 193.671 30.8368C193.671 29.6942 194.91 29.0428 196.939 29.0428ZM196.939 29.9611C195.604 29.9611 194.856 30.2495 194.856 30.8368C194.856 31.4134 195.604 31.7124 196.939 31.7124C198.263 31.7124 199 31.4134 199 30.8368C199 30.2495 198.263 29.9611 196.939 29.9611Z"/>
<path d="M206.51 23.6394V24.6112H203.295V27.473C204.94 27.4677 205.896 27.409 206.969 27.1847L207.086 28.1351C205.88 28.4021 204.833 28.4341 202.858 28.4341H202.11V23.6394H206.51ZM209.671 29.235V32.6414H208.485V30.1854H203.093V29.235H209.671ZM209.671 22.988V28.7972H208.485V26.3945H206.008V25.4334H208.485V22.988H209.671Z"/>
<path d="M218.451 23.3618V24.0986C218.451 24.8194 218.451 25.6737 218.238 26.7469H219.53V27.6973H215.686V28.9787C217.442 29.1015 218.494 29.7529 218.505 30.7941C218.494 31.9687 217.213 32.6308 215.109 32.6308C212.984 32.6308 211.692 31.9687 211.692 30.7941C211.692 29.7529 212.744 29.1015 214.511 28.9894V27.6973H210.709V26.7469H217.042C217.245 25.7538 217.266 24.9956 217.266 24.3122H211.799V23.3618H218.451ZM215.109 29.9184C213.678 29.9184 212.888 30.2174 212.898 30.7941C212.888 31.3814 213.678 31.6804 215.109 31.6804C216.508 31.6804 217.298 31.3814 217.309 30.7941C217.298 30.2174 216.508 29.9184 215.109 29.9184Z"/>
<path d="M219.992 75.2305C219.992 76.2877 220.771 77.3021 222.287 77.7186L221.743 78.6583C220.638 78.354 219.853 77.6972 219.415 76.875C218.993 77.8094 218.192 78.5462 217.055 78.8932L216.478 77.9642C217.995 77.5264 218.806 76.4158 218.806 75.2305V75.1878H216.788V74.2481H218.806V73.1268H220.002V74.2481H222.01V75.1878H219.992V75.2305ZM224.135 73.1695V75.5295H225.48V76.5012H224.135V79.0214H222.95V73.1695H224.135ZM220.995 79.2243C223.003 79.2243 224.22 79.8757 224.231 81.0183C224.22 82.1502 223.003 82.8016 220.995 82.8016C218.966 82.8016 217.728 82.1502 217.728 81.0183C217.728 79.8757 218.966 79.2243 220.995 79.2243ZM220.995 80.1426C219.661 80.1426 218.913 80.431 218.913 81.0183C218.913 81.5949 219.661 81.8939 220.995 81.8939C222.319 81.8939 223.056 81.5949 223.056 81.0183C223.056 80.431 222.319 80.1426 220.995 80.1426Z"/>
<path d="M233.727 73.1802V78.8185H232.542V77.7506H230.246V76.7896H232.542V75.7538H230.342C229.728 77.2915 228.324 78.3647 226.22 78.9466L225.74 78.0069C227.998 77.3929 229.199 76.2503 229.392 74.814H226.252V73.853H230.684C230.684 74.1893 230.657 74.5097 230.598 74.814H232.542V73.1802H233.727ZM230.534 78.9253C232.488 78.9253 233.791 79.6621 233.791 80.8474C233.791 82.0327 232.488 82.7696 230.534 82.7696C228.559 82.7696 227.256 82.0327 227.256 80.8474C227.256 79.6621 228.559 78.9253 230.534 78.9253ZM230.534 79.8543C229.232 79.8543 228.441 80.2067 228.441 80.8474C228.441 81.4775 229.232 81.8299 230.534 81.8299C231.805 81.8299 232.606 81.4775 232.606 80.8474C232.606 80.2067 231.805 79.8543 230.534 79.8543Z"/>
<path d="M242.508 73.5433V74.2801C242.508 75.0009 242.508 75.8552 242.294 76.9284H243.587V77.8788H239.742V79.1602C241.499 79.283 242.551 79.9344 242.561 80.9756C242.551 82.1502 241.269 82.8123 239.166 82.8123C237.041 82.8123 235.748 82.1502 235.748 80.9756C235.748 79.9344 236.8 79.283 238.568 79.1709V77.8788H234.766V76.9284H241.098C241.301 75.9353 241.323 75.1771 241.323 74.4937H235.855V73.5433H242.508ZM239.166 80.0999C237.735 80.0999 236.944 80.3989 236.955 80.9756C236.944 81.5629 237.735 81.8619 239.166 81.8619C240.564 81.8619 241.355 81.5629 241.365 80.9756C241.355 80.3989 240.564 80.0999 239.166 80.0999Z"/>
</mask>
<path d="M78.7798 81.338V86.9763H77.5945V85.9084H75.2986V84.9473H77.5945V83.9115H75.3947C74.7807 85.4492 73.3765 86.5224 71.2728 87.1044L70.7923 86.1647C73.0508 85.5507 74.2521 84.4081 74.4444 82.9718H71.3049V82.0107H75.7365C75.7365 82.3471 75.7098 82.6675 75.651 82.9718H77.5945V81.338H78.7798ZM75.587 87.083C77.5411 87.083 78.8439 87.8199 78.8439 89.0052C78.8439 90.1905 77.5411 90.9273 75.587 90.9273C73.6114 90.9273 72.3086 90.1905 72.3086 89.0052C72.3086 87.8199 73.6114 87.083 75.587 87.083ZM75.587 88.0121C74.2842 88.0121 73.494 88.3645 73.494 89.0052C73.494 89.6352 74.2842 89.9876 75.587 89.9876C76.8577 89.9876 77.6586 89.6352 77.6586 89.0052C77.6586 88.3645 76.8577 88.0121 75.587 88.0121Z" fill="#00A695"/>
<path d="M88.6178 86.186V87.1364H79.8187V86.186H83.6095V85.257H80.9613V81.5622H82.1359V82.5233H86.3005V81.5622H87.4752V85.257H84.8055V86.186H88.6178ZM87.5393 87.9053V90.9807H86.3539V88.845H80.7904V87.9053H87.5393ZM82.1359 84.3066H86.3005V83.4096H82.1359V84.3066Z" fill="#00A695"/>
<path d="M96.6831 81.701V82.4379C96.6831 83.1587 96.6831 84.013 96.4695 85.0861H97.7616V86.0365H93.9174V87.318C95.674 87.4408 96.7258 88.0922 96.7365 89.1333C96.7258 90.308 95.4444 90.97 93.3407 90.97C91.2157 90.97 89.9236 90.308 89.9236 89.1333C89.9236 88.0922 90.9754 87.4408 92.7427 87.3286V86.0365H88.9411V85.0861H95.2735C95.4764 84.093 95.4978 83.3349 95.4978 82.6514H90.0304V81.701H96.6831ZM93.3407 88.2577C91.9098 88.2577 91.1196 88.5567 91.1302 89.1333C91.1196 89.7206 91.9098 90.0196 93.3407 90.0196C94.7396 90.0196 95.5298 89.7206 95.5405 89.1333C95.5298 88.5567 94.7396 88.2577 93.3407 88.2577Z" fill="#00A695"/>
<path d="M60.4015 173.38V174.352H57.1873V177.214C58.8318 177.208 59.7875 177.15 60.8607 176.925L60.9782 177.876C59.7715 178.143 58.725 178.175 56.7495 178.175H56.002V173.38H60.4015ZM63.5624 178.976V182.382H62.3771V179.926H56.9844V178.976H63.5624ZM63.5624 172.729V178.538H62.3771V176.135H59.8996V175.174H62.3771V172.729H63.5624Z" fill="#00A695"/>
<path d="M69.6308 173.53C69.6308 174.747 70.987 175.975 73.0479 176.242L72.5781 177.203C70.9389 176.957 69.6361 176.151 69.0114 175.057C68.3761 176.151 67.0786 176.957 65.4555 177.203L64.9856 176.242C67.0252 175.975 68.3814 174.747 68.3814 173.53V173.038H69.6308V173.53ZM73.4003 178.036V179.018H69.5667V182.382H68.3921V179.018H64.6012V178.036H73.4003Z" fill="#00A695"/>
<path d="M81.4656 173.102V173.839C81.4656 174.56 81.4656 175.414 81.2521 176.488H82.5442V177.438H78.6999V178.719C80.4565 178.842 81.5083 179.494 81.519 180.535C81.5083 181.709 80.2269 182.371 78.1232 182.371C75.9982 182.371 74.7061 181.709 74.7061 180.535C74.7061 179.494 75.7579 178.842 77.5252 178.73V177.438H73.7237V176.488H80.0561C80.259 175.494 80.2803 174.736 80.2803 174.053H74.8129V173.102H81.4656ZM78.1232 179.659C76.6923 179.659 75.9021 179.958 75.9128 180.535C75.9021 181.122 76.6923 181.421 78.1232 181.421C79.5221 181.421 80.3123 181.122 80.323 180.535C80.3123 179.958 79.5221 179.659 78.1232 179.659Z" fill="#00A695"/>
<path d="M195.935 25.049C195.935 26.1062 196.714 27.1206 198.231 27.5371L197.686 28.4768C196.581 28.1725 195.796 27.5157 195.358 26.6935C194.936 27.6279 194.136 28.3647 192.998 28.7117L192.422 27.7827C193.938 27.3449 194.75 26.2343 194.75 25.049V25.0063H192.731V24.0666H194.75V22.9453H195.946V24.0666H197.953V25.0063H195.935V25.049ZM200.078 22.988V25.348H201.424V26.3197H200.078V28.8399H198.893V22.988H200.078ZM196.939 29.0428C198.946 29.0428 200.164 29.6942 200.174 30.8368C200.164 31.9687 198.946 32.6201 196.939 32.6201C194.91 32.6201 193.671 31.9687 193.671 30.8368C193.671 29.6942 194.91 29.0428 196.939 29.0428ZM196.939 29.9611C195.604 29.9611 194.856 30.2495 194.856 30.8368C194.856 31.4134 195.604 31.7124 196.939 31.7124C198.263 31.7124 199 31.4134 199 30.8368C199 30.2495 198.263 29.9611 196.939 29.9611Z" fill="#00A695"/>
<path d="M206.51 23.6394V24.6112H203.295V27.473C204.94 27.4677 205.896 27.409 206.969 27.1847L207.086 28.1351C205.88 28.4021 204.833 28.4341 202.858 28.4341H202.11V23.6394H206.51ZM209.671 29.235V32.6414H208.485V30.1854H203.093V29.235H209.671ZM209.671 22.988V28.7972H208.485V26.3945H206.008V25.4334H208.485V22.988H209.671Z" fill="#00A695"/>
<path d="M218.451 23.3618V24.0986C218.451 24.8194 218.451 25.6737 218.238 26.7469H219.53V27.6973H215.686V28.9787C217.442 29.1015 218.494 29.7529 218.505 30.7941C218.494 31.9687 217.213 32.6308 215.109 32.6308C212.984 32.6308 211.692 31.9687 211.692 30.7941C211.692 29.7529 212.744 29.1015 214.511 28.9894V27.6973H210.709V26.7469H217.042C217.245 25.7538 217.266 24.9956 217.266 24.3122H211.799V23.3618H218.451ZM215.109 29.9184C213.678 29.9184 212.888 30.2174 212.898 30.7941C212.888 31.3814 213.678 31.6804 215.109 31.6804C216.508 31.6804 217.298 31.3814 217.309 30.7941C217.298 30.2174 216.508 29.9184 215.109 29.9184Z" fill="#00A695"/>
<path d="M219.992 75.2305C219.992 76.2877 220.771 77.3021 222.287 77.7186L221.743 78.6583C220.638 78.354 219.853 77.6972 219.415 76.875C218.993 77.8094 218.192 78.5462 217.055 78.8932L216.478 77.9642C217.995 77.5264 218.806 76.4158 218.806 75.2305V75.1878H216.788V74.2481H218.806V73.1268H220.002V74.2481H222.01V75.1878H219.992V75.2305ZM224.135 73.1695V75.5295H225.48V76.5012H224.135V79.0214H222.95V73.1695H224.135ZM220.995 79.2243C223.003 79.2243 224.22 79.8757 224.231 81.0183C224.22 82.1502 223.003 82.8016 220.995 82.8016C218.966 82.8016 217.728 82.1502 217.728 81.0183C217.728 79.8757 218.966 79.2243 220.995 79.2243ZM220.995 80.1426C219.661 80.1426 218.913 80.431 218.913 81.0183C218.913 81.5949 219.661 81.8939 220.995 81.8939C222.319 81.8939 223.056 81.5949 223.056 81.0183C223.056 80.431 222.319 80.1426 220.995 80.1426Z" fill="#00A695"/>
<path d="M233.727 73.1802V78.8185H232.542V77.7506H230.246V76.7896H232.542V75.7538H230.342C229.728 77.2915 228.324 78.3647 226.22 78.9466L225.74 78.0069C227.998 77.3929 229.199 76.2503 229.392 74.814H226.252V73.853H230.684C230.684 74.1893 230.657 74.5097 230.598 74.814H232.542V73.1802H233.727ZM230.534 78.9253C232.488 78.9253 233.791 79.6621 233.791 80.8474C233.791 82.0327 232.488 82.7696 230.534 82.7696C228.559 82.7696 227.256 82.0327 227.256 80.8474C227.256 79.6621 228.559 78.9253 230.534 78.9253ZM230.534 79.8543C229.232 79.8543 228.441 80.2067 228.441 80.8474C228.441 81.4775 229.232 81.8299 230.534 81.8299C231.805 81.8299 232.606 81.4775 232.606 80.8474C232.606 80.2067 231.805 79.8543 230.534 79.8543Z" fill="#00A695"/>
<path d="M242.508 73.5433V74.2801C242.508 75.0009 242.508 75.8552 242.294 76.9284H243.587V77.8788H239.742V79.1602C241.499 79.283 242.551 79.9344 242.561 80.9756C242.551 82.1502 241.269 82.8123 239.166 82.8123C237.041 82.8123 235.748 82.1502 235.748 80.9756C235.748 79.9344 236.8 79.283 238.568 79.1709V77.8788H234.766V76.9284H241.098C241.301 75.9353 241.323 75.1771 241.323 74.4937H235.855V73.5433H242.508ZM239.166 80.0999C237.735 80.0999 236.944 80.3989 236.955 80.9756C236.944 81.5629 237.735 81.8619 239.166 81.8619C240.564 81.8619 241.355 81.5629 241.365 80.9756C241.355 80.3989 240.564 80.0999 239.166 80.0999Z" fill="#00A695"/>
<path d="M78.7798 81.338V86.9763H77.5945V85.9084H75.2986V84.9473H77.5945V83.9115H75.3947C74.7807 85.4492 73.3765 86.5224 71.2728 87.1044L70.7923 86.1647C73.0508 85.5507 74.2521 84.4081 74.4444 82.9718H71.3049V82.0107H75.7365C75.7365 82.3471 75.7098 82.6675 75.651 82.9718H77.5945V81.338H78.7798ZM75.587 87.083C77.5411 87.083 78.8439 87.8199 78.8439 89.0052C78.8439 90.1905 77.5411 90.9273 75.587 90.9273C73.6114 90.9273 72.3086 90.1905 72.3086 89.0052C72.3086 87.8199 73.6114 87.083 75.587 87.083ZM75.587 88.0121C74.2842 88.0121 73.494 88.3645 73.494 89.0052C73.494 89.6352 74.2842 89.9876 75.587 89.9876C76.8577 89.9876 77.6586 89.6352 77.6586 89.0052C77.6586 88.3645 76.8577 88.0121 75.587 88.0121Z" stroke="white" stroke-width="2" mask="url(#path-20-outside-1_2796_853)"/>
<path d="M88.6178 86.186V87.1364H79.8187V86.186H83.6095V85.257H80.9613V81.5622H82.1359V82.5233H86.3005V81.5622H87.4752V85.257H84.8055V86.186H88.6178ZM87.5393 87.9053V90.9807H86.3539V88.845H80.7904V87.9053H87.5393ZM82.1359 84.3066H86.3005V83.4096H82.1359V84.3066Z" stroke="white" stroke-width="2" mask="url(#path-20-outside-1_2796_853)"/>
<path d="M96.6831 81.701V82.4379C96.6831 83.1587 96.6831 84.013 96.4695 85.0861H97.7616V86.0365H93.9174V87.318C95.674 87.4408 96.7258 88.0922 96.7365 89.1333C96.7258 90.308 95.4444 90.97 93.3407 90.97C91.2157 90.97 89.9236 90.308 89.9236 89.1333C89.9236 88.0922 90.9754 87.4408 92.7427 87.3286V86.0365H88.9411V85.0861H95.2735C95.4764 84.093 95.4978 83.3349 95.4978 82.6514H90.0304V81.701H96.6831ZM93.3407 88.2577C91.9098 88.2577 91.1196 88.5567 91.1302 89.1333C91.1196 89.7206 91.9098 90.0196 93.3407 90.0196C94.7396 90.0196 95.5298 89.7206 95.5405 89.1333C95.5298 88.5567 94.7396 88.2577 93.3407 88.2577Z" stroke="white" stroke-width="2" mask="url(#path-20-outside-1_2796_853)"/>
<path d="M60.4015 173.38V174.352H57.1873V177.214C58.8318 177.208 59.7875 177.15 60.8607 176.925L60.9782 177.876C59.7715 178.143 58.725 178.175 56.7495 178.175H56.002V173.38H60.4015ZM63.5624 178.976V182.382H62.3771V179.926H56.9844V178.976H63.5624ZM63.5624 172.729V178.538H62.3771V176.135H59.8996V175.174H62.3771V172.729H63.5624Z" stroke="white" stroke-width="2" mask="url(#path-20-outside-1_2796_853)"/>
<path d="M69.6308 173.53C69.6308 174.747 70.987 175.975 73.0479 176.242L72.5781 177.203C70.9389 176.957 69.6361 176.151 69.0114 175.057C68.3761 176.151 67.0786 176.957 65.4555 177.203L64.9856 176.242C67.0252 175.975 68.3814 174.747 68.3814 173.53V173.038H69.6308V173.53ZM73.4003 178.036V179.018H69.5667V182.382H68.3921V179.018H64.6012V178.036H73.4003Z" stroke="white" stroke-width="2" mask="url(#path-20-outside-1_2796_853)"/>
<path d="M81.4656 173.102V173.839C81.4656 174.56 81.4656 175.414 81.2521 176.488H82.5442V177.438H78.6999V178.719C80.4565 178.842 81.5083 179.494 81.519 180.535C81.5083 181.709 80.2269 182.371 78.1232 182.371C75.9982 182.371 74.7061 181.709 74.7061 180.535C74.7061 179.494 75.7579 178.842 77.5252 178.73V177.438H73.7237V176.488H80.0561C80.259 175.494 80.2803 174.736 80.2803 174.053H74.8129V173.102H81.4656ZM78.1232 179.659C76.6923 179.659 75.9021 179.958 75.9128 180.535C75.9021 181.122 76.6923 181.421 78.1232 181.421C79.5221 181.421 80.3123 181.122 80.323 180.535C80.3123 179.958 79.5221 179.659 78.1232 179.659Z" stroke="white" stroke-width="2" mask="url(#path-20-outside-1_2796_853)"/>
<path d="M195.935 25.049C195.935 26.1062 196.714 27.1206 198.231 27.5371L197.686 28.4768C196.581 28.1725 195.796 27.5157 195.358 26.6935C194.936 27.6279 194.136 28.3647 192.998 28.7117L192.422 27.7827C193.938 27.3449 194.75 26.2343 194.75 25.049V25.0063H192.731V24.0666H194.75V22.9453H195.946V24.0666H197.953V25.0063H195.935V25.049ZM200.078 22.988V25.348H201.424V26.3197H200.078V28.8399H198.893V22.988H200.078ZM196.939 29.0428C198.946 29.0428 200.164 29.6942 200.174 30.8368C200.164 31.9687 198.946 32.6201 196.939 32.6201C194.91 32.6201 193.671 31.9687 193.671 30.8368C193.671 29.6942 194.91 29.0428 196.939 29.0428ZM196.939 29.9611C195.604 29.9611 194.856 30.2495 194.856 30.8368C194.856 31.4134 195.604 31.7124 196.939 31.7124C198.263 31.7124 199 31.4134 199 30.8368C199 30.2495 198.263 29.9611 196.939 29.9611Z" stroke="white" stroke-width="2" mask="url(#path-20-outside-1_2796_853)"/>
<path d="M206.51 23.6394V24.6112H203.295V27.473C204.94 27.4677 205.896 27.409 206.969 27.1847L207.086 28.1351C205.88 28.4021 204.833 28.4341 202.858 28.4341H202.11V23.6394H206.51ZM209.671 29.235V32.6414H208.485V30.1854H203.093V29.235H209.671ZM209.671 22.988V28.7972H208.485V26.3945H206.008V25.4334H208.485V22.988H209.671Z" stroke="white" stroke-width="2" mask="url(#path-20-outside-1_2796_853)"/>
<path d="M218.451 23.3618V24.0986C218.451 24.8194 218.451 25.6737 218.238 26.7469H219.53V27.6973H215.686V28.9787C217.442 29.1015 218.494 29.7529 218.505 30.7941C218.494 31.9687 217.213 32.6308 215.109 32.6308C212.984 32.6308 211.692 31.9687 211.692 30.7941C211.692 29.7529 212.744 29.1015 214.511 28.9894V27.6973H210.709V26.7469H217.042C217.245 25.7538 217.266 24.9956 217.266 24.3122H211.799V23.3618H218.451ZM215.109 29.9184C213.678 29.9184 212.888 30.2174 212.898 30.7941C212.888 31.3814 213.678 31.6804 215.109 31.6804C216.508 31.6804 217.298 31.3814 217.309 30.7941C217.298 30.2174 216.508 29.9184 215.109 29.9184Z" stroke="white" stroke-width="2" mask="url(#path-20-outside-1_2796_853)"/>
<path d="M219.992 75.2305C219.992 76.2877 220.771 77.3021 222.287 77.7186L221.743 78.6583C220.638 78.354 219.853 77.6972 219.415 76.875C218.993 77.8094 218.192 78.5462 217.055 78.8932L216.478 77.9642C217.995 77.5264 218.806 76.4158 218.806 75.2305V75.1878H216.788V74.2481H218.806V73.1268H220.002V74.2481H222.01V75.1878H219.992V75.2305ZM224.135 73.1695V75.5295H225.48V76.5012H224.135V79.0214H222.95V73.1695H224.135ZM220.995 79.2243C223.003 79.2243 224.22 79.8757 224.231 81.0183C224.22 82.1502 223.003 82.8016 220.995 82.8016C218.966 82.8016 217.728 82.1502 217.728 81.0183C217.728 79.8757 218.966 79.2243 220.995 79.2243ZM220.995 80.1426C219.661 80.1426 218.913 80.431 218.913 81.0183C218.913 81.5949 219.661 81.8939 220.995 81.8939C222.319 81.8939 223.056 81.5949 223.056 81.0183C223.056 80.431 222.319 80.1426 220.995 80.1426Z" stroke="white" stroke-width="2" mask="url(#path-20-outside-1_2796_853)"/>
<path d="M233.727 73.1802V78.8185H232.542V77.7506H230.246V76.7896H232.542V75.7538H230.342C229.728 77.2915 228.324 78.3647 226.22 78.9466L225.74 78.0069C227.998 77.3929 229.199 76.2503 229.392 74.814H226.252V73.853H230.684C230.684 74.1893 230.657 74.5097 230.598 74.814H232.542V73.1802H233.727ZM230.534 78.9253C232.488 78.9253 233.791 79.6621 233.791 80.8474C233.791 82.0327 232.488 82.7696 230.534 82.7696C228.559 82.7696 227.256 82.0327 227.256 80.8474C227.256 79.6621 228.559 78.9253 230.534 78.9253ZM230.534 79.8543C229.232 79.8543 228.441 80.2067 228.441 80.8474C228.441 81.4775 229.232 81.8299 230.534 81.8299C231.805 81.8299 232.606 81.4775 232.606 80.8474C232.606 80.2067 231.805 79.8543 230.534 79.8543Z" stroke="white" stroke-width="2" mask="url(#path-20-outside-1_2796_853)"/>
<path d="M242.508 73.5433V74.2801C242.508 75.0009 242.508 75.8552 242.294 76.9284H243.587V77.8788H239.742V79.1602C241.499 79.283 242.551 79.9344 242.561 80.9756C242.551 82.1502 241.269 82.8123 239.166 82.8123C237.041 82.8123 235.748 82.1502 235.748 80.9756C235.748 79.9344 236.8 79.283 238.568 79.1709V77.8788H234.766V76.9284H241.098C241.301 75.9353 241.323 75.1771 241.323 74.4937H235.855V73.5433H242.508ZM239.166 80.0999C237.735 80.0999 236.944 80.3989 236.955 80.9756C236.944 81.5629 237.735 81.8619 239.166 81.8619C240.564 81.8619 241.355 81.5629 241.365 80.9756C241.355 80.3989 240.564 80.0999 239.166 80.0999Z" stroke="white" stroke-width="2" mask="url(#path-20-outside-1_2796_853)"/>
<defs>
<filter id="filter0_d_2796_853" x="0" y="0" width="305" height="261.453" filterUnits="userSpaceOnUse" color-interpolation-filters="sRGB">
<feFlood flood-opacity="0" result="BackgroundImageFix"/>
<feColorMatrix in="SourceAlpha" type="matrix" values="0 0 0 0 0 0 0 0 0 0 0 0 0 0 0 0 0 0 127 0" result="hardAlpha"/>
<feOffset dx="4" dy="4"/>
<feGaussianBlur stdDeviation="5"/>
<feComposite in2="hardAlpha" operator="out"/>
<feColorMatrix type="matrix" values="0 0 0 0 0 0 0 0 0 0 0 0 0 0 0 0 0 0 0.05 0"/>
<feBlend mode="normal" in2="BackgroundImageFix" result="effect1_dropShadow_2796_853"/>
<feBlend mode="normal" in="SourceGraphic" in2="effect1_dropShadow_2796_853" result="shape"/>
</filter>
<filter id="filter1_d_2796_853" x="70.9779" y="95.807" width="27.8801" height="32.0773" filterUnits="userSpaceOnUse" color-interpolation-filters="sRGB">
<feFlood flood-opacity="0" result="BackgroundImageFix"/>
<feColorMatrix in="SourceAlpha" type="matrix" values="0 0 0 0 0 0 0 0 0 0 0 0 0 0 0 0 0 0 127 0" result="hardAlpha"/>
<feOffset dx="0.5" dy="0.5"/>
<feGaussianBlur stdDeviation="0.45"/>
<feComposite in2="hardAlpha" operator="out"/>
<feColorMatrix type="matrix" values="0 0 0 0 0 0 0 0 0 0 0 0 0 0 0 0 0 0 0.3 0"/>
<feBlend mode="normal" in2="BackgroundImageFix" result="effect1_dropShadow_2796_853"/>
<feBlend mode="normal" in="SourceGraphic" in2="effect1_dropShadow_2796_853" result="shape"/>
</filter>
<filter id="filter2_d_2796_853" x="56.3607" y="187.202" width="27.8801" height="32.0773" filterUnits="userSpaceOnUse" color-interpolation-filters="sRGB">
<feFlood flood-opacity="0" result="BackgroundImageFix"/>
<feColorMatrix in="SourceAlpha" type="matrix" values="0 0 0 0 0 0 0 0 0 0 0 0 0 0 0 0 0 0 127 0" result="hardAlpha"/>
<feOffset dx="0.5" dy="0.5"/>
<feGaussianBlur stdDeviation="0.45"/>
<feComposite in2="hardAlpha" operator="out"/>
<feColorMatrix type="matrix" values="0 0 0 0 0 0 0 0 0 0 0 0 0 0 0 0 0 0 0.3 0"/>
<feBlend mode="normal" in2="BackgroundImageFix" result="effect1_dropShadow_2796_853"/>
<feBlend mode="normal" in="SourceGraphic" in2="effect1_dropShadow_2796_853" result="shape"/>
</filter>
<filter id="filter3_d_2796_853" x="192.551" y="38.7563" width="27.8801" height="32.0773" filterUnits="userSpaceOnUse" color-interpolation-filters="sRGB">
<feFlood flood-opacity="0" result="BackgroundImageFix"/>
<feColorMatrix in="SourceAlpha" type="matrix" values="0 0 0 0 0 0 0 0 0 0 0 0 0 0 0 0 0 0 127 0" result="hardAlpha"/>
<feOffset dx="0.5" dy="0.5"/>
<feGaussianBlur stdDeviation="0.45"/>
<feComposite in2="hardAlpha" operator="out"/>
<feColorMatrix type="matrix" values="0 0 0 0 0 0 0 0 0 0 0 0 0 0 0 0 0 0 0.3 0"/>
<feBlend mode="normal" in2="BackgroundImageFix" result="effect1_dropShadow_2796_853"/>
<feBlend mode="normal" in="SourceGraphic" in2="effect1_dropShadow_2796_853" result="shape"/>
</filter>
<filter id="filter4_d_2796_853" x="216.853" y="87.643" width="27.8801" height="32.0773" filterUnits="userSpaceOnUse" color-interpolation-filters="sRGB">
<feFlood flood-opacity="0" result="BackgroundImageFix"/>
<feColorMatrix in="SourceAlpha" type="matrix" values="0 0 0 0 0 0 0 0 0 0 0 0 0 0 0 0 0 0 127 0" result="hardAlpha"/>
<feOffset dx="0.5" dy="0.5"/>
<feGaussianBlur stdDeviation="0.45"/>
<feComposite in2="hardAlpha" operator="out"/>
<feColorMatrix type="matrix" values="0 0 0 0 0 0 0 0 0 0 0 0 0 0 0 0 0 0 0.3 0"/>
<feBlend mode="normal" in2="BackgroundImageFix" result="effect1_dropShadow_2796_853"/>
<feBlend mode="normal" in="SourceGraphic" in2="effect1_dropShadow_2796_853" result="shape"/>
</filter>
</defs>
</svg>
