<svg width="305" height="262" viewBox="0 0 305 262" fill="none" xmlns="http://www.w3.org/2000/svg">
<g opacity="0.2" filter="url(#filter0_d_2796_775)">
<rect x="6" y="6" width="138.036" height="241.45" rx="18" fill="#C4E6DC"/>
</g>
<g opacity="0.2" filter="url(#filter1_d_2796_775)">
<rect x="152.964" y="6" width="138.036" height="241.45" rx="18" fill="#C4E6DC"/>
</g>
<path d="M204.471 100.246L216.034 124.402L244.099 174.406" stroke="#E16350" stroke-width="2" stroke-linejoin="round"/>
<path d="M64.7607 213.849L89.3806 69.1211" stroke="#E16350" stroke-width="2" stroke-linejoin="round"/>
<path d="M75.1611 56.7383L103.701 57.8043L102.856 79.1243L74.3154 77.6319L75.1611 56.7383Z" fill="#C4E6DC"/>
<path d="M75.1611 56.7383L103.701 57.8043L102.856 79.1243L74.3154 77.6319L75.1611 56.7383Z" stroke="#91D6C9" stroke-width="0.894401"/>
<g filter="url(#filter2_d_2796_775)">
<path d="M81.3579 63.9314C76.6956 59.2296 76.6956 51.6064 81.3579 46.9045V46.9045C86.0203 42.2027 93.5795 42.2027 98.2418 46.9045V46.9045C102.904 51.6064 102.904 59.2296 98.2418 63.9314L91.1328 71.1006C90.3966 71.843 89.2031 71.843 88.4669 71.1006L81.3579 63.9314Z" fill="#00A695"/>
<path d="M91.4849 71.4557L98.5939 64.2865C103.451 59.3885 103.451 51.4474 98.5939 46.5495C93.7371 41.6516 85.8627 41.6516 81.0059 46.5495C76.1491 51.4474 76.1491 59.3885 81.0059 64.2865L88.1149 71.4557C89.0455 72.3941 90.5543 72.3941 91.4849 71.4557Z" stroke="white"/>
</g>
<path d="M45.3588 192.633L88.2732 204.12L82.7103 226.293L53.836 229.232L43.7695 222.82L45.3588 192.633Z" fill="#C4E6DC"/>
<path d="M45.4299 192.988L88.1193 203.901L82.6349 226.472L53.8784 229.013L43.3545 222.735L45.4299 192.988Z" stroke="#91D6C9" stroke-width="0.894401"/>
<g filter="url(#filter3_d_2796_775)">
<path d="M57.1226 209.154C52.4602 204.452 52.4602 196.829 57.1226 192.127V192.127C61.7849 187.425 69.3441 187.425 74.0065 192.127V192.127C78.6688 196.829 78.6688 204.452 74.0065 209.154L66.8975 216.323C66.1613 217.066 64.9677 217.066 64.2316 216.323L57.1226 209.154Z" fill="#00A695"/>
<path d="M67.2495 216.678L74.3585 209.509C79.2153 204.611 79.2153 196.67 74.3585 191.772C69.5017 186.874 61.6273 186.874 56.7705 191.772C51.9137 196.67 51.9137 204.611 56.7705 209.509L63.8795 216.678C64.8101 217.617 66.3189 217.617 67.2495 216.678Z" stroke="white"/>
</g>
<path d="M189.668 88.1797L218.208 89.2457L217.362 110.566L188.822 109.073L189.668 88.1797Z" fill="#C4E6DC"/>
<path d="M189.668 88.1797L218.208 89.2457L217.362 110.566L188.822 109.073L189.668 88.1797Z" stroke="#91D6C9" stroke-width="0.894401"/>
<g filter="url(#filter4_d_2796_775)">
<path d="M195.864 95.3767C191.201 90.6749 191.201 83.0517 195.864 78.3498V78.3498C200.526 73.648 208.085 73.648 212.748 78.3498V78.3498C217.41 83.0517 217.41 90.6749 212.748 95.3767L205.639 102.546C204.903 103.288 203.709 103.288 202.973 102.546L195.864 95.3767Z" fill="#00A695"/>
<path d="M205.991 102.901L213.1 95.7318C217.957 90.8338 217.957 82.8927 213.1 77.9948C208.243 73.0969 200.369 73.0969 195.512 77.9948C190.655 82.8927 190.655 90.8338 195.512 95.7318L202.621 102.901C203.551 103.839 205.06 103.839 205.991 102.901Z" stroke="white"/>
</g>
<path d="M229.847 165.586L258.387 166.652L257.541 187.972L229.001 186.48L229.847 165.586Z" fill="#C4E6DC"/>
<path d="M229.847 165.586L258.387 166.652L257.541 187.972L229.001 186.48L229.847 165.586Z" stroke="#91D6C9" stroke-width="0.894401"/>
<g filter="url(#filter5_d_2796_775)">
<path d="M236.041 172.779C231.378 168.077 231.378 160.454 236.041 155.752V155.752C240.703 151.05 248.262 151.05 252.924 155.752V155.752C257.587 160.454 257.587 168.077 252.924 172.779L245.815 179.948C245.079 180.691 243.886 180.691 243.15 179.948L236.041 172.779Z" fill="#00A695"/>
<path d="M246.167 180.303L253.276 173.134C258.133 168.236 258.133 160.295 253.276 155.397C248.42 150.499 240.545 150.499 235.689 155.397C230.832 160.295 230.832 168.236 235.689 173.134L242.797 180.303C243.728 181.242 245.237 181.242 246.167 180.303Z" stroke="white"/>
</g>
<path d="M86.6692 60.0671L86.6576 58.7867L89.6859 55.9794C90.478 55.2159 90.8973 54.746 90.8973 54.0765C90.8973 53.3247 90.3266 52.8549 89.5578 52.8549C88.7658 52.8549 88.2533 53.3599 88.2533 54.1704H86.5877C86.576 52.5025 87.799 51.4453 89.5811 51.4453C91.3865 51.4453 92.5862 52.479 92.5862 53.959C92.5862 54.9222 92.1203 55.7209 90.3848 57.3067L89.1036 58.5635V58.6105H92.7027V60.0671H86.6692Z" fill="white"/>
<path d="M66.4645 197.238V205.743H64.7057V198.918H64.6591L62.7256 200.14V198.577L64.8105 197.238H66.4645Z" fill="white"/>
<path d="M204.617 83.5012V92.0054H202.858V85.1809H202.812L200.878 86.4025V84.8402L202.963 83.5012H204.617Z" fill="white"/>
<path d="M240.916 169.725L240.904 168.445L243.933 165.637C244.725 164.874 245.144 164.404 245.144 163.734C245.144 162.983 244.573 162.513 243.804 162.513C243.012 162.513 242.5 163.018 242.5 163.828H240.834C240.823 162.16 242.046 161.103 243.828 161.103C245.633 161.103 246.833 162.137 246.833 163.617C246.833 164.58 246.367 165.379 244.631 166.965L243.35 168.221V168.268H246.949V169.725H240.916Z" fill="white"/>
<mask id="path-22-outside-1_2796_775" maskUnits="userSpaceOnUse" x="50.8799" y="26.5156" width="208" height="157" fill="black">
<rect fill="white" x="50.8799" y="26.5156" width="208" height="157"/>
<path d="M84.209 27.5156V33.1538H83.0337V32.086H80.7571V31.1249H83.0337V30.0891H80.8524C80.2436 31.6268 78.8511 32.7 76.7652 33.282L76.2887 32.3423C78.5282 31.7283 79.7194 30.5857 79.91 29.1494H76.7969V28.1884H81.1912C81.1912 28.5247 81.1648 28.8451 81.1065 29.1494H83.0337V27.5156H84.209ZM81.043 33.2606C82.9807 33.2606 84.2726 33.9974 84.2726 35.1827C84.2726 36.368 82.9807 37.1048 81.043 37.1048C79.0841 37.1048 77.7923 36.368 77.7923 35.1827C77.7923 33.9974 79.0841 33.2606 81.043 33.2606ZM81.043 34.1896C79.7512 34.1896 78.9676 34.542 78.9676 35.1827C78.9676 35.8127 79.7512 36.1651 81.043 36.1651C82.3031 36.1651 83.0972 35.8127 83.0972 35.1827C83.0972 34.542 82.3031 34.1896 81.043 34.1896Z"/>
<path d="M93.9642 32.3636V33.314H85.2391V32.3636H88.9981V31.4346H86.3721V27.7399H87.5368V28.7009H91.6664V27.7399H92.8312V31.4346H90.184V32.3636H93.9642ZM92.8947 34.0828V37.1582H91.7194V35.0225H86.2027V34.0828H92.8947ZM87.5368 30.4842H91.6664V29.5872H87.5368V30.4842Z"/>
<path d="M101.962 27.8787V28.6155C101.962 29.3363 101.962 30.1906 101.75 31.2637H103.031V32.2141H99.2191V33.4955C100.961 33.6183 102.004 34.2697 102.015 35.3109C102.004 36.4855 100.733 37.1475 98.6474 37.1475C96.5402 37.1475 95.259 36.4855 95.259 35.3109C95.259 34.2697 96.302 33.6183 98.0544 33.5062V32.2141H94.2848V31.2637H100.564C100.765 30.2707 100.786 29.5125 100.786 28.8291H95.3649V27.8787H101.962ZM98.6474 34.4352C97.2285 34.4352 96.4449 34.7342 96.4555 35.3109C96.4449 35.8982 97.2285 36.1972 98.6474 36.1972C100.034 36.1972 100.818 35.8982 100.829 35.3109C100.818 34.7342 100.034 34.4352 98.6474 34.4352Z"/>
<path d="M56.2424 173.38V174.352H53.0552V177.214C54.6859 177.209 55.6336 177.15 56.6977 176.926L56.8142 177.876C55.6177 178.143 54.58 178.175 52.6211 178.175H51.8799V173.38H56.2424ZM59.3767 178.976V182.382H58.2013V179.926H52.854V178.976H59.3767ZM59.3767 172.729V178.538H58.2013V176.135H55.7448V175.174H58.2013V172.729H59.3767Z"/>
<path d="M65.394 173.53C65.394 174.747 66.7388 175.975 68.7824 176.242L68.3165 177.203C66.6911 176.958 65.3993 176.152 64.7799 175.057C64.1499 176.152 62.8633 176.958 61.2538 177.203L60.7879 176.242C62.8104 175.975 64.1551 174.747 64.1551 173.53V173.039H65.394V173.53ZM69.1318 178.036V179.019H65.3305V182.382H64.1657V179.019H60.4067V178.036H69.1318Z"/>
<path d="M77.1293 173.103V173.84C77.1293 174.56 77.1293 175.415 76.9175 176.488H78.1987V177.438H74.3868V178.72C76.1286 178.842 77.1716 179.494 77.1822 180.535C77.1716 181.71 75.901 182.372 73.815 182.372C71.7079 182.372 70.4266 181.71 70.4266 180.535C70.4266 179.494 71.4696 178.842 73.222 178.73V177.438H69.4525V176.488H75.7316C75.9327 175.495 75.9539 174.737 75.9539 174.053H70.5325V173.103H77.1293ZM73.815 179.659C72.3961 179.659 71.6126 179.958 71.6231 180.535C71.6126 181.122 72.3961 181.421 73.815 181.421C75.2021 181.421 75.9857 181.122 75.9963 180.535C75.9857 179.958 75.2021 179.659 73.815 179.659Z"/>
<path d="M194.337 59.7143C194.337 60.7715 195.11 61.7859 196.614 62.2024L196.074 63.1421C194.978 62.8378 194.199 62.181 193.765 61.3588C193.347 62.2932 192.553 63.03 191.425 63.377L190.853 62.448C192.357 62.0102 193.162 60.8996 193.162 59.7143V59.6716H191.161V58.7319H193.162V57.6107H194.348V58.7319H196.338V59.6716H194.337V59.7143ZM198.446 57.6534V60.0133H199.78V60.9851H198.446V63.5052H197.27V57.6534H198.446ZM195.332 63.708C197.323 63.708 198.53 64.3594 198.541 65.502C198.53 66.6339 197.323 67.2853 195.332 67.2853C193.321 67.2853 192.092 66.6339 192.092 65.502C192.092 64.3594 193.321 63.708 195.332 63.708ZM195.332 64.6264C194.009 64.6264 193.268 64.9147 193.268 65.502C193.268 66.0787 194.009 66.3776 195.332 66.3776C196.645 66.3776 197.376 66.0787 197.376 65.502C197.376 64.9147 196.645 64.6264 195.332 64.6264Z"/>
<path d="M204.823 58.3048V59.2765H201.636V62.1383C203.266 62.133 204.214 62.0743 205.278 61.85L205.395 62.8004C204.198 63.0673 203.16 63.0994 201.202 63.0994H200.46V58.3048H204.823ZM207.957 63.9003V67.3067H206.782V64.8506H201.435V63.9003H207.957ZM207.957 57.6534V63.4624H206.782V61.0598H204.325V60.0988H206.782V57.6534H207.957Z"/>
<path d="M216.664 58.0271V58.764C216.664 59.4847 216.664 60.339 216.452 61.4122H217.734V62.3626H213.922V63.644C215.663 63.7668 216.706 64.4182 216.717 65.4593C216.706 66.6339 215.436 67.296 213.35 67.296C211.243 67.296 209.961 66.6339 209.961 65.4593C209.961 64.4182 211.004 63.7668 212.757 63.6547V62.3626H208.987V61.4122H215.266C215.468 60.4191 215.489 59.6609 215.489 58.9775H210.067V58.0271H216.664ZM213.35 64.5837C211.931 64.5837 211.147 64.8827 211.158 65.4593C211.147 66.0466 211.931 66.3456 213.35 66.3456C214.737 66.3456 215.52 66.0466 215.531 65.4593C215.52 64.8827 214.737 64.5837 213.35 64.5837Z"/>
<path d="M234.27 138.409C234.27 139.466 235.043 140.48 236.546 140.897L236.006 141.836C234.91 141.532 234.132 140.875 233.698 140.053C233.28 140.987 232.486 141.724 231.358 142.071L230.786 141.142C232.29 140.704 233.094 139.594 233.094 138.409V138.366H231.093V137.426H233.094V136.305H234.28V137.426H236.271V138.366H234.27V138.409ZM238.378 136.348V138.708H239.712V139.679H238.378V142.199H237.203V136.348H238.378ZM235.265 142.402C237.256 142.402 238.463 143.054 238.473 144.196C238.463 145.328 237.256 145.979 235.265 145.979C233.253 145.979 232.025 145.328 232.025 144.196C232.025 143.054 233.253 142.402 235.265 142.402ZM235.265 143.321C233.942 143.321 233.2 143.609 233.2 144.196C233.2 144.773 233.942 145.072 235.265 145.072C236.578 145.072 237.309 144.773 237.309 144.196C237.309 143.609 236.578 143.321 235.265 143.321Z"/>
<path d="M247.89 136.358V141.996H246.714V140.929H244.438V139.968H246.714V138.932H244.533C243.924 140.469 242.532 141.543 240.446 142.125L239.969 141.185C242.209 140.571 243.4 139.428 243.591 137.992H240.478V137.031H244.872C244.872 137.367 244.846 137.688 244.787 137.992H246.714V136.358H247.89ZM244.724 142.103C246.662 142.103 247.953 142.84 247.953 144.025C247.953 145.211 246.662 145.947 244.724 145.947C242.765 145.947 241.473 145.211 241.473 144.025C241.473 142.84 242.765 142.103 244.724 142.103ZM244.724 143.032C243.432 143.032 242.648 143.385 242.648 144.025C242.648 144.655 243.432 145.008 244.724 145.008C245.984 145.008 246.778 144.655 246.778 144.025C246.778 143.385 245.984 143.032 244.724 143.032Z"/>
<path d="M256.597 136.721V137.458C256.597 138.179 256.597 139.033 256.385 140.106H257.666V141.057H253.854V142.338C255.596 142.461 256.639 143.112 256.65 144.153C256.639 145.328 255.368 145.99 253.282 145.99C251.175 145.99 249.894 145.328 249.894 144.153C249.894 143.112 250.937 142.461 252.689 142.349V141.057H248.92V140.106H255.199C255.4 139.113 255.421 138.355 255.421 137.672H250V136.721H256.597ZM253.282 143.278C251.864 143.278 251.08 143.577 251.091 144.153C251.08 144.741 251.864 145.04 253.282 145.04C254.67 145.04 255.453 144.741 255.464 144.153C255.453 143.577 254.67 143.278 253.282 143.278Z"/>
</mask>
<path d="M84.209 27.5156V33.1538H83.0337V32.086H80.7571V31.1249H83.0337V30.0891H80.8524C80.2436 31.6268 78.8511 32.7 76.7652 33.282L76.2887 32.3423C78.5282 31.7283 79.7194 30.5857 79.91 29.1494H76.7969V28.1884H81.1912C81.1912 28.5247 81.1648 28.8451 81.1065 29.1494H83.0337V27.5156H84.209ZM81.043 33.2606C82.9807 33.2606 84.2726 33.9974 84.2726 35.1827C84.2726 36.368 82.9807 37.1048 81.043 37.1048C79.0841 37.1048 77.7923 36.368 77.7923 35.1827C77.7923 33.9974 79.0841 33.2606 81.043 33.2606ZM81.043 34.1896C79.7512 34.1896 78.9676 34.542 78.9676 35.1827C78.9676 35.8127 79.7512 36.1651 81.043 36.1651C82.3031 36.1651 83.0972 35.8127 83.0972 35.1827C83.0972 34.542 82.3031 34.1896 81.043 34.1896Z" fill="#00A695"/>
<path d="M93.9642 32.3636V33.314H85.2391V32.3636H88.9981V31.4346H86.3721V27.7399H87.5368V28.7009H91.6664V27.7399H92.8312V31.4346H90.184V32.3636H93.9642ZM92.8947 34.0828V37.1582H91.7194V35.0225H86.2027V34.0828H92.8947ZM87.5368 30.4842H91.6664V29.5872H87.5368V30.4842Z" fill="#00A695"/>
<path d="M101.962 27.8787V28.6155C101.962 29.3363 101.962 30.1906 101.75 31.2637H103.031V32.2141H99.2191V33.4955C100.961 33.6183 102.004 34.2697 102.015 35.3109C102.004 36.4855 100.733 37.1475 98.6474 37.1475C96.5402 37.1475 95.259 36.4855 95.259 35.3109C95.259 34.2697 96.302 33.6183 98.0544 33.5062V32.2141H94.2848V31.2637H100.564C100.765 30.2707 100.786 29.5125 100.786 28.8291H95.3649V27.8787H101.962ZM98.6474 34.4352C97.2285 34.4352 96.4449 34.7342 96.4555 35.3109C96.4449 35.8982 97.2285 36.1972 98.6474 36.1972C100.034 36.1972 100.818 35.8982 100.829 35.3109C100.818 34.7342 100.034 34.4352 98.6474 34.4352Z" fill="#00A695"/>
<path d="M56.2424 173.38V174.352H53.0552V177.214C54.6859 177.209 55.6336 177.15 56.6977 176.926L56.8142 177.876C55.6177 178.143 54.58 178.175 52.6211 178.175H51.8799V173.38H56.2424ZM59.3767 178.976V182.382H58.2013V179.926H52.854V178.976H59.3767ZM59.3767 172.729V178.538H58.2013V176.135H55.7448V175.174H58.2013V172.729H59.3767Z" fill="#00A695"/>
<path d="M65.394 173.53C65.394 174.747 66.7388 175.975 68.7824 176.242L68.3165 177.203C66.6911 176.958 65.3993 176.152 64.7799 175.057C64.1499 176.152 62.8633 176.958 61.2538 177.203L60.7879 176.242C62.8104 175.975 64.1551 174.747 64.1551 173.53V173.039H65.394V173.53ZM69.1318 178.036V179.019H65.3305V182.382H64.1657V179.019H60.4067V178.036H69.1318Z" fill="#00A695"/>
<path d="M77.1293 173.103V173.84C77.1293 174.56 77.1293 175.415 76.9175 176.488H78.1987V177.438H74.3868V178.72C76.1286 178.842 77.1716 179.494 77.1822 180.535C77.1716 181.71 75.901 182.372 73.815 182.372C71.7079 182.372 70.4266 181.71 70.4266 180.535C70.4266 179.494 71.4696 178.842 73.222 178.73V177.438H69.4525V176.488H75.7316C75.9327 175.495 75.9539 174.737 75.9539 174.053H70.5325V173.103H77.1293ZM73.815 179.659C72.3961 179.659 71.6126 179.958 71.6231 180.535C71.6126 181.122 72.3961 181.421 73.815 181.421C75.2021 181.421 75.9857 181.122 75.9963 180.535C75.9857 179.958 75.2021 179.659 73.815 179.659Z" fill="#00A695"/>
<path d="M194.337 59.7143C194.337 60.7715 195.11 61.7859 196.614 62.2024L196.074 63.1421C194.978 62.8378 194.199 62.181 193.765 61.3588C193.347 62.2932 192.553 63.03 191.425 63.377L190.853 62.448C192.357 62.0102 193.162 60.8996 193.162 59.7143V59.6716H191.161V58.7319H193.162V57.6107H194.348V58.7319H196.338V59.6716H194.337V59.7143ZM198.446 57.6534V60.0133H199.78V60.9851H198.446V63.5052H197.27V57.6534H198.446ZM195.332 63.708C197.323 63.708 198.53 64.3594 198.541 65.502C198.53 66.6339 197.323 67.2853 195.332 67.2853C193.321 67.2853 192.092 66.6339 192.092 65.502C192.092 64.3594 193.321 63.708 195.332 63.708ZM195.332 64.6264C194.009 64.6264 193.268 64.9147 193.268 65.502C193.268 66.0787 194.009 66.3776 195.332 66.3776C196.645 66.3776 197.376 66.0787 197.376 65.502C197.376 64.9147 196.645 64.6264 195.332 64.6264Z" fill="#00A695"/>
<path d="M204.823 58.3048V59.2765H201.636V62.1383C203.266 62.133 204.214 62.0743 205.278 61.85L205.395 62.8004C204.198 63.0673 203.16 63.0994 201.202 63.0994H200.46V58.3048H204.823ZM207.957 63.9003V67.3067H206.782V64.8506H201.435V63.9003H207.957ZM207.957 57.6534V63.4624H206.782V61.0598H204.325V60.0988H206.782V57.6534H207.957Z" fill="#00A695"/>
<path d="M216.664 58.0271V58.764C216.664 59.4847 216.664 60.339 216.452 61.4122H217.734V62.3626H213.922V63.644C215.663 63.7668 216.706 64.4182 216.717 65.4593C216.706 66.6339 215.436 67.296 213.35 67.296C211.243 67.296 209.961 66.6339 209.961 65.4593C209.961 64.4182 211.004 63.7668 212.757 63.6547V62.3626H208.987V61.4122H215.266C215.468 60.4191 215.489 59.6609 215.489 58.9775H210.067V58.0271H216.664ZM213.35 64.5837C211.931 64.5837 211.147 64.8827 211.158 65.4593C211.147 66.0466 211.931 66.3456 213.35 66.3456C214.737 66.3456 215.52 66.0466 215.531 65.4593C215.52 64.8827 214.737 64.5837 213.35 64.5837Z" fill="#00A695"/>
<path d="M234.27 138.409C234.27 139.466 235.043 140.48 236.546 140.897L236.006 141.836C234.91 141.532 234.132 140.875 233.698 140.053C233.28 140.987 232.486 141.724 231.358 142.071L230.786 141.142C232.29 140.704 233.094 139.594 233.094 138.409V138.366H231.093V137.426H233.094V136.305H234.28V137.426H236.271V138.366H234.27V138.409ZM238.378 136.348V138.708H239.712V139.679H238.378V142.199H237.203V136.348H238.378ZM235.265 142.402C237.256 142.402 238.463 143.054 238.473 144.196C238.463 145.328 237.256 145.979 235.265 145.979C233.253 145.979 232.025 145.328 232.025 144.196C232.025 143.054 233.253 142.402 235.265 142.402ZM235.265 143.321C233.942 143.321 233.2 143.609 233.2 144.196C233.2 144.773 233.942 145.072 235.265 145.072C236.578 145.072 237.309 144.773 237.309 144.196C237.309 143.609 236.578 143.321 235.265 143.321Z" fill="#00A695"/>
<path d="M247.89 136.358V141.996H246.714V140.929H244.438V139.968H246.714V138.932H244.533C243.924 140.469 242.532 141.543 240.446 142.125L239.969 141.185C242.209 140.571 243.4 139.428 243.591 137.992H240.478V137.031H244.872C244.872 137.367 244.846 137.688 244.787 137.992H246.714V136.358H247.89ZM244.724 142.103C246.662 142.103 247.953 142.84 247.953 144.025C247.953 145.211 246.662 145.947 244.724 145.947C242.765 145.947 241.473 145.211 241.473 144.025C241.473 142.84 242.765 142.103 244.724 142.103ZM244.724 143.032C243.432 143.032 242.648 143.385 242.648 144.025C242.648 144.655 243.432 145.008 244.724 145.008C245.984 145.008 246.778 144.655 246.778 144.025C246.778 143.385 245.984 143.032 244.724 143.032Z" fill="#00A695"/>
<path d="M256.597 136.721V137.458C256.597 138.179 256.597 139.033 256.385 140.106H257.666V141.057H253.854V142.338C255.596 142.461 256.639 143.112 256.65 144.153C256.639 145.328 255.368 145.99 253.282 145.99C251.175 145.99 249.894 145.328 249.894 144.153C249.894 143.112 250.937 142.461 252.689 142.349V141.057H248.92V140.106H255.199C255.4 139.113 255.421 138.355 255.421 137.672H250V136.721H256.597ZM253.282 143.278C251.864 143.278 251.08 143.577 251.091 144.153C251.08 144.741 251.864 145.04 253.282 145.04C254.67 145.04 255.453 144.741 255.464 144.153C255.453 143.577 254.67 143.278 253.282 143.278Z" fill="#00A695"/>
<path d="M84.209 27.5156V33.1538H83.0337V32.086H80.7571V31.1249H83.0337V30.0891H80.8524C80.2436 31.6268 78.8511 32.7 76.7652 33.282L76.2887 32.3423C78.5282 31.7283 79.7194 30.5857 79.91 29.1494H76.7969V28.1884H81.1912C81.1912 28.5247 81.1648 28.8451 81.1065 29.1494H83.0337V27.5156H84.209ZM81.043 33.2606C82.9807 33.2606 84.2726 33.9974 84.2726 35.1827C84.2726 36.368 82.9807 37.1048 81.043 37.1048C79.0841 37.1048 77.7923 36.368 77.7923 35.1827C77.7923 33.9974 79.0841 33.2606 81.043 33.2606ZM81.043 34.1896C79.7512 34.1896 78.9676 34.542 78.9676 35.1827C78.9676 35.8127 79.7512 36.1651 81.043 36.1651C82.3031 36.1651 83.0972 35.8127 83.0972 35.1827C83.0972 34.542 82.3031 34.1896 81.043 34.1896Z" stroke="white" stroke-width="2" mask="url(#path-22-outside-1_2796_775)"/>
<path d="M93.9642 32.3636V33.314H85.2391V32.3636H88.9981V31.4346H86.3721V27.7399H87.5368V28.7009H91.6664V27.7399H92.8312V31.4346H90.184V32.3636H93.9642ZM92.8947 34.0828V37.1582H91.7194V35.0225H86.2027V34.0828H92.8947ZM87.5368 30.4842H91.6664V29.5872H87.5368V30.4842Z" stroke="white" stroke-width="2" mask="url(#path-22-outside-1_2796_775)"/>
<path d="M101.962 27.8787V28.6155C101.962 29.3363 101.962 30.1906 101.75 31.2637H103.031V32.2141H99.2191V33.4955C100.961 33.6183 102.004 34.2697 102.015 35.3109C102.004 36.4855 100.733 37.1475 98.6474 37.1475C96.5402 37.1475 95.259 36.4855 95.259 35.3109C95.259 34.2697 96.302 33.6183 98.0544 33.5062V32.2141H94.2848V31.2637H100.564C100.765 30.2707 100.786 29.5125 100.786 28.8291H95.3649V27.8787H101.962ZM98.6474 34.4352C97.2285 34.4352 96.4449 34.7342 96.4555 35.3109C96.4449 35.8982 97.2285 36.1972 98.6474 36.1972C100.034 36.1972 100.818 35.8982 100.829 35.3109C100.818 34.7342 100.034 34.4352 98.6474 34.4352Z" stroke="white" stroke-width="2" mask="url(#path-22-outside-1_2796_775)"/>
<path d="M56.2424 173.38V174.352H53.0552V177.214C54.6859 177.209 55.6336 177.15 56.6977 176.926L56.8142 177.876C55.6177 178.143 54.58 178.175 52.6211 178.175H51.8799V173.38H56.2424ZM59.3767 178.976V182.382H58.2013V179.926H52.854V178.976H59.3767ZM59.3767 172.729V178.538H58.2013V176.135H55.7448V175.174H58.2013V172.729H59.3767Z" stroke="white" stroke-width="2" mask="url(#path-22-outside-1_2796_775)"/>
<path d="M65.394 173.53C65.394 174.747 66.7388 175.975 68.7824 176.242L68.3165 177.203C66.6911 176.958 65.3993 176.152 64.7799 175.057C64.1499 176.152 62.8633 176.958 61.2538 177.203L60.7879 176.242C62.8104 175.975 64.1551 174.747 64.1551 173.53V173.039H65.394V173.53ZM69.1318 178.036V179.019H65.3305V182.382H64.1657V179.019H60.4067V178.036H69.1318Z" stroke="white" stroke-width="2" mask="url(#path-22-outside-1_2796_775)"/>
<path d="M77.1293 173.103V173.84C77.1293 174.56 77.1293 175.415 76.9175 176.488H78.1987V177.438H74.3868V178.72C76.1286 178.842 77.1716 179.494 77.1822 180.535C77.1716 181.71 75.901 182.372 73.815 182.372C71.7079 182.372 70.4266 181.71 70.4266 180.535C70.4266 179.494 71.4696 178.842 73.222 178.73V177.438H69.4525V176.488H75.7316C75.9327 175.495 75.9539 174.737 75.9539 174.053H70.5325V173.103H77.1293ZM73.815 179.659C72.3961 179.659 71.6126 179.958 71.6231 180.535C71.6126 181.122 72.3961 181.421 73.815 181.421C75.2021 181.421 75.9857 181.122 75.9963 180.535C75.9857 179.958 75.2021 179.659 73.815 179.659Z" stroke="white" stroke-width="2" mask="url(#path-22-outside-1_2796_775)"/>
<path d="M194.337 59.7143C194.337 60.7715 195.11 61.7859 196.614 62.2024L196.074 63.1421C194.978 62.8378 194.199 62.181 193.765 61.3588C193.347 62.2932 192.553 63.03 191.425 63.377L190.853 62.448C192.357 62.0102 193.162 60.8996 193.162 59.7143V59.6716H191.161V58.7319H193.162V57.6107H194.348V58.7319H196.338V59.6716H194.337V59.7143ZM198.446 57.6534V60.0133H199.78V60.9851H198.446V63.5052H197.27V57.6534H198.446ZM195.332 63.708C197.323 63.708 198.53 64.3594 198.541 65.502C198.53 66.6339 197.323 67.2853 195.332 67.2853C193.321 67.2853 192.092 66.6339 192.092 65.502C192.092 64.3594 193.321 63.708 195.332 63.708ZM195.332 64.6264C194.009 64.6264 193.268 64.9147 193.268 65.502C193.268 66.0787 194.009 66.3776 195.332 66.3776C196.645 66.3776 197.376 66.0787 197.376 65.502C197.376 64.9147 196.645 64.6264 195.332 64.6264Z" stroke="white" stroke-width="2" mask="url(#path-22-outside-1_2796_775)"/>
<path d="M204.823 58.3048V59.2765H201.636V62.1383C203.266 62.133 204.214 62.0743 205.278 61.85L205.395 62.8004C204.198 63.0673 203.16 63.0994 201.202 63.0994H200.46V58.3048H204.823ZM207.957 63.9003V67.3067H206.782V64.8506H201.435V63.9003H207.957ZM207.957 57.6534V63.4624H206.782V61.0598H204.325V60.0988H206.782V57.6534H207.957Z" stroke="white" stroke-width="2" mask="url(#path-22-outside-1_2796_775)"/>
<path d="M216.664 58.0271V58.764C216.664 59.4847 216.664 60.339 216.452 61.4122H217.734V62.3626H213.922V63.644C215.663 63.7668 216.706 64.4182 216.717 65.4593C216.706 66.6339 215.436 67.296 213.35 67.296C211.243 67.296 209.961 66.6339 209.961 65.4593C209.961 64.4182 211.004 63.7668 212.757 63.6547V62.3626H208.987V61.4122H215.266C215.468 60.4191 215.489 59.6609 215.489 58.9775H210.067V58.0271H216.664ZM213.35 64.5837C211.931 64.5837 211.147 64.8827 211.158 65.4593C211.147 66.0466 211.931 66.3456 213.35 66.3456C214.737 66.3456 215.52 66.0466 215.531 65.4593C215.52 64.8827 214.737 64.5837 213.35 64.5837Z" stroke="white" stroke-width="2" mask="url(#path-22-outside-1_2796_775)"/>
<path d="M234.27 138.409C234.27 139.466 235.043 140.48 236.546 140.897L236.006 141.836C234.91 141.532 234.132 140.875 233.698 140.053C233.28 140.987 232.486 141.724 231.358 142.071L230.786 141.142C232.29 140.704 233.094 139.594 233.094 138.409V138.366H231.093V137.426H233.094V136.305H234.28V137.426H236.271V138.366H234.27V138.409ZM238.378 136.348V138.708H239.712V139.679H238.378V142.199H237.203V136.348H238.378ZM235.265 142.402C237.256 142.402 238.463 143.054 238.473 144.196C238.463 145.328 237.256 145.979 235.265 145.979C233.253 145.979 232.025 145.328 232.025 144.196C232.025 143.054 233.253 142.402 235.265 142.402ZM235.265 143.321C233.942 143.321 233.2 143.609 233.2 144.196C233.2 144.773 233.942 145.072 235.265 145.072C236.578 145.072 237.309 144.773 237.309 144.196C237.309 143.609 236.578 143.321 235.265 143.321Z" stroke="white" stroke-width="2" mask="url(#path-22-outside-1_2796_775)"/>
<path d="M247.89 136.358V141.996H246.714V140.929H244.438V139.968H246.714V138.932H244.533C243.924 140.469 242.532 141.543 240.446 142.125L239.969 141.185C242.209 140.571 243.4 139.428 243.591 137.992H240.478V137.031H244.872C244.872 137.367 244.846 137.688 244.787 137.992H246.714V136.358H247.89ZM244.724 142.103C246.662 142.103 247.953 142.84 247.953 144.025C247.953 145.211 246.662 145.947 244.724 145.947C242.765 145.947 241.473 145.211 241.473 144.025C241.473 142.84 242.765 142.103 244.724 142.103ZM244.724 143.032C243.432 143.032 242.648 143.385 242.648 144.025C242.648 144.655 243.432 145.008 244.724 145.008C245.984 145.008 246.778 144.655 246.778 144.025C246.778 143.385 245.984 143.032 244.724 143.032Z" stroke="white" stroke-width="2" mask="url(#path-22-outside-1_2796_775)"/>
<path d="M256.597 136.721V137.458C256.597 138.179 256.597 139.033 256.385 140.106H257.666V141.057H253.854V142.338C255.596 142.461 256.639 143.112 256.65 144.153C256.639 145.328 255.368 145.99 253.282 145.99C251.175 145.99 249.894 145.328 249.894 144.153C249.894 143.112 250.937 142.461 252.689 142.349V141.057H248.92V140.106H255.199C255.4 139.113 255.421 138.355 255.421 137.672H250V136.721H256.597ZM253.282 143.278C251.864 143.278 251.08 143.577 251.091 144.153C251.08 144.741 251.864 145.04 253.282 145.04C254.67 145.04 255.453 144.741 255.464 144.153C255.453 143.577 254.67 143.278 253.282 143.278Z" stroke="white" stroke-width="2" mask="url(#path-22-outside-1_2796_775)"/>
<defs>
<filter id="filter0_d_2796_775" x="0" y="0" width="158.036" height="261.449" filterUnits="userSpaceOnUse" color-interpolation-filters="sRGB">
<feFlood flood-opacity="0" result="BackgroundImageFix"/>
<feColorMatrix in="SourceAlpha" type="matrix" values="0 0 0 0 0 0 0 0 0 0 0 0 0 0 0 0 0 0 127 0" result="hardAlpha"/>
<feOffset dx="4" dy="4"/>
<feGaussianBlur stdDeviation="5"/>
<feComposite in2="hardAlpha" operator="out"/>
<feColorMatrix type="matrix" values="0 0 0 0 0 0 0 0 0 0 0 0 0 0 0 0 0 0 0.05 0"/>
<feBlend mode="normal" in2="BackgroundImageFix" result="effect1_dropShadow_2796_775"/>
<feBlend mode="normal" in="SourceGraphic" in2="effect1_dropShadow_2796_775" result="shape"/>
</filter>
<filter id="filter1_d_2796_775" x="146.964" y="0" width="158.036" height="261.449" filterUnits="userSpaceOnUse" color-interpolation-filters="sRGB">
<feFlood flood-opacity="0" result="BackgroundImageFix"/>
<feColorMatrix in="SourceAlpha" type="matrix" values="0 0 0 0 0 0 0 0 0 0 0 0 0 0 0 0 0 0 127 0" result="hardAlpha"/>
<feOffset dx="4" dy="4"/>
<feGaussianBlur stdDeviation="5"/>
<feComposite in2="hardAlpha" operator="out"/>
<feColorMatrix type="matrix" values="0 0 0 0 0 0 0 0 0 0 0 0 0 0 0 0 0 0 0.05 0"/>
<feBlend mode="normal" in2="BackgroundImageFix" result="effect1_dropShadow_2796_775"/>
<feBlend mode="normal" in="SourceGraphic" in2="effect1_dropShadow_2796_775" result="shape"/>
</filter>
<filter id="filter2_d_2796_775" x="76.4652" y="41.975" width="27.6691" height="32.0852" filterUnits="userSpaceOnUse" color-interpolation-filters="sRGB">
<feFlood flood-opacity="0" result="BackgroundImageFix"/>
<feColorMatrix in="SourceAlpha" type="matrix" values="0 0 0 0 0 0 0 0 0 0 0 0 0 0 0 0 0 0 127 0" result="hardAlpha"/>
<feOffset dx="0.5" dy="0.5"/>
<feGaussianBlur stdDeviation="0.45"/>
<feComposite in2="hardAlpha" operator="out"/>
<feColorMatrix type="matrix" values="0 0 0 0 0 0 0 0 0 0 0 0 0 0 0 0 0 0 0.3 0"/>
<feBlend mode="normal" in2="BackgroundImageFix" result="effect1_dropShadow_2796_775"/>
<feBlend mode="normal" in="SourceGraphic" in2="effect1_dropShadow_2796_775" result="shape"/>
</filter>
<filter id="filter3_d_2796_775" x="52.2299" y="187.198" width="27.6691" height="32.0852" filterUnits="userSpaceOnUse" color-interpolation-filters="sRGB">
<feFlood flood-opacity="0" result="BackgroundImageFix"/>
<feColorMatrix in="SourceAlpha" type="matrix" values="0 0 0 0 0 0 0 0 0 0 0 0 0 0 0 0 0 0 127 0" result="hardAlpha"/>
<feOffset dx="0.5" dy="0.5"/>
<feGaussianBlur stdDeviation="0.45"/>
<feComposite in2="hardAlpha" operator="out"/>
<feColorMatrix type="matrix" values="0 0 0 0 0 0 0 0 0 0 0 0 0 0 0 0 0 0 0.3 0"/>
<feBlend mode="normal" in2="BackgroundImageFix" result="effect1_dropShadow_2796_775"/>
<feBlend mode="normal" in="SourceGraphic" in2="effect1_dropShadow_2796_775" result="shape"/>
</filter>
<filter id="filter4_d_2796_775" x="190.971" y="73.4203" width="27.6691" height="32.0852" filterUnits="userSpaceOnUse" color-interpolation-filters="sRGB">
<feFlood flood-opacity="0" result="BackgroundImageFix"/>
<feColorMatrix in="SourceAlpha" type="matrix" values="0 0 0 0 0 0 0 0 0 0 0 0 0 0 0 0 0 0 127 0" result="hardAlpha"/>
<feOffset dx="0.5" dy="0.5"/>
<feGaussianBlur stdDeviation="0.45"/>
<feComposite in2="hardAlpha" operator="out"/>
<feColorMatrix type="matrix" values="0 0 0 0 0 0 0 0 0 0 0 0 0 0 0 0 0 0 0.3 0"/>
<feBlend mode="normal" in2="BackgroundImageFix" result="effect1_dropShadow_2796_775"/>
<feBlend mode="normal" in="SourceGraphic" in2="effect1_dropShadow_2796_775" result="shape"/>
</filter>
<filter id="filter5_d_2796_775" x="231.148" y="150.823" width="27.6691" height="32.0852" filterUnits="userSpaceOnUse" color-interpolation-filters="sRGB">
<feFlood flood-opacity="0" result="BackgroundImageFix"/>
<feColorMatrix in="SourceAlpha" type="matrix" values="0 0 0 0 0 0 0 0 0 0 0 0 0 0 0 0 0 0 127 0" result="hardAlpha"/>
<feOffset dx="0.5" dy="0.5"/>
<feGaussianBlur stdDeviation="0.45"/>
<feComposite in2="hardAlpha" operator="out"/>
<feColorMatrix type="matrix" values="0 0 0 0 0 0 0 0 0 0 0 0 0 0 0 0 0 0 0.3 0"/>
<feBlend mode="normal" in2="BackgroundImageFix" result="effect1_dropShadow_2796_775"/>
<feBlend mode="normal" in="SourceGraphic" in2="effect1_dropShadow_2796_775" result="shape"/>
</filter>
</defs>
</svg>
