<svg width="322" height="392" viewBox="0 0 322 392" fill="none" xmlns="http://www.w3.org/2000/svg">
<g filter="url(#filter0_d_1281_452)">
<path d="M16 46.5962C16 29.6984 29.6984 16 46.5962 16H283.717C300.615 16 314.313 29.6984 314.313 46.5962V353.063C314.313 369.961 300.615 383.659 283.717 383.659H46.5962C29.6984 383.659 16 369.961 16 353.063V46.5962Z" fill="#FAFAFA"/>
</g>
<path d="M107.883 300.413C108.824 300.413 109.632 300.512 110.306 300.711C110.981 300.904 111.498 301.189 111.859 301.566C112.22 301.942 112.4 302.394 112.4 302.923C112.4 303.451 112.22 303.903 111.859 304.279C111.498 304.661 110.978 304.951 110.298 305.15C109.624 305.354 108.818 305.458 107.883 305.464C106.941 305.458 106.131 305.354 105.451 305.15C104.771 304.951 104.248 304.661 103.882 304.279C103.522 303.903 103.344 303.451 103.349 302.923C103.344 302.394 103.522 301.942 103.882 301.566C104.248 301.189 104.771 300.904 105.451 300.711C106.131 300.512 106.941 300.413 107.883 300.413ZM107.883 301.213C107.161 301.213 106.531 301.283 105.992 301.424C105.454 301.56 105.038 301.759 104.745 302.021C104.458 302.277 104.316 302.577 104.322 302.923C104.316 303.273 104.458 303.579 104.745 303.84C105.038 304.096 105.454 304.292 105.992 304.428C106.531 304.564 107.161 304.632 107.883 304.632C108.604 304.632 109.232 304.564 109.765 304.428C110.303 304.292 110.717 304.096 111.004 303.84C111.297 303.579 111.443 303.273 111.443 302.923C111.443 302.577 111.297 302.277 111.004 302.021C110.717 301.759 110.303 301.56 109.765 301.424C109.232 301.283 108.604 301.213 107.883 301.213ZM112.29 295.205H114.424V296.067H112.29V300.02H111.302V291.644H112.29V295.205ZM103.129 294.734H107.553V292.491H108.526V298.844H102.157V292.491H103.129V294.734ZM107.553 298.013V295.534H103.129V298.013H107.553ZM127.275 299.628H121.502V302.609H120.53V299.628H114.616V298.797H127.275V299.628ZM125.612 297.056H116.279V292.318H125.612V297.056ZM117.251 296.256H124.64V293.134H117.251V296.256ZM125.863 305.15H116.279V301.197H117.267V304.319H125.863V305.15ZM134.039 291.895C135.054 291.895 135.922 291.989 136.643 292.177C137.37 292.36 137.925 292.632 138.306 292.993C138.693 293.348 138.887 293.782 138.887 294.295C138.887 294.813 138.693 295.254 138.306 295.62C137.925 295.981 137.37 296.256 136.643 296.444C135.922 296.632 135.054 296.726 134.039 296.726C133.025 296.726 132.154 296.632 131.428 296.444C130.706 296.256 130.152 295.981 129.765 295.62C129.383 295.254 129.192 294.813 129.192 294.295C129.192 293.782 129.383 293.348 129.765 292.993C130.152 292.632 130.706 292.36 131.428 292.177C132.154 291.989 133.025 291.895 134.039 291.895ZM134.039 292.663C133.255 292.663 132.575 292.731 132 292.867C131.425 292.998 130.983 293.186 130.675 293.432C130.366 293.673 130.212 293.96 130.212 294.295C130.212 294.64 130.366 294.938 130.675 295.189C130.983 295.44 131.422 295.631 131.992 295.762C132.568 295.892 133.25 295.958 134.039 295.958C134.829 295.958 135.511 295.892 136.087 295.762C136.667 295.631 137.111 295.44 137.42 295.189C137.728 294.938 137.883 294.64 137.883 294.295C137.883 293.96 137.728 293.673 137.42 293.432C137.111 293.186 136.667 292.998 136.087 292.867C135.511 292.731 134.829 292.663 134.039 292.663ZM140.361 298.577H127.749V297.762H140.361V298.577ZM138.698 302.86H130.306V304.491H139.138V305.307H129.349V302.091H137.742V300.679H129.302V299.895H138.698V302.86ZM148.212 292.318C148.881 292.318 149.475 292.431 149.992 292.656C150.51 292.875 150.913 293.189 151.2 293.597C151.488 294.005 151.632 294.478 151.632 295.016C151.632 295.498 151.511 295.932 151.271 296.318C151.035 296.7 150.698 297.011 150.259 297.252C149.825 297.487 149.32 297.634 148.745 297.691V299.15C150.283 299.071 151.626 298.943 152.777 298.766L152.855 299.519C151.537 299.754 150.154 299.911 148.706 299.989C147.263 300.062 145.728 300.099 144.102 300.099L143.977 299.252H144.682C145.723 299.252 146.748 299.234 147.757 299.197V297.699C147.171 297.647 146.654 297.503 146.204 297.268C145.754 297.032 145.407 296.721 145.161 296.334C144.915 295.947 144.792 295.508 144.792 295.016C144.792 294.478 144.936 294.005 145.224 293.597C145.511 293.189 145.914 292.875 146.431 292.656C146.949 292.431 147.543 292.318 148.212 292.318ZM148.212 293.087C147.731 293.087 147.299 293.171 146.918 293.338C146.541 293.5 146.248 293.728 146.039 294.02C145.83 294.313 145.728 294.645 145.733 295.016C145.728 295.388 145.83 295.72 146.039 296.013C146.248 296.3 146.541 296.528 146.918 296.695C147.299 296.857 147.731 296.941 148.212 296.946C148.698 296.941 149.13 296.857 149.506 296.695C149.883 296.528 150.175 296.3 150.384 296.013C150.594 295.72 150.701 295.388 150.706 295.016C150.701 294.645 150.594 294.313 150.384 294.02C150.175 293.728 149.883 293.5 149.506 293.338C149.13 293.171 148.698 293.087 148.212 293.087ZM154.69 296.444H156.855V297.291H154.69V302.248H153.702V291.644H154.69V296.444ZM155.208 305.134H146.063V301.322H147.051V304.287H155.208V305.134ZM169.769 303.707H157.094V302.86H160.765V300.068H158.726V295.926H167.149V293.542H158.679V292.711H168.122V296.758H159.698V299.236H168.451V300.068H166.208V302.86H169.769V303.707ZM165.236 302.86V300.068H161.737V302.86H165.236ZM181.914 300.24H180.973V296.366H178.918V300.005H177.977V291.879H178.918V295.534H180.973V291.644H181.914V300.24ZM177.334 294.138H170.133V293.307H173.255V291.691H174.243V293.307H177.334V294.138ZM173.741 294.922C174.322 294.922 174.834 295.019 175.279 295.213C175.728 295.401 176.076 295.673 176.322 296.028C176.573 296.384 176.701 296.8 176.706 297.275C176.701 297.746 176.573 298.159 176.322 298.515C176.076 298.87 175.728 299.145 175.279 299.338C174.834 299.532 174.322 299.628 173.741 299.628C173.161 299.628 172.646 299.532 172.196 299.338C171.747 299.145 171.399 298.87 171.153 298.515C170.907 298.159 170.787 297.746 170.792 297.275C170.787 296.8 170.907 296.384 171.153 296.028C171.399 295.673 171.744 295.401 172.188 295.213C172.638 295.019 173.156 294.922 173.741 294.922ZM173.741 295.691C173.339 295.691 172.981 295.756 172.667 295.887C172.353 296.018 172.107 296.203 171.93 296.444C171.757 296.684 171.671 296.962 171.671 297.275C171.671 297.584 171.757 297.858 171.93 298.099C172.107 298.339 172.353 298.528 172.667 298.664C172.981 298.794 173.339 298.86 173.741 298.86C174.144 298.86 174.5 298.794 174.808 298.664C175.122 298.528 175.365 298.339 175.538 298.099C175.71 297.858 175.796 297.584 175.796 297.275C175.796 296.962 175.71 296.684 175.538 296.444C175.365 296.203 175.122 296.018 174.808 295.887C174.5 295.756 174.144 295.691 173.741 295.691ZM174.981 301.181C174.975 301.605 175.051 302.023 175.208 302.436C175.365 302.844 175.6 303.223 175.914 303.573C176.228 303.924 176.609 304.214 177.059 304.444C177.493 304.193 177.87 303.882 178.189 303.511C178.513 303.139 178.758 302.75 178.926 302.342C179.093 301.929 179.179 301.542 179.185 301.181V300.632H180.142V301.181C180.142 301.641 180.262 302.094 180.502 302.538C180.743 302.983 181.083 303.383 181.522 303.738C181.961 304.089 182.468 304.355 183.044 304.538L182.557 305.307C181.867 305.066 181.271 304.713 180.769 304.248C180.267 303.783 179.896 303.255 179.655 302.664C179.43 303.26 179.098 303.804 178.659 304.295C178.225 304.792 177.7 305.171 177.083 305.432C176.429 305.176 175.88 304.81 175.436 304.334C174.996 303.858 174.675 303.317 174.471 302.711C174.215 303.281 173.838 303.796 173.341 304.256C172.85 304.711 172.277 305.061 171.624 305.307L171.122 304.538C171.681 304.345 172.181 304.068 172.62 303.707C173.059 303.341 173.399 302.936 173.639 302.491C173.885 302.047 174.008 301.61 174.008 301.181V300.632H174.981V301.181ZM185.965 301.699H193.275V299.942H194.279V305.275H184.977V299.942H185.965V301.699ZM193.275 304.46V302.515H185.965V304.46H193.275ZM195.942 298.875H183.33V298.028H195.942V298.875ZM190.138 292.507C190.138 293.082 190.394 293.628 190.906 294.146C191.424 294.664 192.075 295.1 192.859 295.456C193.644 295.806 194.42 296.036 195.189 296.146L194.812 296.93C194.117 296.82 193.424 296.627 192.734 296.35C192.049 296.067 191.429 295.715 190.875 295.291C190.326 294.867 189.913 294.394 189.636 293.871C189.364 294.394 188.953 294.87 188.404 295.299C187.855 295.722 187.236 296.073 186.545 296.35C185.855 296.627 185.16 296.82 184.459 296.93L184.083 296.146C184.867 296.031 185.649 295.801 186.428 295.456C187.212 295.111 187.858 294.682 188.365 294.169C188.877 293.652 189.134 293.097 189.134 292.507V291.785H190.138V292.507ZM207.773 305.479H206.8V291.644H207.773V305.479ZM198.361 300.977H198.487C199.632 300.977 200.753 300.925 201.851 300.821C202.955 300.716 204.076 300.543 205.216 300.303L205.357 301.166C204.176 301.417 203.03 301.594 201.922 301.699C200.813 301.804 199.668 301.856 198.487 301.856H197.388V293.009H198.361V300.977ZM220.216 297.228H222.601V298.06H220.216V305.495H219.228V291.644H220.216V297.228ZM211.259 301.134C212.65 301.134 213.832 301.1 214.804 301.032C215.782 300.964 216.776 300.836 217.785 300.648L217.926 301.511C216.88 301.699 215.861 301.827 214.867 301.895C213.874 301.963 212.671 301.997 211.259 301.997H210.192V293.009H216.64V293.84H211.181V301.134H211.259ZM224.047 304.334C223.812 304.334 223.611 304.253 223.443 304.091C223.281 303.929 223.2 303.733 223.2 303.503C223.2 303.268 223.281 303.069 223.443 302.907C223.611 302.739 223.812 302.656 224.047 302.656C224.277 302.656 224.474 302.739 224.636 302.907C224.798 303.069 224.879 303.268 224.879 303.503C224.879 303.728 224.798 303.924 224.636 304.091C224.474 304.253 224.277 304.334 224.047 304.334ZM57.9219 322.256L62.0475 310.899H63.2553L67.3809 322.256H66.2044L65.0122 318.883H60.2906L59.0984 322.256H57.9219ZM64.6593 317.895L62.6906 312.342H62.6122L60.6435 317.895H64.6593ZM68.2631 310.899H71.9808C72.7756 310.899 73.4501 311.043 74.0044 311.33C74.5586 311.618 74.9743 312.02 75.2514 312.538C75.5286 313.05 75.6671 313.644 75.6671 314.318C75.6671 315.092 75.4841 315.756 75.1181 316.311C74.7573 316.86 74.2292 317.249 73.5338 317.479L76.1377 322.256H74.8514L72.3886 317.691L71.9965 317.707H69.3768V322.256H68.2631V310.899ZM71.9494 316.687C72.8174 316.687 73.471 316.481 73.9102 316.068C74.3495 315.649 74.5691 315.066 74.5691 314.318C74.5691 313.566 74.3468 312.975 73.9024 312.546C73.4632 312.117 72.8069 311.903 71.9337 311.903H69.3768V316.687H71.9494ZM86.6709 311.118C86.6604 313.262 86.1663 315.184 85.1885 316.883C84.2159 318.577 82.5767 319.987 80.2708 321.111L79.706 320.358C82.2368 319.134 83.9623 317.477 84.8826 315.385L79.9257 315.856L79.7374 314.962L85.1963 314.585C85.4682 313.759 85.6277 312.881 85.6748 311.95H80.4276V311.118H86.6709ZM90.1533 315.385H92.4906V316.217H90.1533V323.479H89.165V309.644H90.1533V315.385ZM98.4082 314.915H100.729V309.958H101.686V322.758H100.729V315.762H98.4082V319.668H93.1688V311.307H98.4082V314.915ZM94.0943 318.852H97.467V312.122H94.0943V318.852ZM104.431 323.479H103.475V309.644H104.431V323.479ZM116.388 315.228H118.773V316.091H116.388V323.495H115.4V309.644H116.388V315.228ZM107.384 319.26C108.822 319.26 110.038 319.226 111.031 319.158C112.025 319.085 113.037 318.951 114.067 318.758L114.177 319.589C113.105 319.788 112.061 319.924 111.047 319.997C110.038 320.07 108.817 320.107 107.384 320.107H106.302V314.946H111.541V311.809H106.271V310.962H112.529V315.793H107.29V319.26H107.384ZM131.53 321.707H118.855V320.86H124.659V318.068H120.486V313.926H128.91V311.542H120.439V310.711H129.883V314.758H121.459V317.236H130.212V318.068H125.647V320.86H131.53V321.707ZM142.722 311.244C142.711 311.945 142.682 312.569 142.635 313.118C142.594 313.667 142.492 314.303 142.329 315.024L141.341 314.93C141.503 314.23 141.608 313.605 141.655 313.056C141.707 312.501 141.733 311.945 141.733 311.385H135.898V310.538H142.722V311.244ZM139.114 316.342C140.902 316.279 142.476 316.159 143.835 315.981L143.898 316.719C141.728 317.074 139.004 317.252 135.725 317.252H135.145L135.035 316.405C136.123 316.405 137.158 316.394 138.141 316.373V313.518H139.114V316.342ZM145.828 313.55H147.961V314.397H145.828V318.35H144.839V309.644H145.828V313.55ZM141.404 318.522C142.345 318.522 143.156 318.619 143.835 318.813C144.52 319.001 145.043 319.278 145.404 319.644C145.77 320.01 145.953 320.447 145.953 320.954C145.953 321.477 145.77 321.924 145.404 322.295C145.043 322.666 144.523 322.949 143.843 323.142C143.163 323.336 142.35 323.432 141.404 323.432C140.463 323.432 139.65 323.336 138.965 323.142C138.285 322.949 137.765 322.666 137.404 322.295C137.043 321.924 136.865 321.477 136.871 320.954C136.865 320.447 137.043 320.01 137.404 319.644C137.77 319.278 138.293 319.001 138.973 318.813C139.658 318.619 140.468 318.522 141.404 318.522ZM141.404 319.307C140.682 319.307 140.052 319.375 139.514 319.511C138.98 319.647 138.567 319.84 138.274 320.091C137.987 320.337 137.843 320.624 137.843 320.954C137.843 321.299 137.987 321.597 138.274 321.848C138.567 322.099 138.98 322.29 139.514 322.421C140.047 322.551 140.677 322.617 141.404 322.617C142.131 322.617 142.761 322.551 143.294 322.421C143.828 322.29 144.238 322.099 144.526 321.848C144.818 321.597 144.965 321.299 144.965 320.954C144.965 320.624 144.818 320.337 144.526 320.091C144.238 319.84 143.825 319.647 143.286 319.511C142.753 319.375 142.126 319.307 141.404 319.307ZM158.82 315.62H161.173V316.468H158.82V323.479H157.847V309.644H158.82V315.62ZM148.027 319.856C149.559 319.856 150.877 319.838 151.98 319.801V318.17C151.426 318.122 150.94 317.989 150.522 317.77C150.108 317.55 149.79 317.26 149.565 316.899C149.34 316.533 149.23 316.117 149.235 315.652C149.23 315.139 149.361 314.69 149.627 314.303C149.894 313.916 150.273 313.618 150.765 313.409C151.256 313.199 151.824 313.095 152.467 313.095C153.105 313.095 153.669 313.202 154.161 313.416C154.652 313.626 155.034 313.924 155.306 314.311C155.578 314.692 155.714 315.139 155.714 315.652C155.714 316.117 155.599 316.53 155.369 316.891C155.144 317.252 154.825 317.542 154.412 317.762C153.999 317.981 153.518 318.117 152.969 318.17V319.762C154.485 319.683 155.808 319.563 156.937 319.401L157.016 320.17C155.667 320.4 154.278 320.549 152.851 320.617C151.429 320.685 149.884 320.719 148.216 320.719L148.027 319.856ZM156.655 312.201H148.263V311.369H151.98V309.644H152.969V311.369H156.655V312.201ZM152.467 313.879C152.012 313.879 151.609 313.955 151.259 314.107C150.914 314.258 150.644 314.47 150.451 314.742C150.258 315.009 150.161 315.312 150.161 315.652C150.161 315.992 150.258 316.295 150.451 316.562C150.644 316.823 150.914 317.027 151.259 317.173C151.609 317.315 152.012 317.383 152.467 317.377C152.922 317.383 153.322 317.315 153.667 317.173C154.012 317.027 154.281 316.823 154.475 316.562C154.668 316.3 154.767 315.997 154.773 315.652C154.767 315.307 154.668 315.001 154.475 314.734C154.281 314.467 154.012 314.258 153.667 314.107C153.322 313.955 152.922 313.879 152.467 313.879ZM173.961 317.628H168.188V320.609H167.216V317.628H161.302V316.797H173.961V317.628ZM172.298 315.056H162.965V310.318H172.298V315.056ZM163.937 314.256H171.326V311.134H163.937V314.256ZM172.549 323.15H162.965V319.197H163.953V322.319H172.549V323.15ZM180.726 309.895C181.74 309.895 182.608 309.989 183.33 310.177C184.056 310.36 184.611 310.632 184.992 310.993C185.379 311.348 185.573 311.782 185.573 312.295C185.573 312.813 185.379 313.254 184.992 313.62C184.611 313.981 184.056 314.256 183.33 314.444C182.608 314.632 181.74 314.726 180.726 314.726C179.711 314.726 178.841 314.632 178.114 314.444C177.392 314.256 176.838 313.981 176.451 313.62C176.069 313.254 175.879 312.813 175.879 312.295C175.879 311.782 176.069 311.348 176.451 310.993C176.838 310.632 177.392 310.36 178.114 310.177C178.841 309.989 179.711 309.895 180.726 309.895ZM180.726 310.663C179.941 310.663 179.262 310.731 178.686 310.867C178.111 310.998 177.669 311.186 177.361 311.432C177.052 311.673 176.898 311.96 176.898 312.295C176.898 312.64 177.052 312.938 177.361 313.189C177.669 313.44 178.109 313.631 178.679 313.762C179.254 313.892 179.936 313.958 180.726 313.958C181.515 313.958 182.198 313.892 182.773 313.762C183.353 313.631 183.798 313.44 184.106 313.189C184.415 312.938 184.569 312.64 184.569 312.295C184.569 311.96 184.415 311.673 184.106 311.432C183.798 311.186 183.353 310.998 182.773 310.867C182.198 310.731 181.515 310.663 180.726 310.663ZM187.047 316.577H174.435V315.762H187.047V316.577ZM185.385 320.86H176.992V322.491H185.824V323.307H176.035V320.091H184.428V318.679H175.988V317.895H185.385V320.86ZM202.035 319.824H201.047V309.644H202.035V319.824ZM202.49 323.15H193.204V318.773H194.192V322.319H202.49V323.15ZM194.6 310.648C195.28 310.648 195.892 310.792 196.435 311.079C196.979 311.362 197.405 311.759 197.714 312.271C198.022 312.779 198.177 313.356 198.177 314.005C198.177 314.658 198.022 315.244 197.714 315.762C197.405 316.274 196.979 316.674 196.435 316.962C195.892 317.244 195.28 317.383 194.6 317.377C193.92 317.383 193.306 317.244 192.757 316.962C192.213 316.674 191.787 316.274 191.478 315.762C191.17 315.244 191.018 314.658 191.024 314.005C191.018 313.356 191.17 312.779 191.478 312.271C191.787 311.759 192.213 311.362 192.757 311.079C193.306 310.792 193.92 310.648 194.6 310.648ZM194.6 311.511C194.103 311.511 193.656 311.62 193.259 311.84C192.861 312.054 192.548 312.352 192.318 312.734C192.093 313.111 191.98 313.534 191.98 314.005C191.98 314.481 192.093 314.909 192.318 315.291C192.548 315.668 192.861 315.963 193.259 316.177C193.656 316.392 194.103 316.499 194.6 316.499C195.092 316.499 195.536 316.392 195.933 316.177C196.336 315.963 196.65 315.668 196.875 315.291C197.105 314.909 197.22 314.481 197.22 314.005C197.22 313.534 197.105 313.111 196.875 312.734C196.645 312.352 196.331 312.054 195.933 311.84C195.536 311.62 195.092 311.511 194.6 311.511ZM208.549 311.652C208.544 312.337 208.698 312.993 209.012 313.62C209.331 314.243 209.765 314.789 210.314 315.26C210.863 315.73 211.472 316.086 212.141 316.326L211.624 317.111C210.808 316.797 210.086 316.334 209.459 315.722C208.831 315.111 208.366 314.402 208.063 313.597C207.77 314.454 207.307 315.213 206.675 315.871C206.047 316.525 205.323 317.022 204.502 317.362L203.969 316.577C204.638 316.321 205.244 315.945 205.788 315.448C206.332 314.946 206.761 314.368 207.075 313.715C207.394 313.056 207.556 312.368 207.561 311.652V310.318H208.549V311.652ZM215.153 323.479H214.165V319.542H205.914V318.726H215.153V323.479ZM215.153 318.005H214.165V309.644H215.153V318.005ZM223.894 312.938H216.867V312.122H219.879V310.067H220.882V312.122H223.894V312.938ZM220.381 313.973C220.95 313.979 221.46 314.115 221.91 314.381C222.36 314.643 222.71 315.009 222.961 315.479C223.217 315.95 223.345 316.483 223.345 317.079C223.345 317.681 223.217 318.219 222.961 318.695C222.71 319.171 222.36 319.542 221.91 319.809C221.46 320.07 220.95 320.201 220.381 320.201C219.811 320.201 219.301 320.07 218.851 319.809C218.401 319.542 218.048 319.171 217.792 318.695C217.541 318.219 217.416 317.681 217.416 317.079C217.416 316.483 217.541 315.95 217.792 315.479C218.048 315.009 218.401 314.643 218.851 314.381C219.301 314.115 219.811 313.979 220.381 313.973ZM220.381 314.82C219.983 314.826 219.625 314.928 219.306 315.126C218.992 315.325 218.747 315.597 218.569 315.942C218.391 316.282 218.305 316.661 218.31 317.079C218.305 317.503 218.391 317.887 218.569 318.232C218.747 318.577 218.992 318.847 219.306 319.04C219.625 319.234 219.983 319.328 220.381 319.322C220.773 319.328 221.126 319.234 221.439 319.04C221.758 318.847 222.007 318.577 222.184 318.232C222.367 317.887 222.462 317.503 222.467 317.079C222.462 316.661 222.367 316.282 222.184 315.942C222.007 315.597 221.758 315.325 221.439 315.126C221.126 314.928 220.773 314.826 220.381 314.82ZM228.632 323.479H227.69V316.373H225.604V322.774H224.679V309.989H225.604V315.542H227.69V309.644H228.632V323.479ZM236.855 311.589C236.855 312.216 237.106 312.81 237.608 313.369C238.115 313.924 238.753 314.389 239.522 314.766C240.29 315.142 241.059 315.39 241.828 315.511L241.451 316.295C240.745 316.164 240.05 315.95 239.365 315.652C238.68 315.349 238.066 314.972 237.522 314.522C236.983 314.067 236.581 313.56 236.314 313.001C236.047 313.555 235.642 314.06 235.098 314.515C234.56 314.969 233.95 315.349 233.271 315.652C232.591 315.95 231.903 316.164 231.208 316.295L230.816 315.511C231.579 315.39 232.345 315.142 233.114 314.766C233.883 314.389 234.518 313.924 235.02 313.369C235.522 312.81 235.773 312.216 235.773 311.589V311.369H231.224V310.554H241.389V311.369H236.855V311.589ZM242.628 318.444H236.777V323.464H235.82V318.444H230.016V317.597H242.628V318.444ZM247.134 313.722C247.134 314.444 247.262 315.173 247.518 315.911C247.774 316.648 248.132 317.32 248.592 317.926C249.053 318.533 249.581 319.009 250.177 319.354L249.581 320.122C248.906 319.715 248.315 319.147 247.808 318.42C247.306 317.694 246.93 316.886 246.679 315.997C246.428 316.954 246.036 317.822 245.502 318.601C244.974 319.38 244.362 319.981 243.667 320.405L243.008 319.668C243.62 319.317 244.166 318.831 244.647 318.209C245.128 317.581 245.505 316.881 245.777 316.107C246.049 315.328 246.187 314.543 246.192 313.754V310.977H247.134V313.722ZM254.945 323.479H253.989V309.644H254.945V323.479ZM252.091 322.758H251.149V315.558H248.624V314.695H251.149V309.958H252.091V322.758ZM268.926 321.644H256.251V320.797H259.483V316.946C258.866 316.637 258.387 316.24 258.047 315.754C257.707 315.268 257.537 314.716 257.537 314.099C257.537 313.398 257.749 312.784 258.173 312.256C258.596 311.722 259.187 311.309 259.945 311.016C260.704 310.724 261.569 310.575 262.541 310.569C263.519 310.575 264.387 310.724 265.145 311.016C265.909 311.309 266.502 311.722 266.926 312.256C267.349 312.784 267.561 313.398 267.561 314.099C267.561 314.705 267.394 315.252 267.059 315.738C266.73 316.219 266.264 316.614 265.663 316.922V320.797H268.926V321.644ZM262.541 311.401C261.762 311.396 261.064 311.505 260.447 311.73C259.83 311.955 259.347 312.274 258.996 312.687C258.651 313.1 258.479 313.571 258.479 314.099C258.479 314.622 258.654 315.087 259.004 315.495C259.354 315.903 259.838 316.222 260.455 316.452C261.072 316.677 261.768 316.786 262.541 316.781C263.315 316.786 264.013 316.677 264.636 316.452C265.258 316.222 265.744 315.903 266.094 315.495C266.445 315.087 266.62 314.622 266.62 314.099C266.62 313.571 266.445 313.1 266.094 312.687C265.744 312.274 265.258 311.955 264.636 311.73C264.019 311.505 263.321 311.396 262.541 311.401ZM264.675 320.797V317.307C264.032 317.49 263.321 317.581 262.541 317.581C261.789 317.581 261.093 317.492 260.455 317.315V320.797H264.675ZM270.734 322.334C270.498 322.334 270.297 322.253 270.13 322.091C269.968 321.929 269.887 321.733 269.887 321.503C269.887 321.268 269.968 321.069 270.13 320.907C270.297 320.739 270.498 320.656 270.734 320.656C270.964 320.656 271.16 320.739 271.322 320.907C271.484 321.069 271.565 321.268 271.565 321.503C271.565 321.728 271.484 321.924 271.322 322.091C271.16 322.253 270.964 322.334 270.734 322.334Z" fill="#999999"/>
<path d="M107.116 130.55H99.1873V133.605H97.8443V130.55H89.6992V129.402H107.116V130.55ZM105.21 137.092H91.9738V132.283H93.3385V135.944H105.21V137.092ZM106.076 121.409H90.6307V120.304H97.736V118.159H99.079V120.304H106.076V121.409ZM98.3858 122.318C100.343 122.318 101.852 122.571 102.913 123.077C103.982 123.575 104.516 124.297 104.516 125.243C104.516 125.857 104.274 126.38 103.791 126.813C103.307 127.247 102.606 127.575 101.689 127.799C100.772 128.023 99.6711 128.131 98.3858 128.124C97.1005 128.131 95.9994 128.023 95.0823 127.799C94.1653 127.575 93.4649 127.247 92.9811 126.813C92.4973 126.38 92.2554 125.857 92.2554 125.243C92.2554 124.297 92.7861 123.575 93.8476 123.077C94.9162 122.571 96.429 122.318 98.3858 122.318ZM98.3858 123.358C96.8839 123.358 95.7141 123.524 94.8765 123.856C94.0461 124.181 93.6346 124.644 93.6418 125.243C93.6346 125.828 94.0461 126.283 94.8765 126.608C95.7141 126.925 96.8839 127.084 98.3858 127.084C99.8878 127.084 101.058 126.925 101.895 126.608C102.733 126.283 103.152 125.828 103.152 125.243C103.152 124.644 102.733 124.181 101.895 123.856C101.058 123.524 99.8878 123.358 98.3858 123.358ZM117.962 128.904H109.124V120.152H117.962V128.904ZM110.445 127.777H116.641V121.3H110.445V127.777ZM123.811 132.24H122.446V118.441H123.811V132.24ZM124.439 136.832H111.615V130.875H112.98V135.662H124.439V136.832ZM142.26 129.835H140.896V124.68H136.758V123.532H140.896V118.441H142.26V129.835ZM135.978 130.485C137.293 130.485 138.423 130.622 139.369 130.897C140.322 131.171 141.051 131.572 141.556 132.099C142.069 132.626 142.325 133.258 142.325 133.994C142.325 134.731 142.069 135.363 141.556 135.89C141.051 136.417 140.322 136.818 139.369 137.092C138.423 137.374 137.293 137.518 135.978 137.525C134.664 137.518 133.531 137.374 132.577 137.092C131.631 136.818 130.906 136.417 130.4 135.89C129.895 135.363 129.646 134.731 129.653 133.994C129.646 133.258 129.895 132.626 130.4 132.099C130.906 131.572 131.631 131.171 132.577 130.897C133.531 130.622 134.664 130.485 135.978 130.485ZM135.978 131.568C134.967 131.568 134.083 131.666 133.325 131.861C132.574 132.056 131.996 132.337 131.592 132.706C131.187 133.074 130.989 133.503 130.996 133.994C130.989 134.485 131.187 134.911 131.592 135.273C131.996 135.634 132.574 135.912 133.325 136.107C134.083 136.302 134.967 136.399 135.978 136.399C136.989 136.399 137.87 136.302 138.621 136.107C139.379 135.912 139.961 135.634 140.365 135.273C140.777 134.911 140.982 134.485 140.982 133.994C140.982 133.503 140.777 133.074 140.365 132.706C139.961 132.337 139.379 132.056 138.621 131.861C137.87 131.666 136.989 131.568 135.978 131.568ZM132.967 122.037C132.967 122.874 133.177 123.687 133.596 124.474C134.022 125.261 134.599 125.958 135.329 126.564C136.058 127.164 136.874 127.618 137.776 127.929L137.062 129.034C135.978 128.629 135.018 128.034 134.18 127.247C133.35 126.452 132.733 125.55 132.328 124.539C131.924 125.687 131.281 126.705 130.4 127.593C129.519 128.481 128.505 129.149 127.357 129.597L126.642 128.492C127.566 128.153 128.404 127.655 129.155 126.998C129.906 126.34 130.501 125.586 130.942 124.734C131.382 123.875 131.603 122.983 131.603 122.058V121.062H127.118V119.914H137.386V121.062H132.967V122.037ZM153.605 118.874C154.977 118.874 156.165 119.019 157.168 119.307C158.179 119.589 158.952 120.001 159.486 120.542C160.028 121.076 160.299 121.719 160.299 122.47C160.299 123.214 160.028 123.853 159.486 124.387C158.952 124.922 158.183 125.33 157.179 125.611C156.175 125.886 154.984 126.023 153.605 126.023C152.233 126.023 151.045 125.886 150.041 125.611C149.038 125.33 148.265 124.922 147.724 124.387C147.182 123.853 146.911 123.214 146.911 122.47C146.911 121.719 147.182 121.076 147.724 120.542C148.265 120.001 149.038 119.589 150.041 119.307C151.045 119.019 152.233 118.874 153.605 118.874ZM153.605 120.001C152.536 120.001 151.601 120.102 150.8 120.304C150.005 120.506 149.392 120.795 148.958 121.17C148.525 121.539 148.312 121.972 148.319 122.47C148.312 122.961 148.521 123.391 148.947 123.759C149.381 124.127 149.998 124.412 150.8 124.615C151.601 124.81 152.536 124.911 153.605 124.918C154.666 124.911 155.598 124.81 156.399 124.615C157.201 124.412 157.818 124.127 158.251 123.759C158.692 123.391 158.912 122.961 158.912 122.47C158.912 121.972 158.692 121.539 158.251 121.17C157.818 120.795 157.201 120.506 156.399 120.304C155.598 120.102 154.666 120.001 153.605 120.001ZM160.169 137.265H147.084V131.07H160.169V137.265ZM148.428 136.139H158.847V132.175H148.428V136.139ZM162.335 128.99H144.918V127.842H162.335V128.99ZM172.011 118.787C173.412 118.787 174.611 118.917 175.607 119.177C176.611 119.43 177.376 119.806 177.903 120.304C178.438 120.795 178.705 121.394 178.705 122.102C178.705 122.817 178.438 123.427 177.903 123.932C177.376 124.431 176.611 124.81 175.607 125.07C174.611 125.33 173.412 125.459 172.011 125.459C170.61 125.459 169.408 125.33 168.404 125.07C167.408 124.81 166.642 124.431 166.108 123.932C165.581 123.427 165.317 122.817 165.317 122.102C165.317 121.394 165.581 120.795 166.108 120.304C166.642 119.806 167.408 119.43 168.404 119.177C169.408 118.917 170.61 118.787 172.011 118.787ZM172.011 119.849C170.928 119.849 169.989 119.943 169.195 120.131C168.401 120.311 167.791 120.571 167.365 120.91C166.939 121.243 166.726 121.64 166.726 122.102C166.726 122.578 166.939 122.99 167.365 123.337C167.791 123.683 168.397 123.947 169.184 124.127C169.978 124.308 170.921 124.398 172.011 124.398C173.101 124.398 174.044 124.308 174.838 124.127C175.64 123.947 176.253 123.683 176.679 123.337C177.105 122.99 177.318 122.578 177.318 122.102C177.318 121.64 177.105 121.243 176.679 120.91C176.253 120.571 175.64 120.311 174.838 120.131C174.044 119.943 173.101 119.849 172.011 119.849ZM180.741 128.016H163.325V126.889H180.741V128.016ZM178.445 133.929H166.855V136.182H179.051V137.309H165.534V132.868H177.123V130.918H165.469V129.835H178.445V133.929ZM201.199 124.355H204.145V125.524H201.199V132.456H199.834V118.441H201.199V124.355ZM202.13 137.092H189.371V131.135H190.714V135.944H202.13V137.092ZM188.548 123.185H194.657V119.827H196V129.185H187.205V119.827H188.548V123.185ZM194.657 128.059V124.29H188.548V128.059H194.657ZM222.226 135.099H204.723V133.908H212.716V129.207H206.348V128.081H209.467V121.517H206.326V120.369H220.471V121.517H217.33V128.081H220.45V129.207H214.059V133.908H222.226V135.099ZM215.987 128.081V121.517H210.832V128.081H215.987ZM238.011 124.896H240.957V126.066H238.011V132.781H236.646V118.441H238.011V124.896ZM234.589 122.037H223.194V120.889H228.22V118.463H229.563V120.889H234.589V122.037ZM228.891 123.207C229.787 123.207 230.577 123.355 231.263 123.651C231.957 123.94 232.491 124.351 232.866 124.885C233.249 125.413 233.44 126.03 233.44 126.738C233.44 127.445 233.249 128.063 232.866 128.59C232.491 129.117 231.957 129.525 231.263 129.814C230.577 130.102 229.787 130.247 228.891 130.247C227.982 130.247 227.18 130.106 226.487 129.824C225.801 129.536 225.266 129.128 224.884 128.601C224.508 128.066 224.321 127.445 224.321 126.738C224.321 126.03 224.508 125.409 224.884 124.875C225.266 124.34 225.801 123.929 226.487 123.64C227.18 123.351 227.982 123.207 228.891 123.207ZM228.891 124.311C228.241 124.311 227.667 124.412 227.169 124.615C226.671 124.817 226.285 125.102 226.01 125.47C225.743 125.839 225.613 126.261 225.62 126.738C225.613 127.207 225.743 127.626 226.01 127.994C226.285 128.355 226.671 128.637 227.169 128.839C227.667 129.034 228.241 129.128 228.891 129.12C229.534 129.128 230.101 129.034 230.592 128.839C231.083 128.637 231.466 128.355 231.74 127.994C232.014 127.626 232.155 127.207 232.162 126.738C232.155 126.261 232.014 125.839 231.74 125.47C231.466 125.102 231.083 124.817 230.592 124.615C230.101 124.412 229.534 124.311 228.891 124.311ZM238.943 137.092H226.184V131.612H227.527V135.944H238.943V137.092ZM160.418 143.787C161.818 143.787 163.017 143.917 164.014 144.177C165.017 144.43 165.783 144.806 166.31 145.304C166.844 145.795 167.111 146.394 167.111 147.102C167.111 147.817 166.844 148.427 166.31 148.932C165.783 149.431 165.017 149.81 164.014 150.07C163.017 150.33 161.818 150.459 160.418 150.459C159.017 150.459 157.815 150.33 156.811 150.07C155.814 149.81 155.049 149.431 154.515 148.932C153.988 148.427 153.724 147.817 153.724 147.102C153.724 146.394 153.988 145.795 154.515 145.304C155.049 144.806 155.814 144.43 156.811 144.177C157.815 143.917 159.017 143.787 160.418 143.787ZM160.418 144.849C159.335 144.849 158.396 144.943 157.602 145.131C156.807 145.311 156.197 145.571 155.771 145.91C155.345 146.243 155.132 146.64 155.132 147.102C155.132 147.578 155.345 147.99 155.771 148.337C156.197 148.683 156.804 148.947 157.591 149.127C158.385 149.308 159.327 149.398 160.418 149.398C161.508 149.398 162.45 149.308 163.245 149.127C164.046 148.947 164.66 148.683 165.086 148.337C165.512 147.99 165.725 147.578 165.725 147.102C165.725 146.64 165.512 146.243 165.086 145.91C164.66 145.571 164.046 145.311 163.245 145.131C162.45 144.943 161.508 144.849 160.418 144.849ZM169.148 153.016H151.731V151.889H169.148V153.016ZM166.851 158.929H155.262V161.182H167.458V162.309H153.941V157.868H165.53V155.918H153.876V154.835H166.851V158.929ZM181.07 147.448C181.07 148.235 181.28 148.994 181.698 149.723C182.124 150.445 182.706 151.08 183.442 151.629C184.179 152.171 185.005 152.582 185.923 152.864L185.251 153.904C184.139 153.557 183.157 153.023 182.305 152.301C181.453 151.579 180.825 150.741 180.42 149.788C180.023 150.828 179.384 151.741 178.503 152.528C177.629 153.308 176.615 153.897 175.46 154.294L174.766 153.211C175.698 152.922 176.539 152.492 177.29 151.922C178.048 151.351 178.644 150.68 179.077 149.907C179.51 149.134 179.727 148.315 179.727 147.448V146.95H175.265V145.802H179.727V143.333H181.113V145.802H185.533V146.95H181.07V147.448ZM189.605 148.315H192.551V149.463H189.605V154.619H188.24V143.441H189.605V148.315ZM189.952 156.85H184.417C184.468 157.558 184.8 158.229 185.413 158.864C186.027 159.493 186.807 160.031 187.753 160.478C188.699 160.919 189.677 161.226 190.688 161.399L190.147 162.482C189.237 162.309 188.352 162.038 187.493 161.67C186.641 161.302 185.879 160.847 185.208 160.305C184.543 159.763 184.038 159.168 183.691 158.518C183.352 159.168 182.846 159.76 182.175 160.294C181.511 160.829 180.752 161.28 179.9 161.648C179.048 162.016 178.167 162.287 177.258 162.46L176.738 161.399C177.741 161.226 178.713 160.919 179.651 160.478C180.59 160.038 181.366 159.504 181.98 158.875C182.594 158.24 182.929 157.565 182.987 156.85H177.453V155.702H189.952V156.85ZM198.22 144.957C199.144 144.957 199.967 145.228 200.69 145.77C201.412 146.311 201.975 147.084 202.379 148.087C202.784 149.084 202.986 150.243 202.986 151.564C202.986 152.886 202.784 154.048 202.379 155.052C201.975 156.048 201.412 156.817 200.69 157.359C199.967 157.901 199.144 158.171 198.22 158.171C197.296 158.171 196.473 157.901 195.751 157.359C195.036 156.817 194.48 156.048 194.083 155.052C193.685 154.048 193.49 152.886 193.498 151.564C193.49 150.243 193.685 149.084 194.083 148.087C194.48 147.084 195.036 146.311 195.751 145.77C196.473 145.228 197.296 144.957 198.22 144.957ZM198.22 146.17C197.556 146.17 196.96 146.398 196.433 146.853C195.913 147.308 195.505 147.947 195.209 148.77C194.92 149.586 194.776 150.517 194.776 151.564C194.776 152.618 194.92 153.554 195.209 154.37C195.505 155.185 195.913 155.821 196.433 156.276C196.96 156.731 197.556 156.958 198.22 156.958C198.899 156.958 199.498 156.734 200.018 156.287C200.538 155.832 200.942 155.196 201.231 154.38C201.527 153.564 201.679 152.626 201.686 151.564C201.679 150.51 201.527 149.575 201.231 148.759C200.942 147.943 200.538 147.308 200.018 146.853C199.498 146.398 198.899 146.17 198.22 146.17ZM207.838 151.218H211.131V152.387H207.838V162.547H206.473V143.441H207.838V151.218ZM226.244 151.153H229.537V152.344H226.244V162.569H224.88V143.441H226.244V151.153ZM213.81 156.72C215.796 156.72 217.475 156.673 218.847 156.579C220.219 156.478 221.616 156.294 223.038 156.027L223.19 157.175C221.71 157.449 220.269 157.637 218.868 157.738C217.475 157.839 215.789 157.89 213.81 157.89H212.315V150.763H219.551V146.43H212.272V145.261H220.915V151.933H213.68V156.72H213.81ZM232.585 156.373H231.133L231.025 145.174H232.693L232.585 156.373ZM231.87 160.966C231.545 160.966 231.267 160.854 231.036 160.63C230.812 160.406 230.7 160.135 230.7 159.818C230.7 159.493 230.812 159.218 231.036 158.994C231.267 158.763 231.545 158.648 231.87 158.648C232.188 158.648 232.458 158.763 232.682 158.994C232.906 159.218 233.018 159.493 233.018 159.818C233.018 160.128 232.906 160.399 232.682 160.63C232.458 160.854 232.188 160.966 231.87 160.966Z" fill="#121212"/>
<path d="M107.254 145.542C107.254 146.459 107.225 147.315 107.167 148.109C107.116 148.903 106.987 149.781 106.777 150.741L104.416 150.546C104.575 149.745 104.683 149.004 104.741 148.326C104.806 147.647 104.846 146.972 104.86 146.3H97.2674V144.329H107.254V145.542ZM102.315 152.203C104.69 152.102 106.69 151.954 108.315 151.759L108.445 153.449C106.611 153.759 104.676 153.972 102.64 154.088C100.611 154.196 98.5022 154.25 96.3143 154.25L96.0977 152.301C97.3035 152.301 98.5816 152.29 99.9319 152.268V148.662H102.315V152.203ZM111.933 148.207H114.467V150.221H111.933V155.247H109.463V143.203H111.933V148.207ZM105.369 155.463C106.741 155.471 107.932 155.619 108.943 155.908C109.954 156.196 110.73 156.612 111.272 157.153C111.814 157.687 112.084 158.323 112.084 159.059C112.084 159.825 111.814 160.482 111.272 161.031C110.73 161.58 109.954 161.998 108.943 162.287C107.94 162.576 106.748 162.72 105.369 162.72C103.99 162.72 102.795 162.576 101.784 162.287C100.78 161.998 100.008 161.58 99.4662 161.031C98.9246 160.482 98.6538 159.825 98.6538 159.059C98.6538 158.323 98.9246 157.687 99.4662 157.153C100.008 156.612 100.784 156.196 101.795 155.908C102.806 155.619 103.997 155.471 105.369 155.463ZM105.369 157.326C104.012 157.326 102.961 157.478 102.217 157.781C101.473 158.085 101.102 158.511 101.102 159.059C101.102 159.644 101.47 160.088 102.206 160.392C102.943 160.688 103.997 160.836 105.369 160.836C106.727 160.836 107.77 160.688 108.499 160.392C109.236 160.096 109.608 159.652 109.615 159.059C109.6 158.503 109.225 158.077 108.488 157.781C107.752 157.478 106.712 157.326 105.369 157.326ZM130.209 151.283H132.96V153.297H130.209V162.785H127.783V143.203H130.209V151.283ZM114.482 157.348C116.62 157.348 118.288 157.334 119.486 157.305V155.474C118.779 155.352 118.158 155.128 117.623 154.803C117.096 154.478 116.688 154.07 116.399 153.579C116.11 153.081 115.97 152.532 115.977 151.933C115.97 151.203 116.165 150.561 116.562 150.005C116.959 149.449 117.519 149.019 118.241 148.716C118.963 148.405 119.789 148.25 120.721 148.25C121.638 148.25 122.454 148.405 123.169 148.716C123.891 149.019 124.454 149.449 124.858 150.005C125.27 150.561 125.479 151.203 125.487 151.933C125.479 152.539 125.328 153.088 125.032 153.579C124.736 154.07 124.317 154.481 123.775 154.814C123.241 155.139 122.62 155.359 121.912 155.474V157.218C123.783 157.117 125.393 156.973 126.743 156.785L126.895 158.54C125.032 158.872 123.125 159.088 121.176 159.189C119.226 159.291 117.111 159.341 114.829 159.341L114.482 157.348ZM126.526 147.362H114.85V145.455H119.486V143.289H121.912V145.455H126.526V147.362ZM120.721 150.091C119.963 150.106 119.36 150.275 118.912 150.6C118.472 150.918 118.251 151.362 118.251 151.933C118.251 152.496 118.475 152.936 118.923 153.254C119.371 153.572 119.97 153.723 120.721 153.709C121.465 153.723 122.057 153.572 122.497 153.254C122.945 152.929 123.169 152.489 123.169 151.933C123.169 151.369 122.945 150.925 122.497 150.6C122.057 150.275 121.465 150.106 120.721 150.091ZM150.998 154.922H143.438V158.518H141.055V154.922H133.105V152.994H150.998V154.922ZM148.702 151.174H135.38V144.091H148.702V151.174ZM137.719 149.29H146.319V145.975H137.719V149.29ZM149.027 162.395H135.271V156.72H137.676V160.446H149.027V162.395Z" fill="#00A695"/>
<path d="M199.293 210.23C205.875 213.582 208.238 209.713 208.597 207.36C209.033 206.455 211.442 205.281 217.593 207.826C225.282 211.006 229.203 207.826 232.356 205.188C234.878 203.078 241.198 202.24 244.043 202.085C244.043 202.085 238.2 199.525 235.432 200.068C232.664 200.611 227.666 206.274 216.824 201.464C205.983 196.655 204.368 195.181 200.062 196.112C195.756 197.042 191.066 206.041 199.293 210.23Z" fill="url(#paint0_linear_1281_452)"/>
<path fill-rule="evenodd" clip-rule="evenodd" d="M106.295 216.872C103.542 217.575 99.8055 217.156 94.8346 214.625C78.7954 206.458 87.9392 188.915 96.3335 187.1C103.045 185.649 106.404 187.196 118.285 192.667C121.263 194.039 124.776 195.656 129.012 197.536C145.358 204.787 154.89 199.828 160.867 196.718C162.618 195.806 164.064 195.054 165.287 194.814C170.684 193.755 182.076 198.746 182.076 198.746C176.53 199.049 164.208 200.682 159.291 204.795C156.276 207.318 152.901 210.095 148.474 211.538C148.739 211.656 149.006 211.775 149.277 211.895C165.623 219.146 175.155 214.187 181.132 211.077C182.883 210.166 184.329 209.413 185.552 209.173C190.949 208.115 202.341 213.105 202.341 213.105C196.795 213.408 184.473 215.041 179.556 219.155C173.411 224.296 165.766 230.497 150.776 224.296C138.784 219.336 134.087 221.624 133.237 223.389C132.538 227.976 127.931 235.518 115.1 228.984C108.951 225.853 106.503 221.344 106.295 216.872Z" fill="url(#paint1_linear_1281_452)"/>
<path d="M144.873 213.976C144.627 213.976 144.388 214.055 144.19 214.201L138.855 218.148L122.23 216.657C121.745 216.614 121.285 216.882 121.083 217.325C120.882 217.769 120.982 218.291 121.334 218.629L128.916 225.895C129.129 226.1 129.414 226.214 129.71 226.214H202.872C203.212 226.214 203.535 226.063 203.753 225.802L209.818 218.535C210.115 218.18 210.169 217.681 209.955 217.27C209.741 216.859 209.301 216.617 208.839 216.657L191.455 218.15L186.117 214.201C185.919 214.055 185.68 213.976 185.434 213.976H144.873Z" fill="url(#paint2_linear_1281_452)" stroke="url(#paint3_linear_1281_452)" stroke-width="2.29472" stroke-linejoin="round"/>
<path d="M144.406 210.012V213.289" stroke="#DEFFFA" stroke-width="2.29472" stroke-linecap="round" stroke-linejoin="round"/>
<path d="M185.449 210.012V213.289" stroke="#DEFFFA" stroke-width="2.29472" stroke-linecap="round" stroke-linejoin="round"/>
<path d="M199.84 247.631H130.848V261.399H199.84V247.631Z" fill="url(#paint4_linear_1281_452)"/>
<path d="M195.293 235.394H136.914V226.215H195.293V235.394Z" fill="url(#paint5_linear_1281_452)" stroke="#00A695" stroke-width="2.29472"/>
<path d="M134.258 235.777H116.82L128.572 248.398H204.388L212.728 235.777H197.944L187.709 233.1H144.114L134.258 235.777Z" fill="url(#paint6_linear_1281_452)" stroke="url(#paint7_linear_1281_452)" stroke-width="2.29472" stroke-linejoin="round"/>
<path d="M142.219 261.4V260.588C142.219 257.657 144.595 255.281 147.526 255.281C150.457 255.281 152.833 257.657 152.833 260.588V261.4" stroke="#019E94" stroke-width="1.14736" stroke-linejoin="round"/>
<path d="M179.375 261.4V260.588C179.375 257.657 181.751 255.281 184.682 255.281C187.613 255.281 189.989 257.657 189.989 260.588V261.4" stroke="#019E94" stroke-width="1.14736" stroke-linejoin="round"/>
<path d="M160.414 261.4V258.673C160.414 255.532 162.96 252.986 166.1 252.986C169.241 252.986 171.787 255.532 171.787 258.673V261.4" stroke="#019E94" stroke-width="1.14736" stroke-linejoin="round"/>
<path d="M130.848 248.396V261.4H200.599V248.396" stroke="#00A695" stroke-width="2.29472" stroke-linejoin="round"/>
<path d="M99.3867 261.4H230.549" stroke="url(#paint8_linear_1281_452)" stroke-width="2.29472" stroke-linecap="round"/>
<path d="M199.713 248.339L207.96 257.416L214.814 251.581L217.92 248.339L218.67 240.343L214.814 235.048L209.245 233.211L203.783 234.508L198.32 240.343L199.713 248.339Z" fill="#E16350"/>
<path fill-rule="evenodd" clip-rule="evenodd" d="M212.819 243.167C212.819 245.65 210.823 247.663 208.362 247.663C205.901 247.663 203.906 245.65 203.906 243.167C203.906 240.684 205.901 238.671 208.362 238.671C210.823 238.671 212.819 240.684 212.819 243.167ZM210.608 243.167C210.608 244.418 209.602 245.432 208.362 245.432C207.122 245.432 206.117 244.418 206.117 243.167C206.117 241.916 207.122 240.901 208.362 240.901C209.602 240.901 210.608 241.916 210.608 243.167Z" fill="#E16350"/>
<path fill-rule="evenodd" clip-rule="evenodd" d="M200.144 251.225C195.733 246.775 195.733 239.559 200.144 235.108L200.376 234.875C204.787 230.424 211.939 230.424 216.351 234.875L216.582 235.108C220.993 239.559 220.993 246.775 216.582 251.225L209.926 257.94C209.063 258.811 207.663 258.811 206.8 257.94L200.144 251.225ZM201.708 236.686L201.939 236.452C205.487 232.873 211.239 232.873 214.787 236.452L215.018 236.686C218.566 240.265 218.566 246.069 215.018 249.648L208.363 256.363L201.708 249.648C198.16 246.069 198.16 240.265 201.708 236.686Z" fill="#E16350"/>
<path d="M208.362 246.677C210.342 246.677 211.947 245.057 211.947 243.06C211.947 241.063 210.342 239.443 208.362 239.443C206.382 239.443 204.777 241.063 204.777 243.06C204.777 245.057 206.382 246.677 208.362 246.677Z" fill="#FAFAFA"/>
<path d="M191.034 73.6855H135.888C129.551 73.6855 124.414 78.8225 124.414 85.1591C124.414 91.4958 129.551 96.6327 135.888 96.6327H191.034C197.371 96.6327 202.507 91.4958 202.507 85.1591C202.507 78.8225 197.371 73.6855 191.034 73.6855Z" fill="#00A695"/>
<path d="M152.769 83.2126C152.727 82.7935 152.534 82.4655 152.191 82.2285C151.848 81.9872 151.41 81.8665 150.877 81.8665C150.509 81.8665 150.185 81.9258 149.906 82.0443C149.626 82.1586 149.41 82.3195 149.258 82.5269C149.11 82.73 149.036 82.9629 149.036 83.2253C149.036 83.6147 149.194 83.9131 149.512 84.1205C149.829 84.328 150.229 84.4909 150.712 84.6094L151.601 84.8507C152.342 85.0243 152.968 85.3121 153.48 85.7142C153.992 86.1163 154.251 86.692 154.255 87.4412C154.251 87.9619 154.113 88.4254 153.842 88.8317C153.571 89.2381 153.18 89.5577 152.667 89.7905C152.155 90.0191 151.546 90.1334 150.839 90.1334C150.157 90.1334 149.563 90.0254 149.055 89.8095C148.551 89.5894 148.155 89.2762 147.867 88.8698C147.584 88.4635 147.427 87.983 147.398 87.4285H148.794C148.837 87.9111 149.046 88.2794 149.423 88.5333C149.8 88.7873 150.272 88.9143 150.839 88.9143C151.224 88.9143 151.569 88.8529 151.874 88.7302C152.183 88.6032 152.424 88.4275 152.598 88.2032C152.775 87.9746 152.866 87.7121 152.871 87.4158C152.866 87.0476 152.716 86.7619 152.42 86.5587C152.124 86.3513 151.694 86.1756 151.131 86.0317L150.039 85.7396C148.439 85.2994 147.639 84.4867 147.639 83.3015C147.639 82.7851 147.781 82.3258 148.064 81.9237C148.352 81.5216 148.746 81.2104 149.245 80.9903C149.745 80.7702 150.301 80.6602 150.915 80.6602C151.529 80.6602 152.077 80.7702 152.56 80.9903C153.042 81.2062 153.421 81.5089 153.696 81.8983C153.971 82.2835 154.115 82.7216 154.128 83.2126H152.769ZM154.531 80.7872H161.655V81.9935H158.798V89.981H157.401V81.9935H154.531V80.7872ZM162.312 80.7872H168.078V81.9935H163.709V84.7745H167.773V85.9682H163.709V88.7746H168.128V89.981H162.312V80.7872ZM169.027 80.7872H172.303C172.993 80.7872 173.577 80.9163 174.056 81.1745C174.534 81.4284 174.892 81.7798 175.129 82.2285C175.37 82.6771 175.491 83.1914 175.491 83.7713C175.491 84.347 175.37 84.8592 175.129 85.3079C174.892 85.7566 174.534 86.11 174.056 86.3682C173.577 86.6264 172.993 86.7555 172.303 86.7555H170.424V89.981H169.027V80.7872ZM172.164 85.5618C172.811 85.5618 173.292 85.401 173.605 85.0793C173.922 84.7534 174.081 84.3174 174.081 83.7713C174.081 83.2211 173.924 82.7851 173.611 82.4634C173.298 82.1417 172.815 81.9808 172.164 81.9808H170.424V85.5618H172.164ZM181.974 89.981H180.564V82.184H180.513L178.316 83.619V82.2856L180.602 80.7872H181.974V89.981Z" fill="#F6F6F6"/>
<defs>
<filter id="filter0_d_1281_452" x="0.70187" y="0.70187" width="321.26" height="390.606" filterUnits="userSpaceOnUse" color-interpolation-filters="sRGB">
<feFlood flood-opacity="0" result="BackgroundImageFix"/>
<feColorMatrix in="SourceAlpha" type="matrix" values="0 0 0 0 0 0 0 0 0 0 0 0 0 0 0 0 0 0 127 0" result="hardAlpha"/>
<feOffset dx="-3.82453" dy="-3.82453"/>
<feGaussianBlur stdDeviation="5.7368"/>
<feComposite in2="hardAlpha" operator="out"/>
<feColorMatrix type="matrix" values="0 0 0 0 0 0 0 0 0 0 0 0 0 0 0 0 0 0 0.05 0"/>
<feBlend mode="normal" in2="BackgroundImageFix" result="effect1_dropShadow_1281_452"/>
<feBlend mode="normal" in="SourceGraphic" in2="effect1_dropShadow_1281_452" result="shape"/>
</filter>
<linearGradient id="paint0_linear_1281_452" x1="219.406" y1="195.848" x2="219.406" y2="211.539" gradientUnits="userSpaceOnUse">
<stop stop-color="#ACDFDB" stop-opacity="0.64"/>
<stop offset="1" stop-color="#00A695"/>
</linearGradient>
<linearGradient id="paint1_linear_1281_452" x1="144.178" y1="186.586" x2="144.178" y2="231.536" gradientUnits="userSpaceOnUse">
<stop stop-color="#ACDFDB" stop-opacity="0.64"/>
<stop offset="1" stop-color="#00A695"/>
</linearGradient>
<linearGradient id="paint2_linear_1281_452" x1="165.533" y1="215.123" x2="165.533" y2="225.067" gradientUnits="userSpaceOnUse">
<stop stop-color="#ACDFDB" stop-opacity="0.64"/>
<stop offset="1" stop-color="#00A695"/>
</linearGradient>
<linearGradient id="paint3_linear_1281_452" x1="165.533" y1="215.123" x2="165.533" y2="225.067" gradientUnits="userSpaceOnUse">
<stop stop-color="#DEFFFA"/>
<stop offset="1" stop-color="#00A695"/>
</linearGradient>
<linearGradient id="paint4_linear_1281_452" x1="165.344" y1="247.631" x2="165.344" y2="261.399" gradientUnits="userSpaceOnUse">
<stop stop-color="#00708D"/>
<stop offset="1" stop-color="#00A695"/>
</linearGradient>
<linearGradient id="paint5_linear_1281_452" x1="166.103" y1="226.215" x2="166.103" y2="235.394" gradientUnits="userSpaceOnUse">
<stop stop-color="#006C8D"/>
<stop offset="0.524" stop-color="#009C94"/>
<stop offset="1" stop-color="#00A695"/>
</linearGradient>
<linearGradient id="paint6_linear_1281_452" x1="164.774" y1="233.1" x2="164.774" y2="248.398" gradientUnits="userSpaceOnUse">
<stop stop-color="#BFD2AA"/>
<stop offset="1" stop-color="#01A695"/>
</linearGradient>
<linearGradient id="paint7_linear_1281_452" x1="164.774" y1="233.1" x2="164.774" y2="248.398" gradientUnits="userSpaceOnUse">
<stop stop-color="#DEFFFA"/>
<stop offset="1" stop-color="#00A695"/>
</linearGradient>
<linearGradient id="paint8_linear_1281_452" x1="nan" y1="nan" x2="nan" y2="nan" gradientUnits="userSpaceOnUse">
<stop stop-color="#C8F1EF" stop-opacity="0.3"/>
<stop offset="0.234379" stop-color="#A5E0DA"/>
<stop offset="0.364" stop-color="#2FB7A9"/>
<stop offset="0.5" stop-color="#00A695"/>
<stop offset="0.624" stop-color="#2EB6A9"/>
<stop offset="0.774916" stop-color="#ACE2DE"/>
<stop offset="1" stop-color="#C8F1EF" stop-opacity="0.3"/>
</linearGradient>
</defs>
</svg>
