<svg width="305" height="262" viewBox="0 0 305 262" fill="none" xmlns="http://www.w3.org/2000/svg">
<g opacity="0.2" filter="url(#filter0_d_2796_804)">
<rect x="6" y="6" width="285" height="241.454" rx="18" fill="#C4E6DC"/>
</g>
<path d="M170.933 215.963L174.14 141.823L189.068 142.29L190.001 119.897L174.14 118.498L176.472 102.637" stroke="url(#paint0_linear_2796_804)" stroke-width="2" stroke-linecap="round" stroke-linejoin="round"/>
<path d="M174.605 111.5L175.538 96.5723L176.004 89.1082H189.533V69.0485L159.676 68.582L159.21 86.7757L149.413 86.3092L140.55 85.8427H121.965V76.0461L105.637 75.1131H92.1084" stroke="url(#paint1_linear_2796_804)" stroke-width="2" stroke-linejoin="round"/>
<path d="M158.123 210.703L163.666 210.916L167.29 211.13H171.554L175.605 211.343H179.443L184.133 211.556L183.92 219.444V224.348H178.803L170.915 223.922H163.24L157.696 223.709L157.909 217.312L158.123 210.703Z" fill="#C4E6DC"/>
<path d="M171.776 211.129L171.137 223.921" stroke="#01A695" stroke-opacity="0.33" stroke-width="1.53454"/>
<path d="M163.782 210.918L163.355 223.923M178.919 224.35L179.559 211.344" stroke="#01A695" stroke-opacity="0.33" stroke-width="1.53454"/>
<path d="M158.344 210.703L163.888 210.916L167.512 211.13H171.776L175.827 211.343H179.665L184.355 211.556L184.142 219.444V224.348H179.025L171.137 223.922H163.461L157.918 223.709L158.131 217.312L158.344 210.703Z" stroke="#91D6C9" stroke-width="0.894401"/>
<g filter="url(#filter1_d_2796_804)">
<path d="M163.323 206.4C158.621 201.698 158.621 194.075 163.323 189.373V189.373C168.025 184.671 175.648 184.671 180.35 189.373V189.373C185.052 194.075 185.052 201.698 180.35 206.4L173.181 213.57C172.439 214.312 171.235 214.312 170.492 213.57L163.323 206.4Z" fill="#00A695"/>
<path d="M173.535 213.923L180.704 206.754C185.601 201.857 185.601 193.917 180.704 189.02C175.807 184.122 167.867 184.122 162.97 189.02C158.072 193.917 158.072 201.857 162.97 206.754L170.139 213.923C171.077 214.861 172.597 214.861 173.535 213.923Z" stroke="white"/>
</g>
<path d="M160.72 119.344L189.502 120.41L188.65 141.73L159.867 140.238L160.72 119.344Z" fill="#C4E6DC"/>
<path d="M160.72 119.344L189.502 120.41L188.65 141.73L159.867 140.238L160.72 119.344Z" stroke="#91D6C9" stroke-width="0.894401"/>
<g filter="url(#filter2_d_2796_804)">
<path d="M166.969 126.541C162.267 121.839 162.267 114.216 166.969 109.514V109.514C171.671 104.812 179.294 104.812 183.996 109.514V109.514C188.698 114.216 188.698 121.839 183.996 126.541L176.826 133.71C176.084 134.453 174.88 134.453 174.138 133.71L166.969 126.541Z" fill="#00A695"/>
<path d="M177.18 134.064L184.349 126.894C189.247 121.997 189.247 114.057 184.349 109.16C179.452 104.263 171.512 104.263 166.615 109.16C161.718 114.057 161.718 121.997 166.615 126.894L173.784 134.064C174.722 135.001 176.242 135.001 177.18 134.064Z" stroke="white"/>
</g>
<path d="M166.691 71.5859L185.24 72.4387L184.814 85.0177L166.052 84.3781L166.691 71.5859Z" fill="#C4E6DC"/>
<path d="M166.282 71.5859L184.831 72.4387L184.404 85.0177L165.643 84.3781L166.282 71.5859Z" stroke="#91D6C9" stroke-width="0.894401"/>
<g filter="url(#filter3_d_2796_804)">
<path d="M166.969 65.8964C162.267 61.1945 162.267 53.5712 166.969 48.8692V48.8692C171.671 44.1673 179.294 44.1673 183.996 48.8692V48.8692C188.698 53.5712 188.698 61.1945 183.996 65.8964L176.826 73.0657C176.084 73.8081 174.88 73.8081 174.138 73.0657L166.969 65.8964Z" fill="#00A695"/>
<path d="M177.18 73.4193L184.349 66.2499C189.247 61.3528 189.247 53.4129 184.349 48.5157C179.452 43.6185 171.512 43.6185 166.615 48.5157C161.718 53.4129 161.718 61.3528 166.615 66.2499L173.784 73.4193C174.722 74.3569 176.242 74.3569 177.18 73.4193Z" stroke="white"/>
</g>
<path d="M80.1305 81.1836L104.222 82.0364L103.796 94.4022L79.7041 93.5494L80.1305 81.1836Z" fill="#C4E6DC"/>
<path d="M79.776 81.1836L103.868 82.0364L103.442 94.4022L79.3496 93.5494L79.776 81.1836Z" stroke="#91D6C9" stroke-width="0.894401"/>
<g filter="url(#filter4_d_2796_804)">
<path d="M83.9315 77.0995C79.2296 72.3976 79.2296 64.7743 83.9315 60.0724V60.0724C88.6335 55.3704 96.2568 55.3704 100.959 60.0724V60.0724C105.661 64.7743 105.661 72.3976 100.959 77.0995L93.7894 84.2688C93.047 85.0112 91.8433 85.0112 91.1009 84.2688L83.9315 77.0995Z" fill="#00A695"/>
<path d="M94.1429 84.6224L101.312 77.4531C106.209 72.5559 106.209 64.616 101.312 59.7188C96.4151 54.8216 88.4752 54.8216 83.578 59.7188C78.6808 64.616 78.6808 72.5559 83.578 77.4531L90.7473 84.6224C91.685 85.5601 93.2053 85.5601 94.1429 84.6224Z" stroke="white"/>
</g>
<path d="M172.914 193.963V202.539H171.125V195.657H171.078L169.111 196.889V195.314L171.232 193.963H172.914Z" fill="white"/>
<path d="M171.931 122.68L171.92 121.388L174.999 118.558C175.805 117.788 176.231 117.314 176.231 116.639C176.231 115.881 175.651 115.407 174.869 115.407C174.063 115.407 173.542 115.916 173.542 116.733H171.848C171.837 115.051 173.08 113.985 174.893 113.985C176.729 113.985 177.949 115.028 177.949 116.52C177.949 117.491 177.475 118.297 175.71 119.896L174.407 121.163V121.211H178.067V122.68H171.931Z" fill="white"/>
<path d="M175.105 62.1524C173.222 62.1524 171.872 61.1101 171.836 59.6176H173.637C173.672 60.2572 174.288 60.6837 175.117 60.6837C175.97 60.6837 176.586 60.198 176.574 59.511C176.586 58.8122 175.958 58.3147 174.951 58.3147H174.158V56.9999H174.951C175.792 56.9999 176.385 56.538 176.385 55.8628C176.385 55.2113 175.887 54.7612 175.129 54.7612C174.371 54.7612 173.743 55.1876 173.72 55.8391H172.014C172.038 54.3585 173.376 53.3398 175.129 53.3398C176.918 53.3398 178.114 54.394 178.102 55.7562C178.114 56.7156 177.439 57.4026 176.479 57.5685V57.6395C177.735 57.7935 178.434 58.5634 178.422 59.6295C178.434 61.0982 177.036 62.1524 175.105 62.1524Z" fill="white"/>
<path d="M88.752 71.7138V70.3042L92.3765 64.6542H94.6152V70.2805H95.7049V71.7138H94.6152V73.2299H92.9213V71.7138H88.752ZM90.5524 70.2805H92.945V66.6086H92.8621L90.5524 70.2095V70.2805Z" fill="white"/>
<mask id="path-23-outside-1_2796_804" maskUnits="userSpaceOnUse" x="62.5098" y="31.2031" width="140" height="153" fill="black">
<rect fill="white" x="62.5098" y="31.2031" width="140" height="153"/>
<path d="M163.301 173.277V173.889C163.301 174.523 163.301 175.409 163.061 176.513L161.869 176.415C162.044 175.524 162.082 174.835 162.098 174.272H158.261V173.277H163.301ZM160.808 175.464V177.246C161.836 177.207 162.88 177.142 163.837 177.027L163.903 177.88C161.847 178.23 159.562 178.284 157.78 178.284L157.67 177.3C158.266 177.3 158.922 177.295 159.606 177.279V175.464H160.808ZM165.663 172.708V175.234H166.942V176.251H165.663V178.787H164.416V172.708H165.663ZM162.35 178.897C164.438 178.908 165.739 179.586 165.739 180.712C165.739 181.882 164.438 182.56 162.35 182.56C160.262 182.56 158.96 181.882 158.96 180.712C158.96 179.586 160.262 178.908 162.35 178.897ZM162.35 179.837C160.983 179.837 160.196 180.154 160.196 180.712C160.196 181.313 160.983 181.608 162.35 181.608C163.706 181.608 164.482 181.313 164.493 180.712C164.482 180.154 163.706 179.837 162.35 179.837Z"/>
<path d="M174.341 172.708V176.787H175.729V177.803H174.341V182.592H173.116V172.708H174.341ZM166.403 179.848C167.152 179.848 168.021 179.848 168.928 179.826V178.897C167.851 178.716 167.146 178.038 167.157 177.115C167.146 175.999 168.13 175.256 169.552 175.256C170.951 175.256 171.946 175.999 171.957 177.115C171.946 178.044 171.23 178.722 170.153 178.897V179.782C170.984 179.739 171.815 179.673 172.591 179.564L172.668 180.449C170.547 180.832 168.261 180.854 166.578 180.854L166.403 179.848ZM172.482 173.845V174.808H166.589V173.845H168.928V172.752H170.153V173.845H172.482ZM169.552 176.185C168.797 176.196 168.305 176.535 168.305 177.115C168.305 177.683 168.797 178.022 169.552 178.011C170.295 178.022 170.787 177.683 170.787 177.115C170.787 176.535 170.295 176.196 169.552 176.185Z"/>
<path d="M184.287 177.65V178.623H180.471V180.438H179.268V178.623H175.255V177.65H184.287ZM183.128 173.157V176.732H176.403V173.157H183.128ZM177.584 174.108V175.781H181.925V174.108H177.584ZM183.292 181.412V182.396H176.349V179.531H177.562V181.412H183.292Z"/>
<path d="M155.726 92.8599V98.6329H154.512V97.5395H152.161V96.5555H154.512V95.4949H152.26C151.631 97.0694 150.193 98.1682 148.039 98.7641L147.547 97.8019C149.86 97.1732 151.09 96.0033 151.287 94.5327H148.072V93.5487H152.61C152.61 93.8931 152.582 94.2211 152.522 94.5327H154.512V92.8599H155.726ZM152.457 98.7422C154.458 98.7422 155.791 99.4967 155.791 100.71C155.791 101.924 154.458 102.678 152.457 102.678C150.434 102.678 149.1 101.924 149.1 100.71C149.1 99.4967 150.434 98.7422 152.457 98.7422ZM152.457 99.6935C151.123 99.6935 150.314 100.054 150.314 100.71C150.314 101.355 151.123 101.716 152.457 101.716C153.758 101.716 154.578 101.355 154.578 100.71C154.578 100.054 153.758 99.6935 152.457 99.6935Z"/>
<path d="M165.202 97.8238V98.7969H156.192V97.8238H160.074V96.8726H157.362V93.0895H158.565V94.0735H162.829V93.0895H164.032V96.8726H161.298V97.8238H165.202ZM164.097 99.5841V102.733H162.884V100.546H157.187V99.5841H164.097ZM158.565 95.8995H162.829V94.981H158.565V95.8995Z"/>
<path d="M172.863 93.2316V93.9861C172.863 94.7241 172.863 95.5988 172.644 96.6976H173.967V97.6707H170.031V98.9828C171.829 99.1085 172.906 99.7755 172.917 100.841C172.906 102.044 171.594 102.722 169.44 102.722C167.265 102.722 165.942 102.044 165.942 100.841C165.942 99.7755 167.019 99.1085 168.828 98.9937V97.6707H164.936V96.6976H171.419C171.627 95.6808 171.649 94.9045 171.649 94.2047H166.051V93.2316H172.863ZM169.44 99.9449C167.975 99.9449 167.166 100.251 167.177 100.841C167.166 101.443 167.975 101.749 169.44 101.749C170.873 101.749 171.682 101.443 171.693 100.841C171.682 100.251 170.873 99.9449 169.44 99.9449Z"/>
<path d="M183.33 93.4175V94.2375C183.33 95.0685 183.33 96.0252 183.111 97.2771H184.434V98.2721H175.403V97.2771H181.876C182.1 96.0853 182.116 95.1997 182.116 94.4015H176.518V93.4175H183.33ZM183.614 101.541V102.525H176.573V99.2124H177.775V101.541H183.614Z"/>
<path d="M192.423 92.849V98.7204H191.209V96.304H189.526V95.309H191.209V92.849H192.423ZM189.077 98.9718C191.177 98.9718 192.456 99.6607 192.456 100.852C192.456 102.044 191.177 102.733 189.077 102.733C186.989 102.733 185.71 102.044 185.721 100.852C185.71 99.6607 186.989 98.9718 189.077 98.9718ZM189.077 99.9012C187.7 99.9012 186.923 100.229 186.923 100.852C186.923 101.465 187.7 101.793 189.077 101.793C190.455 101.793 191.242 101.465 191.242 100.852C191.242 100.229 190.455 99.9012 189.077 99.9012ZM187.776 94.5437C187.776 95.7464 188.574 96.96 190.105 97.4739L189.493 98.4361C188.394 98.0643 187.612 97.3099 187.186 96.3805C186.748 97.4356 185.923 98.2775 184.748 98.6985L184.113 97.7363C185.699 97.1896 186.541 95.8557 186.541 94.5546V94.4781H184.485V93.494H189.821V94.4781H187.776V94.5437Z"/>
<path d="M201.166 92.8599V100.076H199.953V96.4571H198.203V95.473H199.953V92.8599H201.166ZM201.418 101.552V102.536H194.683V99.442H195.896V101.552H201.418ZM196.519 94.828C196.519 96.0197 197.318 97.2443 198.848 97.7473L198.236 98.7204C197.132 98.3431 196.35 97.5942 195.918 96.6539C195.481 97.6981 194.655 98.5236 193.491 98.9281L192.868 97.9441C194.442 97.4302 195.284 96.1291 195.284 94.817V94.5546H193.228V93.5706H198.564V94.5546H196.519V94.828Z"/>
<path d="M155.726 32.2141V37.9871H154.512V36.8937H152.161V35.9097H154.512V34.8491H152.26C151.631 36.4235 150.193 37.5224 148.039 38.1183L147.547 37.1561C149.86 36.5274 151.09 35.3575 151.287 33.8869H148.072V32.9029H152.61C152.61 33.2473 152.582 33.5753 152.522 33.8869H154.512V32.2141H155.726ZM152.457 38.0964C154.458 38.0964 155.791 38.8508 155.791 40.0645C155.791 41.2781 154.458 42.0325 152.457 42.0325C150.434 42.0325 149.1 41.2781 149.1 40.0645C149.1 38.8508 150.434 38.0964 152.457 38.0964ZM152.457 39.0476C151.123 39.0476 150.314 39.4084 150.314 40.0645C150.314 40.7096 151.123 41.0704 152.457 41.0704C153.758 41.0704 154.578 40.7096 154.578 40.0645C154.578 39.4084 153.758 39.0476 152.457 39.0476Z"/>
<path d="M165.202 37.178V38.1511H156.192V37.178H160.074V36.2267H157.362V32.4437H158.565V33.4277H162.829V32.4437H164.032V36.2267H161.298V37.178H165.202ZM164.097 38.9383V42.0872H162.884V39.9005H157.187V38.9383H164.097ZM158.565 35.2536H162.829V34.3352H158.565V35.2536Z"/>
<path d="M172.863 32.5858V33.3402C172.863 34.0783 172.863 34.953 172.644 36.0518H173.967V37.0249H170.031V38.3369C171.829 38.4627 172.906 39.1296 172.917 40.1957C172.906 41.3984 171.594 42.0763 169.44 42.0763C167.265 42.0763 165.942 41.3984 165.942 40.1957C165.942 39.1296 167.019 38.4627 168.828 38.3479V37.0249H164.936V36.0518H171.419C171.627 35.035 171.649 34.2587 171.649 33.5589H166.051V32.5858H172.863ZM169.44 39.2991C167.975 39.2991 167.166 39.6052 167.177 40.1957C167.166 40.797 167.975 41.1032 169.44 41.1032C170.873 41.1032 171.682 40.797 171.693 40.1957C171.682 39.6052 170.873 39.2991 169.44 39.2991Z"/>
<path d="M178.934 34.5757C178.923 36.3361 179.809 38.1292 181.34 38.8618L180.596 39.8349C179.525 39.2936 178.754 38.2495 178.333 36.9921C177.901 38.3369 177.092 39.4522 175.96 40.0207L175.217 39.0476C176.802 38.2932 177.71 36.4017 177.721 34.5757V33.0013H178.934V34.5757ZM183.144 32.2031V36.0737H184.664V37.1124H183.144V42.0872H181.93V32.2031H183.144Z"/>
<path d="M192.423 32.2031V38.0745H191.209V35.6582H189.526V34.6632H191.209V32.2031H192.423ZM189.077 38.326C191.177 38.326 192.456 39.0148 192.456 40.2066C192.456 41.3984 191.177 42.0872 189.077 42.0872C186.989 42.0872 185.71 41.3984 185.721 40.2066C185.71 39.0148 186.989 38.326 189.077 38.326ZM189.077 39.2554C187.7 39.2554 186.923 39.5834 186.923 40.2066C186.923 40.8189 187.7 41.1469 189.077 41.1469C190.455 41.1469 191.242 40.8189 191.242 40.2066C191.242 39.5834 190.455 39.2554 189.077 39.2554ZM187.776 33.8978C187.776 35.1006 188.574 36.3142 190.105 36.8281L189.493 37.7902C188.394 37.4185 187.612 36.6641 187.186 35.7347C186.748 36.7898 185.923 37.6317 184.748 38.0527L184.113 37.0905C185.699 36.5438 186.541 35.2099 186.541 33.9088V33.8322H184.485V32.8482H189.821V33.8322H187.776V33.8978Z"/>
<path d="M201.166 32.2141V39.4303H199.953V35.8112H198.203V34.8272H199.953V32.2141H201.166ZM201.418 40.9064V41.8904H194.683V38.7962H195.896V40.9064H201.418ZM196.519 34.1821C196.519 35.3739 197.318 36.5985 198.848 37.1014L198.236 38.0745C197.132 37.6973 196.35 36.9484 195.918 36.0081C195.481 37.0522 194.655 37.8777 193.491 38.2823L192.868 37.2982C194.442 36.7843 195.284 35.4832 195.284 34.1712V33.9088H193.228V32.9247H198.564V33.9088H196.519V34.1821Z"/>
<path d="M72.6882 43.41V49.183H71.4745V48.0897H69.1238V47.1056H71.4745V46.045H69.2222C68.5935 47.6195 67.1557 48.7183 65.0018 49.3142L64.5098 48.3521C66.8222 47.7234 68.0523 46.5535 68.2491 45.0829H65.0346V44.0988H69.5721C69.5721 44.4433 69.5447 44.7713 69.4846 45.0829H71.4745V43.41H72.6882ZM69.419 49.2924C71.4199 49.2924 72.7538 50.0468 72.7538 51.2604C72.7538 52.4741 71.4199 53.2285 69.419 53.2285C67.3963 53.2285 66.0624 52.4741 66.0624 51.2604C66.0624 50.0468 67.3963 49.2924 69.419 49.2924ZM69.419 50.2436C68.0851 50.2436 67.276 50.6044 67.276 51.2604C67.276 51.9055 68.0851 52.2663 69.419 52.2663C70.7201 52.2663 71.5401 51.9055 71.5401 51.2604C71.5401 50.6044 70.7201 50.2436 69.419 50.2436Z"/>
<path d="M82.1641 48.3739V49.347H73.1547V48.3739H77.0362V47.4227H74.3246V43.6396H75.5273V44.6237H79.7914V43.6396H80.9942V47.4227H78.2607V48.3739H82.1641ZM81.0598 50.1343V53.2832H79.8461V51.0964H74.1497V50.1343H81.0598ZM75.5273 46.4496H79.7914V45.5312H75.5273V46.4496Z"/>
<path d="M89.8249 43.7818V44.5362C89.8249 45.2742 89.8249 46.1489 89.6063 47.2478H90.9293V48.2209H86.9931V49.5329C88.7917 49.6586 89.8687 50.3256 89.8796 51.3916C89.8687 52.5943 88.5566 53.2722 86.4027 53.2722C84.2269 53.2722 82.9039 52.5943 82.9039 51.3916C82.9039 50.3256 83.9809 49.6586 85.7904 49.5438V48.2209H81.898V47.2478H88.3817C88.5894 46.2309 88.6113 45.4546 88.6113 44.7549H83.0132V43.7818H89.8249ZM86.4027 50.4951C84.9376 50.4951 84.1285 50.8012 84.1394 51.3916C84.1285 51.993 84.9376 52.2991 86.4027 52.2991C87.835 52.2991 88.6441 51.993 88.655 51.3916C88.6441 50.8012 87.835 50.4951 86.4027 50.4951Z"/>
<path d="M97.515 44.2191C97.515 45.4656 98.9036 46.7229 101.014 46.9963L100.533 47.9803C98.8544 47.7288 97.5205 46.9033 96.8808 45.7826C96.2303 46.9033 94.9018 47.7288 93.2399 47.9803L92.7588 46.9963C94.8472 46.7229 96.2357 45.4656 96.2357 44.2191V43.7162H97.515V44.2191ZM101.375 48.8331V49.839H97.4494V53.2832H96.2467V49.839H92.3652V48.8331H101.375Z"/>
<path d="M109.385 43.3991V49.2705H108.172V46.8541H106.488V45.8592H108.172V43.3991H109.385ZM106.04 49.522C108.139 49.522 109.418 50.2108 109.418 51.4026C109.418 52.5943 108.139 53.2832 106.04 53.2832C103.951 53.2832 102.672 52.5943 102.683 51.4026C102.672 50.2108 103.951 49.522 106.04 49.522ZM106.04 50.4513C104.662 50.4513 103.886 50.7793 103.886 51.4026C103.886 52.0149 104.662 52.3429 106.04 52.3429C107.417 52.3429 108.205 52.0149 108.205 51.4026C108.205 50.7793 107.417 50.4513 106.04 50.4513ZM104.739 45.0938C104.739 46.2965 105.537 47.5102 107.067 48.024L106.455 48.9862C105.356 48.6145 104.575 47.86 104.148 46.9307C103.711 47.9858 102.885 48.8277 101.71 49.2486L101.076 48.2865C102.661 47.7398 103.503 46.4059 103.503 45.1047V45.0282H101.447V44.0442H106.783V45.0282H104.739V45.0938Z"/>
<path d="M118.129 43.41V50.6263H116.915V47.0072H115.166V46.0232H116.915V43.41H118.129ZM118.38 52.1023V53.0864H111.645V49.9921H112.859V52.1023H118.38ZM113.482 45.3781C113.482 46.5699 114.28 47.7944 115.811 48.2974L115.198 49.2705C114.094 48.8933 113.312 48.1443 112.88 47.204C112.443 48.2482 111.618 49.0737 110.453 49.4782L109.83 48.4942C111.404 47.9803 112.246 46.6792 112.246 45.3672V45.1047H110.191V44.1207H115.526V45.1047H113.482V45.3781Z"/>
</mask>
<path d="M163.301 173.277V173.889C163.301 174.523 163.301 175.409 163.061 176.513L161.869 176.415C162.044 175.524 162.082 174.835 162.098 174.272H158.261V173.277H163.301ZM160.808 175.464V177.246C161.836 177.207 162.88 177.142 163.837 177.027L163.903 177.88C161.847 178.23 159.562 178.284 157.78 178.284L157.67 177.3C158.266 177.3 158.922 177.295 159.606 177.279V175.464H160.808ZM165.663 172.708V175.234H166.942V176.251H165.663V178.787H164.416V172.708H165.663ZM162.35 178.897C164.438 178.908 165.739 179.586 165.739 180.712C165.739 181.882 164.438 182.56 162.35 182.56C160.262 182.56 158.96 181.882 158.96 180.712C158.96 179.586 160.262 178.908 162.35 178.897ZM162.35 179.837C160.983 179.837 160.196 180.154 160.196 180.712C160.196 181.313 160.983 181.608 162.35 181.608C163.706 181.608 164.482 181.313 164.493 180.712C164.482 180.154 163.706 179.837 162.35 179.837Z" fill="#00787A"/>
<path d="M174.341 172.708V176.787H175.729V177.803H174.341V182.592H173.116V172.708H174.341ZM166.403 179.848C167.152 179.848 168.021 179.848 168.928 179.826V178.897C167.851 178.716 167.146 178.038 167.157 177.115C167.146 175.999 168.13 175.256 169.552 175.256C170.951 175.256 171.946 175.999 171.957 177.115C171.946 178.044 171.23 178.722 170.153 178.897V179.782C170.984 179.739 171.815 179.673 172.591 179.564L172.668 180.449C170.547 180.832 168.261 180.854 166.578 180.854L166.403 179.848ZM172.482 173.845V174.808H166.589V173.845H168.928V172.752H170.153V173.845H172.482ZM169.552 176.185C168.797 176.196 168.305 176.535 168.305 177.115C168.305 177.683 168.797 178.022 169.552 178.011C170.295 178.022 170.787 177.683 170.787 177.115C170.787 176.535 170.295 176.196 169.552 176.185Z" fill="#00787A"/>
<path d="M184.287 177.65V178.623H180.471V180.438H179.268V178.623H175.255V177.65H184.287ZM183.128 173.157V176.732H176.403V173.157H183.128ZM177.584 174.108V175.781H181.925V174.108H177.584ZM183.292 181.412V182.396H176.349V179.531H177.562V181.412H183.292Z" fill="#00787A"/>
<path d="M155.726 92.8599V98.6329H154.512V97.5395H152.161V96.5555H154.512V95.4949H152.26C151.631 97.0694 150.193 98.1682 148.039 98.7641L147.547 97.8019C149.86 97.1732 151.09 96.0033 151.287 94.5327H148.072V93.5487H152.61C152.61 93.8931 152.582 94.2211 152.522 94.5327H154.512V92.8599H155.726ZM152.457 98.7422C154.458 98.7422 155.791 99.4967 155.791 100.71C155.791 101.924 154.458 102.678 152.457 102.678C150.434 102.678 149.1 101.924 149.1 100.71C149.1 99.4967 150.434 98.7422 152.457 98.7422ZM152.457 99.6935C151.123 99.6935 150.314 100.054 150.314 100.71C150.314 101.355 151.123 101.716 152.457 101.716C153.758 101.716 154.578 101.355 154.578 100.71C154.578 100.054 153.758 99.6935 152.457 99.6935Z" fill="#00A695"/>
<path d="M165.202 97.8238V98.7969H156.192V97.8238H160.074V96.8726H157.362V93.0895H158.565V94.0735H162.829V93.0895H164.032V96.8726H161.298V97.8238H165.202ZM164.097 99.5841V102.733H162.884V100.546H157.187V99.5841H164.097ZM158.565 95.8995H162.829V94.981H158.565V95.8995Z" fill="#00A695"/>
<path d="M172.863 93.2316V93.9861C172.863 94.7241 172.863 95.5988 172.644 96.6976H173.967V97.6707H170.031V98.9828C171.829 99.1085 172.906 99.7755 172.917 100.841C172.906 102.044 171.594 102.722 169.44 102.722C167.265 102.722 165.942 102.044 165.942 100.841C165.942 99.7755 167.019 99.1085 168.828 98.9937V97.6707H164.936V96.6976H171.419C171.627 95.6808 171.649 94.9045 171.649 94.2047H166.051V93.2316H172.863ZM169.44 99.9449C167.975 99.9449 167.166 100.251 167.177 100.841C167.166 101.443 167.975 101.749 169.44 101.749C170.873 101.749 171.682 101.443 171.693 100.841C171.682 100.251 170.873 99.9449 169.44 99.9449Z" fill="#00A695"/>
<path d="M183.33 93.4175V94.2375C183.33 95.0685 183.33 96.0252 183.111 97.2771H184.434V98.2721H175.403V97.2771H181.876C182.1 96.0853 182.116 95.1997 182.116 94.4015H176.518V93.4175H183.33ZM183.614 101.541V102.525H176.573V99.2124H177.775V101.541H183.614Z" fill="#00A695"/>
<path d="M192.423 92.849V98.7204H191.209V96.304H189.526V95.309H191.209V92.849H192.423ZM189.077 98.9718C191.177 98.9718 192.456 99.6607 192.456 100.852C192.456 102.044 191.177 102.733 189.077 102.733C186.989 102.733 185.71 102.044 185.721 100.852C185.71 99.6607 186.989 98.9718 189.077 98.9718ZM189.077 99.9012C187.7 99.9012 186.923 100.229 186.923 100.852C186.923 101.465 187.7 101.793 189.077 101.793C190.455 101.793 191.242 101.465 191.242 100.852C191.242 100.229 190.455 99.9012 189.077 99.9012ZM187.776 94.5437C187.776 95.7464 188.574 96.96 190.105 97.4739L189.493 98.4361C188.394 98.0643 187.612 97.3099 187.186 96.3805C186.748 97.4356 185.923 98.2775 184.748 98.6985L184.113 97.7363C185.699 97.1896 186.541 95.8557 186.541 94.5546V94.4781H184.485V93.494H189.821V94.4781H187.776V94.5437Z" fill="#00A695"/>
<path d="M201.166 92.8599V100.076H199.953V96.4571H198.203V95.473H199.953V92.8599H201.166ZM201.418 101.552V102.536H194.683V99.442H195.896V101.552H201.418ZM196.519 94.828C196.519 96.0197 197.318 97.2443 198.848 97.7473L198.236 98.7204C197.132 98.3431 196.35 97.5942 195.918 96.6539C195.481 97.6981 194.655 98.5236 193.491 98.9281L192.868 97.9441C194.442 97.4302 195.284 96.1291 195.284 94.817V94.5546H193.228V93.5706H198.564V94.5546H196.519V94.828Z" fill="#00A695"/>
<path d="M155.726 32.2141V37.9871H154.512V36.8937H152.161V35.9097H154.512V34.8491H152.26C151.631 36.4235 150.193 37.5224 148.039 38.1183L147.547 37.1561C149.86 36.5274 151.09 35.3575 151.287 33.8869H148.072V32.9029H152.61C152.61 33.2473 152.582 33.5753 152.522 33.8869H154.512V32.2141H155.726ZM152.457 38.0964C154.458 38.0964 155.791 38.8508 155.791 40.0645C155.791 41.2781 154.458 42.0325 152.457 42.0325C150.434 42.0325 149.1 41.2781 149.1 40.0645C149.1 38.8508 150.434 38.0964 152.457 38.0964ZM152.457 39.0476C151.123 39.0476 150.314 39.4084 150.314 40.0645C150.314 40.7096 151.123 41.0704 152.457 41.0704C153.758 41.0704 154.578 40.7096 154.578 40.0645C154.578 39.4084 153.758 39.0476 152.457 39.0476Z" fill="#00A695"/>
<path d="M165.202 37.178V38.1511H156.192V37.178H160.074V36.2267H157.362V32.4437H158.565V33.4277H162.829V32.4437H164.032V36.2267H161.298V37.178H165.202ZM164.097 38.9383V42.0872H162.884V39.9005H157.187V38.9383H164.097ZM158.565 35.2536H162.829V34.3352H158.565V35.2536Z" fill="#00A695"/>
<path d="M172.863 32.5858V33.3402C172.863 34.0783 172.863 34.953 172.644 36.0518H173.967V37.0249H170.031V38.3369C171.829 38.4627 172.906 39.1296 172.917 40.1957C172.906 41.3984 171.594 42.0763 169.44 42.0763C167.265 42.0763 165.942 41.3984 165.942 40.1957C165.942 39.1296 167.019 38.4627 168.828 38.3479V37.0249H164.936V36.0518H171.419C171.627 35.035 171.649 34.2587 171.649 33.5589H166.051V32.5858H172.863ZM169.44 39.2991C167.975 39.2991 167.166 39.6052 167.177 40.1957C167.166 40.797 167.975 41.1032 169.44 41.1032C170.873 41.1032 171.682 40.797 171.693 40.1957C171.682 39.6052 170.873 39.2991 169.44 39.2991Z" fill="#00A695"/>
<path d="M178.934 34.5757C178.923 36.3361 179.809 38.1292 181.34 38.8618L180.596 39.8349C179.525 39.2936 178.754 38.2495 178.333 36.9921C177.901 38.3369 177.092 39.4522 175.96 40.0207L175.217 39.0476C176.802 38.2932 177.71 36.4017 177.721 34.5757V33.0013H178.934V34.5757ZM183.144 32.2031V36.0737H184.664V37.1124H183.144V42.0872H181.93V32.2031H183.144Z" fill="#00A695"/>
<path d="M192.423 32.2031V38.0745H191.209V35.6582H189.526V34.6632H191.209V32.2031H192.423ZM189.077 38.326C191.177 38.326 192.456 39.0148 192.456 40.2066C192.456 41.3984 191.177 42.0872 189.077 42.0872C186.989 42.0872 185.71 41.3984 185.721 40.2066C185.71 39.0148 186.989 38.326 189.077 38.326ZM189.077 39.2554C187.7 39.2554 186.923 39.5834 186.923 40.2066C186.923 40.8189 187.7 41.1469 189.077 41.1469C190.455 41.1469 191.242 40.8189 191.242 40.2066C191.242 39.5834 190.455 39.2554 189.077 39.2554ZM187.776 33.8978C187.776 35.1006 188.574 36.3142 190.105 36.8281L189.493 37.7902C188.394 37.4185 187.612 36.6641 187.186 35.7347C186.748 36.7898 185.923 37.6317 184.748 38.0527L184.113 37.0905C185.699 36.5438 186.541 35.2099 186.541 33.9088V33.8322H184.485V32.8482H189.821V33.8322H187.776V33.8978Z" fill="#00A695"/>
<path d="M201.166 32.2141V39.4303H199.953V35.8112H198.203V34.8272H199.953V32.2141H201.166ZM201.418 40.9064V41.8904H194.683V38.7962H195.896V40.9064H201.418ZM196.519 34.1821C196.519 35.3739 197.318 36.5985 198.848 37.1014L198.236 38.0745C197.132 37.6973 196.35 36.9484 195.918 36.0081C195.481 37.0522 194.655 37.8777 193.491 38.2823L192.868 37.2982C194.442 36.7843 195.284 35.4832 195.284 34.1712V33.9088H193.228V32.9247H198.564V33.9088H196.519V34.1821Z" fill="#00A695"/>
<path d="M72.6882 43.41V49.183H71.4745V48.0897H69.1238V47.1056H71.4745V46.045H69.2222C68.5935 47.6195 67.1557 48.7183 65.0018 49.3142L64.5098 48.3521C66.8222 47.7234 68.0523 46.5535 68.2491 45.0829H65.0346V44.0988H69.5721C69.5721 44.4433 69.5447 44.7713 69.4846 45.0829H71.4745V43.41H72.6882ZM69.419 49.2924C71.4199 49.2924 72.7538 50.0468 72.7538 51.2604C72.7538 52.4741 71.4199 53.2285 69.419 53.2285C67.3963 53.2285 66.0624 52.4741 66.0624 51.2604C66.0624 50.0468 67.3963 49.2924 69.419 49.2924ZM69.419 50.2436C68.0851 50.2436 67.276 50.6044 67.276 51.2604C67.276 51.9055 68.0851 52.2663 69.419 52.2663C70.7201 52.2663 71.5401 51.9055 71.5401 51.2604C71.5401 50.6044 70.7201 50.2436 69.419 50.2436Z" fill="#00A695"/>
<path d="M82.1641 48.3739V49.347H73.1547V48.3739H77.0362V47.4227H74.3246V43.6396H75.5273V44.6237H79.7914V43.6396H80.9942V47.4227H78.2607V48.3739H82.1641ZM81.0598 50.1343V53.2832H79.8461V51.0964H74.1497V50.1343H81.0598ZM75.5273 46.4496H79.7914V45.5312H75.5273V46.4496Z" fill="#00A695"/>
<path d="M89.8249 43.7818V44.5362C89.8249 45.2742 89.8249 46.1489 89.6063 47.2478H90.9293V48.2209H86.9931V49.5329C88.7917 49.6586 89.8687 50.3256 89.8796 51.3916C89.8687 52.5943 88.5566 53.2722 86.4027 53.2722C84.2269 53.2722 82.9039 52.5943 82.9039 51.3916C82.9039 50.3256 83.9809 49.6586 85.7904 49.5438V48.2209H81.898V47.2478H88.3817C88.5894 46.2309 88.6113 45.4546 88.6113 44.7549H83.0132V43.7818H89.8249ZM86.4027 50.4951C84.9376 50.4951 84.1285 50.8012 84.1394 51.3916C84.1285 51.993 84.9376 52.2991 86.4027 52.2991C87.835 52.2991 88.6441 51.993 88.655 51.3916C88.6441 50.8012 87.835 50.4951 86.4027 50.4951Z" fill="#00A695"/>
<path d="M97.515 44.2191C97.515 45.4656 98.9036 46.7229 101.014 46.9963L100.533 47.9803C98.8544 47.7288 97.5205 46.9033 96.8808 45.7826C96.2303 46.9033 94.9018 47.7288 93.2399 47.9803L92.7588 46.9963C94.8472 46.7229 96.2357 45.4656 96.2357 44.2191V43.7162H97.515V44.2191ZM101.375 48.8331V49.839H97.4494V53.2832H96.2467V49.839H92.3652V48.8331H101.375Z" fill="#00A695"/>
<path d="M109.385 43.3991V49.2705H108.172V46.8541H106.488V45.8592H108.172V43.3991H109.385ZM106.04 49.522C108.139 49.522 109.418 50.2108 109.418 51.4026C109.418 52.5943 108.139 53.2832 106.04 53.2832C103.951 53.2832 102.672 52.5943 102.683 51.4026C102.672 50.2108 103.951 49.522 106.04 49.522ZM106.04 50.4513C104.662 50.4513 103.886 50.7793 103.886 51.4026C103.886 52.0149 104.662 52.3429 106.04 52.3429C107.417 52.3429 108.205 52.0149 108.205 51.4026C108.205 50.7793 107.417 50.4513 106.04 50.4513ZM104.739 45.0938C104.739 46.2965 105.537 47.5102 107.067 48.024L106.455 48.9862C105.356 48.6145 104.575 47.86 104.148 46.9307C103.711 47.9858 102.885 48.8277 101.71 49.2486L101.076 48.2865C102.661 47.7398 103.503 46.4059 103.503 45.1047V45.0282H101.447V44.0442H106.783V45.0282H104.739V45.0938Z" fill="#00A695"/>
<path d="M118.129 43.41V50.6263H116.915V47.0072H115.166V46.0232H116.915V43.41H118.129ZM118.38 52.1023V53.0864H111.645V49.9921H112.859V52.1023H118.38ZM113.482 45.3781C113.482 46.5699 114.28 47.7944 115.811 48.2974L115.198 49.2705C114.094 48.8933 113.312 48.1443 112.88 47.204C112.443 48.2482 111.618 49.0737 110.453 49.4782L109.83 48.4942C111.404 47.9803 112.246 46.6792 112.246 45.3672V45.1047H110.191V44.1207H115.526V45.1047H113.482V45.3781Z" fill="#00A695"/>
<path d="M163.301 173.277V173.889C163.301 174.523 163.301 175.409 163.061 176.513L161.869 176.415C162.044 175.524 162.082 174.835 162.098 174.272H158.261V173.277H163.301ZM160.808 175.464V177.246C161.836 177.207 162.88 177.142 163.837 177.027L163.903 177.88C161.847 178.23 159.562 178.284 157.78 178.284L157.67 177.3C158.266 177.3 158.922 177.295 159.606 177.279V175.464H160.808ZM165.663 172.708V175.234H166.942V176.251H165.663V178.787H164.416V172.708H165.663ZM162.35 178.897C164.438 178.908 165.739 179.586 165.739 180.712C165.739 181.882 164.438 182.56 162.35 182.56C160.262 182.56 158.96 181.882 158.96 180.712C158.96 179.586 160.262 178.908 162.35 178.897ZM162.35 179.837C160.983 179.837 160.196 180.154 160.196 180.712C160.196 181.313 160.983 181.608 162.35 181.608C163.706 181.608 164.482 181.313 164.493 180.712C164.482 180.154 163.706 179.837 162.35 179.837Z" stroke="white" stroke-width="2" mask="url(#path-23-outside-1_2796_804)"/>
<path d="M174.341 172.708V176.787H175.729V177.803H174.341V182.592H173.116V172.708H174.341ZM166.403 179.848C167.152 179.848 168.021 179.848 168.928 179.826V178.897C167.851 178.716 167.146 178.038 167.157 177.115C167.146 175.999 168.13 175.256 169.552 175.256C170.951 175.256 171.946 175.999 171.957 177.115C171.946 178.044 171.23 178.722 170.153 178.897V179.782C170.984 179.739 171.815 179.673 172.591 179.564L172.668 180.449C170.547 180.832 168.261 180.854 166.578 180.854L166.403 179.848ZM172.482 173.845V174.808H166.589V173.845H168.928V172.752H170.153V173.845H172.482ZM169.552 176.185C168.797 176.196 168.305 176.535 168.305 177.115C168.305 177.683 168.797 178.022 169.552 178.011C170.295 178.022 170.787 177.683 170.787 177.115C170.787 176.535 170.295 176.196 169.552 176.185Z" stroke="white" stroke-width="2" mask="url(#path-23-outside-1_2796_804)"/>
<path d="M184.287 177.65V178.623H180.471V180.438H179.268V178.623H175.255V177.65H184.287ZM183.128 173.157V176.732H176.403V173.157H183.128ZM177.584 174.108V175.781H181.925V174.108H177.584ZM183.292 181.412V182.396H176.349V179.531H177.562V181.412H183.292Z" stroke="white" stroke-width="2" mask="url(#path-23-outside-1_2796_804)"/>
<path d="M155.726 92.8599V98.6329H154.512V97.5395H152.161V96.5555H154.512V95.4949H152.26C151.631 97.0694 150.193 98.1682 148.039 98.7641L147.547 97.8019C149.86 97.1732 151.09 96.0033 151.287 94.5327H148.072V93.5487H152.61C152.61 93.8931 152.582 94.2211 152.522 94.5327H154.512V92.8599H155.726ZM152.457 98.7422C154.458 98.7422 155.791 99.4967 155.791 100.71C155.791 101.924 154.458 102.678 152.457 102.678C150.434 102.678 149.1 101.924 149.1 100.71C149.1 99.4967 150.434 98.7422 152.457 98.7422ZM152.457 99.6935C151.123 99.6935 150.314 100.054 150.314 100.71C150.314 101.355 151.123 101.716 152.457 101.716C153.758 101.716 154.578 101.355 154.578 100.71C154.578 100.054 153.758 99.6935 152.457 99.6935Z" stroke="white" stroke-width="2" mask="url(#path-23-outside-1_2796_804)"/>
<path d="M165.202 97.8238V98.7969H156.192V97.8238H160.074V96.8726H157.362V93.0895H158.565V94.0735H162.829V93.0895H164.032V96.8726H161.298V97.8238H165.202ZM164.097 99.5841V102.733H162.884V100.546H157.187V99.5841H164.097ZM158.565 95.8995H162.829V94.981H158.565V95.8995Z" stroke="white" stroke-width="2" mask="url(#path-23-outside-1_2796_804)"/>
<path d="M172.863 93.2316V93.9861C172.863 94.7241 172.863 95.5988 172.644 96.6976H173.967V97.6707H170.031V98.9828C171.829 99.1085 172.906 99.7755 172.917 100.841C172.906 102.044 171.594 102.722 169.44 102.722C167.265 102.722 165.942 102.044 165.942 100.841C165.942 99.7755 167.019 99.1085 168.828 98.9937V97.6707H164.936V96.6976H171.419C171.627 95.6808 171.649 94.9045 171.649 94.2047H166.051V93.2316H172.863ZM169.44 99.9449C167.975 99.9449 167.166 100.251 167.177 100.841C167.166 101.443 167.975 101.749 169.44 101.749C170.873 101.749 171.682 101.443 171.693 100.841C171.682 100.251 170.873 99.9449 169.44 99.9449Z" stroke="white" stroke-width="2" mask="url(#path-23-outside-1_2796_804)"/>
<path d="M183.33 93.4175V94.2375C183.33 95.0685 183.33 96.0252 183.111 97.2771H184.434V98.2721H175.403V97.2771H181.876C182.1 96.0853 182.116 95.1997 182.116 94.4015H176.518V93.4175H183.33ZM183.614 101.541V102.525H176.573V99.2124H177.775V101.541H183.614Z" stroke="white" stroke-width="2" mask="url(#path-23-outside-1_2796_804)"/>
<path d="M192.423 92.849V98.7204H191.209V96.304H189.526V95.309H191.209V92.849H192.423ZM189.077 98.9718C191.177 98.9718 192.456 99.6607 192.456 100.852C192.456 102.044 191.177 102.733 189.077 102.733C186.989 102.733 185.71 102.044 185.721 100.852C185.71 99.6607 186.989 98.9718 189.077 98.9718ZM189.077 99.9012C187.7 99.9012 186.923 100.229 186.923 100.852C186.923 101.465 187.7 101.793 189.077 101.793C190.455 101.793 191.242 101.465 191.242 100.852C191.242 100.229 190.455 99.9012 189.077 99.9012ZM187.776 94.5437C187.776 95.7464 188.574 96.96 190.105 97.4739L189.493 98.4361C188.394 98.0643 187.612 97.3099 187.186 96.3805C186.748 97.4356 185.923 98.2775 184.748 98.6985L184.113 97.7363C185.699 97.1896 186.541 95.8557 186.541 94.5546V94.4781H184.485V93.494H189.821V94.4781H187.776V94.5437Z" stroke="white" stroke-width="2" mask="url(#path-23-outside-1_2796_804)"/>
<path d="M201.166 92.8599V100.076H199.953V96.4571H198.203V95.473H199.953V92.8599H201.166ZM201.418 101.552V102.536H194.683V99.442H195.896V101.552H201.418ZM196.519 94.828C196.519 96.0197 197.318 97.2443 198.848 97.7473L198.236 98.7204C197.132 98.3431 196.35 97.5942 195.918 96.6539C195.481 97.6981 194.655 98.5236 193.491 98.9281L192.868 97.9441C194.442 97.4302 195.284 96.1291 195.284 94.817V94.5546H193.228V93.5706H198.564V94.5546H196.519V94.828Z" stroke="white" stroke-width="2" mask="url(#path-23-outside-1_2796_804)"/>
<path d="M155.726 32.2141V37.9871H154.512V36.8937H152.161V35.9097H154.512V34.8491H152.26C151.631 36.4235 150.193 37.5224 148.039 38.1183L147.547 37.1561C149.86 36.5274 151.09 35.3575 151.287 33.8869H148.072V32.9029H152.61C152.61 33.2473 152.582 33.5753 152.522 33.8869H154.512V32.2141H155.726ZM152.457 38.0964C154.458 38.0964 155.791 38.8508 155.791 40.0645C155.791 41.2781 154.458 42.0325 152.457 42.0325C150.434 42.0325 149.1 41.2781 149.1 40.0645C149.1 38.8508 150.434 38.0964 152.457 38.0964ZM152.457 39.0476C151.123 39.0476 150.314 39.4084 150.314 40.0645C150.314 40.7096 151.123 41.0704 152.457 41.0704C153.758 41.0704 154.578 40.7096 154.578 40.0645C154.578 39.4084 153.758 39.0476 152.457 39.0476Z" stroke="white" stroke-width="2" mask="url(#path-23-outside-1_2796_804)"/>
<path d="M165.202 37.178V38.1511H156.192V37.178H160.074V36.2267H157.362V32.4437H158.565V33.4277H162.829V32.4437H164.032V36.2267H161.298V37.178H165.202ZM164.097 38.9383V42.0872H162.884V39.9005H157.187V38.9383H164.097ZM158.565 35.2536H162.829V34.3352H158.565V35.2536Z" stroke="white" stroke-width="2" mask="url(#path-23-outside-1_2796_804)"/>
<path d="M172.863 32.5858V33.3402C172.863 34.0783 172.863 34.953 172.644 36.0518H173.967V37.0249H170.031V38.3369C171.829 38.4627 172.906 39.1296 172.917 40.1957C172.906 41.3984 171.594 42.0763 169.44 42.0763C167.265 42.0763 165.942 41.3984 165.942 40.1957C165.942 39.1296 167.019 38.4627 168.828 38.3479V37.0249H164.936V36.0518H171.419C171.627 35.035 171.649 34.2587 171.649 33.5589H166.051V32.5858H172.863ZM169.44 39.2991C167.975 39.2991 167.166 39.6052 167.177 40.1957C167.166 40.797 167.975 41.1032 169.44 41.1032C170.873 41.1032 171.682 40.797 171.693 40.1957C171.682 39.6052 170.873 39.2991 169.44 39.2991Z" stroke="white" stroke-width="2" mask="url(#path-23-outside-1_2796_804)"/>
<path d="M178.934 34.5757C178.923 36.3361 179.809 38.1292 181.34 38.8618L180.596 39.8349C179.525 39.2936 178.754 38.2495 178.333 36.9921C177.901 38.3369 177.092 39.4522 175.96 40.0207L175.217 39.0476C176.802 38.2932 177.71 36.4017 177.721 34.5757V33.0013H178.934V34.5757ZM183.144 32.2031V36.0737H184.664V37.1124H183.144V42.0872H181.93V32.2031H183.144Z" stroke="white" stroke-width="2" mask="url(#path-23-outside-1_2796_804)"/>
<path d="M192.423 32.2031V38.0745H191.209V35.6582H189.526V34.6632H191.209V32.2031H192.423ZM189.077 38.326C191.177 38.326 192.456 39.0148 192.456 40.2066C192.456 41.3984 191.177 42.0872 189.077 42.0872C186.989 42.0872 185.71 41.3984 185.721 40.2066C185.71 39.0148 186.989 38.326 189.077 38.326ZM189.077 39.2554C187.7 39.2554 186.923 39.5834 186.923 40.2066C186.923 40.8189 187.7 41.1469 189.077 41.1469C190.455 41.1469 191.242 40.8189 191.242 40.2066C191.242 39.5834 190.455 39.2554 189.077 39.2554ZM187.776 33.8978C187.776 35.1006 188.574 36.3142 190.105 36.8281L189.493 37.7902C188.394 37.4185 187.612 36.6641 187.186 35.7347C186.748 36.7898 185.923 37.6317 184.748 38.0527L184.113 37.0905C185.699 36.5438 186.541 35.2099 186.541 33.9088V33.8322H184.485V32.8482H189.821V33.8322H187.776V33.8978Z" stroke="white" stroke-width="2" mask="url(#path-23-outside-1_2796_804)"/>
<path d="M201.166 32.2141V39.4303H199.953V35.8112H198.203V34.8272H199.953V32.2141H201.166ZM201.418 40.9064V41.8904H194.683V38.7962H195.896V40.9064H201.418ZM196.519 34.1821C196.519 35.3739 197.318 36.5985 198.848 37.1014L198.236 38.0745C197.132 37.6973 196.35 36.9484 195.918 36.0081C195.481 37.0522 194.655 37.8777 193.491 38.2823L192.868 37.2982C194.442 36.7843 195.284 35.4832 195.284 34.1712V33.9088H193.228V32.9247H198.564V33.9088H196.519V34.1821Z" stroke="white" stroke-width="2" mask="url(#path-23-outside-1_2796_804)"/>
<path d="M72.6882 43.41V49.183H71.4745V48.0897H69.1238V47.1056H71.4745V46.045H69.2222C68.5935 47.6195 67.1557 48.7183 65.0018 49.3142L64.5098 48.3521C66.8222 47.7234 68.0523 46.5535 68.2491 45.0829H65.0346V44.0988H69.5721C69.5721 44.4433 69.5447 44.7713 69.4846 45.0829H71.4745V43.41H72.6882ZM69.419 49.2924C71.4199 49.2924 72.7538 50.0468 72.7538 51.2604C72.7538 52.4741 71.4199 53.2285 69.419 53.2285C67.3963 53.2285 66.0624 52.4741 66.0624 51.2604C66.0624 50.0468 67.3963 49.2924 69.419 49.2924ZM69.419 50.2436C68.0851 50.2436 67.276 50.6044 67.276 51.2604C67.276 51.9055 68.0851 52.2663 69.419 52.2663C70.7201 52.2663 71.5401 51.9055 71.5401 51.2604C71.5401 50.6044 70.7201 50.2436 69.419 50.2436Z" stroke="white" stroke-width="2" mask="url(#path-23-outside-1_2796_804)"/>
<path d="M82.1641 48.3739V49.347H73.1547V48.3739H77.0362V47.4227H74.3246V43.6396H75.5273V44.6237H79.7914V43.6396H80.9942V47.4227H78.2607V48.3739H82.1641ZM81.0598 50.1343V53.2832H79.8461V51.0964H74.1497V50.1343H81.0598ZM75.5273 46.4496H79.7914V45.5312H75.5273V46.4496Z" stroke="white" stroke-width="2" mask="url(#path-23-outside-1_2796_804)"/>
<path d="M89.8249 43.7818V44.5362C89.8249 45.2742 89.8249 46.1489 89.6063 47.2478H90.9293V48.2209H86.9931V49.5329C88.7917 49.6586 89.8687 50.3256 89.8796 51.3916C89.8687 52.5943 88.5566 53.2722 86.4027 53.2722C84.2269 53.2722 82.9039 52.5943 82.9039 51.3916C82.9039 50.3256 83.9809 49.6586 85.7904 49.5438V48.2209H81.898V47.2478H88.3817C88.5894 46.2309 88.6113 45.4546 88.6113 44.7549H83.0132V43.7818H89.8249ZM86.4027 50.4951C84.9376 50.4951 84.1285 50.8012 84.1394 51.3916C84.1285 51.993 84.9376 52.2991 86.4027 52.2991C87.835 52.2991 88.6441 51.993 88.655 51.3916C88.6441 50.8012 87.835 50.4951 86.4027 50.4951Z" stroke="white" stroke-width="2" mask="url(#path-23-outside-1_2796_804)"/>
<path d="M97.515 44.2191C97.515 45.4656 98.9036 46.7229 101.014 46.9963L100.533 47.9803C98.8544 47.7288 97.5205 46.9033 96.8808 45.7826C96.2303 46.9033 94.9018 47.7288 93.2399 47.9803L92.7588 46.9963C94.8472 46.7229 96.2357 45.4656 96.2357 44.2191V43.7162H97.515V44.2191ZM101.375 48.8331V49.839H97.4494V53.2832H96.2467V49.839H92.3652V48.8331H101.375Z" stroke="white" stroke-width="2" mask="url(#path-23-outside-1_2796_804)"/>
<path d="M109.385 43.3991V49.2705H108.172V46.8541H106.488V45.8592H108.172V43.3991H109.385ZM106.04 49.522C108.139 49.522 109.418 50.2108 109.418 51.4026C109.418 52.5943 108.139 53.2832 106.04 53.2832C103.951 53.2832 102.672 52.5943 102.683 51.4026C102.672 50.2108 103.951 49.522 106.04 49.522ZM106.04 50.4513C104.662 50.4513 103.886 50.7793 103.886 51.4026C103.886 52.0149 104.662 52.3429 106.04 52.3429C107.417 52.3429 108.205 52.0149 108.205 51.4026C108.205 50.7793 107.417 50.4513 106.04 50.4513ZM104.739 45.0938C104.739 46.2965 105.537 47.5102 107.067 48.024L106.455 48.9862C105.356 48.6145 104.575 47.86 104.148 46.9307C103.711 47.9858 102.885 48.8277 101.71 49.2486L101.076 48.2865C102.661 47.7398 103.503 46.4059 103.503 45.1047V45.0282H101.447V44.0442H106.783V45.0282H104.739V45.0938Z" stroke="white" stroke-width="2" mask="url(#path-23-outside-1_2796_804)"/>
<path d="M118.129 43.41V50.6263H116.915V47.0072H115.166V46.0232H116.915V43.41H118.129ZM118.38 52.1023V53.0864H111.645V49.9921H112.859V52.1023H118.38ZM113.482 45.3781C113.482 46.5699 114.28 47.7944 115.811 48.2974L115.198 49.2705C114.094 48.8933 113.312 48.1443 112.88 47.204C112.443 48.2482 111.618 49.0737 110.453 49.4782L109.83 48.4942C111.404 47.9803 112.246 46.6792 112.246 45.3672V45.1047H110.191V44.1207H115.526V45.1047H113.482V45.3781Z" stroke="white" stroke-width="2" mask="url(#path-23-outside-1_2796_804)"/>
<defs>
<filter id="filter0_d_2796_804" x="0" y="0" width="305" height="261.453" filterUnits="userSpaceOnUse" color-interpolation-filters="sRGB">
<feFlood flood-opacity="0" result="BackgroundImageFix"/>
<feColorMatrix in="SourceAlpha" type="matrix" values="0 0 0 0 0 0 0 0 0 0 0 0 0 0 0 0 0 0 127 0" result="hardAlpha"/>
<feOffset dx="4" dy="4"/>
<feGaussianBlur stdDeviation="5"/>
<feComposite in2="hardAlpha" operator="out"/>
<feColorMatrix type="matrix" values="0 0 0 0 0 0 0 0 0 0 0 0 0 0 0 0 0 0 0.05 0"/>
<feBlend mode="normal" in2="BackgroundImageFix" result="effect1_dropShadow_2796_804"/>
<feBlend mode="normal" in="SourceGraphic" in2="effect1_dropShadow_2796_804" result="shape"/>
</filter>
<filter id="filter1_d_2796_804" x="158.397" y="184.448" width="27.8801" height="32.0773" filterUnits="userSpaceOnUse" color-interpolation-filters="sRGB">
<feFlood flood-opacity="0" result="BackgroundImageFix"/>
<feColorMatrix in="SourceAlpha" type="matrix" values="0 0 0 0 0 0 0 0 0 0 0 0 0 0 0 0 0 0 127 0" result="hardAlpha"/>
<feOffset dx="0.5" dy="0.5"/>
<feGaussianBlur stdDeviation="0.45"/>
<feComposite in2="hardAlpha" operator="out"/>
<feColorMatrix type="matrix" values="0 0 0 0 0 0 0 0 0 0 0 0 0 0 0 0 0 0 0.3 0"/>
<feBlend mode="normal" in2="BackgroundImageFix" result="effect1_dropShadow_2796_804"/>
<feBlend mode="normal" in="SourceGraphic" in2="effect1_dropShadow_2796_804" result="shape"/>
</filter>
<filter id="filter2_d_2796_804" x="162.042" y="104.588" width="27.8801" height="32.0773" filterUnits="userSpaceOnUse" color-interpolation-filters="sRGB">
<feFlood flood-opacity="0" result="BackgroundImageFix"/>
<feColorMatrix in="SourceAlpha" type="matrix" values="0 0 0 0 0 0 0 0 0 0 0 0 0 0 0 0 0 0 127 0" result="hardAlpha"/>
<feOffset dx="0.5" dy="0.5"/>
<feGaussianBlur stdDeviation="0.45"/>
<feComposite in2="hardAlpha" operator="out"/>
<feColorMatrix type="matrix" values="0 0 0 0 0 0 0 0 0 0 0 0 0 0 0 0 0 0 0.3 0"/>
<feBlend mode="normal" in2="BackgroundImageFix" result="effect1_dropShadow_2796_804"/>
<feBlend mode="normal" in="SourceGraphic" in2="effect1_dropShadow_2796_804" result="shape"/>
</filter>
<filter id="filter3_d_2796_804" x="162.042" y="43.9438" width="27.8801" height="32.0773" filterUnits="userSpaceOnUse" color-interpolation-filters="sRGB">
<feFlood flood-opacity="0" result="BackgroundImageFix"/>
<feColorMatrix in="SourceAlpha" type="matrix" values="0 0 0 0 0 0 0 0 0 0 0 0 0 0 0 0 0 0 127 0" result="hardAlpha"/>
<feOffset dx="0.5" dy="0.5"/>
<feGaussianBlur stdDeviation="0.45"/>
<feComposite in2="hardAlpha" operator="out"/>
<feColorMatrix type="matrix" values="0 0 0 0 0 0 0 0 0 0 0 0 0 0 0 0 0 0 0.3 0"/>
<feBlend mode="normal" in2="BackgroundImageFix" result="effect1_dropShadow_2796_804"/>
<feBlend mode="normal" in="SourceGraphic" in2="effect1_dropShadow_2796_804" result="shape"/>
</filter>
<filter id="filter4_d_2796_804" x="79.0053" y="55.1469" width="27.8801" height="32.0773" filterUnits="userSpaceOnUse" color-interpolation-filters="sRGB">
<feFlood flood-opacity="0" result="BackgroundImageFix"/>
<feColorMatrix in="SourceAlpha" type="matrix" values="0 0 0 0 0 0 0 0 0 0 0 0 0 0 0 0 0 0 127 0" result="hardAlpha"/>
<feOffset dx="0.5" dy="0.5"/>
<feGaussianBlur stdDeviation="0.45"/>
<feComposite in2="hardAlpha" operator="out"/>
<feColorMatrix type="matrix" values="0 0 0 0 0 0 0 0 0 0 0 0 0 0 0 0 0 0 0.3 0"/>
<feBlend mode="normal" in2="BackgroundImageFix" result="effect1_dropShadow_2796_804"/>
<feBlend mode="normal" in="SourceGraphic" in2="effect1_dropShadow_2796_804" result="shape"/>
</filter>
<linearGradient id="paint0_linear_2796_804" x1="177.171" y1="102.637" x2="177.171" y2="369.011" gradientUnits="userSpaceOnUse">
<stop stop-color="#E16350"/>
<stop offset="1" stop-color="#E16350"/>
</linearGradient>
<linearGradient id="paint1_linear_2796_804" x1="140.316" y1="68.582" x2="140.316" y2="111.5" gradientUnits="userSpaceOnUse">
<stop stop-color="#E16350"/>
<stop offset="1" stop-color="#E16350"/>
</linearGradient>
</defs>
</svg>
