<svg width="178" height="103" viewBox="0 0 178 103" fill="none" xmlns="http://www.w3.org/2000/svg">
<path opacity="0.7" d="M55.7714 100.492C56.6139 100.492 57.297 99.8085 57.297 98.966V51.7222C57.297 40.4351 48.147 31.2852 36.8599 31.2852C25.5728 31.2852 16.4229 40.4351 16.4229 51.7222V98.966C16.4229 99.8085 17.1059 100.492 17.9485 100.492H55.7714Z" fill="url(#paint0_linear_2836_752)" stroke="url(#paint1_linear_2836_752)" stroke-width="3" stroke-linejoin="round"/>
<path opacity="0.7" d="M163.478 100.492C164.32 100.492 165.003 99.8085 165.003 98.966V51.7222C165.003 40.4351 155.854 31.2852 144.566 31.2852C133.28 31.2852 124.129 40.4351 124.129 51.7222V98.966C124.129 99.8085 124.812 100.492 125.655 100.492H163.478Z" fill="url(#paint2_linear_2836_752)" stroke="url(#paint3_linear_2836_752)" stroke-width="3" stroke-linejoin="round"/>
<path opacity="0.7" d="M82.6991 100.492C83.5417 100.492 84.2247 99.8086 84.2247 98.9661V34.3902C84.2247 23.1031 75.0748 13.9531 63.7877 13.9531C52.5006 13.9531 43.3506 23.1031 43.3506 34.3902V98.9661C43.3506 99.8086 44.0337 100.492 44.8762 100.492H82.6991Z" fill="url(#paint4_linear_2836_752)" stroke="url(#paint5_linear_2836_752)" stroke-width="3" stroke-linejoin="round"/>
<path opacity="0.7" d="M136.55 100.492C137.393 100.492 138.076 99.8086 138.076 98.9661V34.3902C138.076 23.1031 128.926 13.9531 117.64 13.9531C106.352 13.9531 97.2021 23.1031 97.2021 34.3902V98.9661C97.2021 99.8086 97.8852 100.492 98.7278 100.492H136.55Z" fill="url(#paint6_linear_2836_752)" stroke="url(#paint7_linear_2836_752)" stroke-width="3" stroke-linejoin="round"/>
<path opacity="0.7" d="M109.625 100.92C110.467 100.92 111.151 100.237 111.151 99.3946V22.5034C111.151 11.2164 102.001 2.06641 90.7133 2.06641C79.4257 2.06641 70.2764 11.2164 70.2764 22.5034V99.3946C70.2764 100.237 70.9593 100.92 71.802 100.92H109.625Z" fill="url(#paint8_linear_2836_752)" stroke="url(#paint9_linear_2836_752)" stroke-width="3" stroke-linejoin="round"/>
<path d="M29.1493 21.1934C34.6764 21.1934 39.157 16.673 39.157 11.0967C39.157 5.52045 34.6764 1 29.1493 1C23.6222 1 19.1416 5.52045 19.1416 11.0967C19.1416 16.673 23.6222 21.1934 29.1493 21.1934Z" fill="url(#paint10_linear_2836_752)"/>
<path d="M152.279 21.1934C157.806 21.1934 162.287 16.673 162.287 11.0967C162.287 5.52045 157.806 1 152.279 1C146.752 1 142.271 5.52045 142.271 11.0967C142.271 16.673 146.752 21.1934 152.279 21.1934Z" fill="url(#paint11_linear_2836_752)"/>
<path d="M62.487 37.9414C62.1602 37.9414 61.8422 38.0463 61.5796 38.2405L54.4848 43.4896L32.3797 41.5073C31.7344 41.4494 31.1229 41.8054 30.8547 42.3952C30.5865 42.985 30.72 43.6799 31.1878 44.1282L41.2689 53.7905C41.553 54.0627 41.9312 54.2147 42.3246 54.2147H139.608C140.061 54.2147 140.489 54.014 140.779 53.6667L148.844 44.0044C149.239 43.5316 149.31 42.8679 149.025 42.3217C148.742 41.7755 148.156 41.4541 147.542 41.5068L124.426 43.4916L117.329 38.2405C117.066 38.0463 116.748 37.9414 116.422 37.9414H62.487Z" fill="url(#paint12_linear_2836_752)" stroke="url(#paint13_linear_2836_752)" stroke-width="3" stroke-linejoin="round"/>
<path d="M61.8604 32.6641V37.0221" stroke="#DEFFFA" stroke-width="3" stroke-linecap="round" stroke-linejoin="round"/>
<path d="M116.439 32.6641V37.0221" stroke="#DEFFFA" stroke-width="3" stroke-linecap="round" stroke-linejoin="round"/>
<path d="M135.576 82.6914H43.8369V100.999H135.576V82.6914Z" fill="url(#paint14_linear_2836_752)"/>
<path d="M129.526 66.4198H51.9014V54.2148H129.526V66.4198Z" fill="url(#paint15_linear_2836_752)" stroke="#00A695" stroke-width="3"/>
<path d="M48.3733 66.927H25.1865L40.8124 83.7089H141.624L152.713 66.927H133.055L119.446 63.3672H61.4788L48.3733 66.927Z" fill="url(#paint16_linear_2836_752)" stroke="url(#paint17_linear_2836_752)" stroke-width="3" stroke-linejoin="round"/>
<path d="M58.959 101V99.9201C58.959 96.0228 62.1185 92.8633 66.0158 92.8633C69.9132 92.8633 73.0726 96.0228 73.0726 99.9201V101" stroke="#019E94" stroke-width="1.5" stroke-linejoin="round"/>
<path d="M108.355 101V99.9201C108.355 96.0228 111.515 92.8633 115.412 92.8633C119.309 92.8633 122.469 96.0228 122.469 99.9201V101" stroke="#019E94" stroke-width="1.5" stroke-linejoin="round"/>
<path d="M83.1533 101V97.3734C83.1533 93.1976 86.5385 89.8125 90.7142 89.8125C94.89 89.8125 98.2751 93.1976 98.2751 97.3734V101" stroke="#019E94" stroke-width="1.5" stroke-linejoin="round"/>
<path d="M43.8369 83.7109V101.001H136.584V83.7109" stroke="#00A695" stroke-width="3" stroke-linejoin="round"/>
<path d="M2 101H176.404" stroke="url(#paint18_linear_2836_752)" stroke-width="3" stroke-linecap="round"/>
<defs>
<linearGradient id="paint0_linear_2836_752" x1="36.8599" y1="32.8108" x2="36.8599" y2="98.966" gradientUnits="userSpaceOnUse">
<stop stop-color="#ACDFDB" stop-opacity="0.64"/>
<stop offset="1" stop-color="#00A695"/>
</linearGradient>
<linearGradient id="paint1_linear_2836_752" x1="36.8599" y1="32.8108" x2="36.8599" y2="98.966" gradientUnits="userSpaceOnUse">
<stop stop-color="#DEFFFA"/>
<stop offset="1" stop-color="#00A695"/>
</linearGradient>
<linearGradient id="paint2_linear_2836_752" x1="144.566" y1="103.597" x2="144.566" y2="103.597" gradientUnits="userSpaceOnUse">
<stop stop-color="#ACDFDB" stop-opacity="0.64"/>
<stop offset="1" stop-color="#00A695"/>
</linearGradient>
<linearGradient id="paint3_linear_2836_752" x1="144.566" y1="103.597" x2="144.566" y2="103.597" gradientUnits="userSpaceOnUse">
<stop stop-color="#DEFFFA"/>
<stop offset="1" stop-color="#00A695"/>
</linearGradient>
<linearGradient id="paint4_linear_2836_752" x1="63.7877" y1="15.4788" x2="63.7877" y2="98.9661" gradientUnits="userSpaceOnUse">
<stop stop-color="#ACDFDB" stop-opacity="0.64"/>
<stop offset="1" stop-color="#00A695"/>
</linearGradient>
<linearGradient id="paint5_linear_2836_752" x1="63.7877" y1="15.4788" x2="63.7877" y2="98.9661" gradientUnits="userSpaceOnUse">
<stop stop-color="#DEFFFA"/>
<stop offset="1" stop-color="#00A695"/>
</linearGradient>
<linearGradient id="paint6_linear_2836_752" x1="117.639" y1="15.4788" x2="117.639" y2="98.9661" gradientUnits="userSpaceOnUse">
<stop stop-color="#ACDFDB" stop-opacity="0.64"/>
<stop offset="1" stop-color="#00A695"/>
</linearGradient>
<linearGradient id="paint7_linear_2836_752" x1="117.639" y1="15.4788" x2="117.639" y2="98.9661" gradientUnits="userSpaceOnUse">
<stop stop-color="#DEFFFA"/>
<stop offset="1" stop-color="#00A695"/>
</linearGradient>
<linearGradient id="paint8_linear_2836_752" x1="90.7135" y1="3.59203" x2="90.7135" y2="99.3946" gradientUnits="userSpaceOnUse">
<stop stop-color="#ACDFDB" stop-opacity="0.64"/>
<stop offset="1" stop-color="#00A695"/>
</linearGradient>
<linearGradient id="paint9_linear_2836_752" x1="90.7135" y1="3.59203" x2="90.7135" y2="99.3946" gradientUnits="userSpaceOnUse">
<stop stop-color="#DEFFFA"/>
<stop offset="1" stop-color="#00A695"/>
</linearGradient>
<linearGradient id="paint10_linear_2836_752" x1="29.1493" y1="1" x2="29.1493" y2="21.1934" gradientUnits="userSpaceOnUse">
<stop stop-color="#E6FDFA"/>
<stop offset="0.864" stop-color="#C8F1EF"/>
</linearGradient>
<linearGradient id="paint11_linear_2836_752" x1="152.279" y1="21.1934" x2="152.279" y2="1" gradientUnits="userSpaceOnUse">
<stop stop-color="#FFA800"/>
<stop offset="0.864" stop-color="#E16350"/>
</linearGradient>
<linearGradient id="paint12_linear_2836_752" x1="89.958" y1="39.467" x2="89.958" y2="52.6891" gradientUnits="userSpaceOnUse">
<stop stop-color="#ACDFDB" stop-opacity="0.64"/>
<stop offset="1" stop-color="#00A695"/>
</linearGradient>
<linearGradient id="paint13_linear_2836_752" x1="89.958" y1="39.467" x2="89.958" y2="52.6891" gradientUnits="userSpaceOnUse">
<stop stop-color="#DEFFFA"/>
<stop offset="1" stop-color="#00A695"/>
</linearGradient>
<linearGradient id="paint14_linear_2836_752" x1="89.7063" y1="82.6914" x2="89.7063" y2="100.999" gradientUnits="userSpaceOnUse">
<stop stop-color="#00708D"/>
<stop offset="1" stop-color="#00A695"/>
</linearGradient>
<linearGradient id="paint15_linear_2836_752" x1="90.7138" y1="54.2148" x2="90.7138" y2="66.4198" gradientUnits="userSpaceOnUse">
<stop stop-color="#006C8D"/>
<stop offset="0.524" stop-color="#009C94"/>
<stop offset="1" stop-color="#00A695"/>
</linearGradient>
<linearGradient id="paint16_linear_2836_752" x1="88.95" y1="63.3672" x2="88.95" y2="83.7089" gradientUnits="userSpaceOnUse">
<stop stop-color="#BFD2AA"/>
<stop offset="1" stop-color="#01A695"/>
</linearGradient>
<linearGradient id="paint17_linear_2836_752" x1="88.95" y1="63.3672" x2="88.95" y2="83.7089" gradientUnits="userSpaceOnUse">
<stop stop-color="#DEFFFA"/>
<stop offset="1" stop-color="#00A695"/>
</linearGradient>
<linearGradient id="paint18_linear_2836_752" x1="nan" y1="nan" x2="nan" y2="nan" gradientUnits="userSpaceOnUse">
<stop stop-color="#C8F1EF" stop-opacity="0.3"/>
<stop offset="0.23438" stop-color="#A5E0DA"/>
<stop offset="0.364" stop-color="#2FB7A9"/>
<stop offset="0.5" stop-color="#00A695"/>
<stop offset="0.624" stop-color="#2EB6A9"/>
<stop offset="0.77492" stop-color="#ACE2DE"/>
<stop offset="1" stop-color="#C8F1EF" stop-opacity="0.3"/>
</linearGradient>
</defs>
</svg>
