<svg width="322" height="392" viewBox="0 0 322 392" fill="none" xmlns="http://www.w3.org/2000/svg">
<g filter="url(#filter0_d_1281_575)">
<path d="M16 46.2C16 29.521 29.521 16 46.2 16H284.11C300.789 16 314.31 29.521 314.31 46.2V353.46C314.31 370.139 300.789 383.66 284.11 383.66H46.2001C29.5211 383.66 16 370.139 16 353.46V46.2Z" fill="#FAFAFA"/>
</g>
<path d="M108.622 300.463C111.409 300.463 113.081 301.361 113.081 302.941C113.081 304.52 111.409 305.434 108.622 305.449C105.835 305.434 104.132 304.52 104.147 302.941C104.132 301.361 105.835 300.463 108.622 300.463ZM108.622 301.253C106.47 301.253 105.092 301.903 105.107 302.941C105.092 303.994 106.47 304.628 108.622 304.628C110.774 304.628 112.137 303.994 112.137 302.941C112.137 301.903 110.774 301.253 108.622 301.253ZM112.973 291.808V295.323H115.079V296.175H112.973V300.076H111.997V291.808H112.973ZM103.931 292.644V294.858H108.297V292.644H109.257V298.915H102.971V292.644H103.931ZM103.931 298.094H108.297V295.648H103.931V298.094ZM127.763 298.869V299.689H122.065V302.631H121.105V299.689H115.268V298.869H127.763ZM126.122 292.474V297.15H116.909V292.474H126.122ZM117.869 293.279V296.36H125.162V293.279H117.869ZM126.37 304.319V305.139H116.909V301.238H117.885V304.319H126.37ZM134.44 292.056C137.444 292.056 139.225 292.892 139.225 294.425C139.225 295.973 137.444 296.825 134.44 296.825C131.436 296.825 129.656 295.973 129.656 294.425C129.656 292.892 131.436 292.056 134.44 292.056ZM134.44 292.815C132.102 292.815 130.662 293.434 130.662 294.425C130.662 295.462 132.102 296.066 134.44 296.066C136.794 296.066 138.234 295.462 138.234 294.425C138.234 293.434 136.794 292.815 134.44 292.815ZM140.68 297.847V298.652H128.231V297.847H140.68ZM139.039 299.952V302.879H130.755V304.489H139.472V305.294H129.811V302.12H138.094V300.727H129.764V299.952H139.039ZM148.429 292.474C150.427 292.474 151.805 293.527 151.805 295.137C151.805 296.585 150.666 297.599 148.956 297.769V299.209C150.303 299.147 151.673 299.031 152.935 298.838L153.012 299.581C150.086 300.107 146.772 300.154 144.372 300.154L144.249 299.318C145.34 299.325 146.633 299.318 147.98 299.256V297.785C146.231 297.63 145.054 296.608 145.054 295.137C145.054 293.527 146.432 292.474 148.429 292.474ZM148.429 293.233C146.989 293.233 145.967 294.022 145.983 295.137C145.967 296.252 146.989 297.026 148.429 297.042C149.885 297.026 150.876 296.252 150.891 295.137C150.876 294.022 149.885 293.233 148.429 293.233ZM154.824 291.808V296.546H156.96V297.382H154.824V302.275H153.848V291.808H154.824ZM155.335 304.288V305.124H146.308V301.361H147.283V304.288H155.335ZM169.707 302.879V303.715H157.196V302.879H160.82V300.123H158.807V296.035H167.121V293.682H158.76V292.861H168.081V296.856H159.767V299.302H168.406V300.123H166.192V302.879H169.707ZM161.78 302.879H165.232V300.123H161.78V302.879ZM181.695 291.808V300.293H180.766V296.469H178.738V300.061H177.809V292.04H178.738V295.648H180.766V291.808H181.695ZM177.174 293.449V294.27H170.067V293.449H173.148V291.855H174.123V293.449H177.174ZM173.628 295.044C175.362 295.044 176.539 295.942 176.554 297.367C176.539 298.776 175.362 299.689 173.628 299.689C171.894 299.689 170.702 298.776 170.717 297.367C170.702 295.942 171.894 295.044 173.628 295.044ZM173.628 295.803C172.42 295.803 171.584 296.422 171.584 297.367C171.584 298.296 172.42 298.931 173.628 298.931C174.836 298.931 175.656 298.296 175.656 297.367C175.656 296.422 174.836 295.803 173.628 295.803ZM174.851 301.222C174.836 302.453 175.54 303.746 176.91 304.443C178.25 303.676 178.985 302.267 179.001 301.222V300.68H179.945V301.222C179.945 302.585 181.076 303.978 182.81 304.536L182.33 305.294C180.944 304.806 179.93 303.831 179.465 302.678C179.055 303.785 178.211 304.876 176.926 305.418C175.594 304.899 174.735 303.877 174.356 302.724C173.853 303.831 172.854 304.799 171.538 305.294L171.042 304.536C172.745 303.947 173.891 302.492 173.891 301.222V300.68H174.851V301.222ZM185.693 299.999V301.733H192.909V299.999H193.899V305.263H184.718V299.999H185.693ZM185.693 304.458H192.909V302.538H185.693V304.458ZM195.541 298.11V298.946H183.092V298.11H195.541ZM189.812 292.66C189.812 294.456 192.599 295.942 194.797 296.252L194.426 297.026C192.421 296.716 190.168 295.609 189.316 294.007C188.48 295.625 186.212 296.716 184.207 297.026L183.835 296.252C186.065 295.927 188.821 294.502 188.821 292.66V291.948H189.812V292.66ZM207.219 291.808V305.465H206.259V291.808H207.219ZM197.929 293.155V301.021H198.053C200.189 301.021 202.342 300.85 204.695 300.355L204.834 301.207C202.404 301.718 200.267 301.888 198.053 301.888H196.969V293.155H197.929ZM219.501 291.808V297.32H221.854V298.141H219.501V305.48H218.525V291.808H219.501ZM210.66 301.176C213.261 301.176 215.026 301.083 217.101 300.696L217.24 301.547C215.088 301.934 213.308 302.027 210.66 302.027H209.607V293.155H215.971V293.976H210.582V301.176H210.66ZM223.283 304.334C222.818 304.334 222.446 303.963 222.446 303.514C222.446 303.049 222.818 302.678 223.283 302.678C223.732 302.678 224.103 303.049 224.103 303.514C224.103 303.963 223.732 304.334 223.283 304.334ZM60.4698 322.257H59.3086L63.3807 311.047H64.5729L68.6451 322.257H67.4838L66.3071 318.928H61.6466L60.4698 322.257ZM62.0027 317.952H65.9664L64.0155 312.471H63.9381L62.0027 317.952ZM69.5158 322.257V311.047H73.1854C75.6008 311.047 76.824 312.456 76.824 314.422C76.824 315.924 76.1118 317.078 74.7183 317.534L77.2885 322.257H76.0189L73.588 317.751C73.4641 317.759 73.3325 317.767 73.2009 317.767H70.6152V322.257H69.5158ZM70.6152 316.76H73.1544C74.9041 316.76 75.7402 315.862 75.7402 314.422C75.7402 312.982 74.9041 312.038 73.1389 312.038H70.6152V316.76ZM87.6852 311.264C87.6697 315.119 86.2143 318.758 81.368 321.127L80.8106 320.383C83.466 319.098 85.0685 317.411 85.9201 315.475L81.0274 315.94L80.8416 315.057L86.2298 314.685C86.5008 313.857 86.6556 312.982 86.7098 312.084H81.5228V311.264H87.6852ZM91.1225 309.808V315.475H93.4296V316.296H91.1225V323.465H90.1471V309.808H91.1225ZM99.2705 311.449V315.011H101.562V310.118H102.506V322.752H101.562V315.847H99.2705V319.702H94.099V311.449H99.2705ZM95.0126 312.255V318.897H98.3415V312.255H95.0126ZM105.216 309.808V323.465H104.271V309.808H105.216ZM117.018 309.808V315.32H119.371V316.172H117.018V323.48H116.042V309.808H117.018ZM108.13 319.3C110.809 319.3 112.605 319.207 114.726 318.804L114.835 319.625C112.651 320.027 110.855 320.136 108.13 320.136H107.062V315.042H112.233V311.945H107.031V311.109H113.209V315.878H108.037V319.3H108.13ZM131.963 320.879V321.715H119.452V320.879H125.181V318.123H121.063V314.035H129.377V311.682H121.016V310.861H130.337V314.856H122.023V317.302H130.662V318.123H126.157V320.879H131.963ZM143.01 310.691V311.387C142.994 312.224 142.994 313.478 142.623 315.119L141.647 315.026C142.011 313.462 142.035 312.347 142.035 311.527H136.275V310.691H143.01ZM139.449 313.633V316.42C141.02 316.365 142.638 316.257 144.109 316.063L144.171 316.791C141.307 317.256 138.009 317.333 135.531 317.318L135.423 316.482C136.344 316.482 137.397 316.474 138.489 316.451V313.633H139.449ZM146.076 309.808V313.664H148.181V314.5H146.076V318.401H145.1V309.808H146.076ZM141.709 318.572C144.512 318.572 146.2 319.454 146.2 320.972C146.2 322.536 144.512 323.418 141.709 323.418C138.922 323.418 137.219 322.536 137.235 320.972C137.219 319.454 138.922 318.572 141.709 318.572ZM141.709 319.346C139.557 319.346 138.195 319.981 138.195 320.972C138.195 322.009 139.557 322.613 141.709 322.613C143.862 322.613 145.224 322.009 145.224 320.972C145.224 319.981 143.862 319.346 141.709 319.346ZM158.9 309.808V315.707H161.222V316.543H158.9V323.465H157.94V309.808H158.9ZM148.247 319.888C149.401 319.888 150.748 319.88 152.149 319.826V318.216C150.5 318.076 149.424 317.14 149.439 315.738C149.424 314.205 150.709 313.215 152.629 313.215C154.533 313.215 155.834 314.205 155.834 315.738C155.834 317.132 154.758 318.069 153.124 318.216V319.795C154.456 319.725 155.795 319.617 157.042 319.439L157.119 320.198C154.115 320.708 150.848 320.739 148.433 320.739L148.247 319.888ZM156.763 311.511V312.332H148.479V311.511H152.149V309.808H153.124V311.511H156.763ZM152.629 313.989C151.266 313.989 150.353 314.716 150.353 315.738C150.353 316.76 151.266 317.457 152.629 317.441C153.991 317.457 154.889 316.76 154.905 315.738C154.889 314.716 153.991 313.989 152.629 313.989ZM173.845 316.869V317.689H168.147V320.631H167.187V317.689H161.35V316.869H173.845ZM172.204 310.474V315.15H162.991V310.474H172.204ZM163.951 311.279V314.36H171.244V311.279H163.951ZM172.451 322.319V323.139H162.991V319.238H163.966V322.319H172.451ZM180.522 310.056C183.526 310.056 185.306 310.892 185.306 312.425C185.306 313.973 183.526 314.825 180.522 314.825C177.518 314.825 175.737 313.973 175.737 312.425C175.737 310.892 177.518 310.056 180.522 310.056ZM180.522 310.815C178.184 310.815 176.744 311.434 176.744 312.425C176.744 313.462 178.184 314.066 180.522 314.066C182.875 314.066 184.315 313.462 184.315 312.425C184.315 311.434 182.875 310.815 180.522 310.815ZM186.762 315.847V316.652H174.313V315.847H186.762ZM185.12 317.952V320.879H176.837V322.489H185.554V323.294H175.892V320.12H184.176V318.727H175.846V317.952H185.12ZM201.556 309.808V319.857H200.58V309.808H201.556ZM202.005 322.319V323.139H192.838V318.82H193.814V322.319H202.005ZM194.217 310.799C196.245 310.799 197.747 312.162 197.747 314.113C197.747 316.079 196.245 317.457 194.217 317.441C192.188 317.457 190.671 316.079 190.686 314.113C190.671 312.162 192.188 310.799 194.217 310.799ZM194.217 311.651C192.73 311.651 191.631 312.704 191.631 314.113C191.631 315.537 192.73 316.574 194.217 316.574C195.687 316.574 196.802 315.537 196.802 314.113C196.802 312.704 195.687 311.651 194.217 311.651ZM207.985 311.79C207.969 313.88 209.564 315.692 211.531 316.404L211.02 317.178C209.433 316.567 208.109 315.32 207.505 313.71C206.917 315.429 205.585 316.768 203.99 317.426L203.464 316.652C205.446 315.893 206.994 313.958 207.009 311.79V310.474H207.985V311.79ZM214.503 318.773V323.465H213.528V319.578H205.384V318.773H214.503ZM214.503 309.808V318.061H213.528V309.808H214.503ZM223.131 312.255V313.06H216.195V312.255H219.168V310.226H220.159V312.255H223.131ZM219.663 314.082C221.366 314.097 222.589 315.351 222.589 317.147C222.589 318.959 221.366 320.229 219.663 320.229C217.96 320.229 216.737 318.959 216.737 317.147C216.737 315.351 217.96 314.097 219.663 314.082ZM219.663 314.918C218.471 314.933 217.604 315.893 217.619 317.147C217.604 318.417 218.471 319.377 219.663 319.361C220.84 319.377 221.707 318.417 221.722 317.147C221.707 315.893 220.84 314.933 219.663 314.918ZM227.807 309.808V323.465H226.878V316.451H224.819V322.768H223.906V310.149H224.819V315.63H226.878V309.808H227.807ZM235.924 311.728C235.924 313.695 238.649 315.258 240.833 315.599L240.461 316.373C238.44 316.002 236.211 314.84 235.398 313.122C234.57 314.84 232.332 316.002 230.35 316.373L229.963 315.599C232.131 315.258 234.856 313.695 234.856 311.728V311.511H230.366V310.706H240.399V311.511H235.924V311.728ZM241.622 317.658V318.494H235.847V323.449H234.902V318.494H229.174V317.658H241.622ZM246.07 313.834C246.07 315.986 247.277 318.355 249.073 319.392L248.485 320.151C247.138 319.338 246.108 317.805 245.621 316.079C245.125 317.96 244.026 319.586 242.648 320.43L241.998 319.702C243.84 318.649 245.125 316.218 245.141 313.865V311.124H246.07V313.834ZM253.78 309.808V323.465H252.836V309.808H253.78ZM250.962 310.118V322.752H250.033V315.645H247.541V314.794H250.033V310.118H250.962ZM267.58 320.817V321.653H255.069V320.817H258.259V317.008C257.059 316.42 256.339 315.436 256.339 314.205C256.339 312.1 258.383 310.737 261.278 310.722C264.189 310.737 266.233 312.1 266.233 314.205C266.233 315.421 265.528 316.396 264.359 316.992V320.817H267.58ZM261.278 311.542C258.956 311.527 257.268 312.611 257.268 314.205C257.268 315.769 258.956 316.869 261.278 316.853C263.601 316.869 265.304 315.769 265.304 314.205C265.304 312.611 263.601 311.527 261.278 311.542ZM259.219 320.817H263.384V317.364C262.757 317.55 262.044 317.643 261.278 317.643C260.527 317.643 259.83 317.55 259.219 317.38V320.817ZM269.364 322.334C268.9 322.334 268.528 321.963 268.528 321.514C268.528 321.049 268.9 320.678 269.364 320.678C269.813 320.678 270.185 321.049 270.185 321.514C270.185 321.963 269.813 322.334 269.364 322.334Z" fill="#999999"/>
<path d="M103.221 133.872V135.026H85.9453V133.872H93.8993V129.146H95.2464V133.872H103.221ZM95.2464 122.39C95.2464 125.512 99.4158 128.12 102.345 128.612L101.767 129.702C99.0737 129.136 95.7595 127.222 94.5835 124.507C93.3648 127.243 90.072 129.179 87.4206 129.767L86.8433 128.676C89.7299 128.163 93.8566 125.512 93.8566 122.39V121.641H87.3779V120.465H101.746V121.641H95.2464V122.39ZM110.378 122.326C110.356 125.02 112.473 127.521 115.146 128.505L114.376 129.574C112.281 128.719 110.517 126.998 109.736 124.849C108.934 127.222 107.117 129.104 104.904 130.023L104.177 128.911C106.892 127.864 109.052 125.212 109.052 122.24V119.803H110.378V122.326ZM119.657 118.669V132.867H118.31V124.421H113.884V123.266H118.31V118.669H119.657ZM120.106 135.946V137.079H107.577V131.199H108.924V135.946H120.106ZM128.46 120.081C131.432 120.081 133.485 121.855 133.506 124.442C133.485 127.051 131.432 128.804 128.46 128.804C125.509 128.804 123.414 127.051 123.414 124.442C123.414 121.855 125.509 120.081 128.46 120.081ZM128.46 121.278C126.301 121.278 124.718 122.604 124.74 124.442C124.718 126.281 126.301 127.628 128.46 127.607C130.62 127.628 132.181 126.281 132.181 124.442C132.181 122.604 130.62 121.278 128.46 121.278ZM137.633 118.669V137.55H136.286V118.669H137.633ZM122.388 132.097C125.916 132.119 130.748 132.097 134.982 131.456L135.088 132.482C130.727 133.295 126.023 133.295 122.601 133.295L122.388 132.097ZM159.493 118.669V126.559H162.743V127.714H159.493V137.528H158.146V118.669H159.493ZM156.136 121.77V122.903H144.868V121.77H149.893V118.862H151.24V121.77H156.136ZM150.598 124.635C153.25 124.635 155.153 126.388 155.153 128.911C155.153 131.434 153.25 133.188 150.598 133.188C147.947 133.188 146.023 131.434 146.044 128.911C146.023 126.388 147.947 124.635 150.598 124.635ZM150.598 125.768C148.717 125.79 147.327 127.115 147.327 128.911C147.327 130.707 148.717 132.033 150.598 132.012C152.48 132.033 153.87 130.707 153.87 128.911C153.87 127.115 152.48 125.79 150.598 125.768ZM178.345 123.438V124.571H165.538V118.99H166.842V123.438H178.345ZM180.377 126.623V127.757H163.122V126.623H180.377ZM178.132 129.638V133.85H166.735V136.16H178.816V137.25H165.388V132.803H176.806V130.729H165.345V129.638H178.132ZM196.791 118.669V137.55H195.444V118.669H196.791ZM186.827 120.166C189.607 120.166 191.595 122.711 191.595 126.688C191.595 130.665 189.607 133.209 186.827 133.209C184.026 133.209 182.059 130.665 182.059 126.688C182.059 122.711 184.026 120.166 186.827 120.166ZM186.827 121.363C184.796 121.363 183.363 123.544 183.363 126.688C183.363 129.852 184.796 132.012 186.827 132.012C188.859 132.012 190.27 129.852 190.27 126.688C190.27 123.544 188.859 121.363 186.827 121.363ZM218.694 118.669V123.416H221.602V124.549H218.694V129.403H217.347V118.669H218.694ZM206.378 127.008C210.206 127.03 212.451 126.901 215.102 126.367L215.295 127.5C212.536 128.035 210.249 128.163 206.378 128.163H204.946V119.974H213.285V121.086H206.293V127.008H206.378ZM218.694 130.451V137.25H206.913V130.451H218.694ZM208.217 131.563V136.117H217.347V131.563H208.217ZM237.653 118.669V132.375H236.306V118.669H237.653ZM232.18 120.102C232.18 124.913 228.566 128.569 223.071 130.301L222.515 129.189C227.187 127.714 230.373 124.859 230.704 121.257H223.456V120.102H232.18ZM238.188 135.946V137.079H225.487V131.285H226.834V135.946H238.188ZM160.477 143.011C164.625 143.011 167.084 144.166 167.084 146.283C167.084 148.421 164.625 149.597 160.477 149.597C156.329 149.597 153.87 148.421 153.87 146.283C153.87 144.166 156.329 143.011 160.477 143.011ZM160.477 144.059C157.248 144.059 155.26 144.914 155.26 146.283C155.26 147.715 157.248 148.549 160.477 148.549C163.727 148.549 165.715 147.715 165.715 146.283C165.715 144.914 163.727 144.059 160.477 144.059ZM169.094 151.008V152.12H151.903V151.008H169.094ZM166.827 153.916V157.957H155.388V160.181H167.426V161.293H154.084V156.91H165.523V154.985H154.019V153.916H166.827ZM180.862 146.625C180.862 149.02 182.936 151.137 185.651 151.97L184.989 152.997C182.818 152.313 181.033 150.837 180.22 148.934C179.419 151.03 177.558 152.612 175.324 153.382L174.64 152.313C177.377 151.457 179.536 149.255 179.536 146.625V146.133H175.131V145H179.536V142.562H180.905V145H185.266V146.133H180.862V146.625ZM189.286 142.669V147.48H192.194V148.614H189.286V153.702H187.939V142.669H189.286ZM189.628 154.771V155.905H184.176C184.315 158.107 187.447 159.892 190.355 160.395L189.821 161.464C187.18 160.962 184.507 159.55 183.449 157.551C182.401 159.55 179.729 160.94 177.099 161.443L176.585 160.395C179.472 159.892 182.583 158.128 182.765 155.905H177.291V154.771H189.628ZM197.79 144.166C200.548 144.166 202.494 146.711 202.494 150.688C202.494 154.665 200.548 157.209 197.79 157.209C195.031 157.209 193.107 154.665 193.128 150.688C193.107 146.711 195.031 144.166 197.79 144.166ZM197.79 145.363C195.801 145.363 194.39 147.544 194.39 150.688C194.39 153.852 195.801 156.012 197.79 156.012C199.821 156.012 201.189 153.852 201.211 150.688C201.189 147.544 199.821 145.363 197.79 145.363ZM207.283 142.669V150.345H210.533V151.5H207.283V161.528H205.936V142.669H207.283ZM225.451 142.669V150.281H228.701V151.457H225.451V161.55H224.104V142.669H225.451ZM213.178 155.776C216.877 155.776 219.357 155.648 222.287 155.092L222.436 156.225C219.421 156.781 216.941 156.931 213.178 156.931H211.703V149.896H218.844V145.62H211.66V144.465H220.191V151.051H213.05V155.776H213.178ZM231.816 144.38L231.709 155.434H230.277L230.17 144.38H231.816ZM231.004 159.967C230.362 159.967 229.849 159.454 229.849 158.834C229.849 158.193 230.362 157.679 231.004 157.679C231.624 157.679 232.137 158.193 232.137 158.834C232.137 159.454 231.624 159.967 231.004 159.967Z" fill="#121212"/>
<path d="M104.114 147.074C104.092 150.516 105.824 154.023 108.818 155.456L107.364 157.359C105.268 156.3 103.761 154.258 102.938 151.799C102.093 154.429 100.511 156.61 98.2976 157.722L96.8438 155.819C99.9441 154.344 101.719 150.645 101.74 147.074V143.995H104.114V147.074ZM112.346 142.434V150.003H115.318V152.035H112.346V161.763H109.972V142.434H112.346ZM131.561 142.434V153.916H129.188V149.191H125.895V147.245H129.188V142.434H131.561ZM125.019 154.408C129.124 154.408 131.626 155.755 131.626 158.086C131.626 160.416 129.124 161.763 125.019 161.763C120.935 161.763 118.433 160.416 118.454 158.086C118.433 155.755 120.935 154.408 125.019 154.408ZM125.019 156.225C122.324 156.225 120.806 156.867 120.806 158.086C120.806 159.283 122.324 159.924 125.019 159.924C127.713 159.924 129.252 159.283 129.252 158.086C129.252 156.867 127.713 156.225 125.019 156.225ZM122.474 145.748C122.474 148.1 124.035 150.474 127.029 151.479L125.831 153.36C123.682 152.633 122.153 151.158 121.32 149.34C120.464 151.404 118.85 153.05 116.551 153.873L115.311 151.992C118.412 150.923 120.058 148.314 120.058 145.77V145.62H116.038V143.696H126.473V145.62H122.474V145.748ZM149.729 142.456V156.568H147.356V149.49H143.935V147.566H147.356V142.456H149.729ZM150.221 159.454V161.378H137.05V155.327H139.423V159.454H150.221ZM140.642 146.304C140.642 148.635 142.203 151.03 145.196 152.013L143.999 153.916C141.839 153.179 140.311 151.714 139.466 149.875C138.611 151.917 136.996 153.531 134.719 154.322L133.501 152.398C136.58 151.393 138.226 148.849 138.226 146.283V145.77H134.206V143.845H144.64V145.77H140.642V146.304Z" fill="#00A695"/>
<path d="M118.742 192.109L110.41 215.203L144.551 222.305L157.285 200.38L175.068 190.573L194.829 189.177L214.415 202.26" stroke="url(#paint0_linear_1281_575)" stroke-width="2.265" stroke-linejoin="round"/>
<path d="M120.055 196.515C122.645 195.895 124.247 193.275 123.632 190.662C123.018 188.048 120.421 186.432 117.83 187.052C115.24 187.672 113.639 190.292 114.253 192.905C114.867 195.519 117.464 197.135 120.055 196.515Z" fill="url(#paint1_linear_1281_575)"/>
<path d="M111.418 219.468C114.008 218.849 115.61 216.228 114.996 213.615C114.381 211.001 111.784 209.385 109.194 210.005C106.604 210.625 105.002 213.245 105.616 215.859C106.23 218.472 108.828 220.088 111.418 219.468Z" fill="url(#paint2_linear_1281_575)"/>
<path d="M146.16 226.797C148.75 226.178 150.352 223.557 149.738 220.944C149.124 218.331 146.526 216.714 143.936 217.334C141.346 217.954 139.744 220.574 140.358 223.188C140.972 225.801 143.57 227.417 146.16 226.797Z" fill="url(#paint3_linear_1281_575)"/>
<path d="M158.418 204.945C161.008 204.325 162.61 201.704 161.996 199.091C161.381 196.478 158.784 194.862 156.194 195.482C153.604 196.101 152.002 198.722 152.616 201.335C153.23 203.948 155.828 205.564 158.418 204.945Z" fill="url(#paint4_linear_1281_575)"/>
<path d="M176.324 195.664C178.914 195.044 180.516 192.423 179.902 189.81C179.288 187.197 176.69 185.581 174.1 186.2C171.51 186.82 169.908 189.441 170.522 192.054C171.136 194.667 173.734 196.283 176.324 195.664Z" fill="url(#paint5_linear_1281_575)"/>
<path d="M196.074 194.217C198.664 193.598 200.266 190.977 199.652 188.364C199.038 185.751 196.44 184.134 193.85 184.754C191.26 185.374 189.658 187.994 190.272 190.608C190.886 193.221 193.484 194.837 196.074 194.217Z" fill="url(#paint6_linear_1281_575)"/>
<path d="M215.711 207.511C218.301 206.892 219.903 204.271 219.289 201.658C218.674 199.044 216.077 197.428 213.487 198.048C210.897 198.668 209.295 201.288 209.909 203.902C210.523 206.515 213.121 208.131 215.711 207.511Z" fill="url(#paint7_linear_1281_575)"/>
<path d="M144.877 213.993C144.635 213.993 144.399 214.07 144.204 214.215L138.864 218.166L122.234 216.674C121.755 216.631 121.301 216.896 121.102 217.333C120.903 217.771 121.002 218.287 121.349 218.62L128.931 225.886C129.142 226.088 129.422 226.201 129.714 226.201H202.876C203.212 226.201 203.531 226.052 203.746 225.794L209.811 218.528C210.104 218.177 210.157 217.684 209.946 217.279C209.734 216.873 209.3 216.635 208.845 216.674L191.454 218.167L186.112 214.215C185.917 214.07 185.681 213.993 185.439 213.993H144.877Z" fill="url(#paint8_linear_1281_575)" stroke="url(#paint9_linear_1281_575)" stroke-width="2.265" stroke-linejoin="round"/>
<path d="M144.402 210.009V213.286" stroke="#DEFFFA" stroke-width="2.265" stroke-linecap="round" stroke-linejoin="round"/>
<path d="M185.449 210.009V213.286" stroke="#DEFFFA" stroke-width="2.265" stroke-linecap="round" stroke-linejoin="round"/>
<path d="M199.84 247.634H130.848V261.402H199.84V247.634Z" fill="url(#paint10_linear_1281_575)"/>
<path d="M195.292 235.395H136.914V226.216H195.292V235.395Z" fill="url(#paint11_linear_1281_575)" stroke="#00A695" stroke-width="2.265"/>
<path d="M134.262 235.777H116.824L128.576 248.398H204.391L212.731 235.777H197.947L187.712 233.1H144.118L134.262 235.777Z" fill="url(#paint12_linear_1281_575)" stroke="url(#paint13_linear_1281_575)" stroke-width="2.265" stroke-linejoin="round"/>
<path d="M142.223 261.402V260.59C142.223 257.659 144.599 255.283 147.53 255.283C150.461 255.283 152.837 257.659 152.837 260.59V261.402" stroke="#019E94" stroke-width="1.1325" stroke-linejoin="round"/>
<path d="M179.371 261.402V260.59C179.371 257.659 181.747 255.283 184.678 255.283C187.609 255.283 189.985 257.659 189.985 260.59V261.402" stroke="#019E94" stroke-width="1.1325" stroke-linejoin="round"/>
<path d="M160.418 261.402V258.674C160.418 255.534 162.964 252.988 166.104 252.988C169.245 252.988 171.79 255.534 171.79 258.674V261.402" stroke="#019E94" stroke-width="1.1325" stroke-linejoin="round"/>
<path d="M130.848 248.397V261.401H200.598V248.397" stroke="#00A695" stroke-width="2.265" stroke-linejoin="round"/>
<path d="M99.3867 261.402H230.547" stroke="url(#paint14_linear_1281_575)" stroke-width="2.265" stroke-linecap="round"/>
<path d="M199.709 248.341L207.956 257.418L214.81 251.583L217.916 248.341L218.666 240.345L214.81 235.05L209.241 233.213L203.779 234.51L198.316 240.345L199.709 248.341Z" fill="#E16350"/>
<path fill-rule="evenodd" clip-rule="evenodd" d="M212.818 243.169C212.818 245.652 210.823 247.665 208.362 247.665C205.901 247.665 203.906 245.652 203.906 243.169C203.906 240.686 205.901 238.673 208.362 238.673C210.823 238.673 212.818 240.686 212.818 243.169ZM210.608 243.169C210.608 244.42 209.602 245.434 208.362 245.434C207.122 245.434 206.116 244.42 206.116 243.169C206.116 241.918 207.122 240.903 208.362 240.903C209.602 240.903 210.608 241.918 210.608 243.169Z" fill="#E16350"/>
<path fill-rule="evenodd" clip-rule="evenodd" d="M200.144 251.227C195.733 246.777 195.733 239.561 200.144 235.11L200.376 234.877C204.787 230.426 211.939 230.426 216.35 234.877L216.582 235.11C220.993 239.561 220.993 246.777 216.582 251.227L209.926 257.942C209.063 258.813 207.663 258.813 206.8 257.942L200.144 251.227ZM201.708 236.687L201.939 236.454C205.487 232.875 211.239 232.875 214.787 236.454L215.018 236.687C218.566 240.267 218.566 246.071 215.018 249.65L208.363 256.365L201.708 249.65C198.16 246.071 198.16 240.267 201.708 236.687Z" fill="#E16350"/>
<path d="M208.366 246.678C210.346 246.678 211.951 245.058 211.951 243.061C211.951 241.064 210.346 239.444 208.366 239.444C206.386 239.444 204.781 241.064 204.781 243.061C204.781 245.058 206.386 246.678 208.366 246.678Z" fill="#FAFAFA"/>
<path d="M191.014 73.6855H135.868C129.531 73.6855 124.395 78.8225 124.395 85.1591C124.395 91.4958 129.531 96.6327 135.868 96.6327H191.014C197.35 96.6327 202.487 91.4958 202.487 85.1591C202.487 78.8225 197.35 73.6855 191.014 73.6855Z" fill="#00A695"/>
<path d="M151.794 83.2997C151.707 82.4599 150.967 81.971 149.927 81.971C148.811 81.971 148.109 82.5351 148.109 83.3122C148.109 84.177 149.049 84.5029 149.764 84.6784L150.641 84.9166C151.807 85.1923 153.248 85.8316 153.261 87.4735C153.248 89.0027 152.033 90.1308 149.889 90.1308C147.859 90.1308 146.58 89.1155 146.492 87.461H147.871C147.959 88.4512 148.824 88.9275 149.889 88.9275C151.042 88.9275 151.882 88.3384 151.895 87.4485C151.882 86.6588 151.143 86.3329 150.177 86.0822L149.1 85.794C147.646 85.3929 146.731 84.6533 146.731 83.3874C146.731 81.8206 148.134 80.7803 149.964 80.7803C151.807 80.7803 153.098 81.8332 153.136 83.2997H151.794ZM153.534 82.0964V80.9056H160.565V82.0964H157.745V89.9804H156.366V82.0964H153.534ZM161.214 89.9804V80.9056H166.905V82.0964H162.593V84.8414H166.604V86.0196H162.593V88.7896H166.955V89.9804H161.214ZM167.842 89.9804V80.9056H171.076C173.181 80.9056 174.222 82.1716 174.222 83.8512C174.222 85.5182 173.181 86.7967 171.076 86.7967H169.221V89.9804H167.842ZM169.221 85.6185H170.938C172.279 85.6185 172.83 84.8664 172.83 83.8512C172.83 82.8234 172.279 82.0838 170.938 82.0838H169.221V85.6185ZM180.395 90.1057C178.515 90.1057 177.174 89.0904 177.124 87.6114H178.528C178.578 88.4136 179.367 88.915 180.383 88.915C181.473 88.915 182.275 88.3133 182.275 87.4359C182.275 86.546 181.523 85.8942 180.232 85.8942H179.455V84.7661H180.232C181.26 84.7661 181.987 84.1896 181.987 83.3247C181.987 82.4975 181.373 81.9334 180.408 81.9334C179.493 81.9334 178.691 82.4348 178.653 83.262H177.324C177.362 81.783 178.728 80.7803 180.42 80.7803C182.2 80.7803 183.328 81.9084 183.316 83.2495C183.328 84.2773 182.689 85.0294 181.711 85.2675V85.3302C182.952 85.5057 183.667 86.3329 183.667 87.4861C183.667 89.0027 182.275 90.1057 180.395 90.1057Z" fill="#F6F6F6"/>
<defs>
<filter id="filter0_d_1281_575" x="0.9" y="0.9" width="320.959" height="390.31" filterUnits="userSpaceOnUse" color-interpolation-filters="sRGB">
<feFlood flood-opacity="0" result="BackgroundImageFix"/>
<feColorMatrix in="SourceAlpha" type="matrix" values="0 0 0 0 0 0 0 0 0 0 0 0 0 0 0 0 0 0 127 0" result="hardAlpha"/>
<feOffset dx="-3.775" dy="-3.775"/>
<feGaussianBlur stdDeviation="5.6625"/>
<feComposite in2="hardAlpha" operator="out"/>
<feColorMatrix type="matrix" values="0 0 0 0 0 0 0 0 0 0 0 0 0 0 0 0 0 0 0.05 0"/>
<feBlend mode="normal" in2="BackgroundImageFix" result="effect1_dropShadow_1281_575"/>
<feBlend mode="normal" in="SourceGraphic" in2="effect1_dropShadow_1281_575" result="shape"/>
</filter>
<linearGradient id="paint0_linear_1281_575" x1="156.389" y1="183.103" x2="164.619" y2="217.505" gradientUnits="userSpaceOnUse">
<stop stop-color="#DEFFFA"/>
<stop offset="1" stop-color="#00A695"/>
</linearGradient>
<linearGradient id="paint1_linear_1281_575" x1="117.83" y1="187.052" x2="120.092" y2="196.506" gradientUnits="userSpaceOnUse">
<stop stop-color="#ACDFDB" stop-opacity="0.64"/>
<stop offset="1" stop-color="#00A695"/>
</linearGradient>
<linearGradient id="paint2_linear_1281_575" x1="109.194" y1="210.005" x2="111.455" y2="219.459" gradientUnits="userSpaceOnUse">
<stop stop-color="#ACDFDB" stop-opacity="0.64"/>
<stop offset="1" stop-color="#00A695"/>
</linearGradient>
<linearGradient id="paint3_linear_1281_575" x1="143.936" y1="217.334" x2="146.198" y2="226.788" gradientUnits="userSpaceOnUse">
<stop stop-color="#ACDFDB" stop-opacity="0.64"/>
<stop offset="1" stop-color="#00A695"/>
</linearGradient>
<linearGradient id="paint4_linear_1281_575" x1="156.194" y1="195.482" x2="158.455" y2="204.936" gradientUnits="userSpaceOnUse">
<stop stop-color="#ACDFDB" stop-opacity="0.64"/>
<stop offset="1" stop-color="#00A695"/>
</linearGradient>
<linearGradient id="paint5_linear_1281_575" x1="174.1" y1="186.2" x2="176.362" y2="195.655" gradientUnits="userSpaceOnUse">
<stop stop-color="#ACDFDB" stop-opacity="0.64"/>
<stop offset="1" stop-color="#00A695"/>
</linearGradient>
<linearGradient id="paint6_linear_1281_575" x1="193.85" y1="184.754" x2="196.112" y2="194.208" gradientUnits="userSpaceOnUse">
<stop stop-color="#ACDFDB" stop-opacity="0.64"/>
<stop offset="1" stop-color="#00A695"/>
</linearGradient>
<linearGradient id="paint7_linear_1281_575" x1="213.487" y1="198.048" x2="215.748" y2="207.502" gradientUnits="userSpaceOnUse">
<stop stop-color="#ACDFDB" stop-opacity="0.64"/>
<stop offset="1" stop-color="#00A695"/>
</linearGradient>
<linearGradient id="paint8_linear_1281_575" x1="165.537" y1="215.125" x2="165.537" y2="225.069" gradientUnits="userSpaceOnUse">
<stop stop-color="#ACDFDB" stop-opacity="0.64"/>
<stop offset="1" stop-color="#00A695"/>
</linearGradient>
<linearGradient id="paint9_linear_1281_575" x1="165.537" y1="215.125" x2="165.537" y2="225.069" gradientUnits="userSpaceOnUse">
<stop stop-color="#DEFFFA"/>
<stop offset="1" stop-color="#00A695"/>
</linearGradient>
<linearGradient id="paint10_linear_1281_575" x1="165.344" y1="247.634" x2="165.344" y2="261.402" gradientUnits="userSpaceOnUse">
<stop stop-color="#00708D"/>
<stop offset="1" stop-color="#00A695"/>
</linearGradient>
<linearGradient id="paint11_linear_1281_575" x1="166.103" y1="226.216" x2="166.103" y2="235.395" gradientUnits="userSpaceOnUse">
<stop stop-color="#006C8D"/>
<stop offset="0.524" stop-color="#009C94"/>
<stop offset="1" stop-color="#00A695"/>
</linearGradient>
<linearGradient id="paint12_linear_1281_575" x1="164.777" y1="233.1" x2="164.777" y2="248.398" gradientUnits="userSpaceOnUse">
<stop stop-color="#BFD2AA"/>
<stop offset="1" stop-color="#01A695"/>
</linearGradient>
<linearGradient id="paint13_linear_1281_575" x1="164.777" y1="233.1" x2="164.777" y2="248.398" gradientUnits="userSpaceOnUse">
<stop stop-color="#DEFFFA"/>
<stop offset="1" stop-color="#00A695"/>
</linearGradient>
<linearGradient id="paint14_linear_1281_575" x1="nan" y1="nan" x2="nan" y2="nan" gradientUnits="userSpaceOnUse">
<stop stop-color="#C8F1EF" stop-opacity="0.3"/>
<stop offset="0.234379" stop-color="#A5E0DA"/>
<stop offset="0.364" stop-color="#2FB7A9"/>
<stop offset="0.5" stop-color="#00A695"/>
<stop offset="0.624" stop-color="#2EB6A9"/>
<stop offset="0.774916" stop-color="#ACE2DE"/>
<stop offset="1" stop-color="#C8F1EF" stop-opacity="0.3"/>
</linearGradient>
</defs>
</svg>
