<svg width="566" height="366" viewBox="0 0 566 366" fill="none" xmlns="http://www.w3.org/2000/svg">
<path d="M0 32.5312C0 14.8581 14.3269 0.53125 32 0.53125L533.923 0.53125C551.596 0.53125 565.923 14.8581 565.923 32.5312V365.633H32C14.3269 365.633 0 351.306 0 333.633L0 32.5312Z" fill="#E16350"/>
<rect x="56.9844" y="232.316" width="229.167" height="32.2148" rx="16.1074" fill="white" stroke="white"/>
<path d="M75.4795 251.681V249.954L80.6758 241.902H83.3652V249.904H84.9424V251.681H83.3652V253.922H81.3066V251.681H75.4795ZM77.6875 249.904H81.3398V244.359H81.207L77.6875 249.821V249.904ZM98.9169 240.392V255.399H97.1571V247.746H95.4638V254.636H93.7704V240.674H95.4638V246.269H97.1571V240.392H98.9169ZM92.0771 242.168V243.662H88.3251V250.336C89.9604 250.319 91.3051 250.236 92.8241 249.954L92.957 251.465C91.1474 251.83 89.5702 251.88 87.4784 251.896H86.4657V242.168H92.0771ZM116.424 240.973V242.118C116.424 243.239 116.424 244.567 116.092 246.235H118.1V247.713H112.124V249.705C114.855 249.896 116.49 250.909 116.507 252.527C116.49 254.354 114.498 255.383 111.227 255.383C107.924 255.383 105.915 254.354 105.915 252.527C105.915 250.909 107.55 249.896 110.298 249.722V247.713H104.387V246.235H114.232C114.548 244.691 114.581 243.513 114.581 242.45H106.081V240.973H116.424ZM111.227 251.166C109.003 251.166 107.774 251.631 107.791 252.527C107.774 253.44 109.003 253.905 111.227 253.905C113.402 253.905 114.631 253.44 114.647 252.527C114.631 251.631 113.402 251.166 111.227 251.166ZM135.657 240.392V255.399H133.88V247.812H132.22V254.636H130.494V240.674H132.22V246.302H133.88V240.392H135.657ZM125.281 242.118V250.037C126.576 250.012 127.995 249.904 129.564 249.589L129.747 251.199C127.721 251.564 126.011 251.664 124.418 251.664H123.421V242.118H125.281ZM150.246 240.392V255.399H148.469V240.392H150.246ZM147.158 240.657V254.669H145.398V247.53H143.97C143.796 250.452 142.542 252.262 140.683 252.245C138.724 252.262 137.446 250.187 137.446 246.883C137.446 243.579 138.724 241.537 140.683 241.537C142.501 241.537 143.738 243.23 143.954 246.036H145.398V240.657H147.158ZM140.683 243.28C139.737 243.264 139.139 244.542 139.156 246.883C139.139 249.224 139.737 250.502 140.683 250.485C141.679 250.502 142.277 249.224 142.277 246.883C142.277 244.542 141.679 243.264 140.683 243.28ZM162.639 249.655C165.744 249.655 167.653 250.701 167.669 252.511C167.653 254.337 165.744 255.399 162.639 255.399C159.501 255.399 157.559 254.337 157.559 252.511C157.559 250.701 159.501 249.655 162.639 249.655ZM162.639 251.1C160.58 251.1 159.402 251.581 159.402 252.511C159.402 253.44 160.58 253.938 162.639 253.938C164.698 253.938 165.843 253.44 165.843 252.511C165.843 251.581 164.698 251.1 162.639 251.1ZM167.52 240.392V243.978H169.612V245.521H167.52V249.29H165.677V240.392H167.52ZM158.024 241.338V243.363H161.527V241.338H163.353V248.344H156.198V241.338H158.024ZM158.024 246.883H161.527V244.808H158.024V246.883ZM183.902 247.896V249.373H178.108V252.129H176.282V249.373H170.189V247.896H183.902ZM182.142 241.072V246.501H171.932V241.072H182.142ZM173.725 242.517V245.057H180.316V242.517H173.725ZM182.391 253.606V255.101H171.849V250.751H173.692V253.606H182.391ZM198.424 247.099V248.477H194.938V249.506H196.764V252.926H188.164V253.988H197.212V255.267H186.321V251.73H194.938V250.801H186.305V249.506H188.214V248.477H184.711V247.099H198.424ZM196.731 240.724V244.094H188.28V245.007H196.996V246.285H186.454V242.898H194.888V241.985H186.404V240.724H196.731ZM190.04 249.506H193.112V248.477H190.04V249.506ZM215.947 240.408V249.589H214.188V245.671H212.627V249.091H210.9V240.69H212.627V244.177H214.188V240.408H215.947ZM209.439 241.454V245.754H205.538V247.331C207.281 247.314 208.609 247.24 210.137 246.949L210.303 248.427C208.493 248.759 206.966 248.809 204.774 248.809H203.745V244.393H207.663V242.915H203.729V241.454H209.439ZM210.884 249.788C214.022 249.805 216.014 250.834 216.03 252.577C216.014 254.32 214.022 255.383 210.884 255.383C207.713 255.383 205.737 254.32 205.737 252.577C205.737 250.834 207.713 249.805 210.884 249.788ZM210.884 251.216C208.809 251.216 207.58 251.697 207.58 252.577C207.58 253.49 208.809 253.955 210.884 253.955C212.942 253.955 214.171 253.49 214.171 252.577C214.171 251.697 212.942 251.216 210.884 251.216ZM225.705 241.338C225.688 245.389 223.63 248.145 218.649 249.589L217.969 248.111C220.268 247.48 221.762 246.584 222.65 245.472L218.185 245.804L217.902 244.343L223.414 244.127C223.572 243.72 223.671 243.28 223.729 242.815H218.666V241.338H225.705ZM230.138 240.408V249.307H228.278V240.408H230.138ZM225.091 249.522C228.212 249.522 230.187 250.602 230.187 252.461C230.187 254.32 228.212 255.366 225.091 255.366C221.903 255.366 219.928 254.32 219.928 252.461C219.928 250.602 221.903 249.522 225.091 249.522ZM225.091 250.983C222.949 250.983 221.787 251.498 221.787 252.461C221.787 253.407 222.949 253.938 225.091 253.938C227.149 253.938 228.345 253.407 228.345 252.461C228.345 251.498 227.149 250.983 225.091 250.983ZM248.939 240.392V255.399H247.179V240.392H248.939ZM245.885 240.674V254.669H244.141V247.115H241.983V245.621H244.141V240.674H245.885ZM240.655 244.492C240.655 247.032 241.568 249.572 243.71 250.801L242.614 252.162C241.228 251.332 240.306 249.904 239.792 248.194C239.261 250.045 238.306 251.623 236.887 252.511L235.758 251.133C237.932 249.821 238.879 247.099 238.879 244.492V243.496H236.272V242.002H243.079V243.496H240.655V244.492ZM257.302 249.771C260.556 249.788 262.615 250.817 262.632 252.594C262.615 254.337 260.556 255.383 257.302 255.383C254.065 255.383 251.99 254.337 251.99 252.594C251.99 250.817 254.065 249.788 257.302 249.771ZM257.302 251.166C255.144 251.166 253.833 251.681 253.849 252.594C253.833 253.474 255.144 253.955 257.302 253.955C259.477 253.955 260.789 253.474 260.805 252.594C260.789 251.681 259.477 251.166 257.302 251.166ZM262.532 241.105V242.351C262.532 243.529 262.532 244.791 262.117 246.335L260.291 246.169C260.664 244.708 260.689 243.654 260.689 242.566H252.139V241.105H262.532ZM264.192 247.198V248.692H250.579V247.198H255.858V244.476H257.684V247.198H264.192Z" fill="#E16350"/>
<path d="M65.0977 159.344C68.7891 159.363 71.4453 161.16 71.4453 163.895C71.4453 166.482 69.1406 168.201 65.8398 168.406V172.059H73.0859V173.348H57.1875V172.059H64.3359V168.406C61.0449 168.191 58.75 166.473 58.75 163.895C58.75 161.16 61.4062 159.363 65.0977 159.344ZM65.0977 160.613C62.2852 160.613 60.2344 161.941 60.2344 163.895C60.2344 165.906 62.2852 167.195 65.0977 167.215C67.9102 167.195 69.9609 165.906 69.9609 163.895C69.9609 161.941 67.9102 160.613 65.0977 160.613ZM88.2766 162.391V163.66H76.4211V158.504H77.925V162.391H88.2766ZM90.1516 165.379V166.629H74.2531V165.379H90.1516ZM88.1008 168.191V172.254H77.8273V174.109H88.7258V175.34H76.2844V171.082H86.5969V169.402H76.2453V168.191H88.1008ZM110.572 158.211V175.613H109.029V165.809H105.22V164.539H109.029V158.211H110.572ZM102.193 163.367C102.193 166.258 104.263 169.402 106.802 170.555L105.884 171.785C103.902 170.818 102.232 168.719 101.451 166.297C100.65 168.865 98.941 171.092 96.9586 172.137L96.0211 170.945C98.5406 169.715 100.63 166.453 100.65 163.367V161.277H96.6852V160.008H106.177V161.277H102.193V163.367ZM115.841 159.285V166.59C118.663 166.58 120.714 166.463 123.067 166.004L123.263 167.273C120.763 167.781 118.575 167.918 115.587 167.918H114.298V159.285H115.841ZM127.657 169.539V175.574H126.114V170.809H115.958V169.539H127.657ZM127.657 158.211V168.738H126.114V164.715H121.134V163.504H126.114V161.57H121.134V160.359H126.114V158.211H127.657ZM140.519 174.188C137.55 174.188 135.48 172.547 135.499 170.242C135.48 168.406 136.749 166.902 138.37 166.648V166.57C136.964 166.238 136.046 164.949 136.046 163.406C136.046 161.238 137.941 159.656 140.519 159.656C143.097 159.656 144.991 161.238 145.011 163.406C144.991 164.949 144.054 166.238 142.667 166.57V166.648C144.269 166.902 145.538 168.406 145.558 170.242C145.538 172.547 143.468 174.188 140.519 174.188ZM140.519 172.645C142.55 172.645 143.8 171.629 143.8 170.145C143.8 168.582 142.413 167.43 140.519 167.43C138.624 167.43 137.218 168.582 137.257 170.145C137.218 171.629 138.488 172.645 140.519 172.645ZM140.519 165.945C142.12 165.945 143.292 164.969 143.292 163.543C143.292 162.137 142.179 161.18 140.519 161.18C138.839 161.18 137.745 162.137 137.745 163.543C137.745 164.969 138.898 165.945 140.519 165.945ZM153.268 162.879C153.248 166.043 155.416 169.246 157.975 170.398L157.037 171.609C155.065 170.643 153.356 168.602 152.526 166.121C151.715 168.748 150.006 170.936 147.975 171.961L146.998 170.672C149.577 169.48 151.725 166.18 151.745 162.879V159.715H153.268V162.879ZM161.412 158.211V175.613H159.87V158.211H161.412ZM183.317 158.211V175.613H181.774V158.211H183.317ZM171.54 159.695V164.285H176.716V159.695H178.22V171.414H170.016V159.695H171.54ZM171.54 170.125H176.716V165.516H171.54V170.125ZM200.832 158.211V169.207H199.367V164.227H197.043V168.582H195.598V158.562H197.043V162.957H199.367V158.211H200.832ZM194.895 160.301V161.531H185.988V160.301H189.699V158.348H191.223V160.301H194.895ZM190.461 162.469C192.668 162.469 194.172 163.621 194.191 165.438C194.172 167.215 192.668 168.387 190.461 168.387C188.273 168.387 186.73 167.215 186.75 165.438C186.73 163.621 188.273 162.469 190.461 162.469ZM190.461 163.602C189.074 163.602 188.117 164.344 188.117 165.438C188.117 166.512 189.074 167.234 190.461 167.234C191.848 167.234 192.805 166.512 192.805 165.438C192.805 164.344 191.848 163.602 190.461 163.602ZM195.09 169.5C198.742 169.5 200.93 170.594 200.93 172.547C200.93 174.441 198.742 175.535 195.09 175.535C191.438 175.535 189.25 174.441 189.27 172.547C189.25 170.594 191.438 169.5 195.09 169.5ZM195.09 170.711C192.395 170.691 190.773 171.355 190.793 172.547C190.773 173.68 192.395 174.344 195.09 174.344C197.785 174.344 199.387 173.68 199.406 172.547C199.387 171.355 197.785 170.691 195.09 170.711ZM217.527 158.211V175.574H215.984V158.211H217.527ZM212.39 160.105C212.37 165.105 210.046 169.52 204.226 172.312L203.386 171.062C208.083 168.836 210.476 165.506 210.827 161.355H204.187V160.105H212.39ZM233.694 158.211V165.125H236.604V166.414H233.694V175.613H232.17V158.211H233.694ZM228.83 159.832V166.043H222.502V170.105C225.725 170.105 227.971 169.998 230.608 169.5L230.764 170.77C228.03 171.277 225.705 171.395 222.366 171.414H220.979V164.773H227.307V161.102H220.94V159.832H228.83ZM247.083 158.855C249.68 158.875 251.575 160.438 251.575 162.703C251.575 164.969 249.68 166.531 247.083 166.531C244.446 166.531 242.571 164.969 242.571 162.703C242.571 160.438 244.446 158.875 247.083 158.855ZM247.083 160.145C245.345 160.145 244.055 161.199 244.075 162.703C244.055 164.227 245.345 165.281 247.083 165.281C248.802 165.281 250.091 164.227 250.091 162.703C250.091 161.199 248.802 160.145 247.083 160.145ZM256.497 158.211V167.137H254.973V158.211H256.497ZM256.497 167.977V172.156H246.751V174.109H257.122V175.34H245.247V171.004H254.973V169.207H245.208V167.977H256.497ZM273.641 158.211V168.562H272.098V164.012H268.602V162.742H272.098V158.211H273.641ZM267.879 169.109C271.492 169.109 273.699 170.281 273.699 172.332C273.699 174.383 271.492 175.555 267.879 175.574C264.266 175.555 262.059 174.383 262.059 172.332C262.059 170.281 264.266 169.109 267.879 169.109ZM267.879 170.301C265.223 170.301 263.562 171.062 263.582 172.332C263.562 173.582 265.223 174.344 267.879 174.344C270.535 174.344 272.176 173.582 272.176 172.332C272.176 171.062 270.535 170.301 267.879 170.301ZM265.281 161.395C265.281 163.66 267.02 165.809 269.559 166.688L268.758 167.918C266.805 167.215 265.291 165.76 264.559 163.953C263.797 165.994 262.186 167.625 260.125 168.406L259.324 167.176C261.902 166.238 263.738 163.895 263.738 161.414V160.77H259.812V159.48H269.168V160.77H265.281V161.395ZM290.648 158.211V175.613H289.105V158.211H290.648ZM281.409 159.559C283.988 159.578 285.843 161.922 285.843 165.613C285.843 169.305 283.988 171.648 281.409 171.648C278.812 171.648 276.976 169.305 276.976 165.613C276.976 161.922 278.812 159.578 281.409 159.559ZM281.409 160.926C279.671 160.945 278.46 162.781 278.46 165.613C278.46 168.445 279.671 170.281 281.409 170.281C283.148 170.281 284.359 168.445 284.359 165.613C284.359 162.781 283.148 160.945 281.409 160.926ZM314.056 167.43V168.68H298.236V167.43H305.384V165.242H306.888V167.43H314.056ZM312.103 170.34V175.574H310.56V171.57H299.994V170.34H312.103ZM306.888 158.133V159.93H312.455V161.18H306.986C307.054 163.182 309.808 164.549 313.119 164.852L312.611 166.043C309.75 165.73 307.191 164.676 306.146 162.918C305.091 164.676 302.533 165.73 299.681 166.043L299.173 164.852C302.464 164.549 305.218 163.182 305.306 161.18H299.877V159.93H305.384V158.133H306.888ZM328.895 158.211V162.742H331.513V164.012H328.895V168.719H327.372V158.211H328.895ZM328.895 169.637V175.574H327.372V170.887H317.528V169.637H328.895ZM317.567 159.305V162.039H322.626V159.305H324.149V167.508H316.063V159.305H317.567ZM317.567 166.258H322.626V163.27H317.567V166.258ZM341.078 161.219V162.469H332.367V161.219H335.98V158.738H337.504V161.219H341.078ZM336.723 163.641C338.91 163.641 340.473 165.281 340.492 167.586C340.473 169.91 338.91 171.57 336.723 171.57C334.555 171.57 332.992 169.91 332.992 167.586C332.992 165.281 334.555 163.641 336.723 163.641ZM336.723 164.93C335.355 164.949 334.359 166.062 334.359 167.586C334.359 169.129 335.355 170.242 336.723 170.223C338.109 170.242 339.125 169.129 339.125 167.586C339.125 166.062 338.109 164.949 336.723 164.93ZM347.191 158.211V175.574H345.727V166.805H343.422V174.715H341.977V158.641H343.422V165.535H345.727V158.211H347.191ZM355.605 162.879C355.605 166.023 357.616 169.188 360.136 170.34L359.218 171.59C357.245 170.574 355.614 168.494 354.843 166.023C354.071 168.621 352.441 170.848 350.468 171.902L349.472 170.672C352.011 169.422 354.042 166.082 354.042 162.879V159.715H355.605V162.879ZM363.886 158.211V175.613H362.362V165.398H358.241V164.148H362.362V158.211H363.886ZM371.572 171.492V169.168L377.548 159.852H381.24V169.129H383.037V171.492H381.24V173.992H378.447V171.492H371.572ZM374.541 169.129H378.486V163.074H378.349L374.541 169.012V169.129ZM399.536 158.016V175.789H397.173V166.863H395.454V174.93H393.169V158.309H395.454V164.871H397.173V158.016H399.536ZM391.294 160.066V162.078H387.173V169.656C388.891 169.646 390.415 169.559 392.134 169.246L392.309 171.277C390.141 171.688 388.247 171.746 385.903 171.766H384.673V160.066H391.294ZM419.995 158.641V160.047C419.995 161.375 419.995 162.918 419.624 164.812H421.929V166.805H414.995V168.992C418.15 169.236 420.034 170.438 420.054 172.352C420.034 174.559 417.652 175.789 413.765 175.789C409.839 175.789 407.456 174.559 407.456 172.352C407.456 170.438 409.341 169.246 412.515 168.992V166.805H405.659V164.812H417.124C417.456 163.113 417.505 161.814 417.515 160.613H407.652V158.641H419.995ZM413.765 170.926C411.265 170.926 409.956 171.395 409.956 172.352C409.956 173.348 411.265 173.816 413.765 173.816C416.226 173.816 417.534 173.348 417.534 172.352C417.534 171.395 416.226 170.926 413.765 170.926ZM430.85 158.27C434.932 158.27 437.295 159.344 437.315 161.297C437.295 163.27 434.932 164.344 430.85 164.344C426.748 164.344 424.366 163.27 424.366 161.297C424.366 159.344 426.748 158.27 430.85 158.27ZM430.85 160.086C428.233 160.086 426.963 160.516 426.983 161.297C426.963 162.176 428.233 162.508 430.85 162.508C433.487 162.508 434.737 162.176 434.737 161.297C434.737 160.516 433.487 160.086 430.85 160.086ZM438.955 165.184V167.156H422.745V165.184H438.955ZM436.983 168.191V172.723H427.08V173.797H437.452V175.672H424.639V170.984H434.522V170.008H424.62V168.191H436.983ZM460.509 171.668V173.719H444.239V171.668H451.095V168.035H445.958V159.324H458.692V168.035H453.575V171.668H460.509ZM448.419 161.316V166.082H456.231V161.316H448.419ZM475.66 164.344V166.297H463.375V158.953H475.484V160.945H465.934V164.344H475.66ZM477.574 168.094V170.066H470.621V175.77H468.16V170.066H461.305V168.094H477.574ZM71.5039 195.965V197.938H66.3477V201.727H73.2812V203.758H57.0117V201.727H63.8672V197.938H58.9258V189.266H71.3672V191.258H61.4258V195.965H71.5039ZM88.5305 192.859V194.812H76.1086V188.641H78.5891V192.859H88.5305ZM90.3469 196.727V198.68H74.0773V196.727H90.3469ZM88.6477 203.406V205.398H75.9523V200.125H78.4523V203.406H88.6477ZM111.841 198.543V200.574H104.908V205.789H102.447V200.574H95.5719V198.543H111.841ZM110.103 195.281V197.254H97.6227V188.738H109.908V190.691H100.064V192.02H109.537V193.934H100.064V195.281H110.103ZM117.579 189.266C119.981 189.266 121.768 191.248 122.13 194.441H125.216V188.016H127.677V205.828H125.216V196.434H122.149C121.886 199.852 120.059 201.941 117.579 201.941C114.884 201.941 112.95 199.5 112.97 195.594C112.95 191.727 114.884 189.266 117.579 189.266ZM117.579 191.512C116.251 191.512 115.333 192.957 115.352 195.594C115.333 198.25 116.251 199.676 117.579 199.676C118.927 199.676 119.805 198.25 119.805 195.594C119.805 192.957 118.927 191.512 117.579 191.512ZM144.195 192.859V194.812H131.773V188.641H134.254V192.859H144.195ZM146.012 196.727V198.68H129.742V196.727H146.012ZM144.312 203.406V205.398H131.617V200.125H134.117V203.406H144.312ZM155.787 188.289V189.52H162.916V188.289H165.397V194.246H153.327V188.289H155.787ZM155.787 192.391H162.916V191.316H155.787V192.391ZM167.467 195.164V197.176H160.592V198.289H165.495V202.781H155.592V203.797H165.963V205.672H153.151V201.062H163.034V200.105H153.131V198.289H158.092V197.176H151.256V195.164H167.467ZM182.365 188.016V194.832H184.884V196.883H182.365V205.75H179.865V188.016H182.365ZM177.619 189.832C177.599 195.145 175.529 199.754 169.552 202.684L168.146 200.77C172.355 198.66 174.611 195.828 175.08 191.863H169.162V189.832H177.619ZM199.841 192.469V194.461H187.477V188.289H189.958V192.469H199.841ZM201.677 195.984V198.016H185.427V195.984H201.677ZM193.512 199.129C197.36 199.148 199.684 200.34 199.704 202.43C199.684 204.539 197.36 205.73 193.512 205.73C189.626 205.73 187.282 204.539 187.282 202.43C187.282 200.34 189.626 199.148 193.512 199.129ZM193.512 201.062C191.052 201.082 189.802 201.492 189.821 202.43C189.802 203.348 191.052 203.836 193.512 203.836C195.915 203.836 197.184 203.348 197.204 202.43C197.184 201.492 195.915 201.082 193.512 201.062ZM211.359 191.219V192.469H202.648V191.219H206.262V188.738H207.785V191.219H211.359ZM207.004 193.641C209.191 193.641 210.754 195.281 210.773 197.586C210.754 199.91 209.191 201.57 207.004 201.57C204.836 201.57 203.273 199.91 203.273 197.586C203.273 195.281 204.836 193.641 207.004 193.641ZM207.004 194.93C205.637 194.949 204.641 196.062 204.641 197.586C204.641 199.129 205.637 200.242 207.004 200.223C208.391 200.242 209.406 199.129 209.406 197.586C209.406 196.062 208.391 194.949 207.004 194.93ZM217.473 188.211V205.574H216.008V196.805H213.703V204.715H212.258V188.641H213.703V195.535H216.008V188.211H217.473ZM235.671 202.059V203.348H219.773V202.059H223.718V197.371C222.234 196.6 221.335 195.35 221.335 193.777C221.335 191.082 223.972 189.324 227.683 189.305C231.394 189.324 234.03 191.082 234.03 193.777C234.03 195.32 233.161 196.561 231.726 197.332V202.059H235.671ZM227.683 190.574C224.831 190.555 222.82 191.844 222.82 193.777C222.82 195.711 224.831 197.02 227.683 197.02C230.515 197.02 232.546 195.711 232.546 193.777C232.546 191.844 230.515 190.555 227.683 190.574ZM225.222 202.059H230.183V197.918C229.431 198.123 228.591 198.23 227.683 198.23C226.794 198.23 225.964 198.133 225.222 197.938V202.059ZM238.694 204.109C238.01 204.109 237.424 203.543 237.444 202.84C237.424 202.156 238.01 201.59 238.694 201.59C239.377 201.59 239.944 202.156 239.944 202.84C239.944 203.543 239.377 204.109 238.694 204.109Z" fill="#F6F6F6"/>
<path d="M57.0117 145.969L58.6914 140.402H60.7617L59.7852 145.969H57.0117ZM61.3477 145.969L63.0273 140.402H65.0977L64.1211 145.969H61.3477Z" fill="#F6F6F6"/>
<path d="M261.879 189.852L260.199 195.418H258.129L259.105 189.852H261.879ZM257.543 189.852L255.863 195.418H253.793L254.77 189.852H257.543Z" fill="#F6F6F6"/>
<path d="M57.8125 108.609V96.5898H59.3066V102.533H59.4561L64.8018 96.5898H66.7607L61.7305 102.019L66.7607 108.609H64.9346L60.8008 103.048L59.3066 104.741V108.609H57.8125ZM71.1396 108.792C68.5331 108.792 66.9228 106.949 66.9228 104.177C66.9228 101.404 68.5497 99.4785 71.0068 99.4785C72.8993 99.4785 74.8915 100.641 74.8915 103.978V104.575H68.3505C68.4169 106.484 69.5292 107.53 71.1396 107.53C72.2187 107.53 72.8993 107.065 73.2314 106.501H74.7587C74.3271 107.862 72.9989 108.792 71.1396 108.792ZM68.3671 103.363H73.4472C73.4472 101.853 72.4843 100.74 71.0068 100.74C69.4462 100.74 68.4501 101.969 68.3671 103.363ZM83.7196 99.5947L80.3827 108.609H78.9051L75.5848 99.5947H77.1454L79.6024 106.75H79.702L82.159 99.5947H83.7196ZM85.1267 108.609V99.5947H86.5545V108.609H85.1267ZM85.8406 98.1006C85.2927 98.1006 84.8445 97.6855 84.8445 97.1543C84.8445 96.623 85.2927 96.208 85.8406 96.208C86.3884 96.208 86.8533 96.623 86.8533 97.1543C86.8533 97.6855 86.3884 98.1006 85.8406 98.1006ZM90.0866 103.197V108.609H88.6589V99.5947H90.0368V101.006H90.153C90.5846 100.093 91.4147 99.4785 92.7927 99.4785C94.6188 99.4785 95.8307 100.591 95.8307 102.882V108.609H94.403V102.981C94.403 101.587 93.6393 100.757 92.361 100.757C91.0495 100.757 90.0866 101.637 90.0866 103.197ZM104.124 94.8965V110.303H102.895V94.8965H104.124ZM118.31 96.6562V106.252H111.487V96.6562H118.31ZM112.765 97.7021V105.189H117.032V97.7021H112.765ZM122.792 95.1953V109.987H121.481V95.1953H122.792ZM136.883 95.9258V96.9883C136.883 98.0923 136.883 99.4121 136.518 101.188H138.659V102.251H132.517V104.974H136.983V109.954H135.671V106.053H126.54V104.974H131.222V102.251H125.146V101.188H135.206C135.588 99.3789 135.588 98.0923 135.588 96.9883H126.856V95.9258H136.883ZM151.854 95.2119V106.003H150.559V95.2119H151.854ZM152.319 108.543V109.639H142.324V104.907H143.619V108.543H152.319ZM143.885 96.2412C146.093 96.2412 147.753 97.7354 147.753 99.8604C147.753 102.019 146.093 103.496 143.885 103.496C141.677 103.496 140.017 102.019 140.017 99.8604C140.017 97.7354 141.677 96.2412 143.885 96.2412ZM143.885 97.3867C142.391 97.3867 141.279 98.416 141.295 99.8604C141.279 101.338 142.391 102.351 143.885 102.351C145.346 102.351 146.475 101.338 146.475 99.8604C146.475 98.416 145.346 97.3867 143.885 97.3867Z" fill="#F6F6F6"/>
</svg>
