<svg width="567" height="367" viewBox="0 0 567 367" fill="none" xmlns="http://www.w3.org/2000/svg">
<path d="M0.132812 32.9297C0.132812 15.2566 14.4597 0.929688 32.1328 0.929688L534.055 0.929688C551.729 0.929688 566.055 15.2566 566.055 32.9297V366.031H32.1329C14.4597 366.031 0.132812 351.704 0.132812 334.031L0.132812 32.9297Z" fill="#353535"/>
<rect x="57.1172" y="262.996" width="159.608" height="32.2148" rx="16.1074" fill="white" stroke="white"/>
<path d="M82.6514 273.462V274.939H75.2969V273.462H78.0859V271.503H79.9121V273.462H82.6514ZM78.999 275.736C80.9082 275.736 82.2695 277.181 82.2695 279.223C82.2695 281.298 80.9082 282.759 78.999 282.759C77.1064 282.759 75.7119 281.298 75.7285 279.223C75.7119 277.181 77.1064 275.736 78.999 275.736ZM78.999 277.264C78.0195 277.264 77.3389 278.044 77.3555 279.223C77.3389 280.435 78.0195 281.198 78.999 281.182C79.9619 281.198 80.6426 280.435 80.6426 279.223C80.6426 278.044 79.9619 277.264 78.999 277.264ZM88.2295 271.071V286.079H86.4697V278.741H85.0088V285.398H83.2822V271.387H85.0088V277.247H86.4697V271.071H88.2295ZM94.7167 272.001C97.0907 272.001 98.8339 273.495 98.8505 275.62C98.8339 277.471 97.5307 278.824 95.6464 279.156V281.348C96.9828 281.281 98.3359 281.165 99.6142 280.982L99.7636 282.311C96.3935 282.941 92.7909 282.975 90.1513 282.975L89.9189 281.464C91.0644 281.464 92.4008 281.464 93.8036 281.414V279.156C91.9194 278.833 90.5995 277.471 90.5995 275.62C90.5995 273.495 92.3593 272.001 94.7167 272.001ZM94.7167 273.595C93.4052 273.595 92.4257 274.358 92.4257 275.62C92.4257 276.865 93.4052 277.662 94.7167 277.662C96.0448 277.662 97.0409 276.865 97.0409 275.62C97.0409 274.358 96.0448 273.595 94.7167 273.595ZM102.353 271.071V286.096H100.511V271.071H102.353ZM113.701 273.728C113.701 275.72 114.896 277.662 117.22 278.459L116.208 279.903C114.589 279.289 113.427 278.119 112.804 276.649C112.149 278.293 110.928 279.596 109.169 280.252L108.189 278.791C110.596 277.978 111.825 275.902 111.842 273.711V272.001H113.701V273.728ZM120.806 271.088V282.228H118.964V275.902H115.975V274.392H118.964V271.088H120.806ZM121.138 284.286V285.78H110.912V281.016H112.788V284.286H121.138ZM136.441 277.164V278.625H130.498V279.754H134.731V283.439H126.198V284.535H135.146V285.946H124.388V282.111H132.922V281.148H124.372V279.754H128.655V278.625H122.761V277.164H136.441ZM134.681 271.536V276.218H124.488V271.536H134.681ZM126.298 272.98V274.773H132.839V272.98H126.298ZM149.038 271.071V277.048H151.345V278.575H149.038V286.079H147.212V271.071H149.038ZM146.049 273.379V274.856H137.201V273.379H140.754V271.287H142.596V273.379H146.049ZM141.683 275.836C143.841 275.836 145.452 277.297 145.452 279.372C145.452 281.447 143.841 282.892 141.683 282.892C139.492 282.892 137.881 281.447 137.898 279.372C137.881 277.297 139.492 275.836 141.683 275.836ZM141.683 277.347C140.504 277.347 139.658 278.144 139.658 279.372C139.658 280.601 140.504 281.381 141.683 281.364C142.829 281.381 143.675 280.601 143.692 279.372C143.675 278.144 142.829 277.347 141.683 277.347ZM164.34 271.071V286.079H162.481V271.071H164.34ZM159.858 272.665C159.858 277.131 158.131 280.933 152.869 283.423L151.906 281.945C155.832 280.078 157.658 277.538 157.982 274.126H152.669V272.665H159.858ZM182.727 271.071V286.079H180.868V271.071H182.727ZM178.244 272.665C178.244 277.131 176.518 280.933 171.255 283.423L170.292 281.945C174.219 280.078 176.045 277.538 176.369 274.126H171.056V272.665H178.244ZM196.851 274.973V276.467H186.491V271.337H188.334V274.973H196.851ZM198.411 277.911V279.405H184.715V277.911H198.411ZM191.538 280.484C194.776 280.501 196.718 281.497 196.735 283.257C196.718 285.017 194.776 286.013 191.538 286.013C188.268 286.013 186.309 285.017 186.309 283.257C186.309 281.497 188.268 280.501 191.538 280.484ZM191.538 281.929C189.347 281.945 188.168 282.36 188.185 283.257C188.168 284.12 189.347 284.602 191.538 284.602C193.68 284.602 194.875 284.12 194.892 283.257C194.875 282.36 193.68 281.945 191.538 281.929Z" fill="#121212"/>
<rect x="57.1172" y="217.957" width="304.382" height="32.2148" rx="16.1074" fill="white" stroke="white"/>
<path d="M87.167 226.049V230.764H89.2588V232.291H87.167V237.255H85.3242V226.049H87.167ZM84.2451 227.709V229.187H75.3467V227.709H78.8828V226.032H80.7256V227.709H84.2451ZM79.7959 229.801C81.9541 229.801 83.4482 230.946 83.4648 232.673C83.4482 234.383 81.9541 235.512 79.7959 235.512C77.6211 235.512 76.1104 234.383 76.1104 232.673C76.1104 230.946 77.6211 229.801 79.7959 229.801ZM79.7959 231.229C78.6504 231.229 77.9033 231.76 77.9033 232.673C77.9033 233.569 78.6504 234.101 79.7959 234.084C80.9414 234.101 81.7051 233.569 81.7051 232.673C81.7051 231.76 80.9414 231.229 79.7959 231.229ZM87.7646 239.247V240.741H77.5547V236.375H79.3975V239.247H87.7646ZM103.532 233.586V235.063H89.8525V233.586H95.746V232.142H91.6288V226.397H93.455V227.892H99.9296V226.397H101.756V232.142H97.6054V233.586H103.532ZM101.855 236.259V241.04H100.013V237.72H91.3632V236.259H101.855ZM93.455 230.664H99.9296V229.27H93.455V230.664ZM115.992 228.091C115.992 230.415 118.266 232.739 121.404 233.287L120.574 234.831C118.059 234.3 116 232.781 115.029 230.764C114.033 232.764 111.974 234.292 109.468 234.831L108.654 233.287C111.759 232.723 114.016 230.398 114.033 228.091V226.979H115.992V228.091ZM121.952 237.604V239.131H108.239V237.604H121.952ZM130.465 227.327V228.838H125.252V231.511H130.199V232.972H125.252V236.06C127.559 236.043 129.361 235.96 131.461 235.611L131.627 237.105C129.319 237.471 127.31 237.554 124.621 237.554H123.376V227.327H130.465ZM134.515 226.032V231.843H136.823V233.387H134.515V241.04H132.673V226.032H134.515ZM141.534 226.514C143.808 226.514 145.502 227.925 145.518 229.9C145.502 231.893 143.808 233.287 141.534 233.287C139.243 233.287 137.549 231.893 137.549 229.9C137.549 227.925 139.243 226.514 141.534 226.514ZM141.534 228.041C140.272 228.041 139.342 228.755 139.342 229.9C139.342 231.062 140.272 231.793 141.534 231.793C142.796 231.793 143.725 231.062 143.725 229.9C143.725 228.755 142.796 228.041 141.534 228.041ZM149.785 226.032V233.619H147.925V226.032H149.785ZM149.785 234.267V238.185H141.667V239.396H150.233V240.857H139.857V236.823H147.942V235.711H139.824V234.267H149.785ZM164.755 226.032V241.04H162.979V226.032H164.755ZM161.668 226.298V240.31H159.908V233.171H158.48C158.306 236.093 157.052 237.902 155.193 237.886C153.234 237.902 151.956 235.827 151.956 232.523C151.956 229.22 153.234 227.178 155.193 227.178C157.011 227.178 158.248 228.871 158.463 231.677H159.908V226.298H161.668ZM155.193 228.921C154.247 228.904 153.649 230.183 153.666 232.523C153.649 234.864 154.247 236.143 155.193 236.126C156.189 236.143 156.787 234.864 156.787 232.523C156.787 230.183 156.189 228.904 155.193 228.921ZM182.229 225.999V231.743H184.171V233.287H182.229V241.04H180.386V225.999H182.229ZM174.41 227.56V229.054H172.384V235.728C173.057 235.694 173.745 235.628 174.526 235.479L174.675 236.989C173.38 237.238 172.368 237.271 171.272 237.271H170.541V227.56H174.41ZM179.257 227.56V229.054H177.033V235.728C178.045 235.711 178.759 235.636 179.556 235.445L179.705 236.956C178.593 237.238 177.68 237.271 175.987 237.271H175.223V227.56H179.257ZM198.411 234.217V235.694H184.699V234.217H198.411ZM197.05 239.247V240.741H186.458V236.641H188.318V239.247H197.05ZM196.718 226.431V230.432H188.268V231.71H197.017V233.104H186.442V229.104H194.875V227.875H186.392V226.431H196.718ZM214.939 226.049V230.764H217.03V232.291H214.939V237.255H213.096V226.049H214.939ZM212.017 227.709V229.187H203.118V227.709H206.654V226.032H208.497V227.709H212.017ZM207.567 229.801C209.726 229.801 211.22 230.946 211.236 232.673C211.22 234.383 209.726 235.512 207.567 235.512C205.393 235.512 203.882 234.383 203.882 232.673C203.882 230.946 205.393 229.801 207.567 229.801ZM207.567 231.229C206.422 231.229 205.675 231.76 205.675 232.673C205.675 233.569 206.422 234.101 207.567 234.084C208.713 234.101 209.477 233.569 209.477 232.673C209.477 231.76 208.713 231.229 207.567 231.229ZM215.536 239.247V240.741H205.326V236.375H207.169V239.247H215.536ZM231.304 233.586V235.063H217.624V233.586H223.518V232.142H219.4V226.397H221.227V227.892H227.701V226.397H229.527V232.142H225.377V233.586H231.304ZM229.627 236.259V241.04H227.784V237.72H219.135V236.259H229.627ZM221.227 230.664H227.701V229.27H221.227V230.664ZM248.927 226.032V241.04H247.167V233.387H245.474V240.276H243.78V226.314H245.474V231.909H247.167V226.032H248.927ZM242.087 227.809V229.303H238.335V235.977C239.97 235.96 241.315 235.877 242.834 235.595L242.967 237.105C241.157 237.471 239.58 237.521 237.488 237.537H236.475V227.809H242.087ZM254.634 227.128C255.995 227.128 257.116 227.883 257.788 229.203H261.291V226.032H263.117V241.057H261.291V235.379H257.921C257.273 236.873 256.086 237.736 254.634 237.736C252.376 237.736 250.782 235.694 250.782 232.424C250.782 229.187 252.376 227.128 254.634 227.128ZM254.634 228.788C253.388 228.788 252.542 230.133 252.558 232.424C252.542 234.731 253.388 236.076 254.634 236.076C255.879 236.076 256.709 234.731 256.725 232.424C256.709 230.133 255.879 228.788 254.634 228.788ZM258.303 230.714C258.41 231.237 258.469 231.81 258.469 232.424C258.469 232.947 258.427 233.428 258.352 233.885H261.291V230.714H258.303ZM277.623 226.032V234.748H275.78V231.112H273.19V229.602H275.78V226.032H277.623ZM277.623 235.396V240.857H267.645V235.396H277.623ZM269.488 236.856V239.363H275.813V236.856H269.488ZM270.567 228.506C270.567 230.315 271.779 232.158 274.103 232.955L273.174 234.416C271.497 233.843 270.31 232.706 269.654 231.295C268.99 232.855 267.737 234.109 265.968 234.698L265.022 233.254C267.413 232.457 268.691 230.481 268.691 228.489V228.373H265.57V226.879H273.672V228.373H270.567V228.506ZM297.122 235.047V236.558H291.178V241.057H289.352V236.558H283.442V235.047H297.122ZM295.843 227.809V229.27H291.211C291.386 230.755 293.336 232.308 296.341 232.673L295.661 234.134C293.179 233.818 291.253 232.723 290.282 231.278C289.294 232.739 287.352 233.818 284.853 234.134L284.189 232.673C287.186 232.308 289.153 230.78 289.336 229.27H284.704V227.809H289.352V226.049H291.178V227.809H295.843ZM303.36 229.585C303.36 231.378 304.605 233.104 306.979 233.835L306.083 235.279C304.381 234.765 303.152 233.677 302.463 232.291C301.799 233.785 300.562 234.964 298.811 235.528L297.915 234.084C300.272 233.337 301.517 231.511 301.517 229.585V229.353H298.379V227.892H301.517V226.132H303.376V227.892H306.498V229.353H303.36V229.585ZM310.532 226.049V237.188H308.689V231.992H305.999V230.515H308.689V226.049H310.532ZM310.914 239.247V240.741H300.687V236.226H302.53V239.247H310.914ZM328.885 226.032V241.04H327.026V226.032H328.885ZM324.403 227.626C324.403 232.092 322.676 235.894 317.413 238.384L316.451 236.906C320.377 235.039 322.203 232.499 322.527 229.087H317.214V227.626H324.403ZM343.009 229.934V231.428H332.65V226.298H334.492V229.934H343.009ZM344.57 232.872V234.366H330.873V232.872H344.57ZM337.697 235.445C340.934 235.462 342.876 236.458 342.893 238.218C342.876 239.978 340.934 240.974 337.697 240.974C334.426 240.974 332.467 239.978 332.467 238.218C332.467 236.458 334.426 235.462 337.697 235.445ZM337.697 236.89C335.505 236.906 334.326 237.321 334.343 238.218C334.326 239.081 335.505 239.562 337.697 239.562C339.838 239.562 341.033 239.081 341.05 238.218C341.033 237.321 339.838 236.906 337.697 236.89Z" fill="#121212"/>
<path d="M59.9375 145.484V159.625H58.1797V145.484H59.9375ZM67.682 159.625V145.484H69.4398V158.062H76.0023V159.625H67.682ZM89.5328 152.555C89.5328 157.027 86.8961 159.82 83.2828 159.82C79.65 159.82 77.0328 157.027 77.0328 152.555C77.0328 148.082 79.65 145.289 83.2828 145.289C86.8961 145.289 89.5328 148.082 89.5328 152.555ZM87.8336 152.555C87.8336 148.902 85.8414 146.93 83.2828 146.93C80.7242 146.93 78.732 148.902 78.732 152.555C78.732 156.207 80.7242 158.18 83.2828 158.18C85.8414 158.18 87.8336 156.207 87.8336 152.555ZM91.8719 145.484L96.032 157.34H96.1883L100.368 145.484H102.223L97.0477 159.625H95.1922L90.0164 145.484H91.8719ZM103.938 159.625V145.484H112.512V147.047H105.695V151.773H112.062V153.316H105.695V158.062H112.609V159.625H103.938ZM132.62 143.863V149.586H135.237V150.875H132.62V156.871H131.096V143.863H132.62ZM129.436 145.992V147.242H119.084V145.992H123.498V143.863H125.022V145.992H129.436ZM124.26 148.199C126.741 148.199 128.42 149.469 128.44 151.441C128.42 153.395 126.741 154.645 124.26 154.645C121.76 154.645 120.061 153.395 120.08 151.441C120.061 149.469 121.76 148.199 124.26 148.199ZM124.26 149.41C122.62 149.41 121.526 150.211 121.545 151.441C121.526 152.672 122.62 153.453 124.26 153.434C125.881 153.453 126.975 152.672 126.995 151.441C126.975 150.211 125.881 149.41 124.26 149.41ZM133.42 159.547V160.836H121.76V155.836H123.264V159.547H133.42ZM152.009 154.215V155.445H147.83V161.207H146.306V155.445H141.814V161.207H140.271V155.445H136.111V154.215H152.009ZM150.076 144.527V148.98H139.607V151.148H150.447V152.418H138.064V147.789H148.513V145.797H138.025V144.527H150.076ZM156.028 145.484L155.891 155.641H154.251L154.114 145.484H156.028ZM155.071 159.742C154.387 159.742 153.802 159.176 153.821 158.473C153.802 157.789 154.387 157.223 155.071 157.223C155.755 157.223 156.321 157.789 156.321 158.473C156.321 159.176 155.755 159.742 155.071 159.742ZM177.288 151.871V153.863H164.71V145.133H177.152V147.145H167.171V151.871H177.288ZM179.066 157.203V159.254H162.796V157.203H179.066ZM193.905 143.648V150.367H196.522V152.418H193.905V161.461H191.444V143.648H193.905ZM188.827 145.133V152.027H183.104V155.25C185.692 155.24 187.83 155.123 190.194 154.723L190.409 156.715C187.694 157.203 185.252 157.32 182.127 157.32H180.623V150.055H186.346V147.145H180.604V145.133H188.827ZM206.068 145.328V157.086H197.533V145.328H206.068ZM199.994 147.281V155.113H203.587V147.281H199.994ZM210.99 143.648V150.348H213.607V152.418H210.99V161.422H208.49V143.648H210.99ZM234.672 152.301V154.293H218.461V152.301H225.316V149.938H227.777V152.301H234.672ZM227.816 144.527C227.816 146.598 229.809 148.57 233.812 149.059L232.855 150.992C229.857 150.543 227.65 149.283 226.527 147.496C225.385 149.283 223.178 150.553 220.18 150.992L219.301 149.059C223.227 148.57 225.277 146.539 225.277 144.527V143.941H227.816V144.527ZM232.699 155.543V161.422H230.219V157.477H220.258V155.543H232.699ZM254.057 143.668V149.117H256.459V151.148H254.057V156.93H251.557V143.668H254.057ZM250.502 145.523V147.496H239.955V145.523H243.998V143.629H246.479V145.523H250.502ZM245.229 148.121C247.807 148.121 249.604 149.508 249.604 151.559C249.604 153.609 247.807 154.957 245.229 154.957C242.631 154.957 240.815 153.609 240.815 151.559C240.815 149.508 242.631 148.121 245.229 148.121ZM245.229 150.016C244.038 150.035 243.237 150.582 243.256 151.559C243.237 152.535 244.038 153.062 245.229 153.062C246.42 153.062 247.241 152.535 247.241 151.559C247.241 150.582 246.42 150.035 245.229 150.016ZM254.702 159.117V161.109H242.534V155.914H245.014V159.117H254.702ZM273.252 152.457V154.469H257.041V152.457H263.877V150.953H259.111V144.078H261.572V145.699H268.701V144.078H271.181V150.953H266.377V152.457H273.252ZM271.279 155.68V161.422H268.798V157.652H258.837V155.68H271.279ZM261.572 149H268.701V147.535H261.572V149ZM282.212 144.156C286.079 144.156 288.345 145.211 288.345 147.145C288.345 149.117 286.079 150.172 282.212 150.191C278.345 150.172 276.059 149.117 276.059 147.145C276.059 145.211 278.345 144.156 282.212 144.156ZM282.212 145.309C279.321 145.309 277.641 146.012 277.661 147.145C277.641 148.355 279.321 149.02 282.212 149.02C285.083 149.02 286.782 148.355 286.782 147.145C286.782 146.012 285.083 145.309 282.212 145.309ZM290.122 151.363V152.613H274.302V151.363H290.122ZM288.091 154.117V158.004H277.778V159.801H288.618V161.012H276.255V156.871H286.587V155.289H276.216V154.117H288.091ZM310.542 143.844V153.16H309.019V143.844H310.542ZM300.816 154.039V156.148H309.019V154.039H310.542V160.973H299.292V154.039H300.816ZM300.816 159.723H309.019V157.379H300.816V159.723ZM301.167 144.703C303.804 144.684 305.718 146.305 305.718 148.688C305.718 151.051 303.804 152.672 301.167 152.672C298.53 152.672 296.616 151.051 296.616 148.688C296.616 146.305 298.53 144.684 301.167 144.703ZM301.167 145.992C299.39 145.973 298.101 147.105 298.12 148.688C298.101 150.27 299.39 151.402 301.167 151.402C302.925 151.402 304.214 150.27 304.214 148.688C304.214 147.105 302.925 145.973 301.167 145.992ZM327.217 145.602V147.34C327.198 149.469 327.198 151.852 326.573 155.348L325.01 155.172C325.674 151.852 325.674 149.41 325.674 147.34V146.871H314.971V145.602H327.217ZM329.112 157.477V158.746H313.291V157.477H319.502V151.266H321.006V157.477H329.112ZM349.532 143.863V153.512H348.009V143.863H349.532ZM341.348 146.207C341.329 148.609 343.204 150.777 345.782 151.617L345.04 152.828C342.989 152.135 341.368 150.689 340.587 148.805C339.805 150.826 338.165 152.408 336.095 153.141L335.313 151.93C337.93 151.012 339.786 148.727 339.786 146.207V144.508H341.348V146.207ZM349.649 154.547V155.797H347.247V159.723H349.825V160.973H337.813V159.723H340.411V155.797H337.97V154.547H349.649ZM341.915 159.723H345.723V155.797H341.915V159.723ZM366.207 145.602V147.34C366.188 149.469 366.188 151.852 365.562 155.348L364 155.172C364.664 151.852 364.664 149.41 364.664 147.34V146.871H353.961V145.602H366.207ZM368.102 157.477V158.746H352.281V157.477H358.492V151.266H359.996V157.477H368.102ZM372.218 158.316L370.695 163.629H369.249L370.323 158.316H372.218ZM393.869 143.648V161.422H391.349V143.648H393.869ZM388.537 145.504C388.537 150.895 386.642 155.367 380.295 158.375L378.986 156.383C383.576 154.215 385.597 151.402 385.998 147.457H379.943V145.504H388.537ZM399.548 144.41V151.578C401.696 151.549 403.61 151.441 405.7 151.109L405.954 153.062C403.434 153.512 401.188 153.629 398.454 153.609H397.028V144.41H399.548ZM410.993 143.648V154.039H408.513V150.25H404.157V148.375H408.513V147.145H404.157V145.289H408.513V143.648H410.993ZM410.993 154.762V161.227H399.157V154.762H410.993ZM401.598 156.734V159.234H408.532V156.734H401.598ZM429.309 151.969V153.941H422.434V155.465H427.375V161.227H414.973V155.465H419.953V153.941H413.098V151.969H429.309ZM427.863 144.137V146.129H425.539V148.844H427.746V150.836H414.641V148.844H416.828V146.129H414.523V144.137H427.863ZM417.434 157.398V159.234H424.934V157.398H417.434ZM419.328 148.844H423.039V146.129H419.328V148.844ZM438.269 144.156C442.136 144.156 444.402 145.211 444.402 147.145C444.402 149.117 442.136 150.172 438.269 150.191C434.402 150.172 432.116 149.117 432.116 147.145C432.116 145.211 434.402 144.156 438.269 144.156ZM438.269 145.309C435.378 145.309 433.698 146.012 433.718 147.145C433.698 148.355 435.378 149.02 438.269 149.02C441.14 149.02 442.839 148.355 442.839 147.145C442.839 146.012 441.14 145.309 438.269 145.309ZM446.179 151.363V152.613H430.359V151.363H446.179ZM444.148 154.117V158.004H433.835V159.801H444.675V161.012H432.312V156.871H442.644V155.289H432.273V154.117H444.148ZM70.7578 173.844V180.914H73.5703V182.203H70.7578V191.207H69.2344V173.844H70.7578ZM66.2656 175.719C66.2656 180.641 63.9609 185.113 58.2969 187.906L57.4375 186.695C61.9297 184.459 64.3711 181.119 64.7227 177.008H58.2383V175.719H66.2656ZM88.8 173.844V191.207H87.257V183.727H83.7023V182.438H87.257V180.035H83.7023V178.746H87.257V173.844H88.8ZM80.4211 179C80.4211 181.715 82.4914 184.996 84.9719 186.246L84.0539 187.418C82.1594 186.432 80.4895 184.283 79.6984 181.891C78.9172 184.518 77.218 186.783 75.3039 187.848L74.2883 186.676C76.7687 185.445 78.8586 182.105 78.8781 179V176.91H74.9133V175.641H84.3859V176.91H80.4211V179ZM104.928 173.844V180.914H107.741V182.203H104.928V191.207H103.405V173.844H104.928ZM100.436 175.719C100.436 180.641 98.1312 185.113 92.4672 187.906L91.6078 186.695C96.1 184.459 98.5414 181.119 98.893 177.008H92.4086V175.719H100.436ZM122.502 175.602V177.34C122.482 179.469 122.482 181.852 121.857 185.348L120.295 185.172C120.959 181.852 120.959 179.41 120.959 177.34V176.871H110.255V175.602H122.502ZM124.396 187.477V188.746H108.576V187.477H114.787V181.266H116.291V187.477H124.396ZM144.816 173.863V183.512H143.293V173.863H144.816ZM136.633 176.207C136.613 178.609 138.488 180.777 141.066 181.617L140.324 182.828C138.273 182.135 136.652 180.689 135.871 178.805C135.09 180.826 133.449 182.408 131.379 183.141L130.598 181.93C133.215 181.012 135.07 178.727 135.07 176.207V174.508H136.633V176.207ZM144.934 184.547V185.797H142.531V189.723H145.109V190.973H133.098V189.723H135.695V185.797H133.254V184.547H144.934ZM137.199 189.723H141.008V185.797H137.199V189.723ZM163.386 183.004V184.254H147.566V183.004H163.386ZM161.628 189.547V190.836H149.616V185.777H151.159V189.547H161.628ZM155.476 174.469C159.206 174.449 161.609 175.738 161.609 177.906C161.609 180.074 159.206 181.363 155.476 181.363C151.706 181.363 149.323 180.074 149.323 177.906C149.323 175.738 151.706 174.449 155.476 174.469ZM155.476 175.699C152.683 175.699 150.886 176.539 150.905 177.906C150.886 179.273 152.683 180.113 155.476 180.113C158.249 180.113 160.046 179.273 160.046 177.906C160.046 176.539 158.249 175.699 155.476 175.699ZM179.514 173.844V191.207H178.03V173.844H179.514ZM175.959 174.273V190.309H174.495V181.773H170.705V180.484H174.495V174.273H175.959ZM171.877 175.992V177.262H166.819V185.738C169.319 185.729 170.901 185.621 172.776 185.211L172.932 186.52C170.92 186.93 169.221 187.008 166.428 187.027H165.334V175.992H171.877ZM190.501 175.309C192.766 175.309 194.231 177.652 194.251 181.344C194.231 185.035 192.766 187.379 190.501 187.379C188.235 187.379 186.77 185.035 186.77 181.344C186.77 177.652 188.235 175.309 190.501 175.309ZM190.501 176.754C189.095 176.754 188.196 178.512 188.216 181.344C188.196 184.156 189.095 185.934 190.501 185.914C191.907 185.934 192.805 184.156 192.805 181.344C192.805 178.512 191.907 176.754 190.501 176.754ZM201.438 173.844V191.207H199.954V182.008H197.532V190.328H196.067V174.215H197.532V180.738H199.954V173.844H201.438ZM218.523 173.844V191.207H217.039V182.008H214.617V190.328H213.152V174.215H214.617V180.738H217.039V173.844H218.523ZM210.926 175.875V186.539H204.285V175.875H210.926ZM205.73 177.105V185.309H209.48V177.105H205.73ZM229.398 176.852V178.102H220.687V176.852H224.3V174.371H225.823V176.852H229.398ZM225.042 179.273C227.23 179.273 228.792 180.914 228.812 183.219C228.792 185.543 227.23 187.203 225.042 187.203C222.874 187.203 221.312 185.543 221.312 183.219C221.312 180.914 222.874 179.273 225.042 179.273ZM225.042 180.562C223.675 180.582 222.679 181.695 222.679 183.219C222.679 184.762 223.675 185.875 225.042 185.855C226.429 185.875 227.445 184.762 227.445 183.219C227.445 181.695 226.429 180.582 225.042 180.562ZM235.511 173.844V191.207H234.046V182.438H231.741V190.348H230.296V174.273H231.741V181.168H234.046V173.844H235.511ZM253.709 187.691V188.98H237.811V187.691H241.756V183.004C240.272 182.232 239.373 180.982 239.373 179.41C239.373 176.715 242.01 174.957 245.721 174.938C249.432 174.957 252.069 176.715 252.069 179.41C252.069 180.953 251.2 182.193 249.764 182.965V187.691H253.709ZM245.721 176.207C242.87 176.188 240.858 177.477 240.858 179.41C240.858 181.344 242.87 182.652 245.721 182.652C248.553 182.652 250.584 181.344 250.584 179.41C250.584 177.477 248.553 176.188 245.721 176.207ZM243.26 187.691H248.221V183.551C247.469 183.756 246.629 183.863 245.721 183.863C244.832 183.863 244.002 183.766 243.26 183.57V187.691ZM256.732 189.742C256.048 189.742 255.462 189.176 255.482 188.473C255.462 187.789 256.048 187.223 256.732 187.223C257.416 187.223 257.982 187.789 257.982 188.473C257.982 189.176 257.416 189.742 256.732 189.742Z" fill="#F6F6F6"/>
<path d="M57.1445 131.605L58.8242 126.039H60.8945L59.918 131.605H57.1445ZM61.4805 131.605L63.1602 126.039H65.2305L64.2539 131.605H61.4805Z" fill="#F6F6F6"/>
<path d="M276.062 175.484L274.383 181.051H272.312L273.289 175.484H276.062ZM271.727 175.484L270.047 181.051H267.977L268.953 175.484H271.727Z" fill="#F6F6F6"/>
<path d="M57.9453 94.25V82.2305H65.2334V83.5586H59.4395V87.5762H64.8516V88.8877H59.4395V92.9219H65.3164V94.25H57.9453ZM67.2382 94.25V85.2354H68.6161V86.6465H68.7323C69.1142 85.6836 69.9775 85.1191 71.1562 85.1191C72.3349 85.1191 73.1318 85.6836 73.5634 86.6465H73.663C74.1279 85.7168 75.0741 85.1191 76.3691 85.1191C77.9794 85.1191 79.1249 86.0986 79.1249 88.2236V94.25H77.6972V88.2402C77.6972 86.9121 76.8505 86.3975 75.871 86.3975C74.6093 86.3975 73.8954 87.2441 73.8954 88.3896V94.25H72.4511V88.0908C72.4511 87.0781 71.7206 86.3975 70.6913 86.3975C69.6122 86.3975 68.6659 87.3105 68.6659 88.6221V94.25H67.2382ZM81.2459 94.25V85.2354H82.6737V94.25H81.2459ZM81.9598 83.7412C81.412 83.7412 80.9637 83.3262 80.9637 82.7949C80.9637 82.2637 81.412 81.8486 81.9598 81.8486C82.5077 81.8486 82.9725 82.2637 82.9725 82.7949C82.9725 83.3262 82.5077 83.7412 81.9598 83.7412ZM86.2058 82.2305V94.25H84.7781V82.2305H86.2058ZM89.2233 97.6367C88.9079 97.6367 88.6091 97.6201 88.4264 97.6035V96.3252C88.5759 96.3418 88.9079 96.3584 89.1237 96.3584C89.7048 96.3584 90.1862 96.3086 90.6677 94.9971L90.9333 94.3164L87.5964 85.2354H89.1569L91.6139 92.3906H91.7136L94.1706 85.2354H95.7311L91.9128 95.5449C91.3815 96.9561 90.5016 97.6367 89.2233 97.6367ZM103.31 80.5371V95.9434H102.082V80.5371H103.31ZM113.877 81.7324C115.122 81.7241 116.185 82.189 116.866 82.9775H120.734V80.8359H122.045V89.585H120.734V87.4766H116.882C116.185 88.2651 115.122 88.73 113.877 88.7217C111.669 88.7383 110.042 87.2939 110.042 85.2354C110.042 83.1602 111.669 81.7158 113.877 81.7324ZM113.877 82.8613C112.367 82.8447 111.287 83.8408 111.287 85.2354C111.287 86.6133 112.367 87.6094 113.877 87.6094C115.338 87.6094 116.434 86.6133 116.434 85.2354C116.434 83.8408 115.338 82.8447 113.877 82.8613ZM117.148 89.9336C120.202 89.9336 122.095 90.9629 122.095 92.7393C122.095 94.5322 120.202 95.5615 117.148 95.5615C114.077 95.5615 112.201 94.5322 112.201 92.7393C112.201 90.9629 114.077 89.9336 117.148 89.9336ZM117.148 90.9463C114.89 90.9463 113.479 91.627 113.479 92.7393C113.479 93.8516 114.89 94.5156 117.148 94.5156C119.422 94.5156 120.817 93.8516 120.817 92.7393C120.817 91.627 119.422 90.9463 117.148 90.9463ZM117.496 84.04C117.621 84.4053 117.696 84.8037 117.696 85.2354C117.696 85.6504 117.621 86.0405 117.496 86.3975H120.734V84.04H117.496ZM136.07 81.5664V82.6289C136.07 83.7329 136.07 85.0527 135.704 86.8291H137.846V87.8916H131.703V90.6143H136.169V95.5947H134.858V91.6934H125.727V90.6143H130.408V87.8916H124.332V86.8291H134.393C134.775 85.0195 134.775 83.7329 134.775 82.6289H126.042V81.5664H136.07Z" fill="#F6F6F6"/>
</svg>
