<svg width="593" height="309" viewBox="0 0 593 309" fill="none" xmlns="http://www.w3.org/2000/svg">
<g filter="url(#filter0_d_1066_3114)">
<rect x="9.83594" y="9.59375" width="566.703" height="283.667" rx="31" fill="#FAFAFA"/>
</g>
<rect opacity="0.6" x="268.238" y="137.926" width="255.135" height="13.502" fill="#BBDFDD"/>
<rect opacity="0.6" x="265.754" y="170.867" width="264.322" height="13.502" fill="#BBDFDD"/>
<rect opacity="0.6" x="338.594" y="204.348" width="114.73" height="13.502" fill="#BBDFDD"/>
<rect opacity="0.6" x="333.594" y="239.348" width="161.762" height="13.502" fill="#BBDFDD"/>
<path d="M76.81 132.7V137.564H79.0347V138.66H76.81V143.757H75.5151V132.7H76.81ZM74.104 134.51V135.572H65.3052V134.51H69.0571V132.7H70.352V134.51H74.104ZM69.7046 136.386C71.813 136.386 73.2407 137.465 73.2573 139.142C73.2407 140.802 71.813 141.864 69.7046 141.864C67.5796 141.864 66.1352 140.802 66.1518 139.142C66.1352 137.465 67.5796 136.386 69.7046 136.386ZM69.7046 137.415C68.31 137.415 67.3804 138.096 67.397 139.142C67.3804 140.188 68.31 140.852 69.7046 140.835C71.0825 140.852 72.0122 140.188 72.0288 139.142C72.0122 138.096 71.0825 137.415 69.7046 137.415ZM77.4907 146.031V147.127H67.5796V142.877H68.8579V146.031H77.4907ZM93.2416 140.32V141.399H79.7943V140.32H85.8705V138.544H81.5873V133.032H82.8822V134.742H90.1869V133.032H91.4818V138.544H87.1654V140.32H93.2416ZM91.5814 142.86V147.442H90.2699V143.906H81.2885V142.86H91.5814ZM82.8822 137.498H90.1869V135.738H82.8822V137.498ZM106.486 132.684V147.476H105.174V132.684H106.486ZM98.6331 133.829C100.825 133.846 102.402 135.838 102.402 138.976C102.402 142.113 100.825 144.105 98.6331 144.105C96.4251 144.105 94.8646 142.113 94.8646 138.976C94.8646 135.838 96.4251 133.846 98.6331 133.829ZM98.6331 134.991C97.1556 135.008 96.1263 136.568 96.1263 138.976C96.1263 141.383 97.1556 142.943 98.6331 142.943C100.111 142.943 101.14 141.383 101.14 138.976C101.14 136.568 100.111 135.008 98.6331 134.991ZM116.903 133.829C118.912 133.846 120.357 135.564 120.572 138.328H123.876V132.684H125.171V147.476H123.876V139.407H120.589C120.431 142.296 118.962 144.105 116.903 144.105C114.729 144.105 113.201 142.113 113.201 138.976C113.201 135.838 114.729 133.846 116.903 133.829ZM116.903 134.991C115.443 135.008 114.446 136.568 114.446 138.976C114.446 141.383 115.443 142.943 116.903 142.943C118.348 142.943 119.361 141.383 119.361 138.976C119.361 136.568 118.348 135.008 116.903 134.991ZM139.677 132.684V147.476H138.382V141.184H135.311V140.088H138.382V137.149H135.427V136.054H138.382V132.684H139.677ZM134.464 134.028V139.274H129.317V142.91C131.534 142.902 133.368 142.819 135.609 142.479L135.726 143.574C133.368 143.939 131.476 144.022 129.118 144.022H128.023V138.212H133.186V135.107H127.973V134.028H134.464ZM148.704 132.866C151.991 132.866 153.917 133.779 153.917 135.423C153.917 137.083 151.991 137.979 148.704 137.996C145.417 137.979 143.475 137.083 143.475 135.423C143.475 133.779 145.417 132.866 148.704 132.866ZM148.704 133.862C146.247 133.879 144.819 134.443 144.836 135.423C144.819 136.436 146.247 136.983 148.704 137C151.145 136.983 152.589 136.436 152.589 135.423C152.589 134.443 151.145 133.879 148.704 133.862ZM155.428 138.976V140.021H149.335V141.416H153.701V144.72H144.936V146.247H154.149V147.276H143.641V143.757H152.423V142.412H143.607V141.416H148.04V140.021H141.98V138.976H155.428ZM165.431 133.646C167.755 133.663 169.398 135.058 169.398 137.116C169.398 138.976 168.054 140.295 166.078 140.52V143.043C167.539 142.968 169.025 142.844 170.428 142.628L170.527 143.591C167.157 144.222 163.521 144.238 160.865 144.238L160.682 143.143C161.886 143.143 163.289 143.143 164.766 143.093V140.52C162.791 140.287 161.43 138.976 161.446 137.116C161.43 135.058 163.106 133.663 165.431 133.646ZM165.431 134.792C163.853 134.792 162.708 135.738 162.724 137.116C162.708 138.494 163.853 139.457 165.431 139.44C166.991 139.457 168.12 138.494 168.12 137.116C168.12 135.738 166.991 134.792 165.431 134.792ZM172.702 132.684V147.476H171.407V132.684H172.702ZM186.859 133.414V134.477C186.859 135.581 186.859 136.9 186.494 138.677H188.636V139.739H182.493V142.462H186.959V147.442H185.647V143.541H176.516V142.462H181.198V139.739H175.122V138.677H185.182C185.564 136.867 185.564 135.581 185.564 134.477H176.832V133.414H186.859ZM201.83 132.7V143.491H200.535V132.7H201.83ZM202.295 146.031V147.127H192.3V142.396H193.595V146.031H202.295ZM193.861 133.729C196.069 133.729 197.729 135.224 197.729 137.349C197.729 139.507 196.069 140.984 193.861 140.984C191.653 140.984 189.993 139.507 189.993 137.349C189.993 135.224 191.653 133.729 193.861 133.729ZM193.861 134.875C192.367 134.875 191.255 135.904 191.271 137.349C191.255 138.826 192.367 139.839 193.861 139.839C195.322 139.839 196.451 138.826 196.451 137.349C196.451 135.904 195.322 134.875 193.861 134.875ZM217.63 138.893V139.938H204.167V138.893H217.63ZM216.02 136.618V137.681H205.96V133.198H215.871V134.244H207.271V136.618H216.02ZM215.887 141.267V144.687H207.122V146.214H216.336V147.276H205.827V143.707H214.609V142.279H205.794V141.267H215.887ZM225.413 132.949C228.7 132.949 230.626 133.846 230.626 135.489C230.626 137.166 228.7 138.062 225.413 138.079C222.126 138.062 220.183 137.166 220.183 135.489C220.183 133.846 222.126 132.949 225.413 132.949ZM225.413 133.929C222.956 133.929 221.528 134.526 221.544 135.489C221.528 136.519 222.956 137.083 225.413 137.083C227.853 137.083 229.297 136.519 229.297 135.489C229.297 134.526 227.853 133.929 225.413 133.929ZM232.136 139.075V140.138H218.689V139.075H232.136ZM230.41 141.416V144.72H221.644V146.247H230.858V147.276H220.349V143.757H229.131V142.412H220.316V141.416H230.41ZM242.172 133.414C244.38 133.397 245.957 134.609 245.957 136.419C245.957 138.212 244.38 139.457 242.172 139.44C239.964 139.457 238.387 138.212 238.387 136.419C238.387 134.609 239.964 133.397 242.172 133.414ZM242.172 134.477C240.695 134.46 239.649 135.273 239.665 136.419C239.649 137.581 240.695 138.378 242.172 138.361C243.666 138.378 244.712 137.581 244.712 136.419C244.712 135.273 243.666 134.46 242.172 134.477ZM249.477 132.7V147.459H248.199V132.7H249.477ZM237.275 140.702C240.047 140.702 243.832 140.652 247.119 140.171L247.202 141.15C245.791 141.408 244.322 141.565 242.903 141.648V146.994H241.608V141.731C240.105 141.798 238.686 141.806 237.457 141.814L237.275 140.702ZM259.201 135.24V136.303H251.797V135.24H254.868V133.132H256.163V135.24H259.201ZM255.499 137.299C257.359 137.299 258.687 138.693 258.703 140.652C258.687 142.628 257.359 144.039 255.499 144.039C253.657 144.039 252.328 142.628 252.328 140.652C252.328 138.693 253.657 137.299 255.499 137.299ZM255.499 138.395C254.337 138.411 253.491 139.357 253.491 140.652C253.491 141.964 254.337 142.91 255.499 142.894C256.678 142.91 257.541 141.964 257.541 140.652C257.541 139.357 256.678 138.411 255.499 138.395ZM264.398 132.684V147.442H263.153V139.988H261.194V146.712H259.965V133.049H261.194V138.909H263.153V132.684H264.398ZM282.934 132.584V143.939H281.074V142.628H278.136V141.333H281.074V132.584H282.934ZM283.282 145.782V147.276H272.276V142.844H274.118V145.782H283.282ZM270.283 139.324C273.056 139.308 276.775 139.274 279.962 138.876L280.062 140.204C278.825 140.412 277.547 140.553 276.276 140.636V143.524H274.434V140.735C273.031 140.793 271.694 140.802 270.516 140.802L270.283 139.324ZM275.181 133.132C277.372 133.132 278.9 134.211 278.916 135.788C278.9 137.398 277.372 138.428 275.181 138.428C272.956 138.428 271.429 137.398 271.429 135.788C271.429 134.211 272.956 133.132 275.181 133.132ZM275.181 134.493C273.985 134.493 273.172 134.975 273.172 135.788C273.172 136.602 273.985 137.083 275.181 137.083C276.326 137.083 277.14 136.602 277.156 135.788C277.14 134.975 276.326 134.493 275.181 134.493ZM296.626 132.567V138.544H298.934V140.071H296.626V147.575H294.8V132.567H296.626ZM293.638 134.875V136.353H284.789V134.875H288.342V132.783H290.185V134.875H293.638ZM289.272 137.332C291.43 137.332 293.04 138.793 293.04 140.868C293.04 142.943 291.43 144.388 289.272 144.388C287.08 144.388 285.47 142.943 285.486 140.868C285.47 138.793 287.08 137.332 289.272 137.332ZM289.272 138.843C288.093 138.843 287.246 139.64 287.246 140.868C287.246 142.097 288.093 142.877 289.272 142.86C290.417 142.877 291.264 142.097 291.28 140.868C291.264 139.64 290.417 138.843 289.272 138.843ZM311.547 136.817V138.278H301.154V133.115H302.98V136.817H311.547ZM313.091 140.021V141.482H299.378V140.021H313.091ZM311.646 145.732V147.227H301.021V142.811H302.864V145.732H311.646ZM329.618 132.584V137.299H331.71V138.826H329.618V143.79H327.775V132.584H329.618ZM326.696 134.244V135.722H317.798V134.244H321.334V132.567H323.177V134.244H326.696ZM322.247 136.336C324.405 136.336 325.899 137.481 325.916 139.208C325.899 140.918 324.405 142.047 322.247 142.047C320.072 142.047 318.561 140.918 318.561 139.208C318.561 137.481 320.072 136.336 322.247 136.336ZM322.247 137.764C321.101 137.764 320.354 138.295 320.354 139.208C320.354 140.104 321.101 140.636 322.247 140.619C323.392 140.636 324.156 140.104 324.156 139.208C324.156 138.295 323.392 137.764 322.247 137.764ZM330.216 145.782V147.276H320.006V142.91H321.848V145.782H330.216ZM345.983 140.121V141.599H332.303V140.121H338.197V138.677H334.08V132.933H335.906V134.427H342.381V132.933H344.207V138.677H340.056V140.121H345.983ZM344.306 142.794V147.575H342.464V144.255H333.814V142.794H344.306ZM335.906 137.199H342.381V135.805H335.906V137.199ZM358.443 134.626C358.443 136.95 360.717 139.274 363.855 139.822L363.025 141.366C360.51 140.835 358.451 139.316 357.48 137.299C356.484 139.299 354.425 140.827 351.919 141.366L351.105 139.822C354.21 139.258 356.467 136.934 356.484 134.626V133.514H358.443V134.626ZM364.403 144.139V145.666H350.69V144.139H364.403ZM372.916 133.862V135.373H367.703V138.046H372.65V139.507H367.703V142.595C370.01 142.578 371.812 142.495 373.912 142.146L374.078 143.641C371.77 144.006 369.761 144.089 367.072 144.089H365.827V133.862H372.916ZM376.966 132.567V138.378H379.274V139.922H376.966V147.575H375.124V132.567H376.966ZM383.985 133.049C386.259 133.049 387.953 134.46 387.969 136.436C387.953 138.428 386.259 139.822 383.985 139.822C381.694 139.822 380 138.428 380 136.436C380 134.46 381.694 133.049 383.985 133.049ZM383.985 134.576C382.723 134.576 381.793 135.29 381.793 136.436C381.793 137.598 382.723 138.328 383.985 138.328C385.246 138.328 386.176 137.598 386.176 136.436C386.176 135.29 385.246 134.576 383.985 134.576ZM392.236 132.567V140.154H390.376V132.567H392.236ZM392.236 140.802V144.72H384.118V145.932H392.684V147.393H382.308V143.358H390.393V142.246H382.275V140.802H392.236ZM407.206 132.567V147.575H405.43V132.567H407.206ZM404.118 132.833V146.845H402.359V139.706H400.931C400.757 142.628 399.503 144.438 397.644 144.421C395.685 144.438 394.407 142.362 394.407 139.059C394.407 135.755 395.685 133.713 397.644 133.713C399.462 133.713 400.699 135.406 400.914 138.212H402.359V132.833H404.118ZM397.644 135.456C396.698 135.439 396.1 136.718 396.117 139.059C396.1 141.399 396.698 142.678 397.644 142.661C398.64 142.678 399.238 141.399 399.238 139.059C399.238 136.718 398.64 135.439 397.644 135.456ZM424.68 132.534V138.278H426.622V139.822H424.68V147.575H422.837V132.534H424.68ZM416.861 134.095V135.589H414.835V142.263C415.508 142.229 416.196 142.163 416.977 142.014L417.126 143.524C415.831 143.773 414.819 143.807 413.723 143.807H412.992V134.095H416.861ZM421.708 134.095V135.589H419.484V142.263C420.496 142.246 421.21 142.171 422.007 141.98L422.156 143.491C421.044 143.773 420.131 143.807 418.438 143.807H417.674V134.095H421.708ZM440.862 140.752V142.229H427.149V140.752H440.862ZM439.501 145.782V147.276H428.909V143.176H430.769V145.782H439.501ZM439.169 132.966V136.967H430.719V138.245H439.468V139.64H428.893V135.639H437.326V134.41H428.843V132.966H439.169ZM458.469 132.567V147.575H456.709V139.922H455.016V146.812H453.322V132.85H455.016V138.444H456.709V132.567H458.469ZM451.629 134.344V135.838H447.877V142.512C449.512 142.495 450.857 142.412 452.376 142.13L452.509 143.641C450.699 144.006 449.122 144.056 447.03 144.072H446.018V134.344H451.629ZM464.176 133.663C465.537 133.663 466.658 134.418 467.33 135.738H470.833V132.567H472.659V147.592H470.833V141.914H467.463C466.815 143.408 465.628 144.271 464.176 144.271C461.918 144.271 460.324 142.229 460.324 138.959C460.324 135.722 461.918 133.663 464.176 133.663ZM464.176 135.323C462.931 135.323 462.084 136.668 462.1 138.959C462.084 141.267 462.931 142.611 464.176 142.611C465.421 142.611 466.251 141.267 466.267 138.959C466.251 136.668 465.421 135.323 464.176 135.323ZM467.845 137.249C467.953 137.772 468.011 138.345 468.011 138.959C468.011 139.482 467.969 139.963 467.894 140.42H470.833V137.249H467.845ZM487.165 132.567V141.283H485.322V137.647H482.732V136.137H485.322V132.567H487.165ZM487.165 141.931V147.393H477.187V141.931H487.165ZM479.03 143.392V145.898H485.355V143.392H479.03ZM480.109 135.041C480.109 136.851 481.321 138.693 483.645 139.49L482.716 140.951C481.039 140.378 479.852 139.241 479.196 137.83C478.532 139.391 477.279 140.644 475.51 141.233L474.564 139.789C476.955 138.992 478.233 137.017 478.233 135.024V134.908H475.112V133.414H483.214V134.908H480.109V135.041ZM506.664 141.582V143.093H500.72V147.592H498.894V143.093H492.984V141.582H506.664ZM505.385 134.344V135.805H500.754C500.928 137.291 502.879 138.843 505.883 139.208L505.203 140.669C502.721 140.354 500.795 139.258 499.824 137.813C498.836 139.274 496.894 140.354 494.395 140.669L493.731 139.208C496.728 138.843 498.695 137.315 498.878 135.805H494.246V134.344H498.894V132.584H500.72V134.344H505.385ZM512.902 136.12C512.902 137.913 514.147 139.64 516.521 140.37L515.625 141.814C513.923 141.3 512.694 140.212 512.005 138.826C511.341 140.32 510.104 141.499 508.353 142.063L507.457 140.619C509.814 139.872 511.059 138.046 511.059 136.12V135.888H507.921V134.427H511.059V132.667H512.918V134.427H516.04V135.888H512.902V136.12ZM520.074 132.584V143.724H518.231V138.527H515.542V137.05H518.231V132.584H520.074ZM520.456 145.782V147.276H510.229V142.761H512.072V145.782H520.456ZM69.4326 166.7V171.564H71.6572V172.66H69.4326V177.757H68.1377V166.7H69.4326ZM66.7266 168.51V169.572H57.9277V168.51H61.6797V166.7H62.9746V168.51H66.7266ZM62.3272 170.386C64.4356 170.386 65.8633 171.465 65.8799 173.142C65.8633 174.802 64.4356 175.864 62.3272 175.864C60.2022 175.864 58.7578 174.802 58.7744 173.142C58.7578 171.465 60.2022 170.386 62.3272 170.386ZM62.3272 171.415C60.9326 171.415 60.0029 172.096 60.0195 173.142C60.0029 174.188 60.9326 174.852 62.3272 174.835C63.7051 174.852 64.6348 174.188 64.6514 173.142C64.6348 172.096 63.7051 171.415 62.3272 171.415ZM70.1133 180.031V181.127H60.2022V176.877H61.4805V180.031H70.1133ZM85.8642 174.32V175.399H72.4169V174.32H78.4931V172.544H74.2099V167.032H75.5048V168.742H82.8095V167.032H84.1044V172.544H79.788V174.32H85.8642ZM84.204 176.86V181.442H82.8925V177.906H73.9111V176.86H84.204ZM75.5048 171.498H82.8095V169.738H75.5048V171.498ZM98.3904 171.93V174.038H104.483V175.117H91.0359V174.038H97.1121V171.93H98.3904ZM97.7595 176.329C100.93 176.329 102.823 177.226 102.84 178.869C102.823 180.513 100.93 181.409 97.7595 181.409C94.5554 181.409 92.6629 180.513 92.6629 178.869C92.6629 177.226 94.5554 176.329 97.7595 176.329ZM97.7595 177.358C95.3689 177.358 93.9744 177.906 93.991 178.869C93.9744 179.832 95.3689 180.396 97.7595 180.396C100.117 180.396 101.528 179.832 101.528 178.869C101.528 177.906 100.117 177.358 97.7595 177.358ZM103.288 167.381V168.443H98.6062C98.6892 170.087 101.163 171.357 103.736 171.631L103.255 172.66C100.839 172.37 98.573 171.315 97.7595 169.672C96.9544 171.315 94.6966 172.37 92.2644 172.66L91.783 171.631C94.3562 171.357 96.8133 170.104 96.9129 168.443H92.2644V167.381H103.288ZM119.055 175.499V176.545H115.503V181.442H114.208V176.545H110.389V181.442H109.078V176.545H105.542V175.499H119.055ZM117.412 167.265V171.05H108.513V172.893H117.727V173.972H107.202V170.037H116.084V168.344H107.169V167.265H117.412ZM133.578 173.54V174.569H120.064V173.54H133.578ZM131.884 175.748V178.886H123.019V180.297H132.366V181.243H121.708V177.989H130.589V176.728H121.691V175.748H131.884ZM131.835 167.132V170.187H123.119V171.481H132.1V172.428H121.824V169.29H130.523V168.078H121.774V167.132H131.835ZM152.213 178.454V179.55H138.7V178.454H144.776V174.852H140.293V167.929H150.537V174.852H146.054V178.454H152.213ZM141.572 168.975V173.806H149.275V168.975H141.572ZM166.719 173.54V174.569H153.205V173.54H166.719ZM165.026 175.748V178.886H156.161V180.297H165.507V181.243H154.849V177.989H163.731V176.728H154.832V175.748H165.026ZM164.976 167.132V170.187H156.26V171.481H165.242V172.428H154.965V169.29H163.664V168.078H154.915V167.132H164.976ZM176.672 167.646C178.996 167.663 180.64 169.058 180.64 171.116C180.64 172.976 179.295 174.295 177.32 174.52V177.043C178.78 176.968 180.266 176.844 181.669 176.628L181.769 177.591C178.399 178.222 174.763 178.238 172.107 178.238L171.924 177.143C173.128 177.143 174.53 177.143 176.008 177.093V174.52C174.032 174.287 172.671 172.976 172.688 171.116C172.671 169.058 174.348 167.663 176.672 167.646ZM176.672 168.792C175.095 168.792 173.949 169.738 173.966 171.116C173.949 172.494 175.095 173.457 176.672 173.44C178.233 173.457 179.362 172.494 179.362 171.116C179.362 169.738 178.233 168.792 176.672 168.792ZM183.944 166.684V181.476H182.649V166.684H183.944ZM198.101 167.414V168.477C198.101 169.581 198.101 170.9 197.735 172.677H199.877V173.739H193.735V176.462H198.2V181.442H196.889V177.541H187.758V176.462H192.44V173.739H186.363V172.677H196.424C196.806 170.867 196.806 169.581 196.806 168.477H188.073V167.414H198.101ZM213.071 166.7V177.491H211.776V166.7H213.071ZM213.536 180.031V181.127H203.542V176.396H204.837V180.031H213.536ZM205.103 167.729C207.311 167.729 208.971 169.224 208.971 171.349C208.971 173.507 207.311 174.984 205.103 174.984C202.895 174.984 201.234 173.507 201.234 171.349C201.234 169.224 202.895 167.729 205.103 167.729ZM205.103 168.875C203.608 168.875 202.496 169.904 202.513 171.349C202.496 172.826 203.608 173.839 205.103 173.839C206.564 173.839 207.692 172.826 207.692 171.349C207.692 169.904 206.564 168.875 205.103 168.875ZM228.872 172.893V173.938H215.408V172.893H228.872ZM227.262 170.618V171.681H217.201V167.198H227.112V168.244H218.513V170.618H227.262ZM227.129 175.267V178.687H218.363V180.214H227.577V181.276H217.068V177.707H225.851V176.279H217.035V175.267H227.129ZM238.891 167.414C241.099 167.397 242.677 168.609 242.677 170.419C242.677 172.212 241.099 173.457 238.891 173.44C236.683 173.457 235.106 172.212 235.106 170.419C235.106 168.609 236.683 167.397 238.891 167.414ZM238.891 168.477C237.414 168.46 236.368 169.273 236.385 170.419C236.368 171.581 237.414 172.378 238.891 172.361C240.386 172.378 241.431 171.581 241.431 170.419C241.431 169.273 240.386 168.46 238.891 168.477ZM246.196 166.7V181.459H244.918V166.7H246.196ZM233.994 174.702C236.766 174.702 240.552 174.652 243.839 174.171L243.922 175.15C242.511 175.408 241.041 175.565 239.622 175.648V180.994H238.327V175.731C236.825 175.798 235.405 175.806 234.177 175.814L233.994 174.702ZM255.921 169.24V170.303H248.516V169.24H251.588V167.132H252.883V169.24H255.921ZM252.218 171.299C254.078 171.299 255.406 172.693 255.423 174.652C255.406 176.628 254.078 178.039 252.218 178.039C250.376 178.039 249.048 176.628 249.048 174.652C249.048 172.693 250.376 171.299 252.218 171.299ZM252.218 172.395C251.056 172.411 250.21 173.357 250.21 174.652C250.21 175.964 251.056 176.91 252.218 176.894C253.397 176.91 254.26 175.964 254.26 174.652C254.26 173.357 253.397 172.411 252.218 172.395ZM261.117 166.684V181.442H259.872V173.988H257.913V180.712H256.684V167.049H257.913V172.909H259.872V166.684H261.117ZM278.906 166.584V171.299H280.998V172.826H278.906V177.79H277.063V166.584H278.906ZM275.984 168.244V169.722H267.086V168.244H270.622V166.567H272.464V168.244H275.984ZM271.535 170.336C273.693 170.336 275.187 171.481 275.204 173.208C275.187 174.918 273.693 176.047 271.535 176.047C269.36 176.047 267.849 174.918 267.849 173.208C267.849 171.481 269.36 170.336 271.535 170.336ZM271.535 171.764C270.389 171.764 269.642 172.295 269.642 173.208C269.642 174.104 270.389 174.636 271.535 174.619C272.68 174.636 273.444 174.104 273.444 173.208C273.444 172.295 272.68 171.764 271.535 171.764ZM279.503 179.782V181.276H269.294V176.91H271.136V179.782H279.503ZM295.271 174.121V175.599H281.591V174.121H287.485V172.677H283.368V166.933H285.194V168.427H291.668V166.933H293.495V172.677H289.344V174.121H295.271ZM293.594 176.794V181.575H291.751V178.255H283.102V176.794H293.594ZM285.194 171.199H291.668V169.805H285.194V171.199ZM304.497 168.128V169.19C304.497 170.535 304.497 172.411 304.082 175.001L302.256 174.852C302.613 172.577 302.655 170.9 302.671 169.605H296.778V168.128H304.497ZM300.712 172.411V176.844C302.24 176.786 303.809 176.678 305.245 176.495L305.344 177.873C302.24 178.371 298.803 178.438 296.163 178.421L295.981 176.943C296.869 176.935 297.857 176.927 298.886 176.894V172.411H300.712ZM307.884 166.567V172.677H310.059V174.237H307.884V181.575H306.025V166.567H307.884ZM326.337 166.584V171.299H328.429V172.826H326.337V177.79H324.494V166.584H326.337ZM323.415 168.244V169.722H314.517V168.244H318.053V166.567H319.896V168.244H323.415ZM318.966 170.336C321.124 170.336 322.618 171.481 322.635 173.208C322.618 174.918 321.124 176.047 318.966 176.047C316.791 176.047 315.281 174.918 315.281 173.208C315.281 171.481 316.791 170.336 318.966 170.336ZM318.966 171.764C317.821 171.764 317.073 172.295 317.073 173.208C317.073 174.104 317.821 174.636 318.966 174.619C320.112 174.636 320.875 174.104 320.875 173.208C320.875 172.295 320.112 171.764 318.966 171.764ZM326.935 179.782V181.276H316.725V176.91H318.568V179.782H326.935ZM342.719 175.433V176.877H339.415V181.575H337.556V176.877H334.186V181.575H332.343V176.877H329.006V175.433H342.719ZM341.125 167.065V171.266H332.509V172.693H341.457V174.188H330.65V169.888H339.233V168.576H330.616V167.065H341.125ZM357.241 173.374V174.769H343.528V173.374H357.241ZM355.581 175.665V179.085H346.982V180.131H356.029V181.409H345.139V177.89H353.755V176.96H345.122V175.665H355.581ZM355.548 166.899V170.286H347.098V171.266H355.814V172.527H345.272V169.091H353.705V168.178H345.222V166.899H355.548ZM374.499 166.567V174.752H372.656V171.548H370.066V170.021H372.656V166.567H374.499ZM366.447 175.383V176.943H372.656V175.383H374.499V181.393H364.604V175.383H366.447ZM366.447 179.898H372.656V178.388H366.447V179.898ZM370.548 167.331V168.842H367.443C367.46 170.643 368.672 172.502 370.979 173.274L370.05 174.702C368.373 174.121 367.186 172.992 366.53 171.581C365.866 173.15 364.621 174.412 362.845 175.018L361.898 173.557C364.272 172.751 365.551 170.809 365.567 168.842H362.446V167.331H370.548ZM388.391 167.182V172.395H384.207V173.972H390.134V175.466H376.454V173.972H382.348V172.395H378.181V167.182H388.391ZM379.974 168.626V170.934H386.564V168.626H379.974ZM388.457 176.728V181.575H386.614V178.188H377.965V176.728H388.457ZM396.654 170.17C396.637 172.926 398.082 175.682 400.522 176.728L399.427 178.205C397.7 177.408 396.43 175.814 395.741 173.855C395.052 175.972 393.765 177.699 391.939 178.554L390.81 177.01C393.317 175.931 394.778 173.059 394.778 170.17V167.779H396.654V170.17ZM403.461 166.567V181.592H401.601V166.567H403.461ZM413.169 168.045C413.169 168.925 413.111 169.788 412.986 170.618H416.223V166.567H418.066V181.559H416.223V176.146H412.488V174.669H416.223V172.112H412.687C411.915 174.91 410.131 177.333 406.445 179.234L405.432 177.823C407.923 176.537 409.475 175.042 410.363 173.258L405.764 173.689L405.499 172.112L410.944 171.78C411.143 171.075 411.268 170.328 411.326 169.539H406.279V168.045H413.169ZM436.801 166.567V181.575H435.042V166.567H436.801ZM433.747 166.85V180.845H432.003V173.291H429.845V171.797H432.003V166.85H433.747ZM428.517 170.668C428.517 173.208 429.43 175.748 431.572 176.977L430.476 178.338C429.09 177.508 428.169 176.08 427.654 174.37C427.123 176.221 426.168 177.798 424.749 178.687L423.62 177.309C425.794 175.997 426.741 173.274 426.741 170.668V169.672H424.134V168.178H430.941V169.672H428.517V170.668ZM445.164 175.947C448.418 175.964 450.477 176.993 450.494 178.77C450.477 180.513 448.418 181.559 445.164 181.559C441.927 181.559 439.852 180.513 439.852 178.77C439.852 176.993 441.927 175.964 445.164 175.947ZM445.164 177.342C443.006 177.342 441.695 177.856 441.711 178.77C441.695 179.649 443.006 180.131 445.164 180.131C447.339 180.131 448.651 179.649 448.667 178.77C448.651 177.856 447.339 177.342 445.164 177.342ZM450.394 167.281V168.526C450.394 169.705 450.394 170.967 449.979 172.511L448.153 172.345C448.526 170.884 448.551 169.83 448.551 168.742H440.001V167.281H450.394ZM452.054 173.374V174.868H438.441V173.374H443.72V170.651H445.546V173.374H452.054ZM464.684 166.567V172.544H466.992V174.071H464.684V181.575H462.858V166.567H464.684ZM461.696 168.875V170.353H452.847V168.875H456.4V166.783H458.243V168.875H461.696ZM457.329 171.332C459.488 171.332 461.098 172.793 461.098 174.868C461.098 176.943 459.488 178.388 457.329 178.388C455.138 178.388 453.528 176.943 453.544 174.868C453.528 172.793 455.138 171.332 457.329 171.332ZM457.329 172.843C456.151 172.843 455.304 173.64 455.304 174.868C455.304 176.097 456.151 176.877 457.329 176.86C458.475 176.877 459.322 176.097 459.338 174.868C459.322 173.64 458.475 172.843 457.329 172.843ZM479.605 170.817V172.278H469.212V167.115H471.038V170.817H479.605ZM481.149 174.021V175.482H467.436V174.021H481.149ZM479.704 179.732V181.227H469.079V176.811H470.922V179.732H479.704ZM498.788 166.567V181.575H497.012V173.889H495.418V180.845H493.675V166.833H495.418V172.361H497.012V166.567H498.788ZM492.197 168.194V177.707H486.304V168.194H492.197ZM488.03 169.655V176.246H490.471V169.655H488.03ZM512.929 166.567V181.575H511.086V173.938H507.915V172.428H511.086V166.567H512.929ZM507.982 168.161C507.965 172.594 506.388 176.312 501.225 178.869L500.262 177.425C504.147 175.524 505.815 172.984 506.122 169.622H500.959V168.161H507.982ZM520.578 169.622C520.578 171.481 521.856 173.308 524.247 174.055L523.301 175.499C521.599 174.943 520.362 173.822 519.682 172.395C519.001 173.947 517.731 175.184 515.946 175.798L515 174.337C517.407 173.54 518.702 171.598 518.719 169.622V169.19H515.481V167.713H523.732V169.19H520.578V169.622ZM527.385 166.584V177.475H525.525V166.584H527.385ZM527.8 179.782V181.276H517.457V176.479H519.316V179.782H527.8ZM141.25 201.646C143.574 201.663 145.218 203.058 145.218 205.116C145.218 206.976 143.873 208.295 141.897 208.52V211.043C143.358 210.968 144.844 210.844 146.247 210.628L146.347 211.591C142.977 212.222 139.341 212.238 136.685 212.238L136.502 211.143C137.706 211.143 139.108 211.143 140.586 211.093V208.52C138.61 208.287 137.249 206.976 137.266 205.116C137.249 203.058 138.926 201.663 141.25 201.646ZM141.25 202.792C139.673 202.792 138.527 203.738 138.544 205.116C138.527 206.494 139.673 207.457 141.25 207.44C142.811 207.457 143.939 206.494 143.939 205.116C143.939 203.738 142.811 202.792 141.25 202.792ZM148.521 200.684V215.476H147.227V200.684H148.521ZM162.679 201.414V202.477C162.679 203.581 162.679 204.9 162.313 206.677H164.455V207.739H158.312V210.462H162.778V215.442H161.467V211.541H152.336V210.462H157.018V207.739H150.941V206.677H161.002C161.384 204.867 161.384 203.581 161.384 202.477H152.651V201.414H162.679ZM177.649 200.7V211.491H176.354V200.7H177.649ZM178.114 214.031V215.127H168.12V210.396H169.415V214.031H178.114ZM169.681 201.729C171.889 201.729 173.549 203.224 173.549 205.349C173.549 207.507 171.889 208.984 169.681 208.984C167.473 208.984 165.812 207.507 165.812 205.349C165.812 203.224 167.473 201.729 169.681 201.729ZM169.681 202.875C168.186 202.875 167.074 203.904 167.091 205.349C167.074 206.826 168.186 207.839 169.681 207.839C171.141 207.839 172.27 206.826 172.27 205.349C172.27 203.904 171.141 202.875 169.681 202.875ZM184.817 201.763C187.141 201.763 188.785 203.174 188.785 205.232C188.785 207.291 187.141 208.702 184.817 208.702C182.493 208.702 180.816 207.291 180.833 205.232C180.816 203.174 182.493 201.763 184.817 201.763ZM184.817 202.908C183.24 202.908 182.094 203.854 182.111 205.232C182.094 206.61 183.24 207.557 184.817 207.557C186.378 207.557 187.507 206.61 187.507 205.232C187.507 203.854 186.378 202.908 184.817 202.908ZM192.089 200.684V215.476H190.794V200.684H192.089ZM180.069 211.109C182.792 211.109 186.544 211.093 189.814 210.611L189.914 211.574C186.544 212.205 182.908 212.222 180.252 212.222L180.069 211.109ZM210.027 200.684V206.527H212.501V207.623H210.027V215.476H208.732V200.684H210.027ZM206.142 202.128V203.207H200.547V210.678C203.22 210.678 205.113 210.553 207.304 210.146L207.47 211.275C205.163 211.69 203.22 211.773 200.415 211.773H199.253V202.128H206.142ZM226.857 202.925V204.004H224.666V206.062H226.857V207.158H224.666V209.449H223.371V200.684H224.666V202.925H226.857ZM217.278 201.58C219.519 201.563 221.146 202.991 221.163 205.05C221.146 207.108 219.519 208.503 217.278 208.52C215.037 208.503 213.393 207.108 213.41 205.05C213.393 202.991 215.037 201.563 217.278 201.58ZM217.278 202.692C215.784 202.676 214.671 203.655 214.688 205.05C214.671 206.444 215.784 207.407 217.278 207.424C218.789 207.407 219.884 206.444 219.884 205.05C219.884 203.655 218.789 202.676 217.278 202.692ZM219.934 209.897C222.939 209.914 224.798 210.91 224.798 212.67C224.798 214.396 222.939 215.409 219.934 215.409C216.913 215.409 215.037 214.396 215.037 212.67C215.037 210.91 216.913 209.914 219.934 209.897ZM219.934 210.96C217.71 210.96 216.332 211.591 216.348 212.67C216.332 213.732 217.71 214.363 219.934 214.363C222.175 214.363 223.537 213.732 223.537 212.67C223.537 211.591 222.175 210.96 219.934 210.96ZM239.188 200.7V205.564H241.413V206.66H239.188V211.757H237.893V200.7H239.188ZM236.482 202.51V203.572H227.683V202.51H231.435V200.7H232.73V202.51H236.482ZM232.082 204.386C234.191 204.386 235.619 205.465 235.635 207.142C235.619 208.802 234.191 209.864 232.082 209.864C229.957 209.864 228.513 208.802 228.53 207.142C228.513 205.465 229.957 204.386 232.082 204.386ZM232.082 205.415C230.688 205.415 229.758 206.096 229.775 207.142C229.758 208.188 230.688 208.852 232.082 208.835C233.46 208.852 234.39 208.188 234.407 207.142C234.39 206.096 233.46 205.415 232.082 205.415ZM239.869 214.031V215.127H229.957V210.877H231.236V214.031H239.869ZM250.585 205.232C250.585 207.606 251.797 210.03 253.806 211.109L253.059 212.089C251.59 211.292 250.527 209.765 249.988 207.988C249.456 209.881 248.402 211.524 246.933 212.421L246.153 211.425C248.161 210.263 249.34 207.673 249.357 205.232V204.502H246.551V203.423H249.357V201.231H250.602V203.423H253.358V204.502H250.585V205.232ZM258.886 200.684V215.442H257.641V200.684H258.886ZM255.898 201.049V214.679H254.669V207.623H252.345V206.511H254.669V201.049H255.898ZM269.158 202.344V203.406H260.808V202.344H264.394V200.567H265.689V202.344H269.158ZM265.025 204.17C267 204.17 268.395 205.249 268.395 206.893C268.395 208.553 267 209.632 265.025 209.632C263.032 209.632 261.671 208.553 261.688 206.893C261.671 205.249 263.032 204.17 265.025 204.17ZM265.025 205.149C263.746 205.166 262.9 205.863 262.9 206.893C262.9 207.938 263.746 208.619 265.025 208.619C266.303 208.619 267.166 207.938 267.183 206.893C267.166 205.863 266.303 205.166 265.025 205.149ZM273.027 200.684V210.229H271.715V208.188H269.142V207.108H271.715V205.315H269.158V204.236H271.715V200.684H273.027ZM268.162 210.379C271.234 210.379 273.11 211.292 273.11 212.902C273.11 214.479 271.234 215.409 268.162 215.409C265.058 215.409 263.198 214.479 263.198 212.902C263.198 211.292 265.058 210.379 268.162 210.379ZM268.162 211.392C265.921 211.392 264.543 211.939 264.543 212.902C264.543 213.832 265.921 214.396 268.162 214.396C270.37 214.396 271.732 213.832 271.732 212.902C271.732 211.939 270.37 211.392 268.162 211.392ZM282.037 200.949C285.324 200.949 287.25 201.846 287.25 203.489C287.25 205.166 285.324 206.062 282.037 206.079C278.75 206.062 276.808 205.166 276.808 203.489C276.808 201.846 278.75 200.949 282.037 200.949ZM282.037 201.929C279.58 201.929 278.152 202.526 278.169 203.489C278.152 204.519 279.58 205.083 282.037 205.083C284.478 205.083 285.922 204.519 285.922 203.489C285.922 202.526 284.478 201.929 282.037 201.929ZM288.761 207.075V208.138H275.314V207.075H288.761ZM287.034 209.416V212.72H278.269V214.247H287.483V215.276H276.974V211.757H285.756V210.412H276.941V209.416H287.034ZM305.769 202.178V203.655C305.753 205.465 305.753 207.49 305.222 210.462L303.894 210.312C304.458 207.49 304.458 205.415 304.458 203.655V203.257H295.36V202.178H305.769ZM307.38 212.271V213.351H293.933V212.271H299.212V206.992H300.49V212.271H307.38ZM320.674 200.684V215.476H319.379V209.184H316.307V208.088H319.379V205.149H316.424V204.054H319.379V200.684H320.674ZM315.461 202.028V207.274H310.314V210.91C312.531 210.902 314.365 210.819 316.606 210.479L316.723 211.574C314.365 211.939 312.473 212.022 310.115 212.022H309.019V206.212H314.182V203.107H308.97V202.028H315.461ZM334.515 200.7V205.564H336.74V206.66H334.515V211.757H333.221V200.7H334.515ZM331.809 202.51V203.572H323.011V202.51H326.763V200.7H328.057V202.51H331.809ZM327.41 204.386C329.518 204.386 330.946 205.465 330.963 207.142C330.946 208.802 329.518 209.864 327.41 209.864C325.285 209.864 323.841 208.802 323.857 207.142C323.841 205.465 325.285 204.386 327.41 204.386ZM327.41 205.415C326.015 205.415 325.086 206.096 325.102 207.142C325.086 208.188 326.015 208.852 327.41 208.835C328.788 208.852 329.718 208.188 329.734 207.142C329.718 206.096 328.788 205.415 327.41 205.415ZM335.196 214.031V215.127H325.285V210.877H326.563V214.031H335.196ZM346.809 202.958C346.809 204.851 348.038 206.627 350.345 207.357L349.349 208.802C347.731 208.254 346.568 207.158 345.929 205.764C345.265 207.357 344.053 208.611 342.327 209.217L341.331 207.772C343.755 206.926 344.95 204.934 344.966 202.792V201.364H346.809V202.958ZM353.334 200.567V204.22H355.425V205.747H353.334V209.549H351.491V200.567H353.334ZM348.453 209.881C351.557 209.864 353.466 210.927 353.483 212.703C353.466 214.513 351.557 215.559 348.453 215.559C345.315 215.559 343.373 214.513 343.373 212.703C343.373 210.927 345.315 209.864 348.453 209.881ZM348.453 211.325C346.394 211.325 345.215 211.823 345.215 212.703C345.215 213.633 346.394 214.098 348.453 214.098C350.511 214.098 351.657 213.633 351.657 212.703C351.657 211.823 350.511 211.325 348.453 211.325ZM360.701 204.502C360.701 206.926 361.547 209.449 363.573 210.728L362.56 212.139C361.207 211.325 360.327 209.922 359.837 208.271C359.29 210.088 358.327 211.624 356.916 212.487L355.77 211.109C357.945 209.781 358.924 207.142 358.924 204.585V201.896H360.701V204.502ZM368.968 200.567V215.575H367.192V200.567H368.968ZM365.847 200.833V214.845H364.104V207.258H361.962V205.73H364.104V200.833H365.847ZM386.923 200.567V208.304H385.08V200.567H386.923ZM386.923 208.935V212.803H378.722V213.981H387.405V215.442H376.896V211.458H385.097V210.379H376.863V208.935H386.923ZM383.204 201.53V202.958H381.86V206.229C382.54 206.17 383.204 206.104 383.835 206.029L383.918 207.357C380.93 207.822 377.477 207.922 374.854 207.922L374.655 206.461L376.365 206.444V202.958H375.053V201.53H383.204ZM378.141 206.411C378.788 206.395 379.444 206.37 380.1 206.328V202.958H378.141V206.411ZM401.512 200.567V215.592H399.686V207.49H396.864V205.996H399.686V200.567H401.512ZM396.631 201.862V203.373H391.468V206.062H396.034V207.523H391.468V210.611C393.751 210.603 395.461 210.528 397.395 210.213L397.577 211.707C395.386 212.039 393.477 212.122 390.787 212.139H389.609V201.862H396.631ZM415.951 200.584V209.731H414.092V200.584H415.951ZM411.137 201.48V205.88H406.057V207.49C408.63 207.482 410.448 207.399 412.598 207.075L412.83 208.553C410.456 208.935 408.431 209.001 405.526 209.001H404.247V204.502H409.311V202.991H404.214V201.48H411.137ZM410.905 209.997C414.092 209.997 416.034 211.01 416.034 212.786C416.034 214.529 414.092 215.559 410.905 215.559C407.7 215.559 405.775 214.529 405.775 212.786C405.775 211.01 407.7 209.997 410.905 209.997ZM410.905 211.441C408.78 211.441 407.601 211.906 407.601 212.786C407.601 213.649 408.78 214.114 410.905 214.114C413.013 214.114 414.192 213.649 414.192 212.786C414.192 211.906 413.013 211.441 410.905 211.441ZM434.371 200.567V215.575H432.512V200.567H434.371ZM429.889 202.161C429.889 206.627 428.162 210.429 422.9 212.919L421.937 211.441C425.863 209.574 427.689 207.034 428.013 203.622H422.7V202.161H429.889ZM448.495 204.469V205.963H438.136V200.833H439.979V204.469H448.495ZM450.056 207.407V208.901H436.359V207.407H450.056ZM443.183 209.98C446.42 209.997 448.362 210.993 448.379 212.753C448.362 214.513 446.42 215.509 443.183 215.509C439.912 215.509 437.953 214.513 437.953 212.753C437.953 210.993 439.912 209.997 443.183 209.98ZM443.183 211.425C440.991 211.441 439.812 211.856 439.829 212.753C439.812 213.616 440.991 214.098 443.183 214.098C445.324 214.098 446.52 213.616 446.536 212.753C446.52 211.856 445.324 211.441 443.183 211.425ZM101.422 236.775C101.406 238.751 104.045 240.428 106.618 240.81L106.137 241.839C103.829 241.449 101.588 240.22 100.692 238.436C99.7952 240.22 97.5457 241.449 95.2796 241.839L94.765 240.81C97.3216 240.428 99.9612 238.751 99.9612 236.775V236.676H95.2298V235.613H106.137V236.676H101.422V236.775ZM107.415 243.101V244.18H101.306V249.442H100.028V244.18H93.9681V243.101H107.415ZM122.004 246.438V247.517H108.49V246.438H114.533V242.818H115.812V246.438H122.004ZM115.845 236.825C115.845 239.299 118.767 241.457 121.34 241.905L120.759 242.984C118.51 242.528 116.135 241 115.181 238.867C114.21 240.992 111.852 242.528 109.603 242.984L109.022 241.905C111.595 241.457 114.484 239.299 114.484 236.825V235.696H115.845V236.825ZM136.51 241.54V242.569H122.996V241.54H136.51ZM134.817 243.748V246.886H125.951V248.297H135.298V249.243H124.64V245.989H133.522V244.728H124.623V243.748H134.817ZM134.767 235.132V238.187H126.051V239.481H135.032V240.428H124.756V237.29H133.455V236.078H124.706V235.132H134.767ZM155.079 241.142V242.221H141.632V241.142H147.691V239.681H143.375V235.182H153.336V239.681H148.97V241.142H155.079ZM144.67 236.228V238.635H152.041V236.228H144.67ZM153.353 243.449V246.753H144.587V248.247H153.801V249.276H143.292V245.773H152.074V244.462H143.259V243.449H153.353ZM167.576 234.684V240.561H170.05V241.656H167.576V249.476H166.281V234.684H167.576ZM163.442 236.062V241.341H158.063V244.794C160.803 244.794 162.712 244.703 164.953 244.279L165.086 245.358C162.762 245.79 160.786 245.89 157.947 245.906H156.768V240.262H162.147V237.141H156.735V236.062H163.442ZM182.597 241.606V242.669H178.031V246.487H184.19V247.583H170.677V246.487H176.753V242.669H172.403V235.896H182.447V236.958H173.715V241.606H182.597ZM194.342 237.473C194.342 239.531 195.837 241.474 197.995 242.254L197.264 243.267C195.646 242.619 194.359 241.333 193.728 239.73C193.097 241.515 191.753 242.935 190.009 243.632L189.312 242.569C191.52 241.756 193.048 239.697 193.064 237.423V235.597H194.342V237.473ZM201.531 234.7V245.757H200.219V239.266H196.932V238.17H200.219V234.7H201.531ZM201.863 248.031V249.127H191.985V244.495H193.297V248.031H201.863ZM217.265 240.926V241.988H211.172V243.449H215.539V246.753H206.773V248.247H215.987V249.276H205.478V245.773H214.26V244.462H205.445V243.449H209.878V241.988H203.818V240.926H217.265ZM215.522 235.182V239.681H205.561V235.182H215.522ZM206.856 236.228V238.635H214.227V236.228H206.856ZM233.859 234.684V240.693H236.249V241.789H233.859V249.442H232.564V234.684H233.859ZM230.04 236.277C230.04 240.461 228.081 244.263 223.267 246.637L222.537 245.607C226.355 243.707 228.43 240.868 228.729 237.373H223.217V236.277H230.04ZM248.879 238.817V239.896H238.802V234.982H240.097V238.817H248.879ZM250.423 241.623V242.702H236.959V241.623H250.423ZM243.683 244.03C246.854 244.03 248.746 244.993 248.763 246.703C248.746 248.413 246.854 249.376 243.683 249.376C240.495 249.376 238.586 248.413 238.586 246.703C238.586 244.993 240.495 244.03 243.683 244.03ZM243.683 245.06C241.309 245.076 239.898 245.657 239.914 246.703C239.898 247.732 241.309 248.363 243.683 248.363C246.024 248.363 247.452 247.732 247.452 246.703C247.452 245.657 246.024 245.076 243.683 245.06ZM263.02 234.7V239.564H265.244V240.66H263.02V245.757H261.725V234.7H263.02ZM260.314 236.51V237.572H251.515V236.51H255.267V234.7H256.562V236.51H260.314ZM255.914 238.386C258.023 238.386 259.45 239.465 259.467 241.142C259.45 242.802 258.023 243.864 255.914 243.864C253.789 243.864 252.345 242.802 252.362 241.142C252.345 239.465 253.789 238.386 255.914 238.386ZM255.914 239.415C254.52 239.415 253.59 240.096 253.607 241.142C253.59 242.188 254.52 242.852 255.914 242.835C257.292 242.852 258.222 242.188 258.239 241.142C258.222 240.096 257.292 239.415 255.914 239.415ZM263.7 248.031V249.127H253.789V244.877H255.068V248.031H263.7ZM281.639 234.7V239.564H283.863V240.66H281.639V245.757H280.344V234.7H281.639ZM278.933 236.51V237.572H270.134V236.51H273.886V234.7H275.181V236.51H278.933ZM274.533 238.386C276.642 238.386 278.069 239.465 278.086 241.142C278.069 242.802 276.642 243.864 274.533 243.864C272.408 243.864 270.964 242.802 270.981 241.142C270.964 239.465 272.408 238.386 274.533 238.386ZM274.533 239.415C273.139 239.415 272.209 240.096 272.226 241.142C272.209 242.188 273.139 242.852 274.533 242.835C275.911 242.852 276.841 242.188 276.858 241.142C276.841 240.096 275.911 239.415 274.533 239.415ZM282.319 248.031V249.127H272.408V244.877H273.687V248.031H282.319ZM296.36 235.414V236.477C296.36 237.581 296.36 238.9 295.995 240.677H298.137V241.739H291.994V244.462H296.46V249.442H295.148V245.541H286.018V244.462H290.699V241.739H284.623V240.677H294.684C295.065 238.867 295.065 237.581 295.065 236.477H286.333V235.414H296.36ZM315.477 234.7V245.524H314.166V239.863H311.128V238.784H314.166V234.7H315.477ZM315.892 248.031V249.127H305.998V244.545H307.309V248.031H315.892ZM308.372 237.738C308.372 239.647 309.849 241.507 312.008 242.237L311.327 243.283C309.659 242.686 308.372 241.44 307.741 239.913C307.102 241.615 305.741 242.976 303.989 243.632L303.308 242.569C305.483 241.806 307.06 239.863 307.06 237.738V236.975H303.724V235.896H311.676V236.975H308.372V237.738ZM331.212 242.52V243.582H317.748V242.52H323.824V241.059H319.541V235.115H329.535V236.178H320.852V237.556H329.137V238.552H320.852V240.013H329.618V241.059H325.119V242.52H331.212ZM324.488 244.694C327.725 244.678 329.552 245.508 329.568 247.052C329.552 248.596 327.725 249.409 324.488 249.409C321.218 249.409 319.391 248.596 319.391 247.052C319.391 245.508 321.218 244.678 324.488 244.694ZM324.488 245.674C322.048 245.674 320.686 246.172 320.703 247.052C320.686 247.948 322.048 248.413 324.488 248.396C326.895 248.413 328.257 247.948 328.257 247.052C328.257 246.172 326.895 245.674 324.488 245.674ZM348.121 235.314V236.294C348.121 237.348 348.121 238.709 347.755 240.527H349.897V241.606H343.721V243.914H342.443V241.606H336.383V240.527H346.461C346.818 238.709 346.826 237.415 346.826 236.377H338.093V235.314H348.121ZM343.738 245.043C343.738 246.786 346.112 248.048 348.768 248.38L348.32 249.376C346.012 249.077 343.954 248.139 343.09 246.653C342.202 248.114 340.144 249.077 337.878 249.376L337.413 248.38C340.036 248.048 342.426 246.736 342.426 245.043V244.528H343.738V245.043ZM364.419 246.388V247.483H350.906V246.388H364.419ZM358.31 237.938C358.31 240.295 361.232 242.304 363.772 242.719L363.241 243.748C360.983 243.308 358.601 241.864 357.663 239.83C356.708 241.88 354.334 243.366 352.118 243.814L351.57 242.769C354.06 242.337 356.965 240.295 356.965 237.938V237.257H352.018V236.178H363.257V237.257H358.31V237.938ZM376.746 236.958V238.436H369.392V236.958H372.181V234.999H374.007V236.958H376.746ZM373.094 239.232C375.003 239.232 376.365 240.677 376.365 242.719C376.365 244.794 375.003 246.255 373.094 246.255C371.202 246.255 369.807 244.794 369.824 242.719C369.807 240.677 371.202 239.232 373.094 239.232ZM373.094 240.76C372.115 240.76 371.434 241.54 371.451 242.719C371.434 243.931 372.115 244.694 373.094 244.678C374.057 244.694 374.738 243.931 374.738 242.719C374.738 241.54 374.057 240.76 373.094 240.76ZM382.325 234.567V249.575H380.565V242.237H379.104V248.895H377.377V234.883H379.104V240.743H380.565V234.567H382.325ZM388.812 235.497C391.186 235.497 392.929 236.991 392.946 239.116C392.929 240.967 391.626 242.32 389.742 242.652V244.844C391.078 244.777 392.431 244.661 393.709 244.479L393.859 245.807C390.489 246.438 386.886 246.471 384.246 246.471L384.014 244.96C385.159 244.96 386.496 244.96 387.899 244.91V242.652C386.014 242.329 384.695 240.967 384.695 239.116C384.695 236.991 386.454 235.497 388.812 235.497ZM388.812 237.091C387.5 237.091 386.521 237.854 386.521 239.116C386.521 240.361 387.5 241.158 388.812 241.158C390.14 241.158 391.136 240.361 391.136 239.116C391.136 237.854 390.14 237.091 388.812 237.091ZM396.449 234.567V249.592H394.606V234.567H396.449ZM407.796 237.224C407.796 239.216 408.991 241.158 411.316 241.955L410.303 243.399C408.684 242.785 407.522 241.615 406.9 240.146C406.244 241.789 405.024 243.092 403.264 243.748L402.284 242.287C404.692 241.474 405.92 239.398 405.937 237.207V235.497H407.796V237.224ZM414.902 234.584V245.724H413.059V239.398H410.07V237.888H413.059V234.584H414.902ZM415.234 247.782V249.276H405.007V244.512H406.883V247.782H415.234ZM430.536 240.66V242.121H424.593V243.25H428.826V246.936H420.293V248.031H429.241V249.442H418.483V245.607H427.017V244.645H418.467V243.25H422.75V242.121H416.857V240.66H430.536ZM428.776 235.032V239.714H418.583V235.032H428.776ZM420.393 236.477V238.27H426.934V236.477H420.393ZM443.133 234.567V240.544H445.44V242.071H443.133V249.575H441.307V234.567H443.133ZM440.145 236.875V238.353H431.296V236.875H434.849V234.783H436.691V236.875H440.145ZM435.778 239.332C437.937 239.332 439.547 240.793 439.547 242.868C439.547 244.943 437.937 246.388 435.778 246.388C433.587 246.388 431.977 244.943 431.993 242.868C431.977 240.793 433.587 239.332 435.778 239.332ZM435.778 240.843C434.6 240.843 433.753 241.64 433.753 242.868C433.753 244.097 434.6 244.877 435.778 244.86C436.924 244.877 437.771 244.097 437.787 242.868C437.771 241.64 436.924 240.843 435.778 240.843ZM458.435 234.567V249.575H456.576V234.567H458.435ZM453.953 236.161C453.953 240.627 452.226 244.429 446.964 246.919L446.001 245.441C449.927 243.574 451.753 241.034 452.077 237.622H446.765V236.161H453.953ZM476.822 234.567V249.575H474.963V234.567H476.822ZM472.34 236.161C472.34 240.627 470.613 244.429 465.35 246.919L464.387 245.441C468.314 243.574 470.14 241.034 470.464 237.622H465.151V236.161H472.34ZM490.946 238.469V239.963H480.587V234.833H482.429V238.469H490.946ZM492.507 241.407V242.901H478.81V241.407H492.507ZM485.633 243.98C488.871 243.997 490.813 244.993 490.83 246.753C490.813 248.513 488.871 249.509 485.633 249.509C482.363 249.509 480.404 248.513 480.404 246.753C480.404 244.993 482.363 243.997 485.633 243.98ZM485.633 245.425C483.442 245.441 482.263 245.856 482.28 246.753C482.263 247.616 483.442 248.098 485.633 248.098C487.775 248.098 488.97 247.616 488.987 246.753C488.97 245.856 487.775 245.441 485.633 245.425Z" fill="#121212"/>
<path d="M227.019 87.4043V93.2285H229.603V95.1152H227.019V101.247H224.743V87.4043H227.019ZM223.41 89.4551V91.2803H212.417V89.4551H216.786V87.3838H219.062V89.4551H223.41ZM217.914 92.0391C220.58 92.0391 222.425 93.4541 222.446 95.5869C222.425 97.6992 220.58 99.0938 217.914 99.0938C215.227 99.0938 213.361 97.6992 213.361 95.5869C213.361 93.4541 215.227 92.0391 217.914 92.0391ZM217.914 93.8027C216.499 93.8027 215.576 94.459 215.576 95.5869C215.576 96.6943 216.499 97.3506 217.914 97.3301C219.329 97.3506 220.272 96.6943 220.272 95.5869C220.272 94.459 219.329 93.8027 217.914 93.8027ZM227.757 103.708V105.554H215.145V100.16H217.421V103.708H227.757ZM245.021 87.3838V98.3965H242.744V93.8643H239.586V91.998H242.744V87.3838H245.021ZM238.745 98.8682C242.683 98.8682 245.082 100.16 245.082 102.396C245.082 104.631 242.683 105.923 238.745 105.923C234.828 105.923 232.429 104.631 232.45 102.396C232.429 100.16 234.828 98.8682 238.745 98.8682ZM238.745 100.611C236.161 100.611 234.705 101.227 234.705 102.396C234.705 103.544 236.161 104.159 238.745 104.159C241.329 104.159 242.806 103.544 242.806 102.396C242.806 101.227 241.329 100.611 238.745 100.611ZM236.305 90.5625C236.305 92.8184 237.802 95.0947 240.673 96.0586L239.525 97.8633C237.464 97.166 235.997 95.751 235.198 94.0078C234.377 95.9868 232.829 97.5659 230.624 98.3555L229.435 96.5508C232.408 95.5254 233.988 93.0234 233.988 90.583V90.4395H230.132V88.5938H240.14V90.4395H236.305V90.5625ZM257.383 93.208V95.0332H253.938V97.125C255.486 97.0635 257.024 96.9609 258.47 96.8174L258.634 98.458C254.696 99.0117 250.431 99.1143 246.985 99.1143L246.678 97.2891C248.206 97.2788 249.898 97.2686 251.641 97.207V95.0332H248.277V88.5322H257.239V90.3779H250.574V93.208H257.383ZM262.059 87.3838V101.309H259.762V87.3838H262.059ZM262.592 103.708V105.554H249.631V100.283H251.928V103.708H262.592ZM277.144 88.9834V90.8496H270.705V94.1514H276.816V95.9561H270.705V99.7705C273.555 99.75 275.78 99.6475 278.375 99.2168L278.58 101.062C275.729 101.514 273.248 101.616 269.925 101.616H268.387V88.9834H277.144ZM282.148 87.3838V94.5615H284.999V96.4688H282.148V105.923H279.872V87.3838H282.148ZM300.129 87.4043V99.75H297.853V87.4043H300.129ZM294.592 88.7988C294.572 93.7207 291.475 97.207 285.856 98.8682L284.974 97.043C289.342 95.8022 291.772 93.5464 292.172 90.6445H286V88.7988H294.592ZM295.146 99.1963C295.125 101.473 297.381 103.482 301.134 104.057L300.252 105.861C297.279 105.369 295.033 104.005 293.936 102.067C292.818 103.995 290.562 105.369 287.64 105.861L286.738 104.057C290.45 103.503 292.747 101.493 292.747 99.1963V98.5195H295.146V99.1963ZM310.256 87.6709C314.481 87.6709 316.921 88.7988 316.942 90.8496C316.921 92.9209 314.481 94.0283 310.256 94.0488C306.032 94.0283 303.571 92.9209 303.571 90.8496C303.571 88.7988 306.032 87.6709 310.256 87.6709ZM310.256 89.3525C307.426 89.3525 305.95 89.8857 305.97 90.8496C305.95 91.875 307.426 92.3467 310.256 92.3467C313.127 92.3467 314.583 91.875 314.583 90.8496C314.583 89.8857 313.127 89.3525 310.256 89.3525ZM318.726 95.0332V96.8584H301.827V95.0332H318.726ZM316.614 98.1094V102.642H306.073V104.016H317.126V105.759H303.837V101.021H314.378V99.791H303.817V98.1094H316.614ZM337.995 89.0859V90.8701C337.975 93.167 337.975 95.751 337.257 99.627L334.96 99.3809C335.678 95.7715 335.678 93.1362 335.698 90.9111H324.624V89.0859H337.995ZM339.759 101.657V103.523H322.86V101.657H329.095V95.2178H331.35V101.657H339.759ZM355.484 87.3838V105.943H353.208V98.335H349.824V96.4688H353.208V93.29H349.885V91.4238H353.208V87.3838H355.484ZM348.84 88.9834V95.915H342.892V99.8525C345.343 99.832 347.476 99.7295 349.967 99.3604L350.152 101.227C347.301 101.678 344.943 101.739 342.072 101.739H340.636V94.1309H346.604V90.8086H340.575V88.9834H348.84ZM371.681 87.4043V93.2285H374.265V95.1152H371.681V101.247H369.405V87.4043H371.681ZM368.072 89.4551V91.2803H357.08V89.4551H361.448V87.3838H363.724V89.4551H368.072ZM362.576 92.0391C365.242 92.0391 367.087 93.4541 367.108 95.5869C367.087 97.6992 365.242 99.0938 362.576 99.0938C359.889 99.0938 358.023 97.6992 358.023 95.5869C358.023 93.4541 359.889 92.0391 362.576 92.0391ZM362.576 93.8027C361.161 93.8027 360.238 94.459 360.238 95.5869C360.238 96.6943 361.161 97.3506 362.576 97.3301C363.991 97.3506 364.934 96.6943 364.934 95.5869C364.934 94.459 363.991 93.8027 362.576 93.8027ZM372.419 103.708V105.554H359.807V100.16H362.083V103.708H372.419Z" fill="#00A695"/>
<rect x="254.449" y="42" width="77.4746" height="25.1621" rx="12.5811" stroke="#00A695"/>
<path d="M279.917 59.9688V50.0703H286.26V51.5605H281.694V54.2676H285.823V55.7578H281.694V59.9688H279.917ZM287.542 59.9688V52.5449H289.292V59.9688H287.542ZM288.431 51.4922C287.884 51.4922 287.419 51.0684 287.419 50.5352C287.419 50.0156 287.884 49.5918 288.431 49.5918C288.992 49.5918 289.443 50.0156 289.443 50.5352C289.443 51.0684 288.992 51.4922 288.431 51.4922ZM290.82 59.9688V52.5449H292.516V53.7754H292.598C292.857 52.9277 293.582 52.4355 294.43 52.4355C294.621 52.4355 294.895 52.4492 295.059 52.4766V54.0898C294.908 54.0352 294.539 53.9805 294.252 53.9805C293.281 53.9805 292.57 54.6504 292.57 55.5938V59.9688H290.82ZM300.169 54.6641C300.059 54.1035 299.594 53.748 298.856 53.748C298.104 53.748 297.557 54.1172 297.571 54.623C297.557 55.0059 297.872 55.293 298.624 55.4707L299.881 55.7305C301.29 56.0449 301.96 56.6875 301.973 57.7539C301.96 59.1484 300.743 60.1191 298.801 60.1191C296.915 60.1191 295.794 59.2715 295.616 57.8496H297.393C297.503 58.4785 297.995 58.793 298.801 58.793C299.635 58.793 300.196 58.4512 300.196 57.9043C300.196 57.4805 299.854 57.207 299.116 57.043L297.926 56.7832C296.546 56.5098 295.835 55.7852 295.835 54.7188C295.835 53.3516 297.01 52.4492 298.829 52.4492C300.606 52.4492 301.7 53.3105 301.823 54.6641H300.169ZM306.865 52.5449V53.8848H305.402V57.7402C305.402 58.4512 305.757 58.6016 306.195 58.6016C306.4 58.6016 306.741 58.5879 306.96 58.5742V59.9961C306.755 60.0371 306.413 60.0645 305.976 60.0645C304.663 60.0645 303.652 59.4219 303.665 58.0273V53.8848H302.599V52.5449H303.665V50.7676H305.402V52.5449H306.865Z" fill="#01A695"/>
<defs>
<filter id="filter0_d_1066_3114" x="0.235937" y="-0.00625038" width="591.903" height="308.868" filterUnits="userSpaceOnUse" color-interpolation-filters="sRGB">
<feFlood flood-opacity="0" result="BackgroundImageFix"/>
<feColorMatrix in="SourceAlpha" type="matrix" values="0 0 0 0 0 0 0 0 0 0 0 0 0 0 0 0 0 0 127 0" result="hardAlpha"/>
<feOffset dx="3" dy="3"/>
<feGaussianBlur stdDeviation="6.3"/>
<feComposite in2="hardAlpha" operator="out"/>
<feColorMatrix type="matrix" values="0 0 0 0 0 0 0 0 0 0 0 0 0 0 0 0 0 0 0.25 0"/>
<feBlend mode="normal" in2="BackgroundImageFix" result="effect1_dropShadow_1066_3114"/>
<feBlend mode="normal" in="SourceGraphic" in2="effect1_dropShadow_1066_3114" result="shape"/>
</filter>
</defs>
</svg>
