<svg width="566" height="366" viewBox="0 0 566 366" fill="none" xmlns="http://www.w3.org/2000/svg">
<path d="M0.078125 32.4336C0.078125 14.7605 14.405 0.433594 32.0781 0.433594L534.001 0.433594C551.674 0.433594 566.001 14.7605 566.001 32.4336V365.535H32.0782C14.4051 365.535 0.078125 351.208 0.078125 333.535L0.078125 32.4336Z" fill="#E7E6D2"/>
<rect x="57.0625" y="239.98" width="220.623" height="32.2148" rx="16.1074" fill="white" stroke="white"/>
<path d="M77.417 261.586H75.1094L79.3428 249.566H81.999L86.249 261.586H83.9414L82.9453 258.614H78.4131L77.417 261.586ZM78.9941 256.871H82.3643L80.7207 252.023H80.6211L78.9941 256.871ZM87.5068 261.586V249.566H92.0224C94.7782 249.566 96.2558 251.11 96.2558 253.401C96.2558 255.037 95.5087 256.249 94.0976 256.821L96.6874 261.586H94.2802L91.9228 257.187H89.665V261.586H87.5068ZM89.665 255.377H91.6904C93.3173 255.377 94.0478 254.68 94.0478 253.401C94.0478 252.123 93.3173 251.376 91.6904 251.376H89.665V255.377ZM108.948 250.114C108.948 252.438 111.222 254.763 114.36 255.311L113.53 256.854C111.015 256.323 108.956 254.804 107.985 252.787C106.989 254.788 104.93 256.315 102.424 256.854L101.61 255.311C104.715 254.746 106.972 252.422 106.989 250.114V249.002H108.948V250.114ZM114.908 259.627V261.154H101.195V259.627H114.908ZM122.175 248.985V250.463H118.058V251.841H122.026V253.285H118.058V254.779C119.893 254.763 121.163 254.68 122.624 254.414L122.823 255.892C121.063 256.207 119.602 256.273 117.278 256.257H116.282V248.985H122.175ZM128.55 248.072V256.904H126.791V253.252H125.23V256.755H123.504V248.354H125.23V251.741H126.791V248.072H128.55ZM128.55 257.552V262.881H118.424V257.552H128.55ZM120.266 258.996V261.387H126.724V258.996H120.266ZM143.953 259.71V261.254H130.24V259.71H143.953ZM142.757 249.45V250.928H140.566V255.709H142.708V257.17H131.419V255.709H133.527V250.928H131.369V249.45H142.757ZM135.37 255.709H138.74V250.928H135.37V255.709ZM156.562 249.467V259.411H149.423V249.467H156.562ZM151.249 250.911V257.934H154.769V250.911H151.249ZM161.111 248.056V263.08H159.251V248.056H161.111ZM168.611 250.712C168.611 252.82 169.789 254.896 172.097 255.759L171.068 257.187C169.466 256.556 168.32 255.302 167.698 253.75C167.05 255.41 165.838 256.73 164.112 257.402L163.116 255.941C165.506 255.078 166.735 252.953 166.751 250.712V248.919H168.611V250.712ZM175.716 248.072V259.212H173.873V254.563H171.134V253.086H173.873V251.608H171.134V250.114H173.873V248.072H175.716ZM176.048 261.271V262.765H165.822V258.116H167.698V261.271H176.048ZM194.02 248.056V263.08H192.16V248.056H194.02ZM185.935 249.151C188.193 249.151 189.836 251.21 189.853 254.447C189.836 257.718 188.193 259.76 185.935 259.76C183.66 259.76 182.017 257.718 182.017 254.447C182.017 251.21 183.66 249.151 185.935 249.151ZM185.935 250.812C184.656 250.812 183.793 252.156 183.793 254.447C183.793 256.755 184.656 258.1 185.935 258.1C187.196 258.1 188.06 256.755 188.06 254.447C188.06 252.156 187.196 250.812 185.935 250.812ZM209.737 255.277V256.755H196.058V255.277H199.245V253.368C198.116 252.895 197.469 252.14 197.469 251.16C197.469 249.367 199.577 248.305 202.881 248.305C206.185 248.305 208.276 249.367 208.293 251.16C208.285 252.148 207.637 252.903 206.5 253.368V255.277H209.737ZM202.881 257.668C206.118 257.651 208.061 258.614 208.077 260.341C208.061 262.084 206.118 263.03 202.881 263.03C199.61 263.03 197.651 262.084 197.651 260.341C197.651 258.614 199.61 257.651 202.881 257.668ZM202.881 259.062C200.69 259.062 199.511 259.494 199.527 260.341C199.511 261.188 200.69 261.636 202.881 261.636C205.023 261.636 206.218 261.188 206.234 260.341C206.218 259.494 205.023 259.062 202.881 259.062ZM202.881 249.732C200.656 249.732 199.378 250.23 199.395 251.16C199.378 252.073 200.656 252.555 202.881 252.555C205.089 252.555 206.384 252.073 206.384 251.16C206.384 250.23 205.089 249.732 202.881 249.732ZM201.105 255.277H204.657V253.85C204.118 253.924 203.52 253.966 202.881 253.966C202.242 253.966 201.644 253.924 201.105 253.85V255.277ZM226.198 248.056V253.916H228.423V255.46H226.198V263.03H224.355V248.056H226.198ZM222.23 249.616C222.23 254.032 220.404 257.9 215.407 260.357L214.361 258.93C218.014 257.112 219.989 254.555 220.371 251.144H215.175V249.616H222.23ZM241.451 248.056V263.08H239.592V248.056H241.451ZM233.366 249.151C235.624 249.151 237.267 251.21 237.284 254.447C237.267 257.718 235.624 259.76 233.366 259.76C231.092 259.76 229.448 257.718 229.448 254.447C229.448 251.21 231.092 249.151 233.366 249.151ZM233.366 250.812C232.088 250.812 231.224 252.156 231.224 254.447C231.224 256.755 232.088 258.1 233.366 258.1C234.628 258.1 235.491 256.755 235.491 254.447C235.491 252.156 234.628 250.812 233.366 250.812ZM255.675 255.095V256.572H245.149V249.367H255.558V250.861H246.975V255.095H255.675ZM257.202 259.627V261.154H243.489V259.627H257.202Z" fill="#121212"/>
<path d="M60.1172 181.656H56.9531L61.8555 167.516H65.625L70.5078 181.656H67.3633L66.3086 178.395H61.1914L60.1172 181.656ZM61.9336 176.109H65.5664L63.7891 170.699H63.6914L61.9336 176.109ZM71.9094 181.656V167.516H77.4563C80.6789 167.516 82.5148 169.332 82.5148 172.125C82.5148 174.059 81.6262 175.465 80.0148 176.148L83.0227 181.656H79.7805L77.0852 176.637H74.8391V181.656H71.9094ZM74.8391 174.254H76.9094C78.6477 174.254 79.4875 173.531 79.4875 172.125C79.4875 170.699 78.6477 169.918 76.9094 169.918H74.8391V174.254ZM103.033 165.68V183.453H100.513V165.68H103.033ZM97.7008 167.535C97.7008 172.926 95.8062 177.398 89.4586 180.406L88.15 178.414C92.7398 176.246 94.7613 173.434 95.1617 169.488H89.107V167.535H97.7008ZM119.591 170.133V172.125H107.227V165.953H109.708V170.133H119.591ZM121.427 173.648V175.68H105.177V173.648H121.427ZM113.263 176.793C117.11 176.812 119.434 178.004 119.454 180.094C119.434 182.203 117.11 183.395 113.263 183.395C109.376 183.395 107.032 182.203 107.032 180.094C107.032 178.004 109.376 176.812 113.263 176.793ZM113.263 178.727C110.802 178.746 109.552 179.156 109.571 180.094C109.552 181.012 110.802 181.5 113.263 181.5C115.665 181.5 116.934 181.012 116.954 180.094C116.934 179.156 115.665 178.746 113.263 178.727ZM130.367 165.934C134.449 165.934 136.812 167.008 136.832 168.961C136.812 170.934 134.449 172.008 130.367 172.008C126.266 172.008 123.883 170.934 123.883 168.961C123.883 167.008 126.266 165.934 130.367 165.934ZM130.367 167.75C127.75 167.75 126.48 168.18 126.5 168.961C126.48 169.84 127.75 170.172 130.367 170.172C133.004 170.172 134.254 169.84 134.254 168.961C134.254 168.18 133.004 167.75 130.367 167.75ZM138.473 172.848V174.82H122.262V172.848H138.473ZM136.5 175.855V180.387H126.598V181.461H136.969V183.336H124.156V178.648H134.039V177.672H124.137V175.855H136.5ZM148.541 166.93C151.256 166.93 153.209 169.391 153.229 173.258C153.209 177.164 151.256 179.605 148.541 179.605C145.827 179.605 143.834 177.164 143.854 173.258C143.834 169.391 145.827 166.93 148.541 166.93ZM148.541 169.176C147.174 169.176 146.256 170.621 146.256 173.258C146.256 175.914 147.174 177.34 148.541 177.34C149.928 177.34 150.827 175.914 150.846 173.258C150.827 170.621 149.928 169.176 148.541 169.176ZM157.78 165.68V172.379H160.397V174.449H157.78V183.453H155.28V165.68H157.78ZM176.252 165.68V183.453H173.869V165.68H176.252ZM172.619 165.934V182.633H170.275V177.125H168.185C167.521 178.854 166.359 179.84 164.865 179.84C162.521 179.84 160.998 177.379 160.998 173.375C160.998 169.391 162.521 166.949 164.865 166.949C166.349 166.949 167.511 167.916 168.185 169.625H170.275V165.934H172.619ZM164.865 169.293C163.83 169.293 163.244 170.66 163.263 173.375C163.244 176.109 163.83 177.457 164.865 177.438C165.9 177.457 166.525 176.109 166.525 173.375C166.525 170.66 165.88 169.293 164.865 169.293ZM168.673 171.617C168.752 172.164 168.791 172.75 168.791 173.375C168.791 173.99 168.752 174.576 168.673 175.113H170.275V171.617H168.673ZM197.355 165.68V183.492H194.855V174.508H191.652V172.516H194.855V165.68H197.355ZM188.996 171.246C188.996 173.824 190.402 176.695 193.312 177.945L191.984 179.859C189.963 179.02 188.557 177.32 187.785 175.289C187.004 177.447 185.607 179.264 183.566 180.133L182.258 178.219C185.109 176.949 186.496 173.922 186.516 171.246V170.562H182.824V168.57H186.516V166.07H189.016V168.57H192.609V170.562H188.996V171.246ZM207.527 166.012C211.472 166.012 213.972 167.32 213.991 169.488C213.972 171.637 211.472 172.945 207.527 172.926C203.601 172.945 201.042 171.637 201.042 169.488C201.042 167.32 203.601 166.012 207.527 166.012ZM207.527 167.945C205.046 167.945 203.62 168.473 203.64 169.488C203.62 170.484 205.046 170.992 207.527 170.992C209.988 170.992 211.413 170.484 211.413 169.488C211.413 168.473 209.988 167.945 207.527 167.945ZM213.698 177.203V183.258H201.296V177.203H213.698ZM203.757 179.176V181.266H211.257V179.176H203.757ZM215.632 173.961V175.953H199.421V173.961H215.632ZM236.15 165.875V183.238H234.607V173.531H231.521V172.184H234.607V165.875H236.15ZM225.427 171.402C225.408 173.141 225.75 175.709 227.166 177.438C228.543 175.758 228.845 173.238 228.845 171.402V167.438H230.33V171.402C230.31 173.668 230.896 176.656 233.064 178.18L232.087 179.293C230.769 178.346 230.007 176.803 229.607 175.113C229.207 176.842 228.474 178.463 227.146 179.43C225.808 178.453 225.066 176.812 224.685 175.113C224.265 176.773 223.523 178.307 222.283 179.254L221.248 178.18C223.357 176.617 223.962 173.59 223.982 171.402V167.438H225.427V171.402ZM241.067 167.32V169.977H246.712V167.32H248.235V175.133H244.661V178.238C246.262 178.18 247.874 178.062 249.368 177.867L249.466 179.02C245.794 179.605 241.673 179.664 238.626 179.684L238.372 178.375C239.788 178.365 241.419 178.355 243.118 178.297V175.133H239.544V167.32H241.067ZM241.067 173.883H246.712V171.168H241.067V173.883ZM252.005 165.875V173.18H254.837V174.469H252.005V183.238H250.481V165.875H252.005ZM261.785 170.543C261.785 173.688 263.797 176.852 266.316 178.004L265.398 179.254C263.426 178.238 261.795 176.158 261.023 173.688C260.252 176.285 258.621 178.512 256.648 179.566L255.652 178.336C258.191 177.086 260.223 173.746 260.223 170.543V167.379H261.785V170.543ZM270.066 165.875V183.277H268.543V173.062H264.422V171.812H268.543V165.875H270.066ZM291.385 166.637V167.867C291.385 169.176 291.385 170.777 290.955 172.848H293.475V174.098H286.229V176.832C289.549 176.969 291.522 178.102 291.541 179.996C291.522 182.066 289.256 183.199 285.487 183.199C281.678 183.199 279.393 182.066 279.393 179.996C279.393 178.102 281.375 176.979 284.725 176.832V174.098H277.577V172.848H289.413C289.862 170.738 289.862 169.205 289.862 167.887H279.588V166.637H291.385ZM285.487 178.043C282.655 178.062 280.936 178.766 280.955 179.996C280.936 181.246 282.655 181.969 285.487 181.969C288.26 181.969 289.979 181.246 289.998 179.996C289.979 178.766 288.26 178.062 285.487 178.043ZM309.037 165.875V175.738H307.513V174.605H303.646V173.512H307.513V165.875H309.037ZM294.564 171.598C296.8 171.598 299.584 171.568 302.337 171.383C302.64 169.859 302.718 168.688 302.748 167.867H296.263V166.637H304.232V167.086C304.232 167.828 304.232 169.303 303.88 171.246C304.584 171.188 305.287 171.109 305.97 171.012L306.068 172.105C304.339 172.408 302.513 172.574 300.736 172.672V175.738H299.212V172.75C297.611 172.809 296.097 172.818 294.779 172.828L294.564 171.598ZM309.037 176.363V180.172H298.88V181.871H309.701V183.043H297.396V179.078H307.513V177.535H297.357V176.363H309.037ZM330.141 165.875V171.168H332.758V172.457H330.141V178.688H328.617V165.875H330.141ZM330.941 181.578V182.867H319.281V177.359H320.785V181.578H330.941ZM321.449 167.105C324.047 167.105 326 168.863 326.02 171.383C326 173.902 324.047 175.66 321.449 175.66C318.852 175.66 316.879 173.902 316.898 171.383C316.879 168.863 318.852 167.105 321.449 167.105ZM321.449 168.453C319.73 168.453 318.383 169.664 318.402 171.383C318.383 173.102 319.73 174.312 321.449 174.312C323.207 174.312 324.516 173.102 324.516 171.383C324.516 169.664 323.207 168.453 321.449 168.453ZM348.534 165.875V183.238H347.05V165.875H348.534ZM345.038 166.246V182.359H343.573V173.922H341.347C341.181 177.301 339.745 179.41 337.597 179.41C335.331 179.41 333.866 177.066 333.866 173.375C333.866 169.684 335.331 167.34 337.597 167.34C339.706 167.34 341.132 169.381 341.327 172.652H343.573V166.246H345.038ZM337.597 168.785C336.191 168.785 335.292 170.543 335.312 173.375C335.292 176.188 336.191 177.965 337.597 177.945C339.003 177.965 339.902 176.188 339.902 173.375C339.902 170.543 339.003 168.785 337.597 168.785ZM356.85 170.543C356.85 173.688 358.862 176.852 361.381 178.004L360.463 179.254C358.491 178.238 356.86 176.158 356.088 173.688C355.317 176.285 353.686 178.512 351.713 179.566L350.717 178.336C353.256 177.086 355.288 173.746 355.288 170.543V167.379H356.85V170.543ZM365.131 165.875V183.277H363.608V173.062H359.487V171.812H363.608V165.875H365.131ZM378.462 170.543C378.462 173.609 380.493 176.754 382.954 177.965L382.016 179.195C380.102 178.189 378.501 176.139 377.739 173.727C376.958 176.295 375.317 178.482 373.364 179.527L372.388 178.297C374.927 177.047 376.938 173.707 376.958 170.543V167.379H378.462V170.543ZM386.079 165.875V172.926H388.989V174.254H386.079V183.238H384.555V165.875H386.079ZM405.547 174.469V175.738H389.727V174.469H393.652V172.027C392.266 171.49 391.484 170.602 391.484 169.43C391.484 167.379 393.828 166.207 397.637 166.207C401.406 166.207 403.77 167.379 403.77 169.43C403.77 170.592 402.998 171.48 401.621 172.008V174.469H405.547ZM397.637 177.066C401.367 177.066 403.594 178.141 403.613 180.133C403.594 182.105 401.367 183.199 397.637 183.199C393.867 183.199 391.641 182.105 391.641 180.133C391.641 178.141 393.867 177.066 397.637 177.066ZM397.637 178.238C394.844 178.258 393.184 178.941 393.203 180.133C393.184 181.305 394.844 182.008 397.637 182.008C400.391 182.008 402.07 181.305 402.07 180.133C402.07 178.941 400.391 178.258 397.637 178.238ZM397.637 167.418C394.805 167.418 393.047 168.18 393.066 169.43C393.047 170.699 394.805 171.441 397.637 171.441C400.449 171.441 402.207 170.699 402.207 169.43C402.207 168.18 400.449 167.418 397.637 167.418ZM395.176 174.469H400.098V172.438C399.365 172.564 398.545 172.633 397.637 172.633C396.729 172.633 395.908 172.564 395.176 172.438V174.469ZM420.249 165.875V173.043H423.159V174.312H420.249V183.238H418.726V165.875H420.249ZM417.046 168.668V169.938H406.714V168.668H411.187V166.09H412.71V168.668H417.046ZM411.968 171.383C414.429 171.383 416.206 173.023 416.226 175.367C416.206 177.711 414.429 179.352 411.968 179.352C409.487 179.352 407.691 177.711 407.71 175.367C407.691 173.023 409.487 171.383 411.968 171.383ZM411.968 172.672C410.347 172.672 409.155 173.805 409.175 175.367C409.155 176.949 410.347 178.062 411.968 178.043C413.57 178.062 414.741 176.949 414.761 175.367C414.741 173.805 413.57 172.672 411.968 172.672ZM438.252 165.875V183.238H436.709V165.875H438.252ZM433.116 167.77C433.096 172.77 430.772 177.184 424.952 179.977L424.112 178.727C428.809 176.5 431.202 173.17 431.553 169.02H424.913V167.77H433.116ZM61.9336 197.223C64.2969 197.242 65.9961 199.264 66.25 202.516H70.1367V195.875H71.6602V213.277H70.1367V203.785H66.2695C66.084 207.184 64.3555 209.312 61.9336 209.312C59.375 209.312 57.5781 206.969 57.5781 203.277C57.5781 199.586 59.375 197.242 61.9336 197.223ZM61.9336 198.59C60.2148 198.609 59.043 200.445 59.043 203.277C59.043 206.109 60.2148 207.945 61.9336 207.945C63.6328 207.945 64.8242 206.109 64.8242 203.277C64.8242 200.445 63.6328 198.609 61.9336 198.59ZM88.7258 195.875V213.277H87.2023V205.875H83.5891V204.586H87.2023V201.129H83.7258V199.84H87.2023V195.875H88.7258ZM82.593 197.457V203.629H76.5383V207.906C79.1457 207.896 81.3039 207.799 83.9406 207.398L84.0773 208.688C81.3039 209.117 79.0773 209.215 76.3039 209.215H75.0148V202.379H81.0891V198.727H74.9562V197.457H82.593ZM99.3461 196.09C103.213 196.09 105.479 197.164 105.479 199.098C105.479 201.051 103.213 202.105 99.3461 202.125C95.4789 202.105 93.1937 201.051 93.1937 199.098C93.1937 197.164 95.4789 196.09 99.3461 196.09ZM99.3461 197.262C96.4555 197.281 94.7758 197.945 94.7953 199.098C94.7758 200.289 96.4555 200.934 99.3461 200.953C102.217 200.934 103.916 200.289 103.916 199.098C103.916 197.945 102.217 197.281 99.3461 197.262ZM107.256 203.277V204.508H100.088V206.148H105.225V210.035H94.9125V211.832H105.752V213.043H93.3891V208.902H103.721V207.32H93.35V206.148H98.5648V204.508H91.4359V203.277H107.256ZM122.271 195.875V203.043H124.908V204.332H122.271V213.238H120.728V195.875H122.271ZM113.795 197.77C113.775 201.91 112.838 205.973 109.693 209.312L108.463 208.434C111.089 205.748 112.144 202.516 112.349 199.059H109.009V197.77H113.795ZM118.56 197.77C118.541 201.891 117.935 206.676 114.693 210.465L113.443 209.605C116.158 206.539 116.978 202.682 117.115 199.059H114.341V197.77H118.56ZM132.906 197.32V199.977H138.551V197.32H140.074V205.133H136.5V208.238C138.102 208.18 139.713 208.062 141.207 207.867L141.305 209.02C137.633 209.605 133.512 209.664 130.465 209.684L130.211 208.375C131.627 208.365 133.258 208.355 134.957 208.297V205.133H131.383V197.32H132.906ZM132.906 203.883H138.551V201.168H132.906V203.883ZM143.844 195.875V203.18H146.676V204.469H143.844V213.238H142.32V195.875H143.844ZM161.315 197.008C161.315 201.363 158.19 204.488 153.19 205.914L152.545 204.703C156.715 203.531 159.362 201.227 159.694 198.277H153.444V197.008H161.315ZM166.725 206.852V213.219H165.182V208.102H155.045V206.852H166.725ZM166.725 195.895V206.09H165.182V201.734H161.393V200.445H165.182V195.895H166.725ZM183.81 195.875V206.227H182.267V201.676H178.771V200.406H182.267V195.875H183.81ZM178.048 206.773C181.662 206.773 183.869 207.945 183.869 209.996C183.869 212.047 181.662 213.219 178.048 213.238C174.435 213.219 172.228 212.047 172.228 209.996C172.228 207.945 174.435 206.773 178.048 206.773ZM178.048 207.965C175.392 207.965 173.732 208.727 173.752 209.996C173.732 211.246 175.392 212.008 178.048 212.008C180.705 212.008 182.345 211.246 182.345 209.996C182.345 208.727 180.705 207.965 178.048 207.965ZM175.451 199.059C175.451 201.324 177.189 203.473 179.728 204.352L178.927 205.582C176.974 204.879 175.461 203.424 174.728 201.617C173.966 203.658 172.355 205.289 170.295 206.07L169.494 204.84C172.072 203.902 173.908 201.559 173.908 199.078V198.434H169.982V197.145H179.338V198.434H175.451V199.059ZM186.286 208.18C187.399 208.18 188.796 208.17 190.251 208.121V204.645H187.223V197.652H194.606V198.922H188.727V203.375H194.762V204.645H191.735V208.062C193.014 208.004 194.284 207.916 195.387 207.789L195.466 208.902C192.595 209.391 188.884 209.469 186.52 209.469L186.286 208.18ZM201.266 195.875V213.238H199.782V204.371H197.614V212.32H196.188V196.266H197.614V203.121H199.782V195.875H201.266ZM219.484 209.723V211.012H203.586V209.723H207.531V205.035C206.047 204.264 205.148 203.014 205.148 201.441C205.148 198.746 207.785 196.988 211.496 196.969C215.207 196.988 217.844 198.746 217.844 201.441C217.844 202.984 216.975 204.225 215.539 204.996V209.723H219.484ZM211.496 198.238C208.645 198.219 206.633 199.508 206.633 201.441C206.633 203.375 208.645 204.684 211.496 204.684C214.328 204.684 216.359 203.375 216.359 201.441C216.359 199.508 214.328 198.219 211.496 198.238ZM209.035 209.723H213.996V205.582C213.244 205.787 212.404 205.895 211.496 205.895C210.607 205.895 209.777 205.797 209.035 205.602V209.723ZM222.507 211.773C221.823 211.773 221.238 211.207 221.257 210.504C221.238 209.82 221.823 209.254 222.507 209.254C223.191 209.254 223.757 209.82 223.757 210.504C223.757 211.207 223.191 211.773 222.507 211.773Z" fill="#121212"/>
<path d="M57.0898 153.633L58.7695 148.066H60.8398L59.8633 153.633H57.0898ZM61.4258 153.633L63.1055 148.066H65.1758L64.1992 153.633H61.4258Z" fill="#121212"/>
<path d="M244.805 197.516L243.125 203.082H241.055L242.031 197.516H244.805ZM240.469 197.516L238.789 203.082H236.719L237.695 197.516H240.469Z" fill="#121212"/>
<path d="M62.4893 104.254H64V112.837C64 115.145 62.6387 116.439 60.5469 116.439C58.5547 116.439 57.1104 115.294 57.1104 113.435H58.5879C58.5879 114.447 59.418 115.111 60.5469 115.111C61.792 115.111 62.4893 114.331 62.4893 112.837V104.254ZM69.9892 116.456C67.5321 116.456 65.872 114.613 65.872 111.808C65.872 109.002 67.5321 107.143 69.9892 107.143C72.4296 107.143 74.0732 109.002 74.0732 111.808C74.0732 114.613 72.4296 116.456 69.9892 116.456ZM69.9892 115.194C71.7987 115.194 72.6454 113.601 72.6454 111.808C72.6454 110.015 71.7987 108.404 69.9892 108.404C68.1464 108.404 67.2997 110.015 67.2997 111.808C67.2997 113.601 68.1464 115.194 69.9892 115.194ZM77.2069 110.861V116.273H75.7791V104.254H77.2069V108.67H77.3231C77.7381 107.74 78.5516 107.143 79.9793 107.143C81.8221 107.143 83.0506 108.238 83.0506 110.546V116.273H81.6229V110.646C81.6229 109.234 80.8426 108.421 79.5477 108.421C78.203 108.421 77.2069 109.301 77.2069 110.861ZM86.5994 110.861V116.273H85.1716V107.259H86.5496V108.67H86.6658C87.0974 107.757 87.9275 107.143 89.3054 107.143C91.1316 107.143 92.3435 108.255 92.3435 110.546V116.273H90.9158V110.646C90.9158 109.251 90.1521 108.421 88.8738 108.421C87.5623 108.421 86.5994 109.301 86.5994 110.861ZM100.636 102.561V117.967H99.4078V102.561H100.636ZM119.77 102.859V117.618H118.508V109.932H116.45V116.888H115.221V103.225H116.45V108.853H118.508V102.859H119.77ZM113.694 104.652C113.677 108.471 112.515 112.106 108.016 114.563L107.236 113.634C109.543 112.372 110.913 110.812 111.652 109.035L107.435 109.483L107.236 108.338L112.017 108.022C112.225 107.284 112.341 106.52 112.399 105.731H107.966V104.652H113.694ZM135.471 108.753V109.849H133.08V117.618H131.786V102.859H133.08V108.753H135.471ZM123.568 104.32V112.771C125.726 112.762 127.926 112.596 130.358 112.09L130.524 113.202C127.984 113.717 125.693 113.866 123.452 113.866H122.273V104.32H123.568ZM147.603 102.859V108.703H150.076V109.799H147.603V117.651H146.308V102.859H147.603ZM143.718 104.304V105.383H138.123V112.854C140.796 112.854 142.689 112.729 144.88 112.322L145.046 113.451C142.739 113.866 140.796 113.949 137.991 113.949H136.828V104.304H143.718Z" fill="#121212"/>
</svg>
