<svg width="566" height="366" viewBox="0 0 566 366" fill="none" xmlns="http://www.w3.org/2000/svg">
<path d="M0.0625 32.2187C0.0625 14.5456 14.3894 0.21875 32.0625 0.21875L533.985 0.21875C551.658 0.21875 565.985 14.5456 565.985 32.2188V365.32H32.0625C14.3894 365.32 0.0625 350.993 0.0625 333.32L0.0625 32.2187Z" fill="#00A695"/>
<rect x="57.0469" y="281.117" width="165.028" height="32.2148" rx="16.1074" fill="white" stroke="white"/>
<path d="M82.8799 290.192V296.717H75.7744V290.192H82.8799ZM77.584 291.67V295.239H81.0703V291.67H77.584ZM87.0967 289.196V292.566H89.1885V294.094H87.0967V297.663H85.2539V289.196H87.0967ZM87.3125 298.427V299.888H83.3281C83.6187 301.166 85.3203 302.37 87.9434 302.743L87.2793 304.154C84.9385 303.822 83.1538 302.818 82.2988 301.465C81.4272 302.818 79.6758 303.814 77.335 304.121L76.6543 302.727C79.3022 302.37 80.9624 301.199 81.2695 299.888H77.2686V298.427H87.3125ZM103.462 296.484V297.945H97.5185V299.257H101.802V304.021H91.3925V299.257H95.6923V297.945H89.7821V296.484H103.462ZM97.5185 289.18V290.524H102.117V291.985H97.6513C97.8671 293.214 99.6352 294.227 102.781 294.442L102.25 295.804C99.5356 295.596 97.5434 294.799 96.6054 293.529C95.6591 294.799 93.6669 295.596 90.9775 295.804L90.4296 294.442C93.5922 294.227 95.3354 293.214 95.5595 291.985H91.1269V290.524H95.6923V289.18H97.5185ZM93.2187 300.734V302.527H100.009V300.734H93.2187ZM112.722 290.69V292.151H104.338V290.69H107.691V289.063H109.534V290.69H112.722ZM108.588 292.749C110.63 292.749 112.091 293.878 112.107 295.555C112.091 297.215 110.63 298.327 108.588 298.327C106.546 298.327 105.101 297.215 105.118 295.555C105.101 293.878 106.546 292.749 108.588 292.749ZM108.588 294.127C107.525 294.127 106.828 294.658 106.845 295.555C106.828 296.435 107.525 296.949 108.588 296.949C109.65 296.949 110.381 296.435 110.381 295.555C110.381 294.658 109.65 294.127 108.588 294.127ZM116.872 289.196V298.809H115.029V297.049H112.805V295.571H115.029V294.094H112.821V292.6H115.029V289.196H116.872ZM111.825 298.975C114.996 298.975 116.955 299.938 116.955 301.581C116.955 303.208 114.996 304.188 111.825 304.188C108.654 304.188 106.695 303.208 106.695 301.581C106.695 299.938 108.654 298.975 111.825 298.975ZM111.825 300.386C109.8 300.386 108.638 300.784 108.638 301.581C108.638 302.361 109.8 302.776 111.825 302.776C113.834 302.776 114.979 302.361 114.979 301.581C114.979 300.784 113.834 300.386 111.825 300.386ZM124.833 302.727H122.525L126.758 290.707H129.415L133.665 302.727H131.357L130.361 299.755H125.829L124.833 302.727ZM126.41 298.012H129.78L128.136 293.164H128.037L126.41 298.012ZM137.081 290.707V302.727H134.922V290.707H137.081ZM146.652 289.678C148.926 289.678 150.62 291.089 150.636 293.064C150.62 295.057 148.926 296.451 146.652 296.451C144.361 296.451 142.667 295.057 142.667 293.064C142.667 291.089 144.361 289.678 146.652 289.678ZM146.652 291.205C145.39 291.205 144.46 291.919 144.46 293.064C144.46 294.227 145.39 294.957 146.652 294.957C147.914 294.957 148.843 294.227 148.843 293.064C148.843 291.919 147.914 291.205 146.652 291.205ZM154.903 289.196V296.783H153.043V289.196H154.903ZM154.903 297.431V301.349H146.785V302.561H155.351V304.021H144.975V299.987H153.06V298.875H144.942V297.431H154.903ZM169.492 289.196V298.111H167.649V294.442H165.092V292.932H167.649V289.196H169.492ZM164.411 298.493C167.599 298.493 169.541 299.539 169.541 301.349C169.541 303.158 167.599 304.204 164.411 304.204C161.241 304.204 159.298 303.158 159.315 301.349C159.298 299.539 161.241 298.493 164.411 298.493ZM164.411 299.904C162.32 299.904 161.141 300.402 161.141 301.349C161.141 302.278 162.32 302.776 164.411 302.776C166.503 302.776 167.699 302.278 167.699 301.349C167.699 300.402 166.503 299.904 164.411 299.904ZM162.436 291.77C162.436 293.596 163.648 295.438 165.972 296.219L165.042 297.68C163.374 297.115 162.187 295.97 161.539 294.559C160.875 296.161 159.622 297.439 157.837 298.078L156.874 296.617C159.282 295.787 160.56 293.762 160.56 291.786V291.67H157.439V290.176H165.54V291.67H162.436V291.77ZM187.845 289.196V304.204H185.986V289.196H187.845ZM183.363 290.79C183.363 295.256 181.636 299.058 176.373 301.548L175.41 300.07C179.337 298.203 181.163 295.663 181.487 292.251H176.174V290.79H183.363ZM201.969 293.098V294.592H191.609V289.462H193.452V293.098H201.969ZM203.529 296.036V297.53H189.833V296.036H203.529ZM196.656 298.609C199.894 298.626 201.836 299.622 201.853 301.382C201.836 303.142 199.894 304.138 196.656 304.138C193.386 304.138 191.427 303.142 191.427 301.382C191.427 299.622 193.386 298.626 196.656 298.609ZM196.656 300.054C194.465 300.07 193.286 300.485 193.303 301.382C193.286 302.245 194.465 302.727 196.656 302.727C198.798 302.727 199.993 302.245 200.01 301.382C199.993 300.485 198.798 300.07 196.656 300.054Z" fill="#00A695"/>
<rect x="57.0469" y="236.074" width="258.093" height="32.2148" rx="16.1074" fill="white" stroke="white"/>
<path d="M87.0967 244.149V248.366H89.2051V249.894H87.0967V255.007H85.2539V244.149H87.0967ZM82.6143 245.395V246.872H77.7168V250.956C80.5391 250.964 82.1079 250.865 83.8926 250.491L84.0918 251.985C82.1328 252.367 80.373 252.467 77.1025 252.467H75.8906V245.395H82.6143ZM87.6943 257.364V258.858H77.4844V253.861H79.3271V257.364H87.6943ZM102.731 244.149V259.157H100.972V244.149H102.731ZM99.6269 244.515V258.443H97.8671V253.43H95.5263V251.919H97.8671V249.694H95.7919C95.0863 252.185 93.5175 254.326 90.7118 255.986L89.6327 254.675C92.7455 252.84 94.1733 250.491 94.4472 247.47H90.4296V245.976H96.2734C96.2734 246.731 96.2236 247.47 96.1239 248.184H97.8671V244.515H99.6269ZM116.872 244.149V251.902H115.029V250.275H112.008V251.421H104.985V244.813H106.828V246.706H110.181V244.813H112.008V246.142H115.029V244.149H116.872ZM116.872 252.517V256.368H108.837V257.514H117.353V258.975H106.994V255.007H115.029V253.961H106.977V252.517H116.872ZM106.828 249.96H110.181V248.117H106.828V249.96ZM112.008 248.864H115.029V247.536H112.008V248.864ZM124.833 257.68H122.525L126.758 245.66H129.415L133.665 257.68H131.357L130.361 254.708H125.829L124.833 257.68ZM126.41 252.965H129.78L128.136 248.117H128.037L126.41 252.965ZM134.922 257.68V245.66H139.438C142.194 245.66 143.671 247.204 143.671 249.495C143.671 251.13 142.924 252.342 141.513 252.915L144.103 257.68H141.696L139.338 253.28H137.081V257.68H134.922ZM137.081 251.471H139.106C140.733 251.471 141.463 250.773 141.463 249.495C141.463 248.217 140.733 247.47 139.106 247.47H137.081V251.471ZM156.364 246.208C156.364 248.532 158.638 250.856 161.776 251.404L160.946 252.948C158.431 252.417 156.372 250.898 155.401 248.881C154.405 250.881 152.346 252.409 149.839 252.948L149.026 251.404C152.13 250.84 154.388 248.516 154.405 246.208V245.096H156.364V246.208ZM162.324 255.721V257.248H148.611V255.721H162.324ZM169.591 245.079V246.557H165.474V247.935H169.442V249.379H165.474V250.873C167.308 250.856 168.578 250.773 170.039 250.508L170.239 251.985C168.479 252.301 167.018 252.367 164.694 252.351H163.698V245.079H169.591ZM175.966 244.166V252.998H174.206V249.346H172.646V252.849H170.919V244.448H172.646V247.835H174.206V244.166H175.966ZM175.966 253.646V258.975H165.839V253.646H175.966ZM167.682 255.09V257.48H174.14V255.09H167.682ZM191.368 255.804V257.348H177.656V255.804H191.368ZM190.173 245.544V247.021H187.982V251.803H190.123V253.264H178.834V251.803H180.943V247.021H178.784V245.544H190.173ZM182.785 251.803H186.156V247.021H182.785V251.803ZM203.978 245.561V255.505H196.839V245.561H203.978ZM198.665 247.005V254.027H202.185V247.005H198.665ZM208.526 244.149V259.174H206.667V244.149H208.526ZM216.026 246.806C216.026 248.914 217.205 250.989 219.513 251.853L218.483 253.28C216.881 252.649 215.736 251.396 215.113 249.844C214.466 251.504 213.254 252.824 211.527 253.496L210.531 252.035C212.922 251.172 214.15 249.047 214.167 246.806V245.013H216.026V246.806ZM223.132 244.166V255.306H221.289V250.657H218.55V249.18H221.289V247.702H218.55V246.208H221.289V244.166H223.132ZM223.464 257.364V258.858H213.237V254.21H215.113V257.364H223.464ZM241.153 245.478V246.839C241.137 248.665 241.17 250.757 240.489 253.928L238.68 253.745C238.937 252.542 239.095 251.471 239.194 250.508L230.346 251.006L230.08 249.429L239.294 249.097C239.327 248.316 239.335 247.619 239.344 246.972H230.545V245.478H241.153ZM242.631 255.787V257.314H228.951V255.787H233.998V252.085H235.824V255.787H242.631ZM251.226 246.208C251.226 248.532 253.501 250.856 256.638 251.404L255.808 252.948C253.293 252.417 251.235 250.898 250.263 248.881C249.267 250.881 247.209 252.409 244.702 252.948L243.888 251.404C246.993 250.84 249.251 248.516 249.267 246.208V245.096H251.226V246.208ZM257.186 255.721V257.248H243.473V255.721H257.186ZM274.776 244.149V259.157H273.016V244.149H274.776ZM271.721 244.432V258.427H269.978V250.873H267.82V249.379H269.978V244.432H271.721ZM266.492 248.25C266.492 250.79 267.405 253.33 269.547 254.559L268.451 255.92C267.065 255.09 266.143 253.662 265.629 251.952C265.097 253.803 264.143 255.38 262.723 256.269L261.594 254.891C263.769 253.579 264.715 250.856 264.715 248.25V247.254H262.109V245.76H268.916V247.254H266.492V248.25ZM283.139 253.529C286.393 253.546 288.452 254.575 288.468 256.352C288.452 258.095 286.393 259.141 283.139 259.141C279.902 259.141 277.827 258.095 277.827 256.352C277.827 254.575 279.902 253.546 283.139 253.529ZM283.139 254.924C280.981 254.924 279.669 255.438 279.686 256.352C279.669 257.231 280.981 257.713 283.139 257.713C285.314 257.713 286.626 257.231 286.642 256.352C286.626 255.438 285.314 254.924 283.139 254.924ZM288.369 244.863V246.108C288.369 247.287 288.369 248.549 287.954 250.093L286.128 249.927C286.501 248.466 286.526 247.412 286.526 246.324H277.976V244.863H288.369ZM290.029 250.956V252.45H276.416V250.956H281.695V248.233H283.521V250.956H290.029Z" fill="#00A695"/>
<rect x="57.0469" y="191.031" width="371" height="32.2148" rx="16.1074" fill="white" stroke="white"/>
<path d="M80.6387 200.621V212.641H78.4639V202.729H78.3975L75.5918 204.522V202.547L78.5635 200.621H80.6387ZM95.3935 199.127V209.968H93.5341V199.127H95.3935ZM95.8085 212.325V213.819H85.4657V208.872H87.3251V212.325H95.8085ZM87.2089 200.106C89.4833 200.106 91.2431 201.684 91.2431 203.858C91.2431 206.083 89.4833 207.627 87.2089 207.627C84.9179 207.627 83.1581 206.083 83.1581 203.858C83.1581 201.684 84.9179 200.106 87.2089 200.106ZM87.2089 201.717C85.9306 201.717 84.9511 202.563 84.9677 203.858C84.9511 205.187 85.9306 206.017 87.2089 206.017C88.454 206.017 89.4335 205.187 89.4335 203.858C89.4335 202.563 88.454 201.717 87.2089 201.717ZM106.313 200.787V202.248H103.109C103.118 203.917 104.429 205.552 106.828 206.183L105.965 207.61C104.222 207.154 102.943 206.125 102.246 204.805C101.565 206.274 100.287 207.428 98.494 207.959L97.5975 206.531C99.9798 205.834 101.258 204.049 101.266 202.248H98.0623V200.787H101.266V199.127H103.126V200.787H106.313ZM109.916 199.127V208.225H108.056V199.127H109.916ZM104.836 208.49C107.99 208.49 109.949 209.52 109.949 211.296C109.949 213.072 107.99 214.102 104.836 214.102C101.648 214.102 99.7059 213.072 99.7059 211.296C99.7059 209.52 101.648 208.49 104.836 208.49ZM104.836 209.918C102.711 209.918 101.565 210.416 101.565 211.296C101.565 212.192 102.711 212.674 104.836 212.674C106.944 212.674 108.123 212.192 108.139 211.296C108.123 210.416 106.944 209.918 104.836 209.918ZM121.479 202.713C121.463 205.469 122.907 208.225 125.347 209.271L124.252 210.748C122.525 209.951 121.255 208.357 120.566 206.398C119.877 208.515 118.591 210.242 116.764 211.097L115.635 209.553C118.142 208.474 119.603 205.602 119.603 202.713V200.322H121.479V202.713ZM128.286 199.11V214.135H126.426V199.11H128.286ZM142.891 199.11V207.826H141.048V204.19H138.459V202.68H141.048V199.11H142.891ZM142.891 208.474V213.936H132.914V208.474H142.891ZM134.756 209.935V212.441H141.082V209.935H134.756ZM135.836 201.584C135.836 203.394 137.047 205.236 139.372 206.033L138.442 207.494C136.765 206.921 135.578 205.784 134.922 204.373C134.258 205.934 133.005 207.187 131.237 207.776L130.291 206.332C132.681 205.535 133.96 203.56 133.96 201.567V201.451H130.838V199.957H138.94V201.451H135.836V201.584ZM148.843 205.27L150.238 200.621H151.815L150.952 205.27H148.843ZM165.341 208.689V214.118H163.498V210.15H155.115V208.689H165.341ZM165.341 199.11V207.976H163.498V205.983H159.979C159.265 206.78 158.186 207.262 156.941 207.262C154.683 207.262 152.973 205.734 152.973 203.576C152.973 201.451 154.683 199.924 156.941 199.94C158.178 199.932 159.257 200.397 159.962 201.186H163.498V199.11H165.341ZM156.941 201.501C155.646 201.501 154.733 202.331 154.733 203.576C154.733 204.871 155.646 205.685 156.941 205.701C158.169 205.685 159.099 204.871 159.116 203.576C159.099 202.331 158.169 201.501 156.941 201.501ZM160.759 204.489H163.498V202.696H160.776C160.834 202.979 160.875 203.269 160.875 203.576C160.875 203.892 160.834 204.199 160.759 204.489ZM172.658 202.713C172.642 205.386 173.987 208.108 176.311 209.221L175.182 210.698C173.555 209.876 172.385 208.291 171.745 206.382C171.09 208.424 169.861 210.117 168.143 210.98L167.014 209.503C169.421 208.357 170.799 205.485 170.816 202.713V200.322H172.658V202.713ZM179.05 199.11V204.987H181.358V206.564H179.05V214.118H177.207V199.11H179.05ZM199.362 206.481V207.976H185.683V206.481H191.593V204.39H193.419V206.481H199.362ZM193.436 199.924C193.436 201.75 195.444 203.41 198.582 203.809L197.868 205.253C195.403 204.871 193.444 203.759 192.489 202.182C191.526 203.759 189.567 204.871 187.094 205.253L186.43 203.809C189.518 203.41 191.56 201.717 191.56 199.924V199.359H193.436V199.924ZM197.686 209.171V214.118H195.843V210.615H187.193V209.171H197.686ZM216.57 199.127V209.968H214.711V199.127H216.57ZM216.985 212.325V213.819H206.643V208.872H208.502V212.325H216.985ZM208.386 200.106C210.66 200.106 212.42 201.684 212.42 203.858C212.42 206.083 210.66 207.627 208.386 207.627C206.095 207.627 204.335 206.083 204.335 203.858C204.335 201.684 206.095 200.106 208.386 200.106ZM208.386 201.717C207.107 201.717 206.128 202.563 206.144 203.858C206.128 205.187 207.107 206.017 208.386 206.017C209.631 206.017 210.61 205.187 210.61 203.858C210.61 202.563 209.631 201.717 208.386 201.717ZM232.271 205.203V206.664H226.328V207.793H230.561V211.479H222.028V212.574H230.976V213.985H220.219V210.15H228.752V209.188H220.202V207.793H224.485V206.664H218.592V205.203H232.271ZM230.512 199.575V204.257H220.318V199.575H230.512ZM222.128 201.02V202.812H228.669V201.02H222.128ZM245.598 199.11V214.135H243.739V199.11H245.598ZM237.513 200.206C239.771 200.206 241.415 202.265 241.431 205.502C241.415 208.772 239.771 210.814 237.513 210.814C235.239 210.814 233.596 208.772 233.596 205.502C233.596 202.265 235.239 200.206 237.513 200.206ZM237.513 201.866C236.235 201.866 235.372 203.211 235.372 205.502C235.372 207.81 236.235 209.154 237.513 209.154C238.775 209.154 239.638 207.81 239.638 205.502C239.638 203.211 238.775 201.866 237.513 201.866ZM260.432 205.336V206.83H257.394V209.453C258.706 209.395 260.017 209.304 261.262 209.171L261.412 210.532C258.108 211.03 254.638 211.063 251.799 211.063L251.567 209.536C252.804 209.544 254.157 209.544 255.551 209.503V206.83H252.613V200.488H260.366V201.949H254.439V205.336H260.432ZM264.002 199.11V214.135H262.159V199.11H264.002ZM270.124 200.206C272.157 200.206 273.66 201.899 273.925 204.639H276.781V199.11H278.607V214.135H276.781V206.133H273.942C273.743 209.03 272.215 210.814 270.124 210.814C267.866 210.814 266.272 208.772 266.272 205.502C266.272 202.265 267.866 200.206 270.124 200.206ZM270.124 201.866C268.878 201.866 268.032 203.211 268.048 205.502C268.032 207.81 268.878 209.154 270.124 209.154C271.369 209.154 272.199 207.81 272.215 205.502C272.199 203.211 271.369 201.866 270.124 201.866ZM296.446 199.691V200.837C296.446 201.958 296.446 203.286 296.114 204.954H298.122V206.432H292.146V208.424C294.877 208.615 296.512 209.627 296.529 211.246C296.512 213.072 294.52 214.102 291.249 214.102C287.946 214.102 285.937 213.072 285.937 211.246C285.937 209.627 287.572 208.615 290.32 208.44V206.432H284.41V204.954H294.254C294.57 203.41 294.603 202.231 294.603 201.169H286.103V199.691H296.446ZM291.249 209.885C289.025 209.885 287.796 210.35 287.813 211.246C287.796 212.159 289.025 212.624 291.249 212.624C293.424 212.624 294.653 212.159 294.669 211.246C294.653 210.35 293.424 209.885 291.249 209.885ZM311.616 199.11V207.544H309.773V206.813H306.701V205.585H309.773V199.11H311.616ZM298.866 203.858C300.683 203.858 302.925 203.833 305.174 203.692C305.373 202.638 305.448 201.792 305.473 201.136H300.293V199.675H307.283V200.173C307.283 200.845 307.283 202.016 307 203.543C307.565 203.493 308.129 203.435 308.677 203.36L308.81 204.622C307.374 204.871 305.871 205.029 304.41 205.12V207.544H302.601V205.203C301.339 205.261 300.152 205.27 299.098 205.286L298.866 203.858ZM311.616 208.025V211.595H303.082V212.624H312.13V213.985H301.273V210.333H309.789V209.387H301.24V208.025H311.616ZM324.955 199.99V201.501H319.776V202.896H324.656V204.373H319.776V205.851C322.374 205.842 323.992 205.776 325.819 205.436L326.018 206.896C323.976 207.245 322.199 207.312 319.128 207.295H317.933V199.99H324.955ZM329.155 208.606V213.936H319.46V208.606H329.155ZM321.286 210.051V212.441H327.329V210.051H321.286ZM329.155 199.11V202.696H331.247V204.224H329.155V207.909H327.313V199.11H329.155ZM338.797 208.374C341.901 208.374 343.811 209.42 343.827 211.229C343.811 213.056 341.901 214.118 338.797 214.118C335.659 214.118 333.717 213.056 333.717 211.229C333.717 209.42 335.659 208.374 338.797 208.374ZM338.797 209.818C336.738 209.818 335.56 210.3 335.56 211.229C335.56 212.159 336.738 212.657 338.797 212.657C340.856 212.657 342.001 212.159 342.001 211.229C342.001 210.3 340.856 209.818 338.797 209.818ZM343.678 199.11V202.696H345.77V204.24H343.678V208.009H341.835V199.11H343.678ZM334.182 200.057V202.082H337.685V200.057H339.511V207.062H332.356V200.057H334.182ZM334.182 205.602H337.685V203.526H334.182V205.602ZM358.117 199.11V205.087H360.425V206.614H358.117V214.118H356.291V199.11H358.117ZM355.129 201.418V202.896H346.28V201.418H349.833V199.326H351.676V201.418H355.129ZM350.763 203.875C352.921 203.875 354.531 205.336 354.531 207.411C354.531 209.486 352.921 210.931 350.763 210.931C348.571 210.931 346.961 209.486 346.978 207.411C346.961 205.336 348.571 203.875 350.763 203.875ZM350.763 205.386C349.584 205.386 348.737 206.183 348.737 207.411C348.737 208.64 349.584 209.42 350.763 209.403C351.908 209.42 352.755 208.64 352.771 207.411C352.755 206.183 351.908 205.386 350.763 205.386ZM373.42 199.11V214.118H371.56V199.11H373.42ZM368.937 200.704C368.937 205.17 367.211 208.972 361.948 211.462L360.985 209.984C364.912 208.117 366.738 205.577 367.061 202.165H361.749V200.704H368.937ZM378.513 200.638L377.118 205.286H375.541L376.404 200.638H378.513ZM389.445 200.837V202.298H385.593V204.871H388.814V206.299H385.593V209.204C387.378 209.188 388.607 209.104 390.076 208.855L390.242 210.333C388.515 210.665 387.088 210.698 384.813 210.698H383.834V200.837H389.445ZM396.285 199.11V214.118H394.492V199.11H396.285ZM393.131 199.409V213.388H391.404V206.149H389.545V204.655H391.404V199.409H393.131ZM405.495 200.571V210.399H398.389V200.571H405.495ZM400.199 202.016V208.922H403.652V202.016H400.199ZM409.612 199.11V204.871H411.92V206.432H409.612V214.118H407.769V199.11H409.612Z" fill="#00A695"/>
<path d="M67.2109 118.367V120.359H65.6289V128.113C66.3516 128.055 67.0547 127.986 67.7383 127.898L67.875 129.695C64.2422 130.34 60.1602 130.398 57.1133 130.418L56.8398 128.387L58.8711 128.367V120.359H57.2891V118.367H67.2109ZM71.0977 116.727V123.484H73.7148V125.516H71.0977V134.5H68.5977V116.727H71.0977ZM61.2734 128.328L63.2266 128.25V120.359H61.2734V128.328ZM89.3352 116.746V134.5H86.7961V130.574H83.1828V128.699H86.7961V116.746H89.3352ZM74.0812 125.75C77.4016 125.75 81.8352 125.73 85.6633 125.223L85.8 127.039C84.2375 127.322 82.6262 127.498 81.0539 127.605V133.973H78.5344V127.723C77.0598 127.771 75.6633 127.781 74.3937 127.781L74.0812 125.75ZM79.9016 117.449C82.5187 117.449 84.4523 118.973 84.4719 121.102C84.4523 123.289 82.5187 124.734 79.9016 124.734C77.2453 124.734 75.3312 123.289 75.3312 121.102C75.3312 118.973 77.2453 117.449 79.9016 117.449ZM79.9016 119.344C78.5734 119.344 77.675 120.027 77.675 121.102C77.675 122.215 78.5734 122.84 79.9016 122.84C81.1906 122.84 82.0891 122.215 82.1086 121.102C82.0891 120.027 81.1906 119.344 79.9016 119.344ZM101.963 118.562H104.873V128.426C104.873 131.18 102.939 132.898 100.088 132.898C97.5289 132.898 95.5172 131.551 95.5367 128.758H98.4664C98.4859 129.871 99.1695 130.535 100.224 130.535C101.338 130.535 101.963 129.812 101.963 128.426V118.562ZM120.723 118.367V120.34H110.84V118.367H114.668V116.57H117.148V118.367H120.723ZM115.879 120.926C118.32 120.945 120.078 122.293 120.098 124.266C120.078 126.258 118.32 127.586 115.879 127.566C113.418 127.586 111.699 126.258 111.719 124.266C111.699 122.293 113.418 120.945 115.879 120.926ZM115.879 122.781C114.746 122.781 114.023 123.309 114.043 124.266C114.023 125.223 114.746 125.73 115.879 125.73C116.992 125.73 117.773 125.223 117.773 124.266C117.773 123.309 116.992 122.781 115.879 122.781ZM125.781 116.727V128.055H123.301V126.18H120.879V124.188H123.301V122.625H120.918V120.633H123.301V116.727H125.781ZM119.746 128.27C123.516 128.27 125.879 129.422 125.879 131.395C125.879 133.328 123.516 134.5 119.746 134.5C115.957 134.5 113.613 133.328 113.613 131.395C113.613 129.422 115.957 128.27 119.746 128.27ZM119.746 130.145C117.48 130.164 116.23 130.555 116.23 131.395C116.23 132.195 117.48 132.625 119.746 132.625C121.973 132.625 123.203 132.195 123.203 131.395C123.203 130.555 121.973 130.164 119.746 130.145ZM142.378 116.922V134.324H140.835V116.922H142.378ZM133.14 118.27C135.718 118.289 137.573 120.633 137.573 124.324C137.573 128.016 135.718 130.359 133.14 130.359C130.542 130.359 128.706 128.016 128.706 124.324C128.706 120.633 130.542 118.289 133.14 118.27ZM133.14 119.637C131.402 119.656 130.191 121.492 130.191 124.324C130.191 127.156 131.402 128.992 133.14 128.992C134.878 128.992 136.089 127.156 136.089 124.324C136.089 121.492 134.878 119.656 133.14 119.637ZM158.584 116.922V123.836H161.495V125.125H158.584V134.324H157.061V116.922H158.584ZM153.721 118.543V124.754H147.393V128.816C150.616 128.816 152.862 128.709 155.498 128.211L155.655 129.48C152.92 129.988 150.596 130.105 147.256 130.125H145.87V123.484H152.198V119.812H145.83V118.543H153.721ZM165.084 131.395L163.56 136.707H162.115L163.189 131.395H165.084ZM186.285 116.941V130.125H184.742V128.328H181.148V127.215H184.742V116.941H186.285ZM186.715 132.625V133.914H174.371V128.836H175.914V132.625H186.715ZM171.871 124.988C175.113 124.969 179.449 124.949 183.18 124.48L183.277 125.594C181.725 125.838 180.104 125.994 178.512 126.082V129.52H176.969V126.16C175.211 126.238 173.541 126.248 172.086 126.238L171.871 124.988ZM177.574 117.645C180.113 117.645 181.852 118.855 181.871 120.672C181.852 122.527 180.113 123.68 177.574 123.68C175.016 123.68 173.277 122.527 173.277 120.672C173.277 118.855 175.016 117.645 177.574 117.645ZM177.574 118.816C175.875 118.797 174.723 119.559 174.742 120.672C174.723 121.805 175.875 122.547 177.574 122.547C179.215 122.547 180.387 121.805 180.406 120.672C180.387 119.559 179.215 118.797 177.574 118.816ZM209.772 130.828V132.137H193.873V130.828H201.002V126.824H195.319V125.594H198.034V119.891H195.28V118.621H208.248V119.891H205.495V125.594H208.209V126.824H202.506V130.828H209.772ZM199.557 125.594H203.991V119.891H199.557V125.594ZM225.295 116.941V129.637H223.771V116.941H225.295ZM225.841 132.625V133.914H214.084V128.348H215.607V132.625H225.841ZM215.92 118.152C218.517 118.152 220.47 119.91 220.47 122.41C220.47 124.949 218.517 126.688 215.92 126.688C213.322 126.688 211.369 124.949 211.369 122.41C211.369 119.91 213.322 118.152 215.92 118.152ZM215.92 119.5C214.162 119.5 212.853 120.711 212.873 122.41C212.853 124.148 214.162 125.34 215.92 125.34C217.638 125.34 218.966 124.148 218.966 122.41C218.966 120.711 217.638 119.5 215.92 119.5ZM242.106 126.316V127.566H230.095V118.426H241.911V119.715H231.657V122.293H241.54V123.523H231.657V126.316H242.106ZM243.942 130.75V132.02H228.044V130.75H243.942ZM250.222 129.812V128.367L256.589 118.562H258.757V128.27H260.73V129.812H258.757V132.703H257.077V129.812H250.222ZM252.116 128.27H257.077V120.789H256.902L252.116 128.152V128.27ZM277.073 116.922V134.285H275.608V125.184H273.049V133.387H271.643V117.312H273.049V123.914H275.608V116.922H277.073ZM269.377 119.051V120.32H264.397V128.68C266.789 128.67 268.45 128.582 270.373 128.191L270.51 129.48C268.42 129.91 266.643 129.988 263.987 129.988H262.873V119.051H269.377ZM297.942 117.684V118.914C297.942 120.223 297.942 121.824 297.512 123.895H300.032V125.145H292.786V127.879C296.106 128.016 298.079 129.148 298.098 131.043C298.079 133.113 295.813 134.246 292.044 134.246C288.235 134.246 285.95 133.113 285.95 131.043C285.95 129.148 287.932 128.025 291.282 127.879V125.145H284.134V123.895H295.97C296.419 121.785 296.419 120.252 296.419 118.934H286.145V117.684H297.942ZM292.044 129.09C289.212 129.109 287.493 129.812 287.512 131.043C287.493 132.293 289.212 133.016 292.044 133.016C294.817 133.016 296.536 132.293 296.555 131.043C296.536 129.812 294.817 129.109 292.044 129.09ZM315.594 116.922V126.785H314.07V125.652H310.203V124.559H314.07V116.922H315.594ZM301.121 122.645C303.357 122.645 306.141 122.615 308.895 122.43C309.197 120.906 309.275 119.734 309.305 118.914H302.82V117.684H310.789V118.133C310.789 118.875 310.789 120.35 310.438 122.293C311.141 122.234 311.844 122.156 312.527 122.059L312.625 123.152C310.896 123.455 309.07 123.621 307.293 123.719V126.785H305.77V123.797C304.168 123.855 302.654 123.865 301.336 123.875L301.121 122.645ZM315.594 127.41V131.219H305.438V132.918H316.258V134.09H303.953V130.125H314.07V128.582H303.914V127.41H315.594ZM339.002 127.449V128.719H331.776V134.285H330.272V128.719H323.104V127.449H339.002ZM337.205 124.402V125.652H325.233V117.742H337.01V118.992H326.756V121.023H336.6V122.254H326.756V124.402H337.205ZM344.877 118.27C347.24 118.289 348.939 120.311 349.193 123.562H353.08V116.922H354.603V134.324H353.08V124.832H349.212C349.027 128.23 347.298 130.359 344.877 130.359C342.318 130.359 340.521 128.016 340.521 124.324C340.521 120.633 342.318 118.289 344.877 118.27ZM344.877 119.637C343.158 119.656 341.986 121.492 341.986 124.324C341.986 127.156 343.158 128.992 344.877 128.992C346.576 128.992 347.767 127.156 347.767 124.324C347.767 121.492 346.576 119.656 344.877 119.637ZM375.551 116.922V123.992H378.363V125.281H375.551V134.285H374.027V116.922H375.551ZM371.059 118.797C371.059 123.719 368.754 128.191 363.09 130.984L362.23 129.773C366.723 127.537 369.164 124.197 369.516 120.086H363.031V118.797H371.059ZM393.554 116.922V134.285H392.011V116.922H393.554ZM388.417 118.816C388.398 123.816 386.073 128.23 380.253 131.023L379.413 129.773C384.111 127.547 386.503 124.217 386.855 120.066H380.214V118.816H388.417ZM415.498 116.941V129.676H413.955V123.016H410.38V121.746H413.955V116.941H415.498ZM415.986 132.625V133.914H404.345V128.523H405.888V132.625H415.986ZM407.138 120.516C407.138 122.762 408.877 124.949 411.416 125.809L410.615 127.039C408.652 126.336 407.138 124.871 406.396 123.074C405.644 125.076 404.043 126.678 401.982 127.449L401.181 126.199C403.74 125.301 405.595 123.016 405.595 120.516V119.617H401.67V118.348H411.025V119.617H407.138V120.516ZM433.071 116.922V134.285H431.587V116.922H433.071ZM429.575 117.293V133.406H428.11V124.969H425.884C425.718 128.348 424.282 130.457 422.134 130.457C419.868 130.457 418.403 128.113 418.403 124.422C418.403 120.73 419.868 118.387 422.134 118.387C424.243 118.387 425.669 120.428 425.864 123.699H428.11V117.293H429.575ZM422.134 119.832C420.727 119.832 419.829 121.59 419.848 124.422C419.829 127.234 420.727 129.012 422.134 128.992C423.54 129.012 424.438 127.234 424.438 124.422C424.438 121.59 423.54 119.832 422.134 119.832ZM454.097 117.684V118.426C454.097 119.48 454.097 121.258 453.589 123.621L452.105 123.484C452.534 121.414 452.603 119.939 452.612 118.914H448.218V117.684H454.097ZM455.913 124.891V126.18H440.112V124.891H447.593V121.57H449.116V124.891H455.913ZM446.773 117.684V118.27C446.773 119.227 446.773 121.121 445.972 123.621L444.507 123.426C445.122 121.385 445.239 119.91 445.269 118.914H441.48V117.684H446.773ZM453.941 128.094V134.051H442.066V128.094H453.941ZM443.57 129.285V132.801H452.417V129.285H443.57ZM471.182 117.684V118.426C471.182 119.48 471.182 121.258 470.674 123.621L469.19 123.484C469.62 121.414 469.688 119.939 469.698 118.914H465.303V117.684H471.182ZM472.998 124.891V126.18H457.198V124.891H464.678V121.57H466.202V124.891H472.998ZM463.858 117.684V118.27C463.858 119.227 463.858 121.121 463.057 123.621L461.592 123.426C462.207 121.385 462.325 119.91 462.354 118.914H458.565V117.684H463.858ZM471.026 128.094V134.051H459.151V128.094H471.026ZM460.655 129.285V132.801H469.502V129.285H460.655ZM488.58 116.922V134.285H487.037V116.922H488.58ZM485.162 119.754V121.004H474.654V119.754H479.127V117.098H480.67V119.754H485.162ZM479.947 122.43C482.447 122.43 484.244 124.07 484.244 126.414C484.244 128.758 482.447 130.398 479.947 130.398C477.427 130.398 475.611 128.758 475.63 126.414C475.611 124.07 477.427 122.43 479.947 122.43ZM479.947 123.719C478.287 123.719 477.076 124.852 477.076 126.414C477.076 127.996 478.287 129.109 479.947 129.09C481.587 129.109 482.779 127.996 482.779 126.414C482.779 124.852 481.587 123.719 479.947 123.719ZM72.1133 146.922V164.285H70.6484V146.922H72.1133ZM68.5977 147.391V163.406H67.1328V157.391H63.9102V156.121H67.1328V153.035H64.2031C63.3535 155.975 61.4492 158.572 58.168 160.535L57.2305 159.422C61.0098 157.186 62.9043 154.051 63.207 150.418H58.0117V149.148H64.7305C64.7305 150.037 64.6523 150.916 64.4961 151.766H67.1328V147.391H68.5977ZM85.2531 148.523V149.695H74.9992V148.523H79.3547V146.824H80.8781V148.523H85.2531ZM80.1359 150.359C82.6164 150.359 84.2766 151.355 84.2961 152.957C84.2766 154.373 82.9387 155.311 80.8781 155.477V156.629C82.4992 156.561 84.1398 156.434 85.6633 156.219L85.7805 157.312C81.9719 157.938 77.7727 157.996 74.6477 157.996L74.4133 156.766C75.8879 156.766 77.5871 156.756 79.3547 156.688V155.477C77.2844 155.301 75.9758 154.373 75.9953 152.957C75.9758 151.355 77.6164 150.359 80.1359 150.359ZM80.1359 151.453C78.5148 151.434 77.4406 152.02 77.4406 152.957C77.4406 153.855 78.5148 154.441 80.1359 154.422C81.7375 154.441 82.8117 153.855 82.8117 152.957C82.8117 152.02 81.7375 151.434 80.1359 151.453ZM88.6516 146.98V158.543H87.1086V146.98H88.6516ZM88.6516 159.363V164.285H87.1086V160.594H76.9328V159.363H88.6516ZM104.858 146.922V154.09H107.768V155.359H104.858V164.285H103.334V146.922H104.858ZM101.655 149.715V150.984H91.3227V149.715H95.7953V147.137H97.3187V149.715H101.655ZM96.5766 152.43C99.0375 152.43 100.815 154.07 100.834 156.414C100.815 158.758 99.0375 160.398 96.5766 160.398C94.0961 160.398 92.2992 158.758 92.3187 156.414C92.2992 154.07 94.0961 152.43 96.5766 152.43ZM96.5766 153.719C94.9555 153.719 93.7641 154.852 93.7836 156.414C93.7641 157.996 94.9555 159.109 96.5766 159.09C98.1781 159.109 99.35 157.996 99.3695 156.414C99.35 154.852 98.1781 153.719 96.5766 153.719ZM122.431 148.68V150.418C122.412 152.547 122.412 154.93 121.787 158.426L120.224 158.25C120.888 154.93 120.888 152.488 120.888 150.418V149.949H110.185V148.68H122.431ZM124.326 160.555V161.824H108.505V160.555H114.716V154.344H116.22V160.555H124.326ZM139.316 149.09C139.297 151.219 142.227 152.957 145.293 153.387L144.688 154.598C141.885 154.197 139.268 152.791 138.32 150.75C137.383 152.791 134.775 154.197 131.953 154.598L131.387 153.387C134.453 152.957 137.324 151.219 137.324 149.09V149.051H131.855V147.801H144.824V149.051H139.316V149.09ZM146.289 155.867V157.137H139.219V160.691H137.695V157.137H130.391V155.867H146.289ZM144.512 162.625V163.914H132.422V158.953H133.965V162.625H144.512ZM161.812 146.922V164.324H160.269V146.922H161.812ZM150.034 148.406V152.996H155.21V148.406H156.714V160.125H148.511V148.406H150.034ZM150.034 158.836H155.21V154.227H150.034V158.836ZM178.018 146.922V154.09H180.928V155.359H178.018V164.285H176.495V146.922H178.018ZM174.815 149.715V150.984H164.483V149.715H168.955V147.137H170.479V149.715H174.815ZM169.737 152.43C172.198 152.43 173.975 154.07 173.995 156.414C173.975 158.758 172.198 160.398 169.737 160.398C167.256 160.398 165.459 158.758 165.479 156.414C165.459 154.07 167.256 152.43 169.737 152.43ZM169.737 153.719C168.116 153.719 166.924 154.852 166.944 156.414C166.924 157.996 168.116 159.109 169.737 159.09C171.338 159.109 172.51 157.996 172.53 156.414C172.51 154.852 171.338 153.719 169.737 153.719ZM195.591 148.68V150.418C195.572 152.547 195.572 154.93 194.947 158.426L193.384 158.25C194.048 154.93 194.048 152.488 194.048 150.418V149.949H183.345V148.68H195.591ZM197.486 160.555V161.824H181.666V160.555H187.877V154.344H189.38V160.555H197.486ZM217.906 146.941V156.59H216.383V146.941H217.906ZM209.723 149.285C209.703 151.688 211.578 153.855 214.156 154.695L213.414 155.906C211.363 155.213 209.742 153.768 208.961 151.883C208.18 153.904 206.539 155.486 204.469 156.219L203.688 155.008C206.305 154.09 208.16 151.805 208.16 149.285V147.586H209.723V149.285ZM218.023 157.625V158.875H215.621V162.801H218.199V164.051H206.188V162.801H208.785V158.875H206.344V157.625H218.023ZM210.289 162.801H214.098V158.875H210.289V162.801ZM236.476 156.082V157.332H220.655V156.082H236.476ZM234.718 162.625V163.914H222.706V158.855H224.249V162.625H234.718ZM228.566 147.547C232.296 147.527 234.698 148.816 234.698 150.984C234.698 153.152 232.296 154.441 228.566 154.441C224.796 154.441 222.413 153.152 222.413 150.984C222.413 148.816 224.796 147.527 228.566 147.547ZM228.566 148.777C225.773 148.777 223.976 149.617 223.995 150.984C223.976 152.352 225.773 153.191 228.566 153.191C231.339 153.191 233.136 152.352 233.136 150.984C233.136 149.617 231.339 148.777 228.566 148.777ZM252.604 146.922V164.285H251.12V146.922H252.604ZM249.049 147.352V163.387H247.584V154.852H243.795V153.562H247.584V147.352H249.049ZM244.967 149.07V150.34H239.909V158.816C242.409 158.807 243.991 158.699 245.866 158.289L246.022 159.598C244.01 160.008 242.311 160.086 239.518 160.105H238.424V149.07H244.967ZM257.677 161.395L256.154 166.707H254.709L255.783 161.395H257.677ZM269.211 148.27C271.77 148.289 273.586 150.633 273.605 154.324C273.586 158.016 271.77 160.359 269.211 160.359C266.633 160.359 264.836 158.016 264.836 154.324C264.836 150.633 266.633 148.289 269.211 148.27ZM269.211 149.637C267.492 149.656 266.281 151.492 266.281 154.324C266.281 157.156 267.492 158.992 269.211 158.992C270.949 158.992 272.121 157.156 272.121 154.324C272.121 151.492 270.949 149.656 269.211 149.637ZM278 146.922V153.855H280.91V155.184H278V164.285H276.477V146.922H278ZM295.691 152.195V153.426H283.796V147.566H285.32V152.195H295.691ZM297.527 155.789V157.039H281.628V155.789H297.527ZM295.788 162.586V163.855H283.698V158.816H285.222V162.586H295.788ZM318.416 146.922V164.285H316.951V146.922H318.416ZM314.763 147.391V163.406H313.298V155.301H309.627C308.562 157.322 306.892 159.109 304.47 160.535L303.572 159.422C307.351 157.186 309.246 154.051 309.529 150.418H304.314V149.148H311.052C311.043 150.857 310.769 152.508 310.193 154.051H313.298V147.391H314.763ZM328.914 157.117V159.285H332.078V157.117H333.504V164.051H327.469V157.117H328.914ZM328.914 162.84H332.078V160.457H328.914V162.84ZM338.465 158.484C338.445 160.32 339.539 162.234 341.668 163.016L340.867 164.188C339.266 163.543 338.211 162.322 337.684 160.867C337.127 162.293 336.072 163.523 334.539 164.188L333.738 163.016C335.828 162.156 336.941 160.242 336.941 158.484V157H338.465V158.484ZM330.242 147.703C332.566 147.703 334.344 149.021 334.676 151.023H338.309V146.922H339.852V156.121H338.309V152.293H334.695C334.383 154.344 332.596 155.691 330.242 155.691C327.605 155.691 325.73 154.07 325.73 151.688C325.73 149.324 327.605 147.703 330.242 147.703ZM330.242 148.992C328.465 148.992 327.195 150.105 327.195 151.688C327.195 153.289 328.465 154.422 330.242 154.422C332 154.422 333.25 153.289 333.25 151.688C333.25 150.105 332 148.992 330.242 148.992ZM347.21 148.27C349.573 148.289 351.273 150.311 351.527 153.562H355.413V146.922H356.937V164.324H355.413V154.832H351.546C351.361 158.23 349.632 160.359 347.21 160.359C344.652 160.359 342.855 158.016 342.855 154.324C342.855 150.633 344.652 148.289 347.21 148.27ZM347.21 149.637C345.491 149.656 344.32 151.492 344.32 154.324C344.32 157.156 345.491 158.992 347.21 158.992C348.909 158.992 350.101 157.156 350.101 154.324C350.101 151.492 348.909 149.656 347.21 149.637ZM365.741 151.59C365.741 154.734 367.752 157.898 370.272 159.051L369.354 160.301C367.381 159.285 365.75 157.205 364.979 154.734C364.207 157.332 362.577 159.559 360.604 160.613L359.608 159.383C362.147 158.133 364.178 154.793 364.178 151.59V148.426H365.741V151.59ZM374.022 146.922V164.324H372.498V154.109H368.377V152.859H372.498V146.922H374.022ZM390.302 148.23V155.906H382.274V148.23H390.302ZM383.778 149.461V154.656H388.817V149.461H383.778ZM395.106 146.922V151.453H397.723V152.742H395.106V157.215H393.583V146.922H395.106ZM395.106 158.152V164.324H393.583V159.383H383.739V158.152H395.106ZM407.387 148.23V155.906H399.359V148.23H407.387ZM400.863 149.461V154.656H405.902V149.461H400.863ZM412.191 146.922V151.453H414.809V152.742H412.191V157.215H410.668V146.922H412.191ZM412.191 158.152V164.324H410.668V159.383H400.824V158.152H412.191ZM424.374 149.93V151.18H415.663V149.93H419.277V147.449H420.8V149.93H424.374ZM420.019 152.352C422.206 152.352 423.769 153.992 423.788 156.297C423.769 158.621 422.206 160.281 420.019 160.281C417.851 160.281 416.288 158.621 416.288 156.297C416.288 153.992 417.851 152.352 420.019 152.352ZM420.019 153.641C418.652 153.66 417.655 154.773 417.655 156.297C417.655 157.84 418.652 158.953 420.019 158.934C421.405 158.953 422.421 157.84 422.421 156.297C422.421 154.773 421.405 153.66 420.019 153.641ZM430.487 146.922V164.285H429.023V155.516H426.718V163.426H425.273V147.352H426.718V154.246H429.023V146.922H430.487ZM448.686 160.77V162.059H432.788V160.77H436.733V156.082C435.248 155.311 434.35 154.061 434.35 152.488C434.35 149.793 436.987 148.035 440.698 148.016C444.409 148.035 447.045 149.793 447.045 152.488C447.045 154.031 446.176 155.271 444.741 156.043V160.77H448.686ZM440.698 149.285C437.846 149.266 435.834 150.555 435.834 152.488C435.834 154.422 437.846 155.73 440.698 155.73C443.53 155.73 445.561 154.422 445.561 152.488C445.561 150.555 443.53 149.266 440.698 149.285ZM438.237 160.77H443.198V156.629C442.446 156.834 441.606 156.941 440.698 156.941C439.809 156.941 438.979 156.844 438.237 156.648V160.77ZM451.709 162.82C451.025 162.82 450.439 162.254 450.459 161.551C450.439 160.867 451.025 160.301 451.709 160.301C452.392 160.301 452.959 160.867 452.959 161.551C452.959 162.254 452.392 162.82 451.709 162.82Z" fill="#F6F6F6"/>
<path d="M57.0742 104.684L58.7539 99.1172H60.8242L59.8477 104.684H57.0742ZM61.4102 104.684L63.0898 99.1172H65.1602L64.1836 104.684H61.4102Z" fill="#F6F6F6"/>
<path d="M470.695 148.562L469.016 154.129H466.945L467.922 148.562H470.695ZM466.359 148.562L464.68 154.129H462.609L463.586 148.562H466.359Z" fill="#F6F6F6"/>
<path d="M56.8457 55.3047H58.5557L61.8594 60.8828H62.0088L65.3125 55.3047H67.0391L62.6895 62.3936V67.3242H61.1787V62.3936L56.8457 55.3047ZM73.3271 63.6221V58.3096H74.7382V67.3242H73.3271V65.7969H73.2275C72.7958 66.71 71.9159 67.4404 70.5546 67.4404C68.8446 67.4404 67.6327 66.3281 67.6327 64.0371V58.3096H69.0605V63.9375C69.0605 65.2324 69.8739 66.0625 71.0195 66.0625C72.0321 66.0625 73.3271 65.2988 73.3271 63.6221ZM76.8592 67.3242V55.3047H78.287V62.2939H78.453L82.3543 58.3096H84.1141L80.3123 62.1611L84.3963 67.3242H82.5868L79.2498 63.0742L78.287 63.9541V67.3242H76.8592ZM85.4714 67.3242V58.3096H86.8992V67.3242H85.4714ZM86.1853 56.8154C85.6375 56.8154 85.1892 56.4004 85.1892 55.8691C85.1892 55.3379 85.6375 54.9229 86.1853 54.9229C86.7332 54.9229 87.198 55.3379 87.198 55.8691C87.198 56.4004 86.7332 56.8154 86.1853 56.8154ZM95.1754 53.6113V69.0176H93.9469V53.6113H95.1754ZM105.859 54.458C108.067 54.4746 109.677 55.8027 109.677 57.7285C109.677 59.6543 108.067 60.9824 105.859 60.9824C103.618 60.9824 102.024 59.6543 102.024 57.7285C102.024 55.8027 103.618 54.4746 105.859 54.458ZM105.859 55.5537C104.381 55.5537 103.286 56.4502 103.302 57.7285C103.286 59.0234 104.381 59.9199 105.859 59.9199C107.32 59.9199 108.415 59.0234 108.415 57.7285C108.415 56.4502 107.32 55.5537 105.859 55.5537ZM113.861 53.9102V61.4971H112.566V53.9102H113.861ZM113.861 62.2109V65.7637H105.577V67.4238H114.392V68.4697H104.298V64.7842H112.566V63.2568H104.265V62.2109H113.861ZM119.286 54.5078V56.3838H126.59V54.5078H127.885V60.4014H123.569V61.9785H129.645V63.0576H116.198V61.9785H122.274V60.4014H117.991V54.5078H119.286ZM119.286 59.3555H126.59V57.4131H119.286V59.3555ZM128.151 67.2578V68.3535H117.941V64.2363H119.252V67.2578H128.151ZM142.906 53.9268V64.7178H141.611V53.9268H142.906ZM143.37 67.2578V68.3535H133.376V63.6221H134.671V67.2578H143.37ZM134.937 54.9561C137.145 54.9561 138.805 56.4502 138.805 58.5752C138.805 60.7334 137.145 62.2109 134.937 62.2109C132.729 62.2109 131.069 60.7334 131.069 58.5752C131.069 56.4502 132.729 54.9561 134.937 54.9561ZM134.937 56.1016C133.443 56.1016 132.33 57.1309 132.347 58.5752C132.33 60.0527 133.443 61.0654 134.937 61.0654C136.398 61.0654 137.527 60.0527 137.527 58.5752C137.527 57.1309 136.398 56.1016 134.937 56.1016Z" fill="#F6F6F6"/>
</svg>
