<svg width="592" height="310" viewBox="0 0 592 310" fill="none" xmlns="http://www.w3.org/2000/svg">
<g filter="url(#filter0_d_1066_3102)">
<rect x="9.64844" y="10.2656" width="566.703" height="283.667" rx="31" fill="#FAFAFA"/>
</g>
<rect opacity="0.6" x="169" y="141" width="212.556" height="13.502" fill="#BBDFDD"/>
<rect opacity="0.6" x="194.125" y="177.348" width="251.675" height="13.502" fill="#BBDFDD"/>
<rect opacity="0.6" x="102.531" y="209.531" width="177.739" height="13.502" fill="#BBDFDD"/>
<rect opacity="0.6" x="328.602" y="209.531" width="119.972" height="13.502" fill="#BBDFDD"/>
<rect opacity="0.6" x="326.602" y="243.543" width="142.084" height="13.502" fill="#BBDFDD"/>
<path d="M177.538 140.17C177.538 141.111 177.682 142.021 177.97 142.901C178.263 143.775 178.689 144.55 179.248 145.225C179.813 145.9 180.482 146.407 181.257 146.744L180.145 148.222C179.315 147.818 178.598 147.237 177.995 146.479C177.397 145.72 176.935 144.84 176.609 143.839C176.271 144.901 175.795 145.837 175.181 146.645C174.572 147.452 173.847 148.072 173.006 148.504L171.844 147.01C172.635 146.639 173.316 146.097 173.886 145.383C174.462 144.669 174.899 143.858 175.198 142.951C175.502 142.043 175.657 141.116 175.662 140.17V137.779H177.538V140.17ZM184.577 151.592H182.751V142.909H179.597V141.415H182.751V136.567H184.577V151.592ZM193.339 136.717C194.479 136.717 195.45 136.816 196.253 137.016C197.061 137.215 197.678 137.508 198.104 137.896C198.53 138.277 198.746 138.742 198.751 139.29C198.746 140.12 198.273 140.757 197.332 141.199C196.391 141.642 195.06 141.869 193.339 141.88C191.613 141.869 190.279 141.642 189.338 141.199C188.397 140.757 187.927 140.12 187.927 139.29C187.927 138.742 188.14 138.277 188.566 137.896C188.992 137.508 189.609 137.215 190.417 137.016C191.225 136.816 192.199 136.717 193.339 136.717ZM193.339 138.095C192.194 138.095 191.325 138.197 190.733 138.402C190.146 138.601 189.858 138.897 189.869 139.29C189.864 139.7 190.149 140.004 190.724 140.203C191.305 140.402 192.177 140.507 193.339 140.519C194.512 140.507 195.389 140.402 195.97 140.203C196.552 140.004 196.842 139.7 196.842 139.29C196.842 138.897 196.546 138.601 195.954 138.402C195.367 138.197 194.496 138.095 193.339 138.095ZM200.196 144.104H194.252V145.25H198.486V148.919H189.952V150.031H198.901V151.442H188.143V147.607H196.676V146.611H188.126V145.25H192.409V144.104H186.516V142.66H200.196V144.104ZM205.185 146.13L210.381 138.078H213.07V146.08H214.648V147.856H213.07V150.098H211.012V147.856H205.185V146.13ZM211.045 146.08V140.535H210.912L207.393 145.997V146.08H211.045ZM228.622 151.575H226.862V143.922H225.169V150.812H223.476V136.85H225.169V142.444H226.862V136.567H228.622V151.575ZM221.782 139.838H218.03V146.512C218.905 146.501 219.693 146.467 220.396 146.412C221.099 146.357 221.81 146.263 222.529 146.13L222.662 147.641C221.832 147.807 221.013 147.917 220.205 147.973C219.397 148.028 218.39 148.061 217.184 148.072H216.171V138.344H221.782V139.838ZM246.129 138.294C246.129 139.074 246.109 139.771 246.071 140.386C246.032 141 245.938 141.675 245.788 142.411H247.806V143.889H241.829V145.889C242.737 145.95 243.517 146.102 244.17 146.346C244.828 146.584 245.332 146.902 245.681 147.3C246.029 147.699 246.206 148.166 246.212 148.703C246.206 149.306 245.99 149.821 245.564 150.247C245.144 150.679 244.538 151.005 243.746 151.227C242.961 151.448 242.023 151.559 240.932 151.559C239.831 151.559 238.882 151.448 238.085 151.227C237.288 151.005 236.677 150.679 236.251 150.247C235.83 149.821 235.62 149.306 235.62 148.703C235.62 148.166 235.794 147.699 236.143 147.3C236.492 146.902 236.992 146.584 237.645 146.346C238.304 146.102 239.09 145.953 240.003 145.897V143.889H234.093V142.411H243.937C244.081 141.714 244.175 141.072 244.22 140.485C244.264 139.899 244.286 139.279 244.286 138.626H235.786V137.148H246.129V138.294ZM240.932 147.342C239.815 147.342 238.96 147.458 238.368 147.69C237.781 147.917 237.49 148.255 237.496 148.703C237.49 149.157 237.781 149.5 238.368 149.732C238.954 149.965 239.809 150.081 240.932 150.081C242.028 150.081 242.869 149.965 243.456 149.732C244.048 149.5 244.347 149.157 244.352 148.703C244.347 148.26 244.048 147.923 243.456 147.69C242.869 147.458 242.028 147.342 240.932 147.342ZM261.299 145.001H259.456V144.271H256.385V143.042H259.456V136.567H261.299V145.001ZM248.549 141.315C250.989 141.315 253.089 141.26 254.849 141.149C255.02 140.27 255.123 139.417 255.156 138.593H249.976V137.132H256.966V137.63C256.966 138.161 256.949 138.69 256.916 139.215C256.883 139.741 256.802 140.339 256.675 141.008C257.417 140.931 257.978 140.867 258.36 140.817L258.493 142.079C257.154 142.312 255.687 142.478 254.094 142.577V145.001H252.284V142.668C251.338 142.707 250.386 142.727 249.428 142.727C249.285 142.738 249.069 142.743 248.781 142.743L248.549 141.315ZM261.299 149.052H252.765V150.081H261.813V151.442H250.956V147.79H259.472V146.844H250.923V145.482H261.299V149.052ZM268.002 137.613C268.782 137.608 269.485 137.76 270.11 138.07C270.741 138.374 271.233 138.803 271.588 139.356C271.947 139.91 272.13 140.535 272.135 141.232C272.13 141.935 271.947 142.563 271.588 143.117C271.233 143.67 270.744 144.102 270.118 144.412C269.493 144.716 268.787 144.868 268.002 144.868C267.221 144.868 266.519 144.713 265.893 144.403C265.268 144.093 264.775 143.665 264.416 143.117C264.062 142.563 263.884 141.935 263.884 141.232C263.884 140.535 264.062 139.91 264.416 139.356C264.775 138.803 265.268 138.374 265.893 138.07C266.524 137.76 267.227 137.608 268.002 137.613ZM268.002 139.207C267.564 139.207 267.172 139.29 266.823 139.456C266.474 139.622 266.2 139.86 266.001 140.17C265.807 140.474 265.711 140.828 265.711 141.232C265.711 141.642 265.807 142.002 266.001 142.312C266.2 142.616 266.474 142.851 266.823 143.017C267.172 143.178 267.564 143.258 268.002 143.258C268.444 143.258 268.84 143.178 269.189 143.017C269.543 142.851 269.82 142.616 270.019 142.312C270.224 142.002 270.326 141.642 270.326 141.232C270.326 140.828 270.224 140.474 270.019 140.17C269.82 139.86 269.543 139.622 269.189 139.456C268.84 139.29 268.444 139.207 268.002 139.207ZM275.638 151.592H273.796V136.567H275.638V151.592ZM263.204 146.943C265.041 146.943 266.757 146.913 268.35 146.852C269.95 146.786 271.466 146.65 272.899 146.445L273.049 147.79C271.565 148.078 270.057 148.26 268.525 148.338C266.997 148.415 265.301 148.454 263.436 148.454L263.204 146.943ZM286.106 141.149C286.106 141.946 286.217 142.718 286.438 143.465C286.665 144.207 287.005 144.882 287.459 145.491C287.918 146.094 288.486 146.578 289.161 146.943L288.131 148.305C287.456 147.945 286.878 147.452 286.397 146.827C285.915 146.202 285.536 145.482 285.259 144.669C284.983 145.554 284.601 146.34 284.114 147.026C283.632 147.707 283.051 148.249 282.371 148.653L281.292 147.259C281.972 146.866 282.542 146.346 283.002 145.698C283.466 145.045 283.809 144.329 284.031 143.548C284.252 142.768 284.363 141.968 284.363 141.149V140.685H281.806V139.19H284.363V137.099H286.106V139.19H288.613V140.685H286.106V141.149ZM294.44 151.575H292.68V136.567H294.44V151.575ZM291.385 150.845H289.642V143.855H287.683V142.328H289.642V136.85H291.385V150.845ZM308.614 145.648H306.771V142.544H304.629V141.017H306.771V136.567H308.614V145.648ZM308.614 151.393H298.636V146.329H308.614V151.393ZM300.479 149.898H306.804V147.79H300.479V149.898ZM304.878 139.456H296.08V137.962H299.566V136.451H301.392V137.962H304.878V139.456ZM300.479 140.037C301.165 140.037 301.777 140.153 302.313 140.386C302.856 140.613 303.279 140.931 303.583 141.34C303.888 141.744 304.043 142.206 304.048 142.727C304.043 143.263 303.888 143.736 303.583 144.146C303.285 144.55 302.864 144.863 302.322 145.084C301.785 145.305 301.171 145.416 300.479 145.416C299.793 145.416 299.179 145.305 298.636 145.084C298.099 144.863 297.679 144.547 297.374 144.138C297.076 143.728 296.926 143.258 296.926 142.727C296.926 142.206 297.078 141.744 297.383 141.34C297.687 140.931 298.108 140.613 298.645 140.386C299.181 140.153 299.793 140.037 300.479 140.037ZM300.479 141.432C299.937 141.432 299.502 141.548 299.176 141.78C298.849 142.013 298.686 142.328 298.686 142.727C298.686 143.136 298.846 143.457 299.167 143.689C299.494 143.922 299.931 144.038 300.479 144.038C301.027 144.038 301.461 143.922 301.782 143.689C302.109 143.457 302.272 143.136 302.272 142.727C302.272 142.328 302.109 142.013 301.782 141.78C301.456 141.548 301.021 141.432 300.479 141.432ZM312.113 151.907H310.253L314.138 137.514H315.981L312.113 151.907ZM329.325 145.997H327.565V141.913H326.104V145.499H324.377V136.866H326.104V140.419H327.565V136.567H329.325V145.997ZM323.879 139.639H316.408V138.194H319.247V136.7H321.074V138.194H323.879V139.639ZM320.16 140.253C320.791 140.253 321.353 140.361 321.846 140.577C322.338 140.792 322.723 141.097 322.999 141.49C323.282 141.877 323.425 142.328 323.431 142.843C323.425 143.357 323.282 143.811 322.999 144.204C322.723 144.591 322.338 144.893 321.846 145.109C321.353 145.325 320.791 145.433 320.16 145.433C319.541 145.433 318.985 145.325 318.492 145.109C317.999 144.893 317.615 144.589 317.338 144.196C317.067 143.803 316.934 143.352 316.94 142.843C316.934 142.334 317.067 141.883 317.338 141.49C317.615 141.097 317.999 140.792 318.492 140.577C318.985 140.361 319.541 140.253 320.16 140.253ZM320.16 141.581C319.69 141.581 319.308 141.694 319.015 141.921C318.727 142.148 318.583 142.455 318.583 142.843C318.583 143.23 318.727 143.537 319.015 143.764C319.303 143.991 319.685 144.104 320.16 144.104C320.636 144.104 321.021 143.991 321.314 143.764C321.608 143.537 321.754 143.23 321.754 142.843C321.754 142.455 321.608 142.148 321.314 141.921C321.021 141.694 320.636 141.581 320.16 141.581ZM324.261 146.18C325.329 146.18 326.248 146.285 327.017 146.495C327.786 146.705 328.375 147.015 328.785 147.425C329.194 147.829 329.402 148.316 329.408 148.886C329.402 149.445 329.192 149.923 328.777 150.322C328.367 150.726 327.778 151.033 327.009 151.243C326.239 151.453 325.324 151.559 324.261 151.559C323.199 151.559 322.28 151.453 321.505 151.243C320.736 151.033 320.144 150.726 319.729 150.322C319.319 149.923 319.115 149.445 319.115 148.886C319.115 148.316 319.319 147.829 319.729 147.425C320.144 147.015 320.736 146.705 321.505 146.495C322.274 146.285 323.193 146.18 324.261 146.18ZM324.261 147.591C323.182 147.58 322.36 147.685 321.796 147.906C321.237 148.122 320.957 148.449 320.957 148.886C320.957 149.301 321.24 149.616 321.804 149.832C322.368 150.042 323.187 150.147 324.261 150.147C325.329 150.147 326.143 150.042 326.701 149.832C327.266 149.616 327.548 149.301 327.548 148.886C327.548 148.449 327.266 148.122 326.701 147.906C326.143 147.685 325.329 147.58 324.261 147.591ZM336.376 140.17C336.371 141.066 336.512 141.946 336.8 142.81C337.093 143.667 337.516 144.437 338.07 145.117C338.623 145.798 339.276 146.318 340.029 146.678L338.9 148.155C338.103 147.751 337.411 147.176 336.824 146.429C336.243 145.682 335.79 144.818 335.463 143.839C335.126 144.885 334.65 145.809 334.035 146.611C333.427 147.408 332.702 148.017 331.861 148.438L330.732 146.96C331.512 146.589 332.187 146.05 332.757 145.341C333.333 144.627 333.77 143.822 334.069 142.926C334.373 142.024 334.528 141.105 334.533 140.17V137.779H336.376V140.17ZM342.768 142.444H345.075V144.021H342.768V151.575H340.925V136.567H342.768V142.444ZM361.968 145.482H360.125V141.813H357.568V140.303H360.125V136.567H361.968V145.482ZM356.888 145.864C357.945 145.864 358.858 145.978 359.627 146.205C360.402 146.426 360.994 146.752 361.403 147.184C361.813 147.61 362.018 148.122 362.018 148.72C362.018 149.317 361.813 149.829 361.403 150.255C360.994 150.687 360.402 151.014 359.627 151.235C358.858 151.462 357.945 151.575 356.888 151.575C355.836 151.575 354.926 151.462 354.157 151.235C353.388 151.014 352.798 150.687 352.389 150.255C351.985 149.829 351.786 149.317 351.791 148.72C351.786 148.122 351.985 147.61 352.389 147.184C352.798 146.752 353.388 146.426 354.157 146.205C354.926 145.978 355.836 145.864 356.888 145.864ZM356.888 147.275C355.836 147.275 355.028 147.4 354.464 147.649C353.899 147.892 353.617 148.249 353.617 148.72C353.617 149.185 353.899 149.539 354.464 149.782C355.028 150.026 355.836 150.147 356.888 150.147C357.939 150.147 358.75 150.026 359.32 149.782C359.89 149.539 360.175 149.185 360.175 148.72C360.175 148.249 359.89 147.892 359.32 147.649C358.75 147.4 357.939 147.275 356.888 147.275ZM354.912 139.141C354.912 139.76 355.048 140.364 355.319 140.95C355.59 141.531 355.991 142.054 356.523 142.519C357.054 142.978 357.696 143.335 358.448 143.59L357.519 145.051C356.705 144.774 356 144.367 355.402 143.831C354.81 143.288 354.345 142.657 354.007 141.938C353.67 142.751 353.188 143.463 352.563 144.071C351.938 144.674 351.188 145.134 350.314 145.449L349.351 143.988C350.131 143.723 350.798 143.338 351.351 142.834C351.905 142.325 352.322 141.753 352.605 141.116C352.892 140.48 353.036 139.827 353.036 139.157V139.041H349.915V137.547H358.017V139.041H354.912V139.141ZM377.636 149.766H363.923V148.255H369.833V145.333H365.434V137.563H367.276V140.021H374.232V137.563H376.075V145.333H371.659V148.255H377.636V149.766ZM374.232 143.839V141.498H367.276V143.839H374.232ZM395.259 151.442H394.013V136.684H395.259V151.442ZM392.27 150.679H391.042V143.075H388.552V142.013H391.042V137.049H392.27V150.679ZM386.974 140.9C386.974 141.758 387.099 142.597 387.348 143.416C387.597 144.229 387.962 144.965 388.444 145.624C388.925 146.277 389.498 146.794 390.162 147.176L389.365 148.139C388.651 147.713 388.04 147.123 387.531 146.371C387.021 145.612 386.634 144.755 386.368 143.797C386.097 144.832 385.696 145.759 385.165 146.578C384.639 147.397 384.014 148.034 383.289 148.487L382.459 147.508C383.128 147.109 383.709 146.564 384.202 145.873C384.694 145.181 385.068 144.406 385.323 143.548C385.583 142.685 385.713 141.802 385.713 140.9V139.506H382.874V138.427H389.68V139.506H386.974V140.9ZM403.838 146.014C404.895 146.014 405.81 146.122 406.585 146.337C407.365 146.548 407.966 146.858 408.386 147.267C408.807 147.671 409.017 148.155 409.017 148.72C409.017 149.279 408.807 149.76 408.386 150.164C407.966 150.568 407.365 150.875 406.585 151.085C405.805 151.301 404.889 151.409 403.838 151.409C402.786 151.409 401.873 151.301 401.098 151.085C400.324 150.875 399.726 150.568 399.305 150.164C398.885 149.76 398.675 149.279 398.675 148.72C398.675 148.155 398.885 147.671 399.305 147.267C399.726 146.858 400.324 146.548 401.098 146.337C401.873 146.122 402.786 146.014 403.838 146.014ZM403.838 147.01C403.057 147.015 402.374 147.087 401.787 147.226C401.201 147.364 400.75 147.563 400.434 147.823C400.119 148.078 399.964 148.377 399.969 148.72C399.964 149.057 400.119 149.353 400.434 149.608C400.75 149.857 401.201 150.048 401.787 150.181C402.374 150.313 403.057 150.38 403.838 150.38C404.618 150.38 405.299 150.313 405.88 150.181C406.466 150.048 406.917 149.857 407.233 149.608C407.554 149.353 407.717 149.057 407.722 148.72C407.717 148.377 407.554 148.078 407.233 147.823C406.917 147.563 406.466 147.364 405.88 147.226C405.299 147.087 404.618 147.015 403.838 147.01ZM408.901 138.692C408.901 139.489 408.876 140.173 408.826 140.743C408.782 141.307 408.669 141.93 408.486 142.61L407.208 142.461C407.385 141.78 407.496 141.172 407.54 140.635C407.584 140.098 407.606 139.451 407.606 138.692V138.51H398.774V137.447H408.901V138.692ZM410.611 144.636H397.18V143.573H402.742V140.718H404.02V143.573H410.611V144.636ZM91.8544 174.651C91.8544 175.526 92.026 176.389 92.3691 177.241C92.7122 178.093 93.177 178.852 93.7636 179.516C94.3502 180.174 94.9977 180.667 95.706 180.993L94.9257 182.056C94.0901 181.624 93.343 180.99 92.6845 180.155C92.026 179.319 91.5335 178.376 91.207 177.324C90.8749 178.437 90.3797 179.435 89.7211 180.321C89.0681 181.206 88.3238 181.873 87.4882 182.321L86.6415 181.275C87.3554 180.927 88.0084 180.404 88.6005 179.707C89.1926 179.004 89.6603 178.21 90.0034 177.324C90.352 176.433 90.5263 175.542 90.5263 174.651V171.962H91.8544V174.651ZM98.8935 185.476H97.5986V176.793H94.0956V175.73H97.5986V170.684H98.8935V185.476ZM107.904 170.866C109 170.866 109.938 170.966 110.718 171.165C111.498 171.364 112.093 171.655 112.503 172.037C112.912 172.418 113.117 172.881 113.117 173.423C113.117 173.971 112.912 174.436 112.503 174.817C112.093 175.199 111.498 175.49 110.718 175.689C109.938 175.888 109 175.991 107.904 175.996C106.808 175.991 105.868 175.888 105.082 175.689C104.302 175.49 103.704 175.199 103.289 174.817C102.879 174.436 102.675 173.971 102.675 173.423C102.675 172.881 102.879 172.418 103.289 172.037C103.704 171.655 104.302 171.364 105.082 171.165C105.868 170.966 106.808 170.866 107.904 170.866ZM107.904 171.862C106.67 171.873 105.716 172.014 105.04 172.286C104.365 172.557 104.03 172.936 104.036 173.423C104.03 173.926 104.362 174.314 105.032 174.585C105.707 174.851 106.665 174.989 107.904 175C109.138 174.989 110.093 174.851 110.768 174.585C111.449 174.314 111.789 173.926 111.789 173.423C111.789 172.936 111.446 172.557 110.76 172.286C110.079 172.014 109.127 171.873 107.904 171.862ZM114.628 178.021H108.535V179.416H112.901V182.72H104.136V184.247H113.349V185.276H102.841V181.757H111.623V180.412H102.807V179.416H107.24V178.021H101.181V176.976H114.628V178.021ZM120.032 180.412L125.444 172.078H127.287V180.329H128.964V181.641H127.287V184.098H125.859V181.641H120.032V180.412ZM125.859 180.329V173.971H125.71L121.642 180.229V180.329H125.859ZM142.855 185.442H141.61V177.706H139.435V184.679H138.24V171.016H139.435V176.627H141.61V170.684H142.855V185.442ZM136.314 173.572H132.081V180.678C133.171 180.672 134.095 180.642 134.853 180.586C135.617 180.526 136.386 180.418 137.161 180.263L137.277 181.358C136.436 181.53 135.606 181.646 134.787 181.707C133.973 181.762 132.955 181.79 131.732 181.79H130.786V172.493H136.314V173.572ZM160.594 172.377C160.594 173.157 160.572 173.866 160.528 174.502C160.489 175.133 160.387 175.836 160.221 176.61H162.371V177.673H156.211V179.997C157.152 180.036 157.957 180.166 158.627 180.387C159.302 180.609 159.819 180.916 160.179 181.309C160.539 181.696 160.721 182.155 160.727 182.687C160.721 183.268 160.514 183.76 160.104 184.164C159.695 184.574 159.106 184.883 158.336 185.094C157.567 185.304 156.649 185.409 155.581 185.409C154.501 185.409 153.575 185.304 152.8 185.094C152.025 184.883 151.43 184.574 151.015 184.164C150.606 183.76 150.401 183.268 150.401 182.687C150.401 182.155 150.581 181.696 150.94 181.309C151.3 180.921 151.818 180.617 152.493 180.396C153.173 180.169 153.987 180.036 154.933 179.997V177.673H148.857V176.61H158.909C159.081 175.819 159.189 175.113 159.233 174.494C159.277 173.868 159.299 173.168 159.299 172.394H150.567V171.331H160.594V172.377ZM155.581 181.026C154.778 181.032 154.086 181.101 153.505 181.234C152.93 181.361 152.487 181.549 152.177 181.798C151.873 182.047 151.723 182.343 151.729 182.687C151.723 183.035 151.873 183.337 152.177 183.591C152.487 183.84 152.93 184.031 153.505 184.164C154.086 184.297 154.778 184.363 155.581 184.363C156.366 184.363 157.044 184.297 157.614 184.164C158.19 184.031 158.632 183.84 158.942 183.591C159.252 183.337 159.41 183.035 159.415 182.687C159.41 182.343 159.252 182.047 158.942 181.798C158.632 181.549 158.19 181.361 157.614 181.234C157.044 181.101 156.366 181.032 155.581 181.026ZM175.598 179.067H174.303V178.104H171.016V177.175H174.303V170.684H175.598V179.067ZM163.296 175.548C165.892 175.548 168.094 175.487 169.904 175.365C170.108 174.341 170.222 173.345 170.244 172.377H164.741V171.331H171.514V171.713C171.514 172.239 171.495 172.781 171.456 173.34C171.423 173.899 171.34 174.538 171.207 175.257C171.882 175.191 172.477 175.122 172.992 175.05L173.075 175.979C171.818 176.201 170.308 176.364 168.542 176.469V179.067H167.247V176.527C166.368 176.561 165.111 176.583 163.479 176.594L163.296 175.548ZM175.598 182.836H166.965V184.28H176.162V185.276H165.703V181.906H174.303V180.595H165.67V179.599H175.598V182.836ZM190.552 185.442H189.29V170.684H190.552V185.442ZM187.58 184.695H186.335V177.523H184.434C184.39 178.475 184.232 179.303 183.961 180.005C183.69 180.703 183.322 181.242 182.857 181.624C182.392 182 181.858 182.188 181.255 182.188C180.619 182.188 180.06 181.981 179.578 181.566C179.103 181.145 178.735 180.548 178.474 179.773C178.214 178.998 178.084 178.093 178.084 177.059C178.084 176.024 178.214 175.119 178.474 174.344C178.735 173.569 179.103 172.975 179.578 172.56C180.06 172.139 180.619 171.929 181.255 171.929C181.847 171.929 182.373 172.111 182.832 172.477C183.292 172.842 183.657 173.365 183.928 174.045C184.205 174.726 184.371 175.526 184.426 176.444H186.335V170.999H187.58V184.695ZM181.255 173.157C180.857 173.157 180.511 173.315 180.218 173.63C179.924 173.946 179.697 174.4 179.537 174.992C179.382 175.578 179.307 176.267 179.313 177.059C179.307 177.85 179.382 178.539 179.537 179.125C179.697 179.712 179.924 180.163 180.218 180.479C180.516 180.794 180.862 180.949 181.255 180.943C181.648 180.949 181.991 180.794 182.284 180.479C182.583 180.163 182.813 179.712 182.973 179.125C183.134 178.539 183.214 177.85 183.214 177.059C183.214 176.262 183.134 175.57 182.973 174.983C182.813 174.397 182.586 173.946 182.293 173.63C181.999 173.315 181.654 173.157 181.255 173.157ZM210.101 179.864H196.388V178.42H210.101V179.864ZM208.374 185.575H206.515V182.487H197.932V181.01H208.374V185.575ZM208.573 177.308H198.148V170.933H208.457V172.377H199.99V173.406H208.092V174.784H199.99V175.896H208.573V177.308ZM222.814 176.76H224.922V178.304H222.814V185.575H220.954V170.567H222.814V176.76ZM210.761 181.408C212.399 181.408 213.677 181.397 214.596 181.375V179.972C214.053 179.878 213.578 179.707 213.168 179.458C212.764 179.208 212.451 178.896 212.23 178.52C212.009 178.138 211.901 177.717 211.906 177.258C211.901 176.699 212.05 176.206 212.355 175.78C212.659 175.354 213.088 175.025 213.641 174.792C214.195 174.555 214.828 174.436 215.542 174.436C216.245 174.436 216.87 174.555 217.418 174.792C217.971 175.025 218.403 175.354 218.713 175.78C219.028 176.206 219.189 176.699 219.194 177.258C219.189 177.723 219.073 178.143 218.846 178.52C218.619 178.896 218.298 179.211 217.883 179.466C217.473 179.715 216.997 179.884 216.455 179.972V181.309C217.888 181.231 219.122 181.12 220.157 180.977L220.273 182.321C218.846 182.576 217.385 182.742 215.891 182.819C214.397 182.897 212.775 182.936 211.026 182.936L210.761 181.408ZM219.991 173.755H211.043V172.294H214.596V170.634H216.455V172.294H219.991V173.755ZM215.542 175.847C214.961 175.858 214.499 175.988 214.156 176.237C213.818 176.48 213.649 176.821 213.649 177.258C213.649 177.689 213.821 178.027 214.164 178.271C214.507 178.514 214.967 178.63 215.542 178.619C216.112 178.63 216.566 178.514 216.903 178.271C217.246 178.021 217.418 177.684 217.418 177.258C217.418 176.826 217.246 176.486 216.903 176.237C216.566 175.988 216.112 175.858 215.542 175.847ZM234.198 176.76H231.409V178.461C232.754 178.401 233.977 178.315 235.078 178.204L235.211 179.532C233.761 179.737 232.248 179.878 230.67 179.956C229.093 180.028 227.464 180.063 225.781 180.063L225.532 178.586C227.298 178.575 228.637 178.556 229.55 178.528V176.76H226.827V171.497H234.082V172.991H228.687V175.282H234.198V176.76ZM237.983 181.84H236.124V170.567H237.983V181.84ZM238.415 185.276H227.923V181.01H229.782V183.782H238.415V185.276ZM248.534 174.502C248.534 175.343 248.634 176.159 248.833 176.951C249.038 177.742 249.356 178.467 249.787 179.125C250.219 179.784 250.759 180.318 251.406 180.728L250.393 182.139C249.74 181.746 249.187 181.22 248.733 180.562C248.279 179.897 247.923 179.137 247.662 178.279C247.38 179.214 246.996 180.044 246.509 180.769C246.022 181.494 245.435 182.067 244.749 182.487L243.603 181.109C244.306 180.683 244.893 180.124 245.363 179.433C245.833 178.741 246.182 177.98 246.409 177.15C246.641 176.32 246.758 175.465 246.758 174.585V171.896H248.534V174.502ZM256.802 185.575H255.025V170.567H256.802V185.575ZM253.68 184.845H251.937V177.258H249.796V175.73H251.937V170.833H253.68V184.845ZM272.071 180.761H266.094V185.575H264.268V180.761H258.358V179.3H272.071V180.761ZM261.844 173.008H268.551V171.165H270.411V177.739H260.018V171.165H261.844V173.008ZM268.551 176.245V174.469H261.844V176.245H268.551ZM289.329 179.482H287.486V175.813H284.929V174.303H287.486V170.567H289.329V179.482ZM284.249 179.864C285.306 179.864 286.219 179.978 286.988 180.205C287.763 180.426 288.355 180.752 288.764 181.184C289.174 181.61 289.378 182.122 289.378 182.72C289.378 183.317 289.174 183.829 288.764 184.255C288.355 184.687 287.763 185.014 286.988 185.235C286.219 185.462 285.306 185.575 284.249 185.575C283.197 185.575 282.287 185.462 281.518 185.235C280.748 185.014 280.159 184.687 279.75 184.255C279.346 183.829 279.146 183.317 279.152 182.72C279.146 182.122 279.346 181.61 279.75 181.184C280.159 180.752 280.748 180.426 281.518 180.205C282.287 179.978 283.197 179.864 284.249 179.864ZM284.249 181.275C283.197 181.275 282.389 181.4 281.825 181.649C281.26 181.892 280.978 182.249 280.978 182.72C280.978 183.185 281.26 183.539 281.825 183.782C282.389 184.026 283.197 184.147 284.249 184.147C285.3 184.147 286.111 184.026 286.681 183.782C287.251 183.539 287.536 183.185 287.536 182.72C287.536 182.249 287.251 181.892 286.681 181.649C286.111 181.4 285.3 181.275 284.249 181.275ZM282.273 173.141C282.273 173.76 282.409 174.364 282.68 174.95C282.951 175.531 283.352 176.054 283.883 176.519C284.415 176.978 285.057 177.335 285.809 177.59L284.879 179.051C284.066 178.774 283.36 178.367 282.763 177.831C282.171 177.288 281.706 176.657 281.368 175.938C281.031 176.751 280.549 177.463 279.924 178.071C279.299 178.674 278.549 179.134 277.674 179.449L276.712 177.988C277.492 177.723 278.159 177.338 278.712 176.834C279.265 176.325 279.683 175.753 279.965 175.116C280.253 174.48 280.397 173.827 280.397 173.157V173.041H277.276V171.547H285.378V173.041H282.273V173.141ZM304.997 183.766H291.284V182.255H297.194V179.333H292.794V171.563H294.637V174.021H301.593V171.563H303.436V179.333H299.02V182.255H304.997V183.766ZM301.593 177.839V175.498H294.637V177.839H301.593ZM318.369 180.063L319.39 181.408C319.739 181.043 320.007 180.581 320.196 180.022C320.384 179.463 320.478 178.818 320.478 178.088C320.478 177.191 320.337 176.428 320.055 175.797C319.778 175.16 319.388 174.679 318.884 174.353C318.381 174.021 317.799 173.854 317.141 173.854C316.482 173.854 315.901 174.021 315.398 174.353C314.894 174.679 314.501 175.16 314.219 175.797C313.942 176.428 313.804 177.191 313.804 178.088C313.804 178.984 313.942 179.751 314.219 180.387C314.501 181.018 314.894 181.5 315.398 181.832C315.901 182.158 316.482 182.321 317.141 182.321C317.445 182.321 317.744 182.283 318.037 182.205L316.394 180.063H318.369ZM322.653 178.088C322.653 179.156 322.481 180.108 322.138 180.943C321.8 181.773 321.322 182.46 320.702 183.002L322.37 185.144H320.262L319.258 183.874C318.61 184.134 317.905 184.264 317.141 184.264C316.084 184.264 315.138 184.017 314.302 183.525C313.472 183.027 312.819 182.313 312.343 181.383C311.867 180.448 311.629 179.35 311.629 178.088C311.629 176.821 311.867 175.722 312.343 174.792C312.819 173.863 313.472 173.152 314.302 172.659C315.138 172.161 316.084 171.912 317.141 171.912C318.198 171.912 319.141 172.161 319.972 172.659C320.807 173.152 321.463 173.863 321.939 174.792C322.415 175.722 322.653 176.821 322.653 178.088ZM326.052 172.078H330.568C331.47 172.078 332.236 172.239 332.867 172.56C333.503 172.875 333.985 173.32 334.311 173.896C334.638 174.472 334.801 175.144 334.801 175.913C334.801 176.732 334.616 177.435 334.245 178.021C333.88 178.608 333.343 179.045 332.635 179.333L335.233 184.098H332.825L330.468 179.698H328.21V184.098H326.052V172.078ZM330.236 177.889C331.807 177.889 332.593 177.23 332.593 175.913C332.593 175.26 332.399 174.759 332.012 174.411C331.625 174.062 331.032 173.888 330.236 173.888H328.21V177.889H330.236ZM352.241 178.619H350.382V170.567H352.241V178.619ZM344.14 180.86H350.399V179.316H352.241V185.393H342.314V179.316H344.14V180.86ZM350.399 183.898V182.305H344.14V183.898H350.399ZM344.057 171.231C344.82 171.226 345.509 171.373 346.124 171.671C346.738 171.965 347.219 172.38 347.568 172.917C347.917 173.453 348.091 174.065 348.091 174.751C348.091 175.421 347.914 176.021 347.56 176.552C347.211 177.083 346.73 177.499 346.115 177.797C345.507 178.091 344.82 178.237 344.057 178.237C343.288 178.237 342.596 178.091 341.982 177.797C341.367 177.499 340.883 177.083 340.529 176.552C340.18 176.021 340.006 175.421 340.006 174.751C340.006 174.065 340.18 173.453 340.529 172.917C340.883 172.38 341.367 171.965 341.982 171.671C342.596 171.373 343.288 171.226 344.057 171.231ZM344.057 172.775C343.62 172.775 343.229 172.856 342.886 173.016C342.549 173.177 342.283 173.406 342.089 173.705C341.901 174.004 341.81 174.353 341.816 174.751C341.81 175.144 341.901 175.49 342.089 175.789C342.283 176.082 342.549 176.312 342.886 176.478C343.229 176.638 343.62 176.721 344.057 176.727C344.488 176.721 344.873 176.638 345.211 176.478C345.548 176.312 345.811 176.082 345.999 175.789C346.187 175.49 346.281 175.144 346.281 174.751C346.281 174.353 346.187 174.004 345.999 173.705C345.811 173.406 345.548 173.177 345.211 173.016C344.873 172.856 344.488 172.775 344.057 172.775ZM359.642 173.273C359.642 173.899 359.774 174.494 360.04 175.058C360.311 175.623 360.712 176.123 361.244 176.561C361.775 176.992 362.42 177.324 363.178 177.557L362.298 179.001C361.473 178.746 360.759 178.365 360.156 177.855C359.559 177.346 359.091 176.746 358.753 176.054C358.416 176.857 357.932 177.554 357.301 178.146C356.67 178.738 355.912 179.184 355.026 179.482L354.097 178.021C354.883 177.761 355.552 177.391 356.105 176.909C356.659 176.422 357.077 175.866 357.359 175.241C357.641 174.615 357.782 173.965 357.782 173.29V173.107H354.611V171.613H362.763V173.107H359.642V173.273ZM366.1 174.17H368.191V175.681H366.1V179.516H364.257V170.567H366.1V174.17ZM361.219 179.848C362.248 179.848 363.139 179.961 363.892 180.188C364.65 180.409 365.231 180.733 365.635 181.159C366.039 181.585 366.244 182.094 366.249 182.687C366.244 183.284 366.036 183.799 365.626 184.23C365.223 184.662 364.644 184.991 363.892 185.218C363.139 185.445 362.248 185.559 361.219 185.559C360.178 185.559 359.276 185.445 358.513 185.218C357.749 184.991 357.162 184.662 356.753 184.23C356.343 183.799 356.139 183.284 356.139 182.687C356.139 182.094 356.343 181.585 356.753 181.159C357.162 180.733 357.749 180.409 358.513 180.188C359.276 179.961 360.178 179.848 361.219 179.848ZM361.219 181.292C360.184 181.292 359.384 181.411 358.82 181.649C358.261 181.887 357.981 182.233 357.981 182.687C357.981 183.151 358.261 183.506 358.82 183.749C359.384 183.993 360.184 184.114 361.219 184.114C362.254 184.114 363.045 183.993 363.593 183.749C364.146 183.506 364.423 183.151 364.423 182.687C364.423 182.233 364.146 181.887 363.593 181.649C363.045 181.411 362.254 181.292 361.219 181.292ZM381.469 181.89H379.593V180.08H376.538V178.619H379.593V170.584H381.469V181.89ZM381.817 185.276H370.827V180.694H372.67V183.782H381.817V185.276ZM368.685 176.345C371.237 176.334 373.353 176.278 375.036 176.179C375.213 175.083 375.318 173.976 375.351 172.858H370.047V171.381H377.202V171.945C377.202 172.571 377.183 173.201 377.144 173.838C377.111 174.474 377.028 175.205 376.895 176.029C377.282 175.991 377.794 175.93 378.431 175.847L378.563 177.158C377.313 177.374 375.996 177.535 374.612 177.64V180.927H372.786V177.748C371.591 177.797 370.301 177.822 368.918 177.822L368.685 176.345ZM400.121 185.575H398.345V170.567H400.121V185.575ZM397.083 184.845H395.34V180.113H393.372C393.096 180.855 392.714 181.428 392.227 181.832C391.745 182.23 391.189 182.426 390.558 182.421C389.911 182.426 389.341 182.213 388.848 181.782C388.361 181.345 387.985 180.722 387.72 179.914C387.454 179.101 387.321 178.149 387.321 177.059C387.321 175.968 387.454 175.022 387.72 174.22C387.985 173.412 388.361 172.792 388.848 172.36C389.341 171.929 389.911 171.713 390.558 171.713C391.189 171.713 391.745 171.912 392.227 172.311C392.708 172.703 393.09 173.268 393.372 174.004H395.34V170.833H397.083V184.845ZM390.558 173.456C390.066 173.445 389.684 173.752 389.413 174.377C389.142 175.003 389.009 175.896 389.014 177.059C389.009 178.221 389.142 179.114 389.413 179.74C389.684 180.365 390.066 180.672 390.558 180.661C390.89 180.667 391.175 180.531 391.413 180.254C391.657 179.978 391.842 179.568 391.97 179.026C392.102 178.484 392.169 177.828 392.169 177.059C392.169 176.289 392.102 175.634 391.97 175.091C391.842 174.549 391.657 174.139 391.413 173.863C391.175 173.586 390.89 173.451 390.558 173.456ZM393.746 175.498C393.823 175.996 393.862 176.516 393.862 177.059C393.862 177.568 393.826 178.082 393.754 178.603H395.34V175.498H393.746ZM414.643 185.575H412.867V177.889H411.273V184.845H409.53V170.833H411.273V176.361H412.867V170.567H414.643V185.575ZM408.052 181.707H402.159V172.194H408.052V181.707ZM403.885 180.246H406.326V173.655H403.885V180.246ZM428.186 176.561H430.261V178.088H428.186V185.575H426.327V170.567H428.186V176.561ZM420.715 172.145C420.71 173.589 420.616 174.887 420.433 176.038C420.256 177.183 419.93 178.284 419.454 179.341C418.978 180.393 418.308 181.386 417.445 182.321L416.001 181.275C416.687 180.545 417.237 179.79 417.652 179.009C418.073 178.223 418.383 177.399 418.582 176.536C418.781 175.672 418.906 174.712 418.956 173.655H416.598V172.145H420.715ZM424.866 172.145C424.86 173.683 424.777 175.075 424.617 176.32C424.462 177.559 424.155 178.774 423.695 179.964C423.236 181.148 422.58 182.255 421.728 183.284L420.251 182.271C420.937 181.452 421.482 180.592 421.886 179.69C422.295 178.782 422.591 177.844 422.774 176.876C422.957 175.902 423.07 174.828 423.114 173.655H421.214V172.145H424.866ZM436.4 174.834C436.4 175.659 436.555 176.475 436.865 177.283C437.18 178.085 437.628 178.807 438.21 179.449C438.796 180.086 439.482 180.567 440.268 180.894L439.255 182.354C438.387 181.984 437.631 181.428 436.989 180.686C436.347 179.944 435.849 179.084 435.495 178.104C435.141 179.156 434.64 180.088 433.993 180.902C433.351 181.71 432.598 182.316 431.735 182.72L430.672 181.275C431.442 180.921 432.117 180.401 432.698 179.715C433.284 179.029 433.735 178.259 434.051 177.407C434.366 176.549 434.524 175.692 434.524 174.834V173.572H431.22V172.045H439.687V173.572H436.4V174.834ZM443.223 185.575H441.364V170.567H443.223V185.575ZM460.995 175.564H463.22V176.66H460.995V181.757H459.701V170.7H460.995V175.564ZM458.289 173.572H449.491V172.51H453.243V170.7H454.537V172.51H458.289V173.572ZM453.89 174.386C454.587 174.386 455.202 174.499 455.733 174.726C456.27 174.953 456.687 175.274 456.986 175.689C457.285 176.104 457.437 176.588 457.443 177.142C457.437 177.689 457.285 178.168 456.986 178.578C456.687 178.987 456.27 179.305 455.733 179.532C455.202 179.754 454.587 179.864 453.89 179.864C453.187 179.864 452.565 179.754 452.022 179.532C451.486 179.305 451.068 178.987 450.769 178.578C450.476 178.168 450.332 177.689 450.337 177.142C450.332 176.588 450.476 176.104 450.769 175.689C451.068 175.274 451.486 174.953 452.022 174.726C452.565 174.499 453.187 174.386 453.89 174.386ZM453.89 175.415C453.431 175.415 453.024 175.487 452.67 175.631C452.321 175.769 452.05 175.971 451.856 176.237C451.668 176.497 451.577 176.799 451.582 177.142C451.577 177.485 451.668 177.786 451.856 178.046C452.05 178.301 452.321 178.497 452.67 178.636C453.024 178.774 453.431 178.84 453.89 178.835C454.344 178.84 454.745 178.774 455.094 178.636C455.448 178.497 455.722 178.301 455.915 178.046C456.109 177.786 456.209 177.485 456.214 177.142C456.209 176.799 456.109 176.497 455.915 176.237C455.722 175.971 455.448 175.769 455.094 175.631C454.745 175.487 454.344 175.415 453.89 175.415ZM461.676 185.127H451.765V180.877H453.043V184.031H461.676V185.127ZM480.312 181.624H479V175.946H475.514V179.101H468.823V171.68H470.118V174.303H474.236V171.68H475.514V174.851H479V170.7H480.312V181.624ZM480.644 185.127H470.766V180.545H472.077V184.031H480.644V185.127ZM474.236 178.021V175.332H470.118V178.021H474.236ZM495.249 185.442H493.987V170.684H495.249V185.442ZM492.277 184.695H491.032V177.523H489.131C489.087 178.475 488.929 179.303 488.658 180.005C488.387 180.703 488.019 181.242 487.554 181.624C487.089 182 486.555 182.188 485.952 182.188C485.316 182.188 484.757 181.981 484.276 181.566C483.8 181.145 483.432 180.548 483.172 179.773C482.911 178.998 482.781 178.093 482.781 177.059C482.781 176.024 482.911 175.119 483.172 174.344C483.432 173.569 483.8 172.975 484.276 172.56C484.757 172.139 485.316 171.929 485.952 171.929C486.544 171.929 487.07 172.111 487.529 172.477C487.989 172.842 488.354 173.365 488.625 174.045C488.902 174.726 489.068 175.526 489.123 176.444H491.032V170.999H492.277V184.695ZM485.952 173.157C485.554 173.157 485.208 173.315 484.915 173.63C484.621 173.946 484.394 174.4 484.234 174.992C484.079 175.578 484.004 176.267 484.01 177.059C484.004 177.85 484.079 178.539 484.234 179.125C484.394 179.712 484.621 180.163 484.915 180.479C485.214 180.794 485.559 180.949 485.952 180.943C486.345 180.949 486.688 180.794 486.982 180.479C487.28 180.163 487.51 179.712 487.671 179.125C487.831 178.539 487.911 177.85 487.911 177.059C487.911 176.262 487.831 175.57 487.671 174.983C487.51 174.397 487.283 173.946 486.99 173.63C486.697 173.315 486.351 173.157 485.952 173.157ZM112.038 207.439H107.041V214.429C108.269 214.418 109.329 214.379 110.22 214.312C111.111 214.246 112.005 214.13 112.901 213.964L113.1 215.458C112.099 215.657 111.103 215.79 110.112 215.856C109.122 215.923 107.876 215.956 106.377 215.956H105.182V205.929H112.038V207.439ZM117.052 219.592H115.209V211.357H111.241V209.847H115.209V204.567H117.052V219.592ZM135.853 208.07H123.452V206.593H128.748V204.767H130.574V206.593H135.853V208.07ZM136.55 217.981H122.838V216.504H126.241V213.939C125.704 213.69 125.295 213.375 125.012 212.993C124.73 212.611 124.592 212.171 124.597 211.673C124.592 211.081 124.791 210.572 125.195 210.146C125.605 209.714 126.191 209.385 126.955 209.158C127.718 208.931 128.62 208.817 129.661 208.817C130.69 208.817 131.584 208.931 132.342 209.158C133.1 209.385 133.684 209.714 134.093 210.146C134.503 210.572 134.708 211.081 134.708 211.673C134.708 212.165 134.567 212.603 134.284 212.984C134.008 213.361 133.606 213.673 133.081 213.922V216.504H136.55V217.981ZM129.661 210.245C128.637 210.245 127.851 210.367 127.303 210.61C126.756 210.854 126.484 211.208 126.49 211.673C126.484 212.138 126.756 212.492 127.303 212.735C127.851 212.979 128.637 213.101 129.661 213.101C130.674 213.101 131.451 212.979 131.993 212.735C132.541 212.492 132.815 212.138 132.815 211.673C132.815 211.208 132.541 210.854 131.993 210.61C131.451 210.367 130.674 210.245 129.661 210.245ZM131.255 216.504V214.437C130.784 214.509 130.253 214.545 129.661 214.545C129.091 214.545 128.565 214.512 128.084 214.445V216.504H131.255ZM144.183 204.717C145.323 204.717 146.294 204.816 147.097 205.016C147.905 205.215 148.522 205.508 148.948 205.896C149.374 206.277 149.59 206.742 149.595 207.29C149.59 208.12 149.117 208.757 148.176 209.199C147.235 209.642 145.904 209.869 144.183 209.88C142.457 209.869 141.123 209.642 140.182 209.199C139.241 208.757 138.771 208.12 138.771 207.29C138.771 206.742 138.984 206.277 139.41 205.896C139.836 205.508 140.453 205.215 141.261 205.016C142.069 204.816 143.043 204.717 144.183 204.717ZM144.183 206.095C143.038 206.095 142.169 206.197 141.577 206.402C140.99 206.601 140.702 206.897 140.713 207.29C140.708 207.7 140.993 208.004 141.568 208.203C142.15 208.402 143.021 208.507 144.183 208.519C145.356 208.507 146.234 208.402 146.815 208.203C147.396 208.004 147.686 207.7 147.686 207.29C147.686 206.897 147.39 206.601 146.798 206.402C146.211 206.197 145.34 206.095 144.183 206.095ZM151.04 212.055H147.487V213.25H149.33V216.919H140.797V218.031H149.745V219.442H138.987V215.607H147.52V214.611H138.97V213.25H140.896V212.055H137.36V210.594H151.04V212.055ZM145.644 213.25V212.055H142.722V213.25H145.644ZM157.394 207.141C157.394 207.76 157.53 208.364 157.801 208.95C158.072 209.531 158.473 210.054 159.004 210.519C159.536 210.978 160.178 211.335 160.93 211.59L160.001 213.018C159.182 212.752 158.473 212.351 157.876 211.814C157.283 211.277 156.819 210.649 156.481 209.93C156.143 210.732 155.662 211.432 155.037 212.03C154.411 212.622 153.664 213.062 152.795 213.35L151.849 211.889C152.624 211.634 153.285 211.263 153.833 210.776C154.386 210.284 154.804 209.725 155.086 209.1C155.374 208.469 155.518 207.821 155.518 207.157V206.958H152.397V205.48H160.499V206.958H157.394V207.141ZM164.45 219.575H162.607V215.707H154.223V214.229H164.45V219.575ZM164.45 213.516H162.607V209.797H160.05V208.286H162.607V204.567H164.45V213.516ZM178.906 215.425H177.046V204.584H178.906V215.425ZM179.321 219.276H168.978V214.329H170.837V217.782H179.321V219.276ZM170.721 205.563C171.474 205.563 172.157 205.727 172.771 206.053C173.386 206.374 173.87 206.82 174.224 207.39C174.578 207.96 174.755 208.602 174.755 209.315C174.755 210.04 174.578 210.691 174.224 211.266C173.87 211.836 173.386 212.282 172.771 212.603C172.157 212.924 171.474 213.084 170.721 213.084C169.963 213.084 169.274 212.924 168.654 212.603C168.04 212.282 167.556 211.836 167.202 211.266C166.847 210.691 166.67 210.04 166.67 209.315C166.67 208.602 166.847 207.96 167.202 207.39C167.556 206.82 168.04 206.374 168.654 206.053C169.274 205.727 169.963 205.563 170.721 205.563ZM170.721 207.174C170.295 207.174 169.91 207.262 169.567 207.439C169.224 207.617 168.956 207.868 168.762 208.195C168.568 208.521 168.474 208.895 168.48 209.315C168.474 209.747 168.568 210.126 168.762 210.453C168.956 210.779 169.224 211.031 169.567 211.208C169.91 211.385 170.295 211.474 170.721 211.474C171.136 211.474 171.512 211.385 171.85 211.208C172.188 211.031 172.453 210.779 172.647 210.453C172.846 210.126 172.946 209.747 172.946 209.315C172.946 208.895 172.846 208.521 172.647 208.195C172.453 207.868 172.188 207.617 171.85 207.439C171.512 207.262 171.136 207.174 170.721 207.174ZM188.892 205.663C189.567 205.663 190.176 205.843 190.718 206.203C191.266 206.562 191.709 207.074 192.046 207.738H195.549V204.567H197.375V219.592H195.549V213.914H192.179C191.853 214.661 191.404 215.242 190.834 215.657C190.264 216.067 189.617 216.271 188.892 216.271C188.139 216.271 187.472 216.056 186.891 215.624C186.31 215.192 185.857 214.575 185.53 213.773C185.204 212.971 185.04 212.033 185.04 210.959C185.04 209.896 185.204 208.967 185.53 208.17C185.857 207.368 186.31 206.75 186.891 206.319C187.478 205.882 188.145 205.663 188.892 205.663ZM188.892 207.323C188.477 207.323 188.112 207.47 187.796 207.763C187.481 208.051 187.237 208.469 187.066 209.017C186.894 209.559 186.811 210.206 186.817 210.959C186.811 211.717 186.894 212.37 187.066 212.918C187.237 213.466 187.481 213.886 187.796 214.18C188.112 214.467 188.477 214.611 188.892 214.611C189.307 214.611 189.669 214.467 189.979 214.18C190.295 213.886 190.538 213.466 190.71 212.918C190.887 212.37 190.978 211.717 190.984 210.959C190.978 210.206 190.887 209.556 190.71 209.008C190.538 208.46 190.295 208.043 189.979 207.755C189.669 207.467 189.307 207.323 188.892 207.323ZM192.561 209.249C192.672 209.786 192.727 210.356 192.727 210.959C192.727 211.457 192.688 211.944 192.611 212.42H195.549V209.249H192.561ZM212.147 213.997H210.387V209.913H208.926V213.499H207.199V204.866H208.926V208.419H210.387V204.567H212.147V213.997ZM206.701 207.639H199.231V206.194H202.07V204.7H203.896V206.194H206.701V207.639ZM202.983 208.253C203.613 208.253 204.175 208.361 204.668 208.577C205.16 208.792 205.545 209.097 205.822 209.49C206.104 209.877 206.248 210.328 206.253 210.843C206.248 211.357 206.104 211.811 205.822 212.204C205.545 212.591 205.16 212.893 204.668 213.109C204.175 213.325 203.613 213.433 202.983 213.433C202.363 213.433 201.807 213.325 201.314 213.109C200.822 212.893 200.437 212.589 200.16 212.196C199.889 211.803 199.756 211.352 199.762 210.843C199.756 210.334 199.889 209.883 200.16 209.49C200.437 209.097 200.822 208.792 201.314 208.577C201.807 208.361 202.363 208.253 202.983 208.253ZM202.983 209.581C202.512 209.581 202.13 209.694 201.837 209.921C201.549 210.148 201.405 210.455 201.405 210.843C201.405 211.23 201.549 211.537 201.837 211.764C202.125 211.991 202.507 212.104 202.983 212.104C203.459 212.104 203.843 211.991 204.136 211.764C204.43 211.537 204.576 211.23 204.576 210.843C204.576 210.455 204.43 210.148 204.136 209.921C203.843 209.694 203.459 209.581 202.983 209.581ZM207.083 214.18C208.151 214.18 209.07 214.285 209.839 214.495C210.608 214.705 211.198 215.015 211.607 215.425C212.017 215.829 212.224 216.316 212.23 216.886C212.224 217.445 212.014 217.923 211.599 218.322C211.189 218.726 210.6 219.033 209.831 219.243C209.062 219.453 208.146 219.559 207.083 219.559C206.021 219.559 205.102 219.453 204.327 219.243C203.558 219.033 202.966 218.726 202.551 218.322C202.141 217.923 201.937 217.445 201.937 216.886C201.937 216.316 202.141 215.829 202.551 215.425C202.966 215.015 203.558 214.705 204.327 214.495C205.097 214.285 206.015 214.18 207.083 214.18ZM207.083 215.591C206.004 215.58 205.182 215.685 204.618 215.906C204.059 216.122 203.78 216.449 203.78 216.886C203.78 217.301 204.062 217.616 204.626 217.832C205.191 218.042 206.01 218.147 207.083 218.147C208.151 218.147 208.965 218.042 209.524 217.832C210.088 217.616 210.37 217.301 210.37 216.886C210.37 216.449 210.088 216.122 209.524 215.906C208.965 215.685 208.151 215.58 207.083 215.591ZM221.95 205.049C222.703 205.049 223.381 205.195 223.984 205.489C224.587 205.777 225.06 206.178 225.403 206.692C225.752 207.207 225.929 207.788 225.935 208.436C225.929 209.089 225.752 209.672 225.403 210.187C225.06 210.702 224.587 211.103 223.984 211.391C223.381 211.678 222.703 211.822 221.95 211.822C221.192 211.822 220.509 211.678 219.9 211.391C219.297 211.103 218.824 210.702 218.481 210.187C218.137 209.672 217.966 209.089 217.966 208.436C217.966 207.788 218.137 207.207 218.481 206.692C218.824 206.178 219.3 205.777 219.908 205.489C220.517 205.195 221.198 205.049 221.95 205.049ZM221.95 206.576C221.53 206.576 221.153 206.654 220.821 206.809C220.489 206.958 220.229 207.174 220.041 207.456C219.853 207.733 219.759 208.059 219.759 208.436C219.759 208.817 219.853 209.152 220.041 209.44C220.229 209.722 220.489 209.941 220.821 210.096C221.153 210.251 221.53 210.328 221.95 210.328C222.371 210.328 222.747 210.251 223.079 210.096C223.411 209.941 223.671 209.722 223.859 209.44C224.048 209.152 224.142 208.817 224.142 208.436C224.142 208.059 224.048 207.733 223.859 207.456C223.671 207.174 223.411 206.958 223.079 206.809C222.747 206.654 222.371 206.576 221.95 206.576ZM230.201 212.154H228.342V204.567H230.201V212.154ZM230.201 216.72H222.083V217.932H230.649V219.393H220.273V215.358H228.358V214.246H220.24V212.802H230.201V216.72ZM244.79 213.482H242.947V209.813H240.391V208.303H242.947V204.567H244.79V213.482ZM239.71 213.864C240.767 213.864 241.68 213.978 242.449 214.205C243.224 214.426 243.816 214.752 244.226 215.184C244.635 215.61 244.84 216.122 244.84 216.72C244.84 217.317 244.635 217.829 244.226 218.255C243.816 218.687 243.224 219.014 242.449 219.235C241.68 219.462 240.767 219.575 239.71 219.575C238.658 219.575 237.748 219.462 236.979 219.235C236.21 219.014 235.62 218.687 235.211 218.255C234.807 217.829 234.608 217.317 234.613 216.72C234.608 216.122 234.807 215.61 235.211 215.184C235.62 214.752 236.21 214.426 236.979 214.205C237.748 213.978 238.658 213.864 239.71 213.864ZM239.71 215.275C238.658 215.275 237.851 215.4 237.286 215.649C236.722 215.892 236.439 216.249 236.439 216.72C236.439 217.185 236.722 217.539 237.286 217.782C237.851 218.026 238.658 218.147 239.71 218.147C240.761 218.147 241.572 218.026 242.142 217.782C242.712 217.539 242.997 217.185 242.997 216.72C242.997 216.249 242.712 215.892 242.142 215.649C241.572 215.4 240.761 215.275 239.71 215.275ZM237.734 207.141C237.734 207.76 237.87 208.364 238.141 208.95C238.412 209.531 238.813 210.054 239.345 210.519C239.876 210.978 240.518 211.335 241.27 211.59L240.341 213.051C239.527 212.774 238.822 212.367 238.224 211.831C237.632 211.288 237.167 210.657 236.83 209.938C236.492 210.751 236.011 211.463 235.385 212.071C234.76 212.674 234.01 213.134 233.136 213.449L232.173 211.988C232.953 211.723 233.62 211.338 234.173 210.834C234.727 210.325 235.145 209.753 235.427 209.116C235.714 208.48 235.858 207.827 235.858 207.157V207.041H232.737V205.547H240.839V207.041H237.734V207.141ZM258.993 206.576V206.775C258.982 207.539 258.954 208.236 258.91 208.867C258.866 209.498 258.772 210.206 258.628 210.992L256.802 210.826C256.934 210.129 257.026 209.498 257.076 208.934C257.125 208.364 257.159 207.788 257.175 207.207H251.34V205.68H258.993V206.576ZM255.208 212.096C256.984 212.019 258.517 211.889 259.806 211.706L259.906 213.034C258.523 213.283 257.078 213.449 255.573 213.532C254.073 213.61 252.419 213.654 250.609 213.665L250.443 212.188H250.742L253.382 212.154V209.1H255.208V212.096ZM262.579 209.249H264.521V210.793H262.579V215.807H260.686V204.567H262.579V209.249ZM263.06 219.276H252.684V214.811H254.544V217.782H263.06V219.276ZM277.633 219.592H275.806V204.567H277.633V219.592ZM273.017 211.507H267.854V214.528C269.121 214.517 270.284 214.473 271.341 214.396C272.403 214.318 273.488 214.185 274.594 213.997L274.76 215.508C273.571 215.718 272.4 215.859 271.249 215.931C270.098 216.003 268.773 216.039 267.273 216.039H265.962V210.046H271.141V207.373H265.945V205.879H273.017V211.507ZM293.251 212.569H279.737V211.54H293.251V212.569ZM291.557 216.886H282.692V218.297H292.039V219.243H281.381V215.989H290.262V214.728H281.364V213.748H291.557V216.886ZM291.507 208.187H282.792V209.481H291.773V210.428H281.497V207.29H290.196V206.078H281.447V205.132H291.507V208.187ZM303.237 205.414C303.967 205.409 304.618 205.53 305.188 205.779C305.763 206.028 306.211 206.382 306.532 206.842C306.859 207.301 307.022 207.827 307.022 208.419C307.022 209.011 306.859 209.537 306.532 209.996C306.211 210.455 305.763 210.812 305.188 211.067C304.618 211.321 303.967 211.446 303.237 211.44C302.506 211.446 301.853 211.321 301.278 211.067C300.708 210.812 300.26 210.455 299.933 209.996C299.612 209.537 299.452 209.011 299.452 208.419C299.452 207.827 299.612 207.301 299.933 206.842C300.26 206.382 300.708 206.028 301.278 205.779C301.853 205.53 302.506 205.409 303.237 205.414ZM303.237 206.477C302.75 206.471 302.315 206.551 301.934 206.717C301.552 206.878 301.253 207.107 301.037 207.406C300.827 207.705 300.724 208.043 300.73 208.419C300.724 208.801 300.827 209.141 301.037 209.44C301.253 209.733 301.552 209.963 301.934 210.129C302.315 210.289 302.75 210.367 303.237 210.361C303.729 210.367 304.167 210.289 304.548 210.129C304.936 209.963 305.237 209.733 305.453 209.44C305.669 209.141 305.777 208.801 305.777 208.419C305.777 208.043 305.669 207.705 305.453 207.406C305.237 207.107 304.936 206.878 304.548 206.717C304.167 206.551 303.729 206.471 303.237 206.477ZM310.542 219.459H309.263V204.7H310.542V219.459ZM298.339 212.702C300.16 212.702 301.889 212.669 303.527 212.603C305.165 212.531 306.718 212.387 308.184 212.171L308.267 213.15C306.967 213.388 305.533 213.557 303.967 213.657V218.994H302.672V213.731C301.693 213.776 300.309 213.803 298.522 213.814L298.339 212.702ZM320.266 208.303H312.862V207.24H315.933V205.132H317.228V207.24H320.266V208.303ZM316.564 209.299C317.178 209.299 317.726 209.443 318.207 209.73C318.694 210.013 319.073 210.408 319.345 210.917C319.621 211.427 319.762 212.005 319.768 212.652C319.762 213.305 319.621 213.889 319.345 214.404C319.073 214.913 318.694 215.314 318.207 215.607C317.726 215.895 317.178 216.039 316.564 216.039C315.955 216.039 315.41 215.895 314.929 215.607C314.447 215.314 314.071 214.91 313.8 214.396C313.529 213.881 313.393 213.3 313.393 212.652C313.393 212.01 313.529 211.435 313.8 210.926C314.071 210.411 314.447 210.013 314.929 209.73C315.41 209.443 315.955 209.299 316.564 209.299ZM316.564 210.395C316.182 210.4 315.836 210.502 315.526 210.702C315.222 210.895 314.984 211.164 314.812 211.507C314.641 211.844 314.555 212.226 314.555 212.652C314.555 213.084 314.641 213.471 314.812 213.814C314.99 214.158 315.23 214.426 315.535 214.62C315.839 214.808 316.182 214.899 316.564 214.894C316.951 214.899 317.3 214.808 317.61 214.62C317.92 214.426 318.163 214.158 318.34 213.814C318.517 213.471 318.606 213.084 318.606 212.652C318.606 212.226 318.517 211.844 318.34 211.507C318.163 211.164 317.92 210.895 317.61 210.702C317.3 210.502 316.951 210.4 316.564 210.395ZM325.462 219.442H324.217V211.988H322.258V218.712H321.03V205.049H322.258V210.909H324.217V204.684H325.462V219.442ZM331.248 218.098L335.482 206.078H338.138L342.388 218.098H340.08L339.076 215.126H334.552L333.556 218.098H331.248ZM338.495 213.383L336.86 208.535H336.76L335.133 213.383H338.495ZM345.804 218.098H343.646V206.078H345.804V218.098ZM355.375 205.049C356.128 205.049 356.806 205.195 357.409 205.489C358.012 205.777 358.485 206.178 358.828 206.692C359.177 207.207 359.354 207.788 359.359 208.436C359.354 209.089 359.177 209.672 358.828 210.187C358.485 210.702 358.012 211.103 357.409 211.391C356.806 211.678 356.128 211.822 355.375 211.822C354.617 211.822 353.933 211.678 353.325 211.391C352.722 211.103 352.248 210.702 351.905 210.187C351.562 209.672 351.391 209.089 351.391 208.436C351.391 207.788 351.562 207.207 351.905 206.692C352.248 206.178 352.724 205.777 353.333 205.489C353.942 205.195 354.622 205.049 355.375 205.049ZM355.375 206.576C354.954 206.576 354.578 206.654 354.246 206.809C353.914 206.958 353.654 207.174 353.466 207.456C353.278 207.733 353.184 208.059 353.184 208.436C353.184 208.817 353.278 209.152 353.466 209.44C353.654 209.722 353.914 209.941 354.246 210.096C354.578 210.251 354.954 210.328 355.375 210.328C355.796 210.328 356.172 210.251 356.504 210.096C356.836 209.941 357.096 209.722 357.284 209.44C357.472 209.152 357.566 208.817 357.566 208.436C357.566 208.059 357.472 207.733 357.284 207.456C357.096 207.174 356.836 206.958 356.504 206.809C356.172 206.654 355.796 206.576 355.375 206.576ZM363.626 212.154H361.767V204.567H363.626V212.154ZM363.626 216.72H355.508V217.932H364.074V219.393H353.698V215.358H361.783V214.246H353.665V212.802H363.626V216.72ZM378.215 213.482H376.372V209.813H373.815V208.303H376.372V204.567H378.215V213.482ZM373.135 213.864C374.192 213.864 375.105 213.978 375.874 214.205C376.649 214.426 377.241 214.752 377.65 215.184C378.06 215.61 378.265 216.122 378.265 216.72C378.265 217.317 378.06 217.829 377.65 218.255C377.241 218.687 376.649 219.014 375.874 219.235C375.105 219.462 374.192 219.575 373.135 219.575C372.083 219.575 371.173 219.462 370.404 219.235C369.635 219.014 369.045 218.687 368.636 218.255C368.232 217.829 368.032 217.317 368.038 216.72C368.032 216.122 368.232 215.61 368.636 215.184C369.045 214.752 369.635 214.426 370.404 214.205C371.173 213.978 372.083 213.864 373.135 213.864ZM373.135 215.275C372.083 215.275 371.275 215.4 370.711 215.649C370.146 215.892 369.864 216.249 369.864 216.72C369.864 217.185 370.146 217.539 370.711 217.782C371.275 218.026 372.083 218.147 373.135 218.147C374.186 218.147 374.997 218.026 375.567 217.782C376.137 217.539 376.422 217.185 376.422 216.72C376.422 216.249 376.137 215.892 375.567 215.649C374.997 215.4 374.186 215.275 373.135 215.275ZM371.159 207.141C371.159 207.76 371.295 208.364 371.566 208.95C371.837 209.531 372.238 210.054 372.769 210.519C373.301 210.978 373.943 211.335 374.695 211.59L373.766 213.051C372.952 212.774 372.247 212.367 371.649 211.831C371.057 211.288 370.592 210.657 370.254 209.938C369.917 210.751 369.435 211.463 368.81 212.071C368.185 212.674 367.435 213.134 366.56 213.449L365.598 211.988C366.378 211.723 367.045 211.338 367.598 210.834C368.151 210.325 368.569 209.753 368.852 209.116C369.139 208.48 369.283 207.827 369.283 207.157V207.041H366.162V205.547H374.264V207.041H371.159V207.141ZM392.418 206.576V206.775C392.407 207.539 392.379 208.236 392.335 208.867C392.29 209.498 392.196 210.206 392.052 210.992L390.226 210.826C390.359 210.129 390.45 209.498 390.5 208.934C390.55 208.364 390.583 207.788 390.6 207.207H384.764V205.68H392.418V206.576ZM388.633 212.096C390.409 212.019 391.942 211.889 393.231 211.706L393.331 213.034C391.947 213.283 390.503 213.449 388.998 213.532C387.498 213.61 385.844 213.654 384.034 213.665L383.868 212.188H384.167L386.806 212.154V209.1H388.633V212.096ZM396.004 209.249H397.946V210.793H396.004V215.807H394.111V204.567H396.004V209.249ZM396.485 219.276H386.109V214.811H387.969V217.782H396.485V219.276ZM411.057 219.592H409.231V204.567H411.057V219.592ZM406.442 211.507H401.279V214.528C402.546 214.517 403.708 214.473 404.765 214.396C405.828 214.318 406.912 214.185 408.019 213.997L408.185 215.508C406.995 215.718 405.825 215.859 404.674 215.931C403.523 216.003 402.198 216.039 400.698 216.039H399.386V210.046H404.566V207.373H399.37V205.879H406.442V211.507ZM429.477 219.575H427.618V204.567H429.477V219.575ZM424.995 206.161C424.995 208.546 424.455 210.641 423.376 212.445C422.297 214.243 420.507 215.735 418.005 216.919L417.043 215.441C418.974 214.523 420.426 213.424 421.4 212.146C422.38 210.862 422.953 209.354 423.119 207.622H417.806V206.161H424.995ZM443.601 209.963H433.242V204.833H435.084V208.469H443.601V209.963ZM445.162 212.901H431.465V211.407H445.162V212.901ZM438.289 213.98C439.368 213.986 440.295 214.099 441.069 214.321C441.844 214.537 442.439 214.852 442.854 215.267C443.269 215.677 443.479 216.172 443.485 216.753C443.479 217.334 443.269 217.829 442.854 218.239C442.439 218.654 441.844 218.969 441.069 219.185C440.295 219.401 439.368 219.509 438.289 219.509C437.198 219.509 436.26 219.401 435.475 219.185C434.694 218.969 434.097 218.654 433.682 218.239C433.267 217.829 433.059 217.334 433.059 216.753C433.059 216.172 433.267 215.677 433.682 215.267C434.097 214.852 434.694 214.537 435.475 214.321C436.26 214.099 437.198 213.986 438.289 213.98ZM438.289 215.425C436.036 215.441 434.918 215.884 434.935 216.753C434.924 217.185 435.206 217.517 435.782 217.749C436.357 217.981 437.193 218.098 438.289 218.098C439.357 218.098 440.178 217.981 440.754 217.749C441.335 217.517 441.631 217.185 441.642 216.753C441.625 215.884 440.508 215.441 438.289 215.425ZM462.801 219.442H461.556V204.684H462.801V219.442ZM459.813 218.679H458.584V211.075H456.094V210.013H458.584V205.049H459.813V218.679ZM454.517 208.9C454.517 209.758 454.641 210.597 454.89 211.416C455.139 212.229 455.505 212.965 455.986 213.624C456.468 214.277 457.04 214.794 457.704 215.176L456.908 216.139C456.194 215.713 455.582 215.123 455.073 214.371C454.564 213.612 454.177 212.755 453.911 211.797C453.64 212.832 453.239 213.759 452.707 214.578C452.182 215.397 451.556 216.034 450.831 216.487L450.001 215.508C450.671 215.109 451.252 214.564 451.744 213.873C452.237 213.181 452.61 212.406 452.865 211.548C453.125 210.685 453.255 209.802 453.255 208.9V207.506H450.416V206.427H457.223V207.506H454.517V208.9ZM471.38 214.014C472.437 214.014 473.353 214.122 474.128 214.337C474.908 214.548 475.508 214.858 475.929 215.267C476.35 215.671 476.56 216.155 476.56 216.72C476.56 217.279 476.35 217.76 475.929 218.164C475.508 218.568 474.908 218.875 474.128 219.085C473.347 219.301 472.432 219.409 471.38 219.409C470.329 219.409 469.416 219.301 468.641 219.085C467.866 218.875 467.268 218.568 466.848 218.164C466.427 217.76 466.217 217.279 466.217 216.72C466.217 216.155 466.427 215.671 466.848 215.267C467.268 214.858 467.866 214.548 468.641 214.337C469.416 214.122 470.329 214.014 471.38 214.014ZM471.38 215.01C470.6 215.015 469.916 215.087 469.33 215.226C468.743 215.364 468.292 215.563 467.977 215.823C467.661 216.078 467.506 216.377 467.512 216.72C467.506 217.057 467.661 217.353 467.977 217.608C468.292 217.857 468.743 218.048 469.33 218.181C469.916 218.313 470.6 218.38 471.38 218.38C472.16 218.38 472.841 218.313 473.422 218.181C474.009 218.048 474.46 217.857 474.775 217.608C475.096 217.353 475.259 217.057 475.265 216.72C475.259 216.377 475.096 216.078 474.775 215.823C474.46 215.563 474.009 215.364 473.422 215.226C472.841 215.087 472.16 215.015 471.38 215.01ZM476.444 206.692C476.444 207.489 476.419 208.173 476.369 208.743C476.325 209.307 476.211 209.93 476.029 210.61L474.75 210.461C474.927 209.78 475.038 209.172 475.082 208.635C475.127 208.098 475.149 207.451 475.149 206.692V206.51H466.317V205.447H476.444V206.692ZM478.154 212.636H464.723V211.573H470.284V208.718H471.563V211.573H478.154V212.636ZM124.388 239.231C125.118 239.237 125.771 239.378 126.347 239.655C126.928 239.931 127.382 240.319 127.708 240.817C128.04 241.309 128.206 241.871 128.206 242.502C128.206 243.133 128.04 243.697 127.708 244.195C127.382 244.688 126.928 245.072 126.347 245.349C125.771 245.62 125.118 245.756 124.388 245.756C123.646 245.756 122.985 245.62 122.404 245.349C121.823 245.072 121.369 244.688 121.043 244.195C120.716 243.697 120.553 243.133 120.553 242.502C120.553 241.871 120.716 241.309 121.043 240.817C121.369 240.319 121.823 239.931 122.404 239.655C122.985 239.378 123.646 239.237 124.388 239.231ZM124.388 240.327C123.901 240.327 123.461 240.421 123.068 240.609C122.681 240.792 122.376 241.049 122.155 241.381C121.934 241.708 121.826 242.081 121.831 242.502C121.826 242.928 121.934 243.307 122.155 243.639C122.376 243.971 122.681 244.231 123.068 244.419C123.461 244.602 123.901 244.693 124.388 244.693C124.869 244.693 125.304 244.602 125.691 244.419C126.084 244.231 126.391 243.971 126.612 243.639C126.834 243.307 126.944 242.928 126.944 242.502C126.944 242.081 126.834 241.708 126.612 241.381C126.391 241.049 126.084 240.792 125.691 240.609C125.304 240.421 124.869 240.327 124.388 240.327ZM132.39 246.271H131.095V238.684H132.39V246.271ZM132.39 250.537H124.106V252.197H132.921V253.243H122.827V249.558H131.095V248.03H122.794V246.984H132.39V250.537ZM142.181 240.775C142.175 241.406 142.421 242.009 142.92 242.585C143.418 243.155 144.068 243.636 144.87 244.029C145.673 244.422 146.508 244.682 147.377 244.81L146.896 245.839C146.115 245.706 145.363 245.485 144.638 245.175C143.918 244.865 143.279 244.478 142.72 244.013C142.161 243.542 141.738 243.019 141.45 242.444C141.163 243.019 140.739 243.54 140.18 244.004C139.621 244.469 138.982 244.859 138.263 245.175C137.549 245.485 136.807 245.706 136.038 245.839L135.524 244.81C136.387 244.682 137.22 244.422 138.022 244.029C138.824 243.636 139.475 243.155 139.973 242.585C140.471 242.009 140.72 241.406 140.72 240.775V240.676H135.988V239.613H146.896V240.676H142.181V240.775ZM148.174 248.18H142.065V253.442H140.786V248.18H134.727V247.101H148.174V248.18ZM153.433 239.231C154.163 239.237 154.816 239.378 155.392 239.655C155.973 239.931 156.426 240.319 156.753 240.817C157.085 241.309 157.251 241.871 157.251 242.502C157.251 243.133 157.085 243.697 156.753 244.195C156.426 244.688 155.973 245.072 155.392 245.349C154.816 245.62 154.163 245.756 153.433 245.756C152.691 245.756 152.03 245.62 151.449 245.349C150.868 245.072 150.414 244.688 150.087 244.195C149.761 243.697 149.598 243.133 149.598 242.502C149.598 241.871 149.761 241.309 150.087 240.817C150.414 240.319 150.868 239.931 151.449 239.655C152.03 239.378 152.691 239.237 153.433 239.231ZM153.433 240.327C152.946 240.327 152.506 240.421 152.113 240.609C151.725 240.792 151.421 241.049 151.2 241.381C150.978 241.708 150.87 242.081 150.876 242.502C150.87 242.928 150.978 243.307 151.2 243.639C151.421 243.971 151.725 244.231 152.113 244.419C152.506 244.602 152.946 244.693 153.433 244.693C153.914 244.693 154.348 244.602 154.736 244.419C155.129 244.231 155.436 243.971 155.657 243.639C155.879 243.307 155.989 242.928 155.989 242.502C155.989 242.081 155.879 241.708 155.657 241.381C155.436 241.049 155.129 240.792 154.736 240.609C154.348 240.421 153.914 240.327 153.433 240.327ZM161.435 246.271H160.14V238.684H161.435V246.271ZM161.435 250.537H153.15V252.197H161.966V253.243H151.872V249.558H160.14V248.03H151.839V246.984H161.435V250.537ZM179.406 243.083H181.647V244.179H179.406V249.375H178.111V238.684H179.406V243.083ZM175.139 241.058H169.86V245.656C171.437 245.656 172.699 245.626 173.645 245.565C174.597 245.499 175.543 245.368 176.484 245.175L176.65 246.254C175.643 246.448 174.636 246.58 173.629 246.652C172.622 246.719 171.316 246.752 169.711 246.752H168.565V239.962H175.139V241.058ZM180.087 253.127H170.176V248.296H171.454V252.031H180.087V253.127ZM187.255 239.414C187.985 239.409 188.635 239.53 189.205 239.779C189.781 240.028 190.229 240.382 190.55 240.842C190.877 241.301 191.04 241.827 191.04 242.419C191.04 243.011 190.877 243.537 190.55 243.996C190.229 244.455 189.781 244.812 189.205 245.067C188.635 245.321 187.985 245.446 187.255 245.44C186.524 245.446 185.871 245.321 185.296 245.067C184.726 244.812 184.277 244.455 183.951 243.996C183.63 243.537 183.469 243.011 183.469 242.419C183.469 241.827 183.63 241.301 183.951 240.842C184.277 240.382 184.726 240.028 185.296 239.779C185.871 239.53 186.524 239.409 187.255 239.414ZM187.255 240.477C186.768 240.471 186.333 240.551 185.951 240.717C185.57 240.878 185.271 241.107 185.055 241.406C184.845 241.705 184.742 242.043 184.748 242.419C184.742 242.801 184.845 243.141 185.055 243.44C185.271 243.733 185.57 243.963 185.951 244.129C186.333 244.289 186.768 244.367 187.255 244.361C187.747 244.367 188.184 244.289 188.566 244.129C188.954 243.963 189.255 243.733 189.471 243.44C189.687 243.141 189.795 242.801 189.795 242.419C189.795 242.043 189.687 241.705 189.471 241.406C189.255 241.107 188.954 240.878 188.566 240.717C188.184 240.551 187.747 240.471 187.255 240.477ZM194.559 253.459H193.281V238.7H194.559V253.459ZM182.357 246.702C184.178 246.702 185.907 246.669 187.545 246.603C189.183 246.531 190.735 246.387 192.202 246.171L192.285 247.15C190.984 247.388 189.551 247.557 187.985 247.657V252.994H186.69V247.731C185.711 247.776 184.327 247.803 182.54 247.814L182.357 246.702ZM210.426 251.616H196.913V250.521H202.989V247.731H198.606V243.183H207.438V240.858H198.573V239.779H208.716V244.245H199.901V246.652H209.065V247.731H204.267V250.521H210.426V251.616ZM219.599 239.381C220.252 239.375 220.847 239.492 221.384 239.729C221.921 239.962 222.361 240.294 222.704 240.726C223.052 241.157 223.274 241.655 223.368 242.22H226.456V238.684H227.767V246.603H226.456V243.299H223.376C223.293 243.874 223.077 244.383 222.729 244.826C222.385 245.263 221.943 245.604 221.4 245.847C220.858 246.085 220.258 246.204 219.599 246.204C218.858 246.204 218.196 246.06 217.615 245.772C217.034 245.485 216.58 245.081 216.254 244.561C215.927 244.04 215.764 243.448 215.764 242.784C215.764 242.12 215.927 241.531 216.254 241.016C216.58 240.496 217.034 240.092 217.615 239.804C218.202 239.516 218.863 239.375 219.599 239.381ZM219.599 240.493C219.101 240.488 218.656 240.582 218.263 240.775C217.87 240.969 217.563 241.24 217.341 241.589C217.12 241.938 217.009 242.336 217.009 242.784C217.009 243.227 217.12 243.625 217.341 243.979C217.563 244.334 217.87 244.61 218.263 244.81C218.656 245.009 219.101 245.108 219.599 245.108C220.092 245.108 220.532 245.009 220.919 244.81C221.306 244.61 221.608 244.334 221.824 243.979C222.045 243.625 222.156 243.227 222.156 242.784C222.156 242.336 222.045 241.938 221.824 241.589C221.608 241.24 221.306 240.969 220.919 240.775C220.532 240.582 220.092 240.488 219.599 240.493ZM219.566 249.226H226.456V247.35H227.767V253.243H218.254V247.35H219.566V249.226ZM226.456 252.181V250.271H219.566V252.181H226.456ZM243.568 251.616H230.054V250.521H236.13V247.731H231.747V243.183H240.58V240.858H231.714V239.779H241.858V244.245H233.042V246.652H242.206V247.731H237.409V250.521H243.568V251.616ZM256.496 246.868H246.303V240.062H256.347V241.141H247.598V245.789H256.496V246.868ZM258.09 251.434H244.577V250.338H258.09V251.434ZM271.994 246.138H268.757V249.043C270.323 248.982 271.745 248.877 273.024 248.728L273.123 249.707C271.662 249.923 270.14 250.067 268.558 250.139C266.975 250.205 265.276 250.238 263.461 250.238L263.279 249.143C264.894 249.143 266.289 249.126 267.462 249.093V246.138H264.407V240.095H271.928V241.157H265.686V245.059H271.994V246.138ZM275.298 253.476H274.003V238.684H275.298V253.476ZM289.654 244.212H279.544V239.231H280.839V243.166H289.654V244.212ZM291.215 247.283H277.701V246.221H291.215V247.283ZM289.737 253.077H279.461V248.794H280.756V251.998H289.737V253.077ZM301.782 242.17C301.782 243.111 301.926 244.021 302.214 244.901C302.507 245.775 302.933 246.55 303.492 247.225C304.057 247.9 304.726 248.407 305.501 248.744L304.389 250.222C303.559 249.818 302.842 249.237 302.239 248.479C301.641 247.72 301.179 246.84 300.852 245.839C300.515 246.901 300.039 247.837 299.425 248.645C298.816 249.452 298.091 250.072 297.25 250.504L296.088 249.01C296.879 248.639 297.56 248.097 298.13 247.383C298.705 246.669 299.143 245.858 299.441 244.951C299.746 244.043 299.901 243.116 299.906 242.17V239.779H301.782V242.17ZM308.821 253.592H306.995V244.909H303.841V243.415H306.995V238.567H308.821V253.592ZM317.583 238.717C318.723 238.717 319.694 238.816 320.496 239.016C321.304 239.215 321.921 239.508 322.348 239.896C322.774 240.277 322.989 240.742 322.995 241.29C322.989 242.12 322.516 242.757 321.576 243.199C320.635 243.642 319.304 243.869 317.583 243.88C315.856 243.869 314.523 243.642 313.582 243.199C312.641 242.757 312.171 242.12 312.171 241.29C312.171 240.742 312.384 240.277 312.81 239.896C313.236 239.508 313.853 239.215 314.661 239.016C315.469 238.816 316.443 238.717 317.583 238.717ZM317.583 240.095C316.437 240.095 315.569 240.197 314.976 240.402C314.39 240.601 314.102 240.897 314.113 241.29C314.108 241.7 314.393 242.004 314.968 242.203C315.549 242.402 316.421 242.507 317.583 242.519C318.756 242.507 319.633 242.402 320.214 242.203C320.795 242.004 321.086 241.7 321.086 241.29C321.086 240.897 320.79 240.601 320.198 240.402C319.611 240.197 318.739 240.095 317.583 240.095ZM324.439 246.104H318.496V247.25H322.729V250.919H314.196V252.031H323.144V253.442H312.387V249.607H320.92V248.611H312.37V247.25H316.653V246.104H310.76V244.66H324.439V246.104ZM329.428 248.13L334.625 240.078H337.314V248.08H338.891V249.856H337.314V252.098H335.256V249.856H329.428V248.13ZM335.289 248.08V242.535H335.156L331.636 247.997V248.08H335.289ZM352.866 253.575H351.106V245.922H349.413V252.812H347.719V238.85H349.413V244.444H351.106V238.567H352.866V253.575ZM346.026 241.838H342.274V248.512C343.148 248.501 343.937 248.467 344.64 248.412C345.343 248.357 346.054 248.263 346.773 248.13L346.906 249.641C346.076 249.807 345.257 249.917 344.449 249.973C343.641 250.028 342.634 250.061 341.427 250.072H340.415V240.344H346.026V241.838ZM370.373 240.294C370.373 241.074 370.353 241.771 370.314 242.386C370.276 243 370.182 243.675 370.032 244.411H372.049V245.889H366.073V247.889C366.98 247.95 367.761 248.102 368.414 248.346C369.072 248.584 369.576 248.902 369.924 249.3C370.273 249.699 370.45 250.166 370.456 250.703C370.45 251.306 370.234 251.821 369.808 252.247C369.388 252.679 368.782 253.005 367.99 253.227C367.204 253.448 366.266 253.559 365.176 253.559C364.075 253.559 363.126 253.448 362.329 253.227C361.532 253.005 360.921 252.679 360.495 252.247C360.074 251.821 359.864 251.306 359.864 250.703C359.864 250.166 360.038 249.699 360.387 249.3C360.735 248.902 361.236 248.584 361.889 248.346C362.548 248.102 363.333 247.953 364.247 247.897V245.889H358.336V244.411H368.181C368.325 243.714 368.419 243.072 368.463 242.485C368.508 241.899 368.53 241.279 368.53 240.626H360.03V239.148H370.373V240.294ZM365.176 249.342C364.058 249.342 363.203 249.458 362.611 249.69C362.025 249.917 361.734 250.255 361.74 250.703C361.734 251.157 362.025 251.5 362.611 251.732C363.198 251.965 364.053 252.081 365.176 252.081C366.272 252.081 367.113 251.965 367.7 251.732C368.292 251.5 368.591 251.157 368.596 250.703C368.591 250.26 368.292 249.923 367.7 249.69C367.113 249.458 366.272 249.342 365.176 249.342ZM385.542 247.001H383.7V246.271H380.628V245.042H383.7V238.567H385.542V247.001ZM372.792 243.315C375.233 243.315 377.333 243.26 379.093 243.149C379.264 242.27 379.367 241.417 379.4 240.593H374.22V239.132H381.209V239.63C381.209 240.161 381.193 240.69 381.16 241.215C381.126 241.741 381.046 242.339 380.919 243.008C381.66 242.931 382.222 242.867 382.604 242.817L382.737 244.079C381.398 244.312 379.931 244.478 378.337 244.577V247.001H376.528V244.668C375.581 244.707 374.63 244.727 373.672 244.727C373.528 244.738 373.313 244.743 373.025 244.743L372.792 243.315ZM385.542 251.052H377.009V252.081H386.057V253.442H375.2V249.79H383.716V248.844H375.166V247.482H385.542V251.052ZM398.201 247.831C399.231 247.831 400.122 247.944 400.874 248.171C401.632 248.393 402.213 248.719 402.617 249.151C403.021 249.577 403.226 250.089 403.232 250.687C403.226 251.29 403.021 251.807 402.617 252.239C402.213 252.676 401.632 253.008 400.874 253.235C400.122 253.462 399.231 253.575 398.201 253.575C397.161 253.575 396.259 253.462 395.495 253.235C394.732 253.008 394.145 252.676 393.736 252.239C393.326 251.807 393.121 251.29 393.121 250.687C393.121 250.089 393.326 249.577 393.736 249.151C394.145 248.719 394.729 248.393 395.487 248.171C396.251 247.944 397.156 247.831 398.201 247.831ZM398.201 249.275C397.161 249.275 396.361 249.397 395.802 249.641C395.244 249.879 394.964 250.227 394.964 250.687C394.964 251.151 395.244 251.506 395.802 251.749C396.367 251.993 397.167 252.114 398.201 252.114C399.236 252.114 400.028 251.993 400.575 251.749C401.129 251.506 401.406 251.151 401.406 250.687C401.406 250.227 401.129 249.879 400.575 249.641C400.028 249.397 399.236 249.275 398.201 249.275ZM403.082 242.153H405.174V243.697H403.082V247.466H401.24V238.567H403.082V242.153ZM393.586 241.539H397.089V239.514H398.915V246.52H391.76V239.514H393.586V241.539ZM397.089 245.059V242.983H393.586V245.059H397.089ZM419.464 247.549H413.67V250.305H411.844V247.549H405.751V246.071H419.464V247.549ZM417.704 244.677H407.494V239.248H417.704V244.677ZM409.287 243.232H415.878V240.692H409.287V243.232ZM417.953 253.276H407.411V248.927H409.254V251.782H417.953V253.276ZM433.986 246.652H430.5V247.682H432.326V251.102H423.727V252.164H432.774V253.442H421.884V249.906H430.5V248.977H421.867V247.682H423.776V246.652H420.273V245.274H433.986V246.652ZM432.293 242.27H423.843V243.183H432.559V244.461H422.017V241.074H430.45V240.161H421.967V238.899H432.293V242.27ZM428.674 247.682V246.652H425.603V247.682H428.674ZM451.51 247.765H449.75V243.847H448.189V247.267H446.463V238.866H448.189V242.353H449.75V238.584H451.51V247.765ZM445.002 243.93H441.1V245.507C442.041 245.496 442.86 245.465 443.558 245.416C444.26 245.36 444.974 245.263 445.699 245.125L445.865 246.603C445.018 246.757 444.188 246.86 443.375 246.91C442.561 246.959 441.549 246.984 440.337 246.984H439.308V242.568H443.225V241.091H439.291V239.63H445.002V243.93ZM446.446 247.964C447.492 247.969 448.4 248.083 449.169 248.304C449.938 248.526 450.533 248.847 450.954 249.267C451.374 249.682 451.587 250.177 451.593 250.753C451.587 251.328 451.374 251.826 450.954 252.247C450.533 252.673 449.935 252.997 449.161 253.218C448.391 253.445 447.487 253.559 446.446 253.559C445.395 253.559 444.482 253.445 443.707 253.218C442.932 252.997 442.337 252.673 441.922 252.247C441.507 251.826 441.3 251.328 441.3 250.753C441.3 250.177 441.507 249.682 441.922 249.267C442.337 248.847 442.932 248.526 443.707 248.304C444.482 248.083 445.395 247.969 446.446 247.964ZM446.446 249.392C445.4 249.392 444.587 249.511 444.006 249.749C443.43 249.981 443.142 250.316 443.142 250.753C443.142 251.201 443.43 251.544 444.006 251.782C444.581 252.015 445.395 252.131 446.446 252.131C447.492 252.131 448.3 252.015 448.87 251.782C449.446 251.544 449.733 251.201 449.733 250.753C449.733 250.316 449.443 249.981 448.862 249.749C448.286 249.511 447.481 249.392 446.446 249.392ZM461.267 239.514C461.256 241.583 460.686 243.299 459.557 244.66C458.434 246.021 456.652 247.056 454.212 247.765L453.531 246.287C455.728 245.684 457.289 244.804 458.213 243.647L453.747 243.979L453.465 242.519L458.976 242.311C459.131 241.907 459.234 241.467 459.284 240.991H454.228V239.514H461.267ZM465.7 247.482H463.841V238.584H465.7V247.482ZM460.653 247.698C461.694 247.698 462.596 247.814 463.359 248.047C464.123 248.279 464.712 248.617 465.127 249.06C465.542 249.497 465.75 250.022 465.75 250.637C465.75 251.251 465.542 251.774 465.127 252.206C464.718 252.643 464.128 252.975 463.359 253.202C462.596 253.429 461.694 253.542 460.653 253.542C459.591 253.542 458.672 253.429 457.897 253.202C457.123 252.975 456.528 252.643 456.113 252.206C455.698 251.774 455.49 251.251 455.49 250.637C455.49 250.022 455.698 249.497 456.113 249.06C456.528 248.617 457.123 248.279 457.897 248.047C458.678 247.814 459.596 247.698 460.653 247.698ZM460.653 249.159C459.58 249.159 458.761 249.286 458.196 249.541C457.632 249.79 457.349 250.155 457.349 250.637C457.349 251.113 457.632 251.478 458.196 251.732C458.766 251.987 459.585 252.114 460.653 252.114C461.688 252.114 462.488 251.987 463.052 251.732C463.622 251.472 463.907 251.107 463.907 250.637C463.907 250.161 463.622 249.796 463.052 249.541C462.488 249.286 461.688 249.159 460.653 249.159Z" fill="#121212"/>
<path d="M202.103 91.4043V105.432H199.806V103.812H196.177V102.212H199.806V91.4043H202.103ZM202.534 107.708V109.554H188.937V104.078H191.214V107.708H202.534ZM186.476 99.7305C189.901 99.71 194.495 99.6689 198.432 99.1768L198.555 100.817C197.028 101.074 195.449 101.248 193.88 101.351V104.919H191.603V101.474C189.87 101.545 188.22 101.556 186.763 101.556L186.476 99.7305ZM192.526 92.0811C195.233 92.0811 197.12 93.4141 197.14 95.3623C197.12 97.3516 195.233 98.623 192.526 98.623C189.778 98.623 187.891 97.3516 187.891 95.3623C187.891 93.4141 189.778 92.0811 192.526 92.0811ZM192.526 93.7627C191.05 93.7627 190.045 94.3574 190.045 95.3623C190.045 96.3672 191.05 96.9619 192.526 96.9619C193.941 96.9619 194.946 96.3672 194.967 95.3623C194.946 94.3574 193.941 93.7627 192.526 93.7627ZM220.597 105.862V107.77H203.658V105.862H210.938V102.212H205.114V100.407H207.718V94.8701H205.052V93.0244H219.121V94.8701H216.414V100.407H219.059V102.212H213.194V105.862H220.597ZM209.995 100.407H214.158V94.8701H209.995V100.407ZM236.2 91.4043V104.796H233.903V91.4043H236.2ZM236.712 107.708V109.554H223.936V103.442H226.233V107.708H236.712ZM226.089 92.6143C228.899 92.6143 231.073 94.5625 231.073 97.249C231.073 99.9971 228.899 101.904 226.089 101.904C223.259 101.904 221.085 99.9971 221.085 97.249C221.085 94.5625 223.259 92.6143 226.089 92.6143ZM226.089 94.6035C224.51 94.6035 223.3 95.6494 223.321 97.249C223.3 98.8896 224.51 99.915 226.089 99.915C227.627 99.915 228.837 98.8896 228.837 97.249C228.837 95.6494 227.627 94.6035 226.089 94.6035ZM252.93 101.104V102.909H239.928V92.8398H252.766V94.6855H242.245V96.9209H252.335V98.7051H242.245V101.104H252.93ZM254.796 105.801V107.667H237.857V105.801H254.796ZM264.369 92.9834V101.74H255.592V92.9834H264.369ZM257.827 94.8086V99.9355H262.134V94.8086H257.827ZM269.578 91.3838V96.8184H272.162V98.7256H269.578V104.919H267.302V91.3838H269.578ZM270.316 107.708V109.554H257.704V103.606H259.98V107.708H270.316ZM286.924 92.1016V93.7012C286.924 95.3521 286.924 97.1978 286.431 99.6895H288.954V101.556H272.055V99.6895H284.135C284.309 98.8384 284.422 98.0591 284.504 97.3516L273.942 97.8232L273.676 95.9365L284.627 95.6699C284.647 95.0547 284.647 94.4805 284.647 93.9268H274.147V92.1016H286.924ZM286.903 103.258V109.697H274.086V103.258H286.903ZM276.321 105.083V107.852H284.647V105.083H276.321ZM308.531 91.4043V101.884H306.234V91.4043H308.531ZM308.531 102.807V109.697H296.226V102.807H308.531ZM298.482 104.611V107.852H306.295V104.611H298.482ZM299.999 93.9062C299.999 96.2646 301.579 98.4795 304.47 99.4023L303.363 101.146C301.22 100.479 299.682 99.1152 298.851 97.3311C298 99.2485 296.441 100.776 294.216 101.515L293.088 99.71C296.103 98.7461 297.641 96.3467 297.641 93.9062V92.1016H299.999V93.9062ZM324.851 91.3838V99.0332H327.455V100.94H324.851V109.923H322.554V91.3838H324.851ZM309.962 104.775C311.367 104.775 312.997 104.775 314.699 104.734V102.991C312.679 102.653 311.357 101.381 311.377 99.6484C311.357 97.5566 313.202 96.1621 315.868 96.1621C318.493 96.1621 320.36 97.5566 320.38 99.6484C320.36 101.392 319.016 102.663 316.996 102.991V104.652C318.555 104.57 320.113 104.447 321.57 104.242L321.713 105.903C317.735 106.621 313.448 106.662 310.29 106.662L309.962 104.775ZM321.364 93.5166V95.3213H310.311V93.5166H314.699V91.4658H316.996V93.5166H321.364ZM315.868 97.9053C314.453 97.9258 313.53 98.5615 313.53 99.6484C313.53 100.715 314.453 101.351 315.868 101.33C317.263 101.351 318.186 100.715 318.186 99.6484C318.186 98.5615 317.263 97.9258 315.868 97.9053ZM338.074 97.208V99.0332H334.629V101.125C336.177 101.063 337.715 100.961 339.161 100.817L339.325 102.458C335.388 103.012 331.122 103.114 327.677 103.114L327.369 101.289C328.897 101.279 330.589 101.269 332.332 101.207V99.0332H328.969V92.5322H337.931V94.3779H331.266V97.208H338.074ZM342.75 91.3838V105.309H340.453V91.3838H342.75ZM343.283 107.708V109.554H330.322V104.283H332.619V107.708H343.283ZM363.229 92.1631V93.8447C363.209 95.6494 363.209 97.4746 362.696 99.9766L360.44 99.792C360.635 98.8896 360.758 98.0693 360.83 97.29L350.084 97.7617L349.796 95.875L360.932 95.6084C360.953 95.0547 360.953 94.5215 360.953 93.9883H350.289V92.1631H363.229ZM365.177 101.002V102.827H348.361V101.002H354.841V98.5615H357.118V101.002H365.177ZM363.578 107.79V109.636H350.371V104.119H352.647V107.79H363.578ZM381.272 91.4043V105.247H379.098V91.4043H381.272ZM377.621 91.7529V104.796H375.448V98.3359H373.356V96.5107H375.448V91.7529H377.621ZM381.785 107.708V109.554H368.967V103.729H371.264V107.708H381.785ZM373.253 92.8398V94.6855H368.393V96.7568H372.556V98.5H368.393V100.633C370.618 100.623 372.146 100.561 373.951 100.223L374.197 102.027C372.064 102.417 370.3 102.499 367.429 102.499H366.199V92.8398H373.253ZM399.458 105.821V107.688H382.519V105.821H399.458ZM397.941 94.1113V95.957H392.157C392.291 98.4487 394.69 100.735 398.699 101.33L397.818 103.155C394.629 102.622 392.188 101.094 390.968 98.9512C389.738 101.094 387.307 102.622 384.118 103.155L383.257 101.33C387.246 100.735 389.645 98.4487 389.82 95.957H384.016V94.1113H389.84V91.7324H392.096V94.1113H397.941Z" fill="#00A695"/>
<rect x="254.262" y="46" width="77.4746" height="25.1621" rx="12.5811" stroke="#00A695"/>
<path d="M275.064 56.791C274.982 55.9434 274.257 55.4512 273.191 55.4512C272.07 55.4512 271.386 55.998 271.386 56.7363C271.386 57.5703 272.261 57.9121 273.081 58.1035L274.011 58.3496C275.488 58.6914 276.91 59.4707 276.91 61.1934C276.91 62.9297 275.542 64.1191 273.163 64.1191C270.853 64.1191 269.404 63.0117 269.322 61.0566H271.072C271.154 62.0957 272.029 62.6016 273.15 62.6016C274.326 62.6016 275.132 62.0273 275.132 61.1797C275.132 60.4004 274.408 60.0723 273.341 59.7988L272.22 59.5117C270.593 59.0879 269.581 58.2676 269.581 56.8457C269.581 55.0957 271.14 53.9336 273.218 53.9336C275.324 53.9336 276.746 55.123 276.773 56.791H275.064ZM281.459 64.1191C279.217 64.1191 277.85 62.6289 277.85 60.3047C277.85 58.0078 279.244 56.4492 281.363 56.4492C283.182 56.4492 284.754 57.584 284.754 60.1953V60.7422H279.572C279.593 62.0068 280.338 62.752 281.473 62.752C282.238 62.752 282.758 62.4238 282.977 61.9863H284.686C284.371 63.2715 283.182 64.1191 281.459 64.1191ZM279.586 59.5527H283.086C283.072 58.541 282.402 57.8027 281.391 57.8027C280.338 57.8027 279.641 58.6025 279.586 59.5527ZM289.208 64.1191C286.993 64.1191 285.653 62.5332 285.653 60.291C285.653 58.0215 287.034 56.4492 289.208 56.4492C291.012 56.4492 292.27 57.502 292.393 59.1016H290.725C290.589 58.3906 290.069 57.8438 289.221 57.8438C288.141 57.8438 287.417 58.7598 287.417 60.25C287.417 61.7812 288.128 62.6973 289.221 62.6973C290.001 62.6973 290.575 62.2461 290.725 61.4395H292.393C292.257 63.0117 291.067 64.1191 289.208 64.1191ZM296.806 64.1191C294.646 64.1191 293.251 62.5879 293.251 60.291C293.251 57.9805 294.646 56.4492 296.806 56.4492C298.98 56.4492 300.361 57.9805 300.361 60.291C300.361 62.5879 298.98 64.1191 296.806 64.1191ZM296.82 62.7246C298.009 62.7246 298.597 61.6445 298.597 60.2773C298.597 58.9238 298.009 57.8301 296.82 57.8301C295.603 57.8301 295.015 58.9238 295.015 60.2773C295.015 61.6445 295.603 62.7246 296.82 62.7246ZM303.324 59.6211V63.9688H301.574V56.5449H303.242V57.8027H303.338C303.68 56.9688 304.432 56.4492 305.539 56.4492C307.084 56.4492 308.096 57.4609 308.082 59.2383V63.9688H306.346V59.5117C306.346 58.5137 305.812 57.9258 304.896 57.9258C303.967 57.9258 303.324 58.541 303.324 59.6211ZM312.372 64.1055C310.622 64.1055 309.309 62.7109 309.309 60.2637C309.309 57.7891 310.663 56.4492 312.385 56.4492C313.698 56.4492 314.245 57.2285 314.504 57.7617H314.573V54.0703H316.309V63.9688H314.6V62.793H314.504C314.231 63.3398 313.657 64.1055 312.372 64.1055ZM312.85 62.6699C313.971 62.6699 314.614 61.6992 314.614 60.25C314.614 58.8145 313.985 57.8711 312.85 57.8711C311.688 57.8711 311.087 58.8691 311.087 60.25C311.087 61.6582 311.702 62.6699 312.85 62.6699Z" fill="#01A695"/>
<defs>
<filter id="filter0_d_1066_3102" x="0.0484371" y="0.665625" width="591.903" height="308.868" filterUnits="userSpaceOnUse" color-interpolation-filters="sRGB">
<feFlood flood-opacity="0" result="BackgroundImageFix"/>
<feColorMatrix in="SourceAlpha" type="matrix" values="0 0 0 0 0 0 0 0 0 0 0 0 0 0 0 0 0 0 127 0" result="hardAlpha"/>
<feOffset dx="3" dy="3"/>
<feGaussianBlur stdDeviation="6.3"/>
<feComposite in2="hardAlpha" operator="out"/>
<feColorMatrix type="matrix" values="0 0 0 0 0 0 0 0 0 0 0 0 0 0 0 0 0 0 0.25 0"/>
<feBlend mode="normal" in2="BackgroundImageFix" result="effect1_dropShadow_1066_3102"/>
<feBlend mode="normal" in="SourceGraphic" in2="effect1_dropShadow_1066_3102" result="shape"/>
</filter>
</defs>
</svg>
