<svg width="593" height="310" viewBox="0 0 593 310" fill="none" xmlns="http://www.w3.org/2000/svg">
<g filter="url(#filter0_d_1066_3092)">
<rect x="10.0234" y="9.82812" width="566.703" height="283.667" rx="31" fill="#FAFAFA"/>
</g>
<rect opacity="0.6" x="139.914" y="133.656" width="153.174" height="13.502" fill="#BBDFDD"/>
<rect opacity="0.6" x="202.352" y="168.656" width="130.261" height="13.502" fill="#BBDFDD"/>
<rect opacity="0.6" x="139.914" y="201.656" width="302.677" height="13.502" fill="#BBDFDD"/>
<rect opacity="0.6" x="136.375" y="236.656" width="175.73" height="13.502" fill="#BBDFDD"/>
<path d="M149.408 133.093H151.517V134.62H149.408V139.733H147.565V128.876H149.408V133.093ZM144.926 131.599H140.028V135.683H140.344C141.694 135.683 142.798 135.649 143.656 135.583C144.519 135.517 145.369 135.395 146.204 135.218L146.403 136.712C145.446 136.9 144.461 137.027 143.448 137.094C142.436 137.16 141.091 137.193 139.414 137.193H138.202V130.121H144.926V131.599ZM150.006 143.585H139.796V138.588H141.639V142.091H150.006V143.585ZM165.043 143.884H163.283V128.876H165.043V143.884ZM161.938 143.17H160.179V138.156H157.838V136.646H160.179V134.421H158.103C157.738 135.705 157.141 136.872 156.311 137.924C155.486 138.975 154.39 139.905 153.023 140.713L151.944 139.401C153.472 138.499 154.62 137.459 155.389 136.28C156.164 135.102 156.62 133.74 156.759 132.196H152.741V130.702H158.585C158.585 131.477 158.532 132.213 158.427 132.91H160.179V129.241H161.938V143.17ZM183.048 136.629H181.205V135.002H178.183V136.147H171.161V129.54H173.004V131.433H176.357V129.54H178.183V130.868H181.205V128.876H183.048V136.629ZM183.048 141.095H175.013V142.24H183.529V143.701H173.17V139.733H181.205V138.688H173.153V137.243H183.048V141.095ZM176.357 134.687V132.844H173.004V134.687H176.357ZM181.205 133.591V132.263H178.183V133.591H181.205ZM196.802 140.231H189.664V130.287H196.802V140.231ZM191.49 138.754H195.009V131.731H191.49V138.754ZM201.351 143.9H199.492V128.876H201.351V143.9ZM208.851 131.532C208.851 132.246 208.984 132.935 209.25 133.599C209.515 134.263 209.908 134.858 210.428 135.384C210.954 135.904 211.59 136.302 212.337 136.579L211.308 138.007C210.522 137.697 209.842 137.246 209.266 136.654C208.696 136.062 208.251 135.367 207.93 134.57C207.603 135.417 207.136 136.156 206.527 136.787C205.924 137.412 205.199 137.891 204.352 138.223L203.356 136.762C204.131 136.479 204.789 136.073 205.332 135.542C205.879 135.01 206.292 134.399 206.568 133.707C206.845 133.015 206.986 132.29 206.992 131.532V129.739H208.851V131.532ZM215.957 140.032H214.114V135.384H211.375V133.906H214.114V132.429H211.375V130.935H214.114V128.893H215.957V140.032ZM216.289 143.585H206.062V138.937H207.938V142.091H216.289V143.585ZM233.978 131.565V131.947C233.972 132.744 233.956 133.439 233.928 134.031C233.9 134.623 233.84 135.315 233.746 136.106C233.651 136.892 233.508 137.741 233.314 138.654L231.504 138.472C231.737 137.387 231.908 136.308 232.019 135.234L223.17 135.732L222.905 134.155L232.119 133.823C232.141 133.32 232.157 132.611 232.168 131.698H223.37V130.204H233.978V131.565ZM235.455 142.041H221.776V140.514H226.823V136.812H228.649V140.514H235.455V142.041ZM244.051 130.935C244.051 131.704 244.284 132.454 244.748 133.184C245.219 133.915 245.866 134.545 246.691 135.077C247.515 135.602 248.439 135.954 249.463 136.131L248.633 137.675C247.377 137.409 246.259 136.919 245.28 136.206C244.306 135.486 243.575 134.62 243.088 133.607C242.59 134.615 241.851 135.478 240.872 136.197C239.892 136.911 238.777 137.404 237.527 137.675L236.713 136.131C237.726 135.948 238.639 135.594 239.452 135.068C240.271 134.537 240.913 133.906 241.378 133.176C241.849 132.445 242.087 131.698 242.092 130.935V129.822H244.051V130.935ZM250.011 141.975H236.298V140.447H250.011V141.975ZM267.601 143.884H265.841V128.876H267.601V143.884ZM264.546 143.153H262.803V135.6H260.645V134.105H262.803V129.158H264.546V143.153ZM259.317 132.977C259.317 133.856 259.424 134.7 259.64 135.508C259.862 136.316 260.199 137.049 260.653 137.708C261.112 138.367 261.685 138.892 262.371 139.285L261.276 140.646C260.6 140.243 260.028 139.703 259.557 139.028C259.087 138.347 258.716 137.564 258.445 136.679C258.174 137.636 257.795 138.488 257.308 139.235C256.821 139.977 256.234 140.563 255.548 140.995L254.419 139.617C255.116 139.197 255.697 138.635 256.162 137.932C256.633 137.229 256.979 136.455 257.2 135.608C257.427 134.756 257.54 133.879 257.54 132.977V131.98H254.934V130.486H261.74V131.98H259.317V132.977ZM275.964 138.256C277.049 138.261 277.989 138.378 278.786 138.604C279.583 138.826 280.197 139.147 280.629 139.567C281.066 139.988 281.288 140.492 281.293 141.078C281.288 141.654 281.066 142.149 280.629 142.564C280.197 142.985 279.58 143.306 278.778 143.527C277.981 143.754 277.043 143.867 275.964 143.867C274.89 143.867 273.952 143.754 273.15 143.527C272.353 143.306 271.736 142.985 271.299 142.564C270.867 142.149 270.651 141.654 270.651 141.078C270.651 140.492 270.867 139.988 271.299 139.567C271.736 139.147 272.353 138.826 273.15 138.604C273.947 138.378 274.885 138.261 275.964 138.256ZM275.964 139.65C274.879 139.65 274.03 139.775 273.416 140.024C272.807 140.273 272.505 140.624 272.511 141.078C272.505 141.515 272.807 141.853 273.416 142.091C274.024 142.323 274.874 142.439 275.964 142.439C277.06 142.439 277.915 142.323 278.529 142.091C279.149 141.853 279.461 141.515 279.467 141.078C279.461 140.624 279.149 140.273 278.529 140.024C277.915 139.775 277.06 139.65 275.964 139.65ZM281.193 130.835C281.193 131.632 281.169 132.324 281.119 132.91C281.074 133.497 280.961 134.133 280.778 134.819L278.952 134.653C279.118 133.995 279.226 133.4 279.276 132.869C279.326 132.332 279.351 131.726 279.351 131.051H270.801V129.59H281.193V130.835ZM282.854 137.177H269.24V135.683H274.52V132.96H276.346V135.683H282.854V137.177ZM290.553 129.955C291.576 129.955 292.498 130.124 293.317 130.461C294.136 130.799 294.778 131.275 295.243 131.889C295.713 132.503 295.948 133.209 295.948 134.006C295.948 134.808 295.713 135.519 295.243 136.139C294.778 136.753 294.136 137.229 293.317 137.567C292.498 137.899 291.576 138.062 290.553 138.057C289.529 138.062 288.608 137.899 287.789 137.567C286.97 137.229 286.325 136.753 285.854 136.139C285.39 135.519 285.157 134.808 285.157 134.006C285.157 133.209 285.39 132.503 285.854 131.889C286.325 131.275 286.97 130.799 287.789 130.461C288.608 130.124 289.529 129.955 290.553 129.955ZM290.553 131.018C289.767 131.012 289.056 131.137 288.419 131.391C287.789 131.646 287.293 132.003 286.934 132.462C286.574 132.916 286.397 133.43 286.402 134.006C286.397 134.592 286.574 135.113 286.934 135.566C287.293 136.02 287.789 136.372 288.419 136.621C289.056 136.87 289.767 136.994 290.553 136.994C291.333 136.994 292.036 136.87 292.661 136.621C293.292 136.372 293.787 136.02 294.147 135.566C294.507 135.113 294.687 134.592 294.687 134.006C294.687 133.43 294.507 132.916 294.147 132.462C293.787 132.003 293.292 131.646 292.661 131.391C292.036 131.137 291.333 131.012 290.553 131.018ZM297.343 141.792H283.829V140.696H297.343V141.792ZM311.865 141.925H298.351V140.829H304.428V138.04H300.045V133.491H308.877V131.167H300.012V130.088H310.155V134.554H301.34V136.961H310.504V138.04H305.706V140.829H311.865V141.925ZM329.571 143.751H328.293V136.031H326.251V143.021H325.006V129.391H326.251V134.952H328.293V128.992H329.571V143.751ZM323.329 130.918C323.318 132.971 322.883 134.819 322.026 136.463C321.173 138.101 319.748 139.473 317.751 140.58L316.987 139.667C320.125 137.918 321.813 135.362 322.051 131.997H317.552V130.918H323.329ZM343.678 139.8H342.383V129.009H343.678V139.8ZM344.143 143.436H334.149V138.704H335.444V142.34H344.143V143.436ZM335.71 130.038C336.44 130.038 337.099 130.193 337.685 130.503C338.277 130.807 338.739 131.236 339.071 131.79C339.409 132.337 339.578 132.96 339.578 133.657C339.578 134.366 339.409 134.996 339.071 135.55C338.739 136.098 338.277 136.527 337.685 136.836C337.099 137.141 336.44 137.293 335.71 137.293C334.979 137.293 334.318 137.141 333.726 136.836C333.139 136.527 332.677 136.098 332.34 135.55C332.008 134.996 331.841 134.366 331.841 133.657C331.841 132.96 332.008 132.337 332.34 131.79C332.677 131.236 333.139 130.807 333.726 130.503C334.318 130.193 334.979 130.038 335.71 130.038ZM335.71 131.184C335.217 131.184 334.772 131.289 334.373 131.499C333.98 131.709 333.67 132.003 333.444 132.379C333.222 132.755 333.114 133.181 333.12 133.657C333.114 134.139 333.222 134.57 333.444 134.952C333.67 135.328 333.98 135.622 334.373 135.832C334.772 136.042 335.217 136.147 335.71 136.147C336.191 136.147 336.628 136.042 337.021 135.832C337.42 135.622 337.732 135.328 337.959 134.952C338.186 134.57 338.299 134.139 338.299 133.657C338.299 133.187 338.186 132.764 337.959 132.387C337.732 132.011 337.42 131.718 337.021 131.507C336.628 131.292 336.191 131.184 335.71 131.184ZM357.47 135.284H359.828V136.38H357.47V143.751H356.159V128.992H357.47V135.284ZM345.833 139.816C347.57 139.816 348.926 139.8 349.9 139.767V138.131C349.33 138.065 348.829 137.916 348.398 137.683C347.971 137.445 347.642 137.138 347.41 136.762C347.183 136.38 347.072 135.948 347.078 135.467C347.072 134.919 347.213 134.44 347.501 134.031C347.794 133.616 348.204 133.295 348.73 133.068C349.261 132.841 349.872 132.728 350.564 132.728C351.245 132.728 351.848 132.841 352.374 133.068C352.905 133.295 353.317 133.616 353.61 134.031C353.909 134.44 354.061 134.919 354.067 135.467C354.061 135.948 353.94 136.38 353.702 136.762C353.464 137.138 353.129 137.445 352.697 137.683C352.271 137.921 351.776 138.073 351.212 138.14V139.717C352.783 139.639 354.133 139.518 355.262 139.352L355.345 140.348C353.918 140.591 352.451 140.749 350.946 140.821C349.441 140.893 347.808 140.929 346.048 140.929L345.833 139.816ZM354.997 131.864H346.098V130.802H349.9V129.025H351.212V130.802H354.997V131.864ZM350.564 133.74C350.116 133.74 349.72 133.812 349.377 133.956C349.034 134.1 348.766 134.305 348.572 134.57C348.384 134.83 348.29 135.129 348.29 135.467C348.29 135.804 348.384 136.103 348.572 136.363C348.76 136.618 349.026 136.814 349.369 136.953C349.717 137.085 350.116 137.149 350.564 137.144C351.007 137.149 351.4 137.085 351.743 136.953C352.086 136.814 352.352 136.618 352.54 136.363C352.728 136.103 352.822 135.804 352.822 135.467C352.822 135.129 352.728 134.83 352.54 134.57C352.352 134.305 352.086 134.1 351.743 133.956C351.4 133.812 351.007 133.74 350.564 133.74ZM369.121 134.902H366.132V136.969C367.615 136.897 368.96 136.795 370.167 136.662L370.266 137.625C367.665 137.979 364.511 138.156 360.803 138.156L360.604 137.094C362.259 137.083 363.67 137.058 364.837 137.019V134.902H361.949V129.955H369.004V131.034H363.26V133.84H369.121V134.902ZM372.707 140.049H371.395V129.009H372.707V140.049ZM373.188 143.436H363.127V139.285H364.422V142.34H373.188V143.436ZM378.858 142.406L383.257 130.387H384.834L389.234 142.406H387.657L386.453 139.02H381.622L380.418 142.406H378.858ZM385.996 137.708L384.087 132.329H383.988L382.078 137.708H385.996ZM390.691 130.387H394.775C395.688 130.387 396.451 130.544 397.066 130.86C397.68 131.17 398.134 131.604 398.427 132.163C398.726 132.716 398.875 133.358 398.875 134.089C398.875 134.902 398.687 135.602 398.311 136.189C397.94 136.776 397.381 137.199 396.634 137.459L399.34 142.406H397.597L395.082 137.733L394.791 137.741H392.185V142.406H390.691V130.387ZM394.725 136.38C395.649 136.38 396.324 136.183 396.75 135.791C397.182 135.398 397.398 134.83 397.398 134.089C397.398 133.336 397.182 132.752 396.75 132.337C396.319 131.922 395.638 131.715 394.708 131.715H392.185V136.38H394.725ZM411.916 140.049H405.093V130.453H411.916V140.049ZM406.371 138.986H410.638V131.499H406.371V138.986ZM416.399 143.784H415.087V128.992H416.399V143.784ZM423.799 131.731C423.799 132.44 423.951 133.129 424.255 133.798C424.56 134.468 424.986 135.063 425.534 135.583C426.082 136.098 426.71 136.496 427.418 136.778L426.688 137.791C425.88 137.453 425.169 136.964 424.554 136.322C423.946 135.68 423.486 134.938 423.176 134.097C422.861 135.005 422.382 135.804 421.74 136.496C421.104 137.182 420.357 137.702 419.499 138.057L418.785 137.011C419.51 136.729 420.155 136.319 420.719 135.782C421.284 135.245 421.724 134.626 422.039 133.923C422.355 133.22 422.515 132.49 422.521 131.731V129.839H423.799V131.731ZM430.987 140.032H429.676V135.301H426.638V134.238H429.676V132.279H426.638V131.2H429.676V129.009H430.987V140.032ZM431.319 143.436H421.441V138.887H422.753V142.34H431.319V143.436ZM211.723 168.271H201.364V163.142H203.207V166.777H211.723V168.271ZM213.284 171.21H199.587V169.716H213.284V171.21ZM206.411 172.289C207.49 172.295 208.417 172.408 209.191 172.629C209.966 172.845 210.561 173.161 210.976 173.576C211.391 173.985 211.601 174.48 211.607 175.062C211.601 175.643 211.391 176.138 210.976 176.547C210.561 176.962 209.966 177.278 209.191 177.494C208.417 177.709 207.49 177.817 206.411 177.817C205.321 177.817 204.383 177.709 203.597 177.494C202.816 177.278 202.219 176.962 201.804 176.547C201.389 176.138 201.181 175.643 201.181 175.062C201.181 174.48 201.389 173.985 201.804 173.576C202.219 173.161 202.816 172.845 203.597 172.629C204.383 172.408 205.321 172.295 206.411 172.289ZM206.411 173.733C204.158 173.75 203.041 174.193 203.057 175.062C203.046 175.493 203.328 175.825 203.904 176.058C204.479 176.29 205.315 176.406 206.411 176.406C207.479 176.406 208.301 176.29 208.876 176.058C209.457 175.825 209.753 175.493 209.764 175.062C209.748 174.193 208.63 173.75 206.411 173.733ZM227.806 171.542H214.11V170.064H220.053V168.637H215.787V163.557H226.146V165.001H217.629V167.176H226.229V168.637H221.863V170.064H227.806V171.542ZM220.933 172.405C222.012 172.405 222.939 172.513 223.714 172.729C224.489 172.939 225.083 173.249 225.499 173.659C225.914 174.068 226.124 174.563 226.129 175.145C226.124 175.72 225.914 176.213 225.499 176.622C225.083 177.032 224.486 177.344 223.706 177.56C222.931 177.776 222.007 177.884 220.933 177.884C219.848 177.884 218.913 177.776 218.127 177.56C217.342 177.344 216.741 177.032 216.326 176.622C215.911 176.213 215.704 175.72 215.704 175.145C215.704 174.563 215.911 174.068 216.326 173.659C216.741 173.249 217.339 172.939 218.119 172.729C218.905 172.513 219.843 172.405 220.933 172.405ZM220.933 173.816C219.837 173.816 219.002 173.93 218.426 174.157C217.856 174.384 217.574 174.713 217.58 175.145C217.574 175.576 217.856 175.903 218.426 176.124C218.996 176.345 219.832 176.456 220.933 176.456C222.012 176.456 222.84 176.345 223.415 176.124C223.991 175.903 224.281 175.576 224.287 175.145C224.281 174.713 223.988 174.384 223.407 174.157C222.831 173.93 222.007 173.816 220.933 173.816ZM234.144 165.449C234.144 166.069 234.28 166.672 234.551 167.259C234.822 167.84 235.223 168.363 235.754 168.828C236.286 169.287 236.927 169.644 237.68 169.898L236.75 171.326C235.931 171.061 235.223 170.659 234.625 170.123C234.033 169.586 233.568 168.958 233.231 168.238C232.893 169.041 232.412 169.741 231.787 170.338C231.161 170.931 230.414 171.37 229.545 171.658L228.599 170.197C229.374 169.943 230.035 169.572 230.583 169.085C231.136 168.592 231.554 168.034 231.836 167.408C232.124 166.777 232.268 166.13 232.268 165.466V165.267H229.147V163.789H237.248V165.267H234.144V165.449ZM241.2 177.884H239.357V174.016H230.973V172.538H241.2V177.884ZM241.2 171.824H239.357V168.105H236.8V166.595H239.357V162.876H241.2V171.824ZM255.656 173.733H253.796V162.893H255.656V173.733ZM256.071 177.585H245.728V172.638H247.587V176.091H256.071V177.585ZM247.471 163.872C248.224 163.872 248.907 164.035 249.521 164.362C250.136 164.683 250.62 165.128 250.974 165.698C251.328 166.268 251.505 166.91 251.505 167.624C251.505 168.349 251.328 168.999 250.974 169.575C250.62 170.145 250.136 170.59 249.521 170.911C248.907 171.232 248.224 171.393 247.471 171.393C246.713 171.393 246.024 171.232 245.404 170.911C244.79 170.59 244.306 170.145 243.951 169.575C243.597 168.999 243.42 168.349 243.42 167.624C243.42 166.91 243.597 166.268 243.951 165.698C244.306 165.128 244.79 164.683 245.404 164.362C246.024 164.035 246.713 163.872 247.471 163.872ZM247.471 165.482C247.045 165.482 246.66 165.571 246.317 165.748C245.974 165.925 245.706 166.177 245.512 166.503C245.318 166.83 245.224 167.203 245.23 167.624C245.224 168.056 245.318 168.435 245.512 168.761C245.706 169.088 245.974 169.34 246.317 169.517C246.66 169.694 247.045 169.782 247.471 169.782C247.886 169.782 248.262 169.694 248.6 169.517C248.937 169.34 249.203 169.088 249.397 168.761C249.596 168.435 249.696 168.056 249.696 167.624C249.696 167.203 249.596 166.83 249.397 166.503C249.203 166.177 248.937 165.925 248.6 165.748C248.262 165.571 247.886 165.482 247.471 165.482ZM266.937 165.964C266.937 166.517 267.072 167.049 267.343 167.558C267.615 168.067 268.019 168.521 268.555 168.919C269.092 169.317 269.742 169.622 270.506 169.832L269.659 171.26C268.813 171.033 268.082 170.681 267.468 170.206C266.854 169.724 266.375 169.154 266.032 168.496C265.694 169.221 265.213 169.846 264.588 170.372C263.962 170.892 263.212 171.276 262.338 171.525L261.458 170.098C262.227 169.882 262.886 169.566 263.434 169.151C263.982 168.731 264.394 168.247 264.671 167.699C264.953 167.145 265.094 166.567 265.094 165.964V165.931H261.956V164.47H265.094V162.81H266.953V164.47H270.074V165.931H266.937V165.964ZM273.378 166.495H275.47V168.022H273.378V171.708H271.535V162.876H273.378V166.495ZM273.378 177.701H263.683V172.339H273.378V177.701ZM265.509 176.207H271.552V173.8H265.509V176.207ZM280.164 163.972C280.839 163.972 281.448 164.152 281.99 164.511C282.538 164.871 282.981 165.383 283.318 166.047H286.821V162.876H288.648V177.9H286.821V172.223H283.451C283.125 172.97 282.677 173.551 282.107 173.966C281.537 174.375 280.889 174.58 280.164 174.58C279.412 174.58 278.745 174.364 278.164 173.933C277.583 173.501 277.129 172.884 276.802 172.082C276.476 171.279 276.313 170.341 276.313 169.268C276.313 168.205 276.476 167.275 276.802 166.479C277.129 165.676 277.583 165.059 278.164 164.627C278.75 164.19 279.417 163.972 280.164 163.972ZM280.164 165.632C279.749 165.632 279.384 165.778 279.068 166.072C278.753 166.36 278.51 166.777 278.338 167.325C278.166 167.868 278.083 168.515 278.089 169.268C278.083 170.026 278.166 170.679 278.338 171.227C278.51 171.774 278.753 172.195 279.068 172.488C279.384 172.776 279.749 172.92 280.164 172.92C280.579 172.92 280.942 172.776 281.252 172.488C281.567 172.195 281.81 171.774 281.982 171.227C282.159 170.679 282.25 170.026 282.256 169.268C282.25 168.515 282.159 167.865 281.982 167.317C281.81 166.769 281.567 166.351 281.252 166.063C280.942 165.776 280.579 165.632 280.164 165.632ZM283.833 167.558C283.944 168.094 283.999 168.664 283.999 169.268C283.999 169.766 283.96 170.253 283.883 170.729H286.821V167.558H283.833ZM308.146 172.787H304.809V177.884H302.934V172.787H299.613V177.884H297.721V172.787H294.434V171.293H308.146V172.787ZM301.257 163.407C302.314 163.413 303.252 163.554 304.071 163.831C304.89 164.107 305.526 164.497 305.98 165.001C306.439 165.505 306.669 166.091 306.669 166.761C306.669 167.419 306.439 167.998 305.98 168.496C305.526 168.994 304.89 169.378 304.071 169.649C303.252 169.915 302.314 170.048 301.257 170.048C300.194 170.048 299.254 169.915 298.434 169.649C297.621 169.378 296.99 168.994 296.542 168.496C296.094 167.998 295.872 167.419 295.878 166.761C295.872 166.091 296.094 165.505 296.542 165.001C296.99 164.497 297.621 164.107 298.434 163.831C299.254 163.554 300.194 163.413 301.257 163.407ZM301.257 164.901C300.548 164.901 299.931 164.976 299.406 165.125C298.88 165.269 298.473 165.482 298.185 165.765C297.903 166.041 297.765 166.373 297.77 166.761C297.765 167.137 297.903 167.464 298.185 167.74C298.473 168.011 298.88 168.222 299.406 168.371C299.931 168.515 300.548 168.587 301.257 168.587C301.965 168.587 302.582 168.515 303.108 168.371C303.634 168.222 304.04 168.011 304.328 167.74C304.616 167.464 304.76 167.137 304.76 166.761C304.76 166.373 304.616 166.041 304.328 165.765C304.04 165.482 303.634 165.269 303.108 165.125C302.582 164.976 301.965 164.901 301.257 164.901ZM321.158 171.16H316.709V174.597H322.685V176.107H308.973V174.597H314.883V171.16H310.633V163.988H321.042V165.466H312.475V169.699H321.158V171.16ZM337.092 170.878H323.578V169.849H337.092V170.878ZM335.398 175.194H326.533V176.605H335.88V177.552H325.221V174.298H334.103V173.036H325.205V172.057H335.398V175.194ZM335.348 166.495H326.633V167.79H335.614V168.736H325.338V165.599H334.037V164.387H325.288V163.44H335.348V166.495ZM347.078 163.723C347.808 163.717 348.458 163.839 349.028 164.088C349.604 164.337 350.052 164.691 350.373 165.15C350.7 165.61 350.863 166.135 350.863 166.728C350.863 167.32 350.7 167.845 350.373 168.305C350.052 168.764 349.604 169.121 349.028 169.375C348.458 169.63 347.808 169.755 347.078 169.749C346.347 169.755 345.694 169.63 345.119 169.375C344.549 169.121 344.101 168.764 343.774 168.305C343.453 167.845 343.293 167.32 343.293 166.728C343.293 166.135 343.453 165.61 343.774 165.15C344.101 164.691 344.549 164.337 345.119 164.088C345.694 163.839 346.347 163.717 347.078 163.723ZM347.078 164.785C346.591 164.78 346.156 164.86 345.775 165.026C345.393 165.186 345.094 165.416 344.878 165.715C344.668 166.014 344.565 166.351 344.571 166.728C344.565 167.109 344.668 167.45 344.878 167.749C345.094 168.042 345.393 168.271 345.775 168.438C346.156 168.598 346.591 168.675 347.078 168.67C347.57 168.675 348.007 168.598 348.389 168.438C348.777 168.271 349.078 168.042 349.294 167.749C349.51 167.45 349.618 167.109 349.618 166.728C349.618 166.351 349.51 166.014 349.294 165.715C349.078 165.416 348.777 165.186 348.389 165.026C348.007 164.86 347.57 164.78 347.078 164.785ZM354.382 177.768H353.104V163.009H354.382V177.768ZM342.18 171.011C344.001 171.011 345.73 170.978 347.368 170.911C349.006 170.839 350.559 170.695 352.025 170.479L352.108 171.459C350.808 171.697 349.374 171.866 347.808 171.965V177.303H346.513V172.04C345.534 172.084 344.15 172.112 342.363 172.123L342.18 171.011ZM364.107 166.611H356.703V165.549H359.774V163.44H361.069V165.549H364.107V166.611ZM360.405 167.607C361.019 167.607 361.567 167.751 362.048 168.039C362.535 168.321 362.914 168.717 363.186 169.226C363.462 169.735 363.603 170.313 363.609 170.961C363.603 171.614 363.462 172.198 363.186 172.712C362.914 173.222 362.535 173.623 362.048 173.916C361.567 174.204 361.019 174.348 360.405 174.348C359.796 174.348 359.251 174.204 358.77 173.916C358.288 173.623 357.912 173.219 357.641 172.704C357.369 172.189 357.234 171.608 357.234 170.961C357.234 170.319 357.369 169.743 357.641 169.234C357.912 168.72 358.288 168.321 358.77 168.039C359.251 167.751 359.796 167.607 360.405 167.607ZM360.405 168.703C360.023 168.709 359.677 168.811 359.367 169.01C359.063 169.204 358.825 169.472 358.653 169.815C358.482 170.153 358.396 170.535 358.396 170.961C358.396 171.393 358.482 171.78 358.653 172.123C358.83 172.466 359.071 172.735 359.376 172.928C359.68 173.116 360.023 173.208 360.405 173.202C360.792 173.208 361.141 173.116 361.451 172.928C361.761 172.735 362.004 172.466 362.181 172.123C362.358 171.78 362.447 171.393 362.447 170.961C362.447 170.535 362.358 170.153 362.181 169.815C362.004 169.472 361.761 169.204 361.451 169.01C361.141 168.811 360.792 168.709 360.405 168.703ZM369.303 177.751H368.058V170.297H366.099V177.021H364.871V163.357H366.099V169.218H368.058V162.992H369.303V177.751ZM138.611 198.387H140.188L139.325 203.035H137.216L138.611 198.387ZM153.714 211.884H151.872V207.916H143.488V206.455H153.714V211.884ZM153.714 205.741H151.872V203.749H148.352C147.992 204.153 147.55 204.468 147.024 204.695C146.498 204.917 145.928 205.027 145.314 205.027C144.567 205.027 143.892 204.87 143.289 204.554C142.685 204.239 142.209 203.802 141.861 203.243C141.518 202.684 141.346 202.05 141.346 201.342C141.346 200.65 141.518 200.028 141.861 199.474C142.204 198.921 142.674 198.489 143.272 198.179C143.87 197.864 144.539 197.706 145.281 197.706C145.912 197.706 146.487 197.814 147.007 198.03C147.533 198.246 147.976 198.553 148.335 198.951H151.872V196.876H153.714V205.741ZM145.314 199.267C144.888 199.267 144.506 199.355 144.168 199.532C143.836 199.704 143.576 199.947 143.388 200.263C143.2 200.573 143.106 200.932 143.106 201.342C143.106 201.768 143.197 202.141 143.38 202.462C143.568 202.778 143.828 203.024 144.16 203.201C144.498 203.373 144.882 203.461 145.314 203.467C145.723 203.461 146.091 203.373 146.418 203.201C146.75 203.024 147.01 202.775 147.198 202.454C147.386 202.133 147.483 201.762 147.489 201.342C147.483 200.932 147.384 200.573 147.19 200.263C147.002 199.947 146.744 199.704 146.418 199.532C146.091 199.355 145.723 199.267 145.314 199.267ZM151.872 202.255V200.462H149.141C149.213 200.766 149.249 201.06 149.249 201.342C149.249 201.652 149.21 201.956 149.132 202.255H151.872ZM161.032 200.479C161.026 201.375 161.167 202.255 161.455 203.118C161.748 203.976 162.172 204.745 162.725 205.426C163.278 206.106 163.931 206.627 164.684 206.986L163.555 208.464C162.758 208.06 162.066 207.484 161.48 206.737C160.899 205.99 160.445 205.127 160.119 204.147C159.781 205.193 159.305 206.118 158.691 206.92C158.082 207.717 157.357 208.326 156.516 208.746L155.387 207.269C156.167 206.898 156.843 206.358 157.413 205.65C157.988 204.936 158.425 204.131 158.724 203.234C159.028 202.332 159.183 201.414 159.189 200.479V198.088H161.032V200.479ZM167.423 202.753H169.731V204.33H167.423V211.884H165.58V196.876H167.423V202.753ZM187.736 205.741H174.056V204.247H179.966V202.155H181.792V204.247H187.736V205.741ZM181.809 197.689C181.809 198.298 182.019 198.876 182.44 199.424C182.866 199.967 183.469 200.429 184.249 200.811C185.03 201.192 185.932 201.447 186.955 201.574L186.241 203.019C185.007 202.825 183.92 202.462 182.979 201.931C182.044 201.394 181.338 200.733 180.863 199.947C180.381 200.733 179.67 201.394 178.729 201.931C177.794 202.462 176.707 202.825 175.467 203.019L174.803 201.574C175.81 201.447 176.701 201.19 177.476 200.802C178.256 200.415 178.859 199.95 179.285 199.408C179.717 198.86 179.933 198.287 179.933 197.689V197.125H181.809V197.689ZM186.059 211.884H184.216V208.381H175.567V206.937H186.059V211.884ZM204.943 207.733H203.084V196.893H204.943V207.733ZM205.358 211.585H195.016V206.638H196.875V210.091H205.358V211.585ZM196.759 197.872C197.511 197.872 198.195 198.035 198.809 198.362C199.423 198.683 199.908 199.128 200.262 199.698C200.616 200.268 200.793 200.91 200.793 201.624C200.793 202.349 200.616 202.999 200.262 203.575C199.908 204.145 199.423 204.59 198.809 204.911C198.195 205.232 197.511 205.393 196.759 205.393C196.001 205.393 195.312 205.232 194.692 204.911C194.078 204.59 193.594 204.145 193.239 203.575C192.885 202.999 192.708 202.349 192.708 201.624C192.708 200.91 192.885 200.268 193.239 199.698C193.594 199.128 194.078 198.683 194.692 198.362C195.312 198.035 196.001 197.872 196.759 197.872ZM196.759 199.482C196.333 199.482 195.948 199.571 195.605 199.748C195.262 199.925 194.994 200.177 194.8 200.503C194.606 200.83 194.512 201.203 194.518 201.624C194.512 202.056 194.606 202.435 194.8 202.761C194.994 203.088 195.262 203.34 195.605 203.517C195.948 203.694 196.333 203.782 196.759 203.782C197.174 203.782 197.55 203.694 197.888 203.517C198.225 203.34 198.491 203.088 198.685 202.761C198.884 202.435 198.983 202.056 198.983 201.624C198.983 201.203 198.884 200.83 198.685 200.503C198.491 200.177 198.225 199.925 197.888 199.748C197.55 199.571 197.174 199.482 196.759 199.482ZM220.645 204.43H214.701V205.559H218.935V209.244H210.401V210.34H219.35V211.751H208.592V207.916H217.125V206.953H208.575V205.559H212.858V204.43H206.965V202.969H220.645V204.43ZM218.885 202.022H208.691V197.341H218.885V202.022ZM210.501 200.578H217.042V198.785H210.501V200.578ZM233.972 211.9H232.112V196.876H233.972V211.9ZM225.887 197.972C226.639 197.972 227.309 198.19 227.895 198.627C228.488 199.059 228.952 199.676 229.29 200.479C229.628 201.275 229.799 202.205 229.805 203.268C229.799 204.336 229.628 205.271 229.29 206.073C228.958 206.876 228.496 207.495 227.904 207.933C227.312 208.364 226.639 208.58 225.887 208.58C225.129 208.58 224.453 208.364 223.861 207.933C223.269 207.495 222.804 206.876 222.467 206.073C222.135 205.271 221.969 204.336 221.969 203.268C221.969 202.205 222.135 201.275 222.467 200.479C222.804 199.676 223.269 199.059 223.861 198.627C224.453 198.19 225.129 197.972 225.887 197.972ZM225.887 199.632C225.461 199.632 225.084 199.776 224.758 200.063C224.437 200.351 224.188 200.769 224.011 201.317C223.834 201.865 223.745 202.515 223.745 203.268C223.745 204.026 223.834 204.679 224.011 205.227C224.188 205.774 224.437 206.195 224.758 206.488C225.084 206.776 225.461 206.92 225.887 206.92C226.307 206.92 226.678 206.776 226.999 206.488C227.32 206.195 227.569 205.774 227.746 205.227C227.923 204.679 228.012 204.026 228.012 203.268C228.012 202.515 227.923 201.868 227.746 201.325C227.569 200.777 227.32 200.36 226.999 200.072C226.678 199.778 226.307 199.632 225.887 199.632ZM248.805 204.596H245.767V207.219C247.162 207.158 248.451 207.064 249.636 206.937L249.785 208.298C248.313 208.519 246.81 208.663 245.278 208.729C243.745 208.796 242.043 208.829 240.173 208.829L239.94 207.302H241.219C242.403 207.302 243.305 207.293 243.925 207.277V204.596H240.986V198.254H248.739V199.715H242.812V203.102H248.805V204.596ZM252.375 211.9H250.532V196.876H252.375V211.9ZM258.497 197.972C259.172 197.972 259.781 198.152 260.323 198.511C260.865 198.871 261.308 199.386 261.651 200.055C261.994 200.719 262.207 201.502 262.29 202.404H265.154V196.876H266.98V211.9H265.154V203.898H262.315C262.249 204.85 262.047 205.68 261.709 206.389C261.372 207.091 260.926 207.634 260.373 208.016C259.819 208.392 259.194 208.58 258.497 208.58C257.744 208.58 257.077 208.364 256.496 207.933C255.915 207.501 255.461 206.884 255.135 206.082C254.808 205.279 254.645 204.341 254.645 203.268C254.645 202.205 254.808 201.275 255.135 200.479C255.461 199.676 255.915 199.059 256.496 198.627C257.083 198.19 257.75 197.972 258.497 197.972ZM258.497 199.632C258.082 199.632 257.716 199.778 257.401 200.072C257.086 200.36 256.842 200.777 256.671 201.325C256.499 201.868 256.416 202.515 256.422 203.268C256.416 204.026 256.499 204.679 256.671 205.227C256.842 205.774 257.086 206.195 257.401 206.488C257.716 206.776 258.082 206.92 258.497 206.92C258.912 206.92 259.274 206.776 259.584 206.488C259.9 206.195 260.143 205.774 260.315 205.227C260.492 204.679 260.583 204.026 260.589 203.268C260.583 202.515 260.492 201.865 260.315 201.317C260.143 200.769 259.9 200.351 259.584 200.063C259.274 199.776 258.912 199.632 258.497 199.632ZM284.819 198.603C284.819 199.383 284.8 200.08 284.761 200.694C284.722 201.309 284.628 201.984 284.479 202.72H286.496V204.197H280.519V206.198C281.427 206.259 282.207 206.411 282.86 206.654C283.518 206.892 284.022 207.21 284.371 207.609C284.719 208.007 284.896 208.475 284.902 209.012C284.896 209.615 284.681 210.13 284.254 210.556C283.834 210.987 283.228 211.314 282.437 211.535C281.651 211.757 280.713 211.867 279.623 211.867C278.521 211.867 277.572 211.757 276.775 211.535C275.979 211.314 275.367 210.987 274.941 210.556C274.52 210.13 274.31 209.615 274.31 209.012C274.31 208.475 274.484 208.007 274.833 207.609C275.182 207.21 275.682 206.892 276.335 206.654C276.994 206.411 277.78 206.261 278.693 206.206V204.197H272.783V202.72H282.627C282.771 202.022 282.865 201.381 282.91 200.794C282.954 200.207 282.976 199.588 282.976 198.935H274.476V197.457H284.819V198.603ZM279.623 207.65C278.505 207.65 277.65 207.767 277.058 207.999C276.471 208.226 276.181 208.563 276.186 209.012C276.181 209.465 276.471 209.809 277.058 210.041C277.644 210.273 278.499 210.39 279.623 210.39C280.718 210.39 281.559 210.273 282.146 210.041C282.738 209.809 283.037 209.465 283.043 209.012C283.037 208.569 282.738 208.231 282.146 207.999C281.559 207.767 280.718 207.65 279.623 207.65ZM299.989 205.31H298.146V204.579H295.075V203.351H298.146V196.876H299.989V205.31ZM287.239 201.624C289.679 201.624 291.779 201.569 293.539 201.458C293.711 200.578 293.813 199.726 293.846 198.901H288.666V197.44H295.656V197.938C295.656 198.47 295.639 198.998 295.606 199.524C295.573 200.05 295.492 200.647 295.365 201.317C296.107 201.239 296.668 201.176 297.05 201.126L297.183 202.388C295.844 202.62 294.377 202.786 292.784 202.886V205.31H290.974V202.977C290.028 203.016 289.076 203.035 288.119 203.035C287.975 203.046 287.759 203.052 287.471 203.052L287.239 201.624ZM299.989 209.36H291.456V210.39H300.503V211.751H289.646V208.099H298.163V207.152H289.613V205.791H299.989V209.36ZM313.328 199.267H308.149V200.661H313.03V202.139H308.149V203.616C309.549 203.611 310.689 203.58 311.569 203.525C312.454 203.47 313.328 203.362 314.192 203.201L314.391 204.662C313.489 204.817 312.584 204.922 311.677 204.978C310.769 205.033 309.643 205.061 308.298 205.061H307.501H306.306V197.756H313.328V199.267ZM317.529 211.701H307.833V206.372H317.529V211.701ZM309.659 210.207H315.702V207.816H309.659V210.207ZM317.529 200.462H319.62V201.989H317.529V205.675H315.686V196.876H317.529V200.462ZM327.17 206.14C328.199 206.14 329.09 206.253 329.843 206.48C330.601 206.701 331.182 207.028 331.586 207.459C331.99 207.886 332.195 208.397 332.2 208.995C332.195 209.598 331.99 210.116 331.586 210.547C331.182 210.985 330.601 211.317 329.843 211.543C329.09 211.77 328.199 211.884 327.17 211.884C326.13 211.884 325.228 211.77 324.464 211.543C323.7 211.317 323.114 210.985 322.704 210.547C322.295 210.116 322.09 209.598 322.09 208.995C322.09 208.397 322.295 207.886 322.704 207.459C323.114 207.028 323.698 206.701 324.456 206.48C325.219 206.253 326.124 206.14 327.17 206.14ZM327.17 207.584C326.13 207.584 325.33 207.706 324.771 207.949C324.212 208.187 323.933 208.536 323.933 208.995C323.933 209.46 324.212 209.814 324.771 210.058C325.336 210.301 326.135 210.423 327.17 210.423C328.205 210.423 328.996 210.301 329.544 210.058C330.098 209.814 330.374 209.46 330.374 208.995C330.374 208.536 330.098 208.187 329.544 207.949C328.996 207.706 328.205 207.584 327.17 207.584ZM332.051 200.462H334.143V202.006H332.051V205.774H330.208V196.876H332.051V200.462ZM322.555 199.848H326.058V197.822H327.884V204.828H320.729V197.822H322.555V199.848ZM326.058 203.367V201.292H322.555V203.367H326.058ZM346.49 202.853H348.798V204.38H346.49V211.884H344.664V196.876H346.49V202.853ZM343.502 200.661H334.653V199.184H338.206V197.092H340.049V199.184H343.502V200.661ZM339.136 201.641C339.85 201.641 340.492 201.793 341.062 202.097C341.637 202.396 342.088 202.814 342.415 203.351C342.741 203.887 342.904 204.496 342.904 205.177C342.904 205.857 342.741 206.466 342.415 207.003C342.088 207.534 341.637 207.949 341.062 208.248C340.492 208.547 339.85 208.696 339.136 208.696C338.411 208.696 337.761 208.547 337.185 208.248C336.61 207.949 336.159 207.534 335.832 207.003C335.506 206.466 335.345 205.857 335.351 205.177C335.345 204.496 335.506 203.887 335.832 203.351C336.159 202.814 336.61 202.396 337.185 202.097C337.761 201.793 338.411 201.641 339.136 201.641ZM339.136 203.151C338.743 203.151 338.392 203.234 338.082 203.4C337.777 203.566 337.539 203.804 337.368 204.114C337.196 204.419 337.11 204.773 337.11 205.177C337.11 205.581 337.196 205.935 337.368 206.239C337.539 206.538 337.777 206.771 338.082 206.937C338.392 207.097 338.743 207.174 339.136 207.169C339.518 207.174 339.858 207.097 340.157 206.937C340.461 206.771 340.699 206.538 340.871 206.239C341.048 205.935 341.139 205.581 341.145 205.177C341.139 204.773 341.048 204.419 340.871 204.114C340.699 203.81 340.461 203.575 340.157 203.409C339.858 203.237 339.518 203.151 339.136 203.151ZM361.793 211.884H359.934V196.876H361.793V211.884ZM357.311 198.47C357.311 200.855 356.771 202.949 355.692 204.753C354.613 206.552 352.823 208.043 350.321 209.228L349.358 207.75C351.29 206.831 352.742 205.733 353.716 204.455C354.696 203.171 355.269 201.663 355.435 199.931H350.122V198.47H357.311ZM365.491 203.052H363.914L364.777 198.403H366.886L365.491 203.052ZM377.818 200.063H373.967V202.637H377.187V204.064H373.967V206.978C374.891 206.967 375.69 206.937 376.366 206.887C377.041 206.831 377.735 206.743 378.449 206.621L378.615 208.099C377.813 208.254 377.027 208.353 376.258 208.397C375.488 208.442 374.465 208.464 373.186 208.464H372.207V198.603H377.818V200.063ZM384.658 211.884H382.865V196.876H384.658V211.884ZM381.504 211.153H379.777V203.915H377.918V202.421H379.777V197.175H381.504V211.153ZM393.868 208.165H386.762V198.337H393.868V208.165ZM388.572 206.688H392.025V199.781H388.572V206.688ZM397.985 202.637H400.293V204.197H397.985V211.884H396.142V196.876H397.985V202.637ZM417.534 211.884H415.774V196.876H417.534V211.884ZM414.479 211.153H412.736V203.6H410.578V202.105H412.736V197.158H414.479V211.153ZM409.25 200.977C409.25 201.856 409.357 202.7 409.573 203.508C409.795 204.316 410.132 205.049 410.586 205.708C411.045 206.367 411.618 206.892 412.304 207.285L411.209 208.646C410.533 208.243 409.961 207.703 409.49 207.028C409.02 206.347 408.649 205.564 408.378 204.679C408.107 205.636 407.728 206.488 407.241 207.235C406.754 207.977 406.167 208.563 405.481 208.995L404.352 207.617C405.049 207.197 405.63 206.635 406.095 205.932C406.566 205.229 406.912 204.455 407.133 203.608C407.36 202.756 407.473 201.879 407.473 200.977V199.98H404.867V198.486H411.673V199.98H409.25V200.977ZM425.897 206.256C426.982 206.261 427.922 206.378 428.719 206.604C429.516 206.826 430.13 207.147 430.562 207.567C430.999 207.988 431.221 208.492 431.226 209.078C431.221 209.654 430.999 210.149 430.562 210.564C430.13 210.985 429.513 211.306 428.711 211.527C427.914 211.754 426.976 211.867 425.897 211.867C424.823 211.867 423.885 211.754 423.083 211.527C422.286 211.306 421.669 210.985 421.232 210.564C420.8 210.149 420.584 209.654 420.584 209.078C420.584 208.492 420.8 207.988 421.232 207.567C421.669 207.147 422.286 206.826 423.083 206.604C423.88 206.378 424.818 206.261 425.897 206.256ZM425.897 207.65C424.812 207.65 423.963 207.775 423.349 208.024C422.74 208.273 422.438 208.624 422.444 209.078C422.438 209.515 422.74 209.853 423.349 210.091C423.957 210.323 424.807 210.439 425.897 210.439C426.993 210.439 427.848 210.323 428.462 210.091C429.082 209.853 429.394 209.515 429.4 209.078C429.394 208.624 429.082 208.273 428.462 208.024C427.848 207.775 426.993 207.65 425.897 207.65ZM431.126 198.835C431.126 199.632 431.102 200.324 431.052 200.91C431.007 201.497 430.894 202.133 430.711 202.819L428.885 202.653C429.051 201.995 429.159 201.4 429.209 200.869C429.259 200.332 429.284 199.726 429.284 199.051H420.734V197.59H431.126V198.835ZM432.787 205.177H419.173V203.683H424.453V200.96H426.279V203.683H432.787V205.177ZM151.261 241.883H149.419V236.421H146.704C146.577 237.002 146.331 237.517 145.965 237.965C145.6 238.413 145.149 238.762 144.612 239.011C144.076 239.254 143.492 239.376 142.861 239.376C142.114 239.376 141.439 239.215 140.836 238.895C140.232 238.568 139.756 238.117 139.408 237.542C139.065 236.966 138.893 236.316 138.893 235.591C138.893 234.866 139.065 234.218 139.408 233.648C139.756 233.073 140.232 232.625 140.836 232.304C141.439 231.983 142.114 231.822 142.861 231.822C143.508 231.822 144.106 231.952 144.654 232.212C145.207 232.467 145.664 232.829 146.024 233.3C146.389 233.765 146.627 234.301 146.737 234.91H149.419V230.893H151.261V241.883ZM151.643 245.585H141.417V240.771H143.259V244.091H151.643V245.585ZM142.861 233.433C142.44 233.433 142.061 233.521 141.724 233.698C141.392 233.875 141.129 234.127 140.935 234.454C140.747 234.78 140.653 235.159 140.653 235.591C140.653 236.022 140.747 236.404 140.935 236.736C141.129 237.068 141.392 237.326 141.724 237.508C142.061 237.691 142.44 237.782 142.861 237.782C143.27 237.782 143.638 237.691 143.965 237.508C144.291 237.326 144.549 237.068 144.737 236.736C144.931 236.404 145.03 236.022 145.036 235.591C145.03 235.159 144.933 234.78 144.745 234.454C144.557 234.127 144.297 233.875 143.965 233.698C143.638 233.521 143.27 233.433 142.861 233.433ZM166.132 245.884H164.373V230.876H166.132V245.884ZM163.078 245.153H161.334V237.6H159.176V236.105H161.334V231.158H163.078V245.153ZM157.848 234.977C157.848 235.856 157.956 236.7 158.172 237.508C158.393 238.316 158.731 239.049 159.185 239.708C159.644 240.367 160.217 240.892 160.903 241.285L159.807 242.646C159.132 242.243 158.559 241.703 158.089 241.028C157.618 240.347 157.248 239.564 156.977 238.679C156.705 239.636 156.326 240.488 155.839 241.235C155.352 241.977 154.766 242.563 154.08 242.995L152.951 241.617C153.648 241.197 154.229 240.635 154.694 239.932C155.164 239.229 155.51 238.455 155.731 237.608C155.958 236.756 156.072 235.879 156.072 234.977V233.98H153.465V232.486H160.272V233.98H157.848V234.977ZM175.703 231.972C176.379 231.972 176.987 232.152 177.53 232.511C178.072 232.871 178.515 233.386 178.858 234.055C179.201 234.719 179.414 235.502 179.497 236.404H182.361V230.876H184.187V245.9H182.361V237.898H179.522C179.455 238.85 179.253 239.68 178.916 240.389C178.578 241.091 178.133 241.634 177.579 242.016C177.026 242.392 176.401 242.58 175.703 242.58C174.951 242.58 174.284 242.364 173.703 241.933C173.122 241.501 172.668 240.884 172.342 240.082C172.015 239.279 171.852 238.341 171.852 237.268C171.852 236.205 172.015 235.275 172.342 234.479C172.668 233.676 173.122 233.059 173.703 232.627C174.29 232.19 174.956 231.972 175.703 231.972ZM175.703 233.632C175.288 233.632 174.923 233.778 174.608 234.072C174.292 234.36 174.049 234.777 173.877 235.325C173.706 235.868 173.623 236.515 173.628 237.268C173.623 238.026 173.706 238.679 173.877 239.227C174.049 239.774 174.292 240.195 174.608 240.488C174.923 240.776 175.288 240.92 175.703 240.92C176.118 240.92 176.481 240.776 176.791 240.488C177.106 240.195 177.35 239.774 177.521 239.227C177.698 238.679 177.79 238.026 177.795 237.268C177.79 236.515 177.698 235.865 177.521 235.317C177.35 234.769 177.106 234.351 176.791 234.063C176.481 233.776 176.118 233.632 175.703 233.632ZM198.61 245.9H196.75V230.876H198.61V245.9ZM194.293 233.748H188.914V240.721C190.375 240.715 191.584 240.682 192.542 240.621C193.499 240.56 194.454 240.444 195.406 240.272L195.588 241.8C194.564 241.988 193.518 242.115 192.45 242.182C191.388 242.248 190.016 242.281 188.333 242.281H187.055V232.237H194.293V233.748ZM206.193 234.479C206.193 235.419 206.336 236.33 206.624 237.209C206.917 238.084 207.344 238.859 207.903 239.534C208.467 240.209 209.137 240.715 209.911 241.053L208.799 242.53C207.969 242.126 207.252 241.545 206.649 240.787C206.051 240.029 205.589 239.149 205.263 238.147C204.925 239.21 204.449 240.145 203.835 240.953C203.226 241.761 202.501 242.381 201.66 242.812L200.498 241.318C201.29 240.948 201.97 240.405 202.54 239.691C203.116 238.978 203.553 238.167 203.852 237.259C204.156 236.352 204.311 235.425 204.317 234.479V232.088H206.193V234.479ZM213.232 245.9H211.405V237.218H208.251V235.724H211.405V230.876H213.232V245.9ZM229.149 238.181H226.924V245.851H225.081V230.876H226.924V236.67H229.149V238.181ZM217.527 240.621C219.802 240.582 221.932 240.355 223.919 239.94L224.118 241.501C221.932 241.933 219.547 242.148 216.963 242.148H215.701V232.337H217.527V240.621ZM245.443 235.259H247.469V236.786H245.443V241.036H243.601V230.893H245.443V235.259ZM233.424 239.243C234.818 239.243 236.08 239.229 237.209 239.202V238.28C236.368 238.175 235.704 237.932 235.217 237.55C234.73 237.162 234.486 236.675 234.486 236.089C234.486 235.635 234.636 235.239 234.935 234.902C235.233 234.564 235.657 234.307 236.205 234.13C236.752 233.947 237.386 233.859 238.105 233.864C238.83 233.859 239.464 233.947 240.006 234.13C240.554 234.307 240.977 234.564 241.276 234.902C241.575 235.239 241.725 235.635 241.725 236.089C241.725 236.67 241.487 237.151 241.011 237.533C240.535 237.915 239.882 238.161 239.052 238.272V239.127C240.441 239.066 241.697 238.961 242.82 238.812L242.97 240.09C241.547 240.339 240.081 240.502 238.57 240.58C237.065 240.652 235.416 240.688 233.623 240.688L233.424 239.243ZM245.443 245.884H243.601V243.128H235.316V241.684H245.443V245.884ZM242.422 233.433H233.806V232.071H237.209V230.76H239.052V232.071H242.422V233.433ZM238.105 235.109C237.519 235.098 237.062 235.179 236.736 235.35C236.415 235.522 236.257 235.768 236.263 236.089C236.252 236.399 236.412 236.645 236.744 236.828C237.076 237.005 237.53 237.09 238.105 237.085C238.681 237.09 239.135 237.005 239.467 236.828C239.799 236.645 239.965 236.399 239.965 236.089C239.965 235.768 239.802 235.522 239.475 235.35C239.149 235.179 238.692 235.098 238.105 235.109ZM260.58 241.733H258.721V230.893H260.58V241.733ZM260.995 245.585H250.652V240.638H252.512V244.091H260.995V245.585ZM252.395 231.872C253.148 231.872 253.831 232.035 254.446 232.362C255.06 232.683 255.544 233.128 255.898 233.698C256.252 234.268 256.43 234.91 256.43 235.624C256.43 236.349 256.252 236.999 255.898 237.575C255.544 238.145 255.06 238.59 254.446 238.911C253.831 239.232 253.148 239.393 252.395 239.393C251.637 239.393 250.948 239.232 250.328 238.911C249.714 238.59 249.23 238.145 248.876 237.575C248.522 236.999 248.345 236.349 248.345 235.624C248.345 234.91 248.522 234.268 248.876 233.698C249.23 233.128 249.714 232.683 250.328 232.362C250.948 232.035 251.637 231.872 252.395 231.872ZM252.395 233.482C251.969 233.482 251.585 233.571 251.242 233.748C250.898 233.925 250.63 234.177 250.436 234.503C250.243 234.83 250.149 235.203 250.154 235.624C250.149 236.056 250.243 236.435 250.436 236.761C250.63 237.088 250.898 237.34 251.242 237.517C251.585 237.694 251.969 237.782 252.395 237.782C252.81 237.782 253.187 237.694 253.524 237.517C253.862 237.34 254.127 237.088 254.321 236.761C254.52 236.435 254.62 236.056 254.62 235.624C254.62 235.203 254.52 234.83 254.321 234.503C254.127 234.177 253.862 233.925 253.524 233.748C253.187 233.571 252.81 233.482 252.395 233.482ZM278.219 236.736H280.444V238.28H278.219V245.851H276.377V230.876H278.219V236.736ZM274.252 232.437C274.252 237.362 271.977 240.942 267.428 243.178L266.383 241.75C268.209 240.842 269.617 239.744 270.608 238.455C271.604 237.165 272.196 235.668 272.384 233.964H267.196V232.437H274.252ZM293.124 236.271H282.764V231.142H284.607V234.777H293.124V236.271ZM294.684 239.21H280.988V237.716H294.684V239.21ZM287.811 240.289C288.89 240.295 289.817 240.408 290.592 240.629C291.367 240.845 291.962 241.161 292.377 241.576C292.792 241.985 293.002 242.48 293.007 243.062C293.002 243.643 292.792 244.138 292.377 244.547C291.962 244.962 291.367 245.278 290.592 245.494C289.817 245.709 288.89 245.817 287.811 245.817C286.721 245.817 285.783 245.709 284.997 245.494C284.217 245.278 283.619 244.962 283.204 244.547C282.789 244.138 282.582 243.643 282.582 243.062C282.582 242.48 282.789 241.985 283.204 241.576C283.619 241.161 284.217 240.845 284.997 240.629C285.783 240.408 286.721 240.295 287.811 240.289ZM287.811 241.733C285.559 241.75 284.441 242.193 284.458 243.062C284.447 243.493 284.729 243.825 285.304 244.058C285.88 244.29 286.715 244.406 287.811 244.406C288.879 244.406 289.701 244.29 290.276 244.058C290.858 243.825 291.154 243.493 291.165 243.062C291.148 242.193 290.03 241.75 287.811 241.733ZM307.347 235.607H309.439V237.135H307.347V242.099H305.504V230.893H307.347V235.607ZM304.425 234.03H295.527V232.553H299.063V230.876H300.906V232.553H304.425V234.03ZM299.976 234.645C300.69 234.645 301.324 234.764 301.877 235.001C302.43 235.239 302.862 235.577 303.172 236.014C303.482 236.446 303.64 236.947 303.645 237.517C303.64 238.081 303.482 238.579 303.172 239.011C302.862 239.437 302.43 239.769 301.877 240.007C301.324 240.239 300.69 240.355 299.976 240.355C299.257 240.355 298.618 240.239 298.059 240.007C297.5 239.769 297.065 239.437 296.755 239.011C296.446 238.579 296.291 238.081 296.291 237.517C296.291 236.947 296.446 236.446 296.755 236.014C297.065 235.577 297.5 235.239 298.059 235.001C298.618 234.764 299.257 234.645 299.976 234.645ZM299.976 236.072C299.395 236.072 298.933 236.2 298.59 236.454C298.252 236.709 298.084 237.063 298.084 237.517C298.084 237.959 298.255 238.308 298.598 238.562C298.941 238.817 299.401 238.939 299.976 238.928C300.552 238.939 301.014 238.817 301.362 238.562C301.711 238.308 301.885 237.959 301.885 237.517C301.885 237.063 301.711 236.709 301.362 236.454C301.019 236.2 300.557 236.072 299.976 236.072ZM307.945 245.585H297.735V241.219H299.578V244.091H307.945V245.585ZM313.93 244.406L318.329 232.387H319.907L324.306 244.406H322.729L321.525 241.02H316.694L315.491 244.406H313.93ZM321.069 239.708L319.16 234.329H319.06L317.151 239.708H321.069ZM325.763 232.387H329.847C330.76 232.387 331.524 232.544 332.138 232.86C332.752 233.17 333.206 233.604 333.499 234.163C333.798 234.716 333.948 235.358 333.948 236.089C333.948 236.902 333.759 237.602 333.383 238.189C333.012 238.776 332.453 239.199 331.706 239.459L334.412 244.406H332.669L330.154 239.733L329.864 239.741H327.257V244.406H325.763V232.387ZM329.797 238.38C330.721 238.38 331.396 238.183 331.823 237.791C332.254 237.398 332.47 236.83 332.47 236.089C332.47 235.336 332.254 234.752 331.823 234.337C331.391 233.922 330.71 233.715 329.781 233.715H327.257V238.38H329.797ZM346.988 242.049H340.165V232.453H346.988V242.049ZM341.443 240.986H345.71V233.499H341.443V240.986ZM351.471 245.784H350.159V230.992H351.471V245.784ZM358.871 233.731C358.871 234.44 359.023 235.129 359.328 235.798C359.632 236.468 360.058 237.063 360.606 237.583C361.154 238.098 361.782 238.496 362.49 238.778L361.76 239.791C360.952 239.453 360.241 238.964 359.627 238.322C359.018 237.68 358.558 236.938 358.249 236.097C357.933 237.005 357.454 237.804 356.813 238.496C356.176 239.182 355.429 239.702 354.571 240.057L353.857 239.011C354.582 238.729 355.227 238.319 355.792 237.782C356.356 237.245 356.796 236.626 357.111 235.923C357.427 235.22 357.587 234.49 357.593 233.731V231.839H358.871V233.731ZM366.06 242.032H364.748V237.301H361.71V236.238H364.748V234.279H361.71V233.2H364.748V231.009H366.06V242.032ZM366.392 245.436H356.514V240.887H357.825V244.34H366.392V245.436ZM384.612 245.784H383.301V230.992H384.612V245.784ZM376.76 232.138C377.49 232.143 378.14 232.359 378.71 232.785C379.28 233.206 379.726 233.803 380.047 234.578C380.368 235.353 380.528 236.255 380.528 237.284C380.528 238.313 380.368 239.215 380.047 239.99C379.726 240.765 379.28 241.363 378.71 241.783C378.14 242.204 377.49 242.414 376.76 242.414C376.029 242.414 375.376 242.204 374.801 241.783C374.231 241.363 373.785 240.765 373.464 239.99C373.149 239.215 372.991 238.313 372.991 237.284C372.991 236.255 373.149 235.353 373.464 234.578C373.785 233.803 374.231 233.206 374.801 232.785C375.371 232.359 376.024 232.143 376.76 232.138ZM376.76 233.3C376.267 233.305 375.83 233.474 375.448 233.806C375.072 234.133 374.779 234.597 374.568 235.201C374.358 235.798 374.253 236.493 374.253 237.284C374.253 238.076 374.358 238.773 374.568 239.376C374.779 239.974 375.075 240.436 375.456 240.762C375.838 241.089 376.273 241.252 376.76 241.252C377.247 241.252 377.681 241.089 378.063 240.762C378.445 240.436 378.741 239.974 378.951 239.376C379.161 238.773 379.266 238.076 379.266 237.284C379.266 236.493 379.161 235.798 378.951 235.201C378.741 234.597 378.445 234.133 378.063 233.806C377.687 233.474 377.252 233.305 376.76 233.3ZM400.413 239.376H386.966V238.297H390.303V236.222C389.705 235.989 389.248 235.688 388.933 235.317C388.617 234.941 388.46 234.506 388.46 234.014C388.46 233.438 388.67 232.946 389.091 232.536C389.511 232.127 390.112 231.814 390.892 231.598C391.678 231.382 392.61 231.274 393.689 231.274C394.757 231.274 395.681 231.382 396.462 231.598C397.248 231.814 397.851 232.127 398.271 232.536C398.692 232.946 398.902 233.438 398.902 234.014C398.902 234.501 398.744 234.932 398.429 235.309C398.119 235.679 397.668 235.981 397.076 236.213V238.297H400.413V239.376ZM393.689 240.505C394.746 240.505 395.654 240.604 396.412 240.804C397.17 241.003 397.751 241.299 398.155 241.692C398.559 242.079 398.764 242.552 398.769 243.111C398.764 243.665 398.559 244.135 398.155 244.522C397.751 244.915 397.17 245.211 396.412 245.411C395.654 245.615 394.746 245.718 393.689 245.718C392.621 245.718 391.705 245.615 390.942 245.411C390.184 245.211 389.603 244.915 389.199 244.522C388.795 244.135 388.593 243.665 388.593 243.111C388.593 242.552 388.792 242.079 389.19 241.692C389.594 241.299 390.178 241.003 390.942 240.804C391.705 240.604 392.621 240.505 393.689 240.505ZM393.689 241.501C392.494 241.512 391.564 241.659 390.9 241.941C390.242 242.218 389.915 242.608 389.921 243.111C389.915 243.443 390.062 243.728 390.361 243.966C390.659 244.204 391.091 244.387 391.656 244.514C392.226 244.641 392.903 244.705 393.689 244.705C394.464 244.705 395.134 244.641 395.698 244.514C396.268 244.387 396.702 244.204 397.001 243.966C397.306 243.728 397.458 243.443 397.458 243.111C397.458 242.608 397.123 242.218 396.453 241.941C395.789 241.659 394.868 241.512 393.689 241.501ZM393.689 232.304C392.892 232.304 392.201 232.373 391.614 232.511C391.027 232.65 390.576 232.849 390.261 233.109C389.951 233.363 389.799 233.665 389.805 234.014C389.799 234.368 389.951 234.675 390.261 234.935C390.576 235.19 391.025 235.386 391.606 235.524C392.192 235.657 392.887 235.724 393.689 235.724C394.486 235.724 395.175 235.657 395.756 235.524C396.337 235.386 396.785 235.19 397.101 234.935C397.416 234.675 397.574 234.368 397.574 234.014C397.574 233.665 397.416 233.363 397.101 233.109C396.785 232.849 396.334 232.65 395.748 232.511C395.167 232.373 394.481 232.304 393.689 232.304ZM395.781 238.297V236.57C395.145 236.681 394.447 236.736 393.689 236.736C392.931 236.736 392.234 236.681 391.597 236.57V238.297H395.781ZM417.007 237.002H419.397V238.098H417.007V245.751H415.712V230.992H417.007V237.002ZM413.188 232.586C413.188 234.783 412.638 236.775 411.536 238.562C410.435 240.344 408.728 241.805 406.415 242.945L405.684 241.916C407.582 240.97 409.052 239.802 410.092 238.413C411.132 237.019 411.727 235.441 411.877 233.682H406.365V232.586H413.188ZM432.276 245.784H430.964V230.992H432.276V245.784ZM424.423 232.138C425.154 232.143 425.804 232.359 426.374 232.785C426.944 233.206 427.39 233.803 427.711 234.578C428.031 235.353 428.192 236.255 428.192 237.284C428.192 238.313 428.031 239.215 427.711 239.99C427.39 240.765 426.944 241.363 426.374 241.783C425.804 242.204 425.154 242.414 424.423 242.414C423.693 242.414 423.04 242.204 422.464 241.783C421.894 241.363 421.449 240.765 421.128 239.99C420.813 239.215 420.655 238.313 420.655 237.284C420.655 236.255 420.813 235.353 421.128 234.578C421.449 233.803 421.894 233.206 422.464 232.785C423.034 232.359 423.687 232.143 424.423 232.138ZM424.423 233.3C423.931 233.305 423.494 233.474 423.112 233.806C422.736 234.133 422.442 234.597 422.232 235.201C422.022 235.798 421.917 236.493 421.917 237.284C421.917 238.076 422.022 238.773 422.232 239.376C422.442 239.974 422.738 240.436 423.12 240.762C423.502 241.089 423.936 241.252 424.423 241.252C424.91 241.252 425.345 241.089 425.727 240.762C426.108 240.436 426.405 239.974 426.615 239.376C426.825 238.773 426.93 238.076 426.93 237.284C426.93 236.493 426.825 235.798 426.615 235.201C426.405 234.597 426.108 234.133 425.727 233.806C425.35 233.474 424.916 233.305 424.423 233.3ZM446.549 239.177H436.356V232.37H446.4V233.449H437.651V238.098H446.549V239.177ZM448.143 243.742H434.629V242.646H448.143V243.742Z" fill="#121212"/>
<path d="M255.081 92.1211V93.9258H249.585V98.1709H256.968V100.037H240.028V98.1709H247.329V93.9258H242.079V85.0664H254.937V86.8916H244.355V92.1211H255.081ZM272.652 83.7129V97.248H270.376V90.46H267.094V88.6143H270.376V83.7129H272.652ZM273.124 100.017V101.862H260.491V96.0586H262.767V100.017H273.124ZM263.936 87.4043C263.936 89.6396 265.433 91.9365 268.304 92.8799L267.156 94.7051C265.085 93.9976 263.618 92.5928 262.808 90.8291C261.988 92.7876 260.44 94.3359 258.255 95.0947L257.087 93.249C260.04 92.2852 261.619 89.8447 261.619 87.3838V86.8916H257.763V85.0459H267.771V86.8916H263.936V87.4043ZM278.041 85.5586L277.816 96.0381H275.498L275.252 85.5586H278.041ZM276.667 100.57C275.786 100.57 275.068 99.8525 275.068 98.9707C275.068 98.1094 275.786 97.3916 276.667 97.3916C277.508 97.3916 278.246 98.1094 278.246 98.9707C278.246 99.8525 277.508 100.57 276.667 100.57ZM285.847 100.406H282.996L288.226 85.5586H291.507L296.757 100.406H293.906L292.676 96.7354H287.077L285.847 100.406ZM287.795 94.582H291.958L289.928 88.5938H289.805L287.795 94.582ZM297.471 100.406V85.5586H303.049C306.453 85.5586 308.278 87.4658 308.278 90.2959C308.278 92.3159 307.355 93.813 305.612 94.5205L308.811 100.406H305.838L302.926 94.9717H300.137V100.406H297.471ZM300.137 92.7363H302.638C304.648 92.7363 305.551 91.875 305.551 90.2959C305.551 88.7168 304.648 87.7939 302.638 87.7939H300.137V92.7363ZM322.502 85.4355V97.7197H313.684V85.4355H322.502ZM315.94 87.2197V95.8945H320.288V87.2197H315.94ZM328.121 83.6924V102.252H325.825V83.6924H328.121ZM336.546 86.9736C336.546 89.5781 338.002 92.1416 340.853 93.208L339.581 94.9717C337.602 94.1924 336.187 92.644 335.418 90.7266C334.618 92.7773 333.121 94.4077 330.988 95.2383L329.758 93.4336C332.711 92.3672 334.229 89.7422 334.249 86.9736V84.7588H336.546V86.9736ZM345.323 83.7129V97.4736H343.047V91.7314H339.663V89.9062H343.047V88.0811H339.663V86.2354H343.047V83.7129H345.323ZM345.734 100.017V101.862H333.101V96.1201H335.418V100.017H345.734Z" fill="#00A695"/>
<rect x="254.637" y="38.3086" width="77.4746" height="25.1621" rx="12.5811" stroke="#00A695"/>
<path d="M277.146 47.8691V46.3789H285.035V47.8691H281.986V56.2773H280.209V47.8691H277.146ZM287.957 51.9297V56.2773H286.207V46.3789H287.916V50.1113H288.012C288.354 49.2773 289.065 48.7578 290.213 48.7578C291.758 48.7578 292.77 49.7559 292.77 51.5469V56.2773H291.034V51.8203C291.034 50.8086 290.487 50.2344 289.571 50.2344C288.627 50.2344 287.957 50.8496 287.957 51.9297ZM294.284 56.2773V48.8535H296.034V56.2773H294.284ZM295.173 47.8008C294.626 47.8008 294.161 47.377 294.161 46.8438C294.161 46.3242 294.626 45.9004 295.173 45.9004C295.733 45.9004 296.185 46.3242 296.185 46.8438C296.185 47.377 295.733 47.8008 295.173 47.8008ZM297.562 56.2773V48.8535H299.257V50.084H299.339C299.599 49.2363 300.324 48.7441 301.172 48.7441C301.363 48.7441 301.636 48.7578 301.8 48.7852V50.3984C301.65 50.3438 301.281 50.2891 300.994 50.2891C300.023 50.2891 299.312 50.959 299.312 51.9023V56.2773H297.562ZM305.215 56.4141C303.465 56.4141 302.153 55.0195 302.153 52.5723C302.153 50.0977 303.506 48.7578 305.229 48.7578C306.541 48.7578 307.088 49.5371 307.348 50.0703H307.416V46.3789H309.153V56.2773H307.444V55.1016H307.348C307.074 55.6484 306.5 56.4141 305.215 56.4141ZM305.694 54.9785C306.815 54.9785 307.457 54.0078 307.457 52.5586C307.457 51.123 306.828 50.1797 305.694 50.1797C304.532 50.1797 303.93 51.1777 303.93 52.5586C303.93 53.9668 304.545 54.9785 305.694 54.9785Z" fill="#01A695"/>
<defs>
<filter id="filter0_d_1066_3092" x="0.423437" y="0.228125" width="591.903" height="308.868" filterUnits="userSpaceOnUse" color-interpolation-filters="sRGB">
<feFlood flood-opacity="0" result="BackgroundImageFix"/>
<feColorMatrix in="SourceAlpha" type="matrix" values="0 0 0 0 0 0 0 0 0 0 0 0 0 0 0 0 0 0 127 0" result="hardAlpha"/>
<feOffset dx="3" dy="3"/>
<feGaussianBlur stdDeviation="6.3"/>
<feComposite in2="hardAlpha" operator="out"/>
<feColorMatrix type="matrix" values="0 0 0 0 0 0 0 0 0 0 0 0 0 0 0 0 0 0 0.25 0"/>
<feBlend mode="normal" in2="BackgroundImageFix" result="effect1_dropShadow_1066_3092"/>
<feBlend mode="normal" in="SourceGraphic" in2="effect1_dropShadow_1066_3092" result="shape"/>
</filter>
</defs>
</svg>
