<svg width="332" height="158" viewBox="0 0 332 158" fill="none" xmlns="http://www.w3.org/2000/svg">
<g filter="url(#filter0_d_1979_630)">
<path fill-rule="evenodd" clip-rule="evenodd" d="M293.812 9.94141C305.963 9.94141 315.812 19.7911 315.812 31.9414V119.766C315.812 131.916 305.963 141.766 293.812 141.766H64.8125C52.6622 141.766 42.8125 131.916 42.8125 119.766V118.48H10.5059L42.8125 86.1738V31.9414C42.8125 19.7911 52.6622 9.94141 64.8125 9.94141H293.812Z" fill="white"/>
</g>
<path d="M114.954 49.3652V67.4736H113.662V49.3652H114.954ZM105.397 50.8008C108.063 50.8008 109.97 53.2412 109.97 57.0557C109.97 60.8701 108.063 63.3105 105.397 63.3105C102.71 63.3105 100.824 60.8701 100.824 57.0557C100.824 53.2412 102.71 50.8008 105.397 50.8008ZM105.397 51.9492C103.449 51.9492 102.075 54.041 102.075 57.0557C102.075 60.0908 103.449 62.1621 105.397 62.1621C107.345 62.1621 108.699 60.0908 108.699 57.0557C108.699 54.041 107.345 51.9492 105.397 51.9492ZM133.165 49.3652V62.7773H131.873V55.6611H127.299V59.5986H119.199V50.5752H120.491V53.9385H126.007V50.5752H127.299V54.5537H131.873V49.3652H133.165ZM133.595 65.9355V67.0225H121.578V61.4648H122.87V65.9355H133.595ZM120.491 58.5117H126.007V54.9639H120.491V58.5117ZM150.412 51.9082C150.412 54.5127 154.021 56.584 156.913 57.0352L156.42 58.0605C153.744 57.5684 150.791 56.0303 149.714 53.7539C148.617 56.0303 145.654 57.5684 143.029 58.0605L142.516 57.0352C145.387 56.584 148.997 54.5127 148.997 51.9082V51.6211H143.049V50.5547H156.338V51.6211H150.412V51.9082ZM157.958 59.7627V60.8701H150.309V67.4326H149.058V60.8701H141.47V59.7627H157.958ZM164.993 62.6953V61.5059L171.76 51.0059H173.524V61.4033H175.554V62.6953H173.524V65.8535H172.129V62.6953H164.993ZM166.613 61.4033H172.129V52.9541H171.986L166.613 61.3008V61.4033ZM192.863 49.3652V67.4531H191.612V57.8145H188.679V66.4893H187.469V49.7959H188.679V56.7275H191.612V49.3652H192.863ZM184.967 51.6006V52.6875H179.471V61.7314C182.25 61.7314 184.003 61.6187 186.054 61.1777L186.198 62.2852C184.024 62.7568 182.219 62.8389 179.307 62.8594H178.179V51.6006H184.967ZM215.011 50.1855V51.4365C215.011 52.79 215.011 54.4922 214.519 56.7275H217.247V57.7939H209.556V60.8291C213.083 60.9727 215.175 62.1416 215.196 64.1104C215.175 66.2227 212.817 67.3916 208.9 67.3916C204.962 67.3916 202.604 66.2227 202.604 64.1104C202.604 62.1313 204.706 60.9624 208.264 60.8291V57.7939H200.676V56.7275H213.227C213.719 54.4409 213.719 52.8105 213.719 51.4365V51.252H202.809V50.1855H215.011ZM208.9 61.8955C205.824 61.8955 203.896 62.7363 203.896 64.1104C203.896 65.5049 205.824 66.3252 208.9 66.3252C211.935 66.3252 213.883 65.5049 213.883 64.1104C213.883 62.7363 211.935 61.8955 208.9 61.8955ZM233.653 49.3652V59.6807H232.361V58.3477H228.198V57.3838H232.361V49.3652H233.653ZM218.723 55.4355C221.112 55.4355 224.117 55.4048 227.07 55.1895C227.388 53.436 227.459 52.1235 227.48 51.252H220.507V50.1855H228.751V50.5957C228.751 51.3647 228.751 52.9644 228.362 55.0664C229.121 55.0049 229.869 54.9229 230.597 54.8203L230.7 55.7637C228.854 56.0815 226.896 56.2559 224.999 56.3584V59.6602H223.727V56.4199C221.984 56.4917 220.333 56.502 218.908 56.502L218.723 55.4355ZM233.653 60.3574V64.1719H222.948V66.2021H234.371V67.2275H221.676V63.208H232.361V61.3828H221.635V60.3574H233.653ZM242.902 50.7188C245.752 50.7188 247.721 52.4209 247.742 54.9023C247.721 57.4043 245.752 59.0859 242.902 59.0859C240.072 59.0859 238.062 57.4043 238.062 54.9023C238.062 52.4209 240.072 50.7188 242.902 50.7188ZM242.902 51.8672C240.831 51.8672 239.313 53.1387 239.333 54.9023C239.313 56.666 240.831 57.958 242.902 57.9375C244.973 57.958 246.47 56.666 246.47 54.9023C246.47 53.1387 244.973 51.8672 242.902 51.8672ZM251.7 49.3652V67.4736H250.408V49.3652H251.7ZM237.078 62.2441C240.461 62.2646 245.096 62.2441 249.157 61.6289L249.259 62.6133C245.076 63.3926 240.564 63.3926 237.283 63.3926L237.078 62.2441ZM186.27 83.3652V90.8506H189.325V91.958H186.27V101.453H184.978V83.3652H186.27ZM181.635 85.334C181.614 90.3584 179.112 95.0137 173.268 97.9053L172.55 96.8799C177.369 94.501 179.994 90.7891 180.322 86.4209H173.35V85.334H181.635ZM209.648 83.3652V89.4766H212.438V90.584H209.648V96.9414H208.356V83.3652H209.648ZM206.408 85.6826V86.7695H195.621V85.6826H200.379V83.3857H201.65V85.6826H206.408ZM201.015 87.877C203.578 87.877 205.321 89.1895 205.321 91.2197C205.321 93.25 203.578 94.542 201.015 94.542C198.41 94.542 196.688 93.25 196.688 91.2197C196.688 89.1895 198.41 87.877 201.015 87.877ZM201.015 88.9229C199.148 88.9229 197.897 89.8457 197.918 91.2197C197.897 92.5732 199.148 93.4961 201.015 93.4756C202.86 93.4961 204.091 92.5732 204.111 91.2197C204.091 89.8457 202.86 88.9229 201.015 88.9229ZM210.53 99.9355V101.022H198.451V95.834H199.723V99.9355H210.53ZM233.376 89.0664V90.1328H221.092V84.1035H222.363V89.0664H233.376ZM235.263 92.4502V93.5371H227.757V97.4746H226.485V93.5371H218.774V92.4502H235.263ZM233.499 99.9355V101.022H220.948V95.793H222.22V99.9355H233.499ZM252.366 83.3652V101.453H251.115V83.3652H252.366ZM248.777 83.7754V100.51H247.526V91.6299H244.922C244.768 95.1367 243.261 97.3516 241.025 97.3516C238.688 97.3516 237.17 94.9316 237.17 91.1582C237.17 87.3643 238.688 84.9648 241.025 84.9648C243.23 84.9648 244.727 87.0977 244.901 90.5225H247.526V83.7754H248.777ZM241.025 86.1748C239.426 86.1748 238.38 88.1641 238.4 91.1582C238.38 94.1318 239.426 96.1416 241.025 96.1416C242.646 96.1416 243.691 94.1318 243.691 91.1582C243.691 88.1641 242.646 86.1748 241.025 86.1748ZM257.678 85.0059L257.575 95.6084H256.201L256.099 85.0059H257.678ZM256.898 99.9561C256.283 99.9561 255.791 99.4639 255.791 98.8691C255.791 98.2539 256.283 97.7617 256.898 97.7617C257.493 97.7617 257.985 98.2539 257.985 98.8691C257.985 99.4639 257.493 99.9561 256.898 99.9561Z" fill="#121212"/>
<path d="M105.735 84.8623V86.9336H94.6611V84.8623H98.9062V82.9961H101.511V84.8623H105.735ZM100.198 87.5283C102.905 87.5488 104.792 88.9639 104.792 90.9941C104.792 93.0449 102.905 94.4395 100.198 94.4395C97.4912 94.4395 95.5635 93.0449 95.5635 90.9941C95.5635 88.9639 97.4912 87.5488 100.198 87.5283ZM100.198 89.5381C98.9473 89.5381 98.1064 90.0303 98.127 90.9941C98.1064 91.958 98.9473 92.4297 100.198 92.4297C101.449 92.4297 102.311 91.958 102.311 90.9941C102.311 90.0303 101.449 89.5381 100.198 89.5381ZM109.468 83.0781V88.082H111.99V90.2354H109.468V96.1416H106.843V83.0781H109.468ZM104.771 95.4033C104.771 97.3105 106.74 99.1973 110.719 99.6895L109.796 101.658C106.812 101.269 104.628 100.079 103.5 98.418C102.362 100.079 100.208 101.269 97.2246 101.658L96.3018 99.6895C100.239 99.1973 102.188 97.3105 102.188 95.4033V95.1367H104.771V95.4033ZM128.314 83.5908V85.5391H125.874V88H128.191V89.9482H114.431V88H116.728V85.5391H114.308V83.5908H128.314ZM129.832 90.9326V92.9834H112.811V90.9326H129.832ZM127.761 94.0498V98.6641H117.363V99.6895H128.253V101.617H114.8V96.8799H125.177V95.9365H114.779V94.0498H127.761ZM119.353 88H123.249V85.5391H119.353V88ZM152.821 92.6963V94.7471H135.759V92.6963H142.978V91.5479H137.892V83.5293H150.832V85.5391H140.517V86.585H150.401V88.4717H140.517V89.5381H150.996V91.5479H145.603V92.6963H152.821ZM144.29 95.6084C148.412 95.5879 150.771 96.6953 150.791 98.6641C150.771 100.674 148.412 101.74 144.29 101.74C140.106 101.74 137.748 100.674 137.748 98.6641C137.748 96.6953 140.106 95.5879 144.29 95.6084ZM144.29 97.5361C141.604 97.5361 140.353 97.8848 140.373 98.6641C140.353 99.4639 141.604 99.8125 144.29 99.8125C146.915 99.8125 148.146 99.4639 148.166 98.6641C148.146 97.8848 146.915 97.5361 144.29 97.5361ZM170.13 83.0781V101.74H167.669V83.0781H170.13ZM166.233 83.4883V100.92H163.752V94.7676H161.106V92.6553H163.752V90.1123H161.455C160.583 93.1885 158.697 95.793 155.2 97.8643L153.662 96.0186C157.446 93.7832 159.107 91.0659 159.466 87.4053H154.749V85.293H162.07C162.07 86.2261 162.009 87.1284 161.906 88H163.752V83.4883H166.233Z" fill="#00A695"/>
<defs>
<filter id="filter0_d_1979_630" x="0.905859" y="0.341406" width="330.507" height="157.024" filterUnits="userSpaceOnUse" color-interpolation-filters="sRGB">
<feFlood flood-opacity="0" result="BackgroundImageFix"/>
<feColorMatrix in="SourceAlpha" type="matrix" values="0 0 0 0 0 0 0 0 0 0 0 0 0 0 0 0 0 0 127 0" result="hardAlpha"/>
<feOffset dx="3" dy="3"/>
<feGaussianBlur stdDeviation="6.3"/>
<feComposite in2="hardAlpha" operator="out"/>
<feColorMatrix type="matrix" values="0 0 0 0 0 0 0 0 0 0 0 0 0 0 0 0 0 0 0.1 0"/>
<feBlend mode="normal" in2="BackgroundImageFix" result="effect1_dropShadow_1979_630"/>
<feBlend mode="normal" in="SourceGraphic" in2="effect1_dropShadow_1979_630" result="shape"/>
</filter>
</defs>
</svg>
