<svg width="331" height="158" viewBox="0 0 331 158" fill="none" xmlns="http://www.w3.org/2000/svg">
<g filter="url(#filter0_d_1979_621)">
<path fill-rule="evenodd" clip-rule="evenodd" d="M32 10.168C19.8497 10.168 10 20.0177 10 32.168V119.992C10 132.142 19.8497 141.992 32 141.992H261C273.15 141.992 283 132.142 283 119.992V118.707H315.307L283 86.4004V32.168C283 20.0177 273.15 10.168 261 10.168H32Z" fill="white"/>
</g>
<path d="M88.9849 60.9326H91.6304L92.7583 62.3887C93.4658 61.5581 93.8657 60.3071 93.8657 58.6562C93.8657 55.4775 92.3687 53.7549 90.0718 53.7549C87.7749 53.7549 86.2573 55.4775 86.2573 58.6562C86.2573 61.835 87.7749 63.5576 90.0718 63.5576C90.3691 63.5576 90.6562 63.5269 90.9331 63.4756L88.9849 60.9326ZM97.0034 58.6562C97.0034 61.3018 96.1011 63.3423 94.645 64.624L96.7573 67.3105H93.8657L92.6763 65.8135C91.8765 66.1313 90.9946 66.2852 90.0718 66.2852C86.1138 66.2852 83.1196 63.4756 83.1196 58.6562C83.1196 53.8164 86.1138 51.0273 90.0718 51.0273C93.9888 51.0273 97.0034 53.8164 97.0034 58.6562ZM99.2388 66.0801V51.2324H105.063C108.447 51.2324 110.375 53.1396 110.375 56.0723C110.375 58.1025 109.441 59.5791 107.75 60.2969L110.908 66.0801H107.503L104.673 60.8096H102.315V66.0801H99.2388ZM102.315 58.3076H104.489C106.314 58.3076 107.196 57.5488 107.196 56.0723C107.196 54.5752 106.314 53.7549 104.489 53.7549H102.315V58.3076ZM132.277 49.3047V59.333H129.652V49.3047H132.277ZM122.372 60.1533V61.8965H129.672V60.1533H132.277V67.7617H119.788V60.1533H122.372ZM122.372 65.6494H129.672V63.9268H122.372V65.6494ZM122.043 50.084C124.956 50.0635 127.15 51.8887 127.15 54.5137C127.15 57.0566 124.956 58.8818 122.043 58.8818C119.131 58.8818 116.937 57.0566 116.937 54.5137C116.937 51.8887 119.131 50.0635 122.043 50.084ZM122.043 52.2578C120.546 52.2578 119.48 53.0986 119.5 54.5137C119.48 55.9082 120.546 56.7285 122.043 56.7285C123.5 56.7285 124.566 55.9082 124.566 54.5137C124.566 53.0986 123.5 52.2578 122.043 52.2578ZM145.402 50.5557V52.6475H141.69C141.71 54.8213 143.013 56.9233 145.997 57.7949L144.746 59.8457C142.685 59.2202 141.259 57.9692 140.439 56.3594C139.608 58.2461 138.091 59.7432 135.845 60.4814L134.512 58.4102C137.609 57.436 139.003 55.0161 139.044 52.6475H135.23V50.5557H145.402ZM149.606 49.3047V53.6318H152.128V55.7646H149.606V60.3789H146.981V49.3047H149.606ZM143.495 60.748C147.371 60.7275 149.791 62.0605 149.791 64.3369C149.791 66.6133 147.371 67.9668 143.495 67.9668C139.537 67.9668 137.096 66.6133 137.096 64.3369C137.096 62.0605 139.537 60.7275 143.495 60.748ZM143.495 62.7783C141.034 62.7783 139.701 63.291 139.721 64.3369C139.701 65.4033 141.034 65.9365 143.495 65.9365C145.915 65.9365 147.207 65.4033 147.207 64.3369C147.207 63.291 145.915 62.7783 143.495 62.7783ZM168.904 49.3252V63.373H166.258V61.3018H162.608V59.251H166.258V49.3252H168.904ZM169.334 65.5469V67.6387H155.41V61.9375H157.809V58.3486C156.138 58.4204 154.548 58.4409 153.154 58.4512L152.826 56.3799C155.041 56.3696 157.768 56.3389 160.516 56.1748C160.742 54.5649 160.834 53.2832 160.865 52.2988H154.528V50.2275H163.49V50.9248C163.49 51.8887 163.49 53.6011 163.121 55.9697C163.726 55.9082 164.331 55.8467 164.925 55.7646L165.089 57.6104C163.551 57.8872 161.962 58.0718 160.393 58.1846V62.2041H158.035V65.5469H169.334Z" fill="#00A695"/>
<path d="M179.568 50.8223C183.341 50.8428 186.13 52.791 186.13 55.7441C186.13 58.6973 183.341 60.6455 179.568 60.625C175.815 60.6455 173.026 58.6973 173.026 55.7441C173.026 52.791 175.815 50.8428 179.568 50.8223ZM179.568 51.8887C176.533 51.8887 174.236 53.4883 174.236 55.7441C174.236 58 176.533 59.5586 179.568 59.5586C182.603 59.5586 184.9 58 184.9 55.7441C184.9 53.4883 182.603 51.8887 179.568 51.8887ZM187.915 64.0908V65.1982H171.344V64.0908H187.915ZM206.064 64.2549V65.3623H189.494V64.2549H197.082V60.6045H191.626V55.1904H202.639V52.0732H191.565V50.9863H203.911V56.2773H192.898V59.5176H204.341V60.6045H198.374V64.2549H206.064ZM68.0669 100.162V101.249H55.5776V96.0811H56.8901V100.162H68.0669ZM69.9536 93.3945V94.502H53.4038V93.3945H61.0122V90.1543H62.2837V93.3945H69.9536ZM62.2837 84.9658C62.2837 87.6113 65.8521 89.8262 68.7231 90.3184L68.2104 91.3438C65.6265 90.8311 62.7451 89.2212 61.6479 86.9346C60.561 89.2417 57.7002 90.8208 55.0854 91.3438L54.5522 90.3184C57.4438 89.8057 60.9917 87.6318 60.9917 84.9658V84.043H62.2837V84.9658ZM75.7778 94.8916V97.0039H84.9858V94.8916H86.2573V101.413H74.4653V94.8916H75.7778ZM75.7778 100.326H84.9858V98.0498H75.7778V100.326ZM86.2573 83.5918V93.9688H84.9653V83.5918H86.2573ZM71.5737 91.6104C75.019 91.6104 79.6128 91.6104 83.6528 91.0771L83.7349 92.041C82.0225 92.3179 80.2383 92.4922 78.5054 92.5742V95.4863H77.2134V92.6357C75.2446 92.7178 73.3784 92.7178 71.7788 92.7178L71.5737 91.6104ZM78.3208 84.9863C78.3208 86.9551 80.3511 88.5137 82.894 89.0879L82.3198 90.0723C80.187 89.5698 78.4438 88.4111 77.6851 86.8115C76.9365 88.5034 75.1831 89.7749 73.0503 90.3594L72.4351 89.334C74.9985 88.6982 77.0083 87.0371 77.0083 84.9863V84.002H78.3208V84.9863ZM105.125 83.5918V101.68H103.874V83.5918H105.125ZM101.351 84.1045V100.716H100.1V92.2256H95.978C94.8501 94.3379 93.0864 96.2246 90.564 97.7217L89.7847 96.7783C93.8247 94.3789 95.9165 90.8823 96.2036 87.0371H90.5024V85.9297H97.4751C97.4751 87.7344 97.1572 89.5083 96.4702 91.1592H100.1V84.1045H101.351ZM129.447 94.6045V95.6914H121.797V101.68H120.526V95.6914H112.897V94.6045H129.447ZM127.54 91.4873V92.5742H115.173V84.4736H127.334V85.5605H116.445V87.9189H126.904V88.9854H116.445V91.4873H127.54ZM135.886 85.0273C138.357 85.0273 140.121 87.1909 140.336 90.626H144.705V83.5918H145.976V101.7H144.705V91.6924H140.357C140.203 95.271 138.419 97.5371 135.886 97.5371C133.241 97.5371 131.395 95.0967 131.416 91.2822C131.395 87.4678 133.241 85.0273 135.886 85.0273ZM135.886 86.1758C133.958 86.1758 132.646 88.2676 132.646 91.2822C132.646 94.3174 133.958 96.3887 135.886 96.3887C137.793 96.3887 139.126 94.3174 139.126 91.2822C139.126 88.2676 137.793 86.1758 135.886 86.1758ZM163.326 85.8066C163.326 88.2266 166.73 90.0518 169.704 90.4824L169.17 91.5283C166.422 91.0771 163.49 89.6211 162.526 87.4062C161.542 89.6211 158.629 91.0771 155.881 91.5283L155.369 90.4824C158.322 90.0518 161.726 88.2266 161.726 85.8066V85.6221H155.799V84.5352H169.293V85.6221H163.326V85.8066ZM170.811 93.0049V94.0918H163.264V97.9678H161.993V94.0918H154.261V93.0049H170.811ZM168.965 100.162V101.249H156.435V96.1221H157.727V100.162H168.965ZM187.279 83.5918V101.7H185.987V83.5918H187.279ZM174.81 85.1504V90.0518H180.675V85.1504H181.967V97.2705H173.518V85.1504H174.81ZM174.81 96.1836H180.675V91.1182H174.81V96.1836ZM201.183 84.4736C203.829 84.4736 205.654 85.8682 205.654 88.001C205.654 89.9185 204.146 91.2617 201.88 91.4873V93.3945C203.665 93.3125 205.479 93.1587 207.151 92.9023L207.253 93.8867C203.377 94.584 198.989 94.6455 195.81 94.6455L195.646 93.5381C197.092 93.5483 198.804 93.5381 200.588 93.4561V91.5078C198.271 91.3027 196.712 89.9492 196.712 88.001C196.712 85.8682 198.538 84.4736 201.183 84.4736ZM201.183 85.4785C199.276 85.4785 197.922 86.5244 197.943 88.001C197.922 89.4775 199.276 90.5029 201.183 90.5234C203.111 90.5029 204.423 89.4775 204.444 88.001C204.423 86.5244 203.111 85.4785 201.183 85.4785ZM209.653 83.5918V89.8672H212.483V90.9746H209.653V97.4551H208.361V83.5918H209.653ZM210.33 100.121V101.229H198.374V96.2451H199.666V100.121H210.33ZM230.366 98.2549V99.3623H213.795V98.2549H218.594V94.6045H215.928V89.1904H226.941V86.0732H215.867V84.9863H228.212V90.2773H217.2V93.5176H228.643V94.6045H225.71V98.2549H230.366ZM219.866 98.2549H224.439V94.6045H219.866V98.2549ZM234.549 85.2324L234.447 95.835H233.073L232.97 85.2324H234.549ZM233.77 100.183C233.155 100.183 232.663 99.6904 232.663 99.0957C232.663 98.4805 233.155 97.9883 233.77 97.9883C234.365 97.9883 234.857 98.4805 234.857 99.0957C234.857 99.6904 234.365 100.183 233.77 100.183Z" fill="#121212"/>
<defs>
<filter id="filter0_d_1979_621" x="0.4" y="0.567968" width="330.507" height="157.024" filterUnits="userSpaceOnUse" color-interpolation-filters="sRGB">
<feFlood flood-opacity="0" result="BackgroundImageFix"/>
<feColorMatrix in="SourceAlpha" type="matrix" values="0 0 0 0 0 0 0 0 0 0 0 0 0 0 0 0 0 0 127 0" result="hardAlpha"/>
<feOffset dx="3" dy="3"/>
<feGaussianBlur stdDeviation="6.3"/>
<feComposite in2="hardAlpha" operator="out"/>
<feColorMatrix type="matrix" values="0 0 0 0 0 0 0 0 0 0 0 0 0 0 0 0 0 0 0.1 0"/>
<feBlend mode="normal" in2="BackgroundImageFix" result="effect1_dropShadow_1979_621"/>
<feBlend mode="normal" in="SourceGraphic" in2="effect1_dropShadow_1979_621" result="shape"/>
</filter>
</defs>
</svg>
