<svg width="328" height="158" viewBox="0 0 328 158" fill="none" xmlns="http://www.w3.org/2000/svg">
<g filter="url(#filter0_d_1979_631)">
<path fill-rule="evenodd" clip-rule="evenodd" d="M290.232 10.4648C302.383 10.4648 312.232 20.3146 312.232 32.4648V120.289C312.232 132.439 302.383 142.289 290.232 142.289H61.2324C49.0822 142.289 39.2324 132.439 39.2324 120.289V73.1914L10.5059 44.4648H39.2324V32.4648C39.2324 20.3146 49.0822 10.4648 61.2324 10.4648H290.232Z" fill="white"/>
</g>
<path d="M105.244 60.8604V61.9473H97.6357V67.9971H96.3643V61.9473H88.7559V60.8604H105.244ZM97.6357 53.416C97.6357 55.877 101.163 57.8252 104.116 58.2559L103.645 59.3223C100.979 58.8711 98.1279 57.4253 97.0205 55.3232C95.8823 57.4561 93.0112 58.8711 90.335 59.3223L89.8633 58.2559C92.8164 57.8252 96.3438 55.877 96.3643 53.416V53.252H90.3965V52.165H96.3643V49.8477H97.6357V52.165H103.624V53.252H97.6357V53.416ZM112.914 54.2363C112.914 56.7588 115.006 58.8711 117.631 59.7119L116.975 60.7578C114.862 60.0503 113.109 58.5532 112.319 56.5947C111.54 58.6865 109.797 60.2861 107.664 61.0654L107.008 60.0605C109.612 59.1582 111.643 56.9023 111.643 54.2363V53.498H107.418V52.4111H111.643V49.9912H112.955V52.4111H117.139V53.498H112.914V54.2363ZM121.814 49.8887V63.4443H120.522V56.6562H116.503V55.5693H120.522V49.8887H121.814ZM122.348 66.459V67.5459H110.33V62.1934H111.622V66.459H122.348ZM138.979 52.6367C138.979 55.877 142.917 58.625 145.768 59.1582L145.132 60.2656C142.579 59.6299 139.472 57.6509 138.323 54.8721C137.175 57.6509 134.068 59.6299 131.515 60.2656L130.899 59.1582C133.75 58.6045 137.626 55.8975 137.646 52.6367V51.2012H138.979V52.6367ZM146.69 64.3467V65.4336H130.12V64.3467H146.69ZM158.667 51.5293V52.6162H156.698V58.2148C157.693 58.1431 158.667 58.0405 159.59 57.9072L159.692 58.9121C155.939 59.5273 151.633 59.6094 148.536 59.6094L148.372 58.4814L150.854 58.4609V52.6162H148.905V51.5293H158.667ZM162.358 49.8887V55.0361H165.147V56.123H162.358V62.0293H161.066V49.8887H162.358ZM157.58 61.6396C157.58 64.4287 160.841 66.3154 163.835 66.8486L163.302 67.8945C160.697 67.3716 158.011 65.9565 156.965 63.7314C155.888 65.9565 153.191 67.3716 150.607 67.8945L150.074 66.8486C153.048 66.3154 156.309 64.4287 156.309 61.6396V61.168H157.58V61.6396ZM152.104 58.4404C153.181 58.4199 154.309 58.3789 155.427 58.3174V52.6162H152.104V58.4404ZM174.643 50.2168C178.621 50.2168 180.979 51.3242 180.979 53.3545C180.979 55.4053 178.621 56.5332 174.643 56.5332C170.664 56.5332 168.306 55.4053 168.306 53.3545C168.306 51.3242 170.664 50.2168 174.643 50.2168ZM174.643 51.2217C171.546 51.2217 169.639 52.042 169.639 53.3545C169.639 54.7285 171.546 55.5283 174.643 55.5283C177.76 55.5283 179.667 54.7285 179.667 53.3545C179.667 52.042 177.76 51.2217 174.643 51.2217ZM182.907 57.8867V58.9531H166.419V57.8867H182.907ZM180.733 60.6758V64.5518H169.762V66.6846H181.308V67.751H168.511V63.5469H179.482V61.7012H168.449V60.6758H180.733ZM203.723 49.8887V53.9492H206.512V55.0361H203.723V59.1582H202.431V49.8887H203.723ZM203.723 60.0605V64.2852H193.633V66.6436H204.42V67.71H192.361V63.2803H202.431V61.127H192.32V60.0605H203.723ZM194.699 50.5859C197.406 50.5859 199.334 52.2061 199.354 54.5645C199.334 56.9434 197.406 58.5635 194.699 58.5635C192.013 58.5635 190.044 56.9434 190.044 54.5645C190.044 52.2061 192.013 50.5859 194.699 50.5859ZM194.699 51.6729C192.751 51.6729 191.315 52.9033 191.315 54.5645C191.315 56.2461 192.751 57.4971 194.699 57.4971C196.647 57.4971 198.083 56.2461 198.083 54.5645C198.083 52.9033 196.647 51.6729 194.699 51.6729ZM222.672 49.8887V67.9971H221.4V60.1631H217.422V59.0557H221.4V55.2207H217.565V54.1133H221.4V49.8887H222.672ZM209.813 62.6035C212.685 62.6035 215.002 62.4805 217.873 62.0293L217.996 63.1367C215.043 63.6084 212.726 63.7109 209.813 63.7109H208.48V56.7383H215.063V52.6777H208.439V51.5703H216.335V57.8252H209.772V62.6035H209.813ZM239.939 52.4316C239.939 55.0361 243.549 57.1074 246.44 57.5586L245.948 58.584C243.272 58.0918 240.319 56.5537 239.242 54.2773C238.145 56.5537 235.182 58.0918 232.557 58.584L232.044 57.5586C234.915 57.1074 238.524 55.0361 238.524 52.4316V52.1445H232.577V51.0781H245.866V52.1445H239.939V52.4316ZM247.486 60.2861V61.3936H239.837V67.9561H238.586V61.3936H230.998V60.2861H247.486ZM263.749 55.5283V56.6152H251.444V50.5449H252.716V55.5283H263.749ZM265.677 59.2402V60.3066H249.127V59.2402H265.677ZM263.852 66.418V67.5254H251.362V62.2754H252.634V66.418H263.852ZM198.729 83.8887V91.4766H201.6V92.5635H198.729V101.977H197.458V83.8887H198.729ZM189.993 85.8779C189.972 89.9795 188.865 94.3477 185.563 97.793L184.497 97.0547C187.337 94.2144 188.578 90.564 188.783 86.9854H185.009V85.8779H189.993ZM194.956 85.8779C194.935 89.8975 194.238 95.0654 190.813 99.0029L189.726 98.2852C192.7 95.0142 193.602 90.6562 193.725 86.9854H190.546V85.8779H194.956ZM208.921 89.6514C208.921 92.748 211.403 95.8857 213.946 96.9932L213.208 98.0186C211.126 97.0444 209.137 94.8809 208.286 92.2969C207.445 95.0142 205.466 97.4136 203.446 98.4697L202.667 97.4443C205.127 96.2344 207.609 92.7891 207.629 89.6514V86.8828H203.22V85.7754H213.392V86.8828H208.921V89.6514ZM217.473 83.8887V101.977H216.181V83.8887H217.473ZM223.379 85.5293L223.277 96.1318H221.903L221.8 85.5293H223.379ZM222.6 100.479C221.985 100.479 221.493 99.9873 221.493 99.3926C221.493 98.7773 221.985 98.2852 222.6 98.2852C223.195 98.2852 223.687 98.7773 223.687 99.3926C223.687 99.9873 223.195 100.479 222.6 100.479Z" fill="#121212"/>
<path d="M145.962 83.6016V102.264H143.46V92.8506H141.779V101.402H139.297V83.8682H141.779V90.7178H143.46V83.6016H145.962ZM137.739 85.5293V97.5674H130.315V85.5293H137.739ZM132.755 87.6006V95.5166H135.298V87.6006H132.755ZM163.661 83.6016V102.264H161.056V92.9121H157.344V90.7793H161.056V83.6016H163.661ZM157.447 85.5498C157.447 91.1895 155.622 95.7832 149.1 99.0234L147.747 96.9727C152.463 94.645 154.412 91.6816 154.822 87.6006H148.628V85.5498H157.447ZM173.361 87.293C173.361 89.5283 174.735 91.8047 177.811 92.7275L176.478 94.7783C174.386 94.1221 172.91 92.7788 172.069 91.0869C171.218 92.9224 169.7 94.3989 167.516 95.127L166.163 93.0762C169.259 92.0713 170.695 89.6514 170.695 87.293V87.0264H166.86V84.9346H177.114V87.0264H173.361V87.293ZM181.708 83.6221V97.1162H179.083V83.6221H181.708ZM182.2 99.8438V101.936H169.198V95.8857H171.843V99.8438H182.2Z" fill="#00A695"/>
<defs>
<filter id="filter0_d_1979_631" x="0.905859" y="0.864843" width="326.927" height="157.024" filterUnits="userSpaceOnUse" color-interpolation-filters="sRGB">
<feFlood flood-opacity="0" result="BackgroundImageFix"/>
<feColorMatrix in="SourceAlpha" type="matrix" values="0 0 0 0 0 0 0 0 0 0 0 0 0 0 0 0 0 0 127 0" result="hardAlpha"/>
<feOffset dx="3" dy="3"/>
<feGaussianBlur stdDeviation="6.3"/>
<feComposite in2="hardAlpha" operator="out"/>
<feColorMatrix type="matrix" values="0 0 0 0 0 0 0 0 0 0 0 0 0 0 0 0 0 0 0.1 0"/>
<feBlend mode="normal" in2="BackgroundImageFix" result="effect1_dropShadow_1979_631"/>
<feBlend mode="normal" in="SourceGraphic" in2="effect1_dropShadow_1979_631" result="shape"/>
</filter>
</defs>
</svg>
