<svg width="329" height="213" viewBox="0 0 329 213" fill="none" xmlns="http://www.w3.org/2000/svg">
<path fill-rule="evenodd" clip-rule="evenodd" d="M59.2671 19.8684C67.8979 -6.02345 104.573 -5.87554 112.995 20.0854L169.46 194.154C171.843 201.501 167.819 209.388 160.473 211.771C153.126 214.154 145.239 210.131 142.856 202.784L121.487 136.908H49.7346L27.7394 202.892C25.297 210.219 17.3774 214.178 10.0504 211.736C2.72343 209.294 -1.23631 201.374 1.20607 194.047L59.2671 19.8684ZM59.0577 108.939H112.414L86.3908 28.7153C86.3629 28.6295 86.3377 28.5692 86.3188 28.5297C86.2656 28.5144 86.1886 28.5009 86.0965 28.5005C86.0043 28.5001 85.9272 28.513 85.8738 28.5279C85.8547 28.5673 85.8289 28.6273 85.8004 28.713L59.0577 108.939Z" fill="#00A695"/>
<path fill-rule="evenodd" clip-rule="evenodd" d="M201.825 124.61L201.825 198.469C201.825 206.193 195.564 212.454 187.841 212.454C180.118 212.454 173.857 206.193 173.857 198.469L173.857 14.541C173.857 6.81767 180.118 0.556672 187.841 0.556673L266.603 0.556682C300.86 0.556682 328.63 28.327 328.63 62.5835C328.63 81.853 319.843 99.0702 306.058 110.447C307.209 111.278 308.323 112.152 309.4 113.07C323.911 125.442 328.63 143.141 328.63 162.225V198.459C328.63 206.182 322.369 212.443 314.646 212.443C306.923 212.443 300.662 206.182 300.662 198.459V162.225C300.662 147.407 297.063 139.306 291.254 134.354C284.88 128.919 272.821 124.61 250.004 124.61H201.825ZM201.825 28.5253L201.825 96.6416H266.603C285.413 96.6416 300.661 81.3933 300.661 62.5835C300.661 43.7737 285.413 28.5253 266.603 28.5253H201.825Z" fill="#00A695"/>
</svg>
