<svg width="274" height="289" viewBox="0 0 274 289" fill="none" xmlns="http://www.w3.org/2000/svg">
<path fill-rule="evenodd" clip-rule="evenodd" d="M152.001 3.991C142.552 -0.323501 131.695 -0.323494 122.246 3.991L7.3194 56.4673C3.06713 58.4089 0.339111 62.6535 0.339111 67.3281V199.118C0.339111 212.627 7.94016 224.987 19.9964 231.083L131.736 287.576C135.123 289.289 139.123 289.289 142.51 287.576L254.25 231.083C266.306 224.987 273.907 212.627 273.907 199.118V67.3281C273.907 62.6535 271.179 58.4089 266.927 56.4673L152.001 3.991ZM132.164 25.7126C135.314 24.2744 138.933 24.2744 142.082 25.7126L235.498 68.367L202.159 86.8757L152.001 63.9732C142.552 59.6587 131.695 59.6587 122.246 63.9732L72.0879 86.8757L38.7482 68.367L132.164 25.7126ZM176.213 101.279L137.123 122.98L98.0331 101.279L132.164 85.6948C135.314 84.2566 138.933 84.2566 142.082 85.6948L176.213 101.279ZM56.517 105.543L24.2179 87.6122V199.118C24.2179 203.621 26.7516 207.741 30.7703 209.773L125.184 257.506V224.281L76.1743 199.503C64.118 193.408 56.517 181.047 56.517 167.538V105.543ZM125.184 197.524V146.807L80.3958 121.943V167.538C80.3958 172.041 82.9295 176.161 86.9482 178.193L125.184 197.524ZM149.063 224.281V257.506L243.476 209.773C247.495 207.741 250.028 203.621 250.028 199.118V87.6122L217.73 105.543V167.538C217.73 181.047 210.128 193.408 198.072 199.503L149.063 224.281ZM149.063 146.807L193.851 121.943V167.538C193.851 172.041 191.317 176.161 187.298 178.193L149.063 197.524V146.807Z" fill="#00A695"/>
</svg>
