<svg width="267" height="226" viewBox="0 0 267 226" fill="none" xmlns="http://www.w3.org/2000/svg">
<path d="M64.1544 77.6521C64.1544 71.0597 69.4987 65.7154 76.0911 65.7154H190.523C197.115 65.7154 202.46 71.0597 202.46 77.6521C202.46 84.2446 197.115 89.5888 190.523 89.5888H76.0911C69.4987 89.5888 64.1544 84.2446 64.1544 77.6521Z" fill="#00A695"/>
<path d="M76.0911 108.31C69.4987 108.31 64.1544 113.654 64.1544 120.247C64.1544 126.839 69.4987 132.183 76.0911 132.183H123.216C129.808 132.183 135.152 126.839 135.152 120.247C135.152 113.654 129.808 108.31 123.216 108.31H76.0911Z" fill="#00A695"/>
<path fill-rule="evenodd" clip-rule="evenodd" d="M34.9935 0.596924C16.205 0.596924 0.973877 15.828 0.973877 34.6165V191.075C0.973877 217.749 30.2751 234.047 52.9372 219.978L82.6884 201.507C83.5092 200.997 84.3891 200.59 85.3086 200.293C86.4886 199.912 87.7208 199.718 88.9608 199.718H232.872C251.66 199.718 266.891 184.487 266.891 165.699V34.6165C266.891 15.828 251.66 0.596924 232.872 0.596924H34.9935ZM232.872 24.4703H34.9935C29.3898 24.4703 24.8473 29.0129 24.8473 34.6165V191.075C24.8473 199.031 33.5862 203.891 40.3451 199.695L70.0963 181.225C72.565 179.692 75.2113 178.466 77.9767 177.573C81.5255 176.428 85.2317 175.845 88.9608 175.845H232.872C238.475 175.845 243.018 171.302 243.018 165.699V34.6165C243.018 29.0129 238.475 24.4703 232.872 24.4703Z" fill="#00A695"/>
</svg>
