<svg width="366" height="225" viewBox="0 0 366 225" fill="none" xmlns="http://www.w3.org/2000/svg">
<path d="M117.031 66.2092C123.606 66.2092 128.937 71.5397 128.937 78.1151V94.3581C128.937 100.934 123.606 106.264 117.031 106.264C110.456 106.264 105.125 100.934 105.125 94.3581V78.1151C105.125 71.5397 110.456 66.2092 117.031 66.2092Z" fill="#00A695"/>
<path d="M128.937 130.47C128.937 123.894 123.606 118.564 117.031 118.564C110.456 118.564 105.125 123.894 105.125 130.47V146.713C105.125 153.288 110.456 158.619 117.031 158.619C123.606 158.619 128.937 153.288 128.937 146.713V130.47Z" fill="#00A695"/>
<path fill-rule="evenodd" clip-rule="evenodd" d="M0.234619 44.8765C0.234619 20.2186 20.2238 0.22937 44.8818 0.22937H320.838C345.496 0.22937 365.486 20.2186 365.486 44.8765V179.757C365.486 204.415 345.496 224.404 320.838 224.404H44.8818C20.2238 224.404 0.234619 204.415 0.234619 179.757V144.112C0.234619 137.536 5.56508 132.206 12.1405 132.206C12.2291 132.206 12.3174 132.207 12.4054 132.209H21.5966C33.8846 132.209 43.846 122.247 43.846 109.959C43.846 97.6712 33.8846 87.7098 21.5966 87.7098H12.1405V87.6314C5.56508 87.6314 0.234619 82.301 0.234619 75.7255V44.8765ZM24.0464 179.757V155.956C48.3464 154.683 67.6579 134.576 67.6579 109.959C67.6579 85.3421 48.3464 65.2355 24.0464 63.9621V44.8765C24.0464 33.3695 33.3747 24.0412 44.8818 24.0412H105.248C105.167 24.6026 105.125 25.1766 105.125 25.7605V42.0035C105.125 48.5789 110.456 53.9094 117.031 53.9094C123.606 53.9094 128.937 48.5789 128.937 42.0035V25.7605C128.937 25.1766 128.895 24.6026 128.814 24.0412H320.838C332.345 24.0412 341.674 33.3695 341.674 44.8765V179.757C341.674 191.264 332.346 200.592 320.838 200.592H128.84C128.904 200.093 128.937 199.584 128.937 199.067V182.824C128.937 176.249 123.606 170.918 117.031 170.918C110.456 170.918 105.125 176.249 105.125 182.824V199.067C105.125 199.584 105.158 200.093 105.222 200.592H44.8818C33.3747 200.592 24.0464 191.264 24.0464 179.757Z" fill="#00A695"/>
</svg>
