<svg width="294" height="279" viewBox="0 0 294 279" fill="none" xmlns="http://www.w3.org/2000/svg">
<path d="M126.395 88.8217C119.565 88.8217 114.027 94.359 114.027 101.19C114.027 108.02 119.565 113.558 126.395 113.558H167.495C174.326 113.558 179.863 108.02 179.863 101.19C179.863 94.359 174.326 88.8217 167.495 88.8217H126.395Z" fill="#00A695"/>
<path fill-rule="evenodd" clip-rule="evenodd" d="M70.8256 28.0477C70.8256 13.0204 83.0077 0.838257 98.035 0.838257H197.689C212.717 0.838257 224.899 13.0203 224.899 28.0477V31.9145H229.242C254.957 31.9145 272.875 57.4384 264.139 81.6241L256.814 101.902C279.02 116.361 293.702 141.407 293.702 169.882V183.8C293.702 236.255 251.179 278.778 198.724 278.778H95.1657C42.7108 278.778 0.187744 236.255 0.187744 183.8V169.83C0.187744 141.366 14.8678 116.331 37.0696 101.883L29.7513 81.6241C21.0146 57.4384 38.9327 31.9145 64.648 31.9145H70.8256V28.0477ZM98.035 25.5741H197.689C199.056 25.5741 200.163 26.6816 200.163 28.0477V249.767C200.163 251.133 199.056 252.241 197.689 252.241H98.035C96.6689 252.241 95.5614 251.133 95.5614 249.767V28.0477C95.5614 26.6816 96.6689 25.5741 98.035 25.5741ZM240.874 73.2202L234.192 91.7175C231.162 90.8839 228.06 90.2218 224.899 89.7423V56.6503H229.242C237.814 56.6503 243.786 65.1583 240.874 73.2202ZM224.899 249.003V114.895C250.112 120.49 268.967 142.984 268.967 169.882V183.8C268.967 213.342 250.729 238.624 224.899 249.003ZM70.8256 114.511V249.71C44.0286 239.811 24.9236 214.036 24.9236 183.8V169.83C24.9236 142.294 44.701 119.378 70.8256 114.511ZM70.8256 56.6503V89.4793C67.0264 89.9648 63.3094 90.7134 59.6936 91.7064L53.0158 73.2202C50.1036 65.1583 56.0763 56.6503 64.648 56.6503H70.8256Z" fill="#00A695"/>
</svg>
