<svg width="43" height="34" viewBox="0 0 43 34" fill="none" xmlns="http://www.w3.org/2000/svg">
<path fill-rule="evenodd" clip-rule="evenodd" d="M12.8152 0.550787C12.9602 0.304652 13.2364 0.183731 13.5025 0.224623C13.5451 0.219514 13.5883 0.216905 13.6318 0.216905H19.0535C19.5606 0.216905 20 0.568249 20.1115 1.0629L21.5068 7.25007L23.3826 1.00361C23.5203 0.544978 23.9425 0.230939 24.4214 0.230939H29.4978C29.5862 0.230939 29.6722 0.241521 29.7544 0.261489C30.0176 0.224902 30.289 0.345856 30.4322 0.58905L34.3192 7.1892C34.3788 7.24427 34.4294 7.31105 34.4673 7.38823C34.4892 7.43301 34.5058 7.47903 34.5173 7.52557L35.5503 9.27969C35.8076 9.27846 36.0543 9.42454 36.1693 9.67335L42.6458 23.6878C42.7616 23.9384 42.7115 24.2232 42.5409 24.4185C41.337 27.4058 38.7602 29.2058 36.0755 30.2487C34.344 30.9214 32.5321 31.2944 30.9319 31.47V32.5857C30.9319 33.1847 30.4463 33.6703 29.8473 33.6703H23.7557C23.5987 33.6703 23.4643 33.6703 23.2778 33.6703C23.0914 33.6703 22.9673 33.6703 22.8 33.6703H12.8846C12.2856 33.6703 11.8 33.1847 11.8 32.5857V31.4457C10.3277 31.2499 8.7102 30.8871 7.15722 30.2839C4.46563 29.2384 1.88248 27.434 0.675678 24.4394C0.504902 24.2441 0.454646 23.9591 0.570506 23.7084L7.06353 9.65813C7.17866 9.40899 7.42587 9.26286 7.68352 9.26447L12.8152 0.550787ZM32.8778 7.41336L30.5824 3.5157V8.54021L32.8778 7.41336ZM30.5824 10.0505L33.5678 8.58495L34.334 9.88605L30.5824 11.794V10.0505ZM25.3174 15.9927L35.2595 10.9364L41.2705 23.9436C40.2516 26.4375 38.0647 28.0215 35.5846 28.985C33.1304 29.9383 30.472 30.2483 28.6247 30.2422L25.3174 15.9927ZM29.5761 31.5765C29.1493 31.5965 28.7484 31.602 28.3808 31.5955C27.8754 31.5867 27.4622 31.2304 27.3531 30.7599L25.0548 20.8579H23.9557V32.3145H29.5761V31.5765ZM24.7401 19.5021L24.3977 18.027H18.8631L18.5207 19.5021H24.7401ZM24.0831 16.6713L23.9487 16.0924C23.836 15.6066 24.069 15.1065 24.5136 14.8805L29.227 12.4833C29.2268 12.4754 29.2266 12.4675 29.2266 12.4595V1.5867H24.6231L22.1687 9.76018C22.1531 9.8121 22.1318 9.86078 22.1057 9.90573L23.6315 16.6713H24.0831ZM12.2996 11.6005L8.89954 9.87131L9.75725 8.41491L12.2997 9.59742L12.2996 11.6005ZM12.2997 4.09787L10.4485 7.24118L12.2997 8.10219L12.2997 4.09787ZM13.6554 1.93213C13.6554 1.89162 13.6519 1.85193 13.6451 1.81338L13.7868 1.57266H18.8367L22.2417 16.6713H19.1777L19.3123 16.0916C19.425 15.6058 19.192 15.1057 18.7474 14.8797L13.6266 12.2753C13.6453 12.2132 13.6554 12.1473 13.6554 12.0791L13.6554 1.93213ZM1.94592 23.964L7.97332 10.9213L17.9436 15.9919L14.6272 30.2805C12.7751 30.2868 10.1092 29.9761 7.6481 29.0201C5.16095 28.0541 2.96759 26.4654 1.94592 23.964ZM18.206 20.8579L15.8989 30.7981C15.7897 31.2686 15.3766 31.6249 14.8712 31.6338C14.3576 31.6428 13.779 31.6286 13.1557 31.5842V32.3145H22.6V20.8579H18.206Z" fill="#00A695"/>
</svg>
