<svg width="47" height="41" viewBox="0 0 47 41" fill="none" xmlns="http://www.w3.org/2000/svg">
<path fill-rule="evenodd" clip-rule="evenodd" d="M21.8788 0.228688C22.511 -0.0241774 23.2305 0.261194 23.5176 0.878596L26.489 7.27055L29.4508 0.880123C29.7374 0.261875 30.4575 -0.0241934 31.0902 0.228882L33.368 1.14001C33.8929 1.34998 34.2006 1.86646 34.1725 2.39835L36.6192 3.04601C36.7617 3.08374 36.8933 3.1446 37.0103 3.22391C37.0741 3.25933 37.134 3.30412 37.1881 3.35827L44.0184 10.1923C44.1145 10.2884 44.1811 10.4029 44.2181 10.5244C44.2607 10.5798 44.2963 10.6415 44.3235 10.7082C44.3436 10.7572 44.3586 10.8074 44.3685 10.858L46.754 21.7255C46.7685 21.7865 46.7759 21.8496 46.7756 21.9135C46.7755 21.9307 46.7749 21.9479 46.7737 21.9652C46.7686 22.0381 46.7537 22.1091 46.7298 22.1764C45.2189 26.6968 42.3386 28.8817 39.2893 29.6977C36.2929 30.4996 33.2084 29.9634 31.2071 29.2141C30.8099 29.0653 30.5325 28.7355 30.4299 28.3535L29.6209 25.3443V39.5899C29.6209 40.298 29.0469 40.872 28.3389 40.872H25.6881C24.98 40.872 24.406 40.298 24.406 39.5899V20.5567C24.2912 20.503 24.1857 20.4328 24.0925 20.3491C24.062 20.3527 24.031 20.3545 23.9995 20.3545H19.4115C19.4172 20.4028 19.4185 20.4524 19.4151 20.5027C18.5951 32.7356 11.3912 36.4441 7.85941 36.4626C7.52058 36.4644 7.22475 36.327 7.00947 36.1294L1.23942 30.8336C0.799492 30.4298 0.696569 29.7758 0.991214 29.2564L15.5212 3.64467C15.587 3.52857 15.6775 3.43521 15.7823 3.36743C15.9366 3.21688 16.13 3.10407 16.3493 3.04601L18.7942 2.39882C18.7662 1.86686 19.0741 1.3506 19.5987 1.14073L21.8788 0.228688ZM35.1853 17.2314L43.0434 12.2961L45.1434 21.8629C43.7891 25.7366 41.3633 27.4837 38.8751 28.1496C38.8596 28.1537 38.8442 28.1578 38.8288 28.1619L35.1853 17.2314ZM33.7884 18.1087L29.9786 20.5014L31.9333 27.7732C33.3312 28.2704 35.2577 28.6316 37.233 28.4423L33.7884 18.1087ZM29.6209 18.8336L32.4761 17.0405H29.6209V18.8336ZM35.0278 15.4379L35.9826 14.8382C35.9747 14.7931 35.9706 14.7467 35.9706 14.6994V4.53209L33.5985 3.90418L28.5025 15.4482C28.6133 15.4623 28.7196 15.4906 28.8197 15.5311C28.9681 15.471 29.1304 15.4379 29.3004 15.4379H35.0278ZM37.5732 13.8392L42.3802 10.8202L37.5732 6.01052V13.8392ZM16.6774 20.3545H17.82C17.8184 20.368 17.8171 20.3817 17.8162 20.3955C17.4552 25.7801 15.8182 29.2844 13.9159 31.4928L5.30893 24.8934L15.3953 7.11423V19.0724C15.3953 19.7805 15.9693 20.3545 16.6774 20.3545ZM4.51055 26.3007L2.51095 29.8254L7.99256 34.8565C9.13381 34.8058 10.9854 34.2153 12.7801 32.6414L4.51055 26.3007ZM28.0184 19.0742V17.0405H25.2692V19.0743H25.6721C25.6774 19.0742 25.6827 19.0742 25.6881 19.0742H28.0184ZM28.0184 20.6769H26.0086V39.2694H28.0184V20.6769ZM23.6666 18.7519V16.7199C23.6666 16.1904 23.9876 15.7359 24.4456 15.5403L19.3637 3.90585L16.9979 4.53209V18.7519H23.6666ZM26.1367 15.4379H26.7553L32.3491 2.76614C32.3507 2.7594 32.3524 2.75266 32.3542 2.74592C32.3776 2.65736 32.415 2.5762 32.4634 2.50419L30.7771 1.82966L27.2352 9.47157C27.097 9.7697 26.7988 9.94275 26.4901 9.93591C26.1816 9.94273 25.8837 9.77007 25.7453 9.47241L22.1923 1.82934L20.5052 2.50419C20.5535 2.5762 20.5909 2.65736 20.6143 2.74592C20.6181 2.76002 20.6214 2.77413 20.6243 2.78824L26.0923 15.3064C26.1111 15.3496 26.1259 15.3936 26.1367 15.4379Z" fill="#00A695"/>
</svg>
