<svg width="28" height="37" viewBox="0 0 28 37" fill="none" xmlns="http://www.w3.org/2000/svg">
<path fill-rule="evenodd" clip-rule="evenodd" d="M7.62803 7.02141C8.01672 6.44261 8.27541 5.41155 8.27541 4.23599C8.27541 2.42507 8.27541 0.957031 6.90421 0.957031C5.53301 0.957031 5.53301 2.42507 5.53301 4.23599C5.53301 5.41154 5.79171 6.4426 6.18038 7.0214C5.32005 7.46728 4.70262 8.68577 4.70262 10.119C4.70262 10.3012 4.7126 10.4799 4.73178 10.654C4.64154 10.5935 4.54819 10.5353 4.45186 10.4797C2.88355 9.57426 1.11935 9.69387 0.511401 10.7469C-0.0965479 11.7999 0.681973 13.3875 2.25028 14.293C2.39867 14.3786 2.54882 14.4551 2.69958 14.5225C2.4304 14.697 2.16856 14.9077 1.92338 15.1529C0.642868 16.4334 0.301787 18.1685 1.16156 19.0283C1.55698 19.4237 2.13755 19.5651 2.77389 19.4779V21.3809C2.77389 21.6119 2.85684 21.8234 2.99456 21.9875V30.63C2.99456 30.8617 3.18236 31.0495 3.41403 31.0495H5.56908C5.61402 31.0495 5.65731 31.0424 5.6979 31.0293C5.73848 31.0424 5.78177 31.0495 5.82671 31.0495H7.98176C8.02942 31.0495 8.07523 31.0415 8.11792 31.0269C8.16062 31.0415 8.20642 31.0495 8.25408 31.0495H10.4091C10.6408 31.0495 10.8286 30.8617 10.8286 30.63V21.9874C10.9663 21.8234 11.0492 21.6118 11.0492 21.3809V19.4868C11.6574 19.5541 12.2094 19.4088 12.59 19.0283C13.4497 18.1685 13.1086 16.4334 11.8281 15.1529C11.5829 14.9077 11.3211 14.697 11.0519 14.5225C11.2027 14.4551 11.3528 14.3786 11.5012 14.293C13.0695 13.3875 13.848 11.7999 13.2401 10.7469C12.6321 9.69387 10.8679 9.57426 9.29962 10.4797C9.2249 10.5229 9.15197 10.5676 9.08089 10.6137C9.09728 10.4523 9.10578 10.2872 9.10578 10.119C9.10578 8.68578 8.48835 7.4673 7.62803 7.02141ZM7.22674 4.23599C7.22674 5.03718 7.08895 5.71326 6.90632 6.14999L6.90421 6.15501L6.90211 6.14999C6.71948 5.71326 6.58168 5.03718 6.58168 4.23599C6.58168 3.27073 6.59125 2.62609 6.71189 2.20843C6.74611 2.08996 6.77767 2.03584 6.79143 2.01607C6.8091 2.01146 6.84394 2.0057 6.90421 2.0057C6.96448 2.0057 6.99932 2.01146 7.017 2.01607C7.03076 2.03584 7.06231 2.08996 7.09653 2.20843C7.21718 2.62609 7.22674 3.27073 7.22674 4.23599ZM6.77638 2.02166C6.77638 2.02166 6.77829 2.02016 6.78358 2.01838C6.77927 2.02098 6.77638 2.02166 6.77638 2.02166ZM7.03204 2.02166C7.03204 2.02166 7.02915 2.02098 7.02484 2.01838C7.03014 2.02016 7.03204 2.02166 7.03204 2.02166ZM8.88328 22.3247H9.77993V30.0008H8.88328V22.3247ZM10.0006 21.2144V19.1804C9.55463 18.9717 9.11267 18.6645 8.71463 18.2664C8.69712 18.2489 8.67978 18.2313 8.66262 18.2136V21.2144H10.0006ZM8.54202 15.4585V15.8618C8.54683 15.8961 8.55281 15.9317 8.56008 15.9687C8.5705 16.0217 8.58343 16.076 8.5989 16.1314C8.63342 16.1871 8.65525 16.2515 8.66036 16.3206C8.80375 16.709 9.06531 17.1341 9.45615 17.5249C9.96936 18.0381 10.5417 18.3284 11.0124 18.421C11.4909 18.5151 11.7412 18.394 11.8484 18.2867C11.9557 18.1795 12.0768 17.9292 11.9827 17.4506C11.8902 16.98 11.5998 16.4077 11.0866 15.8944C10.5734 15.3812 10.0011 15.0909 9.53041 14.9984C9.05186 14.9043 8.80161 15.0253 8.69432 15.1326C8.63472 15.1922 8.57086 15.296 8.54202 15.4585ZM4.04323 22.3247H4.93988V30.0008H4.04323V22.3247ZM5.14695 21.2144V18.1528C5.11107 18.191 5.07438 18.2289 5.03689 18.2664C4.65871 18.6446 4.24088 18.9408 3.81767 19.1484H3.82256V21.2144H5.14695ZM6.20917 16.9811V21.2144H7.61284V16.9811H6.20917ZM6.45591 22.3644H7.35256V30.0008H6.45591V22.3644ZM8.05711 10.119C8.05711 10.8448 7.85772 11.4548 7.59032 11.853C7.31846 12.258 7.05592 12.3493 6.9042 12.3493C6.75248 12.3493 6.48994 12.258 6.21807 11.853C5.95068 11.4548 5.75129 10.8448 5.75129 10.119C5.75129 9.39323 5.95068 8.78326 6.21807 8.38501C6.48994 7.9801 6.75248 7.88873 6.9042 7.88873C7.05592 7.88873 7.31846 7.9801 7.59032 8.38501C7.85772 8.78326 8.05711 9.39323 8.05711 10.119ZM9.24177 13.8476C9.72036 13.88 10.3483 13.7477 10.9769 13.3848C11.6054 13.0219 12.034 12.5442 12.2452 12.1135C12.4599 11.6756 12.4078 11.4026 12.3319 11.2712C12.256 11.1398 12.0456 10.9581 11.559 10.9251C11.0805 10.8927 10.4525 11.025 9.82395 11.3879C9.19539 11.7508 8.76684 12.2285 8.55565 12.6592C8.34092 13.0971 8.39306 13.3701 8.46892 13.5015C8.54478 13.6329 8.75517 13.8146 9.24177 13.8476ZM4.5097 13.8476C4.03111 13.88 3.40317 13.7477 2.77461 13.3848C2.14605 13.0219 1.7175 12.5442 1.5063 12.1135C1.29157 11.6756 1.34371 11.4026 1.41957 11.2712C1.49543 11.1398 1.70583 10.9581 2.19243 10.9251C2.67102 10.8927 3.29896 11.025 3.92752 11.3879C4.55608 11.7508 4.98463 12.2285 5.19583 12.6592C5.41056 13.0971 5.35842 13.3701 5.28256 13.5015C5.2067 13.6329 4.9963 13.8146 4.5097 13.8476ZM4.29537 17.5249C4.80858 17.0117 5.0989 16.4394 5.19143 15.9687C5.28551 15.4902 5.16447 15.2399 5.05719 15.1326C4.94991 15.0253 4.69966 14.9043 4.2211 14.9984C3.75042 15.0909 3.17812 15.3812 2.6649 15.8944C2.15169 16.4077 1.86136 16.98 1.76884 17.4506C1.67476 17.9292 1.7958 18.1795 1.90308 18.2867C2.01036 18.394 2.26061 18.5151 2.73916 18.421C3.20984 18.3284 3.78215 18.0381 4.29537 17.5249ZM6.90422 15.213C7.29559 15.213 7.61286 14.8957 7.61286 14.5044C7.61286 14.113 7.29559 13.7957 6.90422 13.7957C6.51285 13.7957 6.19558 14.113 6.19558 14.5044C6.19558 14.8957 6.51285 15.213 6.90422 15.213Z" fill="#00A695"/>
<path fill-rule="evenodd" clip-rule="evenodd" d="M24.5409 27.8704C24.6786 27.7064 24.7615 27.4949 24.7615 27.264V25.3698C25.3697 25.4371 25.9217 25.2919 26.3022 24.9113C27.162 24.0515 26.8209 22.3165 25.5404 21.036C25.2952 20.7908 25.0334 20.5801 24.7642 20.4056C24.9149 20.3382 25.0651 20.2617 25.2135 20.176C26.7818 19.2706 27.5603 17.6829 26.9523 16.6299C26.3444 15.5769 24.5802 15.4573 23.0119 16.3628C22.9372 16.4059 22.8642 16.4506 22.7932 16.4967C22.8095 16.3354 22.818 16.1702 22.818 16.0021C22.818 14.5688 22.2006 13.3503 21.3403 12.9045C21.729 12.3257 21.9877 11.2946 21.9877 10.119C21.9877 8.30812 21.9877 6.84008 20.6165 6.84008C19.2453 6.84008 19.2453 8.30812 19.2453 10.119C19.2453 11.2946 19.504 12.3257 19.8927 12.9045C19.0323 13.3503 18.4149 14.5688 18.4149 16.0021C18.4149 16.1843 18.4249 16.363 18.444 16.5371C18.3538 16.4766 18.2605 16.4184 18.1641 16.3628C16.5958 15.4573 14.8316 15.5769 14.2237 16.6299C13.6157 17.6829 14.3942 19.2706 15.9625 20.176C16.1109 20.2617 16.2611 20.3382 16.4118 20.4056C16.1427 20.5801 15.8808 20.7908 15.6356 21.036C14.3551 22.3165 14.0141 24.0515 14.8738 24.9113C15.2692 25.3067 15.8498 25.4481 16.4862 25.361V27.264C16.4862 27.4949 16.5691 27.7065 16.7068 27.8705V36.513C16.7068 36.7447 16.8946 36.9325 17.1263 36.9325H19.2813C19.3263 36.9325 19.3696 36.9254 19.4102 36.9124C19.4507 36.9254 19.494 36.9325 19.539 36.9325H21.694C21.7417 36.9325 21.7875 36.9246 21.8302 36.9099C21.8729 36.9246 21.9187 36.9325 21.9663 36.9325H24.1214C24.3531 36.9325 24.5409 36.7447 24.5409 36.513V27.8704ZM21.3026 17.7361C21.57 17.3378 21.7694 16.7279 21.7694 16.0021C21.7694 15.2763 21.57 14.6663 21.3026 14.2681C21.0307 13.8632 20.7682 13.7718 20.6165 13.7718C20.4647 13.7718 20.2022 13.8632 19.9303 14.2681C19.6629 14.6663 19.4636 15.2763 19.4636 16.0021C19.4636 16.7279 19.6629 17.3378 19.9303 17.7361C20.2022 18.141 20.4647 18.2324 20.6165 18.2324C20.7682 18.2324 21.0307 18.141 21.3026 17.7361ZM22.3726 22.2036C22.3675 22.1345 22.3457 22.0701 22.3112 22.0144C22.2957 21.959 22.2828 21.9048 22.2724 21.8518C22.2651 21.8148 22.2591 21.7792 22.2543 21.7449V21.3415C22.2831 21.179 22.347 21.0753 22.4066 21.0157C22.5139 20.9084 22.7641 20.7874 23.2427 20.8814C23.7134 20.974 24.2857 21.2643 24.7989 21.7775C25.3121 22.2907 25.6024 22.863 25.6949 23.3337C25.789 23.8123 25.668 24.0625 25.5607 24.1698C25.4534 24.2771 25.2032 24.3981 24.7246 24.304C24.2539 24.2115 23.6816 23.9212 23.1684 23.408C22.7776 23.0171 22.516 22.592 22.3726 22.2036ZM22.4269 24.1495C22.4094 24.132 22.392 24.1144 22.3749 24.0967V27.0974H23.7128V25.0634C23.2669 24.8548 22.8249 24.5475 22.4269 24.1495ZM22.5955 28.2078H23.4922V35.8838H22.5955V28.2078ZM18.8592 27.0974H17.5348V25.0314H17.53C17.9532 24.8239 18.371 24.5277 18.7492 24.1495C18.7866 24.112 18.8233 24.0741 18.8592 24.0359V27.0974ZM17.7555 28.2078V35.8838H18.6521V28.2078H17.7555ZM19.9214 22.8642V27.0974H21.3251V22.8642H19.9214ZM20.1682 28.2474V35.8838H21.0648V28.2474H20.1682ZM20.939 10.119C20.939 10.9202 20.8012 11.5963 20.6186 12.033L20.6165 12.038L20.6144 12.033C20.4317 11.5963 20.2939 10.9202 20.2939 10.119C20.2939 9.15378 20.3035 8.50914 20.4242 8.09148C20.4584 7.97301 20.4899 7.91889 20.5037 7.89911C20.5214 7.8945 20.5562 7.88874 20.6165 7.88874C20.6768 7.88874 20.7116 7.8945 20.7293 7.89911C20.743 7.91888 20.7746 7.97301 20.8088 8.09148C20.9294 8.50914 20.939 9.15378 20.939 10.119ZM20.4886 7.90471C20.4886 7.90471 20.4906 7.9032 20.4958 7.90142C20.4915 7.90403 20.4886 7.90471 20.4886 7.90471ZM20.7443 7.90471C20.7443 7.90471 20.7414 7.90403 20.7371 7.90142C20.7424 7.9032 20.7443 7.90471 20.7443 7.90471ZM22.954 19.7306C23.4326 19.7631 24.0606 19.6308 24.6891 19.2679C25.3177 18.905 25.7462 18.4273 25.9574 17.9966C26.1722 17.5587 26.12 17.2856 26.0442 17.1543C25.9683 17.0229 25.7579 16.8412 25.2713 16.8082C24.7927 16.7757 24.1648 16.9081 23.5362 17.271C22.9077 17.6339 22.4791 18.1115 22.2679 18.5422C22.0532 18.9801 22.1053 19.2532 22.1812 19.3846C22.257 19.5159 22.4674 19.6976 22.954 19.7306ZM18.222 19.7306C17.7434 19.7631 17.1154 19.6308 16.4869 19.2679C15.8583 18.905 15.4298 18.4273 15.2186 17.9966C15.0038 17.5587 15.056 17.2856 15.1318 17.1543C15.2077 17.0229 15.4181 16.8412 15.9047 16.8082C16.3833 16.7757 17.0112 16.9081 17.6398 17.271C18.2683 17.6339 18.6969 18.1115 18.9081 18.5422C19.1228 18.9801 19.0707 19.2532 18.9948 19.3846C18.919 19.5159 18.7086 19.6976 18.222 19.7306ZM18.0076 23.408C18.5208 22.8947 18.8112 22.3224 18.9037 21.8518C18.9978 21.3732 18.8767 21.123 18.7695 21.0157C18.6622 20.9084 18.4119 20.7874 17.9334 20.8814C17.4627 20.974 16.8904 21.2643 16.3772 21.7775C15.864 22.2907 15.5736 22.863 15.4811 23.3337C15.387 23.8123 15.5081 24.0625 15.6153 24.1698C15.7226 24.2771 15.9729 24.3981 16.4514 24.304C16.9221 24.2115 17.4944 23.9212 18.0076 23.408ZM20.6165 21.096C21.0079 21.096 21.3251 20.7788 21.3251 20.3874C21.3251 19.996 21.0079 19.6787 20.6165 19.6787C20.2251 19.6787 19.9078 19.996 19.9078 20.3874C19.9078 20.7788 20.2251 21.096 20.6165 21.096Z" fill="#00A695"/>
</svg>
