<svg width="35" height="30" viewBox="0 0 35 30" fill="none" xmlns="http://www.w3.org/2000/svg">
<path fill-rule="evenodd" clip-rule="evenodd" d="M17.326 12.7821C17.326 19.4347 13.6022 24.8278 9.00869 24.8278C4.41518 24.8278 0.691406 19.4347 0.691406 12.7821C0.691406 6.12939 2.43343 0.736328 9.00869 0.736328C15.3381 0.736328 17.326 6.12939 17.326 12.7821ZM15.7588 12.7821C15.7588 13.9835 15.6259 15.1294 15.3851 16.1926C13.9243 16.2656 11.7288 16.5369 9.79231 18.1834V15.1923C11.8897 14.7695 13.4828 12.6797 13.4828 10.1652C13.4828 7.34578 11.4797 5.06015 9.00867 5.06015C6.53767 5.06015 4.53453 7.34578 4.53453 10.1652C4.53453 12.6797 6.12772 14.7696 8.22511 15.1923V18.1834C6.28865 16.5369 4.09307 16.2656 2.63229 16.1926C2.39151 15.1294 2.25861 13.9835 2.25861 12.7821C2.25861 9.53457 2.69455 6.86314 3.74186 5.04752C4.24939 4.16768 4.89182 3.50364 5.70119 3.05018C6.51441 2.59456 7.58222 2.30353 9.00869 2.30353C11.6271 2.30353 13.1894 3.36585 14.1916 5.06175C15.2687 6.88439 15.7588 9.56135 15.7588 12.7821ZM9.79231 20.4539C11.3492 18.4178 13.3452 17.9331 14.9203 17.7946C14.5687 18.7754 14.1201 19.6564 13.6003 20.4092C12.4902 22.0168 11.1334 22.9504 9.74799 23.1953C9.7767 23.1138 9.79231 23.0262 9.79231 22.9349V20.4539ZM8.22511 20.4539C6.66817 18.4178 4.67222 17.9331 3.09713 17.7946C3.44866 18.7754 3.89733 19.6564 4.41713 20.4092C5.52717 22.0169 6.88401 22.9504 8.26943 23.1953C8.24073 23.1138 8.22511 23.0262 8.22511 22.9349V20.4539ZM11.9156 10.1652C11.9156 12.051 10.7747 13.3459 9.53961 13.6397C9.21689 13.6758 9.19368 13.6758 8.98886 13.6758C8.78403 13.6758 8.72627 13.6758 8.4778 13.6397C7.24264 13.346 6.10173 12.051 6.10173 10.1652C6.10173 8.0107 7.59105 6.62735 9.00867 6.62735C10.4263 6.62735 11.9156 8.0107 11.9156 10.1652Z" fill="#00A695"/>
<path fill-rule="evenodd" clip-rule="evenodd" d="M34.9105 17.1059C34.9105 23.7586 31.1867 29.1517 26.5932 29.1517C21.9997 29.1517 18.2759 23.7586 18.2759 17.1059C18.2759 10.4533 20.0179 5.06021 26.5932 5.06021C32.9226 5.06021 34.9105 10.4533 34.9105 17.1059ZM32.5047 22.1185C32.1532 23.0992 31.7046 23.9803 31.1847 24.7331C30.0747 26.3407 28.7179 27.2743 27.3325 27.5192C27.3612 27.4377 27.3768 27.3501 27.3768 27.2588V24.7778C28.9337 22.7417 30.9297 22.257 32.5047 22.1185ZM32.9696 20.5164C33.2104 19.4533 33.3433 18.3074 33.3433 17.1059C33.3433 13.8852 32.8532 11.2083 31.7761 9.38564C30.7739 7.68973 29.2116 6.62742 26.5932 6.62742C25.1667 6.62742 24.0989 6.91845 23.2857 7.37407C22.4763 7.82753 21.8339 8.49156 21.3264 9.3714C20.279 11.187 19.8431 13.8585 19.8431 17.1059C19.8431 18.3074 19.976 19.4533 20.2168 20.5164C21.6776 20.5894 23.8731 20.8608 25.8096 22.5072V19.5162C23.7122 19.0935 22.119 17.0036 22.119 14.4891C22.119 11.6697 24.1222 9.38403 26.5932 9.38403C29.0642 9.38403 31.0673 11.6697 31.0673 14.4891C31.0673 17.0036 29.4742 19.0934 27.3768 19.5162V22.5072C29.3132 20.8608 31.5088 20.5894 32.9696 20.5164ZM20.6816 22.1185C22.2567 22.257 24.2527 22.7417 25.8096 24.7778V27.2588C25.8096 27.3501 25.8252 27.4377 25.8539 27.5192C24.4685 27.2743 23.1117 26.3407 22.0016 24.7331C21.4818 23.9803 21.0332 23.0992 20.6816 22.1185ZM27.1241 17.9636C26.8088 18.0386 26.7996 18.0386 26.5948 18.0386C26.39 18.0386 26.2576 18.0101 26.0623 17.9636C24.8271 17.6699 23.6862 16.3749 23.6862 14.4891C23.6862 12.3346 25.1755 10.9512 26.5932 10.9512C28.0108 10.9512 29.5001 12.3346 29.5001 14.4891C29.5001 16.3749 28.3592 17.6698 27.1241 17.9636Z" fill="#00A695"/>
</svg>
