<svg width="35" height="41" viewBox="0 0 35 41" fill="none" xmlns="http://www.w3.org/2000/svg">
<path fill-rule="evenodd" clip-rule="evenodd" d="M6.2565 3.11113C6.27129 2.90647 6.36905 2.71469 6.52722 2.58258C6.66401 2.44037 6.854 2.35369 7.05777 2.34929C10.6374 1.17793 19.223 -0.291825 27.6326 2.44354C28.0313 2.57323 28.2494 3.00159 28.1197 3.40032C28.1119 3.42418 28.1031 3.4474 28.0933 3.46994C28.0913 3.49736 28.0877 3.52494 28.0827 3.5526L26.8169 10.4403C27.1923 10.647 27.4466 11.0464 27.4466 11.5051V13.5484C27.4466 13.7813 27.381 13.9989 27.2674 14.1838C27.3191 14.245 27.3619 14.3155 27.3931 14.3941L34.41 32.0864C34.6272 32.6339 34.4204 33.2562 33.9244 33.5673L33.9238 33.5677C32.9182 34.1982 30.9911 35.4066 28.8181 35.7048L29.137 37.425C29.1444 37.4649 29.1485 37.5047 29.1495 37.5441C29.1658 37.5752 29.1801 37.6078 29.1923 37.6419C29.3331 38.0368 29.1272 38.4711 28.7322 38.612C21.0539 41.3503 12.1416 39.9011 8.25312 38.7452C7.63845 38.5625 7.29365 37.9417 7.41971 37.3396L7.63299 36.3211C7.61324 36.3219 7.59332 36.322 7.57324 36.3212C5.20416 36.2329 2.7297 35.019 1.5402 34.2896C1.03805 33.9817 0.857057 33.3738 1.04567 32.8556L7.78463 14.3414C7.6011 14.1286 7.49013 13.8515 7.49013 13.5484V11.5051C7.49013 11.2947 7.54363 11.0968 7.63779 10.9242C7.57154 10.8344 7.52416 10.7284 7.50263 10.6112L6.20545 3.5526C6.177 3.39774 6.1977 3.24523 6.2565 3.11113ZM26.5145 3.68532C20.4427 1.87382 14.3231 2.29538 10.3627 3.07458C14.188 4.03745 19.9824 5.78456 25.663 8.31843L26.5145 3.68532ZM27.5876 37.3971L23.3921 14.7631H22.9429V26.3458C22.9429 27.0167 22.3991 27.5605 21.7282 27.5605H19.2167C18.5458 27.5605 18.002 27.0167 18.002 26.3458V14.7631H13.526C13.6026 14.9124 13.6304 15.0878 13.5933 15.2648L8.96453 37.3706C12.7232 38.4329 20.659 39.6305 27.5876 37.3971ZM24.9363 14.7631L28.5411 34.2102C30.2389 33.9991 31.8386 33.0757 32.9061 32.413L25.9817 14.9539C25.9568 14.8912 25.9409 14.8271 25.9333 14.7631H24.9363ZM9.24695 14.7631H12.1743C12.1442 14.822 12.1214 14.8858 12.1072 14.9536L7.93471 34.8802C7.84231 34.835 7.73919 34.808 7.62979 34.8039C5.77684 34.7348 3.72691 33.8076 2.56131 33.1308L9.24695 14.7631ZM7.8388 4.03991L8.98747 10.2904H25.3006L25.3844 9.8348C25.3271 9.8239 25.2702 9.80618 25.2146 9.78125C18.348 6.69755 11.268 4.7822 7.8388 4.03991ZM21.0439 13.2447L19.2167 13.2447L19.2113 13.2447H18.4392V11.8088H21.0439V13.2447ZM19.5203 14.7631V26.0422H21.4245V14.7631L19.5203 14.7631ZM9.00849 11.8088H16.9208V13.2447H9.00849V11.8088ZM22.6133 11.8088V13.2447H25.9282V11.8088H22.6133Z" fill="#00A695"/>
</svg>
