<svg width="47" height="39" viewBox="0 0 47 39" fill="none" xmlns="http://www.w3.org/2000/svg">
<path fill-rule="evenodd" clip-rule="evenodd" d="M14.002 1.63237C14.002 1.22164 14.3349 0.888672 14.7457 0.888672H19.5975C19.8473 0.888672 20.0908 0.96733 20.2935 1.11349L24.3197 4.01735L27.1513 1.23052C27.3739 1.01145 27.6737 0.888672 27.986 0.888672H32.9053C33.1198 0.888672 33.313 0.979411 33.4487 1.12458C33.5434 1.1898 33.6243 1.27801 33.6822 1.38641L46.7511 25.8529C46.9232 26.1751 46.9377 26.5586 46.7906 26.8929L43.2926 34.8395C43.2106 35.0256 43.0808 35.1936 42.9045 35.3208C41.7932 36.123 40.0065 37.157 38.1349 37.7157C36.2969 38.2643 34.1466 38.4179 32.5529 37.1032C32.5374 37.0904 32.5225 37.0771 32.5083 37.0633C32.492 37.064 32.4756 37.0643 32.4591 37.0643H15.1919C15.1847 37.0643 15.1776 37.0642 15.1705 37.0641C13.588 38.3313 11.4712 38.1757 9.66002 37.6351C7.79671 37.079 6.01797 36.0497 4.91149 35.2511C4.73527 35.1239 4.60536 34.9558 4.52344 34.7697L1.04225 26.8614C0.895071 26.527 0.909632 26.1436 1.08175 25.8213L14.002 1.63312V1.63237ZM11.5606 9.36055L2.46187 26.3945L5.85148 34.0948C6.86923 34.8187 8.46246 35.7255 10.0854 36.2098C11.6401 36.6739 13.0295 36.6978 14.0169 36.0637C14.0071 36.0021 14.002 35.9388 14.002 35.8744V26.2873C13.9793 26.2517 13.9593 26.2137 13.9424 26.1735L12.514 22.7601C12.4951 22.715 12.481 22.6691 12.4715 22.623C12.4252 22.496 12.4 22.3588 12.4 22.2158V20.0025C12.4 19.3453 12.9327 18.8126 13.5899 18.8126H14.002V9.48161C13.3202 9.54913 12.5696 9.53164 11.7456 9.41224C11.6804 9.40279 11.6185 9.38517 11.5606 9.36055ZM12.2963 7.98319C14.729 8.2491 16.1625 7.43384 17.0195 6.3851C17.9576 5.23715 18.2874 3.70466 18.2874 2.64246C18.2874 2.54858 18.3048 2.45877 18.3365 2.37606H15.2914L12.2963 7.98319ZM19.7714 2.5708C19.7736 2.59438 19.7748 2.61828 19.7748 2.64245C19.7748 3.93828 19.3868 5.83879 18.1712 7.32629C17.5108 8.13446 16.6282 8.79307 15.4894 9.17123V12.7083L23.2444 5.07569L19.7714 2.5708ZM28.1078 2.37606H28.188C28.2216 3.63986 28.6202 5.40397 29.7601 6.79887C30.3669 7.54145 31.1645 8.15522 32.1798 8.53541V18.8126H15.4894V17.4682C15.6139 17.5125 15.7481 17.5366 15.8879 17.5366H23.8191C24.4763 17.5366 25.009 17.0039 25.009 16.3467V14.1334C25.009 13.4762 24.4763 12.9435 23.8191 12.9435H17.3708L28.1078 2.37606ZM30.9118 5.85768C30.0461 4.79821 29.7103 3.40262 29.676 2.37606H32.5245L35.2322 7.44516C33.031 7.61083 31.713 6.83802 30.9118 5.85768ZM33.6672 8.895C34.3635 8.98187 35.1353 8.97663 35.9877 8.85952L45.3709 26.4261L41.9645 34.1646C40.9419 34.8921 39.3407 35.8035 37.7095 36.2904C36.0821 36.7762 34.6339 36.7825 33.6346 36.0603C33.6441 35.9997 33.649 35.9376 33.649 35.8744V26.4075L35.3201 22.7844C35.3837 22.6465 35.4015 22.4992 35.3798 22.3596C35.3855 22.3125 35.3884 22.2645 35.3884 22.2158V20.0025C35.3884 19.3453 34.8557 18.8126 34.1985 18.8126H33.6672V8.895ZM32.1616 26.2907C32.1599 26.2613 32.1599 26.2317 32.1616 26.202V23.4057H15.4894V35.5769H32.1616V26.2907ZM32.9053 21.8993C32.963 21.8993 33.019 21.9059 33.0729 21.9183H33.901V20.3H13.8874V21.9183H14.5781C14.632 21.9059 14.688 21.8993 14.7457 21.8993C14.8033 21.8993 14.8594 21.9059 14.9132 21.9183H32.7378C32.7916 21.9059 32.8477 21.8993 32.9053 21.8993ZM16.1854 14.4309H18.737V16.0492H16.1854V14.4309ZM20.2243 14.4309V16.0492H23.5216V14.4309H20.2243Z" fill="#00A695"/>
</svg>
