<svg width="44" height="22" viewBox="0 0 44 22" fill="none" xmlns="http://www.w3.org/2000/svg">
<path fill-rule="evenodd" clip-rule="evenodd" d="M22.8577 0.933339C20.793 0.772836 18.9892 2.31647 18.8287 4.38114C18.7825 4.97468 18.8772 5.54666 19.0846 6.06425C17.2977 6.08111 15.7697 7.3659 15.44 9.11479H2.75541C1.46448 9.11479 0.417969 10.1613 0.417969 11.4522C0.417969 12.7432 1.46447 13.7897 2.75541 13.7897H26.5049C26.5875 13.7897 26.6668 13.7757 26.7406 13.75C28.472 13.5346 29.8716 12.1265 30.0121 10.3193C30.1726 8.25465 28.629 6.45079 26.5643 6.29029C26.3563 6.27411 26.1509 6.27524 25.9496 6.29246C26.1442 5.88644 26.2685 5.43824 26.3055 4.96237C26.466 2.8977 24.9224 1.09384 22.8577 0.933339ZM20.256 4.49209C20.3552 3.21569 21.4704 2.26141 22.7467 2.36063C24.0231 2.45986 24.9774 3.57502 24.8782 4.85142C24.779 6.12782 23.6638 7.0821 22.3874 6.98288C21.111 6.88366 20.1567 5.76849 20.256 4.49209ZM23.3353 12.3581C23.031 11.9745 22.8011 11.5312 22.665 11.0511C22.4934 11.5433 22.223 11.9862 21.8791 12.3581H23.3353ZM16.3697 12.3581C15.9078 11.8577 15.5822 11.2332 15.4459 10.5464H2.75541C2.25513 10.5464 1.84957 10.9519 1.84957 11.4522C1.84957 11.9525 2.25513 12.3581 2.75541 12.3581H16.3697ZM22.733 8.79157C22.6973 8.66553 22.6551 8.54202 22.6067 8.42147C22.7024 8.42057 22.7972 8.41603 22.8912 8.40799C22.8317 8.53205 22.7788 8.66005 22.733 8.79157ZM23.9626 9.84904C24.0618 8.57264 25.177 7.61835 26.4533 7.71758C27.7297 7.8168 28.684 8.93197 28.5848 10.2084C28.4856 11.4848 27.3704 12.4391 26.094 12.3398C24.8176 12.2406 23.8633 11.1254 23.9626 9.84904ZM19.304 7.50284C18.0276 7.40361 16.9124 8.3579 16.8132 9.6343C16.7139 10.9107 17.6682 12.0259 18.9446 12.1251C20.221 12.2243 21.3362 11.27 21.4354 9.99363C21.5346 8.71723 20.5804 7.60206 19.304 7.50284Z" fill="#00A695"/>
<path fill-rule="evenodd" clip-rule="evenodd" d="M32.2167 12.5187C32.3772 10.4541 34.1811 8.91043 36.2458 9.07094C38.3104 9.23144 39.8541 11.0353 39.6936 13.1C39.6566 13.5758 39.5323 14.024 39.3376 14.4301C39.5389 14.4128 39.7443 14.4117 39.9524 14.4279C42.017 14.5884 43.5607 16.3922 43.4002 18.4569C43.2597 20.2641 41.8601 21.6722 40.1286 21.8876C40.0548 21.9133 39.9755 21.9273 39.8929 21.9273H16.1435C14.8525 21.9273 13.806 20.8808 13.806 19.5898C13.806 18.2989 14.8525 17.2524 16.1435 17.2524H28.8281C29.1578 15.5035 30.6857 14.2187 32.4727 14.2018C32.2653 13.6843 32.1706 13.1123 32.2167 12.5187ZM36.1348 10.4982C34.8584 10.399 33.7432 11.3533 33.644 12.6297C33.5448 13.9061 34.4991 15.0213 35.7755 15.1205C37.0519 15.2197 38.167 14.2654 38.2663 12.989C38.3655 11.7126 37.4112 10.5975 36.1348 10.4982ZM28.8339 18.684H16.1435C15.6432 18.684 15.2376 19.0895 15.2376 19.5898C15.2376 20.0901 15.6432 20.4957 16.1435 20.4957H29.7578C29.2958 19.9953 28.9703 19.3708 28.8339 18.684ZM35.2671 20.4957H36.7233C36.4191 20.1121 36.1891 19.6688 36.0531 19.1887C35.8814 19.6809 35.611 20.1238 35.2671 20.4957ZM36.2793 16.5456C36.2198 16.6697 36.1669 16.7976 36.121 16.9292C36.0853 16.8031 36.0431 16.6796 35.9948 16.5591C36.0904 16.5582 36.1853 16.5536 36.2793 16.5456ZM37.3506 17.9866C37.4498 16.7102 38.565 15.756 39.8414 15.8552C41.1178 15.9544 42.0721 17.0696 41.9729 18.346C41.8736 19.6224 40.7585 20.5766 39.4821 20.4774C38.2057 20.3782 37.2514 19.263 37.3506 17.9866ZM32.692 15.6404C31.4156 15.5412 30.3005 16.4955 30.2012 17.7719C30.102 19.0483 31.0563 20.1635 32.3327 20.2627C33.6091 20.3619 34.7243 19.4076 34.8235 18.1312C34.9227 16.8548 33.9684 15.7397 32.692 15.6404Z" fill="#00A695"/>
</svg>
