<svg width="36" height="39" viewBox="0 0 36 39" fill="none" xmlns="http://www.w3.org/2000/svg">
<path fill-rule="evenodd" clip-rule="evenodd" d="M20.3921 0.32948C19.8592 0.116323 19.2527 0.356881 19.0107 0.877332L16.6823 5.88604L14.3615 0.878619C14.1199 0.357457 13.5129 0.116309 12.9796 0.329644L11.2029 1.04032C10.775 1.21146 10.5183 1.62417 10.5233 2.05661L8.60911 2.5633C8.5006 2.59203 8.39963 2.63665 8.30843 2.69427C8.24127 2.72646 8.17833 2.77039 8.12269 2.82606L2.67467 8.27702C2.59529 8.35644 2.53981 8.45072 2.50824 8.55089C2.47432 8.59604 2.44575 8.6459 2.42371 8.69974C2.40658 8.74132 2.39388 8.78394 2.38549 8.827L0.483101 17.4934C0.468552 17.5546 0.462458 17.6182 0.465687 17.6825C0.468925 17.7485 0.481859 17.8128 0.503359 17.8736C1.54386 20.9861 3.39723 22.7173 5.45151 23.5563L2.23429 34.033C2.07834 34.5409 2.31404 35.1081 2.82704 35.331C3.82714 35.7656 5.58379 36.3796 7.5573 36.45L7.50533 36.732C7.40154 37.2953 7.75625 37.8594 8.34034 37.9807C11.7988 38.6987 19.653 39.5868 26.4121 37.8926C26.774 37.8019 26.9938 37.4351 26.9031 37.0732C26.8876 37.0115 26.8642 36.954 26.834 36.9014C26.8332 36.8972 26.8324 36.8931 26.8315 36.889L26.6539 36.0505C28.5574 35.8211 30.5669 34.9802 31.5505 34.5547C32.0931 34.32 32.3408 33.6968 32.1214 33.1563L29.2814 26.1604C29.4798 26.21 29.6981 26.1693 29.8696 26.0312L35.5298 21.4706C35.9533 21.1294 36.0572 20.5266 35.7725 20.0633L25.5527 3.43115C25.4842 3.01721 25.179 2.67342 24.763 2.5633L22.8503 2.05701C22.8552 1.62452 22.5984 1.21199 22.1707 1.04093L20.3921 0.32948ZM26.3726 34.7232C27.9392 34.5608 29.6934 33.877 30.7702 33.4194L23.95 16.6186C23.9268 16.5615 23.912 16.5031 23.905 16.4447H22.6025C22.414 16.605 22.1697 16.7017 21.9028 16.7017H18.38V27.5414C18.38 28.1382 17.8962 28.6221 17.2993 28.6221H15.2285C14.6317 28.6221 14.1478 28.1382 14.1478 27.5414V20.6636L13.5769 22.7876C13.4902 23.1097 13.256 23.3881 12.9207 23.5132C11.381 24.0876 9.0449 24.5036 6.73917 23.9651L3.59907 34.1906C4.55453 34.5822 6.05763 35.0598 7.6922 35.1026C7.73014 35.1036 7.76727 35.1077 7.80334 35.1146L8.81889 29.6032C8.88649 29.2363 9.2387 28.9937 9.60557 29.0613C9.97244 29.1289 10.215 29.4811 10.1474 29.848L8.88266 36.7121C12.247 37.3741 19.2585 38.1113 25.4189 36.7395L23.9212 29.6713C23.8439 29.3063 24.077 28.9478 24.442 28.8705C24.8069 28.7931 25.1654 29.0263 25.2428 29.3912L26.3726 34.7232ZM28.8712 25.1498C28.9104 25.0865 28.9607 25.0286 29.022 24.9793L34.497 20.5679L32.881 17.9379L27.6842 22.2258L28.8712 25.1498ZM27.1516 20.9138L32.1668 16.7757L25.5672 6.03516V15.364C25.5672 15.6774 25.4337 15.9597 25.2206 16.1571L27.1516 20.9138ZM1.84074 17.6093L3.5025 10.0391L9.70239 13.9329L6.81606 22.5919L6.80529 22.5891C4.83683 22.0602 2.91643 20.6774 1.84074 17.6093ZM8.16151 22.8276C9.70614 22.9674 11.2105 22.6861 12.3096 22.2979L13.8568 16.5422L10.8799 14.6725L8.16151 22.8276ZM14.1478 15.1297V13.5311C14.1478 13.0037 14.5255 12.5646 15.0252 12.4694L10.9908 3.33029L9.15584 3.81602V11.8977C9.15584 11.9292 9.15369 11.9602 9.14953 11.9905L14.1478 15.1297ZM7.80493 11.146V5.05499L4.06488 8.79706L7.80493 11.146ZM24.2162 3.83663L24.2011 3.81202L22.3864 3.33165L18.4034 12.4503H21.9028C22.4997 12.4503 22.9836 12.9342 22.9836 13.5311V15.0938H24.2162V3.83663ZM16.9354 12.4503H16.4934L12.0427 2.36794C12.0416 2.36331 12.0404 2.35868 12.0392 2.35406C12.0234 2.29454 12.0002 2.23899 11.9708 2.18814L13.2435 1.67905L16.0541 7.74318C16.1705 7.99423 16.4214 8.14006 16.6814 8.13461C16.9411 8.14004 17.1919 7.99454 17.3084 7.74388L20.1279 1.67878L21.4013 2.18814C21.3719 2.23899 21.3487 2.29454 21.3329 2.35406C21.3301 2.36473 21.3275 2.37541 21.3252 2.38608L16.9654 12.3674C16.9535 12.3947 16.9435 12.4224 16.9354 12.4503ZM15.4987 13.8013H17.6189V15.3508H15.4987V13.8013ZM18.9698 15.0938H21.6327V13.8013H18.9698V15.0938ZM17.0291 27.2712V16.7018H15.4987V27.2712H17.0291Z" fill="#00A695"/>
</svg>
