<svg width="238" height="289" viewBox="0 0 238 289" fill="none" xmlns="http://www.w3.org/2000/svg">
<path fill-rule="evenodd" clip-rule="evenodd" d="M190.02 68.8055C190.02 106.73 159.276 137.474 121.351 137.474C83.4261 137.474 52.682 106.73 52.682 68.8055C52.682 30.8807 83.4261 0.136597 121.351 0.136597C159.276 0.136597 190.02 30.8807 190.02 68.8055ZM163.871 68.8055C163.871 92.2889 144.834 111.326 121.351 111.326C97.8674 111.326 78.8303 92.2889 78.8303 68.8055C78.8303 45.322 97.8674 26.2849 121.351 26.2849C144.834 26.2849 163.871 45.322 163.871 68.8055Z" fill="#00A695"/>
<path d="M119.127 150.929C53.7091 150.929 0.677697 203.96 0.677734 269.378L0.677738 275.778C0.677742 282.999 6.53125 288.852 13.7519 288.852C20.9726 288.852 26.8261 282.999 26.8261 275.778L26.8261 269.378C26.826 218.402 68.1505 177.077 119.127 177.077C170.103 177.077 211.427 218.402 211.428 269.378V275.778C211.428 282.999 217.281 288.852 224.502 288.852C231.722 288.852 237.576 282.999 237.576 275.778V269.378C237.576 203.96 184.544 150.929 119.127 150.929Z" fill="#00A695"/>
</svg>
