<svg width="269" height="320" viewBox="0 0 269 320" fill="none" xmlns="http://www.w3.org/2000/svg">
<path d="M61.6689 155.229C55.1289 155.229 49.8272 160.531 49.8272 167.071C49.8272 173.611 55.1289 178.912 61.6689 178.912H207.745C214.285 178.912 219.587 173.611 219.587 167.071C219.587 160.531 214.285 155.229 207.745 155.229H61.6689Z" fill="#00A695"/>
<path d="M139.939 97.3078C139.939 90.7678 145.241 85.4661 151.781 85.4661L207.745 85.4661C214.285 85.4661 219.587 90.7678 219.587 97.3078C219.587 103.848 214.285 109.15 207.745 109.15L151.781 109.15C145.241 109.15 139.939 103.848 139.939 97.3078Z" fill="#00A695"/>
<path d="M61.6689 224.992C55.1289 224.992 49.8272 230.294 49.8272 236.834C49.8272 243.374 55.1289 248.675 61.6689 248.675H207.745C214.285 248.675 219.587 243.374 219.587 236.834C219.587 230.294 214.285 224.992 207.745 224.992H61.6689Z" fill="#00A695"/>
<path fill-rule="evenodd" clip-rule="evenodd" d="M230.881 19.5084H121.984C118.902 8.55633 108.84 0.527588 96.9031 0.527588H62.3968C50.4554 0.527588 40.3905 8.56188 37.3128 19.5198C16.8178 20.0172 0.356445 36.7872 0.356445 57.4019V281.325C0.356445 302.253 17.322 319.218 38.2499 319.218H230.881C251.809 319.218 268.775 302.253 268.775 281.325V57.4019C268.775 36.4739 251.809 19.5084 230.881 19.5084ZM36.345 115.931C36.345 122.34 44.0827 125.562 48.632 121.048L77.7906 94.5957L77.9259 94.4908C78.9266 93.7151 80.337 93.7591 81.2873 94.5957L108.33 121.048C114.137 125.889 122.955 121.76 122.955 114.2V43.1919H230.881C238.729 43.1919 245.091 49.5539 245.091 57.4019V281.325C245.091 289.173 238.729 295.535 230.881 295.535H38.2499C30.4019 295.535 24.0399 289.173 24.0399 281.325V57.4019C24.0399 50.1999 29.3977 44.2492 36.345 43.3184V115.931ZM99.2715 79.0573V26.5793C99.2715 25.2714 98.2111 24.211 96.9031 24.211H62.3968C61.0887 24.211 60.0284 25.2713 60.0284 26.5793V78.7323L62.5568 76.4387L63.4162 75.7725C73.3945 68.038 87.4595 68.4768 96.9359 76.8186L97.403 77.2297L99.2715 79.0573Z" fill="#00A695"/>
</svg>
