<svg width="305" height="282" viewBox="0 0 305 282" fill="none" xmlns="http://www.w3.org/2000/svg">
<path d="M113.934 123.089C108.079 123.089 103.333 127.836 103.333 133.691C103.333 139.546 108.079 144.292 113.934 144.292H244.715C250.57 144.292 255.317 139.546 255.317 133.691C255.317 127.836 250.57 123.089 244.715 123.089H113.934Z" fill="#00A695"/>
<path d="M165.541 175.298C159.686 175.298 154.94 180.045 154.94 185.9C154.94 191.755 159.686 196.502 165.541 196.502H244.715C250.57 196.502 255.317 191.755 255.317 185.9C255.317 180.045 250.57 175.298 244.715 175.298H165.541Z" fill="#00A695"/>
<path fill-rule="evenodd" clip-rule="evenodd" d="M232.574 0.276669H97.4341C73.4278 0.276669 53.9669 19.7376 53.9669 43.7439V106.541L49.0171 101.591C42.8067 95.3809 32.7377 95.3809 26.5274 101.591L4.70001 123.419C-1.51036 129.629 -1.51035 139.698 4.70001 145.908L53.9669 195.175V237.597C53.9669 261.603 73.4278 281.064 97.4341 281.064H261.215C285.221 281.064 304.682 261.603 304.682 237.597V71.1722C304.682 70.3116 304.58 69.4749 304.386 68.6737C304.016 63.9752 302.054 59.2995 298.214 55.4593L249.196 6.44188C244.426 1.67131 238.366 -0.201283 232.574 0.276669ZM234.248 21.4802H234.198L228.14 76.515L283.22 70.4525L234.248 21.4802ZM65.7578 148.318L51.427 162.649L120.128 231.35L137.059 233.95L134.459 217.019L65.7578 148.318ZM36.4339 147.656L50.7646 133.325L37.7722 120.333L23.4414 134.663L36.4339 147.656ZM75.1704 43.7439V127.745L150.68 203.254C153.072 205.647 154.64 208.74 155.153 212.085L159.114 237.873C160.744 248.489 151.598 257.635 140.981 256.005L115.194 252.044C111.849 251.531 108.755 249.964 106.363 247.571L75.1704 216.379V237.597C75.1704 249.893 85.1382 259.861 97.4341 259.861H261.215C273.511 259.861 283.479 249.893 283.479 237.597V91.7556L230.46 97.5912C216.972 99.0759 205.58 87.6837 207.064 74.1952L212.866 21.4802H97.4341C85.1382 21.4802 75.1704 31.448 75.1704 43.7439Z" fill="#00A695"/>
</svg>
